<svg width="24" height="24" viewBox="0 0 24 24" fill="none" xmlns="http://www.w3.org/2000/svg">
<path d="M6.34473 15.4492C6.61938 15.4492 6.89452 15.4746 7.16895 15.5254C7.45465 15.5764 7.71552 15.6584 7.95215 15.7715L7.9541 15.7725C8.08238 15.8367 8.17829 15.9249 8.2373 16.0381L8.28223 16.1172C8.32066 16.1985 8.33984 16.2865 8.33984 16.3799C8.33976 16.5152 8.30143 16.6426 8.22754 16.7617L8.14258 16.8779C8.01657 17.0268 7.84396 17.0996 7.63477 17.0996C7.54551 17.0996 7.45254 17.0828 7.35645 17.0508L7.35254 17.0498C7.17738 16.9817 6.987 16.9269 6.78125 16.8877H6.77734C6.57138 16.8387 6.39265 16.8145 6.24023 16.8145C5.73904 16.8145 5.32343 16.9823 4.98828 17.3174C4.66509 17.6505 4.5 18.1004 4.5 18.6748C4.50007 19.2898 4.67042 19.7639 5.00293 20.1064L5.13672 20.2275C5.45915 20.4916 5.85557 20.624 6.33008 20.624C6.55133 20.624 6.78891 20.586 7.04297 20.5078C7.29747 20.4295 7.4993 20.333 7.65039 20.2197L7.65527 20.2158C7.77716 20.1384 7.91151 20.0996 8.05566 20.0996C8.24307 20.0997 8.3976 20.1667 8.5127 20.3018C8.63786 20.4271 8.70019 20.5868 8.7002 20.7744C8.7002 21.0211 8.58658 21.2317 8.37207 21.4033C8.17082 21.5622 7.86953 21.6955 7.47559 21.8066C7.07967 21.9183 6.69286 21.9746 6.31543 21.9746C5.68433 21.9746 5.11641 21.8372 4.61426 21.5606L4.61328 21.5596C4.11168 21.2729 3.71633 20.8785 3.42969 20.377C3.14265 19.8746 3.00006 19.3064 3 18.6748C3 18.0143 3.13733 17.4405 3.41504 16.957L3.41602 16.9561C3.70329 16.4739 4.09908 16.104 4.60156 15.8477C5.10367 15.5816 5.68538 15.4493 6.34473 15.4492Z" fill="currentColor"/>
<path d="M12.2861 15.4492C13.0183 15.4493 13.6118 15.6376 14.0586 16.0215L14.123 16.0801C14.2653 16.2201 14.3408 16.3851 14.3408 16.5742C14.3408 16.7575 14.2656 16.9173 14.1221 17.0498C13.9876 17.1729 13.8235 17.2344 13.6357 17.2344C13.4915 17.2344 13.3573 17.1958 13.2354 17.1182C12.8666 16.8853 12.4808 16.7696 12.0762 16.7695C11.836 16.7695 11.6392 16.8176 11.4834 16.9092C11.3371 16.9954 11.2658 17.1205 11.2656 17.2939C11.2656 17.4635 11.3668 17.6078 11.6104 17.7207C11.8728 17.8373 12.2577 17.9463 12.7656 18.0459C13.0511 18.097 13.3301 18.1886 13.6045 18.3203C13.8966 18.4455 14.1375 18.6392 14.3252 18.8994L14.3965 19.0039C14.551 19.2573 14.626 19.5796 14.626 19.9648C14.6259 20.4828 14.4497 20.9197 14.0996 21.2715L13.9385 21.417C13.4923 21.7904 12.9191 21.9746 12.2256 21.9746C11.7574 21.9746 11.3182 21.8985 10.9092 21.7451L10.9082 21.7441C10.4999 21.5808 10.174 21.3644 9.93457 21.0938C9.81318 20.9606 9.75098 20.8024 9.75098 20.624C9.75108 20.4326 9.82507 20.2638 9.96777 20.1211C10.1114 19.9776 10.2852 19.9044 10.4854 19.9043C10.6743 19.9043 10.838 19.9717 10.9717 20.1045C11.1326 20.256 11.3382 20.3767 11.5898 20.4639C11.8427 20.5514 12.0902 20.5947 12.3311 20.5947C12.58 20.5947 12.7913 20.5416 12.9678 20.4395C13.1318 20.3349 13.2158 20.1759 13.2158 19.9492C13.2158 19.7656 13.1392 19.6296 12.9814 19.5332L12.9775 19.5313C12.8219 19.4215 12.5454 19.3284 12.1377 19.2588C11.4026 19.1379 10.8387 18.9349 10.4551 18.6445L10.4541 18.6436C10.064 18.3377 9.87109 17.9093 9.87109 17.3691C9.87117 16.7869 10.0958 16.3193 10.5449 15.9746C10.9913 15.622 11.5745 15.4492 12.2861 15.4492Z" fill="currentColor"/>
<path d="M16.375 15.5244C16.5101 15.5245 16.643 15.5641 16.7725 15.6397C16.9184 15.7088 17.0148 15.8237 17.0605 15.9805L18.2754 19.5645L18.3184 19.666C18.3329 19.6936 18.3481 19.7153 18.3623 19.7314C18.3894 19.762 18.4116 19.7695 18.4297 19.7695C18.4495 19.7695 18.4724 19.7618 18.499 19.7334C18.527 19.7035 18.5558 19.6533 18.584 19.5781L19.874 15.9941L19.9219 15.8857C19.9762 15.7856 20.0507 15.7071 20.1465 15.6543C20.2761 15.5787 20.4097 15.5391 20.5449 15.5391C20.7838 15.5391 20.9769 15.6225 21.1133 15.793C21.2423 15.9543 21.3096 16.1303 21.3096 16.3193V16.4248C21.3095 16.4687 21.2946 16.5129 21.2734 16.5566L19.3242 21.3877C19.2479 21.5834 19.1156 21.7308 18.9307 21.8291C18.7598 21.9252 18.5778 21.9746 18.3848 21.9746C18.2009 21.9746 18.0228 21.9259 17.8525 21.8301C17.6766 21.7311 17.5505 21.5819 17.4746 21.3867L15.6592 16.5254L15.6582 16.5234C15.6261 16.4272 15.6094 16.3335 15.6094 16.2441C15.6094 16.0332 15.6887 15.8573 15.8457 15.7227C15.9989 15.5913 16.1766 15.5244 16.375 15.5244Z" fill="currentColor"/>
<path fill-rule="evenodd" clip-rule="evenodd" d="M13.6992 3C13.8981 3 14.0888 3.07908 14.2295 3.21973L19.6299 8.62012C19.7703 8.76073 19.8496 8.95167 19.8496 9.15039V13.4502C19.8495 13.8642 19.5136 14.2 19.0996 14.2002C18.6855 14.2002 18.3497 13.8643 18.3496 13.4502V9.89942H15.1396C14.9001 9.89942 14.675 9.90008 14.4873 9.88477C14.2909 9.86873 14.0701 9.8315 13.8506 9.71973C13.5402 9.56156 13.2871 9.30942 13.1289 8.99903C13.0171 8.77958 12.9799 8.55866 12.9639 8.36231C12.9485 8.17468 12.9492 7.9495 12.9492 7.70997V4.5H7.89941C7.32699 4.5 6.94236 4.50024 6.64648 4.52442C6.35949 4.54788 6.22238 4.59059 6.13184 4.63672C5.89672 4.75655 5.70576 4.94751 5.58594 5.18262C5.5398 5.27316 5.49709 5.41028 5.47363 5.69727C5.44946 5.99315 5.44922 6.37778 5.44922 6.9502V13.4502C5.44911 13.8643 5.11337 14.2002 4.69922 14.2002C4.28507 14.2002 3.94932 13.8643 3.94922 13.4502V6.9502C3.94922 6.40253 3.94819 5.94633 3.97852 5.5752C4.00955 5.19547 4.07731 4.8391 4.24902 4.50196C4.51268 3.98451 4.93373 3.56346 5.45117 3.29981C5.78831 3.1281 6.14468 3.06033 6.52441 3.0293C6.89554 2.99898 7.35174 3 7.89941 3H13.6992ZM14.4492 7.70997C14.4492 7.97383 14.4498 8.12689 14.459 8.23926C14.4627 8.2846 14.4671 8.31084 14.4697 8.32325C14.4827 8.34601 14.5009 8.36463 14.5234 8.37793C14.5348 8.38042 14.5609 8.38569 14.6094 8.38965C14.7218 8.39883 14.8754 8.39942 15.1396 8.39942H17.2881L14.4492 5.56055V7.70997Z" fill="currentColor"/>
</svg>
