<svg width="24" height="24" viewBox="0 0 24 24" fill="none" xmlns="http://www.w3.org/2000/svg">
<path d="M8.46973 15.5244C8.68053 15.5244 8.86515 15.6034 9.01855 15.7568C9.17073 15.9092 9.24991 16.0874 9.25 16.2891C9.25 16.4422 9.21201 16.5822 9.13379 16.7051L9.12891 16.7119L7.73535 18.418C7.66252 18.5181 7.62996 18.6135 7.62988 18.7041C7.62988 18.7824 7.64736 18.8482 7.67969 18.9033L7.7168 18.9551L7.71875 18.958L9.18848 20.8027L9.19043 20.8057C9.28002 20.9289 9.32519 21.0693 9.3252 21.2246C9.32514 21.4283 9.2389 21.6069 9.07617 21.7588C8.92174 21.9021 8.73329 21.9745 8.51562 21.9746C8.29186 21.9746 8.11276 21.8831 7.98828 21.7022L6.82129 20.0557L6.77539 20.0039C6.73211 19.9623 6.69656 19.9492 6.66992 19.9492C6.62348 19.9493 6.57383 19.9738 6.52246 20.0508L6.52148 20.0527L5.33594 21.7012L5.33691 21.7022C5.2125 21.883 5.03411 21.9745 4.81055 21.9746C4.60164 21.9746 4.41395 21.902 4.25098 21.7607L4.24902 21.7598C4.08636 21.6079 4.00005 21.4282 4 21.2246C4 21.0693 4.04522 20.9289 4.13477 20.8057L4.13672 20.8027L5.60645 18.958L5.6084 18.9551C5.66488 18.8905 5.69531 18.8084 5.69531 18.7041C5.69524 18.6145 5.66297 18.5208 5.5918 18.4219L4.19727 16.7119L4.19141 16.7051C4.11346 16.5823 4.0752 16.442 4.0752 16.2891C4.07529 16.0872 4.15519 15.9093 4.30762 15.7568C4.46102 15.6034 4.64466 15.5244 4.85547 15.5244C5.07864 15.5245 5.25646 15.6157 5.38086 15.7959L6.51855 17.3818C6.59545 17.4677 6.64507 17.4891 6.66992 17.4893C6.71644 17.4893 6.76592 17.4648 6.81738 17.3877L6.81934 17.3857L7.94434 15.7959C8.0687 15.6157 8.2466 15.5245 8.46973 15.5244Z" fill="currentColor"/>
<path d="M18.0947 15.4492C18.8271 15.4492 19.4213 15.6375 19.8682 16.0215L19.9326 16.0801C20.0748 16.2201 20.1503 16.3852 20.1504 16.5742C20.1504 16.7575 20.0742 16.9173 19.9307 17.0498C19.7962 17.173 19.633 17.2343 19.4453 17.2344C19.3371 17.2344 19.2345 17.2126 19.1387 17.1689L19.0449 17.1182C18.676 16.8852 18.2896 16.7695 17.8848 16.7695C17.6448 16.7696 17.4487 16.8176 17.293 16.9092C17.1465 16.9954 17.0753 17.1204 17.0752 17.2939C17.0752 17.4636 17.1763 17.6078 17.4199 17.7207C17.6823 17.8373 18.0664 17.9463 18.5742 18.0459C18.86 18.0969 19.1394 18.1884 19.4141 18.3203C19.7062 18.4455 19.947 18.6392 20.1348 18.8994L20.2061 19.0039C20.3605 19.2573 20.4355 19.5796 20.4355 19.9648C20.4354 20.483 20.2586 20.9197 19.9082 21.2715L19.748 21.417C19.3019 21.7905 18.7288 21.9746 18.0352 21.9746C17.5669 21.9746 17.1278 21.8985 16.7188 21.7451L16.7178 21.7441C16.3095 21.5808 15.9835 21.3644 15.7441 21.0938C15.6227 20.9605 15.5605 20.8024 15.5605 20.624C15.5606 20.4326 15.6346 20.2638 15.7773 20.1211C15.921 19.9776 16.0948 19.9044 16.2949 19.9043C16.4839 19.9043 16.6475 19.9717 16.7812 20.1045C16.9423 20.256 17.1477 20.3767 17.3994 20.4639C17.6523 20.5514 17.8998 20.5947 18.1406 20.5947C18.3896 20.5947 18.6008 20.5416 18.7773 20.4395C18.9413 20.3349 19.0254 20.1759 19.0254 19.9492C19.0253 19.7656 18.9488 19.6296 18.791 19.5332L18.7871 19.5313C18.6315 19.4214 18.3551 19.3284 17.9473 19.2588C17.212 19.1379 16.6483 18.9349 16.2646 18.6445L16.2637 18.6436C15.8735 18.3377 15.6797 17.9094 15.6797 17.3691C15.6798 16.7869 15.9054 16.3193 16.3545 15.9746C16.8008 15.6221 17.3833 15.4493 18.0947 15.4492Z" fill="currentColor"/>
<path d="M11.3691 15.5244C11.5753 15.5245 11.7493 15.5902 11.8848 15.7246L11.9365 15.7773C12.0483 15.9043 12.1035 16.0614 12.1035 16.2441V20.0693C12.1035 20.2077 12.1384 20.2975 12.1943 20.3535C12.2503 20.4095 12.3402 20.4443 12.4785 20.4443H13.8135C14.0097 20.4443 14.1736 20.5106 14.2988 20.6445C14.4358 20.7703 14.5039 20.9364 14.5039 21.1348C14.5038 21.3332 14.4367 21.5028 14.3018 21.6377C14.1755 21.7639 14.0099 21.8242 13.8135 21.8242H11.6533C11.3466 21.8241 11.0915 21.7282 10.8955 21.5322C10.6996 21.3362 10.6035 21.0812 10.6035 20.7744V16.2441C10.6036 16.0351 10.6767 15.8599 10.8232 15.7246C10.9689 15.5902 11.153 15.5244 11.3691 15.5244Z" fill="currentColor"/>
<path fill-rule="evenodd" clip-rule="evenodd" d="M13.9238 3C14.1227 3 14.3134 3.07908 14.4541 3.21973L19.8545 8.62012C19.9949 8.76073 20.0742 8.95167 20.0742 9.15039V13.4502C20.0741 13.8642 19.7382 14.2 19.3242 14.2002C18.9101 14.2002 18.5743 13.8643 18.5742 13.4502V9.89942H15.3643C15.1247 9.89942 14.8996 9.90008 14.7119 9.88477C14.5156 9.86873 14.2947 9.8315 14.0752 9.71973C13.7648 9.56156 13.5117 9.30942 13.3535 8.99903C13.2417 8.77958 13.2045 8.55866 13.1885 8.36231C13.1731 8.17468 13.1738 7.9495 13.1738 7.70997V4.5H8.12402C7.5516 4.5 7.16697 4.50024 6.87109 4.52442C6.5841 4.54788 6.44699 4.59059 6.35645 4.63672C6.12133 4.75655 5.93037 4.94751 5.81055 5.18262C5.76441 5.27316 5.7217 5.41028 5.69824 5.69727C5.67407 5.99315 5.67383 6.37778 5.67383 6.9502V13.4502C5.67372 13.8643 5.33798 14.2002 4.92383 14.2002C4.50968 14.2002 4.17393 13.8643 4.17383 13.4502V6.9502C4.17383 6.40253 4.1728 5.94633 4.20312 5.5752C4.23416 5.19547 4.30192 4.8391 4.47363 4.50196C4.73728 3.98451 5.15834 3.56346 5.67578 3.29981C6.01292 3.1281 6.36929 3.06033 6.74902 3.0293C7.12015 2.99898 7.57635 3 8.12402 3H13.9238ZM14.6738 7.70997C14.6738 7.97383 14.6744 8.12689 14.6836 8.23926C14.6873 8.2846 14.6918 8.31084 14.6943 8.32325C14.7073 8.34601 14.7255 8.36463 14.748 8.37793C14.7594 8.38042 14.7855 8.38569 14.834 8.38965C14.9464 8.39883 15.1 8.39942 15.3643 8.39942H17.5127L14.6738 5.56055V7.70997Z" fill="currentColor"/>
</svg>
