<svg width="24" height="24" viewBox="0 0 24 24" fill="none" xmlns="http://www.w3.org/2000/svg">
<path fill-rule="evenodd" clip-rule="evenodd" d="M10.2002 9.44922C11.6085 9.44922 12.7499 10.5908 12.75 11.999C12.75 13.4074 11.6085 14.5488 10.2002 14.5488C8.79197 14.5487 7.65039 13.4073 7.65039 11.999C7.6505 10.5909 8.79203 9.44933 10.2002 9.44922ZM10.2002 10.9492C9.62046 10.9493 9.1505 11.4193 9.15039 11.999C9.15039 12.5789 9.62039 13.0487 10.2002 13.0488C10.7801 13.0488 11.25 12.5789 11.25 11.999C11.2499 11.4192 10.78 10.9492 10.2002 10.9492Z" fill="currentColor"/>
<path fill-rule="evenodd" clip-rule="evenodd" d="M13.8008 2.25C13.9997 2.25 14.1904 2.32908 14.3311 2.46973L19.7314 7.87012C19.8719 8.01073 19.9512 8.20167 19.9512 8.40039V17.7998C19.9512 18.3475 19.9512 18.8037 19.9209 19.1748C19.8899 19.5545 19.823 19.911 19.6514 20.2481C19.3877 20.7655 18.9667 21.1865 18.4492 21.4502C18.112 21.622 17.7549 21.6897 17.375 21.7207C17.004 21.751 16.5483 21.75 16.001 21.75H9.31055C9.30403 21.7501 9.29754 21.7501 9.29102 21.75H8.00098C7.45331 21.75 6.99711 21.751 6.62598 21.7207C6.24625 21.6897 5.88988 21.6219 5.55274 21.4502C5.0353 21.1865 4.61424 20.7655 4.35059 20.2481C4.17888 19.9109 4.11111 19.5545 4.08008 19.1748C4.04976 18.8037 4.05079 18.3475 4.05079 17.7998V6.2002C4.05079 5.65253 4.04976 5.19633 4.08008 4.8252C4.11111 4.44547 4.17888 4.0891 4.35059 3.75196C4.61424 3.23451 5.0353 2.81346 5.55274 2.54981C5.88988 2.3781 6.24625 2.31033 6.62598 2.2793C6.99711 2.24898 7.45331 2.25 8.00098 2.25H13.8008ZM16.501 15.4492C16.1247 15.4492 15.7632 15.5992 15.4971 15.8652L15.4961 15.8643L11.1123 20.25H16.001C16.573 20.25 16.9571 20.2497 17.2529 20.2256C17.5401 20.2021 17.678 20.1594 17.7686 20.1133C18.0036 19.9934 18.1947 19.8025 18.3145 19.5674C18.3606 19.4768 18.4023 19.3396 18.4258 19.0527C18.45 18.7569 18.4512 18.3722 18.4512 17.7998V16.8115L17.5039 15.8643C17.2379 15.5983 16.8772 15.4493 16.501 15.4492ZM8.00098 3.75C7.42856 3.75 7.04393 3.75024 6.74805 3.77442C6.46106 3.79788 6.32394 3.84059 6.2334 3.88672C5.99829 4.00655 5.80733 4.19751 5.6875 4.43262C5.64137 4.52316 5.59866 4.66028 5.5752 4.94727C5.55103 5.24315 5.55079 5.62778 5.55079 6.2002V17.7998C5.55079 18.3722 5.55103 18.7569 5.5752 19.0527C5.59866 19.3397 5.64137 19.4768 5.6875 19.5674C5.80733 19.8025 5.99829 19.9935 6.2334 20.1133C6.32394 20.1594 6.46106 20.2021 6.74805 20.2256C7.04393 20.2498 7.42856 20.25 8.00098 20.25H8.99122L14.4365 14.8037C14.9839 14.2564 15.7269 13.9492 16.501 13.9492C17.2238 13.9493 17.9166 14.22 18.4512 14.7012V9.14942H15.2412C15.0017 9.14942 14.7765 9.15008 14.5889 9.13477C14.3925 9.11873 14.1717 9.0815 13.9522 8.96973C13.6417 8.81156 13.3887 8.55942 13.2305 8.24903C13.1187 8.02958 13.0815 7.80866 13.0654 7.61231C13.0501 7.42468 13.0508 7.1995 13.0508 6.95997V3.75H8.00098ZM14.5508 6.95997C14.5508 7.22383 14.5514 7.37689 14.5606 7.48926C14.5643 7.5346 14.5687 7.56084 14.5713 7.57325C14.5842 7.59601 14.6025 7.61463 14.625 7.62793C14.6363 7.63042 14.6625 7.63569 14.7109 7.63965C14.8234 7.64883 14.977 7.64942 15.2412 7.64942H17.3897L14.5508 4.81055V6.95997Z" fill="currentColor"/>
</svg>
