<svg width="24" height="24" viewBox="0 0 24 24" fill="none" xmlns="http://www.w3.org/2000/svg">
<path d="M11.0996 2.25C11.5138 2.25 11.8496 2.58579 11.8496 3V4.15039H15.0996C15.5138 4.15039 15.8496 4.48618 15.8496 4.90039C15.8496 5.3146 15.5138 5.65039 15.0996 5.65039H3.75V14.8008C3.7501 15.0791 3.8608 15.3461 4.05762 15.543C4.25448 15.7398 4.52144 15.8505 4.7998 15.8506H15.0996C15.5138 15.8506 15.8496 16.1864 15.8496 16.6006C15.8495 17.0147 15.5138 17.3506 15.0996 17.3506H12.1143L16.0684 20.5146C16.3915 20.7734 16.444 21.245 16.1855 21.5684C15.9268 21.8918 15.4543 21.9443 15.1309 21.6855L11.0996 18.46L7.06836 21.6855C6.74491 21.9443 6.27243 21.8918 6.01367 21.5684C5.75528 21.245 5.80777 20.7734 6.13086 20.5146L10.085 17.3506H4.7998C4.12362 17.3505 3.47523 17.0816 2.99707 16.6035C2.51894 16.1254 2.2501 15.4769 2.25 14.8008V4.90039C2.25 4.48618 2.58579 4.15039 3 4.15039C3.01674 4.15039 3.03334 4.15126 3.0498 4.15234C3.06627 4.15126 3.08287 4.15039 3.09961 4.15039H10.3496V3C10.3496 2.58579 10.6854 2.25 11.0996 2.25Z" fill="currentColor"/>
<path d="M17.5693 7.46973C17.8622 7.17686 18.337 7.17684 18.6299 7.46973L21.6299 10.4697L21.6816 10.5264C21.6898 10.5364 21.6955 10.5482 21.7031 10.5586C21.7145 10.5741 21.7252 10.59 21.7354 10.6064C21.7502 10.6304 21.7635 10.6546 21.7754 10.6797C21.784 10.6979 21.7916 10.7164 21.7988 10.7354C21.8086 10.7614 21.8164 10.7877 21.8232 10.8145C21.8385 10.874 21.8496 10.9357 21.8496 11C21.8496 11.0088 21.848 11.0176 21.8477 11.0264C21.8474 11.0326 21.8471 11.0387 21.8467 11.0449C21.8444 11.084 21.8391 11.122 21.8311 11.1592C21.8256 11.1845 21.8167 11.2087 21.8086 11.2334C21.8013 11.2555 21.7953 11.2777 21.7861 11.2988C21.7496 11.3826 21.6984 11.4617 21.6299 11.5303L18.6299 14.5303C18.337 14.8231 17.8622 14.8231 17.5693 14.5303C17.2764 14.2374 17.2764 13.7626 17.5693 13.4697L19.2891 11.75H14C13.5858 11.75 13.25 11.4142 13.25 11C13.25 10.5858 13.5858 10.25 14 10.25H19.2891L17.5693 8.53027C17.2764 8.23738 17.2764 7.76262 17.5693 7.46973Z" fill="currentColor"/>
</svg>
