<svg width="24" height="24" viewBox="0 0 24 24" fill="none" xmlns="http://www.w3.org/2000/svg">
<path fill-rule="evenodd" clip-rule="evenodd" d="M5.56543 15.5996C6.18033 15.5997 6.69387 15.7743 7.09961 16.1279C7.51757 16.4832 7.72558 16.9549 7.72559 17.5352C7.72551 18.1626 7.52341 18.6774 7.11719 19.0732C6.7117 19.4683 6.19743 19.665 5.58008 19.665H4.69531C4.60701 19.665 4.55443 19.6869 4.52344 19.7178C4.49248 19.7487 4.46975 19.8013 4.46973 19.8897L4.5 21.2686C4.5 21.4619 4.41955 21.6322 4.2666 21.7744L4.26562 21.7754C4.1216 21.9081 3.94827 21.9746 3.75 21.9746C3.5517 21.9746 3.37486 21.9077 3.22168 21.7764L3.2168 21.7734C3.07424 21.6307 3 21.461 3 21.2695V16.6494C3.00008 16.3427 3.09602 16.0876 3.29199 15.8916C3.48797 15.6956 3.7431 15.5997 4.0498 15.5996H5.56543ZM4.62012 16.9502C4.5568 16.9502 4.52336 16.9659 4.50488 16.9844C4.48643 17.0028 4.46976 17.0363 4.46973 17.0996V18.165C4.46977 18.2283 4.48643 18.2618 4.50488 18.2803C4.52337 18.2987 4.55682 18.3144 4.62012 18.3145H5.41504C5.71665 18.3145 5.92946 18.2525 6.06543 18.1406C6.19841 18.0311 6.27047 17.8639 6.27051 17.625C6.27051 17.3899 6.20271 17.2258 6.0791 17.1191C5.95328 17.0107 5.75632 16.9503 5.47559 16.9502H4.62012Z" fill="currentColor"/>
<path d="M19.6152 15.5996C19.8292 15.5996 20.006 15.6593 20.1338 15.7871C20.2607 15.9141 20.3203 16.085 20.3203 16.29C20.3203 16.4798 20.2522 16.6443 20.1182 16.7783C19.9832 16.913 19.8136 16.9795 19.6152 16.9795H17.9951C17.9069 16.9796 17.8542 17.0023 17.8232 17.0332C17.7924 17.0642 17.7705 17.117 17.7705 17.2051V17.8799C17.7705 17.9681 17.7924 18.0208 17.8232 18.0518C17.8542 18.0827 17.9069 18.1044 17.9951 18.1045H19.4053C19.6089 18.1045 19.7785 18.164 19.9053 18.2891C20.0425 18.4149 20.1104 18.5817 20.1104 18.7803C20.1102 18.9718 20.036 19.1362 19.8916 19.2695C19.7571 19.3928 19.5931 19.4551 19.4053 19.4551H17.9951C17.9069 19.4551 17.8542 19.4769 17.8232 19.5078C17.7924 19.5388 17.7705 19.5915 17.7705 19.6797V21.2695C17.7705 21.4631 17.6893 21.6322 17.5361 21.7744C17.3921 21.9072 17.2188 21.9746 17.0205 21.9746C16.8221 21.9746 16.6444 21.9077 16.4912 21.7764L16.4873 21.7734C16.3447 21.6307 16.2705 21.461 16.2705 21.2695V16.6045C16.2706 16.2993 16.3604 16.0524 16.5488 15.875C16.735 15.6897 16.9799 15.5996 17.2754 15.5996H19.6152Z" fill="currentColor"/>
<path fill-rule="evenodd" clip-rule="evenodd" d="M11.5947 15.5996C12.2649 15.5996 12.8395 15.7365 13.3135 16.0147C13.785 16.2812 14.1439 16.6511 14.3906 17.1231C14.6476 17.5855 14.7754 18.114 14.7754 18.7051C14.7754 19.3156 14.6474 19.8586 14.3906 20.3311C14.1346 20.802 13.7855 21.1724 13.3438 21.4395C12.9016 21.6965 12.4076 21.8252 11.8652 21.8252H10.3203C9.99615 21.8252 9.72705 21.7355 9.52051 21.5508L9.5166 21.5479C9.32111 21.3519 9.22563 21.0964 9.22559 20.79V16.6045C9.22565 16.2993 9.31541 16.0524 9.50391 15.875C9.69007 15.6898 9.93505 15.5996 10.2305 15.5996H11.5947ZM11.0254 16.9502C10.912 16.9502 10.8403 16.978 10.7969 17.0215C10.7534 17.065 10.7256 17.1366 10.7256 17.25V20.1748C10.7256 20.2882 10.7534 20.3598 10.7969 20.4033C10.8404 20.4467 10.912 20.4746 11.0254 20.4746H11.6104C12.166 20.4746 12.5785 20.3192 12.8604 20.0186C13.1435 19.7066 13.2852 19.2724 13.2754 18.7061C13.2656 18.1176 13.1134 17.6834 12.8311 17.3916C12.5491 17.1004 12.1406 16.9502 11.5947 16.9502H11.0254Z" fill="currentColor"/>
<path fill-rule="evenodd" clip-rule="evenodd" d="M13.1992 3C13.3981 3 13.5888 3.07908 13.7295 3.21973L19.1299 8.62012C19.2703 8.76073 19.3496 8.95167 19.3496 9.15039V13.4502C19.3495 13.8642 19.0136 14.2 18.5996 14.2002C18.1855 14.2002 17.8497 13.8643 17.8496 13.4502V9.89942H14.6396C14.4001 9.89942 14.175 9.90008 13.9873 9.88477C13.7909 9.86873 13.5701 9.8315 13.3506 9.71973C13.0402 9.56156 12.7871 9.30942 12.6289 8.99903C12.5171 8.77958 12.4799 8.55866 12.4639 8.36231C12.4485 8.17468 12.4492 7.9495 12.4492 7.70997V4.5H7.39941C6.82699 4.5 6.44236 4.50024 6.14648 4.52442C5.85949 4.54788 5.72238 4.59059 5.63184 4.63672C5.39672 4.75655 5.20576 4.94751 5.08594 5.18262C5.0398 5.27316 4.99709 5.41028 4.97363 5.69727C4.94946 5.99315 4.94922 6.37778 4.94922 6.9502V13.4502C4.94911 13.8643 4.61337 14.2002 4.19922 14.2002C3.78507 14.2002 3.44932 13.8643 3.44922 13.4502V6.9502C3.44922 6.40253 3.44819 5.94633 3.47852 5.5752C3.50955 5.19547 3.57731 4.8391 3.74902 4.50196C4.01268 3.98451 4.43373 3.56346 4.95117 3.29981C5.28831 3.1281 5.64468 3.06033 6.02441 3.0293C6.39554 2.99898 6.85174 3 7.39941 3H13.1992ZM13.9492 7.70997C13.9492 7.97383 13.9498 8.12689 13.959 8.23926C13.9627 8.2846 13.9671 8.31084 13.9697 8.32325C13.9827 8.34601 14.0009 8.36463 14.0234 8.37793C14.0348 8.38042 14.0609 8.38569 14.1094 8.38965C14.2218 8.39883 14.3754 8.39942 14.6396 8.39942H16.7881L13.9492 5.56055V7.70997Z" fill="currentColor"/>
</svg>
