<svg width="24" height="24" viewBox="0 0 24 24" fill="none" xmlns="http://www.w3.org/2000/svg">
<path d="M12 9.90042C12.4142 9.90042 12.75 10.2362 12.75 10.6504V17.4004C12.75 17.8146 12.4142 18.1504 12 18.1504C11.5858 18.1504 11.25 17.8146 11.25 17.4004V10.6504C11.25 10.2362 11.5858 9.90042 12 9.90042Z" fill="currentColor"/>
<path d="M15.5996 12.1504C16.0138 12.1504 16.3496 12.4862 16.3496 12.9004V17.4004C16.3496 17.8146 16.0138 18.1504 15.5996 18.1504C15.1854 18.1504 14.8496 17.8146 14.8496 17.4004V12.9004C14.8496 12.4862 15.1854 12.1504 15.5996 12.1504Z" fill="currentColor"/>
<path d="M8.40039 13.9492C8.8146 13.9492 9.15038 14.285 9.15039 14.6992V17.3994C9.15029 17.8136 8.81454 18.1494 8.40039 18.1494C7.98625 18.1494 7.6505 17.8136 7.65039 17.3994V14.6992C7.65041 14.285 7.98619 13.9492 8.40039 13.9492Z" fill="currentColor"/>
<path fill-rule="evenodd" clip-rule="evenodd" d="M12.0117 2.25003C12.636 2.25003 13.0704 2.2457 13.4873 2.34573C13.6878 2.39386 13.8829 2.46118 14.0713 2.54397C14.0918 2.55192 14.1113 2.56166 14.1309 2.57132C14.2522 2.62742 14.3712 2.68883 14.4854 2.75882C14.8509 2.98293 15.1551 3.29384 15.5967 3.73538L18.4658 6.60452C18.9075 7.04619 19.2183 7.35012 19.4424 7.71585C19.5133 7.8316 19.5752 7.95229 19.6318 8.07522C19.6398 8.09163 19.6476 8.10799 19.6543 8.12503C19.7381 8.31463 19.8069 8.51074 19.8555 8.71292C19.9556 9.13003 19.9512 9.56481 19.9512 10.1895V17.7998C19.9512 18.3475 19.9512 18.8037 19.9209 19.1748C19.8899 19.5545 19.823 19.911 19.6514 20.2481C19.3877 20.7655 18.9667 21.1866 18.4492 21.4502C18.112 21.6221 17.7549 21.6897 17.375 21.7207C17.004 21.751 16.5483 21.75 16.001 21.75H8.00098C7.45331 21.75 6.99711 21.7511 6.62598 21.7207C6.24625 21.6897 5.88988 21.6219 5.55274 21.4502C5.03531 21.1866 4.61424 20.7655 4.35059 20.2481C4.1789 19.9109 4.11111 19.5545 4.08008 19.1748C4.04976 18.8037 4.05079 18.3475 4.05079 17.7998V6.20022C4.05079 5.65257 4.04976 5.19634 4.08008 4.82522C4.11112 4.44551 4.17889 4.08911 4.35059 3.75198C4.61424 3.23455 5.03531 2.81348 5.55274 2.54983C5.88988 2.37813 6.24626 2.31036 6.62598 2.27932C6.99711 2.249 7.45331 2.25003 8.00098 2.25003H12.0117ZM8.00098 3.75003C7.42856 3.75003 7.04393 3.75027 6.74805 3.77444C6.46107 3.7979 6.32394 3.84062 6.2334 3.88675C5.9983 4.00657 5.80733 4.19755 5.6875 4.43264C5.64137 4.52318 5.59866 4.66033 5.5752 4.94729C5.55103 5.24316 5.55079 5.62783 5.55079 6.20022V17.7998C5.55079 18.3722 5.55103 18.7569 5.5752 19.0528C5.59866 19.3397 5.64138 19.4769 5.6875 19.5674C5.80733 19.8025 5.9983 19.9935 6.2334 20.1133C6.32394 20.1594 6.46106 20.2022 6.74805 20.2256C7.04393 20.2498 7.42856 20.25 8.00098 20.25H16.001C16.573 20.25 16.9571 20.2498 17.2529 20.2256C17.5401 20.2022 17.678 20.1595 17.7686 20.1133C18.0036 19.9935 18.1947 19.8025 18.3145 19.5674C18.3606 19.4769 18.4023 19.3396 18.4258 19.0528C18.45 18.7569 18.4512 18.3722 18.4512 17.7998V10.1895C18.4512 9.58814 18.4449 9.33819 18.4121 9.14944H15.2412C15.0017 9.14944 14.7765 9.15011 14.5889 9.13479C14.3925 9.11875 14.1717 9.08152 13.9522 8.96975C13.6417 8.81159 13.3887 8.55944 13.2305 8.24905C13.1187 8.02961 13.0815 7.80868 13.0654 7.61233C13.0501 7.42471 13.0508 7.19952 13.0508 6.95999V3.78811C12.8621 3.75567 12.612 3.75003 12.0117 3.75003H8.00098ZM14.5508 6.95999C14.5508 7.22383 14.5514 7.37692 14.5606 7.48929C14.5643 7.5346 14.5687 7.56085 14.5713 7.57327C14.5842 7.59603 14.6025 7.61465 14.625 7.62796C14.6363 7.63044 14.6625 7.63572 14.7109 7.63968C14.8234 7.64885 14.977 7.64944 15.2412 7.64944H17.3897L14.5508 4.81057V6.95999Z" fill="currentColor"/>
</svg>
