<svg width="24" height="24" viewBox="0 0 24 24" fill="none" xmlns="http://www.w3.org/2000/svg">
<path d="M16.9004 14.25C17.1679 14.25 17.4139 14.2499 17.6182 14.2666C17.8312 14.284 18.0647 14.3231 18.2949 14.4404C18.624 14.6082 18.8918 14.876 19.0596 15.2051C19.1769 15.4353 19.216 15.6688 19.2334 15.8818C19.2501 16.0861 19.25 16.3321 19.25 16.5996V18.4004C19.25 18.6679 19.2501 18.9139 19.2334 19.1182C19.216 19.3312 19.1769 19.5647 19.0596 19.7949C18.8918 20.124 18.624 20.3918 18.2949 20.5596C18.0647 20.6769 17.8312 20.716 17.6182 20.7334C17.4139 20.7501 17.1679 20.75 16.9004 20.75H7.59961C7.33211 20.75 7.08611 20.7501 6.88184 20.7334C6.66879 20.716 6.43527 20.6769 6.20508 20.5596C5.87597 20.3918 5.60818 20.124 5.44043 19.7949C5.32314 19.5647 5.28403 19.3312 5.2666 19.1182C5.24991 18.9139 5.25 18.6679 5.25 18.4004V16.5996C5.25 16.3321 5.24991 16.0861 5.2666 15.8818C5.28403 15.6688 5.32314 15.4353 5.44043 15.2051C5.60818 14.876 5.87597 14.6082 6.20508 14.4404C6.43527 14.3231 6.66879 14.284 6.88184 14.2666C7.08611 14.2499 7.33211 14.25 7.59961 14.25H16.9004ZM7.59961 15.75C7.30744 15.75 7.13298 15.7502 7.00391 15.7607C6.88384 15.7706 6.87034 15.7857 6.88672 15.7773C6.83968 15.8013 6.80131 15.8397 6.77734 15.8867C6.78569 15.8703 6.77058 15.8838 6.76074 16.0039C6.7502 16.133 6.75 16.3074 6.75 16.5996V18.4004C6.75 18.6926 6.7502 18.867 6.76074 18.9961C6.77058 19.1162 6.78569 19.1297 6.77734 19.1133C6.80131 19.1603 6.83968 19.1987 6.88672 19.2227C6.87034 19.2143 6.88384 19.2294 7.00391 19.2393C7.13298 19.2498 7.30744 19.25 7.59961 19.25H16.9004C17.1926 19.25 17.367 19.2498 17.4961 19.2393C17.6162 19.2294 17.6297 19.2143 17.6133 19.2227C17.6603 19.1987 17.6987 19.1603 17.7227 19.1133C17.7143 19.1297 17.7294 19.1162 17.7393 18.9961C17.7498 18.867 17.75 18.6926 17.75 18.4004V16.5996C17.75 16.3074 17.7498 16.133 17.7393 16.0039C17.7294 15.8838 17.7143 15.8703 17.7227 15.8867C17.6987 15.8397 17.6603 15.8013 17.6133 15.7773C17.6297 15.7857 17.6162 15.7706 17.4961 15.7607C17.367 15.7502 17.1926 15.75 16.9004 15.75H7.59961ZM16.9004 6.25C17.1679 6.25 17.4139 6.24991 17.6182 6.2666C17.8312 6.28403 18.0647 6.32314 18.2949 6.44043C18.624 6.60818 18.8918 6.87597 19.0596 7.20508C19.1769 7.43527 19.216 7.66879 19.2334 7.88184C19.2501 8.08611 19.25 8.33211 19.25 8.59961V10.4004C19.25 10.6679 19.2501 10.9139 19.2334 11.1182C19.216 11.3312 19.1769 11.5647 19.0596 11.7949C18.8918 12.124 18.624 12.3918 18.2949 12.5596C18.0647 12.6769 17.8312 12.716 17.6182 12.7334C17.4139 12.7501 17.1679 12.75 16.9004 12.75H7.59961C7.33211 12.75 7.08611 12.7501 6.88184 12.7334C6.66879 12.716 6.43527 12.6769 6.20508 12.5596C5.87597 12.3918 5.60818 12.124 5.44043 11.7949C5.32314 11.5647 5.28403 11.3312 5.2666 11.1182C5.24991 10.9139 5.25 10.6679 5.25 10.4004V8.59961C5.25 8.33211 5.24991 8.08611 5.2666 7.88184C5.28403 7.66879 5.32314 7.43527 5.44043 7.20508C5.60818 6.87597 5.87597 6.60818 6.20508 6.44043C6.43527 6.32314 6.66879 6.28403 6.88184 6.2666C7.08611 6.24991 7.33211 6.25 7.59961 6.25H16.9004ZM7.59961 7.75C7.30744 7.75 7.13298 7.7502 7.00391 7.76074C6.88384 7.77058 6.87034 7.78569 6.88672 7.77734C6.83968 7.80131 6.80131 7.83968 6.77734 7.88672C6.78569 7.87034 6.77058 7.88384 6.76074 8.00391C6.7502 8.13298 6.75 8.30744 6.75 8.59961V10.4004C6.75 10.6926 6.7502 10.867 6.76074 10.9961C6.77058 11.1162 6.78569 11.1297 6.77734 11.1133C6.80131 11.1603 6.83968 11.1987 6.88672 11.2227C6.87034 11.2143 6.88384 11.2294 7.00391 11.2393C7.13298 11.2498 7.30744 11.25 7.59961 11.25H16.9004C17.1926 11.25 17.367 11.2498 17.4961 11.2393C17.6162 11.2294 17.6297 11.2143 17.6133 11.2227C17.6603 11.1987 17.6987 11.1603 17.7227 11.1133C17.7143 11.1297 17.7294 11.1162 17.7393 10.9961C17.7498 10.867 17.75 10.6926 17.75 10.4004V8.59961C17.75 8.30744 17.7498 8.13298 17.7393 8.00391C17.7294 7.88384 17.7143 7.87034 17.7227 7.88672C17.6987 7.83968 17.6603 7.80131 17.6133 7.77734C17.6297 7.78569 17.6162 7.77058 17.4961 7.76074C17.367 7.7502 17.1926 7.75 16.9004 7.75H7.59961ZM20.2002 3.25C20.6143 3.25011 20.9502 3.58585 20.9502 4C20.9502 4.41415 20.6143 4.74989 20.2002 4.75H4C3.58579 4.75 3.25 4.41421 3.25 4C3.25 3.58579 3.58579 3.25 4 3.25H20.2002Z" fill="currentColor"/>
</svg>
