<svg width="24" height="24" viewBox="0 0 24 24" fill="none" xmlns="http://www.w3.org/2000/svg">
<path d="M4.09961 3.14844C4.51376 3.14844 4.8495 3.48431 4.84961 3.89844V20.0986C4.84961 20.5128 4.51382 20.8486 4.09961 20.8486C3.6854 20.8486 3.34961 20.5128 3.34961 20.0986V3.89844C3.34971 3.48431 3.68546 3.14844 4.09961 3.14844ZM10.5 4.84863C10.7675 4.84863 11.0135 4.84854 11.2178 4.86523C11.4308 4.88266 11.6643 4.92178 11.8945 5.03906C12.2236 5.20681 12.4914 5.4746 12.6592 5.80371C12.7765 6.0339 12.8156 6.26743 12.833 6.48047C12.8497 6.68475 12.8496 6.93074 12.8496 7.19824V16.499C12.8496 16.7665 12.8497 17.0125 12.833 17.2168C12.8156 17.4298 12.7765 17.6634 12.6592 17.8936C12.4914 18.2227 12.2236 18.4905 11.8945 18.6582C11.6643 18.7755 11.4308 18.8146 11.2178 18.832C11.0135 18.8487 10.7675 18.8486 10.5 18.8486H8.69922C8.43172 18.8486 8.18572 18.8487 7.98145 18.832C7.7684 18.8146 7.53488 18.7755 7.30469 18.6582C6.97558 18.4905 6.70779 18.2227 6.54004 17.8936C6.42275 17.6634 6.38364 17.4298 6.36621 17.2168C6.34952 17.0125 6.34961 16.7665 6.34961 16.499V7.19824C6.34961 6.93074 6.34952 6.68475 6.36621 6.48047C6.38364 6.26743 6.42275 6.0339 6.54004 5.80371C6.70779 5.4746 6.97558 5.20681 7.30469 5.03906C7.53488 4.92178 7.7684 4.88266 7.98145 4.86523C8.18572 4.84854 8.43172 4.84863 8.69922 4.84863H10.5ZM18.5 4.84863C18.7675 4.84863 19.0135 4.84854 19.2178 4.86523C19.4308 4.88266 19.6643 4.92178 19.8945 5.03906C20.2236 5.20681 20.4914 5.4746 20.6592 5.80371C20.7765 6.0339 20.8156 6.26743 20.833 6.48047C20.8497 6.68475 20.8496 6.93074 20.8496 7.19824V16.499C20.8496 16.7665 20.8497 17.0125 20.833 17.2168C20.8156 17.4298 20.7765 17.6634 20.6592 17.8936C20.4914 18.2227 20.2236 18.4905 19.8945 18.6582C19.6643 18.7755 19.4308 18.8146 19.2178 18.832C19.0135 18.8487 18.7675 18.8486 18.5 18.8486H16.6992C16.4317 18.8486 16.1857 18.8487 15.9814 18.832C15.7684 18.8146 15.5349 18.7755 15.3047 18.6582C14.9756 18.4905 14.7078 18.2227 14.54 17.8936C14.4228 17.6634 14.3836 17.4298 14.3662 17.2168C14.3495 17.0125 14.3496 16.7665 14.3496 16.499V7.19824C14.3496 6.93074 14.3495 6.68475 14.3662 6.48047C14.3836 6.26743 14.4228 6.0339 14.54 5.80371C14.7078 5.4746 14.9756 5.20681 15.3047 5.03906C15.5349 4.92178 15.7684 4.88266 15.9814 4.86523C16.1857 4.84854 16.4317 4.84863 16.6992 4.84863H18.5ZM8.69922 6.34863C8.40705 6.34863 8.23258 6.34883 8.10352 6.35938C7.98345 6.36921 7.96995 6.38432 7.98633 6.37598C7.93929 6.39994 7.90092 6.43831 7.87695 6.48535C7.8853 6.46897 7.87019 6.48248 7.86035 6.60254C7.84981 6.73161 7.84961 6.90608 7.84961 7.19824V16.499C7.84961 16.7912 7.84981 16.9657 7.86035 17.0947C7.87019 17.2148 7.8853 17.2283 7.87695 17.2119C7.90092 17.259 7.93929 17.2973 7.98633 17.3213C7.96995 17.3129 7.98345 17.3281 8.10352 17.3379C8.23258 17.3484 8.40705 17.3486 8.69922 17.3486H10.5C10.7922 17.3486 10.9666 17.3484 11.0957 17.3379C11.2158 17.3281 11.2293 17.3129 11.2129 17.3213C11.2599 17.2973 11.2983 17.259 11.3223 17.2119C11.3139 17.2283 11.329 17.2148 11.3389 17.0947C11.3494 16.9657 11.3496 16.7912 11.3496 16.499V7.19824C11.3496 6.90608 11.3494 6.73161 11.3389 6.60254C11.329 6.48248 11.3139 6.46897 11.3223 6.48535C11.2983 6.43831 11.2599 6.39995 11.2129 6.37598C11.2293 6.38432 11.2158 6.36921 11.0957 6.35938C10.9666 6.34883 10.7922 6.34863 10.5 6.34863H8.69922ZM16.6992 6.34863C16.4071 6.34863 16.2326 6.34883 16.1035 6.35938C15.9835 6.36921 15.9699 6.38432 15.9863 6.37598C15.9393 6.39994 15.9009 6.43831 15.877 6.48535C15.8853 6.46897 15.8702 6.48248 15.8604 6.60254C15.8498 6.73161 15.8496 6.90608 15.8496 7.19824V16.499C15.8496 16.7912 15.8498 16.9657 15.8604 17.0947C15.8702 17.2148 15.8853 17.2283 15.877 17.2119C15.9009 17.259 15.9393 17.2973 15.9863 17.3213C15.9699 17.3129 15.9835 17.3281 16.1035 17.3379C16.2326 17.3484 16.4071 17.3486 16.6992 17.3486H18.5C18.7922 17.3486 18.9666 17.3484 19.0957 17.3379C19.2158 17.3281 19.2293 17.3129 19.2129 17.3213C19.2599 17.2973 19.2983 17.259 19.3223 17.2119C19.3139 17.2283 19.329 17.2148 19.3389 17.0947C19.3494 16.9657 19.3496 16.7912 19.3496 16.499V7.19824C19.3496 6.90608 19.3494 6.73161 19.3389 6.60254C19.329 6.48248 19.3139 6.46897 19.3223 6.48535C19.2983 6.43831 19.2599 6.39995 19.2129 6.37598C19.2293 6.38432 19.2158 6.36921 19.0957 6.35938C18.9666 6.34883 18.7922 6.34863 18.5 6.34863H16.6992Z" fill="currentColor"/>
</svg>
