<svg width="24" height="24" viewBox="0 0 24 24" fill="none" xmlns="http://www.w3.org/2000/svg">
<path fill-rule="evenodd" clip-rule="evenodd" d="M8.60059 13.0508C8.86816 13.0508 9.11403 13.0507 9.31836 13.0674C9.53145 13.0848 9.76487 13.1239 9.99512 13.2412C10.3242 13.4089 10.592 13.6768 10.7598 14.0059C10.8769 14.236 10.9172 14.4697 10.9346 14.6826C10.9512 14.8868 10.9502 15.1331 10.9502 15.4004V18.501C10.9502 18.7684 10.9513 19.0145 10.9346 19.2188C10.9171 19.4318 10.877 19.6654 10.7598 19.8955C10.592 20.2245 10.3242 20.4925 9.99512 20.6602C9.76489 20.7774 9.53142 20.8175 9.31836 20.835C9.11404 20.8517 8.86815 20.8506 8.60059 20.8506H5.5C5.23251 20.8506 4.9865 20.8516 4.78223 20.835C4.56921 20.8175 4.33563 20.7774 4.10547 20.6602C3.77645 20.4924 3.50856 20.2245 3.34082 19.8955C3.22357 19.6654 3.18443 19.4317 3.16699 19.2188C3.15031 19.0145 3.15039 18.7684 3.15039 18.501V15.4004C3.15039 15.1331 3.15033 14.8868 3.16699 14.6826C3.18441 14.4697 3.22366 14.2359 3.34082 14.0059C3.50854 13.6768 3.77643 13.409 4.10547 13.2412C4.33565 13.1239 4.56919 13.0848 4.78223 13.0674C4.9865 13.0507 5.2325 13.0508 5.5 13.0508H8.60059ZM5.5 14.5508C5.20783 14.5508 5.03337 14.551 4.9043 14.5615C4.83313 14.5674 4.79935 14.5746 4.78711 14.5781C4.74014 14.6021 4.70168 14.6405 4.67773 14.6875C4.67413 14.7001 4.66689 14.7344 4.66113 14.8047C4.65062 14.9337 4.65039 15.1085 4.65039 15.4004V18.501C4.65039 18.793 4.65059 18.9676 4.66113 19.0967C4.6709 19.2158 4.68572 19.2298 4.67773 19.2139C4.70171 19.2608 4.74017 19.2993 4.78711 19.3232C4.79966 19.3267 4.83366 19.3341 4.9043 19.3398C5.03336 19.3504 5.20786 19.3506 5.5 19.3506H8.60059C8.89285 19.3506 9.06719 19.3504 9.19629 19.3398C9.26672 19.3341 9.30077 19.3267 9.31348 19.3232C9.36041 19.2993 9.39887 19.2608 9.42285 19.2139C9.4263 19.2013 9.43368 19.167 9.43945 19.0967C9.45 18.9676 9.45019 18.793 9.4502 18.501V15.4004C9.45019 15.1085 9.44997 14.9337 9.43945 14.8047C9.43371 14.7345 9.42632 14.7003 9.42285 14.6875C9.39891 14.6405 9.36045 14.6021 9.31348 14.5781C9.30122 14.5746 9.26746 14.5673 9.19629 14.5615C9.06719 14.551 8.89287 14.5508 8.60059 14.5508H5.5Z" fill="currentColor"/>
<path fill-rule="evenodd" clip-rule="evenodd" d="M18.498 13.0508C18.7656 13.0508 19.0115 13.0507 19.2158 13.0674C19.4289 13.0848 19.6623 13.1239 19.8926 13.2412C20.2217 13.4089 20.4895 13.6767 20.6572 14.0059C20.7744 14.236 20.8146 14.4696 20.832 14.6826C20.8487 14.8868 20.8477 15.1331 20.8477 15.4004V18.501C20.8477 18.7684 20.8487 19.0145 20.832 19.2188C20.8146 19.4318 20.7745 19.6654 20.6572 19.8955C20.4895 20.2245 20.2216 20.4925 19.8926 20.6602C19.6624 20.7774 19.4288 20.8176 19.2158 20.835C19.0115 20.8516 18.7655 20.8506 18.498 20.8506H15.3975C15.13 20.8506 14.8839 20.8516 14.6797 20.835C14.4667 20.8175 14.2331 20.7774 14.0029 20.6602C13.6739 20.4924 13.406 20.2246 13.2383 19.8955C13.121 19.6654 13.0819 19.4317 13.0645 19.2188C13.0478 19.0145 13.0479 18.7684 13.0479 18.501V15.4004C13.0479 15.1331 13.0478 14.8868 13.0645 14.6826C13.0819 14.4697 13.1211 14.2359 13.2383 14.0059C13.406 13.6769 13.674 13.409 14.0029 13.2412C14.233 13.124 14.4667 13.0848 14.6797 13.0674C14.8839 13.0507 15.13 13.0508 15.3975 13.0508H18.498ZM15.3975 14.5508C15.1054 14.5508 14.9308 14.551 14.8018 14.5615C14.7304 14.5674 14.6967 14.5746 14.6846 14.5781C14.6377 14.6021 14.5991 14.6406 14.5752 14.6875C14.5835 14.6711 14.5684 14.6846 14.5586 14.8047C14.5481 14.9337 14.5479 15.1085 14.5479 15.4004V18.501C14.5479 18.793 14.5481 18.9676 14.5586 19.0967C14.5684 19.216 14.5833 19.2299 14.5752 19.2139C14.5992 19.2608 14.6376 19.2993 14.6846 19.3232C14.697 19.3267 14.731 19.334 14.8018 19.3398C14.9308 19.3504 15.1054 19.3506 15.3975 19.3506H18.498C18.7902 19.3506 18.9647 19.3504 19.0938 19.3398C19.1638 19.3341 19.1981 19.3267 19.2109 19.3232C19.2578 19.2993 19.2963 19.2607 19.3203 19.2139C19.3238 19.2013 19.3311 19.167 19.3369 19.0967C19.3475 18.9676 19.3477 18.793 19.3477 18.501V15.4004C19.3477 15.1085 19.3474 14.9337 19.3369 14.8047C19.3312 14.7345 19.3238 14.7002 19.3203 14.6875C19.2963 14.6405 19.258 14.6021 19.2109 14.5781C19.1985 14.5745 19.1646 14.5673 19.0938 14.5615C18.9647 14.551 18.7902 14.5508 18.498 14.5508H15.3975Z" fill="currentColor"/>
<path fill-rule="evenodd" clip-rule="evenodd" d="M8.60059 3.15039C8.86816 3.15039 9.11403 3.1503 9.31836 3.16699C9.53146 3.18441 9.76486 3.2235 9.99512 3.34082C10.3243 3.50855 10.592 3.77635 10.7598 4.10547C10.8771 4.33568 10.9171 4.56917 10.9346 4.78223C10.9513 4.9865 10.9502 5.2325 10.9502 5.5V8.60059C10.9502 8.86816 10.9513 9.11403 10.9346 9.31836C10.9172 9.53147 10.8771 9.76484 10.7598 9.99512C10.592 10.3243 10.3243 10.592 9.99512 10.7598C9.76484 10.8771 9.53147 10.9172 9.31836 10.9346C9.11403 10.9513 8.86816 10.9502 8.60059 10.9502H5.5C5.2325 10.9502 4.9865 10.9513 4.78223 10.9346C4.56917 10.9171 4.33568 10.8771 4.10547 10.7598C3.77635 10.592 3.50855 10.3243 3.34082 9.99512C3.2235 9.76486 3.18441 9.53146 3.16699 9.31836C3.1503 9.11403 3.15039 8.86816 3.15039 8.60059V5.5C3.15039 5.2325 3.1503 4.9865 3.16699 4.78223C3.18442 4.56918 3.22353 4.33566 3.34082 4.10547C3.50857 3.77636 3.77636 3.50857 4.10547 3.34082C4.33566 3.22353 4.56918 3.18442 4.78223 3.16699C4.9865 3.1503 5.2325 3.15039 5.5 3.15039H8.60059ZM5.5 4.65039C5.20783 4.65039 5.03337 4.65059 4.9043 4.66113C4.78424 4.67097 4.77073 4.68608 4.78711 4.67773C4.74007 4.7017 4.7017 4.74007 4.67773 4.78711C4.68608 4.77073 4.67097 4.78424 4.66113 4.9043C4.65059 5.03337 4.65039 5.20783 4.65039 5.5V8.60059C4.65039 8.89287 4.65059 9.06719 4.66113 9.19629C4.67097 9.31653 4.68608 9.32987 4.67773 9.31348C4.7017 9.36052 4.74007 9.39888 4.78711 9.42285C4.79958 9.42628 4.83348 9.43365 4.9043 9.43945C5.03337 9.45 5.20783 9.45019 5.5 9.4502H8.60059C8.89287 9.45019 9.06719 9.45 9.19629 9.43945C9.2669 9.43368 9.30085 9.42631 9.31348 9.42285C9.36052 9.39888 9.39888 9.36052 9.42285 9.31348C9.42631 9.30085 9.43368 9.2669 9.43945 9.19629C9.45 9.06719 9.45019 8.89287 9.4502 8.60059V5.5C9.45019 5.20783 9.45 5.03337 9.43945 4.9043C9.43365 4.83348 9.42628 4.79958 9.42285 4.78711C9.39888 4.74007 9.36052 4.7017 9.31348 4.67773C9.32986 4.68608 9.31653 4.67097 9.19629 4.66113C9.06719 4.65059 8.89287 4.65039 8.60059 4.65039H5.5Z" fill="currentColor"/>
<path fill-rule="evenodd" clip-rule="evenodd" d="M18.498 3.15039C18.7655 3.15039 19.0115 3.15031 19.2158 3.16699C19.4289 3.18441 19.6624 3.22356 19.8926 3.34082C20.2217 3.50854 20.4894 3.77638 20.6572 4.10547C20.7745 4.33567 20.8146 4.56917 20.832 4.78223C20.8487 4.9865 20.8477 5.2325 20.8477 5.5V8.60059C20.8477 8.86816 20.8487 9.11403 20.832 9.31836C20.8146 9.53147 20.7746 9.76484 20.6572 9.99512C20.4895 10.3242 20.2217 10.592 19.8926 10.7598C19.6623 10.877 19.4289 10.9172 19.2158 10.9346C19.0115 10.9512 18.7655 10.9502 18.498 10.9502H15.3975C15.13 10.9502 14.8839 10.9513 14.6797 10.9346C14.4667 10.9171 14.2331 10.877 14.0029 10.7598C13.6739 10.592 13.406 10.3242 13.2383 9.99512C13.121 9.76488 13.0819 9.53143 13.0645 9.31836C13.0478 9.11403 13.0479 8.86815 13.0479 8.60059V5.5C13.0479 5.23251 13.0478 4.9865 13.0645 4.78223C13.0819 4.56921 13.121 4.33563 13.2383 4.10547C13.406 3.77641 13.6739 3.50857 14.0029 3.34082C14.233 3.22357 14.4667 3.18443 14.6797 3.16699C14.8839 3.15031 15.13 3.15039 15.3975 3.15039H18.498ZM15.3975 4.65039C15.1054 4.65039 14.9308 4.65059 14.8018 4.66113C14.6823 4.67094 14.6684 4.6859 14.6846 4.67773C14.6376 4.70171 14.5991 4.74012 14.5752 4.78711C14.5835 4.77073 14.5684 4.78424 14.5586 4.9043C14.548 5.03336 14.5479 5.20785 14.5479 5.5V8.60059C14.5479 8.89286 14.548 9.06719 14.5586 9.19629C14.5684 9.31653 14.5835 9.32987 14.5752 9.31348C14.5991 9.36047 14.6376 9.39888 14.6846 9.42285C14.697 9.42628 14.7311 9.43365 14.8018 9.43945C14.9308 9.45 15.1054 9.45019 15.3975 9.4502H18.498C18.7902 9.45019 18.9647 9.44999 19.0938 9.43945C19.164 9.4337 19.1982 9.42633 19.2109 9.42285C19.258 9.3989 19.2963 9.36048 19.3203 9.31348C19.3238 9.30085 19.3311 9.26689 19.3369 9.19629C19.3475 9.06719 19.3477 8.89287 19.3477 8.60059V5.5C19.3477 5.20783 19.3475 5.03337 19.3369 4.9043C19.3311 4.83349 19.3237 4.79958 19.3203 4.78711C19.2963 4.7401 19.258 4.70169 19.2109 4.67773C19.2273 4.68608 19.214 4.67097 19.0938 4.66113C18.9647 4.6506 18.7902 4.65039 18.498 4.65039H15.3975Z" fill="currentColor"/>
</svg>
