<?xml version="1.0" encoding="UTF-8"?>
<svg id="Layer_1" data-name="Layer 1" xmlns="http://www.w3.org/2000/svg" viewBox="0 0 834.9 202.78">
  <defs>
    <style>
      .cls-1 {
        fill: #fff;
        stroke-width: 0px;
      }
    </style>
  </defs>
  <path class="cls-1" d="M213,40.39h16.38v43.62c0,4.08-.3,7.07-.3,7.07h.3c3.7-8.27,14.58-19.02,31.57-19.02,20.08,0,29.37,10.95,29.37,32.67v54.58h-16.38v-50.79c0-11.95-2.5-21.41-16.18-21.41-12.89,0-23.47,8.76-27.07,21.11-1,3.39-1.4,7.27-1.4,11.25v39.94h-16.38V40.39h.1Z"/>
  <path class="cls-1" d="M354.85,72.06c25.57,0,46.15,18.72,46.15,44.52s-20.58,44.82-46.15,44.82-46.15-18.92-46.15-44.82,20.58-44.52,46.15-44.52ZM354.85,147.25c16.18,0,29.37-12.85,29.37-30.67s-13.19-30.37-29.37-30.37-29.37,12.65-29.37,30.37c-.1,17.83,13.29,30.67,29.37,30.67Z"/>
  <path class="cls-1" d="M419.38,40.39h16.38v92.82c0,10.26,4.1,12.15,9.09,12.15,1.5,0,2.9-.2,2.9-.2v14.54s-2.5.3-5.39.3c-9.29,0-22.98-2.49-22.98-23.9V40.39Z"/>
  <path class="cls-1" d="M465.03,40.39h16.58v16.73h-16.58v-16.73ZM465.13,74.15h16.38v85.25h-16.38v-85.25Z"/>
  <path class="cls-1" d="M508.28,137.29s9.59,9.96,24.47,9.96c7.09,0,14.18-3.68,14.18-10.66,0-15.64-43.95-12.45-43.95-40.23,0-15.54,13.88-24.3,30.97-24.3,18.78,0,27.57,9.46,27.57,9.46l-6.59,12.35s-7.59-7.57-21.18-7.57c-7.09,0-13.98,2.99-13.98,10.46,0,15.34,43.95,11.95,43.95,39.94,0,14.14-12.19,24.8-30.97,24.8-20.98,0-32.46-12.45-32.46-12.45l7.99-11.75Z"/>
  <path class="cls-1" d="M586.49,88.39h-11.19v-13.15h11.69v-24.6h15.88v24.6h20.58v13.15h-20.58v37.94c0,17.03,11.99,19.22,18.28,19.22,2.4,0,3.9-.3,3.9-.3v14.54s-2.4.3-5.79.3c-10.99,0-32.76-3.39-32.76-31.87v-39.84Z"/>
  <path class="cls-1" d="M643.33,40.39h16.58v16.73h-16.58v-16.73ZM643.43,74.15h16.38v85.25h-16.38v-85.25Z"/>
  <path class="cls-1" d="M725.24,72.06c21.48,0,32.17,12.45,32.17,12.45l-7.79,11.55s-9.09-9.76-23.67-9.76c-17.28,0-29.77,12.85-29.77,30.37s12.49,30.67,30.27,30.67c15.88,0,26.37-11.45,26.37-11.45l6.59,11.95s-11.79,13.64-34.16,13.64c-26.87,0-45.85-19.02-45.85-44.62.1-25.4,18.98-44.82,45.85-44.82Z"/>
  <path class="cls-1" d="M778.98,137.29s9.59,9.96,24.47,9.96c7.09,0,14.18-3.68,14.18-10.66,0-15.64-43.95-12.45-43.95-40.23,0-15.54,13.89-24.3,30.97-24.3,18.78,0,27.57,9.46,27.57,9.46l-6.59,12.35s-7.59-7.57-21.18-7.57c-7.09,0-13.98,2.99-13.98,10.46,0,15.34,43.95,11.95,43.95,39.94,0,14.14-12.19,24.8-30.97,24.8-20.98,0-32.46-12.45-32.46-12.45l7.99-11.75Z"/>
  <g>
    <path class="cls-1" d="M19.44,124.49h.71v-56.84c0-4.97,2.65-9.56,6.95-12.04l58.45-33.73c4.3-2.48,9.61-2.48,13.91,0l45.95,26.58c1.42-4.36,4.05-8.11,7.5-10.84L99.36,6.7c-4.3-2.49-9.6-2.49-13.91,0L13.92,48.02c-4.3,2.48-6.95,7.07-6.95,12.03v68.09c3.55-2.33,7.8-3.65,12.47-3.65Z"/>
    <path class="cls-1" d="M166.99,78.18c-.81,0-1.52,0-2.23-.1v57.04c0,4.97-2.65,9.56-6.95,12.04l-58.46,33.74c-4.3,2.48-9.59,2.48-13.89,0l-44.74-25.79c-1.52,4.26-4.36,7.9-8.01,10.54l52.63,30.44c4.3,2.49,9.61,2.49,13.91,0l71.53-41.32c4.3-2.48,6.95-7.07,6.95-12.03v-67.28c-3.14,1.72-6.79,2.74-10.74,2.74Z"/>
    <path class="cls-1" d="M166.18,39.47c-8.82,0-16.01,7.2-16.01,16.01,0,2.74.71,5.27,1.93,7.5l-45.6,42.36c-2.84-2.43-6.49-3.95-10.54-3.95-8.82,0-16.01,7.2-16.01,16.01,0,.81.1,1.72.2,2.53l-50.97,15.3c-2.84-2.53-6.49-4.05-10.54-4.05-8.82,0-16.01,7.2-16.01,16.01s7.2,16.01,16.01,16.01,16.01-7.2,16.01-16.01c0-1.01-.1-2.13-.3-3.14l50.47-15.2c2.84,2.74,6.79,4.46,11.15,4.46,8.82,0,16.01-7.2,16.01-16.01,0-1.11-.1-2.13-.3-3.14l47.53-44.39c2.13,1.01,4.46,1.62,6.99,1.62,8.82,0,16.01-7.2,16.01-16.01s-7.2-15.91-16.01-15.91ZM18.63,153.38c-3.34,0-6.08-2.74-6.08-6.08s2.74-6.08,6.08-6.08,6.08,2.74,6.08,6.08-2.74,6.08-6.08,6.08ZM95.95,123.58c-3.34,0-6.08-2.74-6.08-6.08s2.74-6.08,6.08-6.08,6.08,2.74,6.08,6.08-2.74,6.08-6.08,6.08ZM166.18,61.56c-3.34,0-6.08-2.74-6.08-6.08s2.74-6.08,6.08-6.08,6.08,2.74,6.08,6.08-2.74,6.08-6.08,6.08Z"/>
  </g>
</svg>