<?xml version="1.0" encoding="UTF-8"?>
<svg id="Layer_1" data-name="Layer 1" xmlns="http://www.w3.org/2000/svg" viewBox="0 0 834.9 202.78">
  <defs>
    <style>
      .cls-1 {
        fill: #012a49;
        stroke-width: 0px;
      }
    </style>
  </defs>
  <path class="cls-1" d="M213,40.39h16.38v43.62c0,4.08-.3,7.07-.3,7.07h.3c3.7-8.27,14.58-19.02,31.57-19.02,20.08,0,29.37,10.95,29.37,32.67v54.58h-16.38v-50.79c0-11.95-2.5-21.41-16.18-21.41-12.89,0-23.47,8.76-27.07,21.11-1,3.39-1.4,7.27-1.4,11.25v39.94h-16.38V40.39h.1Z"/>
  <path class="cls-1" d="M354.85,72.06c25.57,0,46.15,18.72,46.15,44.52s-20.58,44.82-46.15,44.82-46.15-18.92-46.15-44.82,20.58-44.52,46.15-44.52ZM354.85,147.25c16.18,0,29.37-12.85,29.37-30.67s-13.19-30.37-29.37-30.37-29.37,12.65-29.37,30.37c-.1,17.83,13.29,30.67,29.37,30.67Z"/>
  <path class="cls-1" d="M419.38,40.39h16.38v92.82c0,10.26,4.1,12.15,9.09,12.15,1.5,0,2.9-.2,2.9-.2v14.54s-2.5.3-5.39.3c-9.29,0-22.98-2.49-22.98-23.9V40.39Z"/>
  <path class="cls-1" d="M465.03,40.39h16.58v16.73h-16.58v-16.73ZM465.13,74.15h16.38v85.25h-16.38v-85.25Z"/>
  <path class="cls-1" d="M508.28,137.29s9.59,9.96,24.47,9.96c7.09,0,14.18-3.68,14.18-10.66,0-15.64-43.95-12.45-43.95-40.23,0-15.54,13.88-24.3,30.97-24.3,18.78,0,27.57,9.46,27.57,9.46l-6.59,12.35s-7.59-7.57-21.18-7.57c-7.09,0-13.98,2.99-13.98,10.46,0,15.34,43.95,11.95,43.95,39.94,0,14.14-12.19,24.8-30.97,24.8-20.98,0-32.46-12.45-32.46-12.45l7.99-11.75Z"/>
  <path class="cls-1" d="M586.49,88.39h-11.19v-13.15h11.69v-24.6h15.88v24.6h20.58v13.15h-20.58v37.94c0,17.03,11.99,19.22,18.28,19.22,2.4,0,3.9-.3,3.9-.3v14.54s-2.4.3-5.79.3c-10.99,0-32.76-3.39-32.76-31.87v-39.84Z"/>
  <path class="cls-1" d="M643.33,40.39h16.58v16.73h-16.58v-16.73ZM643.43,74.15h16.38v85.25h-16.38v-85.25Z"/>
  <path class="cls-1" d="M725.24,72.06c21.48,0,32.17,12.45,32.17,12.45l-7.79,11.55s-9.09-9.76-23.67-9.76c-17.28,0-29.77,12.85-29.77,30.37s12.49,30.67,30.27,30.67c15.88,0,26.37-11.45,26.37-11.45l6.59,11.95s-11.79,13.64-34.16,13.64c-26.87,0-45.85-19.02-45.85-44.62.1-25.4,18.98-44.82,45.85-44.82Z"/>
  <path class="cls-1" d="M778.98,137.29s9.59,9.96,24.47,9.96c7.09,0,14.18-3.68,14.18-10.66,0-15.64-43.95-12.45-43.95-40.23,0-15.54,13.89-24.3,30.97-24.3,18.78,0,27.57,9.46,27.57,9.46l-6.59,12.35s-7.59-7.57-21.18-7.57c-7.09,0-13.98,2.99-13.98,10.46,0,15.34,43.95,11.95,43.95,39.94,0,14.14-12.19,24.8-30.97,24.8-20.98,0-32.46-12.45-32.46-12.45l7.99-11.75Z"/>
  <g>
    <g>
      <path class="cls-1" d="M144.6,47.94c1.32-4.45,3.96-8.33,7.47-11.18l-49.21-28.41c-5.31-3.06-11.84-3.06-17.15,0L18,47.44c-5.31,3.06-8.57,8.72-8.57,14.85v60.25c2.77-1.21,5.82-1.88,9.03-1.88h4.39s0-55.39,0-55.39c0-3.18,1.7-6.12,4.45-7.71l62.55-36.11c2.75-1.59,6.15-1.59,8.9,0l45.87,26.48Z"/>
      <path class="cls-1" d="M166.36,77.06c-.21,0-.42-.01-.63-.02v60.45c0,3.18-1.7,6.12-4.45,7.71l-62.55,36.11c-2.75,1.59-6.15,1.59-8.9,0l-50.48-29.15c-1.82,4.3-4.93,7.92-8.85,10.39l55.2,31.87c5.31,3.06,11.84,3.06,17.15,0l67.72-39.1c5.31-3.06,8.57-8.72,8.57-14.85v-67.38c-3.64,2.5-8.05,3.96-12.79,3.96Z"/>
    </g>
    <path class="cls-1" d="M166.36,38.54c-8.74,0-15.83,7.09-15.83,15.83,0,2.1.41,4.11,1.16,5.94l-49.76,46.49c-2.26-1.25-4.87-1.96-7.64-1.96-8.74,0-15.83,7.09-15.83,15.83,0,.16,0,.32.01.48l-46.47,14.01c-2.77-4.58-7.8-7.64-13.55-7.64-8.74,0-15.83,7.09-15.83,15.83s7.09,15.83,15.83,15.83,15.11-6.39,15.77-14.52l47.53-14.33c2.89,3.75,7.43,6.17,12.54,6.17,8.74,0,15.83-7.09,15.83-15.83,0-2.43-.55-4.72-1.52-6.78l49.36-46.11c2.44,1.53,5.32,2.42,8.41,2.42,8.74,0,15.83-7.09,15.83-15.83s-7.09-15.83-15.83-15.83ZM18.45,149.41c-3.34,0-6.06-2.72-6.06-6.06s2.72-6.06,6.06-6.06,6.06,2.72,6.06,6.06-2.72,6.06-6.06,6.06ZM94.29,126.73c-3.34,0-6.06-2.72-6.06-6.06s2.72-6.06,6.06-6.06,6.06,2.72,6.06,6.06-2.72,6.06-6.06,6.06ZM166.36,60.43c-3.34,0-6.06-2.72-6.06-6.06s2.72-6.06,6.06-6.06,6.06,2.72,6.06,6.06-2.72,6.06-6.06,6.06Z"/>
  </g>
</svg>