<?xml version="1.0" encoding="UTF-8"?>
<svg id="Layer_1" data-name="Layer 1" xmlns="http://www.w3.org/2000/svg" version="1.1" viewBox="0 0 597 598">
  <defs>
    <style>
      .cls-1 {
        fill: #51b981;
      }

      .cls-1, .cls-2, .cls-3 {
        stroke-width: 0px;
      }

      .cls-2 {
        fill: #012a49;
      }

      .cls-3 {
        fill: #fff;
      }
    </style>
  </defs>
  <path class="cls-3" d="M0,57.2C0,26.1,25.2,1,56.2,1h484.6c31,0,56.2,25.2,56.2,56.2v484.6c0,31-25.2,56.2-56.2,56.2H56.2c-31,0-56.2-25.2-56.2-56.2V57.2Z"/>
  <g>
    <path class="cls-2" d="M96.4,447h10.7v28.4c0,2.7-.2,4.6-.2,4.6h.2c2.4-5.4,9.5-12.4,20.5-12.4s19.1,7.1,19.1,21.3v35.5h-10.7v-33c0-7.8-1.6-13.9-10.5-13.9s-15.3,5.7-17.6,13.7c-.7,2.2-.9,4.7-.9,7.3v26h-10.7v-77.4h0,0Z"/>
    <path class="cls-2" d="M188.6,467.6c16.6,0,30,12.2,30,29s-13.4,29.2-30,29.2-30-12.3-30-29.2,13.4-29,30-29h0ZM188.6,516.6c10.5,0,19.1-8.4,19.1-20s-8.6-19.8-19.1-19.8-19.1,8.2-19.1,19.8c0,11.6,8.6,20,19.1,20Z"/>
    <path class="cls-2" d="M230.6,447h10.7v60.4c0,6.7,2.7,7.9,5.9,7.9s1.9-.1,1.9-.1v9.5s-1.6.2-3.5.2c-6,0-14.9-1.6-14.9-15.5v-62.3h0Z"/>
    <path class="cls-2" d="M260.4,447h10.8v10.9h-10.8v-10.9ZM260.4,469h10.7v55.5h-10.7v-55.5Z"/>
    <path class="cls-2" d="M288.5,510.1s6.2,6.5,15.9,6.5,9.2-2.4,9.2-6.9c0-10.2-28.6-8.1-28.6-26.2s9-15.8,20.1-15.8,17.9,6.2,17.9,6.2l-4.3,8s-4.9-4.9-13.8-4.9-9.1,1.9-9.1,6.8c0,10,28.6,7.8,28.6,26s-7.9,16.1-20.1,16.1-21.1-8.1-21.1-8.1l5.2-7.6h0Z"/>
    <path class="cls-2" d="M339.4,478.3h-7.3v-8.6h7.6v-16h10.3v16h13.4v8.6h-13.4v24.7c0,11.1,7.8,12.5,11.9,12.5s2.5-.2,2.5-.2v9.5s-1.6.2-3.8.2c-7.1,0-21.3-2.2-21.3-20.7v-25.9h0Z"/>
    <path class="cls-2" d="M376.4,447h10.8v10.9h-10.8v-10.9ZM376.4,469h10.7v55.5h-10.7v-55.5Z"/>
    <path class="cls-2" d="M429.7,467.6c14,0,20.9,8.1,20.9,8.1l-5.1,7.5s-5.9-6.4-15.4-6.4-19.4,8.4-19.4,19.8,8.1,20,19.7,20,17.2-7.5,17.2-7.5l4.3,7.8s-7.7,8.9-22.2,8.9-29.8-12.4-29.8-29c0-16.5,12.4-29.2,29.8-29.2h0Z"/>
    <path class="cls-2" d="M464.6,510.1s6.2,6.5,15.9,6.5,9.2-2.4,9.2-6.9c0-10.2-28.6-8.1-28.6-26.2s9-15.8,20.1-15.8,17.9,6.2,17.9,6.2l-4.3,8s-4.9-4.9-13.8-4.9-9.1,1.9-9.1,6.8c0,10,28.6,7.8,28.6,26s-7.9,16.1-20.1,16.1-21.1-8.1-21.1-8.1l5.2-7.6h0Z"/>
  </g>
  <g>
    <g>
      <path class="cls-1" d="M383.7,146c2.1-7.2,6.5-13.6,12.2-18.2l-80.3-46.4c-8.7-5-19.3-5-28,0l-110.5,63.8c-8.7,5-14,14.2-14,24.2v98.3c4.5-2,9.5-3.1,14.7-3.1h7.2v-90.4c0-5.2,2.8-10,7.3-12.6l102.1-58.9c4.5-2.6,10-2.6,14.5,0l74.8,43.2h0Z"/>
      <path class="cls-2" d="M419.2,193.5c-.3,0-.7,0-1,0v98.6c0,5.2-2.8,10-7.3,12.6l-102.1,58.9c-4.5,2.6-10,2.6-14.5,0l-82.4-47.6c-3,7-8.1,12.9-14.4,17l90.1,52c8.7,5,19.3,5,28,0l110.5-63.8c8.7-5,14-14.2,14-24.2v-109.9c-6,4.1-13.1,6.5-20.9,6.5h0Z"/>
    </g>
    <path class="cls-1" d="M419.2,130.6c-14.3,0-25.8,11.6-25.8,25.8s.7,6.7,1.9,9.7l-81.2,75.9c-3.7-2-7.9-3.2-12.5-3.2-14.3,0-25.8,11.6-25.8,25.8s0,.5,0,.8l-75.8,22.9c-4.5-7.5-12.7-12.5-22.1-12.5-14.3,0-25.8,11.6-25.8,25.8s11.6,25.8,25.8,25.8,24.6-10.4,25.7-23.7l77.6-23.4c4.7,6.1,12.1,10.1,20.5,10.1,14.3,0,25.8-11.6,25.8-25.8s-.9-7.7-2.5-11.1l80.5-75.2c4,2.5,8.7,3.9,13.7,3.9,14.3,0,25.8-11.6,25.8-25.8s-11.6-25.8-25.8-25.8h0ZM177.8,311.5c-5.4,0-9.9-4.4-9.9-9.9s4.4-9.9,9.9-9.9,9.9,4.4,9.9,9.9-4.4,9.9-9.9,9.9ZM301.6,274.5c-5.5,0-9.9-4.4-9.9-9.9s4.4-9.9,9.9-9.9,9.9,4.4,9.9,9.9-4.4,9.9-9.9,9.9ZM419.2,166.3c-5.5,0-9.9-4.4-9.9-9.9s4.4-9.9,9.9-9.9,9.9,4.4,9.9,9.9-4.4,9.9-9.9,9.9Z"/>
  </g>
</svg>