<?xml version="1.0" encoding="UTF-8"?>
<svg id="Layer_1" data-name="Layer 1" xmlns="http://www.w3.org/2000/svg" viewBox="0 0 255 255">
  <defs>
    <style>
      .cls-1 {
        fill: #fff;
        stroke-width: 0px;
      }
    </style>
  </defs>
  <g>
    <path class="cls-1" d="M179.01,74.76c1.3-4.39,3.91-8.22,7.37-11.03l-48.56-28.04c-5.24-3.02-11.69-3.02-16.92,0l-66.82,38.58c-5.24,3.02-8.46,8.61-8.46,14.66v59.45c2.73-1.19,5.74-1.85,8.91-1.85h4.33s0-54.65,0-54.65c0-3.14,1.67-6.04,4.39-7.61l61.72-35.63c2.72-1.57,6.07-1.57,8.78,0l45.26,26.13Z"/>
    <path class="cls-1" d="M200.48,103.5c-.21,0-.41-.01-.62-.02v59.65c0,3.14-1.67,6.04-4.39,7.61l-61.72,35.63c-2.72,1.57-6.07,1.57-8.78,0l-49.81-28.76c-1.8,4.24-4.87,7.82-8.73,10.25l54.47,31.45c5.24,3.02,11.69,3.02,16.92,0l66.82-38.58c5.24-3.02,8.46-8.61,8.46-14.66v-66.49c-3.6,2.46-7.94,3.91-12.62,3.91Z"/>
  </g>
  <path class="cls-1" d="M200.48,65.48c-8.63,0-15.62,6.99-15.62,15.62,0,2.07.41,4.05,1.14,5.86l-49.1,45.87c-2.23-1.23-4.8-1.94-7.53-1.94-8.63,0-15.62,6.99-15.62,15.62,0,.16,0,.31.01.47l-45.85,13.83c-2.74-4.52-7.7-7.54-13.37-7.54-8.63,0-15.62,6.99-15.62,15.62s6.99,15.62,15.62,15.62,14.91-6.31,15.56-14.33l46.9-14.14c2.86,3.7,7.34,6.09,12.37,6.09,8.63,0,15.62-6.99,15.62-15.62,0-2.39-.54-4.66-1.5-6.69l48.7-45.5c2.4,1.51,5.25,2.39,8.3,2.39,8.63,0,15.62-6.99,15.62-15.62s-6.99-15.62-15.62-15.62ZM54.52,174.89c-3.3,0-5.98-2.68-5.98-5.98s2.68-5.98,5.98-5.98,5.98,2.68,5.98,5.98-2.68,5.98-5.98,5.98ZM129.36,152.51c-3.3,0-5.98-2.68-5.98-5.98s2.68-5.98,5.98-5.98,5.98,2.68,5.98,5.98-2.68,5.98-5.98,5.98ZM200.48,87.08c-3.3,0-5.98-2.68-5.98-5.98s2.68-5.98,5.98-5.98,5.98,2.68,5.98,5.98-2.68,5.98-5.98,5.98Z"/>
</svg>