<?xml version="1.0" encoding="UTF-8"?>
<svg id="Layer_1" data-name="Layer 1" xmlns="http://www.w3.org/2000/svg" version="1.1" viewBox="0 0 255 255">
  <defs>
    <style>
      .cls-1 {
        fill: #012a49;
        stroke-width: 0px;
      }
    </style>
  </defs>
  <g>
    <path class="cls-1" d="M179,74.8c1.3-4.4,3.9-8.2,7.4-11l-48.6-28c-5.2-3-11.7-3-16.9,0l-66.8,38.6c-5.2,3-8.5,8.6-8.5,14.7v59.4c2.7-1.2,5.7-1.9,8.9-1.9h4.3v-54.7c0-3.1,1.7-6,4.4-7.6l61.7-35.6c2.7-1.6,6.1-1.6,8.8,0l45.3,26.1h0Z"/>
    <path class="cls-1" d="M200.5,103.5c-.2,0-.4,0-.6,0v59.7c0,3.1-1.7,6-4.4,7.6l-61.7,35.6c-2.7,1.6-6.1,1.6-8.8,0l-49.8-28.8c-1.8,4.2-4.9,7.8-8.7,10.2l54.5,31.4c5.2,3,11.7,3,16.9,0l66.8-38.6c5.2-3,8.5-8.6,8.5-14.7v-66.5c-3.6,2.5-7.9,3.9-12.6,3.9h0Z"/>
  </g>
  <path class="cls-1" d="M200.5,65.5c-8.6,0-15.6,7-15.6,15.6s.4,4.1,1.1,5.9l-49.1,45.9c-2.2-1.2-4.8-1.9-7.5-1.9-8.6,0-15.6,7-15.6,15.6s0,.3,0,.5l-45.8,13.8c-2.7-4.5-7.7-7.5-13.4-7.5-8.6,0-15.6,7-15.6,15.6s7,15.6,15.6,15.6,14.9-6.3,15.6-14.3l46.9-14.1c2.9,3.7,7.3,6.1,12.4,6.1,8.6,0,15.6-7,15.6-15.6s-.5-4.7-1.5-6.7l48.7-45.5c2.4,1.5,5.2,2.4,8.3,2.4,8.6,0,15.6-7,15.6-15.6s-7-15.6-15.6-15.6h0ZM54.5,174.9c-3.3,0-6-2.7-6-6s2.7-6,6-6,6,2.7,6,6-2.7,6-6,6ZM129.4,152.5c-3.3,0-6-2.7-6-6s2.7-6,6-6,6,2.7,6,6-2.7,6-6,6ZM200.5,87.1c-3.3,0-6-2.7-6-6s2.7-6,6-6,6,2.7,6,6-2.7,6-6,6Z"/>
</svg>