<?xml version="1.0" encoding="UTF-8"?>
<svg id="Layer_1" data-name="Layer 1" xmlns="http://www.w3.org/2000/svg" viewBox="0 0 597 598">
  <defs>
    <style>
      .cls-1 {
        fill: #51b981;
      }

      .cls-1, .cls-2, .cls-3 {
        stroke-width: 0px;
      }

      .cls-2 {
        fill: #012a49;
      }

      .cls-3 {
        fill: #fff;
      }
    </style>
  </defs>
  <path class="cls-2" d="M0,57.16C0,26.13,25.16.97,56.19.97h484.62c31.03,0,56.19,25.16,56.19,56.19v484.65c0,31.03-25.16,56.19-56.19,56.19H56.19c-31.03,0-56.19-25.16-56.19-56.19V57.16Z"/>
  <g>
    <path class="cls-3" d="M96.36,447.05h10.66v28.38c0,2.66-.19,4.6-.19,4.6h.19c2.4-5.38,9.49-12.38,20.54-12.38,13.06,0,19.11,7.13,19.11,21.26v35.51h-10.66v-33.05c0-7.78-1.62-13.93-10.53-13.93-8.38,0-15.28,5.7-17.61,13.74-.65,2.2-.91,4.73-.91,7.32v25.99h-10.66v-77.44h.07Z"/>
    <path class="cls-3" d="M188.65,467.65c16.64,0,30.03,12.18,30.03,28.97s-13.39,29.16-30.03,29.16-30.03-12.31-30.03-29.16,13.39-28.97,30.03-28.97ZM188.65,516.58c10.53,0,19.11-8.36,19.11-19.96s-8.58-19.77-19.11-19.77-19.11,8.23-19.11,19.77c-.07,11.6,8.65,19.96,19.11,19.96Z"/>
    <path class="cls-3" d="M230.64,447.05h10.66v60.4c0,6.67,2.66,7.91,5.91,7.91.98,0,1.89-.13,1.89-.13v9.46s-1.62.19-3.51.19c-6.04,0-14.95-1.62-14.95-15.55v-62.28Z"/>
    <path class="cls-3" d="M260.35,447.05h10.79v10.89h-10.79v-10.89ZM260.41,469.02h10.66v55.47h-10.66v-55.47Z"/>
    <path class="cls-3" d="M288.49,510.1s6.24,6.48,15.92,6.48c4.61,0,9.23-2.4,9.23-6.93,0-10.18-28.6-8.1-28.6-26.18,0-10.11,9.03-15.81,20.15-15.81,12.22,0,17.94,6.16,17.94,6.16l-4.29,8.04s-4.94-4.93-13.78-4.93c-4.61,0-9.1,1.94-9.1,6.8,0,9.98,28.6,7.78,28.6,25.99,0,9.2-7.93,16.14-20.15,16.14-13.65,0-21.12-8.1-21.12-8.1l5.2-7.65Z"/>
    <path class="cls-3" d="M339.38,478.28h-7.28v-8.56h7.61v-16.01h10.33v16.01h13.39v8.56h-13.39v24.69c0,11.08,7.8,12.51,11.89,12.51,1.56,0,2.53-.19,2.53-.19v9.46s-1.56.19-3.77.19c-7.15,0-21.32-2.2-21.32-20.74v-25.92Z"/>
    <path class="cls-3" d="M376.37,447.05h10.79v10.89h-10.79v-10.89ZM376.43,469.02h10.66v55.47h-10.66v-55.47Z"/>
    <path class="cls-3" d="M429.66,467.65c13.97,0,20.93,8.1,20.93,8.1l-5.07,7.52s-5.91-6.35-15.4-6.35c-11.24,0-19.37,8.36-19.37,19.77s8.12,19.96,19.69,19.96c10.33,0,17.16-7.45,17.16-7.45l4.29,7.78s-7.67,8.88-22.23,8.88c-17.48,0-29.83-12.38-29.83-29.03.07-16.53,12.35-29.16,29.83-29.16Z"/>
    <path class="cls-3" d="M464.63,510.1s6.24,6.48,15.92,6.48c4.61,0,9.23-2.4,9.23-6.93,0-10.18-28.6-8.1-28.6-26.18,0-10.11,9.04-15.81,20.15-15.81,12.22,0,17.94,6.16,17.94,6.16l-4.29,8.04s-4.94-4.93-13.78-4.93c-4.61,0-9.1,1.94-9.1,6.8,0,9.98,28.6,7.78,28.6,25.99,0,9.2-7.93,16.14-20.15,16.14-13.65,0-21.12-8.1-21.12-8.1l5.2-7.65Z"/>
  </g>
  <g>
    <g>
      <path class="cls-1" d="M383.67,145.95c2.15-7.25,6.46-13.59,12.19-18.24l-80.3-46.36c-8.66-5-19.32-5-27.98,0l-110.49,63.79c-8.66,5-13.99,14.24-13.99,24.23v98.31c4.52-1.97,9.5-3.06,14.73-3.06h7.16s0-90.37,0-90.37c0-5.19,2.77-9.98,7.26-12.58l102.06-58.92c4.49-2.59,10.03-2.59,14.52,0l74.84,43.21Z"/>
      <path class="cls-3" d="M419.17,193.47c-.34,0-.68-.02-1.02-.03v98.64c0,5.19-2.77,9.98-7.26,12.58l-102.06,58.92c-4.49,2.59-10.03,2.59-14.52,0l-82.37-47.56c-2.97,7.02-8.05,12.93-14.43,16.95l90.07,52c8.66,5,19.32,5,27.98,0l110.49-63.79c8.66-5,13.99-14.24,13.99-24.23v-109.95c-5.95,4.08-13.14,6.47-20.87,6.47Z"/>
    </g>
    <path class="cls-1" d="M419.17,130.62c-14.27,0-25.83,11.57-25.83,25.83,0,3.43.67,6.7,1.89,9.7l-81.2,75.85c-3.69-2.04-7.94-3.2-12.46-3.2-14.27,0-25.83,11.57-25.83,25.83,0,.26.01.52.02.78l-75.82,22.87c-4.53-7.47-12.73-12.47-22.11-12.47-14.27,0-25.83,11.57-25.83,25.83s11.57,25.83,25.83,25.83,24.65-10.43,25.74-23.7l77.55-23.38c4.72,6.12,12.13,10.07,20.46,10.07,14.27,0,25.83-11.57,25.83-25.83,0-3.96-.89-7.71-2.48-11.06l80.53-75.24c3.98,2.5,8.68,3.95,13.72,3.95,14.27,0,25.83-11.57,25.83-25.83s-11.57-25.83-25.83-25.83ZM177.83,311.52c-5.45,0-9.88-4.43-9.88-9.88s4.43-9.88,9.88-9.88,9.88,4.43,9.88,9.88-4.43,9.88-9.88,9.88ZM301.57,274.51c-5.45,0-9.88-4.43-9.88-9.88s4.43-9.88,9.88-9.88,9.88,4.43,9.88,9.88-4.43,9.88-9.88,9.88ZM419.17,166.33c-5.45,0-9.88-4.43-9.88-9.88s4.43-9.88,9.88-9.88,9.88,4.43,9.88,9.88-4.43,9.88-9.88,9.88Z"/>
  </g>
</svg>