<svg width="24" height="24" viewBox="0 0 24 24" fill="none" xmlns="http://www.w3.org/2000/svg">
<path d="M5 4.7207V19.2406C5 20.7606 8.35999 21.9606 12.56 21.9606V4.7207H5Z" fill="#3E3E3E"/>
<path d="M12.4395 22.0006H12.5595C16.7194 22.0006 20.1194 20.7606 20.1194 19.2806V4.7207H12.4395V22.0006Z" fill="#A0A1A2"/>
<path d="M20.1199 4.71999C20.1199 6.23998 16.7599 7.43997 12.56 7.43997C8.35999 7.43997 5 6.23998 5 4.71999C5 3.23999 8.39999 2 12.56 2C16.7199 2 20.1199 3.23999 20.1199 4.71999Z" fill="white"/>
<path d="M18.5605 4.55976C18.5605 5.55975 15.8805 6.35974 12.5605 6.35974C9.24053 6.35974 6.56055 5.55975 6.56055 4.55976C6.56055 3.55976 9.24053 2.75977 12.5605 2.75977C15.8805 2.75977 18.5605 3.55976 18.5605 4.55976Z" fill="#57A300"/>
<path d="M17.3205 5.67975C18.1205 5.35975 18.5605 4.99975 18.5605 4.55976C18.5605 3.55976 15.8805 2.75977 12.5605 2.75977C9.24053 2.75977 6.56055 3.55976 6.56055 4.55976C6.56055 4.95975 7.04054 5.35975 7.80054 5.67975C8.88053 5.23975 10.6005 4.95975 12.5605 4.95975C14.4805 4.95975 16.2005 5.23975 17.3205 5.67975Z" fill="#B8D432"/>
<path d="M12.44 22.0003V14.8003C11.32 14.8003 10.36 14.2003 9.79998 13.3203C9.23998 14.2003 8.31999 14.8003 7.19999 14.8003C6.32 14.8003 5.56 14.4403 5 13.8403V19.2803C5 20.7603 8.31999 21.9603 12.44 22.0003Z" fill="#3999C6"/>
<path d="M12.4395 22.0003H12.5595H12.4395ZM17.7994 14.8003C16.6794 14.8003 15.6794 14.2003 15.1194 13.3203C14.5994 14.2003 13.6394 14.7603 12.5195 14.8003V22.0003C16.6794 22.0003 20.0794 20.7603 20.0794 19.2803V13.8003C19.5194 14.4003 18.7194 14.8003 17.7994 14.8003ZM12.4795 14.8003L12.4395 22.0003H12.5195V14.8003H12.4795Z" fill="#59B4D9"/>
</svg>
