<svg width="24" height="24" viewBox="0 0 24 24" fill="none" xmlns="http://www.w3.org/2000/svg">
<path d="M11.0374 4.66045L4.32651 7.43751C3.95329 7.5922 3.95722 8.12207 4.33269 8.27086L11.0714 10.9433C11.6635 11.1781 12.3229 11.1781 12.915 10.9433L19.6538 8.27086C20.0293 8.12179 20.0335 7.59192 19.66 7.43751L12.9493 4.66073C12.3371 4.40736 11.6494 4.40736 11.0371 4.66073" fill="#FFCC00"/>
<path d="M12.5918 12.4031V19.0791C12.5919 19.1524 12.6099 19.2246 12.6443 19.2894C12.6786 19.3542 12.7283 19.4096 12.789 19.4508C12.8496 19.492 12.9194 19.5178 12.9923 19.5258C13.0652 19.5339 13.139 19.524 13.2072 19.4971L20.7165 16.5822C20.8002 16.5489 20.872 16.4913 20.9226 16.4168C20.9732 16.3423 21.0003 16.2543 21.0003 16.1642V9.48849C21.0002 9.41516 20.9822 9.34296 20.9479 9.27818C20.9135 9.2134 20.8638 9.158 20.8032 9.1168C20.7425 9.0756 20.6727 9.04985 20.5998 9.04179C20.5269 9.03373 20.4532 9.0436 20.385 9.07055L12.8756 11.9854C12.7919 12.0187 12.7201 12.0763 12.6695 12.1508C12.6189 12.2253 12.5918 12.3133 12.5918 12.4034" fill="#31C2F2"/>
<path d="M10.8382 12.747L8.38341 13.9325L3.67894 16.1867C3.38081 16.3307 3 16.1136 3 15.7817V9.51602C3 9.39621 3.06131 9.29271 3.144 9.21509C3.1778 9.18142 3.21614 9.15264 3.25791 9.12959C3.37041 9.06209 3.53072 9.04409 3.66712 9.09809L10.801 11.9246C11.1667 12.0686 11.1948 12.5766 10.8384 12.7473" fill="#ED3049"/>
<path d="M10.839 12.7476L8.61034 13.8236L3.14453 9.21509C3.17833 9.18142 3.21667 9.15264 3.25844 9.12959C3.37094 9.06209 3.53125 9.04409 3.66766 9.09809L10.8016 11.9246C11.1672 12.0686 11.1953 12.5766 10.839 12.7473" fill="#C62842"/>
</svg>
