<svg width="24" height="24" viewBox="0 0 24 24" fill="none" xmlns="http://www.w3.org/2000/svg">
<path d="M17.5 3.66672C17.3853 3.46807 17.2214 3.30234 17.024 3.18555C16.8267 3.06876 16.6025 3.00485 16.3732 3H7.65257C7.42751 3.00397 7.20758 3.06783 7.0154 3.18501C6.82322 3.30219 6.66574 3.46846 6.55915 3.66672L2.1855 11.2139C2.06428 11.4079 2 11.632 2 11.8607C2 12.0893 2.06428 12.3134 2.1855 12.5074L6.55915 20.0279C6.67319 20.2256 6.83606 20.3907 7.03217 20.5075C7.22829 20.6242 7.45109 20.6886 7.67924 20.6946H16.3465C16.5774 20.6974 16.8046 20.6367 17.0033 20.5191C17.202 20.4015 17.3646 20.2316 17.4733 20.0279L21.8203 12.5074C21.9379 12.3121 22 12.0886 22 11.8607C22 11.6327 21.9379 11.4092 21.8203 11.2139L17.5 3.66672ZM17.5 20.0546C17.3853 20.2532 17.2214 20.419 17.024 20.5357C16.8267 20.6525 16.6025 20.7164 16.3732 20.7213H15.7598C14.3197 19.3012 10.7061 15.6409 9.82606 14.7609C9.77939 14.7142 9.70605 14.6875 9.65938 14.6409C8.92044 14.0432 8.44453 13.1803 8.33332 12.2364C8.2221 11.2926 8.48441 10.3427 9.0642 9.58966C9.64399 8.83663 10.4953 8.3402 11.4362 8.20643C12.3771 8.07266 13.333 8.31216 14.0997 8.87376C14.3451 9.07156 14.5686 9.29507 14.7664 9.54048C14.7612 9.4972 14.7451 9.45593 14.7198 9.42047L20.3535 15.0009L17.5 20.0546Z" fill="#4386FA"/>
<path d="M11.8906 14.5081C12.431 14.5068 12.9588 14.3453 13.4074 14.0442C13.8561 13.743 14.2054 13.3156 14.4113 12.816C14.6172 12.3164 14.6703 11.767 14.5641 11.2372C14.4579 10.7074 14.197 10.2209 13.8145 9.8393C13.4319 9.45767 12.9448 9.19799 12.4148 9.09306C11.8847 8.98812 11.3354 9.04264 10.8363 9.24973C10.3372 9.45682 9.91069 9.80719 9.61062 10.2566C9.31055 10.7059 9.1504 11.2342 9.1504 11.7745C9.14951 12.1343 9.21984 12.4907 9.35732 12.8232C9.49479 13.1557 9.69671 13.4577 9.95142 13.7118C10.2061 13.9659 10.5086 14.167 10.8414 14.3037C11.1742 14.4404 11.5308 14.5098 11.8906 14.5081ZM12.8907 12.0679H13.6241V12.7346C13.4565 13.0455 13.2016 13.3005 12.8907 13.468V12.0679ZM11.5239 10.6745H12.2573V13.728C12.0157 13.7814 11.7655 13.7814 11.5239 13.728V10.6745ZM10.1305 11.6279H10.8639V13.508C10.5616 13.3292 10.3093 13.0769 10.1305 12.7746V11.6279Z" fill="#4386FA"/>
<path d="M14.7855 9.55293C15.2715 10.1872 15.5349 10.964 15.5349 11.7631C15.5349 12.5622 15.2715 13.339 14.7855 13.9733C14.7855 13.9733 14.7855 13.9733 14.8321 14.0199L16.1656 15.3534C16.2016 15.3937 16.2216 15.4459 16.2216 15.5C16.2216 15.5542 16.2016 15.6064 16.1656 15.6467L15.8189 15.9867C15.7785 16.0228 15.7263 16.0428 15.6722 16.0428C15.6181 16.0428 15.5659 16.0228 15.5255 15.9867L14.1921 14.6533C14.1921 14.6533 14.1921 14.6533 14.1921 14.6066C13.5834 15.0833 12.8379 15.3522 12.065 15.3738C11.2922 15.3954 10.5328 15.1686 9.89844 14.7266C10.7518 15.6067 14.3654 19.247 15.8055 20.6671H16.4189C16.6485 20.6679 16.874 20.6063 17.0713 20.4888C17.2686 20.3714 17.4302 20.2026 17.539 20.0004L20.3992 15L14.7588 9.40625C14.7588 9.40625 14.7588 9.47959 14.7855 9.55293Z" fill="#4386FA"/>
<path opacity="0.1" d="M14.7855 9.55293C15.2715 10.1872 15.5349 10.964 15.5349 11.7631C15.5349 12.5622 15.2715 13.339 14.7855 13.9733C14.7855 13.9733 14.7855 13.9733 14.8321 14.0199L16.1656 15.3534C16.2016 15.3937 16.2216 15.4459 16.2216 15.5C16.2216 15.5542 16.2016 15.6064 16.1656 15.6467L15.8189 15.9867C15.7785 16.0228 15.7263 16.0428 15.6722 16.0428C15.6181 16.0428 15.5659 16.0228 15.5255 15.9867L14.1921 14.6533C14.1921 14.6533 14.1921 14.6533 14.1921 14.6066C13.5834 15.0833 12.8379 15.3522 12.065 15.3738C11.2922 15.3954 10.5328 15.1686 9.89844 14.7266C10.7518 15.6067 14.3654 19.247 15.8055 20.6671H16.4189C16.6485 20.6679 16.874 20.6063 17.0713 20.4888C17.2686 20.3714 17.4302 20.2026 17.539 20.0004L20.3992 15L14.7588 9.40625C14.7588 9.40625 14.7588 9.47959 14.7855 9.55293Z" fill="black"/>
<path d="M14.1262 14.6341C14.1262 14.6341 14.1262 14.6341 14.1262 14.6808L15.4596 16.0142C15.4999 16.0503 15.5521 16.0703 15.6063 16.0703C15.6604 16.0703 15.7126 16.0503 15.7529 16.0142L16.093 15.6675C16.129 15.6272 16.149 15.575 16.149 15.5209C16.149 15.4668 16.129 15.4145 16.093 15.3742L14.7595 14.0408L14.7129 13.9941C15.1979 13.3594 15.4606 12.5827 15.4606 11.7839C15.4606 10.9851 15.1979 10.2085 14.7129 9.57376C14.5151 9.32836 14.2916 9.10484 14.0461 8.90705C13.6696 8.59782 13.2348 8.36734 12.7675 8.22927C12.3002 8.09121 11.8099 8.04836 11.3258 8.10327C10.8416 8.15817 10.3734 8.30973 9.94888 8.54893C9.52438 8.78814 9.15221 9.11014 8.85445 9.49584C8.5567 9.88154 8.3394 10.3231 8.21545 10.7943C8.0915 11.2656 8.06342 11.7569 8.13287 12.2392C8.20231 12.7215 8.36788 13.1849 8.61975 13.602C8.87162 14.0191 9.20467 14.3815 9.59915 14.6675C9.64582 14.7141 9.71916 14.7408 9.7725 14.7875C10.4233 15.2198 11.1931 15.4376 11.974 15.4101C12.7548 15.3826 13.5074 15.1112 14.1262 14.6341ZM9.16579 11.7739C9.16447 11.2311 9.3244 10.7001 9.62529 10.2484C9.92618 9.79657 10.3545 9.44433 10.8558 9.2363C11.3572 9.02828 11.9091 8.97385 12.4414 9.07991C12.9738 9.18597 13.4626 9.44775 13.846 9.83204C14.2293 10.2163 14.4899 10.7058 14.5947 11.2384C14.6994 11.771 14.6436 12.3228 14.4344 12.8236C14.2252 13.3245 13.8719 13.7519 13.4193 14.0517C12.9668 14.3515 12.4355 14.5101 11.8927 14.5075C11.1688 14.5057 10.4753 14.2169 9.96406 13.7045C9.45287 13.192 9.16579 12.4978 9.16579 11.7739Z" fill="white"/>
<path d="M10.8779 13.4876V11.6074H10.1445V12.7275C10.311 13.0459 10.5656 13.3098 10.8779 13.4876Z" fill="white"/>
<path d="M12.2724 13.7274V10.6738H11.5391V13.7274C11.7806 13.7807 12.0309 13.7807 12.2724 13.7274Z" fill="white"/>
<path d="M13.6396 12.7546V12.0879H12.9062V13.5013C13.2072 13.315 13.4588 13.0589 13.6396 12.7546Z" fill="white"/>
</svg>
