<svg width="24" height="24" viewBox="0 0 24 24" fill="none" xmlns="http://www.w3.org/2000/svg">
<path d="M21.9744 12.7135C21.991 12.4778 22 12.24 22 12C22 6.47715 17.5229 2 12 2C6.47715 2 2 6.47715 2 12C2 16.6004 5.10664 20.4746 9.33629 21.6407L21.9744 12.7135Z" fill="#89C429"/>
<path d="M21.9745 12.713L14.3045 5.04297L6.65234 18.956L9.33648 21.6402C10.1846 21.874 11.0777 21.9995 12.0002 21.9995C17.2831 21.9995 21.6086 17.9028 21.9745 12.713Z" fill="#709E21"/>
<path d="M12.8723 15.043L11.9889 5.04297H6.65234V14.1734L12.8723 15.043Z" fill="white"/>
<path d="M17.3474 14.1734V8.08644L15.1735 7.21687L14.3039 5.04297H11.9883L12.0022 15.043L17.3474 14.1734Z" fill="#E8E6E6"/>
<path d="M14.3047 8.08645V5.04297L17.3482 8.08645H14.3047Z" fill="white"/>
<path d="M17.348 14.1738H6.65234V18.9564H17.348V14.1738Z" fill="#B3DA73"/>
<path d="M10.8846 15.8626L10.58 16.2232C10.4441 16.0577 10.2431 15.9542 10.0597 15.9542C9.7316 15.9542 9.48328 16.2143 9.48328 16.5543C9.48328 16.9002 9.7316 17.1633 10.0597 17.1633C10.2342 17.1633 10.4352 17.0687 10.58 16.9209L10.8875 17.246C10.6657 17.4736 10.3377 17.6244 10.0332 17.6244C9.40938 17.6244 8.94531 17.1662 8.94531 16.5602C8.94531 15.963 9.42125 15.5137 10.051 15.5137C10.3584 15.5137 10.6776 15.6497 10.8846 15.8626Z" fill="white"/>
<path d="M12.8108 15.7384L12.6127 16.1493C12.394 16.0221 12.1191 15.9335 11.9505 15.9335C11.8145 15.9335 11.7229 15.9837 11.7229 16.0843C11.7229 16.442 12.8167 16.238 12.8167 16.9859C12.8167 17.3998 12.4502 17.6186 11.989 17.6186C11.6431 17.6186 11.2884 17.4885 11.043 17.2875L11.2469 16.8825C11.4598 17.0687 11.7791 17.1929 11.9949 17.1929C12.1604 17.1929 12.2639 17.1308 12.2639 17.0125C12.2639 16.646 11.1701 16.8648 11.1701 16.1316C11.1701 15.7502 11.4982 15.5078 11.9949 15.5078C12.2935 15.5078 12.598 15.5995 12.8108 15.7384Z" fill="white"/>
<path d="M13.7748 17.6006L12.9707 15.5312H13.5324L14.0616 17.0537L14.5907 15.5312H15.1317L14.3188 17.6006H13.7748Z" fill="white"/>
</svg>
