<svg width="24" height="24" viewBox="0 0 24 24" fill="none" xmlns="http://www.w3.org/2000/svg">
<path d="M20.5763 10.2447L12.2946 14.9078L3.42652 9.92552L3 10.156V13.7731L12.2946 18.9858L20.5763 14.3404V16.2553L12.2946 20.9185L3.42652 15.9362L3 16.1667V16.7872L12.2946 22L21.5714 16.7872V13.1702L21.1449 12.9397L12.2946 17.9042L3.99522 13.2589V11.344L12.2946 15.9893L21.5714 10.7766V7.21276L21.1094 6.9468L12.2946 11.8936L4.42174 7.49645L12.2946 3.08156L18.7636 6.71631L19.3323 6.39716V5.95389L12.2946 2L3 7.21276V7.78014L12.2946 12.9929L20.5763 8.32978V10.2447Z" fill="#EE3D2C"/>
</svg>
