<svg width="24" height="24" viewBox="0 0 24 24" fill="none" xmlns="http://www.w3.org/2000/svg">
<g clip-path="url(#clip0_5150_14316)">
<path d="M12.2368 5.00323C13.514 5.00323 14.7911 4.99657 16.0678 5.00323C18.5134 5.01879 20.7574 6.61435 21.6112 8.94323C21.9792 9.94879 22.0591 10.9893 21.9542 12.0577C21.8004 13.6266 21.3422 15.0827 20.4743 16.3877C19.1352 18.4021 17.2477 19.5216 14.9102 19.8943C14.1178 20.0205 13.3227 20.0055 12.5265 20.0055C12.196 20.0055 12.0194 19.851 11.9998 19.5716C11.9786 19.2721 12.1629 19.0421 12.489 19.0221C12.8498 18.9993 13.2134 19.0182 13.5759 19.0082C15.7765 18.9471 17.6819 18.1721 19.1911 16.5082C20.2487 15.3416 20.7846 13.9205 20.9661 12.3543C21.0922 11.2677 21.0786 10.1877 20.6585 9.15823C20.014 7.58323 18.8591 6.61768 17.2689 6.1699C16.6515 5.99601 16.0189 5.96323 15.3857 5.95935C13.0221 5.9449 10.6574 5.95379 8.2944 5.95323C8.19494 5.95323 8.0944 5.95712 7.99548 5.94823C7.88205 5.93751 7.77615 5.88551 7.69705 5.8017C7.61796 5.71789 7.57092 5.60784 7.56451 5.49157C7.56284 5.37934 7.60014 5.27015 7.6698 5.18338C7.73945 5.09662 7.83694 5.03791 7.94494 5.01768C8.05295 5.0024 8.16208 4.99701 8.27103 5.00157C9.59313 5.00157 10.9156 5.00157 12.2384 5.00157L12.2368 5.00323Z" fill="#29F1FB"/>
<path d="M9.81427 16.5579H5.57514C5.48452 16.562 5.39374 16.5599 5.3034 16.5518C5.05829 16.5179 4.90394 16.374 4.88003 16.1207C4.85611 15.8673 4.97242 15.694 5.20611 15.6051C5.35448 15.5496 5.50992 15.5612 5.66318 15.5612C8.45177 15.5612 11.2409 15.5657 14.0295 15.5562C15.0077 15.5529 15.8523 15.1823 16.5235 14.449C17.0991 13.8201 17.4007 13.0601 17.4904 12.2046C17.561 11.5334 17.4675 10.9162 17.0599 10.3684C16.6067 9.75733 15.9942 9.45066 15.2577 9.44733C12.623 9.43566 9.98601 9.44288 7.3534 9.439C7.0735 9.439 6.79307 9.41566 6.51427 9.389C6.2735 9.36622 6.14035 9.21788 6.12405 8.97011C6.10611 8.70011 6.24144 8.50566 6.48111 8.45844C6.56137 8.44678 6.64253 8.44288 6.7235 8.44677C9.54959 8.44677 12.3757 8.44677 15.2018 8.44677C16.6262 8.44955 17.8577 9.33011 18.3067 10.7068C18.6251 11.684 18.5116 12.669 18.1545 13.6162C17.4686 15.4346 15.8539 16.5529 13.9431 16.5579C12.567 16.5618 11.1904 16.5579 9.81427 16.5579Z" fill="#29F1FB"/>
<path d="M3.49362 9.39121C3.16753 9.39121 2.84144 9.39565 2.51536 9.39121C2.24362 9.38621 2.03492 9.20343 2.00394 8.95454C1.97297 8.70565 2.12568 8.49177 2.4197 8.43066C2.58028 8.40403 2.74297 8.39306 2.90557 8.39788C3.34905 8.39399 3.79307 8.39288 4.23655 8.39788C4.37198 8.39767 4.50696 8.41371 4.63873 8.44566C4.8784 8.50788 5.00938 8.71677 4.98112 8.97065C4.95286 9.22454 4.80286 9.37732 4.55177 9.38565C4.19905 9.39788 3.84525 9.38899 3.49253 9.38899L3.49362 9.39121Z" fill="#29F1FB"/>
<path d="M9.44092 20.0042C9.13331 20.0042 8.8257 20.0098 8.51701 20.0042C8.22462 19.9976 8.02788 19.8281 7.99799 19.5781C7.98664 19.4466 8.02661 19.3159 8.10918 19.2145C8.19175 19.113 8.31022 19.049 8.43875 19.0365C9.09676 18.9836 9.75777 18.9827 10.4159 19.0337C10.478 19.0364 10.5389 19.052 10.5949 19.0796C10.6509 19.1073 10.7007 19.1463 10.7414 19.1943C10.7821 19.2423 10.8128 19.2983 10.8316 19.3588C10.8504 19.4194 10.8569 19.4832 10.8507 19.5465C10.8306 19.8242 10.6393 19.9942 10.3371 20.0065H9.44092V20.0042Z" fill="#29F1FB"/>
</g>
<defs>
<clipPath id="clip0_5150_14316">
<rect width="20" height="15" fill="white" transform="translate(2 5)"/>
</clipPath>
</defs>
</svg>
