<svg width="24" height="24" viewBox="0 0 24 24" fill="none" xmlns="http://www.w3.org/2000/svg">
<path d="M2.01753 8.6289C2.01753 8.65181 2.0161 8.67519 2.01562 8.69809C2.0161 8.721 2.01753 8.74438 2.01753 8.76729C2.01753 10.5339 2.01753 12.3004 2.01753 14.067C2.01753 14.0899 2.01658 14.1133 2.0161 14.1362C2.0204 14.1348 2.02517 14.1333 2.02994 14.1324C2.02994 13.1694 2.03042 12.2064 2.03042 11.2439C2.03042 10.4327 2.03042 9.62098 2.03042 8.80976C2.03042 8.70525 2.03089 8.7043 2.13063 8.72959C2.40883 8.79974 2.68131 8.88706 2.94758 8.99443C3.02012 9.02402 3.02393 9.02354 3.04875 8.94576C3.15993 8.59788 3.31645 8.26957 3.48586 7.94699C3.55839 7.80908 3.63903 7.67499 3.72398 7.54376C3.73256 7.5304 3.74068 7.518 3.75547 7.51131C3.79031 7.42781 3.84805 7.35909 3.89863 7.2856C4.01029 7.12336 4.13293 6.96922 4.26034 6.81938C4.33144 6.73588 4.4035 6.65189 4.48319 6.57554C4.59438 6.46865 4.69984 6.35651 4.8115 6.25009C4.87783 6.18663 4.95036 6.12936 5.01955 6.06924C5.04246 6.0492 5.06727 6.03011 5.08159 6.00195C4.05944 6.00195 3.03777 6.00195 2.01562 6.00195C2.01658 6.02486 2.01801 6.04776 2.01801 6.07115C2.01753 6.92341 2.01753 7.77616 2.01753 8.6289Z" fill="#FAA21D"/>
<path d="M5.03773 6.07544C4.8774 6.20381 4.73615 6.35269 4.58965 6.49585C4.29331 6.78598 4.03754 7.10856 3.80801 7.45262C3.79321 7.47457 3.7789 7.497 3.76172 7.51704C3.7622 7.51752 3.76315 7.51847 3.7641 7.51895C3.76506 7.518 3.76649 7.51704 3.76745 7.51609C3.81421 7.49604 3.86336 7.50273 3.91203 7.50273C5.14176 7.50225 6.37149 7.50225 7.60121 7.50225C7.75344 7.50225 7.75344 7.50225 7.75344 7.35193C7.75344 6.94393 7.75344 6.53546 7.75391 6.12746C7.75391 6.08451 7.74676 6.03917 7.77873 6.00195C6.88017 6.00195 5.98114 6.00195 5.08259 6.00195C5.0907 6.04013 5.06064 6.05731 5.03773 6.07544Z" fill="#EC7324"/>
<path d="M7.75348 6.12646C7.753 6.53446 7.753 6.94293 7.753 7.35093C7.753 7.50125 7.753 7.50125 7.60078 7.50125C6.37105 7.50125 5.14133 7.50125 3.9116 7.50173C3.8634 7.50173 3.81378 7.49505 3.76701 7.51509C3.76558 7.51604 3.76463 7.517 3.76367 7.51795C3.76654 7.52034 3.76892 7.5232 3.77178 7.52559C3.79994 7.52654 3.82809 7.52893 3.85625 7.52893C5.1294 7.52893 6.40255 7.52893 7.6757 7.52893C7.69383 7.52893 7.71197 7.52749 7.72962 7.52893C7.7678 7.53227 7.77973 7.51413 7.77686 7.47882C7.77543 7.46116 7.77686 7.44303 7.77686 7.4249C7.77734 6.95009 7.77782 6.47528 7.77782 6C7.74632 6.03818 7.75348 6.08351 7.75348 6.12646Z" fill="#EC7324"/>
<path d="M5.01994 6.06824C4.95075 6.12884 4.87822 6.18563 4.81189 6.24909C4.7007 6.35551 4.59476 6.46765 4.48358 6.57454C4.40389 6.65089 4.33183 6.73488 4.26073 6.81839C4.13332 6.96822 4.01068 7.12236 3.89902 7.2846C3.84843 7.35809 3.79069 7.42681 3.75586 7.51032C3.75777 7.51222 3.75968 7.51413 3.76159 7.51557C3.77876 7.49552 3.79308 7.47309 3.80787 7.45114C4.0374 7.10709 4.29366 6.78451 4.58952 6.49437C4.73601 6.35121 4.87726 6.20233 5.0376 6.07397C5.06003 6.05583 5.09009 6.03865 5.0815 6C5.06766 6.02959 5.04285 6.0482 5.01994 6.06824Z" fill="#EC7324"/>
<path d="M2.01514 14.1367C2.01465 14.1367 2.01416 14.1372 2.01367 14.1377C2.01465 14.1392 2.01564 14.1402 2.01711 14.1416C2.0176 14.1416 2.01809 14.1416 2.01858 14.1416C2.0176 14.1397 2.01613 14.1382 2.01514 14.1367Z" fill="#FAF9F8"/>
<path d="M2.01394 14.1376C2.01349 14.1372 2.01349 14.1372 2.01304 14.1367C2.00855 14.1372 2.0045 14.1372 2 14.1376C2.00495 14.1421 2.00944 14.1421 2.01394 14.1376Z" fill="#FAF9F8"/>
<path d="M2.01367 14.1352C2.01408 14.1356 2.01408 14.1356 2.0145 14.136C2.01491 14.1356 2.01532 14.1352 2.01573 14.1348C2.01491 14.1352 2.0145 14.1352 2.01367 14.1352Z" fill="#FAF9F8"/>
<path d="M14.3306 16.6253C14.3306 16.61 14.3301 16.5943 14.3306 16.579C14.3306 16.5604 14.3215 16.5509 14.3029 16.5509C14.2848 16.5509 14.2671 16.5509 14.249 16.5509C13.882 16.5509 13.515 16.5509 13.1476 16.5509C13.1323 16.5509 13.1166 16.5513 13.1013 16.5509C13.076 16.5499 13.0641 16.5609 13.0641 16.5871C13.0651 16.664 13.0646 16.7413 13.0641 16.8181C13.0641 16.8405 13.0736 16.851 13.0961 16.8505C13.1142 16.8501 13.1319 16.8505 13.15 16.8505C13.412 16.8505 13.6735 16.8505 13.9355 16.8505C13.9899 16.8505 13.9913 16.8515 13.9913 16.9054C13.9918 17.0543 13.9903 17.2032 13.9922 17.3521C13.9927 17.3893 13.9798 17.4141 13.9522 17.4375C13.8748 17.5024 13.7904 17.5549 13.6988 17.5964C13.1805 17.8326 12.5788 17.6198 12.3426 17.1092C12.1856 16.7694 12.1832 16.422 12.3383 16.0808C12.6208 15.459 13.442 15.2954 13.9464 15.7559C13.9765 15.7835 14.0032 15.815 14.0314 15.8451C14.0428 15.8575 14.0528 15.8656 14.0705 15.8542C14.1507 15.8012 14.2366 15.7573 14.3163 15.6957C14.1621 15.5063 13.9817 15.3627 13.7579 15.2772C13.5117 15.1832 13.2574 15.1684 13.0002 15.2152C12.5797 15.292 12.2548 15.5115 12.0486 15.8895C11.8759 16.2059 11.8382 16.547 11.9083 16.8978C11.9947 17.3292 12.2338 17.6494 12.6294 17.8498C12.7472 17.9094 12.8737 17.9419 13.0002 17.9739C13.0002 17.9786 13.0002 17.9839 13.0002 17.9886C13.0102 17.9886 13.0207 17.9886 13.0312 17.9886C13.0412 17.9886 13.0517 17.9886 13.0622 17.9886C13.0727 17.9886 13.0827 17.9886 13.0932 17.9886C13.1137 17.9886 13.1342 17.9886 13.1548 17.9886C13.2473 17.9886 13.3399 17.9886 13.432 17.9886C13.4473 17.9886 13.463 17.9886 13.4783 17.9886C13.4936 17.9886 13.5093 17.9886 13.5246 17.9886C13.5241 17.9839 13.5246 17.9791 13.5251 17.9743C13.5451 17.9696 13.5647 17.9643 13.5847 17.9595C13.8553 17.9013 14.0877 17.773 14.2838 17.5778C14.3172 17.5449 14.3325 17.5119 14.3325 17.4637C14.3291 17.1846 14.3306 16.9049 14.3306 16.6253Z" fill="#231F20"/>
<path d="M3.76025 7.51758C3.75644 7.52187 3.75214 7.52664 3.74785 7.53094C3.69249 7.65596 3.61137 7.76572 3.54647 7.88549C3.36752 8.21523 3.2048 8.55261 3.08598 8.90955C3.08168 8.92196 3.07787 8.93389 3.0731 8.94582C3.04017 9.0298 3.01679 9.04173 2.93328 9.01119C2.7696 8.95107 2.60688 8.8876 2.43938 8.83893C2.33583 8.80886 2.23228 8.77928 2.12778 8.75255C2.07863 8.74015 2.05381 8.75351 2.05429 8.80695C2.05477 8.83511 2.05381 8.86326 2.05381 8.89142C2.05381 10.5907 2.05381 12.29 2.05333 13.9893C2.05333 14.0351 2.06001 14.0818 2.04188 14.1262C2.04045 14.1286 2.03902 14.131 2.03711 14.1324C2.05238 14.1343 2.06765 14.1367 2.08292 14.1367C2.51096 14.1367 2.939 14.1367 3.36705 14.1367C3.37086 14.1358 3.37468 14.1348 3.37802 14.1334C3.40045 14.1305 3.42288 14.1296 3.44531 14.1296C3.25013 13.7554 3.08884 13.367 2.96907 12.9628C2.89892 12.7257 2.83784 12.4856 2.79823 12.2404C2.7801 12.1273 2.75815 12.0146 2.74383 11.9011C2.73572 11.8357 2.73238 11.7679 2.72093 11.7035C2.69945 11.5866 2.72474 11.4678 2.69516 11.3523C2.69086 11.3351 2.69373 11.3165 2.69373 11.2984C2.69373 11.1829 2.69707 11.0669 2.69277 10.9519C2.688 10.8183 2.70184 10.6852 2.71234 10.5535C2.74813 10.1154 2.82161 9.68308 2.9495 9.26172C2.96811 9.20064 2.98577 9.13908 3.00486 9.078C3.01583 9.04173 3.03635 9.02933 3.07453 9.04746C3.12988 9.0737 3.18858 9.09327 3.24441 9.11904C3.63141 9.29894 3.99599 9.51654 4.34434 9.76229C4.46316 9.84628 4.57387 9.94124 4.68696 10.0329C4.88213 10.1913 5.06442 10.3636 5.24003 10.543C5.30445 10.6088 5.3579 10.6842 5.43234 10.7491C5.4018 10.7692 5.37364 10.7615 5.34787 10.7615C4.8473 10.762 4.34672 10.7615 3.84615 10.7625C3.81704 10.7625 3.78507 10.7515 3.7593 10.7749C3.75978 10.7754 3.75978 10.7759 3.76025 10.7759C3.77409 10.7759 3.78793 10.7759 3.80225 10.7759C3.82086 10.7716 3.84663 10.7706 3.88146 10.7706C5.12168 10.7706 6.36191 10.7701 7.60213 10.7706C7.69423 10.7706 7.68182 10.7759 7.68135 10.6876C7.67848 10.2409 7.68039 9.79379 7.67944 9.34714C7.67944 9.32996 7.68516 9.31087 7.68898 9.29321C7.69137 9.25885 7.67514 9.24502 7.63983 9.24883C7.6341 9.24931 7.6279 9.24931 7.62218 9.24931C7.60977 9.25456 7.59641 9.25886 7.584 9.25695C7.56396 9.25408 7.54296 9.25742 7.52244 9.25742C6.32087 9.25742 5.11882 9.25742 3.91725 9.2579C3.88385 9.2579 3.85187 9.25742 3.82324 9.24883C3.82277 9.24883 3.82181 9.24883 3.82133 9.24883C3.76216 9.24788 3.75453 9.24788 3.75596 9.19873C3.75166 9.19157 3.74737 9.18394 3.74403 9.17487C3.73114 9.13765 3.73305 9.099 3.73305 9.06082C3.73305 8.59031 3.73258 8.1198 3.73353 7.64881C3.73353 7.60395 3.72303 7.55432 3.76312 7.51853C3.76121 7.51853 3.76073 7.51806 3.76025 7.51758Z" fill="#EC7324"/>
<path d="M7.52147 9.25859C7.54198 9.25859 7.56298 9.25525 7.58302 9.25811C7.59591 9.26002 7.60879 9.25573 7.6212 9.25048C7.61165 9.25048 7.60211 9.25 7.59304 9.25C6.35091 9.25 5.10878 9.25 3.86664 9.25C3.85185 9.25 3.83706 9.25 3.82227 9.25C3.8509 9.25811 3.88287 9.25907 3.91627 9.25907C5.11832 9.25811 6.31989 9.25859 7.52147 9.25859Z" fill="#EC7324"/>
<path d="M3.73184 7.65028C3.73089 8.1208 3.73137 8.59131 3.73137 9.0623C3.73137 9.10047 3.72946 9.13912 3.74234 9.17634C3.74616 9.18541 3.74998 9.19305 3.75427 9.2002C3.75427 9.19305 3.75475 9.18493 3.75523 9.17539C3.75427 9.17014 3.75236 9.16537 3.75236 9.16012C3.75189 8.63378 3.75188 8.10743 3.75188 7.58061C3.75188 7.56057 3.74902 7.53862 3.77097 7.52573C3.76811 7.52335 3.76381 7.52192 3.76095 7.51953C3.72087 7.5558 3.73184 7.60543 3.73184 7.65028Z" fill="#EC7324"/>
<path d="M7.56011 10.7761C7.57013 10.7761 7.58063 10.7761 7.59112 10.7761C7.69754 10.7751 7.68704 10.7885 7.68752 10.683C7.68799 10.2364 7.68752 9.78973 7.68752 9.34307C7.68752 9.3278 7.68609 9.31206 7.68752 9.29679C7.68752 9.29535 7.68752 9.2944 7.68752 9.29297C7.6837 9.31062 7.67797 9.32971 7.67797 9.34689C7.67845 9.79354 7.67702 10.2407 7.67988 10.6873C7.68036 10.7756 7.69277 10.7704 7.60067 10.7704C6.36044 10.7694 5.12022 10.7699 3.87999 10.7704C3.84516 10.7704 3.81939 10.7713 3.80078 10.7756C4.58433 10.7756 5.36788 10.7756 6.15096 10.7756C6.62051 10.7761 7.09007 10.7761 7.56011 10.7761Z" fill="#EC7324"/>
<path d="M3.44783 14.1361C3.44688 14.1342 3.44592 14.1328 3.44545 14.1309C3.42302 14.1309 3.40059 14.1318 3.37816 14.1347C3.37435 14.1361 3.37053 14.1371 3.36719 14.138C3.38389 14.138 3.40107 14.138 3.41777 14.138C3.42731 14.138 3.43781 14.1366 3.44783 14.1361Z" fill="#EC7324"/>
<path d="M2.04223 14.126C2.06036 14.0817 2.05368 14.0349 2.05368 13.9891C2.05416 12.2898 2.05416 10.5905 2.05416 8.89124C2.05416 8.86309 2.05463 8.83493 2.05463 8.80678C2.05368 8.75381 2.07897 8.73997 2.12812 8.75238C2.23263 8.77862 2.33618 8.80821 2.43973 8.83875C2.6077 8.8879 2.76994 8.95089 2.93362 9.01101C3.01713 9.04155 3.04099 9.02962 3.07344 8.94564C3.07821 8.93371 3.08203 8.9213 3.08632 8.90937C3.20514 8.55243 3.36787 8.21553 3.54681 7.88532C3.61171 7.76602 3.69284 7.65579 3.74819 7.53076C3.75248 7.52647 3.7563 7.52217 3.7606 7.5174C3.75869 7.51549 3.75726 7.51311 3.75678 7.50977C3.74199 7.51645 3.73387 7.52933 3.72528 7.54221C3.63987 7.67297 3.5597 7.80706 3.48717 7.94544C3.31776 8.26755 3.16124 8.59633 3.05006 8.94421C3.02524 9.02247 3.02143 9.02247 2.94889 8.99288C2.68262 8.88551 2.41014 8.79819 2.13194 8.72804C2.03173 8.70275 2.03173 8.7037 2.03173 8.80821C2.03173 9.61944 2.03173 10.4311 2.03173 11.2424C2.03173 12.2053 2.03125 13.1683 2.03125 14.1308C2.03364 14.1308 2.03602 14.1313 2.03841 14.1318C2.03889 14.1303 2.04079 14.1284 2.04223 14.126Z" fill="#EC7324"/>
<path d="M3.76222 7.51955C3.76271 7.51906 3.76369 7.51857 3.76418 7.51759C3.76369 7.5171 3.76271 7.51612 3.76173 7.51562C3.76124 7.51612 3.76026 7.5171 3.75977 7.51808C3.76075 7.51857 3.76124 7.51906 3.76222 7.51955Z" fill="#EC7324"/>
<path d="M3.76172 7.51893C3.76487 7.52118 3.76846 7.52253 3.77116 7.52477C3.76846 7.52253 3.76622 7.51983 3.76352 7.51758C3.76262 7.51803 3.76217 7.51848 3.76172 7.51893Z" fill="#EC7324"/>
<path d="M3.76126 7.51667C3.75946 7.51487 3.75766 7.51307 3.75586 7.51172C3.75631 7.51487 3.75766 7.51712 3.75946 7.51891C3.76036 7.51802 3.76081 7.51711 3.76126 7.51667Z" fill="#EC7324"/>
<path d="M6.77407 15.8925C6.61899 15.569 6.35701 15.3576 6.01343 15.2516C5.83209 15.1958 5.64599 15.1805 5.4575 15.1987C5.01657 15.2406 4.66727 15.4406 4.45014 15.8295C4.18864 16.2981 4.18339 16.7863 4.40624 17.2716C4.54606 17.5765 4.7837 17.785 5.09865 17.9043C5.18788 17.9382 5.28046 17.9578 5.37351 17.9759C5.37494 17.9759 5.3759 17.9759 5.37733 17.9759C5.3864 17.9759 5.39546 17.9759 5.40453 17.9759C5.40596 17.9759 5.40692 17.9759 5.40835 17.9759C5.41741 17.9759 5.426 17.9759 5.43507 17.9759C5.4365 17.9759 5.43793 17.9759 5.43936 17.9759C5.44795 17.9754 5.45702 17.9754 5.46561 17.975C5.55389 17.975 5.64217 17.9754 5.73093 17.9754C5.73093 17.9759 5.73093 17.9759 5.73093 17.9764C5.73093 17.9759 5.73093 17.9759 5.73093 17.9754C5.74572 17.9754 5.76099 17.9754 5.77579 17.9754C5.77626 17.9754 5.77722 17.9754 5.7777 17.9754C5.78724 17.9754 5.79678 17.9754 5.80585 17.9754C5.8068 17.9754 5.80776 17.9754 5.80824 17.9754C5.81635 17.975 5.82446 17.975 5.83257 17.9745C5.83353 17.9745 5.83496 17.9745 5.83591 17.9745C5.85596 17.9697 5.87552 17.964 5.89556 17.9597C6.26443 17.8805 6.55504 17.6848 6.73733 17.3551C7.00217 16.8769 7.00885 16.3826 6.77407 15.8925ZM5.65028 17.6877C5.11631 17.6882 4.74457 17.3871 4.63864 16.9027C4.57087 16.5935 4.59044 16.289 4.73885 16.0042C4.91207 15.6715 5.19457 15.5093 5.56582 15.4945C5.68464 15.4897 5.80155 15.5055 5.91465 15.5427C6.18379 15.6319 6.37323 15.8118 6.48203 16.071C6.62471 16.4102 6.62948 16.7572 6.4868 17.096C6.32265 17.4858 6.01629 17.6762 5.65028 17.6877Z" fill="#231F20"/>
<path d="M17.4753 15.4265C17.4753 15.3874 17.4777 15.3482 17.4648 15.3105C17.4648 15.3129 17.4648 15.3148 17.4648 15.3172C17.4648 16.1666 17.4648 17.016 17.4648 17.8659C17.4648 17.8731 17.4648 17.8793 17.4648 17.885C17.4725 17.8526 17.4758 17.8192 17.4758 17.7838C17.4753 16.9984 17.4758 16.2124 17.4753 15.4265Z" fill="#EC7324"/>
<path d="M17.7999 15.6219C17.7999 15.6133 17.7999 15.6047 17.7999 15.5956C17.7999 15.5889 17.7999 15.5822 17.7999 15.5756C17.7999 15.5508 17.8109 15.5374 17.8371 15.5379C17.8577 15.5383 17.8782 15.5379 17.8987 15.5379C18.3091 15.5379 18.7199 15.5379 19.1303 15.5379C19.1432 15.5379 19.1561 15.5379 19.169 15.5379C19.2358 15.5369 19.2358 15.5369 19.2372 15.4692C19.2387 15.4057 19.2396 15.3427 19.241 15.2792C19.241 15.2783 19.241 15.2778 19.241 15.2768C19.2391 15.2506 19.2272 15.2406 19.211 15.2368C19.2 15.2344 19.1871 15.2344 19.1742 15.2344C18.625 15.2349 18.0757 15.2344 17.527 15.2344C17.5193 15.2344 17.5117 15.2349 17.5041 15.2344C17.4936 15.2344 17.4854 15.2363 17.4797 15.2401C17.4707 15.2458 17.4664 15.2558 17.4668 15.2711C17.4668 15.2845 17.4668 15.2974 17.4668 15.3107C17.4797 15.3484 17.4773 15.3876 17.4773 15.4267C17.4778 16.2126 17.4773 16.9981 17.4783 17.784C17.4783 17.8189 17.4749 17.8527 17.4673 17.8852C17.4678 17.941 17.4745 17.941 17.5427 17.9415C17.548 17.9415 17.5527 17.9415 17.558 17.9415C18.0867 17.9415 18.6154 17.9415 19.1437 17.9415C19.159 17.9415 19.1747 17.9405 19.19 17.9415C19.221 17.9439 19.2386 17.9334 19.2382 17.899C19.2372 17.8246 19.2377 17.7501 19.2382 17.6757C19.2382 17.6628 19.2353 17.6528 19.2286 17.6447C19.2239 17.6447 19.2186 17.6456 19.2124 17.6466C19.2124 17.6418 19.2124 17.6375 19.2124 17.6327C19.1995 17.6337 19.1871 17.6356 19.1742 17.6356C18.7386 17.6356 18.3034 17.6356 17.8677 17.6356C17.8577 17.6356 17.8472 17.6351 17.8371 17.6356C17.8109 17.6366 17.8004 17.6232 17.8013 17.5979C17.8018 17.585 17.8013 17.5721 17.8013 17.5593C17.8013 17.303 17.8013 17.0468 17.8013 16.791C17.8013 16.7686 17.7956 16.7447 17.809 16.7237C17.8305 16.6946 17.861 16.7094 17.8872 16.7094C18.29 16.7084 18.6932 16.7084 19.096 16.7084C19.1089 16.7084 19.1217 16.7084 19.1346 16.7084C19.2095 16.7079 19.21 16.7079 19.21 16.6326C19.21 16.5762 19.211 16.5195 19.21 16.4631C19.21 16.4507 19.2095 16.4417 19.2091 16.434C19.2062 16.4054 19.1957 16.4049 19.1485 16.404C19.1332 16.4035 19.1174 16.404 19.1022 16.404C18.6966 16.404 18.2909 16.404 17.8858 16.404C17.8056 16.404 17.8013 16.4102 17.8013 16.3424C17.8013 16.3362 17.8013 16.3291 17.8013 16.3214C17.7999 16.089 17.7999 15.8552 17.7999 15.6219Z" fill="#EC7324"/>
<path d="M19.2262 17.6456C19.2226 17.6411 19.2172 17.6375 19.2109 17.6348C19.2109 17.6393 19.2109 17.6433 19.2109 17.6478C19.2168 17.6465 19.2217 17.646 19.2262 17.6456Z" fill="#EC7324"/>
<path d="M21.7002 17.0627C21.674 16.877 21.5756 16.7344 21.4234 16.6275C21.2917 16.5344 21.1428 16.4795 20.9906 16.4323C20.8145 16.3774 20.6337 16.3383 20.4595 16.2767C20.3746 16.2467 20.2925 16.2114 20.2219 16.1531C20.155 16.0983 20.1154 16.0286 20.1121 15.9413C20.1083 15.8396 20.1383 15.749 20.2066 15.6721C20.2753 15.5943 20.3621 15.5438 20.4624 15.5242C20.8112 15.4545 21.1233 15.5304 21.3924 15.768C21.4105 15.7843 21.4215 15.811 21.4535 15.8124C21.5084 15.7456 21.5623 15.6769 21.62 15.6115C21.6467 15.5815 21.6444 15.5629 21.6157 15.5366C21.5246 15.4521 21.4258 15.3796 21.3137 15.3266C21.0631 15.2078 20.7978 15.1758 20.5253 15.2059C20.333 15.2269 20.1584 15.2947 20.0057 15.4183C19.6826 15.6798 19.6359 16.2796 20.115 16.522C20.2047 16.5673 20.2972 16.6041 20.3922 16.6356C20.5774 16.6962 20.7687 16.7358 20.9529 16.8007C21.0503 16.835 21.1443 16.8742 21.2254 16.9405C21.3266 17.0235 21.369 17.1309 21.3576 17.2607C21.3456 17.3919 21.2827 17.4936 21.1772 17.569C21.1075 17.6191 21.0288 17.6506 20.9448 17.6658C20.5592 17.735 20.2242 17.6315 19.9384 17.3657C19.9184 17.3471 19.8988 17.3275 19.874 17.3041C19.8158 17.3786 19.7623 17.4501 19.7055 17.5189C19.6812 17.5484 19.6807 17.5694 19.7089 17.5966C19.7824 17.6687 19.8606 17.7346 19.9484 17.789C20.1102 17.8892 20.2882 17.944 20.4743 17.9755C20.4752 17.9746 20.4762 17.9736 20.4772 17.9727C20.4853 17.9655 20.4943 17.965 20.5043 17.9693C20.5058 17.9708 20.5067 17.9717 20.5072 17.9732C20.5148 17.9655 20.5244 17.965 20.5349 17.9693C20.5363 17.9703 20.5368 17.9717 20.5378 17.9732C20.5454 17.9655 20.5549 17.9655 20.5654 17.9693C20.5669 17.9708 20.5678 17.9722 20.5688 17.9732C20.5778 17.966 20.5869 17.9665 20.5964 17.9736C20.5979 17.9703 20.6003 17.9674 20.6036 17.965C20.6666 17.944 20.7291 17.944 20.7921 17.965C20.7959 17.9674 20.7983 17.9708 20.7993 17.9736C20.816 17.9555 20.8355 17.9569 20.856 17.9665C20.8589 17.9689 20.8608 17.9712 20.8618 17.9741C20.8699 17.965 20.8794 17.9646 20.8904 17.9693C20.8918 17.9708 20.8928 17.9722 20.8933 17.9736C20.9019 17.966 20.9104 17.9655 20.9195 17.9727C20.9205 17.9708 20.9219 17.9689 20.9243 17.9669C20.9391 17.9598 20.9534 17.9593 20.9653 17.9708C20.9663 17.9717 20.9672 17.9722 20.9677 17.9732C21.0703 17.9502 21.1724 17.9269 21.2688 17.883C21.5809 17.7422 21.7541 17.442 21.7002 17.0627Z" fill="#231F20"/>
<path d="M20.7914 17.965C20.7284 17.944 20.6654 17.944 20.6029 17.965C20.599 17.9674 20.5967 17.9702 20.5957 17.9736C20.5957 17.9736 20.5962 17.9736 20.5962 17.974C20.6635 17.974 20.7307 17.974 20.798 17.9745L20.7985 17.974C20.7976 17.9702 20.7952 17.9674 20.7914 17.965Z" fill="#231F20"/>
<path d="M20.8556 17.968C20.8351 17.958 20.816 17.9571 20.7988 17.9752C20.7988 17.9752 20.7988 17.9757 20.7993 17.9762C20.8198 17.9762 20.8403 17.9766 20.8604 17.9766C20.8604 17.9762 20.8609 17.9762 20.8613 17.9757C20.8604 17.9728 20.8585 17.9704 20.8556 17.968Z" fill="#231F20"/>
<path d="M20.7988 17.9759C20.7995 17.9759 20.7995 17.9759 20.8002 17.9759C20.8002 17.9759 20.8002 17.9753 20.7995 17.9746C20.7995 17.9753 20.7995 17.9753 20.7988 17.9759Z" fill="#231F20"/>
<path d="M20.9227 17.9682C20.9208 17.9701 20.9194 17.972 20.918 17.9739C20.9189 17.9748 20.9199 17.9753 20.9208 17.9763C20.9347 17.9758 20.949 17.9753 20.9628 17.9749C20.9628 17.9739 20.9633 17.9729 20.9638 17.9725C20.9518 17.9605 20.938 17.9605 20.9227 17.9682Z" fill="#231F20"/>
<path d="M20.9629 17.9751C20.9639 17.9751 20.9653 17.9751 20.9663 17.9751C20.9653 17.9741 20.9644 17.9731 20.9639 17.9727C20.9634 17.9736 20.9629 17.9741 20.9629 17.9751Z" fill="#231F20"/>
<path d="M20.5018 17.9695C20.4918 17.9652 20.4822 17.9657 20.4746 17.9729C20.4751 17.9738 20.4756 17.9748 20.4756 17.9757C20.4846 17.9757 20.4937 17.9757 20.5028 17.9757C20.5037 17.9748 20.5042 17.9738 20.5052 17.9734C20.5042 17.9719 20.5032 17.9705 20.5018 17.9695Z" fill="#231F20"/>
<path d="M20.4756 17.9727C20.4746 17.9736 20.4736 17.9746 20.4727 17.9756C20.4741 17.9756 20.4751 17.9756 20.4766 17.9756C20.4766 17.9746 20.4761 17.9736 20.4756 17.9727Z" fill="#231F20"/>
<path d="M20.5335 17.9695C20.523 17.9652 20.5135 17.9657 20.5059 17.9733C20.5063 17.9743 20.5068 17.9752 20.5073 17.9757C20.5164 17.9757 20.5249 17.9757 20.534 17.9757C20.535 17.9748 20.5359 17.9738 20.5369 17.9728C20.5354 17.9719 20.5345 17.9705 20.5335 17.9695Z" fill="#231F20"/>
<path d="M20.5039 17.9771C20.5054 17.9771 20.5064 17.9771 20.5078 17.9771C20.5073 17.9761 20.5069 17.9751 20.5064 17.9746C20.5054 17.9751 20.5044 17.9761 20.5039 17.9771Z" fill="#231F20"/>
<path d="M20.5648 17.9695C20.5543 17.9652 20.5452 17.9657 20.5371 17.9733C20.5376 17.9743 20.5381 17.9752 20.5385 17.9762C20.5476 17.9762 20.5562 17.9762 20.5653 17.9762C20.5662 17.9752 20.5672 17.9743 20.5681 17.9738C20.5672 17.9724 20.5662 17.9709 20.5648 17.9695Z" fill="#231F20"/>
<path d="M20.5332 17.9756C20.5347 17.9756 20.5361 17.9756 20.5376 17.9756C20.5371 17.9746 20.5366 17.9736 20.5361 17.9727C20.5352 17.9736 20.5342 17.9746 20.5332 17.9756Z" fill="#231F20"/>
<path d="M20.5664 17.974C20.5669 17.975 20.5674 17.9755 20.5678 17.9764C20.5764 17.9759 20.5855 17.9755 20.5941 17.9755V17.975C20.585 17.9673 20.5755 17.9664 20.5664 17.974Z" fill="#231F20"/>
<path d="M20.5645 17.9771C20.5659 17.9771 20.5669 17.9771 20.5684 17.9771C20.5679 17.9761 20.5674 17.9756 20.5669 17.9746C20.5664 17.9751 20.5654 17.9761 20.5645 17.9771Z" fill="#231F20"/>
<path d="M20.89 17.9698C20.8795 17.965 20.8694 17.9655 20.8613 17.9746C20.8613 17.975 20.8613 17.975 20.8613 17.9755C20.8713 17.9755 20.8809 17.976 20.8909 17.976C20.8914 17.9755 20.8919 17.975 20.8928 17.9746C20.8923 17.9727 20.8914 17.9712 20.89 17.9698Z" fill="#231F20"/>
<path d="M20.8613 17.9759C20.862 17.9759 20.862 17.9759 20.8627 17.9759C20.8627 17.9753 20.8627 17.9753 20.8627 17.9746C20.862 17.9753 20.8613 17.9753 20.8613 17.9759Z" fill="#231F20"/>
<path d="M20.8926 17.9748C20.8926 17.9753 20.8931 17.9757 20.8931 17.9762C20.9012 17.9762 20.9093 17.9762 20.9174 17.9762C20.9174 17.9753 20.9179 17.9748 20.9183 17.9738C20.9102 17.9667 20.9012 17.9672 20.8926 17.9748Z" fill="#231F20"/>
<path d="M20.918 17.9771C20.9194 17.9771 20.9204 17.9771 20.9219 17.9771C20.9209 17.9761 20.9199 17.9751 20.9189 17.9746C20.9185 17.9756 20.918 17.9766 20.918 17.9771Z" fill="#231F20"/>
<path d="M20.8887 17.9758C20.8895 17.9758 20.8899 17.9758 20.8907 17.9758C20.8907 17.9754 20.8903 17.975 20.8903 17.9746C20.8899 17.975 20.8895 17.9754 20.8887 17.9758Z" fill="#231F20"/>
<path d="M8.87997 16.5605C8.77737 16.507 8.66905 16.4679 8.55834 16.4336C8.38464 16.3796 8.20617 16.341 8.03438 16.2804C7.94944 16.2503 7.86689 16.216 7.79531 16.1597C7.7075 16.0905 7.66933 16.0007 7.6803 15.8896C7.69032 15.7846 7.73709 15.6992 7.81726 15.6314C7.87882 15.5789 7.94944 15.5412 8.02865 15.5255C8.37128 15.4572 8.67955 15.5293 8.94773 15.7588C8.97016 15.7784 8.98733 15.8051 9.01835 15.8175C9.07371 15.7502 9.12763 15.6848 9.18108 15.6195C9.2183 15.5737 9.2183 15.5732 9.17773 15.5341C9.08611 15.4467 8.98304 15.3756 8.86804 15.3217C8.6638 15.2263 8.44763 15.1933 8.22383 15.1976C8.04679 15.201 7.87786 15.2372 7.72039 15.3203C7.41594 15.4811 7.27087 15.7879 7.34531 16.1129C7.38588 16.2894 7.49563 16.4126 7.64785 16.5028C7.77479 16.5782 7.91317 16.6235 8.05347 16.6655C8.22287 16.7161 8.39609 16.7542 8.56168 16.8167C8.64614 16.8487 8.72726 16.8864 8.79693 16.9451C8.89428 17.0277 8.93532 17.1331 8.92387 17.2601C8.91146 17.3942 8.84752 17.4977 8.73824 17.5736C8.67 17.6208 8.59413 17.6518 8.51205 17.6666C8.12648 17.7363 7.79149 17.6323 7.5047 17.3679C7.48418 17.3493 7.46891 17.325 7.43694 17.3087C7.38254 17.3789 7.32909 17.4505 7.27183 17.5187C7.24319 17.5531 7.25131 17.5741 7.27898 17.6022C7.36536 17.6876 7.46032 17.7611 7.56625 17.8203C7.71371 17.9024 7.87357 17.9477 8.03868 17.9758C8.04011 17.9758 8.04106 17.9758 8.04249 17.9758C8.05633 17.9763 8.07065 17.9763 8.08449 17.9768C8.08592 17.9768 8.08687 17.9768 8.0883 17.9768C8.09737 17.9768 8.10644 17.9768 8.11503 17.9768C8.11646 17.9768 8.11741 17.9768 8.11884 17.9768C8.12791 17.9763 8.1365 17.9758 8.14557 17.9754H8.14604C8.21858 17.9754 8.29111 17.9758 8.36364 17.9758C8.36412 17.9758 8.36412 17.9758 8.3646 17.9758C8.38512 17.9763 8.40564 17.9768 8.42663 17.9768H8.42711C8.44095 17.9768 8.45431 17.9768 8.46815 17.9768C8.46958 17.9768 8.47101 17.9768 8.47244 17.9768C8.48628 17.9768 8.50012 17.9763 8.51444 17.9763C8.51587 17.9763 8.51682 17.9763 8.51825 17.9763C8.6323 17.9568 8.74492 17.931 8.84895 17.879C9.11856 17.7449 9.26268 17.5278 9.27556 17.2257C9.2894 16.9174 9.14863 16.7008 8.87997 16.5605Z" fill="#231F20"/>
<path d="M3.94027 15.9706C3.9145 15.5688 3.59335 15.2581 3.19012 15.2438C3.15862 15.2281 3.12474 15.2343 3.09182 15.2338C2.85322 15.2333 2.61462 15.2338 2.37651 15.2333C2.251 15.2333 2.1255 15.2314 2 15.2305C2 16.1343 2 17.0386 2 17.9424C2.10212 17.9428 2.20424 17.9424 2.30636 17.9438C2.33881 17.9443 2.35408 17.9328 2.35121 17.8994C2.34978 17.8818 2.35121 17.8636 2.35121 17.846C2.35121 17.5496 2.35121 17.2533 2.35121 16.957C2.35121 16.9264 2.3474 16.8954 2.35789 16.8658C2.62751 16.8653 2.89712 16.8706 3.16626 16.8634C3.53608 16.8534 3.82574 16.6191 3.91736 16.2684C3.94361 16.1701 3.94695 16.0703 3.94027 15.9706ZM3.13667 16.559C3.11377 16.5618 3.09086 16.5642 3.06748 16.5642C2.84702 16.5647 2.62608 16.5647 2.40561 16.5642C2.35121 16.5642 2.34978 16.5628 2.34931 16.5089C2.34883 16.3547 2.34931 16.2011 2.34931 16.0469C2.34931 15.8957 2.34883 15.7439 2.34931 15.5927C2.34931 15.5392 2.35074 15.5378 2.40466 15.5378C2.63276 15.5378 2.86133 15.534 3.08943 15.5402C3.27458 15.5449 3.42776 15.6199 3.52463 15.7854C3.67399 16.0398 3.59907 16.5036 3.13667 16.559Z" fill="#231F20"/>
<path d="M11.7008 15.4893C11.698 15.4201 11.6985 15.3509 11.7008 15.2812C11.7023 15.2421 11.6841 15.2316 11.6498 15.235C11.6398 15.2359 11.6293 15.235 11.6188 15.235C10.9898 15.235 10.3609 15.235 9.73194 15.235C9.71667 15.235 9.70093 15.2359 9.68566 15.235C9.65607 15.233 9.64462 15.2459 9.64509 15.2755C9.64653 15.3476 9.64748 15.4192 9.64462 15.4912C9.64319 15.5303 9.65941 15.5389 9.69472 15.5384C9.8102 15.537 9.92568 15.538 10.0412 15.538C10.1748 15.538 10.3079 15.5375 10.4415 15.538C10.5026 15.538 10.5026 15.5389 10.5031 15.6019C10.5031 15.6172 10.5031 15.6329 10.5031 15.6482C10.5031 16.0104 10.5031 16.3721 10.5031 16.7343C10.5031 16.9242 10.5031 17.1141 10.5031 17.3041C10.5031 17.4992 10.504 17.6944 10.5026 17.8896C10.5021 17.9282 10.5117 17.9449 10.5537 17.9425C10.6205 17.9392 10.6873 17.9421 10.7536 17.9416C10.8491 17.9411 10.84 17.9521 10.84 17.8552C10.84 17.2778 10.84 16.6999 10.84 16.1225C10.84 15.9531 10.84 15.7837 10.84 15.6143C10.84 15.5303 10.8347 15.5384 10.913 15.5384C11.0313 15.5384 11.1492 15.5384 11.2671 15.5384C11.3931 15.5384 11.5186 15.5375 11.6445 15.5389C11.6822 15.5394 11.7028 15.5332 11.7008 15.4893Z" fill="#231F20"/>
<path d="M3.80202 12.6134C3.80488 12.6134 3.80775 12.6129 3.81061 12.6129C3.77387 12.6072 3.76003 12.5924 3.75478 12.5547C3.75478 12.5576 3.75478 12.5604 3.7543 12.5633C3.75144 12.5986 3.76384 12.6167 3.80202 12.6134Z" fill="#FAF9F8"/>
<path d="M7.70247 14.1376C7.72108 14.1405 7.74065 14.1481 7.75687 14.1348C7.73635 14.1357 7.71583 14.1367 7.69531 14.1372C7.69818 14.1372 7.70008 14.1372 7.70247 14.1376Z" fill="#F7CEAF"/>
<path d="M2.0204 14.1409C2.02517 14.1404 2.02946 14.139 2.03328 14.1366C2.03185 14.1352 2.0309 14.1342 2.02946 14.1328C2.02469 14.1338 2.0204 14.1352 2.01562 14.1366C2.01706 14.1385 2.01897 14.14 2.0204 14.1409Z" fill="#F7CEAF"/>
<path d="M2.01562 14.1367C2.0171 14.1382 2.01808 14.1397 2.01955 14.1416C2.02004 14.1416 2.02004 14.1416 2.02053 14.1416C2.01857 14.1402 2.01661 14.1387 2.01562 14.1367Z" fill="#F7CEAF"/>
<path d="M2.03604 14.1337C2.03379 14.1333 2.03155 14.1333 2.0293 14.1328C2.03065 14.1342 2.03155 14.1351 2.03289 14.1364C2.03379 14.1355 2.03469 14.1346 2.03604 14.1337Z" fill="#F7CEAF"/>
<path d="M21.6074 10.864C21.334 10.3945 20.9427 10.0752 20.402 9.95784C20.391 9.95545 20.3829 9.95163 20.3834 9.9378C20.4049 9.93159 20.4268 9.92443 20.4488 9.91823C20.8854 9.79225 21.2204 9.53218 21.4557 9.1447C21.6298 8.85791 21.7143 8.54248 21.731 8.2094C21.7572 7.69022 21.6274 7.21732 21.3006 6.80693C21.0152 6.44904 20.6397 6.22953 20.2025 6.10737C20.0389 6.06156 19.8714 6.03865 19.7039 6.01479C19.7039 6.01002 19.7039 6.00525 19.7039 6.00048C19.6939 6.00048 19.6834 6.00048 19.6729 6.00048C19.6523 6.00048 19.6318 6.00048 19.6113 6.00048C19.6013 6.00048 19.5908 6.00048 19.5803 6.00048C19.565 6.00048 19.5493 6.00048 19.534 6.00048C19.5135 6.00048 19.493 6.00048 19.4724 6.00048C18.0189 6.00048 16.5654 6.00048 15.1123 6.00048C15.0842 6.0334 15.0918 6.07349 15.0918 6.11119C15.0913 6.52921 15.0918 6.94723 15.0909 7.36525C15.0909 7.39197 15.1004 7.4206 15.078 7.45019C14.7019 6.99638 14.2434 6.65328 13.7108 6.41134C13.1778 6.1694 12.62 6.02529 12.032 6.00811C12.0316 6.00811 12.0311 6.00811 12.0306 6.00811C12.0306 6.00573 12.0306 6.00286 12.0306 6C12.0101 6 11.9896 6 11.9691 6C11.9485 6 11.928 6 11.9075 6C11.8922 6 11.8765 6 11.8612 6C11.8459 6 11.8302 6 11.8149 6C11.7892 6 11.7634 6 11.7381 6C10.6286 6 9.51963 6 8.41016 6C8.42399 6.03197 8.41684 6.06585 8.41684 6.09878C8.41731 8.74625 8.41731 11.3942 8.41731 14.0417C8.41731 14.1581 8.40395 14.1423 8.52086 14.1423C9.53251 14.1428 10.5442 14.1423 11.5558 14.1423C11.7381 14.1423 11.9199 14.1385 12.1022 14.1233C12.5107 14.0894 12.9101 14.013 13.298 13.8799C13.9981 13.6399 14.5979 13.2519 15.0713 12.6774C15.0804 12.6664 15.0866 12.6511 15.1123 12.6492C15.1123 12.6716 15.1123 12.6936 15.1123 12.7155C15.1123 13.1598 15.1123 13.6041 15.1123 14.0483C15.1123 14.0665 15.1138 14.0846 15.1119 14.1023C15.109 14.1333 15.1243 14.1433 15.1524 14.1419C15.1653 14.1414 15.1782 14.1419 15.1911 14.1419C16.647 14.1419 18.1029 14.1419 19.5588 14.1419C19.8556 14.1419 20.1472 14.1032 20.4306 14.0125C20.9398 13.8498 21.3426 13.5506 21.6103 13.0815C21.7677 12.8052 21.8508 12.506 21.8808 12.1901C21.9262 11.7201 21.8465 11.2739 21.6074 10.864ZM16.8455 7.57998C16.8455 7.48025 16.8388 7.49552 16.9333 7.49552C17.2902 7.49505 17.6467 7.49552 18.0036 7.49552C18.3401 7.49552 18.676 7.496 19.0124 7.49504C19.1312 7.49457 19.2482 7.51032 19.3613 7.54515C19.7129 7.65443 19.9439 7.95076 19.963 8.32011C19.9778 8.61024 19.8933 8.86268 19.6638 9.05308C19.5235 9.16951 19.3579 9.22821 19.179 9.25112C19.1079 9.26018 19.0358 9.26257 18.9638 9.26257C18.2861 9.26209 17.6085 9.26209 16.9304 9.26209C16.8402 9.26209 16.8445 9.27497 16.8445 9.17429C16.8455 8.64317 16.8455 8.11158 16.8455 7.57998ZM16.8546 10.7505C16.8698 10.7509 16.8851 10.7524 16.9008 10.7524C17.6147 10.7524 18.3286 10.7524 19.0425 10.7524C19.063 10.7524 19.0831 10.7495 19.1036 10.7481C19.2229 10.7624 19.3431 10.77 19.4596 10.8058C19.868 10.9313 20.1195 11.2673 20.1224 11.6948C20.1238 11.9029 20.0804 12.098 19.9558 12.2684C19.8155 12.4612 19.6175 12.5619 19.3894 12.6096C19.2835 12.632 19.1766 12.6411 19.0683 12.6411C18.352 12.6406 17.6357 12.6411 16.9199 12.6411C16.9047 12.6411 16.8889 12.6406 16.8736 12.6411C16.8541 12.6411 16.8464 12.6301 16.846 12.6125C16.8455 12.5943 16.8455 12.5767 16.8455 12.5585C16.8455 11.9835 16.8455 11.4085 16.8455 10.8335C16.8455 10.8053 16.8402 10.7767 16.8546 10.7505ZM10.1524 12.5146C10.1524 11.701 10.1524 10.8869 10.1524 10.0733C10.1524 9.25445 10.1524 8.43559 10.1524 7.61673C10.1524 7.52415 10.1395 7.53131 10.2397 7.53131C10.7145 7.53131 11.1893 7.5294 11.6641 7.53179C11.971 7.53322 12.273 7.5733 12.5656 7.6697C13.2756 7.90352 13.7628 8.37213 14.0067 9.07789C14.2372 9.74501 14.2448 10.4202 13.9876 11.0821C13.6774 11.879 13.0895 12.361 12.2582 12.5509C12.0445 12.5996 11.8273 12.6168 11.6088 12.6168C11.1492 12.6172 10.6897 12.6168 10.2302 12.6168C10.2173 12.6168 10.2044 12.6158 10.1915 12.6168C10.1624 12.6182 10.1486 12.6067 10.1514 12.5762C10.1538 12.5562 10.1524 12.5352 10.1524 12.5146Z" fill="#221E1F"/>
<path d="M3.77816 10.7515C3.80918 10.7371 3.84354 10.7419 3.87694 10.7419C4.34936 10.7419 4.82131 10.7419 5.29373 10.7414C5.31902 10.7414 5.34526 10.7443 5.38726 10.7348C5.32331 10.677 5.27846 10.614 5.22501 10.5587C4.6519 9.96504 3.99051 9.49453 3.24418 9.14284C3.20458 9.12423 3.16401 9.10848 3.12393 9.0913C3.0471 9.05837 3.03183 9.06362 3.00654 9.14331C2.93162 9.38382 2.87054 9.62766 2.82425 9.87533C2.73788 10.3358 2.70161 10.8011 2.71593 11.2687C2.72691 11.6228 2.76604 11.9745 2.8338 12.3228C2.94785 12.9112 3.14016 13.4724 3.40738 14.0088C3.42313 14.0407 3.44222 14.0718 3.45081 14.1071C3.45272 14.1157 3.45415 14.1238 3.45224 14.1305C3.45272 14.1305 3.45367 14.1305 3.45415 14.1305C3.48039 14.1104 3.51189 14.1123 3.54243 14.1123C4.68387 14.1118 5.82484 14.1114 6.96629 14.1123C6.97392 14.1123 6.98156 14.1133 6.98919 14.1138C6.97392 13.9892 6.94911 13.8666 6.92525 13.7439C6.86226 13.4223 6.75871 13.1116 6.65229 12.8024C6.6375 12.759 6.61937 12.7165 6.60505 12.6726C6.59933 12.6545 6.59026 12.6421 6.57833 12.6345C5.6855 12.633 4.79267 12.6321 3.89985 12.633C3.84401 12.633 3.80727 12.633 3.78293 12.6268C3.75001 12.6249 3.74237 12.6168 3.74094 12.5834C3.73474 12.5586 3.73474 12.5214 3.73474 12.4655C3.73474 11.9444 3.73474 11.4229 3.73474 10.9018C3.73474 10.8636 3.72901 10.8245 3.74619 10.7882C3.74714 10.7872 3.7481 10.7858 3.74905 10.7849C3.75049 10.7829 3.75239 10.7806 3.7543 10.7787L3.75669 10.7772C3.75717 10.7767 3.75764 10.7767 3.75812 10.7763C3.75239 10.7686 3.76051 10.7596 3.77816 10.7515Z" fill="#E84C24"/>
<path d="M3.45117 14.1329C3.452 14.1321 3.45282 14.1317 3.45323 14.1309C3.45282 14.1309 3.452 14.1309 3.45158 14.1309C3.45158 14.1317 3.45158 14.1321 3.45117 14.1329Z" fill="#E84C24"/>
<path d="M3.45225 14.1307C3.45415 14.124 3.45272 14.1154 3.45081 14.1073C3.44222 14.072 3.42361 14.041 3.40739 14.009C3.14064 13.4726 2.94833 12.9115 2.8338 12.3231C2.76604 11.9747 2.72691 11.623 2.71594 11.269C2.70162 10.8008 2.73789 10.3361 2.82426 9.87556C2.87055 9.6279 2.93163 9.38405 3.00655 9.14355C3.03136 9.06386 3.04663 9.05861 3.12394 9.09153C3.16402 9.10871 3.20506 9.12446 3.24419 9.14307C3.99004 9.49476 4.65143 9.96527 5.22502 10.5589C5.27846 10.6143 5.32332 10.6772 5.38726 10.735C5.34479 10.7445 5.31902 10.7417 5.29373 10.7417C4.82131 10.7417 4.34937 10.7417 3.87695 10.7421C3.84354 10.7421 3.80919 10.7374 3.77817 10.7517C3.76051 10.7598 3.7524 10.7689 3.75908 10.7765C3.78485 10.7531 3.81682 10.7641 3.84593 10.7641C4.3465 10.7631 4.84708 10.7636 5.34766 10.7631C5.37342 10.7631 5.40158 10.7708 5.43212 10.7507C5.35768 10.6858 5.30423 10.6104 5.23981 10.5446C5.0642 10.3652 4.88191 10.1929 4.68674 10.0345C4.57365 9.94285 4.46294 9.84788 4.34412 9.7639C3.99577 9.51862 3.63119 9.30054 3.24419 9.12064C3.18836 9.09487 3.13014 9.07531 3.07431 9.04906C3.03613 9.03141 3.01609 9.04334 3.00464 9.0796C2.98555 9.14068 2.96789 9.20224 2.94928 9.26332C2.8214 9.68516 2.74791 10.1175 2.71212 10.5551C2.70114 10.6868 2.6873 10.8199 2.69255 10.9535C2.69685 11.069 2.69351 11.1845 2.69351 11.3C2.69351 11.3181 2.69065 11.3367 2.69494 11.3539C2.72453 11.4694 2.69923 11.5882 2.72071 11.7051C2.73264 11.7691 2.7355 11.8368 2.74361 11.9027C2.75793 12.0162 2.7794 12.1289 2.79801 12.242C2.83762 12.4872 2.8987 12.7268 2.96885 12.9644C3.08862 13.3691 3.25039 13.757 3.44509 14.1312C3.44747 14.1307 3.44986 14.1307 3.45225 14.1307Z" fill="#E84C24"/>
<path d="M3.45116 14.1331C3.45161 14.1327 3.45161 14.1318 3.45161 14.1309C3.44936 14.1309 3.44756 14.1309 3.44531 14.1309C3.44621 14.1327 3.44711 14.134 3.44756 14.1358C3.44936 14.1349 3.45026 14.134 3.45116 14.1331Z" fill="#E84C24"/>
<path d="M3.74068 12.5293C3.74068 11.9753 3.74068 11.4208 3.74116 10.8668C3.74116 10.8396 3.73114 10.81 3.74975 10.7852C3.74879 10.7861 3.74784 10.7875 3.74688 10.7885C3.72923 10.8252 3.73543 10.8644 3.73543 10.9021C3.73495 11.4232 3.73495 11.9447 3.73543 12.4658C3.73543 12.5217 3.73543 12.5589 3.74164 12.5837C3.74068 12.5703 3.74068 12.5527 3.74068 12.5293Z" fill="#E84C24"/>
<path d="M6.53465 12.6274C6.517 12.6293 6.49886 12.6278 6.48073 12.6278C5.60079 12.6278 4.72084 12.6278 3.8409 12.6278C3.81513 12.6278 3.79604 12.6283 3.78125 12.6274C3.80559 12.634 3.84281 12.634 3.89816 12.6336C4.79099 12.6326 5.68382 12.6336 6.57665 12.635C6.56567 12.6283 6.55183 12.6259 6.53465 12.6274Z" fill="#E84C24"/>
<path d="M6.99012 14.1135C6.98249 14.113 6.97485 14.1121 6.96722 14.1121C5.82577 14.1107 4.6848 14.1116 3.54336 14.1121C3.51282 14.1121 3.48085 14.1097 3.45508 14.1302C3.46844 14.1302 3.48132 14.1302 3.49469 14.1302C4.6013 14.1302 5.70791 14.1302 6.81452 14.1302C6.85556 14.1302 6.89659 14.1269 6.93716 14.1369C6.93763 14.1369 6.93859 14.1374 6.93906 14.1374C6.9572 14.1369 6.97485 14.1359 6.99299 14.135C6.99203 14.1278 6.99108 14.1207 6.99012 14.1135Z" fill="#E84C24"/>
<path d="M6.81247 14.1315C5.70586 14.1315 4.59925 14.1315 3.49264 14.1315C3.47976 14.1315 3.4664 14.1315 3.45304 14.1315C3.45208 14.132 3.45113 14.133 3.45065 14.1339C3.45017 14.1349 3.4497 14.1358 3.44922 14.1368C3.47403 14.1377 3.49932 14.1392 3.52414 14.1392C4.65413 14.1392 5.7846 14.1392 6.91459 14.1392C6.92223 14.1392 6.92986 14.1392 6.9375 14.1387C6.93702 14.1387 6.93607 14.1382 6.93559 14.1382C6.89455 14.1277 6.85351 14.1315 6.81247 14.1315Z" fill="#E84C24"/>
<path d="M3.44727 14.1358C3.44776 14.1358 3.44825 14.1358 3.44923 14.1358C3.44972 14.1348 3.45021 14.1338 3.4507 14.1328C3.44972 14.1338 3.44874 14.1348 3.44727 14.1358Z" fill="#E84C24"/>
<path d="M16.1652 16.8409C16.1915 16.8376 16.2039 16.8361 16.2163 16.8342C16.4759 16.7894 16.6725 16.6577 16.7889 16.4167C16.8352 16.3208 16.8572 16.2172 16.8619 16.1117C16.8743 15.8502 16.8061 15.6179 16.6038 15.4394C16.4401 15.2948 16.242 15.239 16.0278 15.2375C15.6837 15.2351 15.3397 15.2371 14.9956 15.2371C14.9288 15.2371 14.9288 15.2375 14.9283 15.3039C14.9283 15.3091 14.9283 15.3139 14.9283 15.3191C14.9283 16.1666 14.9283 17.0141 14.9283 17.8616C14.9283 17.8745 14.9293 17.8874 14.9283 17.9003C14.9245 17.9337 14.9388 17.9451 14.9722 17.9442C15.0519 17.9423 15.1316 17.9442 15.2108 17.9432C15.2671 17.9427 15.2676 17.9423 15.2676 17.8826C15.2681 17.739 15.2676 17.5949 15.2676 17.4512C15.2676 17.2742 15.2686 17.0967 15.2667 16.9196C15.2662 16.8791 15.2791 16.8662 15.3192 16.8671C15.4141 16.8695 15.5091 16.8667 15.604 16.8681C15.6704 16.8691 15.7472 16.8447 15.7997 16.8786C15.8493 16.9101 15.8746 16.9798 15.9094 17.0337C16.0927 17.3186 16.2759 17.6035 16.4568 17.8898C16.4816 17.9284 16.5074 17.9461 16.5546 17.9442C16.6467 17.9403 16.7393 17.9437 16.8319 17.9427C16.8476 17.9427 16.8676 17.9528 16.882 17.9279C16.6472 17.57 16.41 17.2107 16.1652 16.8409ZM16.38 15.7057C16.38 15.7052 16.38 15.7052 16.38 15.7047L16.3814 15.7061C16.3804 15.7061 16.3804 15.7057 16.38 15.7057ZM16.3485 15.6756C16.3485 15.6751 16.3485 15.6751 16.3485 15.6746L16.3499 15.6761C16.3494 15.6756 16.3489 15.6756 16.3485 15.6756ZM15.9901 16.5694C15.7691 16.5708 15.5487 16.5703 15.3277 16.5699C15.2695 16.5699 15.2686 16.5689 15.2686 16.5107C15.2681 16.2053 15.2681 15.8994 15.2686 15.594C15.2686 15.5405 15.27 15.5391 15.3239 15.5391C15.5496 15.5391 15.7758 15.5372 16.0015 15.5405C16.1161 15.542 16.2244 15.5701 16.3151 15.647C16.3179 15.6546 16.3236 15.6594 16.3322 15.6608C16.3341 15.668 16.3389 15.6727 16.3451 15.6742C16.3461 15.6746 16.3475 15.6746 16.3485 15.6751C16.3489 15.6775 16.3494 15.6794 16.3504 15.6813C16.3528 15.6866 16.3575 15.6894 16.3647 15.6899C16.3652 15.6995 16.3704 15.7047 16.38 15.7057C16.38 15.7085 16.3809 15.7104 16.3819 15.7128C16.3843 15.7176 16.3885 15.7209 16.3943 15.7224C16.3952 15.7309 16.4 15.7362 16.4081 15.7391C16.4081 15.7391 16.4081 15.7391 16.4086 15.7391C16.4186 15.7548 16.4229 15.7739 16.4391 15.7849C16.4382 15.7987 16.441 15.8102 16.4558 15.8159C16.6176 16.1132 16.4434 16.4883 16.1123 16.5546C16.0722 16.5632 16.0307 16.5689 15.9901 16.5694Z" fill="#231F20"/>
<path d="M6.64277 12.7116C6.79786 13.1344 6.92861 13.5634 6.99637 14.01C7.00162 14.0444 7.01546 14.0802 7.00305 14.1145C7.23115 14.1112 7.45877 14.1136 7.68687 14.1136C7.71168 14.1136 7.73745 14.1126 7.75988 14.1246C7.7489 14.085 7.75224 14.0444 7.75224 14.0038C7.75176 13.5954 7.75224 13.1874 7.75224 12.7789C7.75224 12.6376 7.75176 12.6372 7.61147 12.6367C7.27028 12.6362 6.92908 12.6352 6.58789 12.6348C6.6127 12.65 6.62941 12.6744 6.64277 12.7116Z" fill="#EC7324"/>
<path d="M3.75307 10.7798C3.7421 10.8041 3.74735 10.8294 3.74735 10.8542C3.74687 11.414 3.74687 11.9737 3.74735 12.5335C3.74735 12.6194 3.74735 12.6194 3.83563 12.6194C4.72655 12.6194 5.61747 12.6203 6.50839 12.6174C6.54227 12.6174 6.56756 12.6227 6.58808 12.6346C6.92927 12.6351 7.27046 12.6356 7.61166 12.6365C7.75147 12.6365 7.75195 12.6375 7.75243 12.7787C7.75243 13.1872 7.75243 13.5952 7.75243 14.0037C7.75243 14.0438 7.74861 14.0848 7.76006 14.1244C7.76102 14.1249 7.76197 14.1254 7.76245 14.1259C7.76531 14.1196 7.7677 14.113 7.76913 14.1063C7.77247 13.641 7.76913 13.1762 7.77152 12.7115C7.77152 12.6585 7.75147 12.6299 7.71234 12.6155C7.70089 12.6155 7.68753 12.6155 7.67178 12.6155C7.19363 12.6155 6.71596 12.6155 6.23782 12.6151C5.47479 12.627 4.71175 12.6103 3.94825 12.6179C3.92773 12.6179 3.90721 12.6179 3.88669 12.6179C3.85329 12.6179 3.82752 12.617 3.80843 12.6141C3.80557 12.6141 3.8027 12.6141 3.79984 12.6146C3.76166 12.6179 3.74926 12.5998 3.75212 12.5645C3.75212 12.5616 3.7526 12.5587 3.7526 12.5559C3.75021 12.5378 3.74973 12.5144 3.74973 12.4843C3.74973 11.958 3.74926 11.4316 3.74973 10.9048C3.74973 10.8747 3.75021 10.8518 3.75307 10.8337C3.75355 10.8156 3.75403 10.7974 3.75451 10.7793C3.75355 10.7793 3.75355 10.7798 3.75307 10.7798Z" fill="#EC7324"/>
<path d="M3.75231 12.4831C3.75231 12.5132 3.75279 12.5366 3.75517 12.5547C3.75565 12.5394 3.75517 12.5246 3.75517 12.5094C3.75517 11.9577 3.75517 11.4061 3.75517 10.854C3.75517 10.8468 3.75517 10.8397 3.75565 10.832C3.75327 10.8502 3.75231 10.8731 3.75231 10.9031C3.75183 11.43 3.75183 11.9568 3.75231 12.4831Z" fill="#EC7324"/>
<path d="M7.77254 12.7112C7.77015 13.1759 7.77397 13.6407 7.77015 14.106C7.76872 14.1131 7.76634 14.1193 7.76347 14.1256C7.76777 14.1279 7.77159 14.1308 7.7754 14.1341C7.77588 13.6622 7.77636 13.1898 7.77636 12.7178C7.77636 12.6214 7.78542 12.6152 7.71289 12.6152C7.7525 12.6296 7.77254 12.6582 7.77254 12.7112Z" fill="#EC7324"/>
<path d="M3.94841 12.619C4.71144 12.6109 5.47447 12.6281 6.23798 12.6161C5.44823 12.6161 4.65895 12.6157 3.8692 12.6157C3.84916 12.6157 3.82864 12.6147 3.80859 12.6157C3.82768 12.6185 3.85297 12.6195 3.88685 12.6195C3.90737 12.619 3.92789 12.6195 3.94841 12.619Z" fill="#EC7324"/>
<path d="M7.75995 14.1284C7.75995 14.1279 7.76042 14.1274 7.76042 14.1274C7.75995 14.1265 7.75995 14.126 7.75947 14.125C7.75947 14.1246 7.75947 14.1241 7.75899 14.1231C7.73656 14.1112 7.7108 14.1122 7.68598 14.1122C7.45788 14.1122 7.23026 14.1098 7.00216 14.1131C6.9993 14.1203 6.99548 14.1279 6.99023 14.1351C7.12099 14.136 7.25126 14.1379 7.38201 14.137C7.4784 14.1365 7.57432 14.1394 7.67023 14.1374C7.67787 14.1365 7.68503 14.1365 7.69266 14.137C7.71318 14.1365 7.7337 14.1355 7.75422 14.1346C7.75661 14.1327 7.75852 14.1308 7.75995 14.1284Z" fill="#EC7324"/>
<path d="M7.76126 14.1283C7.75946 14.1306 7.75766 14.1323 7.75586 14.1337C7.75901 14.1337 7.76171 14.1332 7.76485 14.1332C7.76396 14.131 7.76306 14.1292 7.76216 14.127C7.76171 14.1279 7.76171 14.1279 7.76126 14.1283Z" fill="#EC7324"/>
<path d="M7.76319 14.1289C7.76368 14.1279 7.76417 14.127 7.76417 14.1265C7.76319 14.126 7.76221 14.1255 7.76172 14.125C7.76172 14.1255 7.76172 14.126 7.76221 14.127C7.76221 14.1275 7.7627 14.1279 7.76319 14.1289Z" fill="#EC7324"/>
<path d="M7.76262 14.125C7.76217 14.1259 7.76217 14.1268 7.76172 14.1272C7.76262 14.1295 7.76352 14.1313 7.76442 14.1335C7.76757 14.1335 7.77071 14.1331 7.77386 14.1331C7.77026 14.1299 7.76667 14.1272 7.76262 14.125Z" fill="#EC7324"/>
<path d="M3.74023 12.584C3.74167 12.6174 3.7493 12.6255 3.78223 12.6274C3.75837 12.6212 3.74644 12.6088 3.74023 12.584Z" fill="#EC7324"/>
<path d="M3.75 10.7832C3.75135 10.7814 3.75315 10.78 3.7545 10.7787C3.7545 10.7782 3.75495 10.7778 3.75495 10.7773C3.75315 10.7796 3.7518 10.7814 3.75 10.7832Z" fill="#EC7324"/>
<path d="M6.60533 12.6729C6.61964 12.7168 6.63777 12.7593 6.65257 12.8027C6.75898 13.112 6.86205 13.4226 6.92552 13.7442C6.94986 13.8669 6.97419 13.99 6.98947 14.1141C6.99424 14.1141 6.99901 14.1141 7.00378 14.1141C7.01619 14.0797 7.00235 14.0439 6.9971 14.0096C6.92934 13.5629 6.79859 13.1339 6.6435 12.7111C6.62966 12.6739 6.61344 12.6496 6.58862 12.6348C6.58528 12.6348 6.58147 12.6348 6.57812 12.6348C6.59101 12.6419 6.5996 12.6548 6.60533 12.6729Z" fill="#EC7324"/>
<path d="M3.74104 10.8661C3.74009 11.4202 3.74057 11.9747 3.74057 12.5287C3.74057 12.5521 3.74009 12.5697 3.74057 12.5831C3.74677 12.6074 3.7587 12.6198 3.78256 12.6265C3.79687 12.6275 3.81644 12.627 3.84221 12.627C4.72215 12.627 5.6021 12.627 6.48204 12.627C6.50017 12.627 6.51831 12.6284 6.53596 12.6265C6.55314 12.6246 6.56746 12.6275 6.57843 12.6341C6.58177 12.6341 6.58559 12.6341 6.58893 12.6341C6.56889 12.6222 6.54312 12.617 6.50924 12.617C5.61832 12.6198 4.7274 12.6189 3.83648 12.6189C3.74868 12.6189 3.7482 12.6189 3.7482 12.533C3.7482 11.9732 3.7482 11.4135 3.7482 10.8537C3.7482 10.8289 3.74295 10.8032 3.75393 10.7793C3.7525 10.7812 3.75059 10.7826 3.74916 10.7841C3.73102 10.8089 3.74104 10.8389 3.74104 10.8661Z" fill="#EC7324"/>
<path d="M6.98828 14.1138C6.98924 14.1209 6.99019 14.1281 6.99114 14.1352C6.99639 14.1281 7.00069 14.1209 7.00307 14.1133C6.9983 14.1133 6.99353 14.1133 6.98828 14.1138Z" fill="#EC7324"/>
</svg>
