<svg width="24" height="24" viewBox="0 0 24 24" fill="none" xmlns="http://www.w3.org/2000/svg">
<path d="M20.0066 21C20.5551 21 21 20.5552 21 20.0066V3.99349C21 3.44471 20.5551 2.99999 20.0066 2.99999H3.99343C3.44465 2.99999 3 3.44471 3 3.99349V20.0066C3 20.5552 3.44465 21 3.99343 21H20.0066Z" fill="#3B5998"/>
<path d="M15.4205 21V14.0295H17.7603L18.1106 11.3129H15.4205V9.57851C15.4205 8.792 15.6389 8.25604 16.7668 8.25604L18.2054 8.25536V5.82569C17.9565 5.79264 17.1026 5.71866 16.1092 5.71866C14.0351 5.71866 12.6153 6.98462 12.6153 9.30955V11.3129H10.2695V14.0295H12.6153V21H15.4205Z" fill="white"/>
</svg>
