<svg width="24" height="24" viewBox="0 0 24 24" fill="none" xmlns="http://www.w3.org/2000/svg">
<path d="M19.7491 20.8495C19.7439 21.159 19.6163 21.4538 19.3942 21.6694C19.1722 21.885 18.8737 22.0039 18.5642 21.9999H6.18484C5.87535 22.0039 5.5769 21.885 5.35483 21.6694C5.13276 21.4538 5.00518 21.159 5 20.8495V3.15059C5.00192 2.99716 5.03413 2.84561 5.09478 2.70466C5.15543 2.5637 5.24332 2.43612 5.35341 2.32922C5.4635 2.22233 5.59362 2.13823 5.7363 2.08176C5.87898 2.02529 6.03142 1.99757 6.18484 2.00017H14.1444L19.7491 7.59006V20.8495Z" fill="#22A466"/>
<path d="M14.7598 7.45703L19.7499 12.0981L19.7351 7.59469L14.7598 7.45703Z" fill="#1A8E5A"/>
<path d="M19.7502 7.59467H15.3255C15.016 7.59862 14.7175 7.47977 14.4955 7.26416C14.2734 7.04854 14.1458 6.75373 14.1406 6.44425V2.01953L19.7502 7.59467Z" fill="#8ECEAF"/>
<path d="M12.8477 17.3738V16.3905H15.2568V17.3738H12.8477ZM9.48004 16.3905H11.8891V17.3738H9.48004V16.3905ZM11.8989 15.6973H9.48987V14.6059H11.8989V15.6973ZM11.8989 12.7721V13.9225H9.48987V12.7573L11.8989 12.7721ZM12.8477 14.6255H15.2568V15.6973H12.8477V14.6255ZM15.2568 13.9225H12.8477V12.7573H15.2568V13.9225ZM8.54102 11.8281V18.3079H16.2204V11.8281H8.54102Z" fill="white"/>
</svg>
