<svg width="24" height="24" viewBox="0 0 24 24" fill="none" xmlns="http://www.w3.org/2000/svg">
<path d="M15.4937 4.3854V19.3887C15.4678 19.7192 15.5101 20.0516 15.6178 20.3651C15.7256 20.6786 15.8966 20.9667 16.1202 21.2115C16.3438 21.4562 16.6153 21.6525 16.9179 21.788C17.2204 21.9236 17.5476 21.9956 17.8791 21.9995C18.2123 22.001 18.5421 21.9327 18.8472 21.799C19.1524 21.6653 19.4261 21.4691 19.6509 21.2232C19.8756 20.9772 20.0463 20.6869 20.152 20.3709C20.2577 20.055 20.296 19.7204 20.2645 19.3887V4.50176C20.2803 4.17886 20.2303 3.85611 20.1175 3.55314C20.0047 3.25016 19.8315 2.97327 19.6084 2.7393C19.3853 2.50532 19.117 2.31913 18.8197 2.19204C18.5224 2.06495 18.2024 1.99962 17.8791 2C17.25 2.01121 16.6497 2.26612 16.2048 2.71106C15.7599 3.15601 15.5049 3.75626 15.4937 4.3854Z" fill="#F9AB00"/>
<path d="M9.24569 11.9987V19.3876C9.21978 19.7181 9.26201 20.0505 9.36977 20.364C9.47753 20.6775 9.64852 20.9656 9.87215 21.2104C10.0958 21.4551 10.3673 21.6514 10.6698 21.7869C10.9724 21.9225 11.2996 21.9945 11.6311 21.9985C11.9643 21.9999 12.294 21.9316 12.5992 21.7979C12.9043 21.6642 13.1781 21.468 13.4028 21.2221C13.6275 20.9761 13.7983 20.6858 13.9039 20.3698C14.0096 20.0539 14.048 19.7193 14.0165 19.3876V12.115C14.0323 11.7921 13.9822 11.4694 13.8694 11.1664C13.7566 10.8634 13.5834 10.5866 13.3603 10.3526C13.1372 10.1186 12.8689 9.93241 12.5716 9.80532C12.2744 9.67823 11.9544 9.6129 11.6311 9.61328C11.0014 9.62267 10.4001 9.877 9.95474 10.3223C9.50941 10.7677 9.25507 11.369 9.24569 11.9987Z" fill="#E37400"/>
<path d="M5.3854 21.9993C6.70282 21.9993 7.7708 20.9313 7.7708 19.6139C7.7708 18.2965 6.70282 17.2285 5.3854 17.2285C4.06798 17.2285 3 18.2965 3 19.6139C3 20.9313 4.06798 21.9993 5.3854 21.9993Z" fill="#E37400"/>
</svg>
