<svg width="24" height="24" viewBox="0 0 24 24" fill="none" xmlns="http://www.w3.org/2000/svg">
<path d="M12.0548 19.5836C11.7469 19.3448 11.4586 19.0818 11.1927 18.7969C11.3436 18.7071 11.4118 18.8221 11.4657 18.9011L8.319 9.53634C8.26153 9.9243 8.20406 10.3087 8.17173 10.7074C8.1394 10.7864 8.1394 10.887 8.01367 10.9014C8.05354 9.98442 8.22161 9.07758 8.51298 8.20725C8.58938 8.03987 8.64487 7.86373 8.67822 7.68279C8.74647 7.49241 8.8255 7.53551 8.9153 7.63969C8.99926 7.7542 9.05803 7.88519 9.08773 8.02405L12.1087 17.0691C12.1662 17.2523 12.1985 17.4678 12.4392 17.5253C12.4588 17.5484 12.4731 17.5754 12.4812 17.6046C12.4892 17.6337 12.4908 17.6643 12.4859 17.6941C12.456 17.8333 12.4475 17.9762 12.4608 18.118C12.4548 18.5403 12.3907 18.9597 12.2704 19.3645C12.2488 19.4938 12.2704 19.6518 12.0548 19.5836Z" fill="#48A63A"/>
<path d="M15.9425 16.1864C15.6234 16.8727 15.1979 17.5044 14.6817 18.0579C14.1239 18.0908 13.5693 18.1641 13.0221 18.277C12.9508 18.2747 12.8802 18.2911 12.8172 18.3245C12.7542 18.3579 12.701 18.4071 12.6629 18.4674C12.4545 18.3201 12.5228 18.1082 12.4797 17.8998C12.4366 17.6915 12.5048 17.7059 12.5048 17.6053C12.5048 17.5047 12.4833 17.4149 12.4833 17.3107C12.3791 16.9515 12.5156 16.6282 12.4833 16.2762C12.4827 15.9787 12.5091 15.6817 12.5623 15.3889C12.6156 15.2244 12.6387 15.0516 12.6305 14.8788C12.6191 14.8041 12.6376 14.7279 12.682 14.6667C12.7264 14.6056 12.7931 14.5643 12.8676 14.552H12.9035L16.4634 13.9808C16.704 13.9341 16.7471 13.9808 16.6897 14.243C16.5698 14.769 16.3915 15.2798 16.158 15.7661C16.0659 15.8948 15.9933 16.0365 15.9425 16.1864Z" fill="#419433"/>
<path d="M13.7256 3.97906C14.8297 5.0909 15.6812 6.42758 16.2222 7.8981C16.5964 8.79475 16.8384 9.74097 16.9406 10.7072C16.9406 10.8473 16.9406 10.9909 16.9657 11.1274C16.9592 11.1313 16.9519 11.1338 16.9443 11.1348C16.9368 11.1357 16.9291 11.1352 16.9217 11.1332C16.9144 11.1312 16.9075 11.1278 16.9015 11.1231C16.8955 11.1184 16.8904 11.1125 16.8867 11.1059C16.7893 10.7739 16.7326 10.4314 16.7179 10.0857C16.5568 9.36226 16.3431 8.65152 16.0785 7.95917C16.021 7.80112 15.9779 7.74364 15.7731 7.80112C15.2305 7.93494 14.6798 8.03333 14.1244 8.09567L12.806 8.3112C12.727 8.3112 12.6336 8.36868 12.5761 8.2681C12.5079 7.63228 12.5761 7.00366 12.5438 6.36785C12.5599 6.06455 12.5491 5.76042 12.5115 5.45903C12.4648 4.86992 12.4863 4.26644 12.4863 3.66296C12.5128 3.42365 12.5056 3.18181 12.4648 2.94453C12.4414 2.83237 12.4342 2.71747 12.4432 2.60327C12.4432 2.53502 12.4432 2.43444 12.533 2.41289C12.6228 2.39133 12.6228 2.50269 12.6731 2.56016C12.7234 2.61764 12.7629 2.82239 12.8779 2.91938C13.0323 3.38995 13.4203 3.64859 13.7256 3.97906Z" fill="#46A037"/>
<path d="M16.9091 11.1289H16.9415C17.0905 12.8676 16.739 14.6126 15.9285 16.1579C15.9285 15.8274 16.1692 15.5868 16.2877 15.2922C16.4247 14.9298 16.5387 14.559 16.629 14.1822C16.6613 14.0098 16.629 13.9883 16.4709 14.0242L12.8788 14.6025C12.753 14.6241 12.6848 14.6708 12.6848 14.818C12.6848 14.9653 12.753 15.1773 12.6381 15.3389C12.5267 15.2168 12.5591 15.0695 12.5591 14.9222C12.5591 14.1248 12.6381 13.3309 12.6165 12.5334C12.6054 12.459 12.6103 12.3831 12.6309 12.3107C12.6406 12.2893 12.6562 12.2711 12.676 12.2584C12.6957 12.2456 12.7187 12.2389 12.7423 12.2389C13.6187 12.2389 14.4485 11.991 15.2999 11.8797L16.4027 11.7216C16.6613 11.6785 16.8553 11.5995 16.8337 11.2798C16.8327 11.2503 16.839 11.2211 16.8522 11.1947C16.8654 11.1684 16.8849 11.1457 16.9091 11.1289Z" fill="#429734"/>
<path d="M12.5663 16.2611C12.613 16.6203 12.4657 16.9436 12.5663 17.2956C12.4981 17.3423 12.5232 17.4357 12.4765 17.5004L12.4442 17.5219C12.3652 17.6117 12.2825 17.68 12.2143 17.5219C12.158 17.4053 12.1088 17.2853 12.067 17.1627L9.01368 7.99914C8.94543 7.87342 8.9562 7.63993 8.8197 7.63993C8.6832 7.63993 8.70475 7.86623 8.64009 7.99914C8.57543 8.13205 8.5934 8.17875 8.5 8.23622C8.57066 7.89848 8.68161 7.57045 8.83048 7.25916C8.96698 7.08674 8.98853 6.84965 9.11426 6.67005C9.23998 6.49044 9.16096 6.48685 9.27231 6.49762C9.38367 6.5084 9.43037 6.74907 9.48066 6.88558L12.2035 15.0326C12.3601 15.4307 12.4815 15.8418 12.5663 16.2611Z" fill="#4DA83F"/>
<path d="M8.10117 10.7284C8.09835 10.2573 8.17236 9.789 8.32029 9.3418L11.5532 18.976C11.37 18.9544 11.3377 18.7604 11.194 18.7963C10.8901 18.5439 10.6164 18.257 10.3786 17.9414C10.5259 17.8875 10.4576 17.7726 10.4217 17.6828C10.1631 16.9176 9.91162 16.1489 9.64939 15.3874C9.13931 13.911 8.67233 12.4203 8.15146 10.9547C8.11159 10.8863 8.09401 10.8072 8.10117 10.7284Z" fill="#45A437"/>
<path d="M8.10058 10.7285C8.48853 11.5906 8.71484 12.4779 9.03813 13.3544C9.52666 14.7912 10.0188 16.2281 10.475 17.665C10.5109 17.7691 10.5899 17.8697 10.5325 18.0242L10.3529 17.9559L10.2595 17.841C10.2164 17.7494 10.1494 17.6712 10.0655 17.6147C9.19549 16.5415 8.56807 15.2928 8.22631 13.9543C8.09311 13.4862 8.01712 13.0037 8 12.5174C8.03592 12.0056 8.03592 11.4918 8 10.98V10.9081L8.10058 10.7285Z" fill="#41A334"/>
<path d="M12.5662 5.48513C12.6596 5.57853 12.6236 5.67911 12.6236 5.78328V8.3373C12.6537 8.36925 12.6766 8.40724 12.6909 8.44874C12.7051 8.49024 12.7104 8.53429 12.7063 8.57798C12.7063 9.37184 12.7063 10.1693 12.6811 10.9632C12.6021 11.1104 12.5231 11.0673 12.444 10.9632C12.38 10.8664 12.3326 10.7595 12.3039 10.6471C11.6574 8.72525 11.0323 6.80345 10.3714 4.89961C10.3455 4.84901 10.332 4.793 10.332 4.73617C10.332 4.67934 10.3455 4.62333 10.3714 4.57273C10.3667 4.53644 10.3744 4.49962 10.3933 4.4683C10.4122 4.43698 10.4412 4.41301 10.4755 4.4003C10.8168 4.04109 10.9066 4.05905 11.0647 4.5404L12.4907 8.71807V7.468C12.4907 7.06927 12.4907 6.34366 12.4907 5.7761C12.4907 5.67193 12.4656 5.56057 12.5662 5.48513Z" fill="#59AF49"/>
<path d="M12.6799 12.2771C12.7158 13.1751 12.6476 14.0732 12.6224 14.9604C12.4752 14.9604 12.5003 14.8347 12.5003 14.7413C12.4788 14.5433 12.4317 14.3489 12.3602 14.163L9.65173 6.0842C9.61151 5.98945 9.58141 5.89072 9.56192 5.78965C9.55336 5.77558 9.54883 5.75942 9.54883 5.74295C9.54883 5.72648 9.55336 5.71032 9.56192 5.69625C9.63017 5.61723 9.63018 5.48072 9.71998 5.41247C9.74354 5.39803 9.76983 5.38859 9.79721 5.38476C9.82458 5.38092 9.85245 5.38277 9.87908 5.39019C9.90571 5.3976 9.93052 5.41042 9.95197 5.42786C9.97342 5.44529 9.99105 5.46695 10.0038 5.4915C10.0569 5.57077 10.097 5.65811 10.1223 5.75014C10.8874 8.07067 11.6921 10.3876 12.4644 12.7045C12.4979 12.7813 12.5209 12.8623 12.5326 12.9452C12.4903 12.6415 12.5099 12.3324 12.5901 12.0364C12.6025 12.0255 12.6185 12.0196 12.635 12.0196C12.6515 12.0196 12.6675 12.0255 12.6799 12.0364C12.7097 12.0694 12.7262 12.1123 12.7262 12.1567C12.7262 12.2012 12.7097 12.2441 12.6799 12.2771Z" fill="#53AB43"/>
<path d="M12.6295 12.0469V13.1856L12.5864 13.1605C12.5844 13.1342 12.5844 13.1077 12.5864 13.0814C12.3457 11.3105 11.5842 9.70841 11.0489 8.0237C10.7867 7.18313 10.4922 6.34257 10.2192 5.50919C10.1617 5.32599 10.0791 5.22541 9.88867 5.25774C10.0122 4.992 10.191 4.75565 10.4131 4.56445C10.4273 4.77053 10.4848 4.97129 10.582 5.15357C11.195 7.00951 11.8129 8.86186 12.4355 10.7106C12.4678 10.822 12.4571 10.9944 12.6403 11.016C12.7643 11.3491 12.7605 11.7164 12.6295 12.0469Z" fill="#55AD46"/>
<path d="M12.5671 7.5254V8.92274C12.5253 8.91919 12.4859 8.90166 12.4553 8.87299C12.4247 8.84431 12.4046 8.80617 12.3983 8.76469L11.0333 4.61575C10.8716 4.15236 10.8716 4.15236 10.498 4.40022C10.6063 4.2293 10.7409 4.07655 10.8968 3.94761C11.238 3.60636 11.3422 3.62791 11.4895 4.09489C11.7517 4.88875 12.0355 5.67544 12.3085 6.45853C12.3623 6.82123 12.4489 7.17832 12.5671 7.5254Z" fill="#5DB04C"/>
<path d="M12.5665 7.52513C12.4866 7.4475 12.4248 7.35312 12.3857 7.24878C12.3465 7.14443 12.331 7.03271 12.3402 6.92165C12.3417 6.79855 12.3185 6.6764 12.272 6.56244L11.4386 4.15569C11.2805 3.67794 11.2805 3.67794 10.8926 3.91502C11.0803 3.65699 11.3027 3.42611 11.5535 3.22892C11.7367 3.11397 11.8373 3.13911 11.9128 3.36901C12.1283 3.88987 12.2073 4.44666 12.4336 4.98189C12.5486 5.21897 12.4695 5.50275 12.5234 5.76498L12.5665 7.52513Z" fill="#61B250"/>
<path d="M9.87566 5.24122C10.1343 5.06161 10.1343 5.06161 10.2349 5.36695C10.9892 7.58331 11.7256 9.79607 12.4872 12.0268C12.5646 12.3695 12.596 12.7211 12.5805 13.0721C12.2716 12.3106 12.0453 11.5275 11.7831 10.766C11.194 9.07764 10.648 7.40011 10.0804 5.71898C10.0229 5.56092 9.98701 5.39928 9.77148 5.41364L9.87566 5.24122Z" fill="#53AB43"/>
<path d="M12.6692 18.4453C12.6369 18.2657 12.6908 18.219 12.8955 18.1975C13.4092 18.1508 13.9193 18.0502 14.4294 17.9568C14.5336 17.9352 14.6341 17.8885 14.6701 18.0502C14.2565 18.5684 13.7729 19.0265 13.2332 19.4116C13.2168 19.4235 13.1981 19.4318 13.1783 19.4362C13.1586 19.4405 13.1381 19.4407 13.1183 19.4367C13.0318 19.3862 12.9551 19.3205 12.8919 19.2428C12.7698 19.0021 12.5651 18.7758 12.6692 18.4453Z" fill="#3F9231"/>
<path d="M12.5591 5.75021C12.4334 5.59215 12.5375 5.39099 12.4801 5.22935C12.4226 5.0677 12.2394 4.54684 12.1388 4.20558L11.9125 3.42249C11.8299 3.16027 11.7724 3.17104 11.582 3.22852L11.9412 2.88726C12.071 2.77935 12.1745 2.64346 12.2442 2.4898C12.3139 2.33613 12.3479 2.16867 12.3436 2C12.4693 2.0467 12.4693 2.14009 12.4908 2.21553C12.5124 2.29096 12.4334 2.47776 12.4908 2.61426V2.96988C12.5591 3.19619 12.4693 3.43686 12.5483 3.65239V5.76458L12.5591 5.75021Z" fill="#65B453"/>
<path d="M12.6689 18.4457C12.7084 18.7296 12.8089 19.0017 12.9635 19.2431C12.8378 19.7748 12.6043 20.2884 12.4534 20.8201C12.3061 20.7195 12.3744 20.5722 12.281 20.4932C12.2341 20.1792 12.1583 19.8701 12.0547 19.57C12.1804 19.57 12.1696 19.4587 12.1948 19.3796C12.315 18.9607 12.3849 18.529 12.4031 18.0936C12.4606 18.0038 12.4031 17.8997 12.4355 17.8099C12.4678 17.7201 12.5396 17.8099 12.5612 17.8566C12.5808 18.0556 12.6168 18.2526 12.6689 18.4457Z" fill="#B1B192"/>
<path d="M13.1477 19.4105H13.2519C13.0424 19.7743 12.9321 20.1868 12.9322 20.6067C12.9046 21.017 12.9238 21.4292 12.9897 21.8352C12.8783 21.7885 12.9681 21.6735 12.8891 21.6412C12.8424 22.0004 12.7418 22.0615 12.5011 21.9465C12.4668 21.9342 12.4374 21.9111 12.4174 21.8806C12.3973 21.8502 12.3876 21.8141 12.3898 21.7777C12.3581 21.524 12.3461 21.2682 12.3538 21.0126C12.4939 21.0126 12.5011 21.0952 12.4796 21.1958C12.6951 20.6857 12.7634 20.1181 12.9789 19.6152C12.9897 19.5254 12.9897 19.3889 13.1477 19.4105Z" fill="#D6D4C0"/>
<path d="M13.148 19.4116C12.9798 19.6951 12.8642 20.0067 12.8067 20.3312C12.7097 20.6905 12.5948 21.0102 12.4475 21.3406C12.4008 21.2293 12.4475 21.082 12.3074 21.0353L12.2715 20.5108C12.4978 20.5108 12.293 20.7048 12.4188 20.7515C12.5553 20.3205 12.6774 19.875 12.8283 19.444C12.8498 19.3757 12.8498 19.2608 12.9648 19.25L13.148 19.4116Z" fill="#C4C2A9"/>
<path d="M13.7274 3.97985C13.3261 3.74853 13.0204 3.38173 12.8652 2.94531C13.1264 3.31117 13.4146 3.65698 13.7274 3.97985Z" fill="#4BA73D"/>
<path d="M9.59274 5.69531V5.76356C9.62507 6.08326 9.39877 6.27724 9.25149 6.50355L9.13654 6.67238C9.13352 6.67553 9.1299 6.67804 9.12589 6.67975C9.12187 6.68146 9.11756 6.68235 9.11319 6.68235C9.10883 6.68235 9.10451 6.68146 9.1005 6.67975C9.09649 6.67804 9.09286 6.67553 9.08984 6.67238C9.21575 6.32685 9.38471 5.99857 9.59274 5.69531Z" fill="#53AB43"/>
<path d="M12.5123 2.60998C12.4737 2.55133 12.4531 2.48264 12.4531 2.41241C12.4531 2.34218 12.4737 2.2735 12.5123 2.21484L12.8716 2.93327C12.6668 2.8758 12.7135 2.66027 12.5985 2.54891C12.4836 2.43756 12.5985 2.45552 12.5267 2.50222C12.4549 2.54891 12.5123 2.58124 12.5123 2.60998Z" fill="#4BA73D"/>
<path d="M9.07794 6.67383H9.13541C9.00969 6.84266 9.02046 7.10489 8.83008 7.24139C8.88194 7.04021 8.96562 6.84861 9.07794 6.67383Z" fill="#50AA41"/>
<path d="M10.0801 17.5938C10.134 17.6023 10.1832 17.6297 10.2187 17.6712C10.2543 17.7127 10.2739 17.7654 10.2741 17.8201L10.0801 17.5938Z" fill="#45A437"/>
<path d="M12.5587 17.8784L12.4581 17.8209C12.4504 17.8138 12.4442 17.8052 12.44 17.7956C12.4358 17.7861 12.4336 17.7757 12.4336 17.7652C12.4336 17.7547 12.4358 17.7444 12.44 17.7348C12.4442 17.7252 12.4504 17.7166 12.4581 17.7095V17.5407C12.5264 17.5048 12.5372 17.5623 12.5587 17.5946V17.8784Z" fill="#94A577"/>
<path d="M12.4446 17.6973V17.8086C12.4195 17.902 12.4662 18.0134 12.3871 18.0924C12.4087 17.981 12.3404 17.8302 12.4446 17.6973Z" fill="#4DA83F"/>
<path d="M9.25 6.50163C9.29311 6.21785 9.53378 6.03825 9.59125 5.7832C9.70261 5.86223 9.70261 5.99873 9.74931 6.11368C10.6689 8.8509 11.5669 11.5881 12.5009 14.3289C12.5799 14.5445 12.5009 14.7815 12.623 14.9863V15.385C12.6482 15.6904 12.5332 15.9885 12.5656 16.2938C12.271 15.5431 12.0339 14.742 11.7717 13.9805C10.9599 11.5642 10.1528 9.14785 9.35058 6.73153C9.32903 6.6525 9.32903 6.5627 9.25 6.50163Z" fill="#50AA41"/>
<path d="M12.5582 17.5943L12.4576 17.5369C12.4576 17.4471 12.4109 17.3213 12.569 17.3105L12.5582 17.5943Z" fill="#6EA057"/>
<path d="M12.6309 12.0476V8.35847C12.9188 8.219 13.2341 8.14538 13.554 8.14294C14.2114 8.01722 14.8724 7.9346 15.5297 7.83402C15.605 7.83455 15.6791 7.81601 15.7453 7.78013C16.029 7.51791 16.065 7.74421 16.144 7.95974C16.399 8.65598 16.6149 9.36594 16.7906 10.0863C16.575 10.2767 16.3056 10.1977 16.0721 10.2336C15.8014 10.2766 15.5265 10.2875 15.2531 10.2659C15.0484 10.2443 14.8939 10.3916 14.7179 10.3234C14.5419 10.2551 14.2868 10.3234 14.0713 10.2443C13.9693 10.2261 13.8644 10.2335 13.766 10.2659C13.6403 10.291 13.5038 10.4958 13.3888 10.2659C13.3888 10.2659 13.3888 10.2659 13.3565 10.291C13.1625 10.4994 13.0368 10.3342 12.9218 10.1977C12.8069 10.0611 12.8679 10.1186 12.8105 10.1078C12.753 10.0971 12.753 10.2551 12.753 10.3342V11.771C12.753 11.8824 12.7745 11.9973 12.6847 12.0871L12.6309 12.0476Z" fill="#439D35"/>
<path d="M12.6812 12.0474V10.1543C12.6812 10.0753 12.6381 9.96036 12.7602 9.9388C12.8824 9.91725 12.9075 10.0071 12.9542 10.0789C13.1482 10.3519 13.2272 10.3519 13.4212 10.043C13.4212 10.2836 13.5792 10.2837 13.6691 10.201C13.7256 10.159 13.7922 10.1326 13.8622 10.1244C13.9321 10.1162 14.003 10.1265 14.0678 10.1543C14.2941 10.2441 14.5455 10.1112 14.7862 10.2441C15.0269 10.377 15.0377 10.2441 14.9479 10.0178C15.07 10.2226 15.2173 10.1759 15.4005 10.1579L16.3883 10.1112L16.8086 10.0538L16.9235 11.1314C16.9235 11.7457 16.9235 11.7349 16.3201 11.8247C15.3107 11.9863 14.2977 12.1552 13.2883 12.324C13.0902 12.3583 12.8866 12.3435 12.6956 12.2809L12.6812 12.0474Z" fill="#439B34"/>
<path d="M12.5651 3.64931C12.4538 3.43378 12.5328 3.19669 12.5112 2.9668C12.6298 3.18233 12.5328 3.41222 12.5651 3.64931Z" fill="#4BA73D"/>
</svg>
