<svg width="24" height="24" viewBox="0 0 24 24" fill="none" xmlns="http://www.w3.org/2000/svg">
<path d="M2.39229 15.1128C2.39229 15.1128 8.05515 19.112 8.39943 19.3113C8.73184 19.5108 9.21859 19.5576 9.64598 19.3935C10.0734 19.2292 10.3939 18.8539 10.4889 18.4787C10.5957 18.1034 11.8897 11.3482 11.8897 11.3482C11.9016 11.2544 11.9372 10.9846 11.7948 10.7266C11.5929 10.3748 11.1418 10.1872 10.7382 10.3044C10.4176 10.3983 10.2514 10.6328 10.204 10.7149C10.1327 10.8439 10.0021 11.055 9.7647 11.2427C9.58661 11.3834 9.40853 11.4655 9.32544 11.5007C8.60126 11.7939 7.79397 11.5476 7.33097 10.9612C7.04605 10.5976 6.53556 10.4569 6.08443 10.6328C5.6333 10.8087 5.37211 11.2661 5.40773 11.7235C5.49083 12.4506 5.07533 13.1777 4.33927 13.4709C3.9475 13.6234 3.53198 13.6234 3.16396 13.5061C3.08086 13.4827 2.78406 13.4123 2.48726 13.5765C2.11924 13.7641 1.92929 14.2098 2.02426 14.6085C2.09549 14.8783 2.30919 15.0542 2.39229 15.1128Z" fill="#FF9538"/>
<path d="M11.8279 6.35266C11.8279 6.35266 13.8461 12.9437 13.9886 13.2955C14.1311 13.6591 14.4872 13.9874 14.9264 14.1164C15.3657 14.2454 15.8525 14.1399 16.1611 13.9053C16.4698 13.6708 21.6816 9.10869 21.6816 9.10869C21.7528 9.05005 21.9427 8.85067 21.9902 8.55747C22.0496 8.15874 21.8002 7.73654 21.4203 7.58407C21.1116 7.4668 20.8268 7.54889 20.7436 7.58407C20.613 7.64271 20.3756 7.72481 20.0789 7.73654C19.8414 7.74826 19.6633 7.70135 19.5684 7.6779C18.8204 7.4668 18.3217 6.78659 18.3217 6.04774C18.31 5.59036 18.0013 5.16816 17.5382 5.03915C17.0633 4.91015 16.5767 5.10952 16.3273 5.49653C15.9356 6.12983 15.1639 6.44648 14.4041 6.23539C14.0004 6.11811 13.668 5.87182 13.4543 5.55517C13.395 5.48481 13.2051 5.25025 12.8726 5.19161C12.469 5.12125 12.0297 5.3558 11.8635 5.71936C11.7329 6.00082 11.8042 6.25883 11.8279 6.35266Z" fill="#FF9538"/>
</svg>
