<svg width="24" height="24" viewBox="0 0 24 24" fill="none" xmlns="http://www.w3.org/2000/svg">
<path fill-rule="evenodd" clip-rule="evenodd" d="M20.4221 17.096C19.3341 17.0657 18.4901 17.1772 17.7827 17.4748C17.579 17.5566 17.2521 17.5566 17.2253 17.813C17.3342 17.9205 17.3473 18.0966 17.4427 18.2457C17.6058 18.5163 17.8919 18.8808 18.1501 19.0699L19.0207 19.692C19.5512 20.0163 20.1498 20.2057 20.6666 20.5302C20.966 20.7196 21.2651 20.9629 21.5646 21.1659C21.717 21.2741 21.8094 21.4502 22 21.5175V21.4765C21.9049 21.3553 21.8774 21.1796 21.7826 21.0438L21.374 20.652C20.9797 20.1247 20.4897 19.6647 19.9592 19.2866C19.5238 18.989 18.5718 18.5835 18.395 18.0836L18.3681 18.0533C18.6669 18.0229 19.0207 17.9178 19.3067 17.8366C19.7695 17.7154 20.1909 17.742 20.6666 17.6205L21.32 17.4311V17.3099C21.0752 17.0666 20.8983 16.7421 20.6401 16.5124C19.9464 15.9175 19.1841 15.336 18.395 14.8493C17.9733 14.5791 17.429 14.403 16.9801 14.1736C16.8164 14.0924 16.5447 14.0518 16.4496 13.9166C16.2041 13.6197 16.0684 13.2272 15.8916 12.8754L14.7762 10.523C14.5314 9.99577 14.3813 9.4685 14.0825 8.98184C12.6811 6.68338 11.1571 5.29097 8.81721 3.92523C8.3141 3.64129 7.71555 3.51917 7.07919 3.37069L6.05893 3.31615C5.84091 3.2216 5.62351 2.96463 5.43294 2.84282C4.65753 2.35616 2.65758 1.30162 2.08586 2.6913C1.71844 3.57008 2.63014 4.43522 2.93963 4.88158C3.17137 5.19249 3.47019 5.544 3.63393 5.89551C3.7254 6.12521 3.75589 6.36884 3.85133 6.61217C4.06874 7.20701 4.27303 7.86973 4.55874 8.42427C4.7112 8.70821 4.87128 9.00608 5.06185 9.26275C5.17071 9.41426 5.36128 9.47911 5.40183 9.72244C5.21126 9.99304 5.19815 10.3982 5.0893 10.7367C4.59929 12.2645 4.78987 14.1572 5.48355 15.2821C5.70157 15.6199 6.21536 16.3639 6.9124 16.0796C7.52467 15.8363 7.38807 15.0657 7.56492 14.3897C7.60608 14.2275 7.57864 14.1194 7.66005 14.0109V14.0412L8.21805 15.1633C8.63975 15.8257 9.3746 16.5154 9.98657 16.9754C10.3128 17.2187 10.5714 17.6381 10.9794 17.7866V17.7457H10.9525C10.8708 17.6245 10.7483 17.5699 10.6394 17.4754C10.3945 17.232 10.1226 16.9345 9.93199 16.6642C9.36088 15.9072 8.85777 15.0687 8.40862 14.2036C8.19061 13.7845 8.00004 13.3248 7.82379 12.9057C7.74147 12.7433 7.74147 12.4997 7.60578 12.4191C7.40148 12.716 7.10266 12.9736 6.95234 13.3385C6.69377 13.9197 6.66694 14.6363 6.5718 15.3799C6.51692 15.3936 6.54131 15.3799 6.51692 15.4103C6.08211 15.3024 5.93209 14.8557 5.76896 14.4775C5.36098 13.5175 5.29267 11.9764 5.64638 10.8676C5.74151 10.5836 6.1501 9.69123 5.98697 9.42093C5.90464 9.16396 5.63327 9.01548 5.48325 8.81245C5.30639 8.55548 5.11643 8.23124 4.99386 7.94731C4.66759 7.18974 4.50446 6.35187 4.15046 5.5946C3.98672 5.24309 3.70131 4.87795 3.46988 4.55371C3.21131 4.18856 2.92621 3.93159 2.72192 3.49917C2.65392 3.34766 2.55879 3.10706 2.66764 2.94463C2.69448 2.83645 2.74936 2.79312 2.85761 2.76888C3.03446 2.61737 3.53818 2.80948 3.71503 2.89009C4.21815 3.09312 4.63985 3.28221 5.06155 3.56584C5.25212 3.70099 5.45642 3.95796 5.70127 4.02584H5.98727C6.4227 4.12038 6.91209 4.05614 7.31977 4.17735C8.04089 4.40765 8.69372 4.74522 9.27916 5.11067C11.0611 6.23278 12.5308 7.82822 13.5236 9.73486C13.6867 10.0458 13.7547 10.3297 13.9048 10.6542C14.1908 11.317 14.5445 11.9927 14.8296 12.6421C15.1156 13.2775 15.3876 13.9269 15.7955 14.4542C15.9998 14.7381 16.8158 14.8866 17.1829 15.0354C17.4552 15.1566 17.8766 15.2657 18.1221 15.4142C18.5843 15.6981 19.0469 16.0227 19.482 16.3336C19.6994 16.4954 20.38 16.8336 20.4205 17.1033L20.4221 17.096ZM6.54833 5.34703C6.36036 5.34538 6.17299 5.3681 5.99094 5.41461V5.44491H6.01777C6.12662 5.66127 6.3172 5.81006 6.45319 5.99945L6.76634 6.64853L6.79317 6.61823C6.98375 6.48308 7.07919 6.26672 7.07919 5.94248C6.99747 5.84793 6.98405 5.75309 6.91605 5.65854C6.83434 5.52339 6.65749 5.45552 6.54833 5.34764V5.34703Z" fill="#00678C"/>
</svg>
