<svg width="24" height="24" viewBox="0 0 24 24" fill="none" xmlns="http://www.w3.org/2000/svg">
<path d="M20.3231 13.2553C20.1313 13.2549 19.9449 13.1915 19.7925 13.0749C19.6401 12.9583 19.5302 12.795 19.4797 12.6099H21.713L22.021 12.1332H19.4797C19.5315 11.9491 19.6418 11.7869 19.794 11.6711C19.9461 11.5553 20.1319 11.4922 20.3231 11.4914H21.856L22.1713 11.011H20.2901C19.9372 11.0018 19.5944 11.1297 19.3339 11.368C19.0734 11.6062 18.9153 11.9362 18.893 12.2885C18.8707 12.6408 18.9858 12.9881 19.2142 13.2573C19.4426 13.5265 19.7665 13.6966 20.1178 13.732C20.1751 13.7357 20.2327 13.7357 20.2901 13.732H21.9L22.208 13.2553H20.3231ZM13.924 13.732C13.7369 13.7458 13.549 13.7208 13.372 13.6587C13.195 13.5965 13.0328 13.4985 12.8954 13.3709C12.758 13.2432 12.6484 13.0885 12.5734 12.9166C12.4985 12.7446 12.4598 12.5591 12.4598 12.3715C12.4598 12.184 12.4985 11.9984 12.5734 11.8265C12.6484 11.6545 12.758 11.4999 12.8954 11.3722C13.0328 11.2445 13.195 11.1465 13.372 11.0844C13.549 11.0223 13.7369 10.9973 13.924 11.011H15.8015L15.4935 11.4914H13.9606C13.7375 11.5058 13.5282 11.6046 13.3753 11.7678C13.2224 11.9309 13.1373 12.1461 13.1373 12.3697C13.1373 12.5933 13.2224 12.8085 13.3753 12.9716C13.5282 13.1347 13.7375 13.2335 13.9606 13.248H15.8455L15.5375 13.7284L13.924 13.732ZM3.98967 13.2553C4.22309 13.2553 4.44695 13.1626 4.612 12.9975C4.77705 12.8325 4.86978 12.6086 4.86978 12.3752C4.86978 12.1418 4.77705 11.9179 4.612 11.7529C4.44695 11.5878 4.22309 11.4951 3.98967 11.4951H2.46414C2.23071 11.4951 2.00685 11.5878 1.8418 11.7529C1.67675 11.9179 1.58402 12.1418 1.58402 12.3752C1.58402 12.6086 1.67675 12.8325 1.8418 12.9975C2.00685 13.1626 2.23071 13.2553 2.46414 13.2553H3.98967ZM2.46414 13.732C2.27707 13.7458 2.08918 13.7208 1.91221 13.6587C1.73523 13.5965 1.57298 13.4985 1.43557 13.3709C1.29817 13.2432 1.18857 13.0885 1.11362 12.9166C1.03868 12.7446 1 12.5591 1 12.3715C1 12.184 1.03868 11.9984 1.11362 11.8265C1.18857 11.6545 1.29817 11.4999 1.43557 11.3722C1.57298 11.2445 1.73523 11.1465 1.91221 11.0844C2.08918 11.0223 2.27707 10.9973 2.46414 11.011H4.04834C4.40125 11.0018 4.744 11.1297 5.00453 11.368C5.26507 11.6062 5.4231 11.9362 5.44542 12.2885C5.46774 12.6408 5.3526 12.9881 5.12421 13.2573C4.89581 13.5265 4.57195 13.6966 4.2207 13.732C4.1633 13.7357 4.10573 13.7357 4.04834 13.732H2.46414ZM7.96485 12.8519C8.09213 12.8633 8.2204 12.8481 8.34147 12.8072C8.46255 12.7663 8.57378 12.7006 8.66809 12.6144C8.7624 12.5281 8.83771 12.4232 8.88924 12.3063C8.94077 12.1893 8.96738 12.0629 8.96738 11.9351C8.96738 11.8073 8.94077 11.6809 8.88924 11.564C8.83771 11.4471 8.7624 11.3421 8.66809 11.2559C8.57378 11.1696 8.46255 11.104 8.34147 11.0631C8.2204 11.0222 8.09213 11.007 7.96485 11.0183H5.66555V13.7394H6.18628V11.4914H7.91717C8.03388 11.4914 8.14581 11.5378 8.22834 11.6203C8.31087 11.7028 8.35723 11.8148 8.35723 11.9315C8.35723 12.0482 8.31087 12.1601 8.22834 12.2426C8.14581 12.3252 8.03388 12.3715 7.91717 12.3715H6.45032L8.00885 13.732H8.76795L7.71915 12.8519H7.96485ZM16.6193 13.2553V11.011H16.0876V13.4643C16.0889 13.532 16.1165 13.5964 16.1646 13.644C16.1903 13.6691 16.2207 13.6888 16.254 13.702C16.2874 13.7152 16.3231 13.7217 16.3589 13.721H18.7426L19.0506 13.2443L16.6193 13.2553ZM10.2055 12.7749H11.599L10.8656 11.5904L9.50871 13.732H8.89263L10.5392 11.165C10.576 11.1138 10.6244 11.0721 10.6805 11.0434C10.7367 11.0147 10.7988 10.9998 10.8619 11C10.9245 10.9995 10.9862 11.0143 11.0418 11.043C11.0974 11.0718 11.1452 11.1137 11.1809 11.165L12.8348 13.732H12.2151L11.9254 13.2516H10.5318L10.2055 12.7749Z" fill="#EA1B22"/>
<path d="M22.6818 11.263C22.7038 11.263 22.7258 11.263 22.7368 11.241C22.7411 11.2304 22.7411 11.2186 22.7368 11.208C22.7364 11.1991 22.7338 11.1905 22.7294 11.1829C22.7249 11.1752 22.7187 11.1687 22.7111 11.164H22.6341V11.263H22.6818ZM22.6598 11.109C22.689 11.1055 22.7186 11.1055 22.7478 11.109C22.7678 11.1154 22.785 11.1282 22.797 11.1455C22.8089 11.1627 22.8148 11.1834 22.8138 11.2043C22.8138 11.2043 22.8138 11.2227 22.8138 11.23C22.8071 11.2554 22.7915 11.2775 22.7698 11.2924L22.8468 11.4354H22.7698L22.7001 11.3034H22.6341V11.4354H22.5608V11.0687L22.6598 11.109ZM22.6891 11.6297C22.7499 11.6304 22.8095 11.6132 22.8605 11.5801C22.9114 11.547 22.9515 11.4996 22.9755 11.4438C22.9996 11.388 23.0067 11.3263 22.9958 11.2665C22.9849 11.2067 22.9566 11.1515 22.9144 11.1078C22.8722 11.0641 22.818 11.0338 22.7586 11.0208C22.6993 11.0078 22.6374 11.0126 22.5808 11.0347C22.5242 11.0568 22.4754 11.0951 22.4405 11.1449C22.4056 11.1946 22.3862 11.2536 22.3848 11.3144C22.3867 11.3941 22.4194 11.4701 22.4762 11.5262C22.533 11.5823 22.6093 11.6141 22.6891 11.6151V11.6297ZM22.4508 11.3217C22.4508 11.2738 22.465 11.227 22.4916 11.1872C22.5182 11.1474 22.556 11.1164 22.6002 11.0981C22.6444 11.0798 22.6931 11.075 22.74 11.0843C22.787 11.0936 22.8301 11.1167 22.8639 11.1505C22.8978 11.1844 22.9208 11.2275 22.9302 11.2745C22.9395 11.3214 22.9347 11.3701 22.9164 11.4143C22.8981 11.4585 22.8671 11.4963 22.8273 11.5229C22.7875 11.5495 22.7407 11.5637 22.6928 11.5637C22.6296 11.5637 22.569 11.5386 22.5243 11.4939C22.4796 11.4492 22.4544 11.3886 22.4544 11.3254L22.4508 11.3217Z" fill="#EA1B22"/>
</svg>
