<svg width="24" height="24" viewBox="0 0 24 24" fill="none" xmlns="http://www.w3.org/2000/svg">
<path d="M13.273 4C11.5605 4 10.5702 4.80943 10.0925 5.36863C10.0357 4.88676 9.73394 4.26163 8.55665 4.26163H6V7.08096H7.04779C7.22506 7.08096 7.28215 7.14057 7.28215 7.32698V20.2H10.3298V15.3685C10.3298 15.238 10.3273 15.1162 10.3242 15.0071C10.8002 15.4677 11.7093 16.1018 13.1295 16.1018C16.1082 16.1018 18.1909 13.6143 18.1909 10.0514C18.1909 6.43215 16.2134 4 13.273 4ZM12.6538 13.3053C11.0131 13.3053 10.2677 11.6503 10.2677 10.117C10.2677 7.70188 11.5214 6.84107 12.6946 6.84107C14.1332 6.84107 15.1007 8.1478 15.1007 10.0944C15.1007 12.3142 13.8707 13.3053 12.6539 13.3053" fill="#231F1F"/>
<path d="M13.273 4C11.5605 4 10.5698 4.80943 10.0925 5.36846C10.0354 4.88676 9.73394 4.26163 8.55665 4.26163H6V7.08096H7.04779C7.22506 7.08096 7.28215 7.14058 7.28215 7.3268V14.5005C8.70639 13.9793 10.1392 13.4846 11.58 13.0167C10.6845 12.4767 10.2677 11.2635 10.2677 10.1167C10.2677 7.70206 11.5214 6.84107 12.6946 6.84107C14.1332 6.84107 15.1007 8.1478 15.1007 10.0944C15.1007 10.9119 14.9323 11.5604 14.6603 12.0559C15.8112 11.7123 16.9662 11.3836 18.1248 11.0699C18.1627 10.7411 18.1909 10.4025 18.1909 10.0514C18.1909 6.43215 16.2134 4 13.273 4Z" fill="#3B3B3C"/>
</svg>
