<svg width="24" height="24" viewBox="0 0 24 24" fill="none" xmlns="http://www.w3.org/2000/svg">
<path d="M13.6893 3.31093C12.9023 3.18836 12.1011 3.18836 11.3141 3.31093C10.8654 3.40597 10.4346 3.57144 10.0377 3.8012C8.75787 3.33089 7.38322 3.17719 6.03109 3.3532C5.54845 3.43418 5.08914 3.61896 4.68488 3.89478C4.28063 4.17061 3.94107 4.53091 3.68966 4.95078C3.12892 6.00809 2.90198 7.21058 3.0388 8.39953C3.1959 9.72239 3.47894 11.0272 3.88408 12.2963C4.17263 13.4176 4.61045 14.4951 5.18581 15.4999C5.49867 16.098 6.02762 16.5544 6.66505 16.7763C6.92224 16.8331 7.18915 16.8291 7.44451 16.7646C7.69987 16.7 7.93661 16.5766 8.13585 16.4043C8.33957 16.619 8.59607 16.7764 8.87969 16.8608C9.65596 17.1695 10.5209 17.1695 11.2972 16.8608C11.2464 17.9308 11.3867 19.0013 11.7114 20.0221C11.8415 20.5191 12.1403 20.9554 12.5567 21.2563C13.066 21.5387 13.657 21.6372 14.2303 21.5352C14.7345 21.4577 15.2209 21.2918 15.6673 21.0449C16.1223 20.7581 16.4791 20.3394 16.6901 19.8446C17.1115 18.7304 17.3096 17.5443 17.2733 16.3536C17.8446 16.416 18.4226 16.3612 18.972 16.1926C19.5213 16.024 20.0306 15.7452 20.4685 15.3731C20.6529 15.2393 20.797 15.0573 20.8849 14.8471C20.9729 14.6369 21.0014 14.4065 20.9672 14.1813C20.8974 13.9805 20.7637 13.8081 20.5866 13.6906C20.4095 13.573 20.1988 13.5168 19.9867 13.5304C19.5387 13.5304 19.1414 13.6994 18.6681 13.6994C19.6759 11.9984 20.385 10.1372 20.7643 8.19666C20.9502 7.38728 20.9502 6.54628 20.7643 5.73689C20.6106 5.29205 20.3424 4.89556 19.9867 4.58731C19.216 3.84775 18.2468 3.34846 17.1973 3.15033C16.0333 2.90526 14.8261 2.96053 13.6893 3.31093Z" fill="white"/>
<path d="M10.2577 15.3318C9.84352 15.5769 9.35326 15.5347 8.98133 15.746C9.40628 15.9635 9.89178 16.0325 10.3605 15.9421C10.8292 15.8518 11.2543 15.6072 11.5679 15.2473C11.6328 15.1747 11.6755 15.0849 11.6908 14.9887C11.7061 14.8926 11.6933 14.794 11.6541 14.7049C11.6149 14.6157 11.5508 14.5397 11.4696 14.486C11.3883 14.4323 11.2934 14.4032 11.196 14.402C10.7818 14.664 10.6127 15.1205 10.2577 15.3318ZM17.02 14.4865C16.8871 14.6599 16.8265 14.878 16.8509 15.0951C17.3388 15.2239 17.8502 15.2359 18.3437 15.1302C18.8371 15.0244 19.2987 14.8039 19.691 14.4865C18.9732 14.6618 18.2207 14.6325 17.5187 14.402C17.438 14.3727 17.351 14.365 17.2665 14.3799C17.1819 14.3947 17.1027 14.4315 17.0369 14.4865H17.02ZM8.70239 8.94147C8.70239 9.52471 8.70239 10.091 8.70239 10.632C8.61847 11.1187 8.61847 11.6161 8.70239 12.1028C8.77085 12.5599 8.99655 12.9788 9.34061 13.2874C9.68467 13.5959 10.1256 13.7749 10.5874 13.7934C10.7078 13.339 10.872 12.8974 11.0776 12.4747C11.5677 11.3581 11.6279 10.0998 11.2467 8.94147C11.2139 8.78101 11.1274 8.63655 11.0013 8.53202C10.8753 8.42749 10.7173 8.36915 10.5536 8.36667C9.887 8.38817 9.23983 8.59608 8.68548 8.96683L8.70239 8.94147ZM15.8028 8.49347C15.6625 8.6349 15.565 8.8131 15.5216 9.00753C15.4783 9.20196 15.4907 9.40469 15.5576 9.59233C15.9169 10.7356 16.4076 11.8334 17.02 12.8636C17.2938 12.0444 17.3232 11.1633 17.1045 10.3277C17.0963 9.65328 17.153 8.9796 17.2735 8.31596C16.7685 8.23186 16.2499 8.30258 15.7858 8.51883L15.8028 8.49347ZM6.24262 4.26706C5.87632 4.32639 5.52751 4.46539 5.2208 4.67425C4.91409 4.88311 4.65695 5.15673 4.46753 5.47581C4.02889 6.33853 3.86937 7.3163 4.01108 8.2737C4.19526 9.52253 4.4779 10.7548 4.85636 11.9591C5.11648 12.9899 5.51154 13.9818 6.0313 14.9092C6.21367 15.2591 6.5127 15.5342 6.87658 15.6868C7.24005 15.8136 7.45137 15.4924 7.65424 15.2811C8.06843 14.7401 8.55869 14.2583 8.99823 13.7173C8.67545 13.4172 8.426 13.047 8.26917 12.6351C8.11234 12.2232 8.05233 11.7808 8.09378 11.3421C8.18534 10.6586 8.21364 9.96821 8.17831 9.27958C8.12369 8.30557 8.25567 7.3301 8.56714 6.40562C8.7783 5.72127 9.14252 5.09399 9.6322 4.57136C8.52508 4.26087 7.36859 4.16617 6.22571 4.29242L6.24262 4.26706ZM11.7031 4.18253C11.3132 4.22766 10.9369 4.35311 10.5979 4.55097C10.259 4.74883 9.96466 5.01481 9.73363 5.33212C9.14515 6.20827 8.8062 7.22805 8.75311 8.28215C9.38873 7.9211 10.1242 7.77578 10.8494 7.86796C11.0734 7.93626 11.2745 8.06449 11.431 8.2388C11.5874 8.41311 11.6932 8.62685 11.7369 8.85694C11.9811 9.78093 12.0243 10.7465 11.8637 11.6886C11.6947 12.424 11.2551 13.0833 11.0861 13.861C11.2847 13.8606 11.4809 13.9038 11.6609 13.9878C11.8422 14.0855 11.9905 14.2349 12.0868 14.417C12.1831 14.5991 12.2231 14.8057 12.2019 15.0106C12.1525 16.0361 12.1667 17.0637 12.2441 18.0874C12.2593 18.5173 12.3159 18.9447 12.4132 19.3638C12.4827 19.6167 12.6118 19.8493 12.7898 20.0419C12.9678 20.2346 13.1893 20.3818 13.436 20.4711C14.0202 20.5441 14.6125 20.4286 15.1265 20.1414C15.3678 20.003 15.5712 19.8071 15.7187 19.5712C15.8661 19.3352 15.9531 19.0666 15.9718 18.789C16.1409 17.6817 16.2592 16.5828 16.386 15.4755C16.3497 15.0674 16.4196 14.6568 16.5889 14.2836C16.8255 13.9117 16.9523 13.954 17.1637 13.8272C16.9946 13.5905 16.8002 13.3369 16.6311 13.0918C15.979 12.0282 15.4568 10.8902 15.0758 9.70222C15.0055 9.43589 15.0067 9.15569 15.0794 8.89C15.1522 8.62431 15.2938 8.38254 15.49 8.18917C16.0187 7.87403 16.6371 7.74322 17.2482 7.81724C16.8753 6.82046 16.2384 5.94388 15.4055 5.2814C14.3506 4.45731 13.018 4.07269 11.6862 4.20789L11.7031 4.18253ZM14.5771 4.098C14.8222 4.26706 15.0758 4.37695 15.3125 4.54601C16.2939 5.20298 17.0633 6.13096 17.5271 7.21709C17.6931 7.5169 17.7776 7.85497 17.7723 8.19762C17.6775 8.89275 17.621 9.59258 17.6032 10.2939C17.7428 11.0369 17.7428 11.7994 17.6032 12.5424C17.5259 12.7971 17.4299 13.0457 17.3158 13.2862C17.3122 13.3284 17.3122 13.3708 17.3158 13.413L17.5609 13.0411C18.3304 11.7607 18.9219 10.3815 19.3191 8.94147C19.5455 8.15187 19.6705 7.33667 19.691 6.51551C19.7397 6.19074 19.6927 5.85884 19.5558 5.56034C19.0891 4.9829 18.4844 4.53231 17.7976 4.25016C16.7604 3.9201 15.6528 3.87919 14.594 4.13182L14.5771 4.098ZM13.6388 3.78525C14.8555 3.37229 16.1671 3.32817 17.4088 3.65846C18.4158 3.93048 19.3062 4.52414 19.9446 5.34902C20.1702 5.70136 20.2823 6.11439 20.2658 6.53242C20.2721 7.26586 20.1782 7.99672 19.9869 8.70479C19.5101 10.5808 18.7337 12.3676 17.6877 13.9963C18.2768 14.159 18.8991 14.159 19.4882 13.9963C19.7333 13.9963 20.0714 13.8695 20.2236 14.123C20.2808 14.2401 20.2952 14.3736 20.2643 14.5002C20.2334 14.6268 20.1592 14.7386 20.0545 14.8162C19.6086 15.2094 19.0757 15.4912 18.4996 15.6381C17.9235 15.7851 17.3208 15.7931 16.741 15.6615C16.6142 16.6842 16.4959 17.7155 16.3268 18.7805C16.2796 19.3738 16.0183 19.9296 15.5914 20.3443C15.149 20.6817 14.623 20.8922 14.0699 20.9529C13.7983 21.0327 13.5123 21.0506 13.2329 21.0052C12.9535 20.9599 12.6878 20.8525 12.4554 20.6909C12.0102 20.2674 11.7339 19.6967 11.6778 19.0848C11.5723 18.0487 11.5299 17.0071 11.551 15.9658C11.0464 16.3895 10.4002 16.6069 9.74208 16.5744C9.26839 16.5707 8.80866 16.4135 8.4319 16.1264C8.38388 16.0859 8.34527 16.0354 8.31879 15.9785C8.29231 15.9215 8.27859 15.8595 8.27859 15.7967C8.27859 15.7339 8.29231 15.6719 8.31879 15.6149C8.34527 15.558 8.38388 15.5075 8.4319 15.467C8.79537 15.1881 9.27718 15.2304 9.69982 15.0613C9.97959 14.935 10.2109 14.7215 10.3591 14.4527C10.0273 14.4014 9.70695 14.2927 9.41242 14.1315C8.91371 14.664 8.4319 15.2388 7.97544 15.7713C7.85509 15.9513 7.68922 16.0961 7.49472 16.1911C7.30023 16.2862 7.08403 16.328 6.86813 16.3123C6.39902 16.1759 5.99423 15.876 5.727 15.467C5.20302 14.6691 4.8013 13.7972 4.53515 12.8805C4.06752 11.4322 3.71979 9.94799 3.49545 8.44275C3.31112 7.29328 3.54184 6.11572 4.14632 5.1208C4.4192 4.74875 4.7702 4.44094 5.17469 4.21898C5.57918 3.99702 6.02736 3.86629 6.48775 3.83597C7.71622 3.74313 8.94983 3.92803 10.0971 4.37695C11.0817 3.78435 12.2606 3.60507 13.3768 3.87823C13.5036 3.80216 13.5881 3.87823 13.6642 3.80216L13.6388 3.78525Z" fill="white"/>
<path d="M15.9366 8.67911C16.063 8.60475 16.2041 8.55869 16.35 8.5441C16.4959 8.5295 16.6433 8.54673 16.7819 8.59458C16.7773 8.67499 16.753 8.75304 16.7111 8.82182C16.6692 8.8906 16.611 8.94801 16.5417 8.98895C16.4723 9.0299 16.3939 9.05312 16.3135 9.05658C16.233 9.06004 16.1529 9.04362 16.0803 9.00877C15.9789 8.96651 15.8267 8.8059 15.9366 8.67911Z" fill="white"/>
<path d="M10.1652 8.72178C10.2905 8.68385 10.4229 8.67556 10.552 8.69757C10.6811 8.71957 10.8033 8.77126 10.909 8.84857C11.0358 8.97536 10.909 9.17823 10.7822 9.22049C10.7113 9.26425 10.6309 9.29046 10.5478 9.29693C10.4647 9.30341 10.3813 9.28998 10.3044 9.25774C10.2275 9.22551 10.1595 9.17541 10.1059 9.1116C10.0522 9.04778 10.0146 8.9721 9.99609 8.89084C10.0014 8.84785 10.0209 8.80788 10.0516 8.77725C10.0822 8.74662 10.1222 8.7271 10.1652 8.72178Z" fill="white"/>
<path d="M14.5508 4.13143C15.5985 3.87788 16.6975 3.93665 17.7121 4.30048C18.4059 4.566 19.0139 5.01614 19.4703 5.60222C19.6688 5.88827 19.756 6.23695 19.7154 6.58274C19.6917 7.40361 19.5668 8.21842 19.3435 9.0087C18.9442 10.44 18.3527 11.8105 17.5853 13.083L17.3402 13.4549C17.3366 13.4098 17.3221 13.3663 17.2979 13.3281C17.412 13.0876 17.5081 12.839 17.5853 12.5842C17.7151 11.8389 17.7008 11.0757 17.5431 10.3358C17.5557 9.63418 17.6122 8.93405 17.7121 8.23949C17.708 7.89801 17.6241 7.56222 17.467 7.25897C16.9861 6.19475 16.2195 5.28476 15.2524 4.63014C15.0407 4.43469 14.8049 4.2671 14.5508 4.13143Z" fill="#336791"/>
<path d="M11.6856 4.20728C12.9809 4.05346 14.2857 4.40463 15.3288 5.1878C16.1853 5.84706 16.8291 6.74361 17.18 7.76591C16.5657 7.67819 15.9401 7.80988 15.4133 8.13783C15.2148 8.32954 15.0722 8.57161 15.0008 8.83813C14.9293 9.10466 14.9316 9.3856 15.0076 9.65089C15.3586 10.8579 15.8703 12.0122 16.5291 13.0827C16.673 13.3527 16.8552 13.6004 17.0701 13.8181C16.8249 13.9449 16.6136 14.021 16.4868 14.2746C16.3809 14.6612 16.3157 15.0578 16.2924 15.458C16.1656 16.5653 16.0473 17.6726 15.8782 18.7799C15.8539 19.056 15.7647 19.3225 15.6178 19.5575C15.4709 19.7925 15.2705 19.9895 15.0329 20.1324C14.5121 20.3999 13.9251 20.5114 13.3424 20.4536C13.0807 20.3924 12.8434 20.2542 12.6611 20.0568C12.4788 19.8594 12.3598 19.6119 12.3196 19.3463C12.2355 18.9278 12.1791 18.5042 12.1505 18.0783C12.1083 17.0556 12.1083 16.0243 12.1083 15.0015C12.1292 14.7976 12.0899 14.5921 11.9953 14.4103C11.9006 14.2285 11.7548 14.0785 11.5757 13.9787C11.3941 13.891 11.1942 13.8475 10.9925 13.8519C11.1615 13.1081 11.6095 12.4572 11.7786 11.6796C11.9463 10.742 11.9117 9.77944 11.6772 8.85632C11.6282 8.62549 11.5173 8.41231 11.3565 8.2396C11.1957 8.06689 10.991 7.94114 10.7643 7.8758C10.0396 7.76454 9.29879 7.90793 8.66797 8.28153C8.72603 7.22837 9.06456 6.20987 9.6485 5.3315C10.1648 4.71726 10.8907 4.31662 11.6856 4.20728Z" fill="#336791"/>
<path d="M6.22664 4.29298C7.36343 4.14091 8.51994 4.25078 9.60776 4.61419C9.12114 5.13814 8.76494 5.76946 8.56807 6.4569C8.28026 7.38939 8.15447 8.36431 8.19614 9.33931C8.25249 10.0249 8.2241 10.7147 8.11161 11.3933C8.06277 11.8339 8.1193 12.2798 8.27655 12.6942C8.4338 13.1086 8.68726 13.4798 9.01606 13.777C8.56807 14.3096 8.11161 14.7914 7.67207 15.3324C7.4692 15.5775 7.21562 15.8311 6.89441 15.7465C6.52914 15.5918 6.22993 15.3135 6.04913 14.9604C5.51328 14.0349 5.10121 13.0431 4.82347 12.0104C4.43612 10.8086 4.1533 9.5755 3.97819 8.32497C3.83254 7.37029 3.9923 6.39401 4.43464 5.53554C4.62485 5.21045 4.88377 4.93081 5.19329 4.71619C5.50282 4.50156 5.85548 4.35713 6.22664 4.29298Z" fill="#336791"/>
<path d="M15.9385 8.6784C15.8118 8.80519 15.9385 8.96579 16.0653 9.00806C16.1379 9.0429 16.218 9.05932 16.2985 9.05586C16.379 9.05241 16.4573 9.02918 16.5267 8.98824C16.596 8.94729 16.6542 8.88989 16.6961 8.82111C16.738 8.75232 16.7624 8.67428 16.7669 8.59387C16.6307 8.54854 16.4865 8.53264 16.3437 8.54721C16.2009 8.56178 16.0628 8.6065 15.9385 8.6784ZM15.7695 8.51779C16.2111 8.28745 16.7184 8.21583 17.2065 8.31493C17.0897 8.97907 17.0331 9.65239 17.0374 10.3267C17.2318 11.1648 17.2027 12.0393 16.9529 12.8625C16.3145 11.8595 15.8328 10.7649 15.5244 9.61666C15.4879 9.42538 15.4924 9.22855 15.5376 9.03913C15.5827 8.84972 15.6675 8.67204 15.7864 8.51779H15.7695Z" fill="#336791"/>
<path d="M10.1635 8.72028C10.079 8.72028 9.99447 8.80481 9.99447 8.88934C10.0112 8.97169 10.0478 9.0487 10.1012 9.11366C10.1545 9.17863 10.2228 9.22957 10.3003 9.26207C10.3778 9.29457 10.4621 9.30764 10.5458 9.30013C10.6295 9.29262 10.7101 9.26477 10.7806 9.219C10.9074 9.13447 11.0173 8.97387 10.9074 8.84708C10.8017 8.76977 10.6795 8.71807 10.5504 8.69607C10.4213 8.67407 10.2889 8.68236 10.1635 8.72028ZM8.69274 8.96542C9.20838 8.60281 9.82066 8.40265 10.4509 8.39062C10.6147 8.3931 10.7726 8.45143 10.8987 8.55597C11.0248 8.6605 11.1113 8.80496 11.144 8.96542C11.5039 10.1265 11.4441 11.3772 10.975 12.4987C10.7693 12.9214 10.6051 13.363 10.4847 13.8173C10.0241 13.8052 9.5818 13.6346 9.23228 13.3343C8.88277 13.0341 8.64744 12.6225 8.56594 12.169C8.51649 11.679 8.5307 11.1846 8.60821 10.6982C8.60821 10.1995 8.60821 9.54866 8.60821 9.00768L8.69274 8.96542Z" fill="#336791"/>
<path d="M17.0188 14.5114C17.1456 14.4269 17.34 14.3085 17.5091 14.4269C18.2069 14.6798 18.9661 14.7094 19.6815 14.5114C19.2147 14.9036 18.64 15.1453 18.0332 15.2045C17.6383 15.2836 17.2294 15.2544 16.8498 15.12C16.8343 15.0124 16.8414 14.9027 16.8705 14.798C16.8996 14.6932 16.9501 14.5956 17.0188 14.5114Z" fill="#336791"/>
<path d="M10.2575 15.3305C10.6294 15.1276 10.7984 14.6796 11.1619 14.426C11.5338 14.3838 11.8635 14.9586 11.5338 15.2713C11.2256 15.639 10.8002 15.8892 10.3291 15.9801C9.85805 16.0709 9.37007 15.9967 8.94727 15.77C9.39497 15.6585 9.83308 15.5116 10.2575 15.3305Z" fill="#336791"/>
<path d="M13.7336 3.79542C13.6491 3.79542 13.5308 3.75315 13.4462 3.75315C12.3301 3.47906 11.1508 3.65838 10.1666 4.25187C9.02036 3.79895 7.78582 3.61391 6.55721 3.71089C6.09867 3.74516 5.65269 3.87672 5.24897 4.0968C4.84524 4.31688 4.49303 4.62044 4.21578 4.98726C3.64358 6.00035 3.42359 7.17462 3.59027 8.32613C3.80372 9.82635 4.14592 11.3054 4.61306 12.7469C4.89218 13.6588 5.29308 14.5289 5.80491 15.3335C5.92709 15.545 6.09142 15.7292 6.28772 15.8746C6.48401 16.02 6.70808 16.1236 6.94604 16.1788C7.15983 16.1896 7.37278 16.1447 7.56395 16.0484C7.75513 15.952 7.91796 15.8076 8.03645 15.6294C8.53516 15.0546 8.99162 14.5305 9.47343 13.9895C9.79658 14.14 10.142 14.237 10.4962 14.2769C10.2933 14.5136 10.1243 14.8094 9.8369 14.8855C9.39095 14.938 8.95992 15.0788 8.56898 15.2997C8.52112 15.3394 8.48259 15.3891 8.45615 15.4453C8.42971 15.5016 8.416 15.563 8.416 15.6251C8.416 15.6873 8.42971 15.7487 8.45615 15.8049C8.48259 15.8612 8.52112 15.9109 8.56898 15.9506C8.94455 16.2399 9.40505 16.3974 9.87916 16.3986C10.2061 16.4232 10.5346 16.3821 10.8453 16.2775C11.156 16.173 11.4426 16.0072 11.6881 15.79C11.667 16.8313 11.7093 17.8729 11.8149 18.909C11.8318 19.2149 11.9093 19.5143 12.0428 19.79C12.1763 20.0656 12.3631 20.3121 12.5925 20.5151C12.8184 20.6844 13.0774 20.8042 13.3526 20.8668C13.6279 20.9294 13.9132 20.9334 14.1901 20.8786C14.7402 20.8063 15.2634 20.597 15.7116 20.27C16.1323 19.8509 16.3925 19.2975 16.447 18.7062C16.6161 17.6834 16.7344 16.6521 16.8612 15.5871C17.4413 15.7093 18.0418 15.6967 18.6163 15.5501C19.1908 15.4036 19.724 15.127 20.1747 14.7418C20.3437 14.5728 20.5466 14.2515 20.3437 14.0487C20.2413 13.9683 20.1204 13.9146 19.9921 13.8925C19.8637 13.8703 19.7318 13.8804 19.6084 13.9219C19.026 14.1289 18.3902 14.1289 17.8079 13.9219C18.8569 12.2978 19.6335 10.5133 20.1071 8.63888C20.284 7.93089 20.3776 7.20466 20.386 6.47496C20.3831 6.05668 20.2725 5.6462 20.0648 5.28311C19.4264 4.45823 18.5359 3.86457 17.529 3.59255C16.2635 3.39542 14.9709 3.46451 13.7336 3.79542ZM13.7759 3.30515C14.8944 2.98995 16.0675 2.91789 17.2162 3.09383C18.2737 3.2706 19.2508 3.76949 20.0141 4.52236C20.3636 4.83604 20.6306 5.23081 20.7917 5.67194C20.9778 6.48417 20.9778 7.32794 20.7917 8.14016C20.3994 10.077 19.6912 11.936 18.6954 13.6429C19.1434 13.6429 19.5407 13.5162 20.0141 13.4739C20.2286 13.4457 20.446 13.4961 20.6262 13.6158C20.8064 13.7354 20.9373 13.9162 20.9946 14.1248C21.0144 14.3515 20.9794 14.5796 20.8927 14.7899C20.8059 15.0003 20.6698 15.1867 20.4959 15.3335C19.574 16.0536 18.4164 16.4033 17.25 16.314C17.2655 17.5004 17.068 18.68 16.6668 19.7966C16.4447 20.2796 16.0937 20.692 15.6524 20.9884C15.2109 21.2477 14.7226 21.4171 14.2155 21.4872C13.6521 21.5947 13.0688 21.4925 12.5756 21.1998C12.1545 20.9036 11.8543 20.4654 11.7303 19.9657C11.4558 18.9345 11.3194 17.8714 11.3246 16.8043C10.5453 17.1127 9.67789 17.1127 8.89864 16.8043C8.61894 16.7209 8.36559 16.5666 8.16324 16.3563C7.95941 16.5234 7.72076 16.6428 7.46481 16.7057C7.20885 16.7685 6.94206 16.7734 6.684 16.7198C6.05593 16.4855 5.53361 16.0322 5.21321 15.4434C4.63403 14.4415 4.19061 13.367 3.89457 12.2482C3.50774 10.9715 3.22505 9.66547 3.04929 8.34303C2.89022 7.1561 3.11849 5.94953 3.70016 4.90274C4.24961 4.08802 5.09608 3.52067 6.05849 3.32206C7.40933 3.11622 8.78994 3.24094 10.082 3.68553C10.4852 3.4692 10.9141 3.30448 11.3584 3.19527C12.1688 3.1128 12.987 3.15556 13.7844 3.32206L13.7759 3.30515Z" fill="black"/>
</svg>
