<svg width="24" height="24" viewBox="0 0 24 24" fill="none" xmlns="http://www.w3.org/2000/svg">
<path d="M12.25 4.70713C12.1658 4.62273 12.099 4.52243 12.0534 4.41197C12.0078 4.30152 11.9844 4.18308 11.9844 4.06347C11.9844 3.94386 12.0078 3.82542 12.0534 3.71497C12.099 3.60451 12.1658 3.5042 12.25 3.4198C12.3338 3.33504 12.4334 3.26777 12.5431 3.22187C12.6528 3.17598 12.7704 3.15235 12.8892 3.15234C13.008 3.15234 13.1257 3.17596 13.2354 3.22186C13.3451 3.26775 13.4447 3.33501 13.5285 3.41977C13.8827 3.77635 13.8827 4.35051 13.5285 4.70709C13.1744 5.06368 12.6041 5.06368 12.25 4.70713ZM14.6636 7.28043C14.2702 6.8844 14.2702 6.24677 14.6636 5.85074C15.0569 5.45471 15.6901 5.45471 16.0835 5.85071C16.4768 6.24671 16.4768 6.88436 16.0835 7.2804C15.6902 7.67643 15.0568 7.67643 14.6636 7.28043ZM17.0771 9.85373C16.6444 9.41803 16.6444 8.71652 17.0771 8.2808C17.5099 7.84507 18.2065 7.8451 18.6393 8.2808C19.0721 8.71649 19.0721 9.418 18.6394 9.8537C18.2067 10.2894 17.5099 10.2894 17.0771 9.85373ZM19.489 12.4244C19.0171 11.9492 19.0171 11.1842 19.489 10.7091C19.9609 10.234 20.7207 10.2339 21.1926 10.709C21.3044 10.8217 21.3932 10.9554 21.4537 11.1025C21.5142 11.2497 21.5454 11.4074 21.5454 11.5667C21.5454 11.726 21.5143 11.8837 21.4537 12.0308C21.3932 12.178 21.3045 12.3117 21.1926 12.4243C21.0807 12.5369 20.948 12.6263 20.8018 12.6872C20.6557 12.7482 20.499 12.7796 20.3408 12.7796C20.1826 12.7796 20.026 12.7482 19.8798 12.6873C19.7337 12.6263 19.6009 12.537 19.489 12.4244Z" fill="#5B87DA"/>
<path d="M7.35322 4.63566C7.27841 4.56065 7.21905 4.4715 7.17854 4.37333C7.13804 4.27517 7.11719 4.16991 7.11719 4.06361C7.11719 3.95731 7.13804 3.85205 7.17854 3.75388C7.21905 3.65571 7.27841 3.56657 7.35322 3.49156C7.42772 3.41623 7.51626 3.35646 7.61375 3.31568C7.71125 3.2749 7.81579 3.25391 7.92137 3.25391C8.02695 3.25391 8.13148 3.2749 8.22898 3.31568C8.32648 3.35646 8.41502 3.41623 8.48952 3.49156C8.56433 3.56657 8.62368 3.65571 8.66418 3.75388C8.70469 3.85204 8.72554 3.95729 8.72554 4.06359C8.72554 4.16989 8.70469 4.27514 8.66418 4.37331C8.62368 4.47147 8.56433 4.56062 8.48952 4.63563C8.41502 4.71096 8.32649 4.77073 8.22899 4.81151C8.13149 4.8523 8.02695 4.87329 7.92138 4.8733C7.8158 4.8733 7.71126 4.85231 7.61376 4.81153C7.51626 4.77075 7.42772 4.71098 7.35322 4.63566ZM9.76679 7.20982C9.68213 7.12545 9.61486 7.02507 9.56885 6.91444C9.52283 6.80381 9.49899 6.68512 9.49868 6.56518C9.49837 6.44524 9.52161 6.32643 9.56705 6.21556C9.61249 6.10469 9.67924 6.00396 9.76347 5.91915C9.8477 5.83434 9.94774 5.76713 10.0579 5.72137C10.168 5.67561 10.286 5.65222 10.4051 5.65253C10.5242 5.65283 10.6421 5.67684 10.752 5.72317C10.8618 5.76949 10.9615 5.83722 11.0453 5.92246C11.1295 6.00686 11.1963 6.10716 11.2419 6.21762C11.2875 6.32807 11.311 6.44651 11.311 6.56612C11.311 6.68573 11.2875 6.80417 11.2419 6.91462C11.1963 7.02508 11.1295 7.12539 11.0454 7.20979C10.6912 7.56637 10.121 7.56637 9.76679 7.20982Z" fill="#1EDCFF"/>
<path fill-rule="evenodd" clip-rule="evenodd" d="M12.1798 9.77945C11.7864 9.38342 11.7864 8.7458 12.1797 8.34976C12.573 7.95373 13.2063 7.95373 13.5997 8.34973C13.993 8.74574 13.993 9.38339 13.5997 9.77942C13.2064 10.1755 12.5731 10.1755 12.1798 9.77945Z" fill="#1EDCFF"/>
<path d="M14.5921 12.3528C14.1594 11.9171 14.1594 11.2156 14.5921 10.7799C15.0249 10.3442 15.7215 10.3442 16.1543 10.7799C16.5871 11.2156 16.587 11.917 16.1543 12.3528C15.7216 12.7885 15.0249 12.7885 14.5921 12.3528ZM17.0062 14.9274C16.5343 14.4523 16.5343 13.6873 17.0062 13.2122C17.4781 12.737 18.2379 12.737 18.7098 13.2121C18.8216 13.3248 18.9104 13.4585 18.9709 13.6056C19.0314 13.7528 19.0626 13.9105 19.0626 14.0698C19.0626 14.229 19.0314 14.3868 18.9709 14.5339C18.9104 14.6811 18.8216 14.8148 18.7098 14.9274C18.5979 15.04 18.4651 15.1294 18.319 15.1903C18.1728 15.2513 18.0162 15.2827 17.858 15.2827C17.6998 15.2827 17.5432 15.2513 17.397 15.1903C17.2509 15.1294 17.1181 15.0401 17.0062 14.9274Z" fill="#1EDCFF"/>
<path d="M2.46061 4.56724C2.185 4.28977 2.185 3.84297 2.46061 3.5655C2.52584 3.49955 2.60337 3.44722 2.68874 3.41151C2.7741 3.37581 2.86563 3.35742 2.95807 3.35742C3.05052 3.35742 3.14205 3.3758 3.22742 3.4115C3.31279 3.4472 3.39031 3.49952 3.45555 3.56547C3.52105 3.63115 3.57302 3.70921 3.60848 3.79516C3.64394 3.88112 3.66219 3.97328 3.66219 4.06635C3.66219 4.15943 3.64394 4.25159 3.60848 4.33754C3.57302 4.4235 3.52105 4.50156 3.45555 4.56724C3.17997 4.84471 2.73625 4.84474 2.46064 4.56724H2.46061ZM4.87022 7.13566C4.79506 7.06066 4.73536 6.97145 4.69453 6.87316C4.65371 6.77486 4.63257 6.66941 4.63234 6.56287C4.6321 6.45633 4.65277 6.35079 4.69315 6.25231C4.73354 6.15383 4.79284 6.06435 4.86766 5.98902C4.94249 5.91368 5.03135 5.85396 5.12916 5.8133C5.22696 5.77263 5.33178 5.75182 5.4376 5.75206C5.54342 5.75229 5.64814 5.77357 5.74577 5.81467C5.8434 5.85577 5.932 5.91588 6.00649 5.99156C6.08165 6.06656 6.14135 6.15576 6.18217 6.25406C6.223 6.35235 6.24413 6.4578 6.24437 6.56434C6.24461 6.67089 6.22394 6.77643 6.18356 6.87491C6.14317 6.97338 6.08387 7.06286 6.00904 7.1382C5.93422 7.21354 5.84536 7.27325 5.74755 7.31392C5.64974 7.35458 5.54492 7.37539 5.43911 7.37516C5.33329 7.37492 5.22856 7.35364 5.13094 7.31254C5.03331 7.27144 4.94471 7.21133 4.87022 7.13566ZM7.28546 9.71119C7.20151 9.62667 7.13491 9.52632 7.08948 9.41588C7.04404 9.30544 7.02065 9.18707 7.02065 9.06753C7.02064 8.82612 7.11589 8.59458 7.28543 8.42387C7.36938 8.33934 7.46904 8.27229 7.57873 8.22654C7.68841 8.18079 7.80597 8.15724 7.9247 8.15724C8.16447 8.15723 8.39442 8.25313 8.56397 8.42384C8.91813 8.78042 8.91813 9.35458 8.56401 9.71116C8.20988 10.0677 7.63961 10.0677 7.28546 9.71119Z" fill="black"/>
<path fill-rule="evenodd" clip-rule="evenodd" d="M9.69735 12.2834C9.30401 11.8873 9.30401 11.2497 9.69732 10.8537C10.0906 10.4576 10.7239 10.4576 11.1173 10.8536C11.5106 11.2496 11.5106 11.8873 11.1173 12.2833C10.724 12.6794 10.0907 12.6794 9.69735 12.2834Z" fill="black"/>
<path d="M12.1097 14.8548C11.677 14.4191 11.6769 13.7176 12.1097 13.2819C12.5425 12.8461 13.2392 12.8462 13.6719 13.2819C14.1046 13.7176 14.1046 14.419 13.6719 14.8548C13.2392 15.2905 12.5424 15.2905 12.1097 14.8548ZM14.5207 17.4237C14.0488 16.9486 14.0488 16.1836 14.5207 15.7084C14.9926 15.2333 15.7524 15.2333 16.2242 15.7084C16.3367 15.8209 16.426 15.9546 16.4871 16.1019C16.5481 16.2493 16.5797 16.4073 16.5799 16.5669C16.5802 16.7265 16.5492 16.8846 16.4886 17.0321C16.4281 17.1796 16.3392 17.3137 16.2271 17.4266C16.115 17.5394 15.9819 17.6289 15.8354 17.6899C15.6889 17.7508 15.5319 17.7821 15.3733 17.7818C15.2148 17.7815 15.0579 17.7498 14.9116 17.6883C14.7652 17.6269 14.6324 17.5369 14.5207 17.4237Z" fill="black"/>
<path d="M7.35427 14.6371C7.03948 14.3202 7.03948 13.8098 7.35424 13.4929C7.42886 13.4177 7.51744 13.3581 7.61494 13.3175C7.71243 13.2768 7.81693 13.2559 7.92246 13.2559C8.02799 13.2559 8.13249 13.2768 8.22998 13.3174C8.32748 13.3581 8.41607 13.4177 8.49069 13.4928C8.56532 13.568 8.62451 13.6572 8.6649 13.7553C8.70528 13.8535 8.72607 13.9587 8.72608 14.0649C8.72608 14.1712 8.7053 14.2764 8.66491 14.3746C8.62453 14.4728 8.56534 14.5619 8.49072 14.6371C8.17557 14.954 7.66909 14.9544 7.35427 14.6371ZM4.87106 17.1375C4.55627 16.8205 4.55627 16.3102 4.87106 15.9932C4.94561 15.9178 5.03421 15.8579 5.13178 15.817C5.22936 15.7761 5.33399 15.755 5.43968 15.7548C5.54538 15.7547 5.65006 15.7756 5.74773 15.8162C5.84541 15.8569 5.93415 15.9166 6.00889 15.9918C6.08363 16.0671 6.14289 16.1564 6.18327 16.2548C6.22366 16.3531 6.24438 16.4585 6.24425 16.5649C6.24412 16.6714 6.22314 16.7767 6.18251 16.8749C6.14188 16.9732 6.0824 17.0624 6.00748 17.1375C5.93298 17.2128 5.84444 17.2726 5.74693 17.3134C5.64942 17.3542 5.54487 17.3752 5.43927 17.3752C5.33368 17.3752 5.22913 17.3542 5.13162 17.3134C5.03411 17.2726 4.94556 17.2128 4.87106 17.1375ZM2.38845 19.6394C2.31362 19.5644 2.25424 19.4752 2.21372 19.3771C2.1732 19.2789 2.15234 19.1736 2.15234 19.0673C2.15234 18.961 2.1732 18.8557 2.21372 18.7575C2.25424 18.6593 2.31362 18.5702 2.38845 18.4951C2.46295 18.4198 2.5515 18.36 2.64901 18.3192C2.74652 18.2784 2.85107 18.2574 2.95666 18.2574C3.06225 18.2574 3.16681 18.2784 3.26432 18.3192C3.36183 18.36 3.45037 18.4198 3.52487 18.4951C3.5997 18.5702 3.65908 18.6593 3.6996 18.7575C3.74012 18.8557 3.76098 18.9609 3.76098 19.0673C3.76098 19.1736 3.74013 19.2788 3.69962 19.377C3.6591 19.4752 3.59973 19.5644 3.5249 19.6394C3.21015 19.9563 2.70327 19.9567 2.38845 19.6394ZM7.35451 19.638C7.03972 19.3211 7.03972 18.8108 7.35451 18.4938C7.42913 18.4186 7.51772 18.359 7.61521 18.3184C7.71271 18.2777 7.8172 18.2568 7.92273 18.2568C8.02826 18.2568 8.13275 18.2777 8.23025 18.3184C8.32774 18.359 8.41633 18.4186 8.49095 18.4938C8.56557 18.5689 8.62476 18.6581 8.66515 18.7562C8.70553 18.8544 8.72632 18.9596 8.72632 19.0659C8.72632 19.1721 8.70554 19.2773 8.66516 19.3755C8.62477 19.4737 8.56558 19.5629 8.49097 19.638C8.17618 19.9549 7.66933 19.9553 7.35451 19.638ZM12.3218 19.6399C12.0071 19.3225 12.0071 18.8126 12.3218 18.4956C12.6366 18.1786 13.1435 18.1787 13.4583 18.4956C13.5331 18.5706 13.5925 18.6598 13.633 18.7579C13.6735 18.8561 13.6944 18.9614 13.6944 19.0677C13.6944 19.174 13.6735 19.2793 13.633 19.3775C13.5925 19.4757 13.5331 19.5648 13.4583 19.6398C13.1435 19.9568 12.6367 19.9571 12.3218 19.6399ZM9.83724 17.137C9.52245 16.8197 9.52245 16.3098 9.83724 15.9928C9.91179 15.9173 10.0004 15.8575 10.098 15.8165C10.1955 15.7756 10.3002 15.7545 10.4059 15.7544C10.5116 15.7543 10.6162 15.7751 10.7139 15.8158C10.8116 15.8564 10.9003 15.9161 10.9751 15.9914C11.0498 16.0666 11.1091 16.156 11.1495 16.2543C11.1898 16.3527 11.2106 16.4581 11.2104 16.5645C11.2103 16.6709 11.1893 16.7762 11.1487 16.8745C11.1081 16.9727 11.0486 17.0619 10.9737 17.137C10.8992 17.2124 10.8106 17.2721 10.7131 17.3129C10.6156 17.3537 10.511 17.3747 10.4055 17.3747C10.2999 17.3747 10.1953 17.3537 10.0978 17.3129C10.0003 17.2722 9.91174 17.2124 9.83724 17.137Z" fill="#5B87DA"/>
</svg>
