<svg width="24" height="24" viewBox="0 0 24 24" fill="none" xmlns="http://www.w3.org/2000/svg">
<path d="M1.00193 16.5941C1.00193 17.1204 1.06463 17.1823 1.57316 17.1823C4.37051 17.1831 7.16708 17.1831 9.96443 17.1823C10.4606 17.1823 10.5202 17.1243 10.5202 16.6243C10.5225 13.9562 10.5264 11.2881 10.5109 8.62C10.5093 8.41333 10.3646 8.20667 10.2857 8C7.26693 8 4.24821 8 1.2295 8C1.15287 8.22215 1.01199 8.44429 1.01044 8.66721C0.995738 11.309 1.00038 13.9515 1.00193 16.5941ZM6.72821 11.0775C7.04169 11.0706 7.16321 11.1642 7.15392 11.4947C7.13303 12.2285 7.15625 12.9639 7.14309 13.6984C7.13767 13.9724 7.20811 14.0862 7.50843 14.0893C8.66483 14.1017 8.66483 14.111 8.66483 12.9399C8.66483 12.4631 8.68341 11.9855 8.66019 11.5095C8.63929 11.0783 8.89472 11.0853 9.20588 11.0783C9.51936 11.0714 9.64863 11.165 9.63082 11.4955C9.62463 11.6078 9.62154 11.7208 9.61999 11.833C9.61457 12.1713 9.6254 12.5103 9.6254 12.8485C9.6254 13.2224 9.6254 13.5962 9.6254 13.9701C9.6254 14.7457 9.25619 15.1219 8.49222 15.1226C8.11837 15.1226 7.74451 15.1226 7.37065 15.1226C6.60591 15.1219 6.18948 14.7085 6.18793 13.9461C6.18639 13.1341 6.20341 12.3222 6.18252 11.5102C6.17091 11.0783 6.41705 11.0845 6.72821 11.0775ZM2.00043 10.8275C2.00275 10.2517 2.47027 9.79265 3.0384 9.79188C3.66769 9.79111 4.2962 9.78878 4.92549 9.78956C5.47892 9.79033 5.94334 10.2478 5.94644 10.8105C5.95263 11.8926 5.9565 12.9755 5.94179 14.0576C5.9387 14.2766 5.84736 14.4933 5.78389 14.7673C5.7986 14.7852 5.84581 14.8641 5.91161 14.9198C6.14459 15.1172 6.11363 15.2759 5.90154 15.4849C5.68249 15.7008 5.51917 15.7736 5.32799 15.4756C5.11823 15.1489 4.81635 15.0584 4.43476 15.0839C3.97575 15.1149 3.51366 15.0917 3.05234 15.0917C2.45401 15.0917 2.0012 14.642 1.99966 14.0359C1.99656 12.9662 1.99578 11.8965 2.00043 10.8275Z" fill="#0A74B6"/>
<path d="M13.6122 11.4591C13.1036 11.4583 12.5951 11.4591 12.0362 11.4591C12.1872 10.843 11.9116 10.49 11.431 10.1719C11.431 11.6325 11.4263 13.0381 11.4348 14.443C11.4371 14.7696 11.8443 15.1319 12.1763 15.1342C12.6795 15.1381 13.1826 15.1373 13.6857 15.1342C14.1215 15.1319 14.4559 14.7998 14.4574 14.3671C14.4597 13.6837 14.459 12.9994 14.4582 12.3159C14.4574 11.7826 14.1393 11.4606 13.6122 11.4591ZM13.7871 14.477C13.2089 14.477 12.6617 14.477 12.0897 14.477C12.0897 13.6906 12.0897 12.9259 12.0897 12.1309C12.6524 12.1309 13.2089 12.1309 13.7871 12.1309C13.7871 12.9158 13.7871 13.6922 13.7871 14.477Z" fill="black"/>
<path d="M22.1513 11.4488C21.7388 11.4481 21.327 11.445 20.9144 11.4504C20.5251 11.4558 20.1946 11.7894 20.1923 12.1834C20.1876 12.8793 20.1899 13.5751 20.1907 14.2702C20.1915 14.8569 20.4686 15.1371 21.0476 15.1387C21.3827 15.1394 21.7218 15.1046 22.0515 15.1479C22.5484 15.2137 22.7698 14.9475 22.9494 14.49C22.2171 14.49 21.519 14.49 20.8339 14.49C20.8339 14.175 20.8339 13.911 20.8339 13.6277C21.2124 13.6277 21.5592 13.6277 21.9067 13.6277C22.252 13.6277 22.5972 13.6277 22.9587 13.6277C22.9803 13.5271 22.995 13.49 22.9958 13.4528C22.9989 13.0666 23.0005 12.6803 22.9997 12.2933C22.9981 11.7407 22.7063 11.4504 22.1513 11.4488ZM22.3828 12.9427C21.8704 12.9427 21.3649 12.9427 20.8308 12.9427C20.8308 12.6827 20.8308 12.4203 20.8308 12.1145C21.358 12.1145 21.8549 12.1145 22.3828 12.1145C22.3828 12.387 22.3828 12.6494 22.3828 12.9427Z" fill="black"/>
<path d="M18.2583 12.2223C18.2544 11.7772 17.9363 11.4544 17.4935 11.4521C16.9532 11.4483 16.4122 11.4483 15.8719 11.4521C15.4508 11.4552 15.1281 11.7764 15.1265 12.1991C15.1234 12.9065 15.1258 13.6132 15.1273 14.3207C15.1281 14.861 15.4083 15.1435 15.9455 15.1442C16.4215 15.145 16.8975 15.145 17.3735 15.1442C17.9889 15.1442 18.2575 14.878 18.2583 14.268C18.2583 13.9592 18.2583 13.6504 18.2583 13.3415C18.2583 12.9684 18.2606 12.5954 18.2583 12.2223ZM17.6282 14.4801C16.9974 14.4801 16.3874 14.4801 15.7504 14.4801C15.7504 13.7015 15.7504 12.9359 15.7504 12.1395C16.3665 12.1395 16.9757 12.1395 17.6282 12.1395C17.6282 12.9267 17.6282 13.6914 17.6282 14.4801Z" fill="black"/>
<path d="M18.9609 10.2246C18.9609 11.8779 18.9609 13.4918 18.9609 15.1049C19.1645 15.1049 19.3348 15.1049 19.5399 15.1049C19.5399 14.933 19.5399 14.7937 19.5399 14.6536C19.5399 13.5467 19.5136 12.4391 19.5515 11.333C19.5686 10.8353 19.3898 10.5048 18.9609 10.2246Z" fill="black"/>
<path d="M3.0552 15.0913C3.51575 15.0913 3.97862 15.1153 4.43762 15.0836C4.81921 15.058 5.12108 15.1486 5.33085 15.4752C5.52203 15.7725 5.68535 15.6997 5.9044 15.4845C6.11649 15.2755 6.14745 15.1161 5.91447 14.9195C5.8479 14.8638 5.80068 14.7848 5.78675 14.767C5.85022 14.4938 5.94156 14.2763 5.94465 14.0572C5.95936 12.9751 5.95549 11.8923 5.9493 10.8102C5.9462 10.2474 5.48178 9.78999 4.92835 9.78922C4.29906 9.78844 3.67055 9.79077 3.04126 9.79154C2.4739 9.79231 2.00639 10.2513 2.00329 10.8272C1.99865 11.8969 1.99942 12.9658 2.00252 14.0356C2.00406 14.6416 2.45687 15.0906 3.0552 15.0913ZM3.30831 10.8117C3.74563 10.8295 4.18373 10.8241 4.62106 10.8133C4.85327 10.8078 4.94461 10.9007 4.94306 11.1306C4.93764 12.0192 4.93841 12.907 4.94228 13.7956C4.94306 14.0046 4.86333 14.1021 4.64738 14.0982C4.18373 14.0913 3.72086 14.0897 3.25722 14.0975C3.04436 14.1006 2.9569 14.0208 2.96231 13.8026C2.97315 13.3397 2.96541 12.8761 2.96464 12.4124C2.96386 12.0006 2.97547 11.5881 2.95999 11.1771C2.9507 10.9162 3.02888 10.8001 3.30831 10.8117Z" fill="white"/>
<path d="M6.18823 13.9451C6.189 14.7075 6.6062 15.1208 7.37095 15.1216C7.7448 15.1216 8.11866 15.1216 8.49251 15.1216C9.25571 15.1208 9.6257 14.7454 9.6257 13.9691C9.6257 13.5952 9.6257 13.2214 9.6257 12.8475C9.6257 12.5093 9.61563 12.1702 9.62028 11.832C9.62183 11.719 9.62569 11.6067 9.63111 11.4945C9.64892 11.164 9.52043 11.0703 9.20617 11.0773C8.89501 11.0843 8.63958 11.0781 8.66048 11.5084C8.6837 11.9845 8.66512 12.462 8.66512 12.9388C8.66512 14.11 8.66512 14.0999 7.50872 14.0883C7.2084 14.0852 7.13796 13.9714 7.14338 13.6974C7.15731 12.9628 7.13332 12.2275 7.15422 11.4937C7.1635 11.164 7.04276 11.0696 6.7285 11.0765C6.41734 11.0835 6.17042 11.0781 6.18203 11.5084C6.20371 12.3212 6.18745 13.1331 6.18823 13.9451Z" fill="white"/>
<path d="M9.62383 12.8476C9.62383 13.2214 9.62383 13.5953 9.62383 13.9691C9.6246 13.5945 9.6246 13.2214 9.62383 12.8476C9.62383 12.5093 9.61377 12.1703 9.61841 11.832C9.61377 12.1703 9.62383 12.5093 9.62383 12.8476Z" fill="white"/>
<path d="M2.96252 12.412C2.96252 12.8757 2.97026 13.3393 2.95942 13.8022C2.95478 14.0205 3.04147 14.101 3.25433 14.0971C3.7172 14.0894 4.18084 14.0909 4.64448 14.0979C4.86121 14.101 4.94094 14.0034 4.93939 13.7952C4.93552 12.9066 4.93475 12.0188 4.94016 11.1302C4.94171 10.9003 4.85038 10.8075 4.61817 10.8129C4.18084 10.8237 3.74197 10.8284 3.30541 10.8113C3.02599 10.7997 2.94781 10.9166 2.95787 11.1767C2.97258 11.5877 2.96174 12.0002 2.96252 12.412Z" fill="#0A74B6"/>
<path d="M2.9644 12.4131C2.96363 12.0013 2.97446 11.5887 2.95898 11.1777C2.97446 11.5887 2.96363 12.0013 2.9644 12.4131C2.9644 12.8767 2.97214 13.3404 2.96131 13.8032C2.97214 13.3396 2.9644 12.876 2.9644 12.4131Z" fill="black"/>
</svg>
