<svg width="24" height="24" viewBox="0 0 24 24" fill="none" xmlns="http://www.w3.org/2000/svg">
<path d="M12.0762 17.2827L19.6887 19.125V4.83203L12.0762 6.67496V17.2827Z" fill="#205B98"/>
<path d="M19.6895 4.83203L21.1524 5.56352V18.3978L19.6895 19.1287V4.83203Z" fill="#5294CF"/>
<path d="M12.076 17.2827L4.46289 19.125V4.83203L12.076 6.67496V17.2827Z" fill="#5294CF"/>
<path d="M4.46297 4.83203L3 5.56352V18.3978L4.46297 19.1287V4.83203Z" fill="#205B98"/>
<path d="M14.0234 22L16.9139 20.5549V3.44512L14.0234 2L13.1152 11.5111L14.0234 22Z" fill="#5294CF"/>
<path d="M10.1263 22L7.23633 20.5549V3.44512L10.1263 2L11.035 11.4782L10.1263 22Z" fill="#205B98"/>
<path d="M14.0255 2H10.127V21.9997H14.0255V2Z" fill="#2D72B8"/>
</svg>
