<svg width="24" height="24" viewBox="0 0 24 24" fill="none" xmlns="http://www.w3.org/2000/svg">
<path fill-rule="evenodd" clip-rule="evenodd" d="M9.60938 1.00098C10.0083 1.00515 10.354 1.02671 10.6758 1.1377C11.0299 1.25987 11.3525 1.45957 11.6201 1.72168C11.9443 2.03915 12.1462 2.46517 12.4072 2.98731L13.0137 4.19922H16.9053C17.3905 4.19922 17.7998 4.19834 18.1338 4.22559C18.4766 4.2536 18.8066 4.31489 19.1201 4.47461C19.5956 4.71693 19.9823 5.10364 20.2246 5.5791C20.3843 5.8926 20.4456 6.22261 20.4736 6.56543C20.5009 6.89941 20.5 7.30874 20.5 7.79395V13.3047C20.5 13.79 20.5009 14.1992 20.4736 14.5332C20.4456 14.8759 20.3842 15.2052 20.2246 15.5186C19.9823 15.9942 19.5957 16.3817 19.1201 16.624C18.8066 16.7838 18.4766 16.8441 18.1338 16.8721C17.7998 16.8993 17.3905 16.8994 16.9053 16.8994H12.5V18.8408C13.2025 19.0909 13.7422 19.6787 13.9258 20.4102H17.75C18.1642 20.4102 18.5 20.7459 18.5 21.1602C18.5 21.5744 18.1642 21.9102 17.75 21.9102H13.7832C13.4246 22.6769 12.6484 23.209 11.7461 23.209C10.8438 23.209 10.0676 22.6769 9.70899 21.9102H5.75C5.33579 21.9102 5 21.5744 5 21.1602C5.00001 20.7459 5.33579 20.4102 5.75 20.4102H9.56641C9.75068 19.676 10.2937 19.0863 11 18.8379V16.8994H6.59473C6.1095 16.8994 5.7002 16.8993 5.36621 16.8721C5.02339 16.8441 4.69338 16.7838 4.37989 16.624C3.90432 16.3817 3.51772 15.9941 3.27539 15.5186C3.11583 15.2052 3.05437 14.8759 3.02637 14.5332C2.9991 14.1992 3 13.79 3 13.3047V4.59473C3 4.10953 2.99912 3.70019 3.02637 3.36621C3.05438 3.02339 3.11566 2.69338 3.27539 2.37989C3.51771 1.90441 3.90441 1.51771 4.37989 1.27539C4.69338 1.11566 5.02339 1.05438 5.36621 1.02637C5.70019 0.999118 6.10953 1 6.59473 1H9.19239L9.60938 1.00098ZM11.7461 20.209C11.3319 20.209 10.9961 20.5448 10.9961 20.959C10.9961 21.3732 11.3319 21.709 11.7461 21.709C12.1603 21.709 12.4961 21.3732 12.4961 20.959C12.4961 20.5448 12.1603 20.209 11.7461 20.209ZM6.59473 2.5C6.08481 2.5 5.74705 2.50037 5.48828 2.52149C5.23843 2.5419 5.12833 2.5783 5.06153 2.61231C4.86814 2.71084 4.71084 2.86814 4.61231 3.06153C4.5783 3.12833 4.5419 3.23843 4.52149 3.48828C4.50038 3.74705 4.5 4.08481 4.5 4.59473V13.3047C4.5 13.8147 4.50036 14.1523 4.52149 14.4111C4.54192 14.6612 4.57828 14.7711 4.61231 14.8379C4.71084 15.0313 4.86815 15.1886 5.06153 15.2871C5.12834 15.3211 5.23853 15.3575 5.48828 15.3779C5.74705 15.399 6.08483 15.3994 6.59473 15.3994H16.9053C17.4152 15.3994 17.753 15.399 18.0117 15.3779C18.2615 15.3575 18.3717 15.3211 18.4385 15.2871C18.6319 15.1886 18.7892 15.0313 18.8877 14.8379C18.9217 14.7711 18.9581 14.6612 18.9785 14.4111C18.9996 14.1523 19 13.8147 19 13.3047V7.79395C19 7.28402 18.9996 6.94627 18.9785 6.6875C18.9581 6.43764 18.9217 6.32755 18.8877 6.26075C18.7892 6.06736 18.6319 5.91006 18.4385 5.81153C18.3717 5.77752 18.2616 5.74112 18.0117 5.72071C17.753 5.6996 17.4152 5.69922 16.9053 5.69922H12.5498C12.5227 5.69921 12.4961 5.69714 12.4697 5.69434C12.4549 5.69272 12.4404 5.68999 12.4258 5.6875C12.4058 5.68417 12.3866 5.67871 12.3672 5.67383C12.339 5.66668 12.3113 5.65878 12.2842 5.64844C12.2628 5.6403 12.2421 5.63109 12.2217 5.6211C12.1982 5.60962 12.1756 5.59693 12.1533 5.58301C12.135 5.57153 12.1178 5.55887 12.1006 5.5459C12.0799 5.53031 12.0592 5.5149 12.04 5.49707C12.0233 5.48149 12.0084 5.46431 11.9932 5.44727C11.9722 5.42377 11.9508 5.4005 11.9326 5.37403C11.9299 5.37001 11.9265 5.36638 11.9238 5.36231C11.9077 5.33771 11.8924 5.31213 11.8789 5.28516L11.0654 3.65821C10.7559 3.03913 10.6719 2.89349 10.5703 2.79395C10.4615 2.68742 10.3304 2.60632 10.1865 2.55664C10.0857 2.52187 9.96627 2.50689 9.6211 2.50196L9.19239 2.5H6.59473Z" fill="currentColor"/>
<path fill-rule="evenodd" clip-rule="evenodd" d="M6.95801 8.58399C7.16476 8.58399 7.35056 8.61011 7.51173 8.66602L7.51075 8.667C7.66712 8.71925 7.80317 8.79056 7.91407 8.88575C8.01974 8.97516 8.10284 9.075 8.15723 9.18555C8.20885 9.29051 8.23822 9.39866 8.23829 9.5088C8.23829 9.59605 8.21356 9.67663 8.16895 9.74805L8.11817 9.81641C8.03637 9.90915 7.92835 9.95795 7.80469 9.95801C7.70821 9.95801 7.60997 9.93417 7.53419 9.86426L7.5293 9.85938C7.47635 9.80631 7.42691 9.73055 7.37989 9.64258L7.37696 9.63673C7.32627 9.53164 7.26897 9.45748 7.20899 9.40821L7.20801 9.40723C7.16743 9.37333 7.08076 9.34084 6.91505 9.34083C6.77069 9.34083 6.66959 9.3726 6.59962 9.42286C6.52871 9.47355 6.51075 9.52004 6.51075 9.56348C6.51078 9.59784 6.52004 9.62014 6.53321 9.6377C6.55273 9.66368 6.58254 9.68999 6.62794 9.71485C6.68003 9.74337 6.73173 9.76569 6.78321 9.78126C6.84168 9.79893 6.94146 9.82534 7.08399 9.86133C7.26628 9.90403 7.43142 9.95155 7.58106 10.0039L7.69434 10.0469C7.8041 10.0925 7.90294 10.1454 7.98926 10.207C8.11084 10.2927 8.20513 10.4022 8.27247 10.5342C8.34432 10.6707 8.37693 10.8313 8.37696 11.0088C8.37696 11.2282 8.31938 11.4298 8.20313 11.6084L8.20216 11.6074C8.0862 11.7879 7.91849 11.9259 7.70606 12.0225C7.49199 12.1197 7.24405 12.165 6.9668 12.165C6.63571 12.165 6.3489 12.1031 6.11622 11.9678C5.95168 11.8707 5.81642 11.7401 5.7129 11.5791L5.71192 11.5781C5.61139 11.4176 5.55478 11.2516 5.55469 11.083C5.55469 10.9669 5.59666 10.8627 5.67774 10.7793C5.76279 10.692 5.87196 10.6494 5.99317 10.6494C6.09496 10.6495 6.18807 10.6832 6.26368 10.7529C6.33383 10.8167 6.38656 10.9032 6.42481 11.001L6.48145 11.127C6.50025 11.1636 6.51921 11.1957 6.53809 11.2236L6.59766 11.2881C6.62146 11.3083 6.6495 11.3272 6.68262 11.3447C6.73932 11.3735 6.82488 11.3935 6.94923 11.3936C7.11686 11.3936 7.23748 11.3548 7.32325 11.291C7.41028 11.2259 7.44239 11.157 7.44239 11.0781C7.44235 11.0063 7.42126 10.9613 7.38868 10.9287L7.38673 10.9268C7.34273 10.8808 7.28174 10.8417 7.19825 10.8135C7.10436 10.7813 6.97353 10.7454 6.80567 10.707C6.57152 10.6522 6.36918 10.5878 6.20313 10.5117L6.20118 10.5107C6.02846 10.4292 5.8864 10.3164 5.7793 10.1719L5.77833 10.1709C5.6671 10.0166 5.6153 9.83029 5.61524 9.62208C5.61524 9.41839 5.6722 9.23259 5.78614 9.07032C5.90081 8.90706 6.06401 8.78612 6.26661 8.70508C6.46855 8.62289 6.70001 8.58401 6.95801 8.58399Z" fill="currentColor"/>
<path fill-rule="evenodd" clip-rule="evenodd" d="M11.0225 8.63868C11.142 8.63869 11.2607 8.66471 11.3486 8.74512C11.4344 8.82109 11.4756 8.92304 11.4756 9.03516C11.4756 9.14777 11.4354 9.25062 11.3506 9.32813C11.2623 9.40854 11.1426 9.43457 11.0225 9.43458H9.90626V9.94532H10.8145C10.9304 9.94532 11.0456 9.97202 11.1318 10.0508C11.2171 10.1262 11.2568 10.2275 11.2568 10.3379C11.2568 10.4485 11.2183 10.5505 11.1328 10.626C11.0458 10.7027 10.9306 10.7285 10.8145 10.7285H9.90626V11.624C9.90621 11.7761 9.87199 11.9188 9.7754 12.0225C9.6854 12.119 9.5672 12.165 9.43555 12.165C9.30235 12.1649 9.18385 12.118 9.09278 12.0205L9.0918 12.0195C8.99758 11.9161 8.96392 11.7745 8.96387 11.624V9.18262C8.96387 9.07719 8.97929 8.97731 9.01954 8.89258C9.06169 8.80263 9.1296 8.73339 9.22071 8.69239C9.30553 8.65338 9.40369 8.63868 9.50782 8.63868H11.0225Z" fill="currentColor"/>
<path fill-rule="evenodd" clip-rule="evenodd" d="M14.2207 8.63868C14.349 8.63868 14.474 8.66653 14.5664 8.75001C14.6558 8.82994 14.7002 8.93644 14.7002 9.05469C14.7002 9.17295 14.6567 9.27944 14.5674 9.35938L14.5664 9.36036C14.4733 9.44119 14.3487 9.46876 14.2207 9.46876H13.6699V11.624C13.6699 11.7755 13.6365 11.9178 13.542 12.0215L13.541 12.0225C13.451 12.119 13.3328 12.165 13.2012 12.165C13.068 12.165 12.9495 12.118 12.8584 12.0205L12.8565 12.0195C12.7622 11.9161 12.7295 11.7745 12.7295 11.624V9.46876H12.1777C12.0502 9.46875 11.9253 9.44168 11.833 9.35938L11.832 9.35743C11.7446 9.2771 11.7031 9.1716 11.7031 9.05469C11.7031 8.93555 11.7449 8.82711 11.8369 8.74708L11.8389 8.74512C11.9317 8.66673 12.0521 8.63869 12.1777 8.63868H14.2207Z" fill="currentColor"/>
<path fill-rule="evenodd" clip-rule="evenodd" d="M16.5166 8.63868C16.7653 8.63868 16.9698 8.65698 17.1211 8.7002L17.1201 8.70118C17.2701 8.74293 17.4027 8.81233 17.5147 8.91212C17.628 9.01171 17.713 9.13326 17.7705 9.2754C17.8279 9.41708 17.8555 9.57345 17.8555 9.74122C17.8554 10.0968 17.7439 10.3893 17.5029 10.5918C17.266 10.7891 16.928 10.876 16.5166 10.876H16.0781V11.624C16.0781 11.7737 16.0428 11.9128 15.9482 12.0166C15.8584 12.1151 15.7406 12.165 15.6074 12.165C15.4737 12.1649 15.3541 12.1186 15.2637 12.0195L15.2617 12.0176C15.1696 11.914 15.1357 11.7759 15.1357 11.6279V9.18262C15.1357 9.02364 15.171 8.87153 15.2803 8.76954C15.3855 8.67137 15.5345 8.63868 15.6924 8.63868H16.5166ZM16.0781 10.0908H16.3613C16.5034 10.0908 16.6137 10.0755 16.6953 10.0498C16.7732 10.0257 16.8216 9.98988 16.8525 9.94825C16.8817 9.90879 16.9033 9.84828 16.9033 9.75391C16.9033 9.64543 16.8724 9.57042 16.8203 9.51466C16.7997 9.49537 16.7586 9.47092 16.6826 9.45216C16.6037 9.43265 16.4977 9.42092 16.3613 9.42091H16.0781V10.0908Z" fill="currentColor"/>
</svg>
