<svg width="24" height="24" viewBox="0 0 24 24" fill="none" xmlns="http://www.w3.org/2000/svg">
<path d="M19.1858 17.2433L14.9535 14.8044C14.3589 14.4629 13.5985 14.666 13.2544 15.2591C13.1211 15.4927 13.0688 15.7497 13.094 15.9996V20.7659C13.094 21.4471 13.649 22.0006 14.3337 22.0006C15.0165 22.0006 15.5715 21.4471 15.5715 20.7659V18.0251L17.9426 19.391C18.5372 19.7343 19.2994 19.5294 19.6417 18.9363C19.9858 18.3432 19.7822 17.5847 19.1858 17.2433Z" fill="#29B5E8"/>
<path d="M8.6621 12.0157C8.66931 11.5754 8.43688 11.1656 8.0549 10.9445L3.82253 8.50746C3.63875 8.40142 3.42794 8.3457 3.21713 8.3457C2.78291 8.3457 2.37931 8.57755 2.16309 8.95138C1.82796 9.5301 2.02796 10.2724 2.60813 10.6067L5.04774 12.0103L2.60813 13.4158C2.32706 13.5775 2.12526 13.8381 2.04238 14.1509C1.95769 14.4636 2.00094 14.7907 2.16309 15.0711C2.37931 15.4449 2.78291 15.6767 3.21533 15.6767C3.42794 15.6767 3.63875 15.621 3.82253 15.515L8.0549 13.0779C8.43327 12.8586 8.6657 12.4524 8.6621 12.0157Z" fill="#29B5E8"/>
<path d="M4.78293 6.78071L9.0153 9.2178C9.50899 9.50356 10.118 9.41011 10.5072 9.03088C10.754 8.80443 10.9072 8.48092 10.9072 8.12147V3.23652C10.9072 2.55356 10.3522 2 9.66935 2C8.98467 2 8.42973 2.55356 8.42973 3.23652V6.01688L6.02616 4.63299C5.43157 4.28971 4.67122 4.4928 4.32708 5.0859C3.98294 5.67899 4.18835 6.43744 4.78293 6.78071Z" fill="#29B5E8"/>
<path d="M14.2984 12.2137C14.2984 12.3072 14.2443 12.4366 14.1777 12.5049L12.5002 14.1781C12.4336 14.2446 12.302 14.2986 12.2083 14.2986H11.7813C11.6876 14.2986 11.5561 14.2446 11.4894 14.1781L9.81017 12.5049C9.74351 12.4366 9.68945 12.3072 9.68945 12.2137V11.7878C9.68945 11.6925 9.74351 11.5631 9.81017 11.4966L11.4894 9.82159C11.5561 9.75509 11.6876 9.70117 11.7813 9.70117H12.2083C12.302 9.70117 12.4336 9.75509 12.5002 9.82159L14.1777 11.4966C14.2443 11.5631 14.2984 11.6925 14.2984 11.7878V12.2137ZM12.8011 12.0089V11.9909C12.8011 11.9226 12.7615 11.8273 12.7128 11.777L12.2173 11.2846C12.1687 11.2342 12.0732 11.1947 12.0029 11.1947H11.9849C11.9164 11.1947 11.821 11.2342 11.7705 11.2846L11.2768 11.777C11.2282 11.8255 11.1885 11.9208 11.1885 11.9909V12.0089C11.1885 12.0789 11.2282 12.1742 11.2768 12.2227L11.7705 12.717C11.821 12.7655 11.9164 12.805 11.9849 12.805H12.0029C12.0732 12.805 12.1687 12.7655 12.2173 12.717L12.7128 12.2227C12.7615 12.1742 12.8011 12.0789 12.8011 12.0089Z" fill="#29B5E8"/>
<path d="M14.9569 9.2178L19.1893 6.78071C19.7838 6.43923 19.9892 5.67899 19.6451 5.0859C19.301 4.4928 18.5406 4.28971 17.946 4.63299L15.5749 5.9989V3.23652C15.5749 2.55356 15.0199 2 14.3371 2C13.6524 2 13.0974 2.55356 13.0974 3.23652V8.02442C13.074 8.27244 13.1227 8.53124 13.2578 8.76489C13.6019 9.35798 14.3623 9.56107 14.9569 9.2178Z" fill="#29B5E8"/>
<path d="M9.86394 14.6606C9.58286 14.6066 9.28197 14.6516 9.0153 14.8043L4.78293 17.2432C4.18835 17.5847 3.98294 18.3431 4.32708 18.9362C4.67122 19.5311 5.43157 19.7342 6.02616 19.3909L8.42973 18.0071V20.7658C8.42973 21.447 8.98467 22.0006 9.66935 22.0006C10.3522 22.0006 10.9072 21.447 10.9072 20.7658V15.8809C10.9072 15.2644 10.4549 14.754 9.86394 14.6606Z" fill="#29B5E8"/>
<path d="M21.8325 8.93801C21.4902 8.34312 20.728 8.14003 20.1335 8.48331L15.9011 10.9204C15.4957 11.154 15.2723 11.5818 15.2795 12.0167C15.2759 12.4499 15.4993 12.8722 15.9011 13.1023L20.1335 15.5411C20.728 15.8826 21.4884 15.6795 21.8325 15.0864C22.1767 14.4933 21.9713 13.7349 21.3767 13.3916L18.9803 12.0113L21.3767 10.631C21.9731 10.2896 22.1767 9.53111 21.8325 8.93801Z" fill="#29B5E8"/>
</svg>
