<svg width="24" height="24" viewBox="0 0 24 24" fill="none" xmlns="http://www.w3.org/2000/svg">
<path d="M14.5627 11.3496L10.5506 12.6626L7.06276 14.1992L6.08309 14.4512C5.83512 14.6829 5.57496 14.9268 5.29447 15.1707C5.01399 15.4146 4.69692 15.6829 4.48147 15.8577C4.1866 16.0933 3.91441 16.356 3.66846 16.6423C3.41806 16.9385 3.2201 17.2753 3.0831 17.6382C3.00078 17.8897 2.97922 18.1571 3.02021 18.4186C3.06119 18.68 3.16354 18.928 3.31887 19.1423C3.89509 19.8659 4.65038 20.4264 5.50992 20.7683C6.13766 21.0286 6.78287 21.2445 7.44081 21.4146C8.79272 21.7201 10.1671 21.9159 11.5505 22C11.7253 22 11.9042 22 12.079 22C12.2304 21.7624 12.3662 21.5153 12.4855 21.2601C13.0891 20.0681 13.5659 18.816 13.9083 17.5244C14.0912 16.6641 14.2134 15.792 14.2741 14.9146C14.2741 14.6179 14.3026 13.6342 14.2741 13.2886C14.2526 12.8131 14.2024 12.3394 14.1237 11.8699C14.1157 11.8283 14.1157 11.7855 14.1237 11.7439C14.2996 11.6871 14.4788 11.6409 14.6603 11.6057L14.5627 11.3699V11.3496ZM13.644 11.8862C13.7363 12.3866 13.788 12.8937 13.7985 13.4024C13.8087 13.4698 13.8087 13.5383 13.7985 13.6057C13.7741 13.6057 13.2863 13.3171 12.9367 13.1016C12.5871 12.8862 12.0546 12.5325 11.9652 12.4553C11.8757 12.3781 11.9408 12.4309 12.1888 12.3455C12.6156 12.2114 13.6196 11.8903 13.6481 11.8903L13.644 11.8862ZM11.6115 12.5569C11.7046 12.5926 11.7933 12.639 11.8757 12.6951C12.4664 13.0696 13.0771 13.4116 13.705 13.7195C13.8148 13.7683 13.831 13.748 13.5709 13.9228C12.9052 14.3576 12.2018 14.7317 11.4692 15.0407L11.1969 15.1585C11.2014 15.1033 11.2123 15.0487 11.2294 14.9959C11.4264 14.3009 11.5357 13.584 11.5546 12.8618C11.5546 12.5569 11.5546 12.5569 11.5871 12.5529C11.5871 12.5529 11.6197 12.5488 11.5871 12.5529L11.6115 12.5569ZM11.205 12.7155C11.2259 13.0091 11.2259 13.3039 11.205 13.5976C11.1522 14.0443 11.0583 14.4852 10.9245 14.9146C10.9052 14.9863 10.8821 15.0568 10.8554 15.126C10.6409 14.9561 10.4385 14.7713 10.2497 14.5732C10.0329 14.3249 9.84601 14.052 9.69283 13.7602C9.62637 13.6289 9.56932 13.493 9.5221 13.3537C9.5221 13.3537 11.1481 12.7033 11.1806 12.7114L11.205 12.7155ZM9.22129 13.4959C9.23965 13.531 9.25463 13.5678 9.266 13.6057C9.39595 13.9262 9.56527 14.2294 9.77007 14.5081C9.97242 14.7831 10.2026 15.0365 10.4571 15.2642L10.6075 15.3902C10.6075 15.3902 10.6319 15.3902 10.1359 15.5976C9.56275 15.8171 8.93674 16.0325 8.22129 16.2602L7.71316 16.4268C7.68877 16.4268 7.71316 16.4268 7.77007 16.2967C8.242 15.5266 8.64987 14.719 8.98958 13.8821C9.03836 13.748 9.09527 13.6179 9.09934 13.5894C9.10323 13.5718 9.11112 13.5553 9.1224 13.5412C9.13367 13.5271 9.14804 13.5158 9.16438 13.5081H9.21316L9.22129 13.4959ZM8.6156 13.748C8.53029 13.9622 8.43256 14.1712 8.32292 14.374C8.02617 14.9431 7.70503 15.5081 7.27414 16.1951L7.12373 16.435C7.12373 16.435 7.12373 16.435 7.05463 16.3577C6.93859 16.1409 6.85114 15.91 6.79447 15.6707C6.74771 15.3731 6.74771 15.07 6.79447 14.7724C6.83512 14.5813 6.83105 14.5854 6.92048 14.5407C7.32699 14.3455 8.54649 13.752 8.57495 13.7683L8.6156 13.748ZM13.8432 13.9594V14.0813C13.8365 14.8447 13.7767 15.6067 13.6644 16.3618C13.644 16.4797 13.6278 16.5772 13.6278 16.5813L13.4367 16.5244C12.9532 16.374 12.486 16.1751 12.0424 15.9309C11.7967 15.8005 11.5591 15.6552 11.331 15.4959L11.6115 15.3455C12.1814 15.0517 12.7351 14.7274 13.2701 14.374C13.453 14.248 13.7335 14.0488 13.7944 13.9919L13.8432 13.9594ZM6.30666 14.8577C6.30666 14.8577 6.30666 14.8862 6.30666 14.9959C6.2902 15.1037 6.27934 15.2122 6.27414 15.3211C6.24379 15.7445 6.33549 16.1678 6.53837 16.5406C6.57496 16.6138 6.61154 16.6911 6.64406 16.7724C6.62374 16.7724 4.61155 17.378 3.98554 17.5528L3.61968 17.6504C3.61968 17.6504 3.59529 17.6504 3.61968 17.6016C3.75648 17.0238 4.05217 16.4958 4.47334 16.0772C4.76254 15.77 5.0987 15.5107 5.46927 15.3089C5.77821 15.1341 6.25382 14.8699 6.28227 14.8618L6.30666 14.8577ZM11.0343 15.7073L11.201 15.7967C11.9309 16.2019 12.7134 16.5043 13.5261 16.6951H13.5953L13.5018 16.7683C12.497 17.2471 11.4686 17.6745 10.4205 18.0488L10.014 18.2073H9.94486L10.0709 17.9675C10.4447 17.2695 10.764 16.5438 11.0262 15.7967C11.0505 15.7358 11.0668 15.687 11.0668 15.687L11.0343 15.7073ZM10.5546 15.8618C10.5426 15.9092 10.5262 15.9555 10.5058 16C10.1928 16.7244 9.83574 17.4289 9.43673 18.1097C9.32698 18.3089 9.23348 18.4715 9.22942 18.4715L9.0221 18.3496C8.42282 17.9919 7.88708 17.5372 7.43674 17.0041L7.40422 16.9471L7.68064 16.8699C8.58913 16.6299 9.479 16.3242 10.3432 15.9553L10.5546 15.8618ZM13.5505 16.8902C13.4777 17.2771 13.384 17.6598 13.2701 18.0366C13.14 18.4878 13.0749 18.7114 12.9042 19.2561C12.827 19.4837 12.7701 19.6626 12.7619 19.6626H12.7253C11.8788 19.5191 11.0492 19.2889 10.2497 18.9756C10.0384 18.8902 9.73348 18.7561 9.71316 18.7398C9.84023 18.6596 9.97678 18.5954 10.1197 18.5488C11.4936 17.9471 12.9245 17.2642 13.4164 16.9675C13.4499 16.943 13.4869 16.9238 13.5261 16.9106L13.5505 16.8902ZM6.64 17.1301C6.64 17.1301 6.25788 17.691 5.7213 18.4471L5.23756 19.1341C5.15626 19.248 5.03025 19.4309 4.96114 19.5406L4.83513 19.7358L4.70098 19.6179C4.4966 19.4433 4.30756 19.2516 4.13594 19.0447C3.89619 18.7582 3.72268 18.4223 3.62781 18.061C3.59529 17.9187 3.59529 17.8415 3.62781 17.8374L5.25382 17.4553L6.33512 17.2073L6.64 17.1301ZM6.99772 17.2967L7.09528 17.4065C7.5023 17.8708 7.98298 18.265 8.51804 18.5732C8.57852 18.6006 8.63577 18.6347 8.68877 18.6748C8.66844 18.6748 6.81479 19.3455 5.95301 19.6463L5.0709 19.9512L5.01399 19.9106L4.95708 19.8699L5.04651 19.7439C5.33106 19.3374 5.68878 18.878 6.46927 17.9431L7.02211 17.2967H6.99772ZM9.43673 19.0244L9.73348 19.1301C10.103 19.2686 10.4803 19.3854 10.8636 19.4797C11.4225 19.6173 11.9902 19.7164 12.5627 19.7764C12.6278 19.7764 12.6684 19.7764 12.6562 19.7967L11.8432 20.061C11.3229 20.2276 9.72942 20.6951 8.43267 21.0691L7.97739 21.1992C7.93142 21.1997 7.88627 21.187 7.84731 21.1626C7.89657 21.0908 7.94949 21.0216 8.00585 20.9553C8.44453 20.4297 8.85175 19.8786 9.22535 19.3049L9.43673 19.0244ZM8.90015 19.0244C8.90015 19.0244 8.68877 19.374 8.31479 19.9634L7.90829 20.6016L7.70097 20.9349L7.61154 21.0894H7.56682C7.45707 21.061 6.69284 20.7886 6.48553 20.7073C6.24383 20.6123 6.00768 20.5037 5.77821 20.3821C5.59454 20.2894 5.42028 20.1791 5.25789 20.0528L6.18471 19.8089C7.50991 19.4512 8.24568 19.2398 8.73348 19.0894L8.90015 19.0447V19.0244ZM12.6888 19.9268C12.6888 19.9553 12.205 21.3211 12.0302 21.7479C11.9896 21.8414 11.9774 21.8699 11.9571 21.8699L10.7619 21.7032C10.0058 21.5894 8.72942 21.3658 8.42048 21.2967H8.34731L8.79853 21.191C9.77007 20.9715 10.2335 20.8577 10.705 20.7114C11.3166 20.5246 11.9143 20.295 12.4936 20.0244C12.5566 19.9938 12.6219 19.9679 12.6888 19.9471V19.9268Z" fill="url(#paint0_linear_5150_14507)"/>
<path d="M10.4248 2.00406C9.80135 2.19155 9.18806 2.41136 8.58743 2.6626C7.84904 2.9445 7.14087 3.29995 6.47362 3.72357C6.31666 3.83576 6.17931 3.97311 6.06711 4.13007C6.06096 4.16503 6.06096 4.2008 6.06711 4.23576L6.47362 4.62194L7.44109 4.93088L9.74596 5.33738L12.376 5.7886L12.4045 5.56502H12.3842L12.0142 5.50811L11.9411 5.3821C11.5874 4.75202 11.1931 3.97154 10.9614 3.43902C10.7868 3.04325 10.6401 2.63575 10.5224 2.21951C10.4695 2.01219 10.4614 2 10.4289 2L10.4248 2.00406ZM10.376 2.15854C10.389 2.22152 10.3971 2.28538 10.4004 2.34959C10.4568 2.78384 10.5562 3.21142 10.6972 3.62601C10.8069 3.95934 10.8069 3.93902 10.6972 3.89837C10.3882 3.813 9.00613 3.57316 7.998 3.43495L7.70532 3.39024C7.70532 3.39024 8.4289 2.98374 8.75003 2.83739C9.1484 2.6626 10.2907 2.17073 10.376 2.15854ZM7.45735 3.51625L7.57524 3.55284C8.60493 3.8486 9.65942 4.04997 10.7256 4.15446H10.9167C10.8552 4.19232 10.7914 4.22626 10.7256 4.25609C10.2947 4.47153 9.8232 4.73576 9.50613 4.93495C9.44578 4.97932 9.38026 5.01617 9.311 5.0447L9.17279 5.02438L9.05084 5.00405L8.74597 4.71137L7.63621 3.6382L7.45735 3.51625ZM7.3354 3.60975L7.76223 4.14633C7.998 4.43901 8.23377 4.72763 8.28255 4.79267C8.31589 4.82917 8.34582 4.86862 8.37198 4.91056C8.37198 4.91056 7.7541 4.8008 7.43296 4.7317C7.20625 4.68619 6.98231 4.62784 6.76223 4.5569L6.5915 4.49999V4.45934C6.5915 4.25609 6.85166 3.95528 7.28662 3.64633L7.32727 3.61788L7.3354 3.60975ZM10.9655 4.33332C10.9655 4.33332 10.9899 4.36178 11.0305 4.44714C11.1362 4.67072 11.437 5.28454 11.5386 5.40242C11.563 5.44307 11.6037 5.44307 11.1769 5.37803C10.1484 5.21137 9.81913 5.15446 9.81913 5.15039L9.88824 5.10568C10.2169 4.92318 10.5273 4.70946 10.8151 4.46747L10.9614 4.34552L10.9655 4.33332Z" fill="url(#paint1_linear_5150_14507)"/>
<path d="M6.08958 4.08984C6.06947 4.13098 6.05902 4.17617 6.05902 4.22196C6.05902 4.26775 6.06947 4.31293 6.08958 4.35407C6.16492 4.48283 6.26266 4.59709 6.3782 4.69147C6.3782 4.69147 7.72372 6.00854 7.89039 6.19146C8.60723 6.97928 9.00061 8.00846 8.99201 9.07356C9.00985 9.82703 8.84382 10.5735 8.50827 11.2484C7.87819 12.6264 6.54487 14.1426 4.49609 15.8296L4.79284 15.7321C5.13737 15.4945 5.49723 15.2799 5.87007 15.0898C7.48412 14.2252 9.15773 13.4767 10.8782 12.85C14.1834 11.659 17.5829 10.748 21.0407 10.1264L21.3172 10.0898L21.2765 10.0248C21.0847 9.72698 20.8756 9.44058 20.6505 9.16706C20.0566 8.43579 19.3263 7.82694 18.5001 7.37438C17.0348 6.6113 15.4587 6.08318 13.8294 5.80935C13.4635 5.73211 12.6587 5.59797 12.0001 5.49634C10.614 5.2809 9.71152 5.13049 8.72778 4.95976C8.37006 4.90285 7.84161 4.80935 7.50828 4.73618C7.2337 4.6786 6.96233 4.60669 6.69527 4.52074C6.47576 4.43537 6.16275 4.35001 6.09771 4.09391L6.08958 4.08984ZM6.87007 4.85L6.98389 4.88659L7.42291 5.02073L7.82941 5.12642L8.16681 5.21586C8.16681 5.21586 8.49201 6.21992 8.59364 6.5939C8.62357 6.67974 8.64535 6.7682 8.65868 6.85813C8.62838 6.81763 8.60249 6.77403 8.58144 6.72804C8.17975 6.04251 7.64978 5.44076 7.02047 4.95569C6.96683 4.91957 6.9165 4.87876 6.87007 4.83374V4.85ZM8.36193 5.25651L8.52453 5.2809C9.04079 5.39878 9.96762 5.57358 10.557 5.6874C10.6194 5.69132 10.6809 5.70363 10.74 5.72398C10.7165 5.74662 10.6889 5.76455 10.6587 5.77683C10.557 5.82561 10.1546 6.06545 10.0245 6.15488C9.71763 6.35635 9.43044 6.58637 9.16681 6.84187L9.00014 7.0004C9.00014 7.0004 9.00014 6.95162 8.96762 6.88658C8.8257 6.37756 8.64495 5.88017 8.42697 5.39878C8.40255 5.35463 8.38214 5.30838 8.366 5.26057L8.36193 5.25651ZM10.9839 5.76057C10.9839 5.76057 11.0327 5.87032 11.0936 6.0939C11.2073 6.54678 11.2566 7.01343 11.24 7.48007C11.2492 7.56655 11.2492 7.65376 11.24 7.74024V7.77276L11.0611 7.72398C10.7359 7.61829 10.2115 7.46788 9.7603 7.31747C9.5042 7.24837 9.29689 7.18333 9.29689 7.17926C9.29689 7.1752 9.67087 6.77276 9.82941 6.64268C10.2014 6.32363 10.5894 6.02378 10.992 5.74431L10.9839 5.76057ZM11.1953 5.78902C11.1953 5.78902 12.4513 5.99227 13.0164 6.10203C13.4229 6.18333 14.0489 6.31341 14.0896 6.32967C14.1302 6.34593 14.0448 6.37032 13.8375 6.46382C13.1462 6.76718 12.4813 7.12749 11.8497 7.54105L11.5611 7.73211C11.555 7.66721 11.555 7.60188 11.5611 7.53699C11.559 6.97904 11.4486 6.42681 11.2359 5.91097C11.2171 5.87369 11.2034 5.83404 11.1953 5.79309V5.78902ZM14.4188 6.42317C14.4116 6.56059 14.3898 6.69686 14.3538 6.82967C14.1722 7.44293 13.9155 8.03139 13.5896 8.5817C13.5489 8.6508 13.5083 8.71991 13.4635 8.78495C13.3998 8.75951 13.3386 8.72821 13.2806 8.69145C12.8996 8.47179 12.5044 8.2776 12.0977 8.11015L11.8741 8.01259C12.3471 7.66301 12.8383 7.33871 13.3457 7.04105C13.6971 6.82108 14.0593 6.61893 14.431 6.43536L14.4188 6.42317ZM14.6505 6.45975C14.6749 6.45975 15.2318 6.61016 15.5164 6.69552C16.215 6.90444 16.8993 7.15836 17.5651 7.45568L17.7847 7.55324L17.6302 7.58983C16.4385 7.85387 15.2707 8.21552 14.1383 8.67113L13.9595 8.73617C13.9769 8.683 13.9987 8.63134 14.0245 8.5817C14.3386 7.94397 14.5381 7.256 14.6139 6.54918C14.6139 6.48821 14.6139 6.44349 14.6139 6.44349L14.6505 6.45975ZM9.15868 7.71991C9.37935 7.76008 9.5978 7.81164 9.81315 7.87438C10.1794 7.97667 10.5403 8.09742 10.8944 8.23617L10.7156 8.39064C10.3091 8.72397 9.9351 9.07356 9.49607 9.51259C9.36193 9.64267 9.24811 9.74836 9.24404 9.74836C9.23998 9.74836 9.24404 9.74836 9.24404 9.70771C9.31403 9.10044 9.30172 8.48649 9.20746 7.88251C9.18302 7.83254 9.16656 7.77904 9.15868 7.72398V7.71991ZM18.0123 7.71991C17.9147 7.89064 17.809 8.05731 17.6952 8.21991C17.5123 8.48007 17.244 8.8256 16.6424 9.58169L15.8294 10.5817L15.6058 10.8622C15.5738 10.8256 15.5452 10.7861 15.5204 10.7443C15.182 10.2349 14.7712 9.77752 14.3009 9.38657L14.0774 9.20771L14.0245 9.16706C14.0245 9.16706 14.5408 8.93942 14.931 8.76056C15.6139 8.48007 16.557 8.1508 17.2481 7.94755C17.6139 7.84186 18.0042 7.73211 18.0123 7.73617V7.71991ZM18.2481 7.78089C18.3102 7.7988 18.3691 7.82622 18.4229 7.86219C19.1606 8.28457 19.8433 8.79658 20.4554 9.38657C20.618 9.54104 21.0123 9.95567 21.0082 9.95567L20.7033 9.98006C19.1959 10.1146 17.701 10.3647 16.2318 10.728L16.0286 10.7727C16.109 10.6799 16.1959 10.593 16.2887 10.5126C17.057 9.82858 17.6827 8.99975 18.1302 8.07357L18.2643 7.78902L18.2481 7.78089ZM11.492 8.47194C11.5286 8.47194 11.927 8.66706 12.2278 8.80934C12.5286 8.95161 12.9066 9.16706 12.927 9.17925L12.6058 9.34592C12.0367 9.63047 11.5489 9.90283 11.0408 10.2118L10.7684 10.3744C10.7684 10.3744 10.7684 10.3744 10.8457 10.2118C11.1279 9.69288 11.3372 9.1375 11.4676 8.56137C11.4676 8.51665 11.492 8.4882 11.5042 8.4882L11.492 8.47194ZM11.0855 8.54511C11.0489 8.75511 11.0001 8.96279 10.9392 9.16706C10.7961 9.58841 10.6166 9.99646 10.4026 10.3866L10.244 10.6671L10.1668 10.7931L10.0001 10.6305C9.83315 10.4657 9.64106 10.3285 9.43103 10.224C9.38064 10.2024 9.33289 10.1752 9.28876 10.1427C9.28876 10.1142 9.80908 9.64673 10.2034 9.30527C10.4879 9.06137 11.0896 8.57763 11.0977 8.58983L11.0855 8.54511ZM13.5001 9.57356L13.6505 9.66706C14.0201 9.89837 14.377 10.1494 14.7196 10.4191C14.9201 10.5804 15.1114 10.7528 15.2928 10.9353L15.3253 10.976L15.0814 11.0451C13.6952 11.4516 12.618 11.7687 11.366 12.2321L11.1018 12.3256C11.0814 12.3256 11.0652 12.3256 11.3822 12.0573C12.1501 11.3601 12.8324 10.5741 13.4148 9.71584L13.5001 9.57356ZM12.8619 9.72803C12.8619 9.72803 12.4554 10.3175 12.2074 10.6508C11.9595 10.9841 11.3944 11.7077 11.0205 12.1345L10.7318 12.4679C10.7318 12.4679 10.7318 12.4272 10.7318 12.3581C10.7301 11.9794 10.644 11.6059 10.4798 11.2646C10.4066 11.1264 10.3985 11.0898 10.4148 11.0736C10.431 11.0573 11.3538 10.5207 11.9107 10.2199C12.2847 10.0167 12.8741 9.72397 12.8822 9.72803H12.8619ZM9.0286 10.6508L9.18307 10.728C9.36784 10.8289 9.54332 10.9458 9.70745 11.0776C9.65432 11.1338 9.59421 11.183 9.52859 11.224C9.23998 11.4313 8.80502 11.7605 8.54892 11.9638C8.29283 12.167 8.2725 12.1874 8.30502 12.1427C8.45702 11.9182 8.59286 11.6832 8.71152 11.4394C8.81549 11.2308 8.90381 11.0148 8.97575 10.7931C8.98678 10.7384 9.00742 10.6861 9.03673 10.6386L9.0286 10.6508ZM10.053 11.4638C10.053 11.4638 10.0855 11.4882 10.1668 11.6061C10.3417 11.8727 10.4581 12.1733 10.5083 12.4882V12.5492L10.1018 12.7077C9.36193 13.0004 8.67494 13.2809 8.21153 13.4963L7.7034 13.7361L7.43511 13.8662L7.64649 13.7118C8.49352 13.1117 9.25876 12.4039 9.9229 11.6061L10.0489 11.4557L10.053 11.4638ZM9.58144 11.5776C9.40913 11.7979 9.22455 12.0082 9.0286 12.2077C8.46401 12.7864 7.83214 13.2955 7.14649 13.724L6.96763 13.8378C6.96763 13.8378 6.96763 13.8174 7.28877 13.476C7.48795 13.2605 7.63836 13.0695 7.81315 12.8581C7.89378 12.7408 7.99753 12.6412 8.11803 12.5654C8.56518 12.2524 9.58957 11.5492 9.60176 11.5654L9.58144 11.5776Z" fill="url(#paint2_radial_5150_14507)"/>
<defs>
<linearGradient id="paint0_linear_5150_14507" x1="6.2361" y1="19.9232" x2="7.70146" y2="19.0574" gradientUnits="userSpaceOnUse">
<stop stop-color="#909CA9"/>
<stop offset="1" stop-color="#EDEDEE"/>
</linearGradient>
<linearGradient id="paint1_linear_5150_14507" x1="5.06761" y1="3.89934" x2="6.24663" y2="3.89934" gradientUnits="userSpaceOnUse">
<stop stop-color="#939FAB"/>
<stop offset="1" stop-color="#DCDEE1"/>
</linearGradient>
<radialGradient id="paint2_radial_5150_14507" cx="0" cy="0" r="1" gradientTransform="matrix(-1.4678 -0.326178 -0.326178 2.9356 -15.1216 -7.73962)" gradientUnits="userSpaceOnUse">
<stop stop-color="#EE352C"/>
<stop offset="1" stop-color="#A91D22"/>
</radialGradient>
</defs>
</svg>
