<svg width="24" height="24" viewBox="0 0 24 24" fill="none" xmlns="http://www.w3.org/2000/svg">
<path d="M6.96129 10C5.81924 9.99307 4.88486 10.9328 4.88281 12.074C4.88118 13.2161 5.80572 14.1607 6.92893 14.164C8.10703 14.1676 9.05288 13.2546 9.04755 12.0838C9.04182 10.898 8.11236 10.007 6.96129 10ZM6.9445 13.0825C6.39764 13.0711 5.93557 12.5983 5.95482 12.0695C5.9749 11.5095 6.43205 11.0712 6.98628 11.0802C7.53724 11.0888 7.98046 11.5534 7.97022 12.1117C7.96039 12.6561 7.49791 13.0936 6.9445 13.0825Z" fill="#B3272D"/>
<path d="M12.2773 11.0593C12.7632 11.0593 13.2388 11.0593 13.7442 11.0593C13.7442 12.0817 13.7442 13.0759 13.7442 14.0701C14.1154 14.0701 14.4677 14.0701 14.8375 14.0701C14.8375 13.0632 14.8375 12.0694 14.8375 11.0527C15.3336 11.0527 15.8129 11.0527 16.2872 11.0527C16.2872 10.7168 16.2872 10.4047 16.2872 10.0938C14.9445 10.0938 13.614 10.0938 12.2773 10.0938C12.2773 10.4157 12.2773 10.7283 12.2773 11.0593Z" fill="#B3272D"/>
<path d="M3.83957 10.0801C3.74126 10.0785 3.69661 10.1154 3.65893 10.201C3.52825 10.4984 3.3898 10.7925 3.25339 11.0874C3.1559 11.298 3.05677 11.5077 2.94903 11.7387C2.91217 11.6654 2.88636 11.6171 2.86301 11.5671C2.65041 11.1116 2.44027 10.6544 2.22316 10.201C2.19981 10.1518 2.13837 10.0887 2.0929 10.0875C1.73734 10.0781 1.38096 10.0822 1 10.0822C1.655 11.4499 2.29813 12.7923 2.95395 14.1621C3.61755 12.7849 4.26436 11.4426 4.92019 10.0822C4.54087 10.0826 4.19022 10.0863 3.83957 10.0801Z" fill="#B3272D"/>
<path d="M11.2625 13.1025C10.9287 13.1025 10.7984 12.9743 10.7984 12.6458C10.7984 11.847 10.7984 11.0486 10.7984 10.2498C10.7984 10.1966 10.7984 10.1429 10.7984 10.0938C10.4261 10.0938 10.0783 10.0938 9.717 10.0938C9.717 10.165 9.717 10.2252 9.717 10.2855C9.717 11.074 9.71618 11.8625 9.71782 12.6507C9.71823 12.7723 9.72519 12.8944 9.73912 13.0153C9.80057 13.5592 10.2888 14.0492 10.821 14.0696C11.3543 14.0901 11.8889 14.0799 12.423 14.0782C12.4644 14.0782 12.5259 14.0483 12.5435 14.0148C12.6959 13.7231 12.84 13.4269 13.0018 13.1025C12.4009 13.1025 11.8315 13.1025 11.2625 13.1025Z" fill="#B3272D"/>
<path d="M22.6695 12.1793C22.5901 12.1036 22.4897 12.0499 22.3754 11.9692C22.4344 11.9151 22.4836 11.8725 22.5303 11.8271C22.8658 11.5034 22.9567 11.118 22.7937 10.7182C22.6355 10.3307 22.2591 10.0865 21.8187 10.0861C21.3964 10.0857 20.9741 10.0861 20.5517 10.0861C20.3506 10.0861 20.3502 10.0861 20.3498 10.2823C20.3494 11.1221 20.3498 11.9614 20.3498 12.8012C20.3498 13.1776 20.3502 13.5541 20.3498 13.9309C20.3498 14.0124 20.3502 14.0809 20.4665 14.0796C20.9753 14.0743 21.4845 14.085 21.9928 14.0702C22.3963 14.0587 22.8019 13.7343 22.9313 13.328C23.0677 12.8987 23.0095 12.5021 22.6695 12.1793ZM20.7602 10.4191C21.1387 10.4191 21.5111 10.3892 21.8761 10.4273C22.2525 10.4667 22.4795 10.8132 22.4438 11.2032C22.4127 11.5469 22.1108 11.8213 21.7499 11.8258C21.4251 11.8299 21.1002 11.8266 20.7598 11.8266C20.7602 11.3474 20.7602 10.8878 20.7602 10.4191ZM21.831 13.7491C21.5066 13.7683 21.1801 13.7585 20.8549 13.7605C20.8254 13.7605 20.7955 13.7519 20.7586 13.7466C20.7586 13.2206 20.7586 12.6983 20.7586 12.1585C20.8102 12.1556 20.859 12.1507 20.9077 12.1507C21.1928 12.1498 21.4775 12.149 21.7626 12.1507C22.2075 12.1535 22.5618 12.496 22.5753 12.9339C22.588 13.3542 22.2615 13.7237 21.831 13.7491Z" fill="#435465"/>
<path d="M18.5595 10.1335C17.9959 10.0524 17.4159 10.086 16.8301 10.0684C16.8301 11.4255 16.8301 12.7416 16.8301 14.0656C16.8784 14.0701 16.9177 14.0766 16.9571 14.0766C17.3999 14.0758 17.8427 14.0848 18.2851 14.0676C18.4743 14.0602 18.6706 14.0221 18.8487 13.9566C19.7032 13.6416 20.2243 12.7424 20.0903 11.8388C19.9597 10.9569 19.3678 10.2498 18.5595 10.1335ZM18.8877 13.5384C18.6865 13.6506 18.4432 13.7174 18.213 13.7411C17.8878 13.7751 17.5559 13.7497 17.2114 13.7497C17.2114 13.6883 17.2114 13.6383 17.2114 13.5883C17.2114 12.5868 17.2139 11.5856 17.2086 10.5841C17.2078 10.444 17.2467 10.3993 17.3876 10.4051C17.6969 10.4182 18.0115 10.3834 18.3162 10.4256C19.0036 10.521 19.4931 11.006 19.6484 11.6954C19.8114 12.4192 19.5066 13.1926 18.8877 13.5384Z" fill="#435465"/>
</svg>
