<svg width="24" height="24" viewBox="0 0 24 24" fill="none" xmlns="http://www.w3.org/2000/svg">
<path d="M11.3213 8.61133V18.6474H3L11.3213 8.61133Z" fill="#03363D"/>
<path d="M11.3233 5C11.3461 6.0856 10.9439 7.13717 10.2025 7.93048C9.4611 8.72379 8.43911 9.19608 7.35444 9.24664C6.26978 9.29719 5.20829 8.92202 4.39629 8.20111C3.5843 7.4802 3.08606 6.4706 3.00781 5.38758C3.00781 5.26622 3.00781 5.1429 3.00781 5.01762L11.3233 5Z" fill="#03363D"/>
<path d="M12.689 18.6469C12.6439 17.545 13.0383 16.4703 13.7855 15.6592C14.5328 14.8481 15.5716 14.367 16.6735 14.3219C17.7754 14.2767 18.8502 14.6711 19.6613 15.4183C20.4724 16.1656 20.9535 17.2044 20.9986 18.3063C20.9986 18.4297 20.9986 18.553 20.9986 18.6704L12.689 18.6469Z" fill="#03363D"/>
<path d="M12.6914 15.0478V5H21.001L12.6914 15.0478Z" fill="#03363D"/>
</svg>
