<svg width="24" height="24" viewBox="0 0 24 24" fill="none" xmlns="http://www.w3.org/2000/svg">
<path fill-rule="evenodd" clip-rule="evenodd" d="M13.8008 2.25C13.9997 2.25 14.1904 2.32908 14.3311 2.46973L19.7314 7.87012C19.8719 8.01073 19.9512 8.20167 19.9512 8.40039V10.5C19.9512 10.9141 19.6152 11.2498 19.2012 11.25C18.787 11.25 18.4512 10.9142 18.4512 10.5V9.14942H15.2412C15.0017 9.14942 14.7765 9.15008 14.5889 9.13477C14.3925 9.11873 14.1717 9.0815 13.9522 8.96973C13.6417 8.81156 13.3887 8.55942 13.2305 8.24903C13.1187 8.02958 13.0815 7.80866 13.0654 7.61231C13.0501 7.42468 13.0508 7.1995 13.0508 6.95997V3.75H8.00098C7.42856 3.75 7.04393 3.75024 6.74805 3.77442C6.46106 3.79788 6.32394 3.84059 6.2334 3.88672C5.99829 4.00655 5.80733 4.19751 5.6875 4.43262C5.64137 4.52316 5.59866 4.66028 5.5752 4.94727C5.55103 5.24315 5.55079 5.62778 5.55079 6.2002V17.7998C5.55079 18.3722 5.55103 18.7569 5.5752 19.0527C5.59866 19.3397 5.64137 19.4768 5.6875 19.5674C5.80733 19.8025 5.99829 19.9935 6.2334 20.1133C6.32394 20.1594 6.46106 20.2021 6.74805 20.2256C7.04393 20.2498 7.42856 20.25 8.00098 20.25H12.001C12.4151 20.2501 12.751 20.5859 12.751 21C12.751 21.4142 12.4151 21.7499 12.001 21.75H8.00098C7.45331 21.75 6.99711 21.751 6.62598 21.7207C6.24625 21.6897 5.88988 21.6219 5.55274 21.4502C5.0353 21.1865 4.61424 20.7655 4.35059 20.2481C4.17888 19.9109 4.11111 19.5545 4.08008 19.1748C4.04976 18.8037 4.05079 18.3475 4.05079 17.7998V6.2002C4.05079 5.65253 4.04976 5.19633 4.08008 4.8252C4.11111 4.44547 4.17888 4.0891 4.35059 3.75196C4.61424 3.23451 5.0353 2.81346 5.55274 2.54981C5.88988 2.3781 6.24625 2.31033 6.62598 2.2793C6.99711 2.24898 7.45331 2.25 8.00098 2.25H13.8008ZM14.5508 6.95997C14.5508 7.22383 14.5514 7.37689 14.5606 7.48926C14.5643 7.5346 14.5687 7.56084 14.5713 7.57325C14.5842 7.59601 14.6025 7.61463 14.625 7.62793C14.6363 7.63042 14.6625 7.63569 14.7109 7.63965C14.8234 7.64883 14.977 7.64942 15.2412 7.64942H17.3897L14.5508 4.81055V6.95997Z" fill="currentColor"/>
<path fill-rule="evenodd" clip-rule="evenodd" d="M16.6338 12.8311C16.9093 12.7285 17.2178 12.746 17.4824 12.8828C17.7628 13.0278 17.8954 13.2842 17.9482 13.3897C18.0137 13.5204 18.0795 13.6898 18.1436 13.8516L18.2773 14.1875C18.466 14.6636 18.5208 14.7904 18.5918 14.8926C18.6649 14.9976 18.7541 15.0909 18.8555 15.1689C18.9542 15.2449 19.0772 15.3062 19.5439 15.5176L20.3438 15.8799C20.4833 15.9431 20.6359 16.0108 20.7549 16.0781C20.8454 16.1294 21.0303 16.2392 21.1621 16.4424L21.2148 16.5352L21.2617 16.6475C21.3565 16.9132 21.3411 17.2087 21.2148 17.4648C21.0848 17.7283 20.8584 17.8633 20.7549 17.9219C20.6359 17.9892 20.4833 18.0569 20.3438 18.1201L19.5439 18.4824C19.0775 18.6937 18.9541 18.7552 18.8555 18.8311C18.7541 18.9091 18.6649 19.0024 18.5918 19.1074C18.5207 19.2096 18.466 19.3363 18.2773 19.8125L18.1436 20.1484C18.0795 20.3102 18.0137 20.4796 17.9482 20.6104C17.8955 20.7156 17.7629 20.972 17.4824 21.1172C17.1798 21.2737 16.8202 21.2738 16.5176 21.1172C16.2372 20.9719 16.1045 20.7157 16.0518 20.6104C15.9863 20.4796 15.9205 20.3103 15.8564 20.1484L15.7246 19.8135C15.536 19.3366 15.4803 19.2107 15.4092 19.1084C15.336 19.0031 15.2471 18.9093 15.1455 18.8311C15.0467 18.7551 14.9232 18.6939 14.4561 18.4824L13.6563 18.1201C13.5168 18.057 13.365 17.9891 13.2461 17.9219C13.1426 17.8633 12.9163 17.7284 12.7861 17.4648C12.6418 17.1721 12.6417 16.8279 12.7861 16.5352C12.9164 16.2717 13.1427 16.1366 13.2461 16.0781C13.365 16.0109 13.5169 15.943 13.6563 15.8799L14.4561 15.5176C14.9233 15.3061 15.0467 15.245 15.1455 15.1689C15.2471 15.0907 15.336 14.9969 15.4092 14.8916C15.4802 14.7893 15.5361 14.6632 15.7246 14.1865L15.8564 13.8516C15.9205 13.6897 15.9863 13.5204 16.0518 13.3897C16.1046 13.2841 16.2374 13.0279 16.5176 12.8828L16.6338 12.8311ZM17 15.0264C16.8877 15.3042 16.787 15.5387 16.6416 15.7481C16.4804 15.98 16.2844 16.1861 16.0606 16.3584C15.7921 16.5649 15.4789 16.701 15.0752 16.8838L14.8184 17L15.0752 17.1162C15.4789 17.299 15.7921 17.4351 16.0606 17.6416C16.2844 17.8138 16.4804 18.0201 16.6416 18.252C16.7869 18.4611 16.8878 18.6952 17 18.9727C17.1126 18.6947 17.2148 18.4603 17.3604 18.251C17.5214 18.0195 17.7179 17.8136 17.9414 17.6416C18.2095 17.4355 18.5218 17.2988 18.9248 17.1162L19.1816 17L18.9248 16.8838C18.5217 16.7012 18.2095 16.5646 17.9414 16.3584C17.7179 16.1864 17.5214 15.9806 17.3604 15.749C17.2146 15.5394 17.1127 15.3048 17 15.0264Z" fill="currentColor"/>
</svg>
