<svg width="24" height="24" viewBox="0 0 24 24" fill="none" xmlns="http://www.w3.org/2000/svg">
<path fill-rule="evenodd" clip-rule="evenodd" d="M16.914 3.39785C17.734 2.57807 19.0637 2.57811 19.8837 3.39785L21.5751 5.08925C22.3947 5.90931 22.3948 7.239 21.5751 8.05898L18.1152 11.518C18.1086 11.5245 18.103 11.532 18.0966 11.5385L10.0214 19.6137C9.83607 19.799 9.68804 19.9486 9.51652 20.0736C9.3738 20.1776 9.22058 20.2669 9.05949 20.3393C8.86578 20.4262 8.66203 20.4802 8.4091 20.5492L4.19718 21.6977C3.93758 21.7684 3.65993 21.6945 3.46964 21.5043C3.27946 21.314 3.20556 21.0363 3.27629 20.7768L4.42472 16.5648C4.49368 16.312 4.54774 16.1081 4.63468 15.9144C4.70695 15.7535 4.79549 15.6 4.89933 15.4574C5.02436 15.2859 5.17492 15.1379 5.36027 14.9525L16.914 3.39785ZM14.4745 7.95839L14.4032 8.02871L6.42082 16.0131C6.20404 16.2299 6.15252 16.285 6.11222 16.3402C6.06946 16.3989 6.03262 16.4625 6.00285 16.5287C5.9748 16.5912 5.95278 16.6632 5.87199 16.9594L5.06828 19.9047L8.01457 19.1019C8.31098 19.0211 8.38274 18.9991 8.44523 18.9711C8.51151 18.9413 8.57498 18.9045 8.63371 18.8617C8.68894 18.8214 8.74405 18.7699 8.96086 18.5531L17.0136 10.4984L14.4745 7.95839ZM18.8232 4.45937C18.5889 4.22507 18.2088 4.22509 17.9745 4.45937L15.5351 6.89785L18.0741 9.43691L20.5136 6.99843C20.7478 6.76415 20.7478 6.38411 20.5136 6.1498L18.8232 4.45937Z" fill="currentColor"/>
<path fill-rule="evenodd" clip-rule="evenodd" d="M5.63371 2.33144C5.90931 2.22881 6.21766 2.24632 6.48234 2.3832C6.76282 2.52837 6.89542 2.78482 6.94816 2.89003C7.01366 3.0208 7.07938 3.19015 7.14347 3.35195L7.27726 3.68789C7.46595 4.16416 7.52063 4.29075 7.59171 4.39296C7.66483 4.49797 7.754 4.59127 7.85539 4.66933C7.95404 4.74518 8.07739 4.80667 8.54386 5.01796L9.34367 5.38027C9.48318 5.44346 9.63586 5.51119 9.7548 5.57851C9.84541 5.62982 10.0303 5.73957 10.162 5.94277L10.2148 6.03554L10.2616 6.14785C10.3564 6.41368 10.3411 6.70907 10.2148 6.96523C10.0846 7.2288 9.85822 7.36371 9.7548 7.42226C9.63581 7.48961 9.48323 7.55729 9.34367 7.6205L8.54386 7.98281C8.07703 8.19426 7.95408 8.25551 7.85539 8.33144C7.75392 8.40956 7.66486 8.5027 7.59171 8.60781C7.52064 8.71003 7.46599 8.8365 7.27726 9.31289L7.14347 9.64882C7.07935 9.81068 7.01368 9.97998 6.94816 10.1107C6.89537 10.216 6.76285 10.4725 6.48234 10.6176C6.17975 10.7741 5.82004 10.7741 5.5175 10.6176C5.23722 10.4724 5.10449 10.2162 5.05168 10.1107C4.98622 9.97998 4.9204 9.81073 4.85636 9.64882L4.72453 9.31386C4.53597 8.83711 4.48015 8.7111 4.4091 8.60878C4.3359 8.50347 4.24704 8.40969 4.14543 8.33144C4.04665 8.25544 3.9232 8.19432 3.45597 7.98281L2.65617 7.6205C2.51681 7.55742 2.36487 7.48945 2.24601 7.42226C2.14264 7.36376 1.91629 7.2287 1.78605 6.96523C1.64161 6.67243 1.64165 6.32835 1.78605 6.03554C1.91627 5.7719 2.1426 5.63703 2.24601 5.57851C2.3649 5.51128 2.51673 5.44339 2.65617 5.38027L3.45597 5.01796C3.92335 4.80638 4.04664 4.74534 4.14543 4.66933C4.24711 4.59107 4.33586 4.49735 4.4091 4.39199C4.48023 4.28964 4.53586 4.16392 4.72453 3.68691L4.85636 3.35195C4.92041 3.19001 4.98621 3.02084 5.05168 2.89003C5.10441 2.7847 5.23699 2.52846 5.5175 2.3832L5.63371 2.33144ZM5.99992 4.52675C5.88755 4.80468 5.78703 5.03905 5.64152 5.24843C5.48029 5.4804 5.28435 5.68651 5.06046 5.85878C4.792 6.06535 4.47886 6.2014 4.07511 6.38417L3.81828 6.50039L4.07511 6.6166C4.47878 6.79933 4.79203 6.93545 5.06046 7.14199C5.28428 7.31424 5.48034 7.52042 5.64152 7.75234C5.78682 7.96148 5.8877 8.19553 5.99992 8.47304C6.11251 8.19492 6.21463 7.96079 6.36027 7.75136C6.52139 7.51975 6.71771 7.31404 6.94132 7.14199C7.20946 6.93579 7.5216 6.7992 7.92472 6.6166L8.18156 6.50039L7.92472 6.38417C7.52171 6.20163 7.20941 6.06489 6.94132 5.85878C6.71779 5.68679 6.52136 5.48092 6.36027 5.24941C6.2145 5.03981 6.11261 4.80516 5.99992 4.52675Z" fill="currentColor"/>
</svg>
