<svg width="24" height="24" viewBox="0 0 24 24" fill="none" xmlns="http://www.w3.org/2000/svg">
<path d="M14.0001 13.2507C14.4143 13.2507 14.7501 13.5864 14.7501 14.0007C14.7493 14.0241 14.7469 14.1032 14.7442 14.1403C14.7389 14.2148 14.729 14.3166 14.7091 14.4362C14.6697 14.6727 14.5888 14.9999 14.421 15.3356C14.2515 15.6745 13.9853 16.0369 13.5724 16.3122C13.1547 16.5906 12.6312 16.7507 12.0001 16.7507C11.3689 16.7506 10.8456 16.5906 10.4278 16.3122C10.0149 16.0369 9.7487 15.6745 9.57921 15.3356C9.41139 14.9998 9.33056 14.6727 9.29112 14.4362C9.27119 14.3166 9.2613 14.2148 9.25597 14.1403C9.25332 14.1032 9.2509 14.025 9.25011 14.0016C9.24972 13.99 9.25024 14.0095 9.25011 14.0016C9.25011 13.5875 9.58594 13.2507 10.0001 13.2507C10.412 13.2507 10.7464 13.5828 10.7501 13.9938V13.9977C10.7503 14.0036 10.7509 14.0161 10.7521 14.0329C10.7546 14.0676 10.7604 14.1229 10.7716 14.1901C10.7947 14.3284 10.8391 14.502 10.921 14.6657C11.0015 14.8265 11.1106 14.9646 11.2599 15.0641C11.4046 15.1606 11.6315 15.2506 12.0001 15.2507C12.3687 15.2507 12.5956 15.1606 12.7403 15.0641C12.8896 14.9646 12.9987 14.8264 13.0792 14.6657C13.1611 14.502 13.2055 14.3284 13.2286 14.1901C13.2398 14.1229 13.2457 14.0676 13.2482 14.0329C13.2494 14.0161 13.2499 14.0036 13.2501 13.9977V13.9938C13.2538 13.5828 13.5882 13.2507 14.0001 13.2507Z" fill="currentColor"/>
<path d="M7.25011 10.0007C7.94046 10.0007 8.50011 10.5603 8.50011 11.2507C8.4998 11.9407 7.94027 12.5007 7.25011 12.5007C6.56004 12.5005 6.00042 11.9407 6.00011 11.2507C6.00011 10.5604 6.55985 10.0008 7.25011 10.0007Z" fill="currentColor"/>
<path d="M16.2501 10.0007C16.9405 10.0007 17.5001 10.5603 17.5001 11.2507C17.4998 11.9407 16.9403 12.5007 16.2501 12.5007C15.56 12.5005 15.0004 11.9407 15.0001 11.2507C15.0001 10.5604 15.5599 10.0008 16.2501 10.0007Z" fill="currentColor"/>
<path fill-rule="evenodd" clip-rule="evenodd" d="M11.296 3.05632C11.6613 2.98119 12.0391 2.98127 12.4044 3.05632C12.8437 3.14675 13.2444 3.37834 13.7687 3.6696L18.6681 6.39128C19.2216 6.69882 19.6535 6.92891 19.9728 7.27507C20.2377 7.56267 20.4388 7.9048 20.5616 8.27605C20.7092 8.72315 20.7003 9.21139 20.7003 9.84441V15.0788C20.7003 15.7119 20.7091 16.2 20.5616 16.6471C20.4389 17.0186 20.2378 17.3603 19.9728 17.6481C19.6534 17.9946 19.222 18.2242 18.6681 18.5319L13.7687 21.2536C13.2441 21.545 12.8439 21.7764 12.4044 21.8669C12.039 21.942 11.6614 21.942 11.296 21.8669C10.8567 21.7763 10.4562 21.5449 9.93175 21.2536L5.03136 18.5319C4.47787 18.2244 4.04681 17.9945 3.72765 17.6481C3.46275 17.3604 3.26147 17.0185 3.13878 16.6471C2.99139 16.2001 3.00011 15.7118 3.00011 15.0788V9.84441C3.0001 9.21137 2.99115 8.72317 3.13878 8.27605C3.26159 7.90466 3.4626 7.56275 3.72765 7.27507C4.04692 6.92872 4.47767 6.69888 5.03136 6.39128L9.93175 3.6696C10.4563 3.37818 10.8566 3.1468 11.296 3.05632ZM12.1017 4.52507C11.9359 4.4911 11.7645 4.49105 11.5987 4.52507C11.4378 4.55822 11.2695 4.6417 10.6603 4.98015L5.75987 7.7028C5.11637 8.06031 4.948 8.16498 4.83116 8.29167C4.71087 8.42222 4.61944 8.57728 4.56358 8.74577C4.5095 8.90946 4.50011 9.10825 4.50011 9.84441V15.0788C4.50011 15.8143 4.50974 16.0138 4.56358 16.1774C4.61932 16.3459 4.71103 16.5009 4.83116 16.6315C4.94797 16.7583 5.11653 16.863 5.75987 17.2204L10.6603 19.943C11.2691 20.2813 11.4379 20.3649 11.5987 20.3981C11.7646 20.4322 11.9358 20.4322 12.1017 20.3981C12.2627 20.365 12.4305 20.2817 13.0401 19.943L17.9396 17.2204C18.5837 16.8625 18.7524 16.7583 18.8692 16.6315C18.9895 16.5009 19.081 16.346 19.1368 16.1774C19.1907 16.0138 19.2003 15.8147 19.2003 15.0788V9.84441C19.2003 9.10825 19.1909 8.90946 19.1368 8.74577C19.081 8.5774 18.9894 8.42215 18.8692 8.29167C18.7524 8.16515 18.5826 8.06005 17.9396 7.7028L13.0401 4.98015C12.431 4.64177 12.2627 4.55818 12.1017 4.52507Z" fill="currentColor"/>
</svg>
