<svg width="64" height="64" viewBox="0 0 64 64" fill="none" xmlns="http://www.w3.org/2000/svg">
<path fill-rule="evenodd" clip-rule="evenodd" d="M17.9527 32.6928C18.591 33.0263 19.352 33.0263 19.9902 32.6928C20.5608 32.3947 20.8396 31.8563 20.9735 31.5819C21.1269 31.2676 21.2847 30.8571 21.4529 30.4197L21.4728 30.3679L23.0949 26.1505C23.5154 25.057 23.6476 24.7419 23.8284 24.4877C24.0098 24.2326 24.2326 24.0098 24.4877 23.8284C24.742 23.6476 25.057 23.5154 26.1505 23.0949L30.4198 21.4529C30.8571 21.2847 31.2676 21.1269 31.5819 20.9735C31.8563 20.8396 32.3947 20.5608 32.6928 19.9902C33.0263 19.352 33.0263 18.591 32.6928 17.9527C32.3947 17.3821 31.8563 17.1033 31.5819 16.9694C31.2676 16.816 30.857 16.6582 30.4197 16.49L26.1505 14.848C25.057 14.4275 24.7419 14.2953 24.4877 14.1145C24.2326 13.9332 24.0098 13.7103 23.8284 13.4552C23.6476 13.201 23.5154 12.8859 23.0949 11.7924L21.4529 7.52317C21.2847 7.08586 21.1269 6.6753 20.9735 6.36102C20.8396 6.08666 20.5608 5.54822 19.9902 5.25009C19.352 4.91664 18.5909 4.91664 17.9527 5.25009C17.3821 5.54822 17.1033 6.08666 16.9694 6.36102C16.816 6.6753 16.6582 7.08586 16.49 7.52318L14.848 11.7924C14.4275 12.8859 14.2953 13.201 14.1145 13.4552C13.9332 13.7103 13.7103 13.9332 13.4552 14.1145C13.201 14.2953 12.8859 14.4275 11.7924 14.848L7.52318 16.49C7.08586 16.6582 6.67531 16.816 6.36103 16.9694C6.08667 17.1033 5.54822 17.3821 5.25008 17.9527C4.91664 18.591 4.91664 19.352 5.25008 19.9902C5.54822 20.5608 6.08666 20.8396 6.36102 20.9735C6.6753 21.1269 7.08585 21.2847 7.52317 21.4529L11.7924 23.0949C12.8859 23.5154 13.201 23.6476 13.4552 23.8284C13.7103 24.0098 13.9332 24.2326 14.1145 24.4877C14.2953 24.7419 14.4275 25.057 14.848 26.1505L16.4901 30.4198L16.4901 30.4199C16.6582 30.8571 16.8161 31.2676 16.9694 31.5819C17.1033 31.8563 17.3821 32.3947 17.9527 32.6928ZM39.3019 58.5923C40.3463 59.1379 41.5916 59.1379 42.636 58.5923C43.4698 58.1566 43.9422 57.3302 44.2665 56.6656C44.6128 55.956 44.9813 54.9981 45.4215 53.8533L46.4862 51.0851C47.0797 49.5421 47.2871 49.0353 47.5814 48.6214C47.8665 48.2206 48.2167 47.8704 48.6175 47.5853C49.0314 47.291 49.5382 47.0836 51.0812 46.4901L53.8494 45.4254C54.9942 44.9852 55.9521 44.6167 56.6617 44.2704C57.3263 43.9461 58.1527 43.4738 58.5884 42.6399C59.134 41.5955 59.134 40.3502 58.5884 39.3058C58.1527 38.472 57.3263 37.9996 56.6617 37.6753C55.9521 37.329 54.9942 36.9606 53.8495 36.5203L51.0812 35.4556C49.5382 34.8621 49.0314 34.6547 48.6175 34.3604C48.2167 34.0754 47.8664 33.7251 47.5814 33.3243C47.2871 32.9104 47.0797 32.4036 46.4862 30.8607L45.4215 28.0923C44.9812 26.9476 44.6128 25.9897 44.2665 25.2801C43.9422 24.6156 43.4698 23.7891 42.636 23.3535C41.5916 22.8078 40.3463 22.8078 39.3019 23.3535C38.4681 23.7891 37.9957 24.6156 37.6714 25.2801C37.3251 25.9897 36.9566 26.9477 36.5164 28.0925L35.4517 30.8607C34.8582 32.4036 34.6508 32.9104 34.3565 33.3243C34.0715 33.7251 33.7212 34.0754 33.3204 34.3604C32.9065 34.6547 32.3997 34.8622 30.8568 35.4556L28.0886 36.5203C26.9438 36.9606 25.9858 37.329 25.2762 37.6753C24.6117 37.9996 23.7852 38.472 23.3495 39.3058C22.8039 40.3502 22.8039 41.5955 23.3495 42.6399C23.7852 43.4738 24.6117 43.9461 25.2762 44.2704C25.9858 44.6167 26.9437 44.9851 28.0884 45.4254L30.8568 46.4901C32.3997 47.0836 32.9065 47.291 33.3204 47.5853C33.7212 47.8704 34.0715 48.2206 34.3565 48.6214C34.6508 49.0353 34.8582 49.5421 35.4517 51.0851L36.5164 53.8534C36.9567 54.9981 37.3251 55.956 37.6714 56.6656C37.9957 57.3302 38.4681 58.1566 39.3019 58.5923Z" fill="url(#paint0_linear_29364_21334)"/>
<defs>
<linearGradient id="paint0_linear_29364_21334" x1="8.9715" y1="-3.03125" x2="54.9723" y2="64.9668" gradientUnits="userSpaceOnUse">
<stop stop-color="#8D8EF6"/>
<stop offset="0.33" stop-color="#67A4F3"/>
<stop offset="0.77" stop-color="#77C9FF"/>
<stop offset="1" stop-color="#8CEADA"/>
</linearGradient>
</defs>
</svg>
