<svg width="24" height="24" viewBox="0 0 24 24" fill="none" xmlns="http://www.w3.org/2000/svg">
<path d="M15.266 9.07183C15.5518 8.96524 15.8668 8.96549 16.1527 9.07183L16.2933 9.13336L16.4056 9.20074C16.6499 9.36981 16.7841 9.61736 16.8607 9.77008C16.9609 9.96998 17.0658 10.2362 17.181 10.5269L17.2865 10.7916C17.6509 11.7115 17.7934 12.0599 17.9964 12.3521C18.1868 12.6259 18.4187 12.8694 18.683 13.0728C18.9651 13.2898 19.306 13.4487 20.2074 13.857L21.2826 14.3443C21.5345 14.4584 21.771 14.565 21.9505 14.6666C22.0941 14.7478 22.3138 14.8846 22.4652 15.1177L22.5248 15.2242L22.5824 15.3589C22.6971 15.6805 22.6775 16.0373 22.5248 16.3472C22.3772 16.6464 22.1146 16.8119 21.9505 16.9048C21.771 17.0065 21.5346 17.1129 21.2826 17.2271L20.2074 17.7144C19.3058 18.1228 18.9651 18.2816 18.683 18.4986C18.4186 18.702 18.1869 18.9455 17.9964 19.2193C17.7933 19.5115 17.651 19.8597 17.2865 20.7798L17.181 21.0445C17.0658 21.3353 16.9609 21.6014 16.8607 21.8013C16.7732 21.9759 16.6103 22.2741 16.2933 22.438C15.9271 22.6274 15.4915 22.6267 15.1253 22.4371C14.8086 22.2727 14.6453 21.9748 14.558 21.8004C14.4579 21.6003 14.3536 21.3343 14.2386 21.0435L14.1351 20.7828C13.7707 19.8613 13.6275 19.5129 13.4242 19.2203C13.2337 18.9462 13.0022 18.7021 12.7377 18.4986C12.4553 18.2814 12.1139 18.122 11.2113 17.7134L10.138 17.2271C9.88581 17.1129 9.64878 17.0065 9.4691 16.9048C9.30494 16.8119 9.04141 16.6462 8.8939 16.3472C8.71968 15.9933 8.71954 15.578 8.8939 15.2242L8.95445 15.1177C9.10592 14.8844 9.3255 14.7478 9.4691 14.6666C9.64885 14.5648 9.8857 14.4585 10.138 14.3443L11.2113 13.858C12.1142 13.4492 12.4552 13.2901 12.7377 13.0728C13.0023 12.8692 13.2336 12.6253 13.4242 12.3511C13.6275 12.0585 13.7706 11.7102 14.1351 10.7886L14.2386 10.5279C14.3537 10.237 14.4578 9.97107 14.558 9.77105C14.6453 9.59652 14.8086 9.29855 15.1253 9.13433L15.266 9.07183Z" fill="currentColor"/>
<path d="M6.7523 2.12652C7.0371 1.97917 7.36976 1.96041 7.66636 2.07086L7.79136 2.12652L7.8939 2.18804C8.11919 2.34356 8.23609 2.56608 8.29332 2.68023C8.37143 2.83606 8.45189 3.03999 8.53453 3.24859L8.59117 3.39312C8.86791 4.09169 8.96667 4.32867 9.10386 4.52594C9.2357 4.71546 9.39647 4.8832 9.57945 5.02398C9.76986 5.17044 10.0016 5.28045 10.6859 5.59039L11.4222 5.92437C11.6025 6.00601 11.7853 6.08778 11.9261 6.16754C12.0515 6.23853 12.2907 6.38445 12.4271 6.6607C12.5824 6.97561 12.5823 7.34576 12.4271 7.6607C12.2908 7.93683 12.0516 8.08283 11.9261 8.15386C11.7853 8.23359 11.6024 8.31542 11.4222 8.39703L10.6859 8.73101C10.0019 9.04083 9.76981 9.15104 9.57945 9.29742C9.39657 9.43813 9.23566 9.60607 9.10386 9.79547C8.96669 9.9927 8.86782 10.23 8.59117 10.9283L8.53453 11.0728C8.45194 11.2813 8.37139 11.4854 8.29332 11.6412C8.228 11.7715 8.08465 12.0429 7.79136 12.1949C7.46575 12.3633 7.07785 12.3634 6.7523 12.1949C6.4586 12.0427 6.31558 11.7705 6.25035 11.6402C6.17234 11.4843 6.09262 11.2804 6.01011 11.0718L5.95445 10.9302C5.6779 10.231 5.57895 9.99391 5.44175 9.79644C5.30992 9.60675 5.14922 9.43833 4.96617 9.29742C4.77556 9.15076 4.54287 9.04018 3.85777 8.73004L3.12242 8.39703C2.94215 8.31542 2.75944 8.23358 2.61851 8.15386C2.49311 8.08291 2.25306 7.93736 2.11656 7.6607C1.96115 7.34565 1.96114 6.97575 2.11656 6.6607L2.17222 6.56304C2.31121 6.349 2.50884 6.2296 2.61851 6.16754C2.75941 6.08786 2.94224 6.00594 3.12242 5.92437L3.9691 5.54058C4.61284 5.24916 4.82506 5.14856 4.9984 5.01519C5.16612 4.88605 5.31313 4.73101 5.43394 4.55719C5.55862 4.37762 5.64962 4.16062 5.90953 3.50347L6.01011 3.24957C6.09258 3.04107 6.17237 2.83702 6.25035 2.68121C6.31565 2.55077 6.45884 2.27858 6.7523 2.12652Z" fill="currentColor"/>
</svg>
