<svg width="24" height="24" viewBox="0 0 24 24" fill="none" xmlns="http://www.w3.org/2000/svg">
<path fill-rule="evenodd" clip-rule="evenodd" d="M15.057 8.97418C15.3428 8.86758 15.6578 8.86783 15.9437 8.97418L16.0843 9.0357L16.1966 9.10308C16.441 9.27215 16.5751 9.5197 16.6517 9.67242C16.7519 9.87232 16.8569 10.1385 16.972 10.4293L17.0775 10.6939C17.4419 11.6139 17.5844 11.9623 17.7875 12.2545C17.9778 12.5282 18.2097 12.7718 18.474 12.9752C18.7561 13.1922 19.097 13.351 19.9984 13.7593L21.0736 14.2466C21.3255 14.3607 21.562 14.4673 21.7416 14.5689C21.8851 14.6502 22.1048 14.7869 22.2562 15.0201L22.3158 15.1265L22.3734 15.2613C22.4881 15.5829 22.4685 15.9396 22.3158 16.2496C22.1682 16.5487 21.9056 16.7143 21.7416 16.8072C21.562 16.9089 21.3256 17.0153 21.0736 17.1295L19.9984 17.6168C19.0968 18.0251 18.7561 18.1839 18.474 18.4009C18.2097 18.6043 17.9779 18.8478 17.7875 19.1216C17.5843 19.4139 17.442 19.762 17.0775 20.6822L16.972 20.9468C16.8568 21.2376 16.7519 21.5037 16.6517 21.7037C16.5642 21.8782 16.4013 22.1765 16.0843 22.3404C15.7181 22.5298 15.2825 22.529 14.9164 22.3394C14.5996 22.1751 14.4363 21.8771 14.349 21.7027C14.2489 21.5027 14.1447 21.2367 14.0296 20.9459L13.9261 20.6851C13.5617 19.7637 13.4185 19.4152 13.2152 19.1226C13.0247 18.8486 12.7932 18.6045 12.5287 18.4009C12.2463 18.1838 11.9049 18.0244 11.0023 17.6158L9.92906 17.1295C9.67683 17.0153 9.43979 16.9089 9.26011 16.8072C9.09595 16.7143 8.83242 16.5486 8.68492 16.2496C8.51069 15.8957 8.51056 15.4804 8.68492 15.1265L8.74547 15.0201C8.89693 14.7868 9.11651 14.6502 9.26011 14.5689C9.43986 14.4672 9.67672 14.3609 9.92906 14.2466L11.0023 13.7603C11.9053 13.3515 12.2462 13.1924 12.5287 12.9752C12.7933 12.7715 13.0246 12.5277 13.2152 12.2535C13.4185 11.9609 13.5616 11.6126 13.9261 10.691L14.0296 10.4302C14.1447 10.1393 14.2489 9.87341 14.349 9.6734C14.4364 9.49887 14.5996 9.20089 14.9164 9.03668L15.057 8.97418ZM15.4242 10.982L15.3207 11.2427C14.9818 12.0996 14.7731 12.6414 14.4476 13.1099C14.1692 13.5106 13.8304 13.8661 13.4437 14.1636C12.9916 14.5115 12.4608 14.7466 11.6214 15.1265L10.5472 15.6128C10.4869 15.6401 10.4322 15.6652 10.3822 15.688C10.4321 15.7108 10.4871 15.736 10.5472 15.7632L11.6214 16.2496C12.4605 16.6294 12.9916 16.8647 13.4437 17.2125C13.8303 17.5099 14.1692 17.8656 14.4476 18.2662C14.7732 18.7346 14.9818 19.2766 15.3207 20.1334L15.4242 20.3941C15.4517 20.4636 15.4772 20.5274 15.5003 20.5855C15.5236 20.5273 15.5499 20.4638 15.5775 20.3941L15.682 20.1295C16.0209 19.2739 16.2307 18.733 16.556 18.2652C16.8343 17.8651 17.1727 17.5097 17.5589 17.2125C18.0107 16.8649 18.5408 16.6293 19.3793 16.2496L20.4545 15.7632C20.5144 15.7361 20.5687 15.7108 20.6185 15.688C20.5688 15.6654 20.5143 15.64 20.4545 15.6128L19.3793 15.1265C18.541 14.7468 18.0106 14.5111 17.5589 14.1636C17.1728 13.8664 16.8342 13.5109 16.556 13.1109C16.2308 12.6431 16.0209 12.1022 15.682 11.2466L15.5775 10.982C15.5498 10.912 15.5237 10.848 15.5003 10.7896C15.4771 10.8479 15.4518 10.9121 15.4242 10.982Z" fill="currentColor"/>
<path fill-rule="evenodd" clip-rule="evenodd" d="M6.54332 2.02887C6.82811 1.88152 7.16078 1.86275 7.45738 1.9732L7.58238 2.02887L7.68492 2.09039C7.91021 2.2459 8.0271 2.46843 8.08433 2.58258C8.16245 2.73841 8.2429 2.94233 8.32554 3.15094L8.38218 3.29547C8.65893 3.99403 8.75769 4.23101 8.89488 4.42828C9.02671 4.6178 9.18749 4.78554 9.37047 4.92633C9.56087 5.07278 9.79266 5.18279 10.4769 5.49273L11.2132 5.82672C11.3935 5.90835 11.5763 5.99013 11.7171 6.06988C11.8425 6.14088 12.0817 6.2868 12.2181 6.56304C12.3734 6.87795 12.3733 7.2481 12.2181 7.56304C12.0818 7.83917 11.8426 7.98517 11.7171 8.05621C11.5763 8.13594 11.3934 8.21776 11.2132 8.29937L10.4769 8.63336C9.79292 8.94318 9.56083 9.05339 9.37047 9.19976C9.18759 9.34047 9.02667 9.50841 8.89488 9.69781C8.75771 9.89505 8.65883 10.1323 8.38218 10.8306L8.32554 10.9752C8.24295 11.1836 8.1624 11.3877 8.08433 11.5435C8.01902 11.6738 7.87567 11.9452 7.58238 12.0972C7.25677 12.2656 6.86886 12.2657 6.54332 12.0972C6.24962 11.945 6.10659 11.6728 6.04136 11.5425C5.96336 11.3867 5.88363 11.1828 5.80113 10.9742L5.74547 10.8326C5.46892 10.1334 5.36997 9.89626 5.23277 9.69879C5.10093 9.50909 4.94024 9.34067 4.75718 9.19976C4.56657 9.0531 4.33388 8.94252 3.64879 8.63238L2.91343 8.29937C2.73317 8.21777 2.55045 8.13592 2.40953 8.05621C2.28413 7.98525 2.04407 7.8397 1.90757 7.56304C1.75217 7.24799 1.75216 6.8781 1.90757 6.56304L1.96324 6.46539C2.10223 6.25134 2.29985 6.13194 2.40953 6.06988C2.55043 5.9902 2.73325 5.90828 2.91343 5.82672L3.76011 5.44293C4.40385 5.1515 4.61608 5.0509 4.78941 4.91754C4.95714 4.7884 5.10415 4.63336 5.22496 4.45953C5.34963 4.27996 5.44064 4.06296 5.70054 3.40582L5.80113 3.15191C5.88359 2.94341 5.96339 2.73936 6.04136 2.58355C6.10667 2.45312 6.24986 2.18092 6.54332 2.02887ZM7.06285 4.03668C6.84532 4.58717 6.69224 4.97653 6.4564 5.31597C6.24762 5.61635 5.99337 5.88291 5.70347 6.10601C5.36038 6.36999 4.95899 6.54723 4.37828 6.81011L3.81871 7.06304L4.26793 7.26617C4.8895 7.54755 5.31093 7.73405 5.67125 8.01129C5.97647 8.24616 6.2444 8.52611 6.46422 8.84234C6.6964 9.17643 6.85264 9.55665 7.06285 10.0875C7.27367 9.55591 7.43098 9.17561 7.66343 8.84136C7.88305 8.52569 8.15067 8.24582 8.45543 8.01129C8.81534 7.73446 9.23704 7.54831 9.85777 7.26715L10.307 7.06304L9.85777 6.85894C9.23691 6.57772 8.81538 6.39172 8.45543 6.1148C8.15058 5.88019 7.88309 5.60052 7.66343 5.28472C7.43068 4.95006 7.27408 4.56927 7.06285 4.03668Z" fill="currentColor"/>
</svg>
