<svg preserveAspectRatio="none" width="100%" height="100%" overflow="visible" style="display: block;" viewBox="0 0 117.6 139.2" fill="none" xmlns="http://www.w3.org/2000/svg">
<path id="Vector" d="M56.877 1.32812C58.1256 0.891087 59.475 0.891066 60.7236 1.32812L112.396 19.4102C114.882 20.28 116.6 22.7434 116.6 25.5645V68.1504C116.6 86.4358 109.173 99.9188 98.1855 110.864C87.2874 121.72 72.9163 130.051 58.7998 138.05C44.6834 130.051 30.3131 121.72 19.415 110.864C8.4271 99.9188 1 86.4359 1 68.1504V25.5645C1.00007 22.7433 2.71849 20.2799 5.2041 19.4102L56.877 1.32812Z" fill="url(#paint0_linear_10_9824)" fill-opacity="0.3" stroke="url(#paint1_linear_10_9824)" stroke-width="2"/>
<defs>
<linearGradient id="paint0_linear_10_9824" x1="90.16" y1="120.448" x2="-35.0976" y2="59.3518" gradientUnits="userSpaceOnUse">
<stop stop-color="#8DBEF2"/>
<stop offset="1" stop-color="#D1E5FA"/>
</linearGradient>
<linearGradient id="paint1_linear_10_9824" x1="73.1485" y1="-18.1778" x2="-17.528" y2="92.2871" gradientUnits="userSpaceOnUse">
<stop stop-color="#4896EA"/>
<stop offset="1" stop-color="white" stop-opacity="0"/>
</linearGradient>
</defs>
</svg>
