<svg preserveAspectRatio="none" width="100%" height="100%" overflow="visible" style="display: block;" viewBox="0 0 23.5 28.3177" fill="none" xmlns="http://www.w3.org/2000/svg">
<path id="Union" d="M20.8262 0.125C22.2353 0.125 23.375 1.27911 23.375 2.69922V6.70996C23.375 7.18113 22.9968 7.56535 22.5273 7.56543H21.3926C20.9236 7.56534 20.5459 7.18088 20.5459 6.70996V2.98145H3.32324L12.0576 12.3994C12.9163 13.325 12.97 14.7402 12.2168 15.7275L12.0557 15.9189L3.27539 25.3926L20.5449 25.3369V21.6074C20.5451 21.1364 20.9232 20.753 21.3926 20.7529H22.5273C22.9967 20.753 23.3748 21.1364 23.375 21.6074V25.6182C23.375 27.0383 22.2353 28.1924 20.8262 28.1924H2.78809C1.9138 28.1922 1.03068 27.796 0.54004 27.0244C-0.0746594 26.0557 0.0041271 24.8539 0.705079 23.9883L0.708986 23.9844L0.713869 23.9785L9.8125 14.1592L0.763673 4.39648L0.757814 4.39062L0.85547 4.31152L0.757814 4.38965L0.754884 4.38574C0.00336278 3.462 -0.0759859 2.27022 0.536134 1.29883C1.02158 0.52859 1.89895 0.125145 2.77246 0.125H20.8262Z" fill="var(--fill-0, #009F6F)" stroke="var(--stroke-0, #009F6F)" stroke-width="0.25"/>
</svg>
