<svg width="24" height="24" viewBox="0 0 24 24" fill="none" xmlns="http://www.w3.org/2000/svg">
<path fill-rule="evenodd" clip-rule="evenodd" d="M8.60059 13.0498C8.86816 13.0498 9.11403 13.0497 9.31836 13.0664C9.53146 13.0838 9.76486 13.1229 9.99512 13.2402C10.3243 13.408 10.592 13.6758 10.7598 14.0049C10.8771 14.2351 10.9171 14.4686 10.9346 14.6816C10.9513 14.8859 10.9502 15.1319 10.9502 15.3994V18.5C10.9502 18.7676 10.9513 19.0134 10.9346 19.2178C10.9172 19.4309 10.8771 19.6642 10.7598 19.8945C10.592 20.2237 10.3243 20.4914 9.99512 20.6592C9.76484 20.7765 9.53147 20.8166 9.31836 20.834C9.11403 20.8507 8.86816 20.8496 8.60059 20.8496H5.5C5.2325 20.8496 4.9865 20.8507 4.78223 20.834C4.56917 20.8166 4.33568 20.7765 4.10547 20.6592C3.77635 20.4914 3.50855 20.2237 3.34082 19.8945C3.2235 19.6643 3.18441 19.4309 3.16699 19.2178C3.1503 19.0134 3.15039 18.7676 3.15039 18.5V15.3994C3.15039 15.1319 3.1503 14.8859 3.16699 14.6816C3.18442 14.4686 3.22353 14.2351 3.34082 14.0049C3.50857 13.6758 3.77636 13.408 4.10547 13.2402C4.33566 13.1229 4.56918 13.0838 4.78223 13.0664C4.9865 13.0497 5.2325 13.0498 5.5 13.0498H8.60059ZM5.5 14.5498C5.20783 14.5498 5.03337 14.55 4.9043 14.5605C4.78424 14.5704 4.77073 14.5855 4.78711 14.5771C4.74007 14.6011 4.7017 14.6395 4.67773 14.6865C4.68608 14.6701 4.67097 14.6836 4.66113 14.8037C4.65059 14.9328 4.65039 15.1072 4.65039 15.3994V18.5C4.65039 18.7923 4.65059 18.9666 4.66113 19.0957C4.67097 19.2159 4.68608 19.2293 4.67773 19.2129C4.7017 19.2599 4.74007 19.2983 4.78711 19.3223C4.79958 19.3257 4.83348 19.3331 4.9043 19.3389C5.03337 19.3494 5.20783 19.3496 5.5 19.3496H8.60059C8.89287 19.3496 9.06719 19.3494 9.19629 19.3389C9.2669 19.3331 9.30085 19.3257 9.31348 19.3223C9.36052 19.2983 9.39888 19.2599 9.42285 19.2129C9.42631 19.2003 9.43368 19.1663 9.43945 19.0957C9.45 18.9666 9.45019 18.7923 9.4502 18.5V15.3994C9.45019 15.1072 9.45 14.9328 9.43945 14.8037C9.43365 14.7329 9.42628 14.699 9.42285 14.6865C9.39888 14.6395 9.36052 14.6011 9.31348 14.5771C9.32986 14.5855 9.31653 14.5704 9.19629 14.5605C9.06719 14.55 8.89287 14.5498 8.60059 14.5498H5.5Z" fill="currentColor"/>
<path fill-rule="evenodd" clip-rule="evenodd" d="M18.4971 13.0498C18.7646 13.0498 19.0105 13.0497 19.2148 13.0664C19.4279 13.0838 19.6613 13.1229 19.8916 13.2402C20.2208 13.408 20.4885 13.6758 20.6562 14.0049C20.7735 14.2351 20.8136 14.4686 20.8311 14.6816C20.8477 14.8859 20.8467 15.1319 20.8467 15.3994V18.5C20.8467 18.7676 20.8477 19.0134 20.8311 19.2178C20.8136 19.4309 20.7736 19.6642 20.6562 19.8945C20.4885 20.2237 20.2208 20.4914 19.8916 20.6592C19.6613 20.7765 19.428 20.8166 19.2148 20.834C19.0105 20.8507 18.7646 20.8496 18.4971 20.8496H15.3965C15.129 20.8496 14.883 20.8507 14.6787 20.834C14.4657 20.8166 14.2322 20.7765 14.002 20.6592C13.6728 20.4914 13.405 20.2237 13.2373 19.8945C13.12 19.6643 13.0809 19.4309 13.0635 19.2178C13.0468 19.0134 13.0469 18.7676 13.0469 18.5V15.3994C13.0469 15.1319 13.0468 14.8859 13.0635 14.6816C13.0809 14.4686 13.12 14.2351 13.2373 14.0049C13.4051 13.6758 13.6728 13.408 14.002 13.2402C14.2321 13.1229 14.4657 13.0838 14.6787 13.0664C14.883 13.0497 15.129 13.0498 15.3965 13.0498H18.4971ZM15.3965 14.5498C15.1043 14.5498 14.9299 14.55 14.8008 14.5605C14.6807 14.5704 14.6672 14.5855 14.6836 14.5771C14.6366 14.6011 14.5982 14.6395 14.5742 14.6865C14.5826 14.6701 14.5675 14.6836 14.5576 14.8037C14.5471 14.9328 14.5469 15.1072 14.5469 15.3994V18.5C14.5469 18.7923 14.5471 18.9666 14.5576 19.0957C14.5675 19.2159 14.5826 19.2293 14.5742 19.2129C14.5982 19.2599 14.6366 19.2983 14.6836 19.3223C14.6961 19.3257 14.73 19.3331 14.8008 19.3389C14.9299 19.3494 15.1043 19.3496 15.3965 19.3496H18.4971C18.7894 19.3496 18.9637 19.3494 19.0928 19.3389C19.1634 19.3331 19.1973 19.3257 19.21 19.3223C19.257 19.2983 19.2954 19.2599 19.3193 19.2129C19.3228 19.2003 19.3302 19.1663 19.3359 19.0957C19.3465 18.9666 19.3467 18.7923 19.3467 18.5V15.3994C19.3467 15.1072 19.3465 14.9328 19.3359 14.8037C19.3301 14.7329 19.3228 14.699 19.3193 14.6865C19.2954 14.6395 19.257 14.6011 19.21 14.5771C19.2263 14.5855 19.213 14.5704 19.0928 14.5605C18.9637 14.55 18.7894 14.5498 18.4971 14.5498H15.3965Z" fill="currentColor"/>
<path fill-rule="evenodd" clip-rule="evenodd" d="M8.60059 3.15039C8.86816 3.15039 9.11403 3.1503 9.31836 3.16699C9.53146 3.18441 9.76486 3.2235 9.99512 3.34082C10.3243 3.50855 10.592 3.77635 10.7598 4.10547C10.8771 4.33568 10.9171 4.56917 10.9346 4.78223C10.9513 4.9865 10.9502 5.2325 10.9502 5.5V8.60059C10.9502 8.86816 10.9513 9.11403 10.9346 9.31836C10.9172 9.53147 10.8771 9.76484 10.7598 9.99512C10.592 10.3243 10.3243 10.592 9.99512 10.7598C9.76484 10.8771 9.53147 10.9172 9.31836 10.9346C9.11403 10.9513 8.86816 10.9502 8.60059 10.9502H5.5C5.2325 10.9502 4.9865 10.9513 4.78223 10.9346C4.56917 10.9171 4.33568 10.8771 4.10547 10.7598C3.77635 10.592 3.50855 10.3243 3.34082 9.99512C3.2235 9.76486 3.18441 9.53146 3.16699 9.31836C3.1503 9.11403 3.15039 8.86816 3.15039 8.60059V5.5C3.15039 5.2325 3.1503 4.9865 3.16699 4.78223C3.18442 4.56918 3.22353 4.33566 3.34082 4.10547C3.50857 3.77636 3.77636 3.50857 4.10547 3.34082C4.33566 3.22353 4.56918 3.18442 4.78223 3.16699C4.9865 3.1503 5.2325 3.15039 5.5 3.15039H8.60059ZM5.5 4.65039C5.20783 4.65039 5.03337 4.65059 4.9043 4.66113C4.78424 4.67097 4.77073 4.68608 4.78711 4.67773C4.74007 4.7017 4.7017 4.74007 4.67773 4.78711C4.68608 4.77073 4.67097 4.78424 4.66113 4.9043C4.65059 5.03337 4.65039 5.20783 4.65039 5.5V8.60059C4.65039 8.89287 4.65059 9.06719 4.66113 9.19629C4.67097 9.31653 4.68608 9.32987 4.67773 9.31348C4.7017 9.36052 4.74007 9.39888 4.78711 9.42285C4.79958 9.42628 4.83348 9.43365 4.9043 9.43945C5.03337 9.45 5.20783 9.45019 5.5 9.4502H8.60059C8.89287 9.45019 9.06719 9.45 9.19629 9.43945C9.2669 9.43368 9.30085 9.42631 9.31348 9.42285C9.36052 9.39888 9.39888 9.36052 9.42285 9.31348C9.42631 9.30085 9.43368 9.2669 9.43945 9.19629C9.45 9.06719 9.45019 8.89287 9.4502 8.60059V5.5C9.45019 5.20783 9.45 5.03337 9.43945 4.9043C9.43365 4.83348 9.42628 4.79958 9.42285 4.78711C9.39888 4.74007 9.36052 4.7017 9.31348 4.67773C9.32986 4.68608 9.31653 4.67097 9.19629 4.66113C9.06719 4.65059 8.89287 4.65039 8.60059 4.65039H5.5Z" fill="currentColor"/>
<path d="M16.9492 3.59961C17.3634 3.59961 17.6992 3.9354 17.6992 4.34961V6.2998H19.6504C20.0644 6.30002 20.4004 6.63572 20.4004 7.0498C20.4004 7.46389 20.0644 7.79959 19.6504 7.7998H17.6992V9.75C17.699 10.164 17.3633 10.5 16.9492 10.5C16.5351 10.5 16.1994 10.164 16.1992 9.75V7.7998H14.25C13.8358 7.7998 13.5 7.46402 13.5 7.0498C13.5 6.63559 13.8358 6.2998 14.25 6.2998H16.1992V4.34961C16.1992 3.9354 16.535 3.59961 16.9492 3.59961Z" fill="currentColor"/>
</svg>
