<svg width="24" height="24" viewBox="0 0 24 24" fill="none" xmlns="http://www.w3.org/2000/svg">
<path d="M8.07233 8.25586C8.67766 8.3171 9.15045 8.82872 9.15045 9.4502C9.15035 10.1128 8.61284 10.6503 7.95026 10.6504C7.32881 10.6504 6.81716 10.1776 6.75592 9.57227L6.75006 9.4502L6.75592 9.32715C6.81743 8.72212 7.32901 8.25003 7.95026 8.25L8.07233 8.25586Z" fill="currentColor"/>
<path fill-rule="evenodd" clip-rule="evenodd" d="M9.45709 3.2998C9.86154 3.2998 10.1866 3.29491 10.5001 3.37012C10.7602 3.43258 11.0092 3.53598 11.2374 3.67578C11.5122 3.84423 11.7385 4.07732 12.0245 4.36328L18.9258 11.2646C19.4516 11.7904 19.8786 12.2167 20.1954 12.5898C20.5177 12.9695 20.7702 13.3436 20.9131 13.7832C21.1383 14.4761 21.1383 15.2231 20.9131 15.916C20.7702 16.3558 20.5178 16.7306 20.1954 17.1104C19.8786 17.4834 19.4515 17.9099 18.9258 18.4355L16.9356 20.4248C16.4097 20.9507 15.9836 21.3785 15.6104 21.6953C15.2308 22.0175 14.8566 22.2692 14.4171 22.4121C13.7241 22.6372 12.9772 22.6372 12.2842 22.4121C11.8447 22.2692 11.4705 22.0175 11.0909 21.6953C10.7177 21.3785 10.2916 20.9507 9.76569 20.4248L2.86432 13.5244C2.57833 13.2384 2.34432 13.0121 2.17584 12.7373C2.03603 12.5092 1.93362 12.2592 1.87116 11.999C1.79603 11.6857 1.80084 11.3612 1.80084 10.957V6.92969C1.80084 6.43868 1.7997 6.025 1.82721 5.6875C1.85552 5.34107 1.91735 5.00817 2.07819 4.69238C2.32265 4.21261 2.71269 3.82163 3.19245 3.57715C3.50822 3.41625 3.84114 3.35547 4.18756 3.32715C4.52504 3.29961 4.93872 3.2998 5.42975 3.2998H9.45709ZM5.42975 4.7998C4.91422 4.79981 4.57193 4.80088 4.30963 4.82227C4.0568 4.84296 3.94326 4.87892 3.87409 4.91406C3.67671 5.0147 3.51573 5.17566 3.4151 5.37305C3.37988 5.44221 3.34403 5.55505 3.32331 5.80859C3.30186 6.07105 3.30084 6.41352 3.30084 6.92969V10.957C3.30085 11.4327 3.30498 11.5497 3.32916 11.6504C3.35491 11.7572 3.39869 11.8594 3.45612 11.9531C3.51024 12.0413 3.58909 12.1271 3.92487 12.4629L10.8262 19.3643C11.3696 19.9076 11.746 20.2838 12.0616 20.5518C12.3702 20.8137 12.5716 20.929 12.7481 20.9863C13.1393 21.1134 13.5609 21.1132 13.9522 20.9863C14.1287 20.929 14.331 20.8138 14.6397 20.5518C14.9553 20.2838 15.3317 19.9076 15.8751 19.3643L17.8653 17.374C18.4085 16.8308 18.7839 16.4542 19.0518 16.1387C19.3138 15.83 19.429 15.6286 19.4864 15.4521C19.6135 15.0608 19.6134 14.6394 19.4864 14.248C19.429 14.0715 19.314 13.8694 19.0518 13.5605C18.7839 13.245 18.4085 12.8684 17.8653 12.3252L10.9639 5.42383C10.6283 5.08817 10.5423 5.0092 10.4542 4.95508C10.3603 4.89758 10.2574 4.85483 10.1505 4.8291C10.0497 4.80493 9.93292 4.7998 9.45709 4.7998H5.42975Z" fill="currentColor"/>
<path d="M19.7012 1.25C20.1154 1.25 20.4512 1.58579 20.4512 2V3.94922H22.4005C22.8145 3.94943 23.1505 4.28514 23.1505 4.69922C23.1505 5.1133 22.8145 5.44901 22.4005 5.44922H20.4512V7.40039C20.451 7.81442 20.1153 8.15039 19.7012 8.15039C19.2872 8.15036 18.9514 7.8144 18.9512 7.40039V5.44922H17.0001C16.5859 5.44918 16.2501 5.11341 16.2501 4.69922C16.2501 4.28503 16.5859 3.94925 17.0001 3.94922H18.9512V2C18.9512 1.58581 19.2871 1.25003 19.7012 1.25Z" fill="currentColor"/>
</svg>
