<svg width="24" height="24" viewBox="0 0 24 24" fill="none" xmlns="http://www.w3.org/2000/svg">
<path d="M12.849 3.15137C13.2632 3.15137 13.599 3.48716 13.599 3.90137C13.599 4.31558 13.2632 4.65137 12.849 4.65137H5.26986C4.74467 4.65137 4.40228 4.65185 4.15755 4.67383C4.03724 4.68464 3.97383 4.69886 3.94661 4.70605C3.92985 4.72636 3.91777 4.75043 3.91341 4.77637C3.92539 4.8002 3.95629 4.85726 4.0306 4.95703C4.17739 5.15409 4.40492 5.41026 4.75521 5.80176L9.89095 11.541C10.0048 11.6682 10.1406 11.8134 10.2386 11.9883C10.3172 12.1285 10.3746 12.2796 10.4095 12.4365C10.4531 12.6322 10.4495 12.8313 10.4495 13.002V18.9922L13.4495 17.793V13.002C13.4495 12.8313 13.4451 12.6322 13.4886 12.4365C13.5236 12.2796 13.5809 12.1285 13.6595 11.9883C13.7575 11.8134 13.8934 11.6682 14.0072 11.541L14.596 10.8828C14.8722 10.5742 15.3469 10.5472 15.6556 10.8232C15.9643 11.0994 15.9904 11.5741 15.7142 11.8828L15.1253 12.541C15.0534 12.6214 15.0142 12.6647 14.9867 12.6982C14.9633 12.7268 14.9634 12.73 14.9681 12.7217C14.9609 12.7344 14.9557 12.7484 14.9525 12.7627C14.9546 12.7534 14.9531 12.7561 14.9515 12.793C14.9497 12.8362 14.9495 12.8945 14.9495 13.002V17.8135C14.9495 17.9296 14.9604 18.1826 14.8734 18.416C14.8065 18.5953 14.6976 18.7561 14.556 18.8848C14.3716 19.0523 14.1325 19.1356 14.0247 19.1787L10.9652 20.4023C10.8131 20.4632 10.6516 20.5287 10.512 20.5703C10.3705 20.6125 10.1525 20.6628 9.90462 20.6113C9.59518 20.5469 9.32341 20.3631 9.14876 20.0996C9.00895 19.8886 8.97461 19.6676 8.96126 19.5205C8.94811 19.3755 8.94954 19.2018 8.94954 19.0381V13.002C8.94954 12.8945 8.94942 12.8362 8.94759 12.793C8.94602 12.7561 8.94356 12.7534 8.94564 12.7627C8.94246 12.7484 8.93716 12.7344 8.93001 12.7217C8.9347 12.73 8.93486 12.7268 8.91146 12.6982C8.88396 12.6647 8.84559 12.6213 8.77376 12.541L3.63802 6.80176C3.30762 6.43249 3.02424 6.11767 2.82747 5.85352C2.64202 5.60455 2.42956 5.27082 2.41341 4.86719C2.39297 4.35249 2.61399 3.85737 3.01107 3.5293C3.32263 3.27205 3.71353 3.2075 4.02279 3.17969C4.35085 3.15019 4.77435 3.15137 5.26986 3.15137H12.849Z" fill="currentColor"/>
<path d="M18.7972 1.92578C19.2113 1.92596 19.5472 2.26168 19.5472 2.67578V5.00098H21.8734C22.2873 5.00136 22.6234 5.337 22.6234 5.75098C22.6234 6.16495 22.2873 6.50059 21.8734 6.50098H19.5472V8.82617C19.547 9.2401 19.2111 9.576 18.7972 9.57617C18.3831 9.57617 18.0474 9.24021 18.0472 8.82617V6.50098H15.723C15.3088 6.50098 14.973 6.16519 14.973 5.75098C14.973 5.33676 15.3088 5.00098 15.723 5.00098H18.0472V2.67578C18.0472 2.26157 18.383 1.92578 18.7972 1.92578Z" fill="currentColor"/>
</svg>
