<svg width="24" height="24" viewBox="0 0 24 24" fill="none" xmlns="http://www.w3.org/2000/svg">
<path d="M12 4.45898C12.4142 4.45898 12.75 4.79477 12.75 5.20898V11.25H18.791C19.2052 11.25 19.541 11.5858 19.541 12C19.541 12.4142 19.2052 12.75 18.791 12.75H12.75V18.793C12.75 19.2072 12.4142 19.543 12 19.543C11.5858 19.543 11.25 19.2072 11.25 18.793V12.75H5.20703C4.79282 12.75 4.45703 12.4142 4.45703 12C4.45703 11.5858 4.79282 11.25 5.20703 11.25H11.25V5.20898C11.25 4.79477 11.5858 4.45898 12 4.45898Z" fill="currentColor"/>
</svg>
