<svg width="24" height="24" viewBox="0 0 24 24" fill="none" xmlns="http://www.w3.org/2000/svg">
<path fill-rule="evenodd" clip-rule="evenodd" d="M12 5.84961C14.4023 5.84961 16.3504 7.79696 16.3506 10.1992C16.3506 12.6017 14.4024 14.5498 12 14.5498C9.59774 14.5496 7.65039 12.6015 7.65039 10.1992C7.6506 7.79709 9.59787 5.84982 12 5.84961ZM12 7.34961C10.4263 7.34982 9.1506 8.62552 9.15039 10.1992C9.15039 11.7731 10.4262 13.0496 12 13.0498C13.574 13.0498 14.8506 11.7732 14.8506 10.1992C14.8504 8.62539 13.5739 7.34961 12 7.34961Z" fill="currentColor"/>
<path fill-rule="evenodd" clip-rule="evenodd" d="M12 2.25C17.3848 2.25 21.75 6.61522 21.75 12C21.75 17.3848 17.3848 21.75 12 21.75C9.76549 21.75 7.70778 20.9967 6.06348 19.7324C5.86716 19.7093 5.68016 19.6108 5.55176 19.4404C5.4978 19.3688 5.46047 19.29 5.43555 19.209C3.47836 17.4258 2.25 14.8564 2.25 12C2.25 6.61522 6.61522 2.25 12 2.25ZM12 17.75C10.4027 17.7501 8.89394 18.1833 7.5625 18.9531C8.84409 19.7727 10.3659 20.25 12 20.25C13.6343 20.25 15.1558 19.7719 16.4375 18.9521C15.1062 18.1827 13.5974 17.75 12 17.75ZM12 3.75C7.44365 3.75 3.75 7.44365 3.75 12C3.75 14.347 4.73152 16.4635 6.30469 17.9658C7.96792 16.8789 9.91567 16.2501 12 16.25C14.0837 16.2501 16.0311 16.8791 17.6943 17.9658C19.2678 16.4635 20.25 14.3472 20.25 12C20.25 7.44365 16.5563 3.75 12 3.75Z" fill="currentColor"/>
</svg>
