<svg width="24" height="24" viewBox="0 0 24 24" fill="none" xmlns="http://www.w3.org/2000/svg">
<path d="M14.6992 16.6504C15.1134 16.6504 15.4492 16.9862 15.4492 17.4004C15.4492 17.8146 15.1134 18.1504 14.6992 18.1504H10.1992C9.78501 18.1504 9.44922 17.8146 9.44922 17.4004C9.44922 16.9862 9.78501 16.6504 10.1992 16.6504H14.6992Z" fill="currentColor"/>
<path d="M17.3994 13.0508C17.8135 13.0509 18.1494 13.3866 18.1494 13.8008C18.1494 14.2149 17.8135 14.5507 17.3994 14.5508H10.1992C9.78501 14.5508 9.44922 14.215 9.44922 13.8008C9.44922 13.3866 9.78501 13.0508 10.1992 13.0508H17.3994Z" fill="currentColor"/>
<path fill-rule="evenodd" clip-rule="evenodd" d="M16.4688 6.25879C17.3007 6.34332 17.9502 7.0461 17.9502 7.90039V9.7002C17.9501 10.6114 17.211 11.3496 16.2998 11.3496H10.9004C9.98919 11.3496 9.25011 10.6114 9.25 9.7002V7.90039C9.25 6.98912 9.98912 6.25 10.9004 6.25H16.2998L16.4688 6.25879ZM10.9004 7.75C10.8175 7.75 10.75 7.81755 10.75 7.90039V9.7002C10.7501 9.78295 10.8176 9.84961 10.9004 9.84961H16.2998C16.3826 9.84961 16.4501 9.78295 16.4502 9.7002V7.90039C16.4502 7.83825 16.4122 7.78449 16.3584 7.76172L16.2998 7.75H10.9004Z" fill="currentColor"/>
<path fill-rule="evenodd" clip-rule="evenodd" d="M19 2.25C20.5186 2.25021 21.75 3.48135 21.75 5V19C21.75 20.5187 20.5186 21.7498 19 21.75H4.5V21.7393C3.1305 21.6363 2.05078 20.4954 2.05078 19.0996V11C2.0508 9.48125 3.28203 8.25003 4.80078 8.25H5.84961V5C5.84961 3.48122 7.08083 2.25 8.59961 2.25H19ZM8.59961 3.75C7.90925 3.75 7.34961 4.30964 7.34961 5V8.98926C7.34966 8.99284 7.35059 8.99641 7.35059 9V19.0996C7.35059 19.5124 7.25327 19.9017 7.08496 20.25H19C19.6902 20.2498 20.25 19.6902 20.25 19V5C20.25 4.30978 19.6902 3.75021 19 3.75H8.59961ZM4.80078 9.75C4.11044 9.75001 3.5508 10.3097 3.55078 11V19.0996C3.55078 19.7347 4.06604 20.25 4.70117 20.25C5.33612 20.2498 5.85059 19.7346 5.85059 19.0996L5.84961 9.75H4.80078Z" fill="currentColor"/>
</svg>
