<svg width="24" height="24" viewBox="0 0 24 24" fill="none" xmlns="http://www.w3.org/2000/svg">
<path d="M17.3994 16.6504C17.8136 16.6504 18.1494 16.9862 18.1494 17.4004C18.1494 17.8146 17.8136 18.1504 17.3994 18.1504H6.59961C6.1854 18.1504 5.84961 17.8146 5.84961 17.4004C5.84961 16.9862 6.1854 16.6504 6.59961 16.6504H17.3994Z" fill="currentColor"/>
<path d="M20.1006 13.0498C20.5147 13.0499 20.8506 13.3857 20.8506 13.7998C20.8506 14.214 20.5147 14.5497 20.1006 14.5498H3.90039C3.48618 14.5498 3.15039 14.214 3.15039 13.7998C3.15039 13.3856 3.48618 13.0498 3.90039 13.0498H20.1006Z" fill="currentColor"/>
<path d="M17.3994 9.4502C17.8136 9.4502 18.1494 9.78598 18.1494 10.2002C18.1494 10.6144 17.8136 10.9502 17.3994 10.9502H6.59961C6.1854 10.9502 5.84961 10.6144 5.84961 10.2002C5.84961 9.78598 6.1854 9.4502 6.59961 9.4502H17.3994Z" fill="currentColor"/>
<path d="M20.1006 5.84961C20.5147 5.84971 20.8506 6.18546 20.8506 6.59961C20.8506 7.01376 20.5147 7.3495 20.1006 7.34961H3.90039C3.48618 7.34961 3.15039 7.01382 3.15039 6.59961C3.15039 6.1854 3.48618 5.84961 3.90039 5.84961H20.1006Z" fill="currentColor"/>
</svg>
