<svg width="24" height="24" viewBox="0 0 24 24" fill="none" xmlns="http://www.w3.org/2000/svg">
<path d="M20.1494 16.6504C20.5635 16.6505 20.8994 16.9862 20.8994 17.4004C20.8994 17.8145 20.5635 18.1503 20.1494 18.1504H8.44922C8.03501 18.1504 7.69922 17.8146 7.69922 17.4004C7.69922 16.9862 8.03501 16.6504 8.44922 16.6504H20.1494Z" fill="currentColor"/>
<path d="M20.1494 13.0498C20.5636 13.0498 20.8994 13.3856 20.8994 13.7998C20.8994 14.214 20.5636 14.5498 20.1494 14.5498H4.84961C4.4354 14.5498 4.09961 14.214 4.09961 13.7998C4.09961 13.3856 4.4354 13.0498 4.84961 13.0498H20.1494Z" fill="currentColor"/>
<path d="M20.1494 9.4502C20.5635 9.4503 20.8994 9.78605 20.8994 10.2002C20.8994 10.6143 20.5635 10.9501 20.1494 10.9502H8.44922C8.03501 10.9502 7.69922 10.6144 7.69922 10.2002C7.69922 9.78598 8.03501 9.4502 8.44922 9.4502H20.1494Z" fill="currentColor"/>
<path d="M20.1494 5.84961C20.5636 5.84961 20.8994 6.1854 20.8994 6.59961C20.8994 7.01382 20.5636 7.34961 20.1494 7.34961H4.84961C4.4354 7.34961 4.09961 7.01382 4.09961 6.59961C4.09961 6.1854 4.4354 5.84961 4.84961 5.84961H20.1494Z" fill="currentColor"/>
</svg>
