<svg width="24" height="24" viewBox="0 0 24 24" fill="none" xmlns="http://www.w3.org/2000/svg">
<path d="M15.5498 16.6504C15.9639 16.6505 16.2998 16.9862 16.2998 17.4004C16.2998 17.8145 15.9639 18.1503 15.5498 18.1504H3.84961C3.4354 18.1504 3.09961 17.8146 3.09961 17.4004C3.09961 16.9862 3.4354 16.6504 3.84961 16.6504H15.5498Z" fill="currentColor"/>
<path d="M19.1494 13.0498C19.5636 13.0498 19.8994 13.3856 19.8994 13.7998C19.8994 14.214 19.5636 14.5498 19.1494 14.5498H3.84961C3.4354 14.5498 3.09961 14.214 3.09961 13.7998C3.09961 13.3856 3.4354 13.0498 3.84961 13.0498H19.1494Z" fill="currentColor"/>
<path d="M15.5498 9.4502C15.9639 9.4503 16.2998 9.78605 16.2998 10.2002C16.2998 10.6143 15.9639 10.9501 15.5498 10.9502H3.84961C3.4354 10.9502 3.09961 10.6144 3.09961 10.2002C3.09961 9.78598 3.4354 9.4502 3.84961 9.4502H15.5498Z" fill="currentColor"/>
<path d="M19.1494 5.84961C19.5636 5.84961 19.8994 6.1854 19.8994 6.59961C19.8994 7.01382 19.5636 7.34961 19.1494 7.34961H3.84961C3.4354 7.34961 3.09961 7.01382 3.09961 6.59961C3.09961 6.1854 3.4354 5.84961 3.84961 5.84961H19.1494Z" fill="currentColor"/>
</svg>
