<svg width="24" height="24" viewBox="0 0 24 24" fill="none" xmlns="http://www.w3.org/2000/svg">
<path d="M7.75 17.7998V7C7.75 6.58579 7.41421 6.25 7 6.25C6.58579 6.25 6.25 6.58579 6.25 7V17.7998C6.25 18.214 6.58579 18.5498 7 18.5498C7.41421 18.5498 7.75 18.214 7.75 17.7998Z" fill="currentColor"/>
<path d="M16.9814 6.46973C16.6886 6.17683 16.2138 6.17683 15.9209 6.46973L10.5205 11.8701C10.228 12.163 10.2277 12.6379 10.5205 12.9307L15.9209 18.3301C16.2138 18.623 16.6886 18.623 16.9814 18.3301C17.2742 18.0372 17.2743 17.5624 16.9814 17.2695L12.1123 12.3994L16.9814 7.53027C17.2743 7.23738 17.2743 6.76262 16.9814 6.46973Z" fill="currentColor"/>
</svg>
