<svg width="24" height="24" viewBox="0 0 24 24" fill="none" xmlns="http://www.w3.org/2000/svg">
<path d="M15.7011 17.7998V7C15.7011 6.58579 16.0369 6.25 16.4511 6.25C16.8653 6.25 17.2011 6.58579 17.2011 7V17.7998C17.2011 18.214 16.8653 18.5498 16.4511 18.5498C16.0369 18.5498 15.7011 18.214 15.7011 17.7998Z" fill="currentColor"/>
<path d="M6.46967 6.46973C6.76256 6.17683 7.23732 6.17683 7.53022 6.46973L12.9306 11.8701C13.2231 12.163 13.2234 12.6379 12.9306 12.9307L7.53022 18.3301C7.23732 18.623 6.76256 18.623 6.46967 18.3301C6.17687 18.0372 6.17681 17.5624 6.46967 17.2695L11.3388 12.3994L6.46967 7.53027C6.17678 7.23738 6.17678 6.76262 6.46967 6.46973Z" fill="currentColor"/>
</svg>
