<svg width="24" height="24" viewBox="0 0 24 24" fill="none" xmlns="http://www.w3.org/2000/svg">
<path d="M13.5488 12C13.963 12 14.2988 12.3358 14.2988 12.75C14.2988 13.1642 13.963 13.5 13.5488 13.5H9.94922C9.53501 13.5 9.19922 13.1642 9.19922 12.75C9.19922 12.3358 9.53501 12 9.94922 12H13.5488Z" fill="currentColor"/>
<path fill-rule="evenodd" clip-rule="evenodd" d="M19.1504 3C19.4179 3 19.6639 2.99991 19.8682 3.0166C20.0812 3.03403 20.3147 3.07314 20.5449 3.19043C20.874 3.35818 21.1418 3.62597 21.3096 3.95508C21.4269 4.18527 21.466 4.41879 21.4834 4.63184C21.5001 4.83611 21.5 5.08211 21.5 5.34961V6.65039C21.5 6.91789 21.5001 7.16389 21.4834 7.36816C21.466 7.58121 21.4269 7.81473 21.3096 8.04492C21.1418 8.37403 20.874 8.64182 20.5449 8.80957C20.3147 8.92686 20.0812 8.96597 19.8682 8.9834C19.8152 8.98772 19.7594 8.98787 19.7012 8.99023V16.75C19.7012 17.2977 19.7012 17.7539 19.6709 18.125C19.6399 18.5046 19.573 18.8612 19.4014 19.1982C19.1377 19.7157 18.7167 20.1367 18.1992 20.4004C17.862 20.5722 17.5049 20.6389 17.125 20.6699C16.754 20.7002 16.2984 20.7002 15.751 20.7002H7.75098C7.2033 20.7002 6.74711 20.7002 6.37598 20.6699C5.9963 20.6389 5.63983 20.5721 5.30273 20.4004C4.78529 20.1367 4.36424 19.7157 4.10059 19.1982C3.92884 18.8611 3.86112 18.5047 3.83008 18.125C3.79976 17.7539 3.80078 17.2977 3.80078 16.75V8.99023C3.74189 8.98786 3.68537 8.98777 3.63184 8.9834C3.41879 8.96597 3.18527 8.92686 2.95508 8.80957C2.62597 8.64182 2.35818 8.37403 2.19043 8.04492C2.07314 7.81473 2.03403 7.58121 2.0166 7.36816C1.99991 7.16389 2 6.91789 2 6.65039V5.34961C2 5.08211 1.99991 4.83611 2.0166 4.63184C2.03403 4.41879 2.07314 4.18527 2.19043 3.95508C2.35818 3.62597 2.62597 3.35818 2.95508 3.19043C3.18527 3.07314 3.41879 3.03403 3.63184 3.0166C3.83611 2.99991 4.08211 3 4.34961 3H19.1504ZM5.30078 16.75C5.30078 17.3224 5.30102 17.7071 5.3252 18.0029C5.34866 18.2898 5.39138 18.4271 5.4375 18.5176C5.55734 18.7526 5.7483 18.9437 5.9834 19.0635C6.07393 19.1096 6.21109 19.1513 6.49805 19.1748C6.79393 19.199 7.17855 19.2002 7.75098 19.2002H15.751C16.3231 19.2002 16.7071 19.1989 17.0029 19.1748C17.29 19.1513 17.428 19.1096 17.5186 19.0635C17.7536 18.9436 17.9447 18.7526 18.0645 18.5176C18.1106 18.4271 18.1523 18.2898 18.1758 18.0029C18.2 17.7071 18.2012 17.3224 18.2012 16.75V9H5.30078V16.75ZM4.34961 4.5C4.05744 4.5 3.88298 4.5002 3.75391 4.51074C3.63384 4.52058 3.62034 4.53569 3.63672 4.52734C3.58968 4.55131 3.55131 4.58968 3.52734 4.63672C3.53569 4.62034 3.52058 4.63384 3.51074 4.75391C3.5002 4.88298 3.5 5.05744 3.5 5.34961V6.65039C3.5 6.94256 3.5002 7.11702 3.51074 7.24609C3.52058 7.36616 3.53569 7.37966 3.52734 7.36328C3.55131 7.41032 3.58968 7.44869 3.63672 7.47266C3.62034 7.46431 3.63384 7.47942 3.75391 7.48926C3.88298 7.4998 4.05744 7.5 4.34961 7.5H19.1504C19.4426 7.5 19.617 7.4998 19.7461 7.48926C19.8662 7.47942 19.8797 7.46431 19.8633 7.47266C19.9103 7.44869 19.9487 7.41032 19.9727 7.36328C19.9643 7.37966 19.9794 7.36616 19.9893 7.24609C19.9998 7.11702 20 6.94256 20 6.65039V5.34961C20 5.05744 19.9998 4.88298 19.9893 4.75391C19.9794 4.63384 19.9643 4.62034 19.9727 4.63672C19.9487 4.58968 19.9103 4.55131 19.8633 4.52734C19.8797 4.53569 19.8662 4.52058 19.7461 4.51074C19.617 4.5002 19.4426 4.5 19.1504 4.5H4.34961Z" fill="currentColor"/>
</svg>
