<svg width="24" height="24" viewBox="0 0 24 24" fill="none" xmlns="http://www.w3.org/2000/svg">
<path d="M10.1729 3C10.0025 3.20402 9.86144 3.43367 9.75781 3.68359L9.41992 4.5H3.34961C3.05744 4.5 2.88298 4.5002 2.75391 4.51074C2.63384 4.52058 2.62034 4.53569 2.63672 4.52734C2.58968 4.55131 2.55131 4.58968 2.52734 4.63672C2.53569 4.62034 2.52058 4.63384 2.51074 4.75391C2.5002 4.88298 2.5 5.05744 2.5 5.34961V6.65039C2.5 6.94256 2.5002 7.11702 2.51074 7.24609C2.52058 7.36616 2.53569 7.37966 2.52734 7.36328C2.55131 7.41032 2.58968 7.44869 2.63672 7.47266C2.62034 7.46431 2.63384 7.47942 2.75391 7.48926C2.88298 7.4998 3.05744 7.5 3.34961 7.5H5.84961C5.72985 7.66525 5.62621 7.84218 5.54785 8.03125C5.4207 8.33835 5.35586 8.6678 5.35156 9H4.30078V16.75C4.30078 17.3224 4.30102 17.7071 4.3252 18.0029C4.34866 18.2898 4.39138 18.4271 4.4375 18.5176C4.55734 18.7526 4.7483 18.9437 4.9834 19.0635C5.07393 19.1096 5.2111 19.1513 5.49805 19.1748C5.79392 19.199 6.17855 19.2002 6.75098 19.2002H9.34473L9.81445 20.3359C9.86732 20.4633 9.93264 20.5841 10.0039 20.7002H6.75098C6.2033 20.7002 5.7471 20.7002 5.37598 20.6699C4.9963 20.6389 4.63983 20.5721 4.30273 20.4004C3.78529 20.1367 3.36424 19.7157 3.10059 19.1982C2.92885 18.8611 2.86112 18.5047 2.83008 18.125C2.79976 17.7539 2.80078 17.2977 2.80078 16.75V8.99023C2.74189 8.98786 2.68537 8.98777 2.63184 8.9834C2.41879 8.96597 2.18527 8.92686 1.95508 8.80957C1.62597 8.64182 1.35818 8.37403 1.19043 8.04492C1.07314 7.81473 1.03403 7.58121 1.0166 7.36816C0.999911 7.16389 0.999999 6.91789 1 6.65039V5.34961C0.999999 5.08211 0.999911 4.83611 1.0166 4.63184C1.03403 4.41879 1.07314 4.18527 1.19043 3.95508C1.35818 3.62597 1.62597 3.35818 1.95508 3.19043C2.18527 3.07314 2.41879 3.03403 2.63184 3.0166C2.83611 2.99991 3.08211 3 3.34961 3H10.1729Z" fill="#505157"/>
<path fill-rule="evenodd" clip-rule="evenodd" d="M12.0015 4.21058C12.5198 3.99594 13.1032 3.99611 13.6216 4.21058L14.9097 4.74476L14.9917 4.77406C15.1867 4.83289 15.3967 4.82245 15.5864 4.74378L16.8765 4.21351C17.3949 3.99898 17.9782 3.99787 18.4966 4.21253C19.0148 4.42729 19.4263 4.83985 19.6411 5.35804L20.1704 6.63734C20.1716 6.63995 20.1741 6.64255 20.1753 6.64515C20.2649 6.86189 20.4373 7.03453 20.6538 7.12464L21.9429 7.65882C22.461 7.87361 22.8736 8.28521 23.0884 8.80335C23.3031 9.32174 23.3029 9.90503 23.0884 10.4235L22.5552 11.7116C22.4766 11.9015 22.4662 12.1121 22.5249 12.3063L22.5552 12.3893L23.0884 13.6774L23.1577 13.8727C23.2181 14.0714 23.2494 14.2795 23.2495 14.4879C23.2495 14.7657 23.1946 15.0418 23.0884 15.2985C22.9821 15.5549 22.8255 15.7877 22.6294 15.984C22.4329 16.1805 22.1986 16.3367 21.9419 16.443L20.6538 16.9772C20.4643 17.0556 20.3087 17.1976 20.2124 17.3766L20.1743 17.4557L19.6401 18.7438C19.4254 19.2623 19.014 19.6754 18.4956 19.8903C17.9772 20.105 17.394 20.1049 16.8755 19.8903L15.5874 19.3561C15.3706 19.2667 15.1273 19.2673 14.9106 19.3571L13.6206 19.8912C13.1024 20.1054 12.5195 20.1048 12.0015 19.8903C11.4836 19.6756 11.0718 19.2635 10.8569 18.7457L10.3228 17.4557C10.2442 17.2662 10.1025 17.1105 9.92334 17.0143L9.84424 16.9762L8.55615 16.442C8.03799 16.2273 7.62554 15.8156 7.41064 15.2975C7.19615 14.7794 7.19641 14.1966 7.41064 13.6784L7.94287 12.3903L7.97217 12.3082C8.03086 12.1134 8.0214 11.9031 7.94287 11.7135L7.94189 11.7125L7.40967 10.4225L7.41064 10.4215C7.30467 10.1652 7.24957 9.89028 7.24951 9.61292C7.24953 9.33511 7.30339 9.05906 7.40967 8.80238C7.516 8.54594 7.67237 8.31218 7.86865 8.11585C8.06506 7.91961 8.29866 7.76311 8.55518 7.65687L9.84326 7.12367L9.84424 7.12269C10.0606 7.033 10.2327 6.8614 10.3228 6.64515L10.8569 5.35706C11.0718 4.83876 11.4831 4.42534 12.0015 4.21058ZM18.2681 9.97425C18.0278 9.73439 17.6382 9.73444 17.3979 9.97425L14.5093 12.8619L13.4683 11.8209C13.228 11.5808 12.8375 11.5808 12.5972 11.8209C12.3572 12.0611 12.3573 12.4508 12.5972 12.691L14.0747 14.1686C14.19 14.2837 14.3464 14.3482 14.5093 14.3483C14.6724 14.3483 14.8294 14.2839 14.9448 14.1686L18.2681 10.8453C18.5083 10.605 18.5084 10.2145 18.2681 9.97425Z" fill="#259B6C"/>
</svg>
