<svg width="24" height="24" viewBox="0 0 24 24" fill="none" xmlns="http://www.w3.org/2000/svg">
<path d="M20.0996 3.15039C20.5138 3.15039 20.8496 3.48618 20.8496 3.90039V20.1006C20.8495 20.5147 20.5138 20.8506 20.0996 20.8506C19.6855 20.8506 19.3497 20.5147 19.3496 20.1006V3.90039C19.3496 3.48618 19.6854 3.15039 20.0996 3.15039Z" fill="currentColor"/>
<path d="M9.66992 5.16895C9.96278 4.87608 10.4376 4.87615 10.7305 5.16895C11.0233 5.46185 11.0233 5.93663 10.7305 6.22949L5.71191 11.248H16.5C16.9142 11.248 17.25 11.5838 17.25 11.998C17.25 12.4123 16.9142 12.748 16.5 12.748H5.70996L10.7305 17.7686C11.0232 18.0614 11.0232 18.5362 10.7305 18.8291C10.4376 19.122 9.96282 19.1219 9.66992 18.8291L3.37012 12.5293C3.31732 12.4765 3.27692 12.416 3.24316 12.3535C3.23105 12.3312 3.21687 12.3098 3.20703 12.2861C3.18587 12.235 3.17147 12.1818 3.16211 12.1279C3.15473 12.0857 3.15039 12.0424 3.15039 11.998C3.15039 11.9523 3.15525 11.9077 3.16309 11.8643C3.16391 11.8597 3.16413 11.8551 3.16504 11.8506C3.16985 11.8264 3.17847 11.8035 3.18555 11.7803C3.19229 11.7582 3.19723 11.7354 3.20605 11.7139C3.21756 11.6858 3.23336 11.66 3.24805 11.6338C3.27902 11.5785 3.31527 11.5251 3.36133 11.4775C3.36597 11.4727 3.37023 11.4676 3.375 11.4629L9.66992 5.16895Z" fill="currentColor"/>
</svg>
