<svg width="24" height="24" viewBox="0 0 24 24" fill="none" xmlns="http://www.w3.org/2000/svg">
<path d="M3.75 3C4.16421 3 4.5 3.33579 4.5 3.75V19.9502C4.49989 20.3643 4.16415 20.7002 3.75 20.7002C3.33585 20.7002 3.00011 20.3643 3 19.9502V3.75C3 3.33579 3.33579 3 3.75 3Z" fill="currentColor"/>
<path d="M19.9492 3C20.3634 3 20.6992 3.33579 20.6992 3.75V19.9502C20.6991 20.3643 20.3634 20.7002 19.9492 20.7002C19.5351 20.7002 19.1993 20.3643 19.1992 19.9502V3.75C19.1992 3.33579 19.535 3 19.9492 3Z" fill="currentColor"/>
<path d="M13.8193 8.81934C14.1122 8.52647 14.587 8.52645 14.8799 8.81934L17.3799 11.3193L17.4316 11.376C17.6719 11.6705 17.6544 12.1053 17.3799 12.3799L14.8799 14.8799C14.587 15.1727 14.1122 15.1727 13.8193 14.8799C13.5264 14.587 13.5264 14.1122 13.8193 13.8193L15.0391 12.5996H8.66016L9.87988 13.8193C10.1728 14.1122 10.1728 14.587 9.87988 14.8799C9.58699 15.1727 9.11222 15.1728 8.81934 14.8799L6.31934 12.3799L6.26758 12.3232C6.02736 12.0287 6.04479 11.5939 6.31934 11.3193L8.81934 8.81934C9.1122 8.52647 9.58698 8.52653 9.87988 8.81934C10.1728 9.11223 10.1728 9.58699 9.87988 9.87988L8.66016 11.0996H15.0391L13.8193 9.87988C13.5264 9.58699 13.5264 9.11223 13.8193 8.81934Z" fill="currentColor"/>
</svg>
