<svg width="24" height="24" viewBox="0 0 24 24" fill="none" xmlns="http://www.w3.org/2000/svg">
<path d="M3.90039 3.15039C4.3146 3.15039 4.65039 3.48618 4.65039 3.90039V20.1006C4.65029 20.5147 4.31454 20.8506 3.90039 20.8506C3.48624 20.8506 3.1505 20.5147 3.15039 20.1006V3.90039C3.15039 3.48618 3.48618 3.15039 3.90039 3.15039Z" fill="currentColor"/>
<path d="M13.2686 5.16895C13.5614 4.87605 14.0362 4.87605 14.3291 5.16895L20.6182 11.458C20.6282 11.4676 20.637 11.4782 20.6465 11.4883C20.6673 11.5106 20.6865 11.5336 20.7041 11.5576C20.7945 11.6815 20.8496 11.8329 20.8496 11.998C20.8496 12.1584 20.7976 12.3058 20.7119 12.4277C20.6872 12.4631 20.6605 12.4977 20.6289 12.5293L14.3291 18.8291C14.0362 19.122 13.5615 19.1219 13.2686 18.8291C12.9759 18.5362 12.9757 18.0614 13.2686 17.7686L18.2891 12.748H7.5C7.08579 12.748 6.75 12.4123 6.75 11.998C6.75 11.5838 7.08579 11.248 7.5 11.248H18.2871L13.2686 6.22949C12.9757 5.9366 12.9757 5.46184 13.2686 5.16895Z" fill="currentColor"/>
</svg>
