<svg width="24" height="24" viewBox="0 0 24 24" fill="none" xmlns="http://www.w3.org/2000/svg">
<path d="M12 6.75C12.0454 6.75 12.0897 6.75497 12.1328 6.7627C12.1373 6.76351 12.142 6.76375 12.1465 6.76465C12.1706 6.76943 12.1935 6.77811 12.2168 6.78516C12.2389 6.79188 12.2617 6.79685 12.2832 6.80566C12.337 6.82761 12.3869 6.85643 12.4336 6.88965C12.4635 6.91102 12.4923 6.93463 12.5195 6.96094C12.5243 6.96558 12.5295 6.96984 12.5342 6.97461L18.8291 13.2695C19.1219 13.5624 19.122 14.0372 18.8291 14.3301C18.5362 14.6228 18.0614 14.6228 17.7686 14.3301L12.75 9.31152V20.0996C12.75 20.5138 12.4142 20.8496 12 20.8496C11.5858 20.8496 11.25 20.5138 11.25 20.0996V9.30957L6.22949 14.3301C5.93663 14.6229 5.46185 14.6229 5.16895 14.3301C4.87615 14.0372 4.87608 13.5624 5.16895 13.2695L11.4688 6.96973C11.5313 6.90717 11.6031 6.86005 11.6787 6.82422C11.6896 6.81903 11.6998 6.81229 11.7109 6.80762C11.7622 6.78634 11.8152 6.77115 11.8691 6.76172C11.9117 6.75423 11.9553 6.75 12 6.75Z" fill="currentColor"/>
<path d="M20.1006 3.15039C20.5147 3.1505 20.8506 3.48624 20.8506 3.90039C20.8506 4.31454 20.5147 4.65029 20.1006 4.65039H3.90039C3.48618 4.65039 3.15039 4.3146 3.15039 3.90039C3.15039 3.48618 3.48618 3.15039 3.90039 3.15039H20.1006Z" fill="currentColor"/>
</svg>
