<svg width="24" height="24" viewBox="0 0 24 24" fill="none" xmlns="http://www.w3.org/2000/svg">
<path d="M13.2705 6.06928C13.5634 5.77639 14.0382 5.77639 14.3311 6.06928L19.7314 11.4697C19.7759 11.5142 19.8109 11.5645 19.8418 11.6162C19.8615 11.6489 19.8809 11.6819 19.8955 11.7177C19.9152 11.7662 19.9294 11.8163 19.9385 11.8671C19.9462 11.9103 19.9512 11.9546 19.9512 11.9999C19.9512 12.0447 19.946 12.0882 19.9385 12.1308C19.9291 12.1837 19.9143 12.2357 19.8936 12.2861C19.8727 12.3364 19.8462 12.3836 19.8154 12.4277C19.7905 12.4634 19.7633 12.4983 19.7314 12.5302L14.3311 17.9296C14.0382 18.2225 13.5634 18.2224 13.2705 17.9296C12.9777 17.6367 12.9777 17.1619 13.2705 16.8691L17.3887 12.7499H4.80078C4.38659 12.7499 4.05081 12.4141 4.05078 11.9999C4.05078 11.5857 4.38657 11.2499 4.80078 11.2499H17.3906L13.2705 7.12983C12.9776 6.83694 12.9776 6.36217 13.2705 6.06928Z" fill="currentColor"/>
</svg>
