<svg width="24" height="24" viewBox="0 0 24 24" fill="none" xmlns="http://www.w3.org/2000/svg">
<path d="M11.9999 4.05078C12.4141 4.05081 12.7499 4.38659 12.7499 4.80078V17.3887L16.8691 13.2705C17.1619 12.9777 17.6367 12.9777 17.9296 13.2705C18.2224 13.5634 18.2225 14.0382 17.9296 14.3311L12.5302 19.7314C12.4983 19.7633 12.4634 19.7905 12.4277 19.8154C12.3836 19.8462 12.3364 19.8727 12.2861 19.8936C12.254 19.9068 12.2207 19.9152 12.1874 19.9238C12.1743 19.9272 12.1618 19.9329 12.1484 19.9355C12.1425 19.9367 12.1367 19.9374 12.1308 19.9385C12.0882 19.946 12.0447 19.9512 11.9999 19.9512C11.9546 19.9512 11.9103 19.9462 11.8671 19.9385C11.8616 19.9375 11.856 19.9367 11.8505 19.9355C11.7658 19.9184 11.6879 19.8849 11.6162 19.8418C11.5645 19.8109 11.5142 19.7759 11.4697 19.7314L6.06928 14.3311C5.77639 14.0382 5.77639 13.5634 6.06928 13.2705C6.36217 12.9776 6.83694 12.9776 7.12983 13.2705L11.2499 17.3906V4.80078C11.2499 4.38657 11.5857 4.05078 11.9999 4.05078Z" fill="currentColor"/>
</svg>
