<svg width="24" height="24" viewBox="0 0 24 24" fill="none" xmlns="http://www.w3.org/2000/svg">
<path d="M11.4697 7.87012C11.7626 7.57729 12.2374 7.57742 12.5303 7.87012C12.823 8.16302 12.8231 8.63782 12.5303 8.93066L10.21 11.25H15.6006C16.0147 11.2501 16.3506 11.5859 16.3506 12C16.3506 12.4141 16.0147 12.7499 15.6006 12.75H10.21L12.5303 15.0703C12.823 15.3632 12.8231 15.838 12.5303 16.1309C12.2374 16.4234 11.7625 16.4235 11.4697 16.1309L7.87012 12.5303C7.81702 12.4771 7.77603 12.4164 7.74219 12.3535C7.7302 12.3312 7.71676 12.3097 7.70703 12.2861C7.69605 12.2595 7.68943 12.2316 7.68164 12.2041C7.67621 12.1849 7.66895 12.1662 7.66504 12.1465C7.66414 12.142 7.6639 12.1373 7.66309 12.1328C7.65536 12.0897 7.65039 12.0454 7.65039 12C7.65039 11.9547 7.65441 11.9103 7.66211 11.8672C7.67119 11.8163 7.68545 11.7662 7.70508 11.7178L7.70898 11.708C7.7165 11.6902 7.72752 11.6743 7.73633 11.6572C7.77096 11.5901 7.81388 11.526 7.87012 11.4697L11.4697 7.87012Z" fill="currentColor"/>
<path fill-rule="evenodd" clip-rule="evenodd" d="M12 2.25C17.3848 2.25 21.75 6.61522 21.75 12C21.75 17.3848 17.3848 21.75 12 21.75C6.61522 21.75 2.25 17.3848 2.25 12C2.25 6.61522 6.61522 2.25 12 2.25ZM12 3.75C7.44365 3.75 3.75 7.44365 3.75 12C3.75 16.5563 7.44365 20.25 12 20.25C16.5563 20.25 20.25 16.5563 20.25 12C20.25 7.44365 16.5563 3.75 12 3.75Z" fill="currentColor"/>
</svg>
