<svg width="24" height="24" viewBox="0 0 24 24" fill="none" xmlns="http://www.w3.org/2000/svg">
<path d="M12.0262 4.05176C12.0321 4.05197 12.0379 4.05239 12.0438 4.05273C12.0804 4.05486 12.1162 4.05923 12.1512 4.06641L12.1688 4.07031C12.1858 4.07425 12.2018 4.08178 12.2186 4.08691C12.2906 4.10895 12.3588 4.13838 12.4198 4.17969C12.4585 4.20598 12.4958 4.23617 12.5301 4.27051L17.9295 9.6709C18.2221 9.96376 18.2222 10.4386 17.9295 10.7314C17.6367 11.024 17.1618 11.024 16.869 10.7314L12.7498 6.6123V19.2012C12.7496 19.6152 12.4139 19.9511 11.9998 19.9512C11.5858 19.9512 11.2501 19.6152 11.2498 19.2012V6.61035L7.12973 10.7314C6.83693 11.024 6.36204 11.0239 6.06918 10.7314C5.77635 10.4386 5.77648 9.96381 6.06918 9.6709L11.4696 4.27051L11.5262 4.21875C11.5353 4.21135 11.5452 4.20515 11.5545 4.19824C11.5721 4.18524 11.5905 4.17357 11.6092 4.16211C11.6318 4.1483 11.6549 4.1362 11.6786 4.125C11.6971 4.11617 11.7158 4.1079 11.7352 4.10059C11.7615 4.09069 11.7882 4.08301 11.8153 4.07617C11.8745 4.06116 11.936 4.05078 11.9998 4.05078C12.0087 4.05078 12.0175 4.05145 12.0262 4.05176Z" fill="currentColor"/>
</svg>
