<svg width="24" height="24" viewBox="0 0 24 24" fill="none" xmlns="http://www.w3.org/2000/svg">
<path d="M9.6709 6.06918C9.96381 5.77648 10.4386 5.77635 10.7314 6.06918C11.0238 6.36204 11.024 6.83696 10.7314 7.12973L6.61035 11.2498H19.2012C19.6152 11.2501 19.9512 11.5858 19.9512 11.9998C19.9511 12.4139 19.6152 12.7496 19.2012 12.7498H6.6123L10.7314 16.869C11.0239 17.1618 11.0239 17.6367 10.7314 17.9295C10.4387 18.2222 9.96379 18.2221 9.6709 17.9295L4.27051 12.5301C4.21742 12.477 4.17641 12.4162 4.14258 12.3534C4.13059 12.3311 4.11715 12.3095 4.10742 12.286C4.09644 12.2594 4.08982 12.2314 4.08203 12.2039C4.0766 12.1848 4.06935 12.1661 4.06543 12.1463C4.06453 12.1418 4.06429 12.1372 4.06348 12.1327C4.05575 12.0895 4.05079 12.0452 4.05078 11.9998C4.05078 11.9546 4.05481 11.9101 4.0625 11.867C4.07158 11.8162 4.08585 11.7661 4.10547 11.7176L4.10938 11.7079C4.11843 11.6864 4.13067 11.6667 4.1416 11.6463C4.17548 11.5831 4.21723 11.5229 4.27051 11.4696L9.6709 6.06918Z" fill="currentColor"/>
</svg>
