<svg width="24" height="24" viewBox="0 0 24 24" fill="none" xmlns="http://www.w3.org/2000/svg">
<path d="M11.6688 3.50098C11.6997 3.50145 11.7306 3.5031 11.7615 3.50586C11.771 3.5067 11.7805 3.50677 11.7898 3.50781C11.816 3.51075 11.842 3.51495 11.868 3.51953C11.8847 3.52247 11.9013 3.5257 11.9178 3.5293C11.9483 3.53597 11.9786 3.54376 12.0086 3.55273C12.0134 3.55418 12.0184 3.55514 12.0232 3.55664C12.0556 3.56674 12.0873 3.57901 12.1189 3.5918C12.1261 3.59471 12.1333 3.59755 12.1404 3.60059C12.156 3.60721 12.171 3.61479 12.1863 3.62207C12.2083 3.63255 12.2305 3.64259 12.2518 3.6543C12.3529 3.7099 12.4483 3.78054 12.534 3.86621L17.9334 9.2666C18.4212 9.75474 18.4213 10.5461 17.9334 11.0342C17.4453 11.5219 16.6539 11.5219 16.1658 11.0342L12.9002 7.76855V19.1504C12.9 19.8405 12.3403 20.4003 11.6502 20.4004C10.96 20.4004 10.4004 19.8406 10.4002 19.1504V7.7666L7.1336 11.0342C6.64557 11.522 5.85414 11.5218 5.36602 11.0342C4.87793 10.5461 4.87806 9.75477 5.36602 9.2666L10.7664 3.86621L10.8611 3.78027C11.0191 3.65154 11.2008 3.56633 11.3904 3.52637C11.4004 3.52426 11.4106 3.52335 11.4207 3.52148C11.4505 3.51596 11.4805 3.51116 11.5106 3.50781C11.5209 3.50666 11.5313 3.50578 11.5418 3.50488C11.5717 3.50231 11.6017 3.50141 11.6316 3.50098C11.6378 3.50089 11.6441 3.5 11.6502 3.5C11.6564 3.5 11.6626 3.50089 11.6688 3.50098Z" fill="currentColor"/>
</svg>
