<svg width="24" height="24" viewBox="0 0 24 24" fill="none" xmlns="http://www.w3.org/2000/svg">
<path d="M11.4697 7.87012C11.7626 7.57722 12.2374 7.57722 12.5303 7.87012L16.125 11.4648C16.1301 11.4698 16.1347 11.4753 16.1396 11.4805C16.1661 11.5079 16.1895 11.5372 16.2109 11.5674C16.2979 11.6898 16.3506 11.8384 16.3506 12C16.3506 12.1634 16.2967 12.3133 16.208 12.4365C16.1874 12.4651 16.1647 12.4925 16.1396 12.5186C16.1347 12.5237 16.1301 12.5292 16.125 12.5342L12.5303 16.1309C12.2374 16.4236 11.7626 16.4236 11.4697 16.1309C11.1769 15.838 11.1769 15.3632 11.4697 15.0703L13.7891 12.75H8.40039C7.98618 12.75 7.65039 12.4142 7.65039 12C7.65039 11.5858 7.98618 11.25 8.40039 11.25H13.7891L11.4697 8.93066C11.1768 8.63777 11.1768 8.16301 11.4697 7.87012Z" fill="currentColor"/>
<path fill-rule="evenodd" clip-rule="evenodd" d="M12 2.25C17.3848 2.25 21.75 6.61522 21.75 12C21.75 17.3848 17.3848 21.75 12 21.75C6.61522 21.75 2.25 17.3848 2.25 12C2.25 6.61522 6.61522 2.25 12 2.25ZM12 3.75C7.44365 3.75 3.75 7.44365 3.75 12C3.75 16.5563 7.44365 20.25 12 20.25C16.5563 20.25 20.25 16.5563 20.25 12C20.25 7.44365 16.5563 3.75 12 3.75Z" fill="currentColor"/>
</svg>
