<svg width="24" height="24" viewBox="0 0 24 24" fill="none" xmlns="http://www.w3.org/2000/svg">
<path d="M20.1006 19.3496C20.5147 19.3497 20.8506 19.6855 20.8506 20.0996C20.8506 20.5138 20.5147 20.8495 20.1006 20.8496H3.90039C3.48618 20.8496 3.15039 20.5138 3.15039 20.0996C3.15039 19.6854 3.48618 19.3496 3.90039 19.3496H20.1006Z" fill="currentColor"/>
<path d="M12 3.15039C12.4142 3.15039 12.75 3.48618 12.75 3.90039V14.6875L17.7686 9.66895C18.0614 9.37612 18.5362 9.37625 18.8291 9.66895C19.1219 9.96184 19.122 10.4366 18.8291 10.7295L12.5391 17.0186C12.5295 17.0285 12.5189 17.0374 12.5088 17.0469C12.4875 17.0667 12.4653 17.0847 12.4424 17.1016C12.318 17.1932 12.1663 17.25 12 17.25C11.9087 17.25 11.8221 17.2311 11.7412 17.2012C11.7326 17.198 11.7233 17.1968 11.7148 17.1934C11.6649 17.1728 11.6181 17.1466 11.5742 17.1162C11.5373 17.0907 11.5016 17.0622 11.4688 17.0293L5.16895 10.7295C4.87605 10.4366 4.87605 9.96184 5.16895 9.66895C5.46184 9.37605 5.9366 9.37605 6.22949 9.66895L11.25 14.6895V3.90039C11.25 3.48618 11.5858 3.15039 12 3.15039Z" fill="currentColor"/>
</svg>
