<svg width="24" height="24" viewBox="0 0 24 24" fill="none" xmlns="http://www.w3.org/2000/svg">
<path d="M5.24656 2.54778C5.35214 2.15375 5.75777 1.91979 6.15183 2.02532L8.88328 2.75579C9.07238 2.80646 9.23354 2.93103 9.33152 3.10052C9.40497 3.22769 9.43844 3.37308 9.42918 3.51751L9.40574 3.66106L8.6743 6.39446C8.56859 6.78826 8.16294 7.02233 7.76902 6.91692C7.37502 6.81135 7.14109 6.40568 7.24656 6.01165L7.62742 4.59075C7.62128 4.59427 7.615 4.59795 7.60887 4.60149C3.65768 6.88283 2.30417 11.9364 4.58543 15.8876C6.86674 19.8388 11.9193 21.1922 15.8706 18.9111C19.8219 16.6298 21.1762 11.5772 18.895 7.62591C17.9773 6.03635 16.6118 4.86879 15.0503 4.18743C14.6766 4.02413 14.5053 3.58759 14.6684 3.2138C14.8317 2.84016 15.2683 2.66985 15.6421 2.83294C17.483 3.63629 19.0925 5.01558 20.1733 6.88763C22.8626 11.5456 21.2668 17.5011 16.6089 20.1904C11.951 22.8794 5.99534 21.2837 3.30613 16.6259C0.711379 12.1316 2.10674 6.42982 6.39207 3.61907L5.76902 3.45208C5.37513 3.3465 5.14124 2.94173 5.24656 2.54778Z" fill="currentColor"/>
<path fill-rule="evenodd" clip-rule="evenodd" d="M11.7348 6.97942C11.9511 6.97951 12.1632 7.04402 12.3432 7.16399C12.4781 7.25393 12.5913 7.37205 12.6743 7.5097L12.7475 7.65423L15.5464 14.371C15.7054 14.7531 15.5248 15.192 15.143 15.3515C14.7608 15.5108 14.3211 15.3303 14.1616 14.9482L13.4878 13.331H9.98191L9.30808 14.9482C9.14878 15.3302 8.70973 15.5103 8.32762 15.3515C7.94534 15.1922 7.76408 14.7533 7.92332 14.371L10.7231 7.65423C10.8064 7.45446 10.9473 7.28403 11.1274 7.16399L11.268 7.08391C11.4134 7.01552 11.5729 6.97949 11.7348 6.97942ZM10.6069 11.831H12.8628L11.7348 9.12493L10.6069 11.831Z" fill="currentColor"/>
</svg>
