<svg width="24" height="24" viewBox="0 0 24 24" fill="none" xmlns="http://www.w3.org/2000/svg">
<path d="M5.8 4L3.6 4C3.03995 4 2.75992 4 2.54601 4.10899C2.35785 4.20487 2.20487 4.35785 2.10899 4.54601C2 4.75992 2 5.03995 2 5.6L2 19.4C2 19.9601 2 20.2401 2.10899 20.454C2.20487 20.6422 2.35785 20.7951 2.54601 20.891C2.75992 21 3.03995 21 3.6 21H5.8C6.36005 21 6.64008 21 6.85399 20.891C7.04215 20.7951 7.19513 20.6422 7.29101 20.454C7.4 20.2401 7.4 19.9601 7.4 19.4L7.4 5.6C7.4 5.03995 7.4 4.75992 7.29101 4.54601C7.19513 4.35785 7.04215 4.20487 6.85399 4.10899C6.64008 4 6.36005 4 5.8 4Z" fill="#2CB67F"/>
<path d="M20.4 17H18.6C18.0399 17 17.7599 17 17.546 17.109C17.3578 17.2049 17.2049 17.3578 17.109 17.546C17 17.7599 17 18.0399 17 18.6V19.4C17 19.9601 17 20.2401 17.109 20.454C17.2049 20.6422 17.3578 20.7951 17.546 20.891C17.7599 21 18.0399 21 18.6 21H20.4C20.9601 21 21.2401 21 21.454 20.891C21.6422 20.7951 21.7951 20.6422 21.891 20.454C22 20.2401 22 19.9601 22 19.4V18.6C22 18.04 22 17.7599 21.891 17.546C21.7951 17.3578 21.6422 17.2049 21.454 17.109C21.2401 17 20.9601 17 20.4 17Z" fill="#8DBEF2"/>
<path d="M15 14.6C15 14.0399 15 13.7599 14.891 13.546C14.7951 13.3578 14.6422 13.2049 14.454 13.109C14.2401 13 13.9601 13 13.4 13H11.6C11.0399 13 10.7599 13 10.546 13.109C10.3578 13.2049 10.2049 13.3578 10.109 13.546C10 13.7599 10 14.0399 10 14.6V19.4C10 19.9601 10 20.2401 10.109 20.454C10.2049 20.6422 10.3578 20.7951 10.546 20.891C10.7599 21 11.0399 21 11.6 21H13.4C13.9601 21 14.2401 21 14.454 20.891C14.6422 20.7951 14.7951 20.6422 14.891 20.454C15 20.2401 15 19.9601 15 19.4L15 14.6Z" fill="#1B7CE4"/>
<path d="M16.9492 4.59961C17.3634 4.59961 17.6992 4.9354 17.6992 5.34961V7.30078H19.6504C20.0644 7.30099 20.4004 7.6367 20.4004 8.05078C20.4004 8.46487 20.0644 8.80057 19.6504 8.80078H17.6992V10.75C17.699 11.164 17.3633 11.5 16.9492 11.5C16.5351 11.5 16.1994 11.164 16.1992 10.75V8.80078H14.25C13.8358 8.80078 13.5 8.465 13.5 8.05078C13.5 7.63657 13.8358 7.30078 14.25 7.30078H16.1992V5.34961C16.1992 4.9354 16.535 4.59961 16.9492 4.59961Z" fill="#505157"/>
</svg>
