<svg width="24" height="24" viewBox="0 0 24 24" fill="none" xmlns="http://www.w3.org/2000/svg">
<path d="M13.8348 19.376C14.1454 19.1024 14.6194 19.1321 14.8934 19.4424C15.1671 19.7529 15.1373 20.227 14.827 20.501C14.0733 21.1662 13.0813 21.5703 11.9969 21.5703C10.9125 21.5703 9.92056 21.1661 9.16684 20.501C8.85639 20.2269 8.82655 19.7529 9.10043 19.4424C9.37448 19.1321 9.84853 19.1022 10.159 19.376C10.6493 19.8087 11.2918 20.0703 11.9969 20.0703C12.702 20.0703 13.3446 19.8086 13.8348 19.376Z" fill="currentColor"/>
<path fill-rule="evenodd" clip-rule="evenodd" d="M11.9998 2.42969C13.6021 2.42987 15.1393 3.06624 16.2723 4.19922C17.4054 5.3324 18.0418 6.87015 18.0418 8.47266C18.0419 11.065 18.6941 12.7926 19.3846 13.9023C19.7053 14.4177 19.9564 14.8221 20.1248 15.1143C20.2083 15.2591 20.2827 15.3956 20.3368 15.5146C20.3637 15.574 20.3925 15.6447 20.4149 15.7197C20.4337 15.783 20.4676 15.9122 20.4549 16.0674C20.4455 16.182 20.4226 16.3657 20.3182 16.5537C20.2137 16.7416 20.0697 16.8582 19.9774 16.9268C19.7828 17.071 19.5556 17.1042 19.4745 17.1162C19.3517 17.1344 19.2095 17.1437 19.0623 17.1494C18.7657 17.161 18.3513 17.1611 17.8309 17.1611H6.16782C5.64774 17.1611 5.234 17.1609 4.93735 17.1494C4.79005 17.1437 4.64709 17.1344 4.52426 17.1162C4.44322 17.1042 4.21601 17.071 4.02133 16.9268C3.929 16.8583 3.78506 16.7417 3.68051 16.5537C3.57605 16.3657 3.55319 16.182 3.54379 16.0674C3.5311 15.9121 3.565 15.783 3.58383 15.7197C3.60619 15.6447 3.63501 15.574 3.66196 15.5146C3.716 15.3956 3.79039 15.2591 3.87387 15.1143C4.04229 14.822 4.29346 14.4176 4.6141 13.9023C5.30459 12.7926 5.95681 11.065 5.95688 8.47266C5.95688 6.87008 6.59323 5.33241 7.72641 4.19922C8.85959 3.06612 10.3973 2.42969 11.9998 2.42969ZM11.9998 3.92969C10.7952 3.92969 9.63883 4.40797 8.78696 5.25977C7.93508 6.11166 7.45688 7.26791 7.45688 8.47266C7.45681 11.3313 6.73316 13.3363 5.88754 14.6953C5.63803 15.0963 5.44418 15.4121 5.2977 15.6562C5.52598 15.6593 5.81235 15.6611 6.16782 15.6611H17.8309C18.1863 15.6611 18.4728 15.6593 18.701 15.6562C18.5545 15.4121 18.3607 15.0963 18.1112 14.6953C17.2655 13.3363 16.5419 11.3314 16.5418 8.47266C16.5418 7.26797 16.0636 6.11164 15.2118 5.25977C14.36 4.40809 13.2043 3.92987 11.9998 3.92969Z" fill="currentColor"/>
</svg>
