<svg width="24" height="24" viewBox="0 0 24 24" fill="none" xmlns="http://www.w3.org/2000/svg">
<path d="M13.885 19.5381C14.1955 19.2641 14.6695 19.293 14.9436 19.6035C15.2175 19.914 15.1875 20.388 14.8772 20.6621C14.1108 21.3385 13.1019 21.75 11.9992 21.75C10.8967 21.7499 9.88858 21.3384 9.12228 20.6621C8.81173 20.388 8.78178 19.9141 9.05588 19.6035C9.32998 19.293 9.80393 19.264 10.1145 19.5381C10.6172 19.9818 11.2761 20.2499 11.9992 20.25C12.7225 20.25 13.3821 19.9819 13.885 19.5381ZM16.6496 8.40039C16.6496 7.16715 16.1593 5.98435 15.2873 5.1123C14.4153 4.24026 13.2325 3.75 11.9992 3.75C10.7661 3.75009 9.58312 4.24034 8.71115 5.1123C7.83933 5.98431 7.34982 7.1673 7.34982 8.40039C7.34975 11.3145 6.61244 13.3571 5.75119 14.7412C5.4887 15.163 5.28504 15.4917 5.134 15.7441C5.37149 15.7476 5.67211 15.75 6.04904 15.75H17.9494C18.3263 15.75 18.627 15.7476 18.8645 15.7441C18.7135 15.4917 18.5106 15.1628 18.2483 14.7412C17.387 13.3571 16.6497 11.3145 16.6496 8.40039ZM4.72482 2.61719C5.08555 2.41371 5.54276 2.54067 5.7463 2.90137C5.94986 3.26212 5.8219 3.7193 5.46115 3.92285C4.56158 4.43053 4.00367 5.39777 4.01388 6.43066C4.01788 6.8447 3.68573 7.18328 3.2717 7.1875C2.8575 7.19159 2.51798 6.85951 2.51388 6.44531C2.49827 4.86586 3.34917 3.39339 4.72482 2.61719ZM18.2492 2.90137C18.4528 2.54067 18.91 2.41371 19.2707 2.61719C20.6464 3.39339 21.4973 4.86586 21.4817 6.44531C21.4776 6.85951 21.138 7.19159 20.7238 7.1875C20.3098 7.18329 19.9777 6.84471 19.9817 6.43066C19.9919 5.39777 19.434 4.43053 18.5344 3.92285C18.1736 3.7193 18.0457 3.26212 18.2492 2.90137ZM18.1496 8.40039C18.1497 11.048 18.8156 12.8134 19.5217 13.9482C19.849 14.4742 20.1049 14.8867 20.2766 15.1846C20.3617 15.3323 20.4376 15.471 20.4924 15.5918C20.5197 15.652 20.549 15.7232 20.5715 15.7988C20.5905 15.8626 20.6242 15.9919 20.6115 16.1475C20.602 16.2636 20.5797 16.4487 20.4748 16.6377C20.3698 16.8267 20.2248 16.9441 20.1311 17.0137C19.9357 17.1586 19.707 17.1918 19.6242 17.2041C19.4998 17.2225 19.3554 17.2324 19.2053 17.2383C18.9029 17.2501 18.4807 17.25 17.9494 17.25H6.04904C5.51803 17.25 5.09643 17.2501 4.79416 17.2383C4.64392 17.2324 4.49978 17.2226 4.37521 17.2041C4.29273 17.1919 4.064 17.1588 3.86838 17.0137C3.77467 16.9442 3.62971 16.8269 3.52463 16.6377C3.41968 16.4486 3.39643 16.2637 3.38693 16.1475C3.37429 15.9921 3.40797 15.8627 3.42697 15.7988C3.44953 15.7231 3.47969 15.6521 3.50705 15.5918C3.56186 15.4711 3.6368 15.3322 3.72189 15.1846C3.89357 14.8867 4.15048 14.4742 4.47775 13.9482C5.18377 12.8134 5.84976 11.0479 5.84982 8.40039C5.84982 6.76948 6.49748 5.20507 7.6506 4.05176C8.80387 2.89849 10.3683 2.25009 11.9992 2.25C13.6303 2.25 15.1945 2.89841 16.3479 4.05176C17.5012 5.2051 18.1496 6.76933 18.1496 8.40039Z" fill="currentColor"/>
</svg>
