<svg width="24" height="24" viewBox="0 0 24 24" fill="none" xmlns="http://www.w3.org/2000/svg">
<path fill-rule="evenodd" clip-rule="evenodd" d="M12.3234 2.51914C12.5365 2.2636 12.8931 2.17976 13.1984 2.3121C13.5035 2.44473 13.6849 2.76221 13.6437 3.09238L12.8488 9.4498H18.5626C18.7926 9.4498 19.0176 9.44917 19.1974 9.46543C19.3413 9.47847 19.5788 9.50889 19.7999 9.64902L19.8927 9.7164L19.9943 9.8082C20.2181 10.0357 20.3438 10.3447 20.339 10.6676C20.3342 10.9827 20.1799 11.227 20.0861 11.3629C19.9834 11.5115 19.8389 11.6841 19.6915 11.8609L11.6759 21.4801C11.4627 21.7356 11.1062 21.8196 10.8009 21.6871C10.4959 21.5544 10.3145 21.2369 10.3556 20.9068L11.1495 14.5494H5.43666C5.20661 14.5494 4.98175 14.5501 4.80189 14.5338C4.63734 14.5189 4.35056 14.4808 4.1056 14.2828C3.81915 14.051 3.65479 13.7001 3.66029 13.3316L3.66908 13.2164C3.70306 12.957 3.83113 12.7552 3.91322 12.6363C4.01589 12.4877 4.16042 12.3151 4.30775 12.1383L12.3234 2.51914ZM5.50111 13.0494H11.9992C12.2142 13.0494 12.4193 13.1422 12.5617 13.3033C12.7039 13.4645 12.7699 13.6788 12.7433 13.8922L12.1603 18.5533L18.4982 10.9498H11.9992C11.7844 10.9496 11.5798 10.8569 11.4376 10.6959C11.2955 10.5348 11.2285 10.3202 11.255 10.107L11.837 5.44492L5.50111 13.0494Z" fill="currentColor"/>
</svg>
