<svg width="24" height="24" viewBox="0 0 24 24" fill="none" xmlns="http://www.w3.org/2000/svg">
<path d="M12.6632 2.2691C12.8763 2.01365 13.233 1.92977 13.5382 2.06207C13.8432 2.19465 14.0245 2.5123 13.9835 2.84234L13.1886 9.19976H18.9025C19.1325 9.19976 19.3574 9.19912 19.5372 9.21539C19.6812 9.22843 19.9187 9.2589 20.1398 9.39898L20.2326 9.46636L20.3341 9.55816C20.5578 9.78557 20.6836 10.0948 20.6788 10.4175C20.6741 10.7325 20.5198 10.9769 20.4259 11.1128C20.3232 11.2615 20.1787 11.4341 20.0314 11.6109L12.0158 21.23C11.8026 21.4857 11.4461 21.5696 11.1408 21.4371C10.8357 21.3044 10.6543 20.9869 10.6954 20.6568L11.4894 14.2994H5.7765C5.5464 14.2994 5.32163 14.3 5.14174 14.2837C4.9772 14.2688 4.69045 14.2308 4.44545 14.0328C4.15906 13.801 3.99462 13.45 4.00013 13.0816L4.00892 12.9664C4.043 12.7069 4.17102 12.5051 4.25306 12.3863C4.35577 12.2376 4.50025 12.0651 4.6476 11.8882L12.6632 2.2691Z" fill="currentColor"/>
</svg>
