<svg width="24" height="24" viewBox="0 0 24 24" fill="none" xmlns="http://www.w3.org/2000/svg">
<path fill-rule="evenodd" clip-rule="evenodd" d="M6.24023 4.05078C7.23584 4.05078 8.02813 4.05042 8.66602 4.10254C9.3125 4.15539 9.86673 4.26642 10.375 4.52539C11.0329 4.8607 11.5894 5.35808 12 5.96484C12.4106 5.35808 12.9671 4.8607 13.625 4.52539C14.1333 4.26642 14.6875 4.15539 15.334 4.10254C15.9719 4.05042 16.7642 4.05078 17.7598 4.05078H18.1201C18.6117 4.05078 19.0255 4.05053 19.3633 4.07813C19.7098 4.10644 20.0416 4.16817 20.3574 4.3291C20.8372 4.57358 21.2272 4.96355 21.4717 5.44336C21.6326 5.75922 21.6943 6.09098 21.7227 6.4375C21.7503 6.77525 21.75 7.18904 21.75 7.68066V16.3203C21.75 16.812 21.7503 17.2267 21.7227 17.5645C21.6943 17.9108 21.6326 18.2428 21.4717 18.5586C21.2272 19.0383 20.8371 19.4284 20.3574 19.6729C20.0416 19.8337 19.7097 19.8955 19.3633 19.9238C19.0255 19.9514 18.6117 19.9512 18.1201 19.9512H5.87988C5.38828 19.9512 4.97446 19.9514 4.63672 19.9238C4.29026 19.8955 3.95839 19.8337 3.64258 19.6729C3.16285 19.4284 2.77281 19.0383 2.52832 18.5586C2.36744 18.2428 2.30567 17.9108 2.27734 17.5645C2.24975 17.2267 2.25 16.812 2.25 16.3203V7.68066C2.25 7.18904 2.24975 6.77525 2.27734 6.4375C2.30566 6.09098 2.36739 5.75922 2.52832 5.44336C2.7728 4.96355 3.16277 4.57358 3.64258 4.3291C3.95844 4.16817 4.2902 4.10644 4.63672 4.07813C4.97447 4.05053 5.38826 4.05078 5.87988 4.05078H6.24023ZM5.87988 5.55078C5.36353 5.55078 5.0213 5.55179 4.75879 5.57324C4.5051 5.59398 4.39241 5.6298 4.32324 5.66504C4.12567 5.76571 3.96492 5.92645 3.86426 6.12402C3.82902 6.19319 3.79319 6.30588 3.77246 6.55957C3.75101 6.82208 3.75 7.16431 3.75 7.68066V16.3203C3.75 16.8367 3.75101 17.1799 3.77246 17.4424C3.7932 17.6958 3.82904 17.8088 3.86426 17.8779C3.9649 18.0753 4.12587 18.2353 4.32324 18.3359C4.39241 18.3712 4.50505 18.408 4.75879 18.4287C5.0213 18.4502 5.36353 18.4512 5.87988 18.4512H11.25V10.5605C11.25 9.54044 11.2491 8.82039 11.2031 8.25781C11.1579 7.70389 11.0728 7.36814 10.9395 7.10645C10.6663 6.57045 10.2303 6.13452 9.69434 5.86133C9.43265 5.72799 9.0969 5.64291 8.54297 5.59766C7.98039 5.55172 7.26034 5.55078 6.24023 5.55078H5.87988ZM17.7598 5.55078C16.7397 5.55078 16.0196 5.55172 15.457 5.59766C14.9031 5.64291 14.5674 5.72799 14.3057 5.86133C13.7697 6.13452 13.3337 6.57045 13.0605 7.10645C12.9272 7.36814 12.8421 7.70389 12.7969 8.25781C12.7509 8.82039 12.75 9.54044 12.75 10.5605V18.4512H18.1201C18.6365 18.4512 18.9787 18.4502 19.2412 18.4287C19.4949 18.408 19.6076 18.3712 19.6768 18.3359C19.8741 18.2353 20.0351 18.0753 20.1357 17.8779C20.171 17.8088 20.2068 17.6958 20.2275 17.4424C20.249 17.1799 20.25 16.8367 20.25 16.3203V7.68066C20.25 7.16431 20.249 6.82208 20.2275 6.55957C20.2068 6.30588 20.171 6.19319 20.1357 6.12402C20.0351 5.92645 19.8743 5.76571 19.6768 5.66504C19.6076 5.6298 19.4949 5.59398 19.2412 5.57324C18.9787 5.55179 18.6365 5.55078 18.1201 5.55078H17.7598Z" fill="currentColor"/>
</svg>
