<svg width="24" height="24" viewBox="0 0 24 24" fill="none" xmlns="http://www.w3.org/2000/svg">
<path d="M11.9999 1.75C12.4141 1.75003 12.7499 2.08581 12.7499 2.5V9C12.7499 9.08803 12.7319 9.17152 12.704 9.25H16.4999C18.0187 9.25004 19.2499 10.4813 19.2499 12V19.1895L20.9697 17.4697C21.2626 17.1768 21.7373 17.1768 22.0302 17.4697C22.3231 17.7626 22.3231 18.2374 22.0302 18.5303L19.0302 21.5303C18.7373 21.8231 18.2626 21.8231 17.9697 21.5303L14.9697 18.5303C14.6768 18.2374 14.6768 17.7626 14.9697 17.4697C15.2626 17.1768 15.7373 17.1768 16.0302 17.4697L17.7499 19.1895V12C17.7499 11.3097 17.1903 10.75 16.4999 10.75H7.49994C6.8096 10.75 6.24996 11.3097 6.24994 12V19.1895L7.96967 17.4697C8.26257 17.1769 8.73735 17.1769 9.03022 17.4697C9.32305 17.7626 9.32302 18.2374 9.03022 18.5303L6.03022 21.5303C5.73733 21.8232 5.26257 21.8231 4.96967 21.5303L1.96967 18.5303C1.67678 18.2374 1.67678 17.7626 1.96967 17.4697C2.26257 17.1769 2.73735 17.1769 3.03022 17.4697L4.74994 19.1895V12C4.74996 10.4812 5.98118 9.25001 7.49994 9.25H11.2958C11.268 9.17151 11.2499 9.08805 11.2499 9V2.5C11.2499 2.08579 11.5857 1.75 11.9999 1.75Z" fill="currentColor"/>
</svg>
