<svg width="24" height="24" viewBox="0 0 24 24" fill="none" xmlns="http://www.w3.org/2000/svg">
<path fill-rule="evenodd" clip-rule="evenodd" d="M17.7607 2.25C18.0004 2.25 18.2254 2.24932 18.4131 2.26465C18.5605 2.27671 18.7217 2.30087 18.8857 2.35938L19.0498 2.42969L19.1631 2.49317C19.4218 2.65171 19.632 2.87956 19.7705 3.15137C19.8823 3.37092 19.9195 3.59169 19.9356 3.78809C19.9509 3.97574 19.9512 4.20089 19.9512 4.44043V10.3799C19.9512 11.1236 19.951 11.727 19.9111 12.2148C19.8706 12.7113 19.7851 13.1544 19.5752 13.5664C19.2445 14.2155 18.7164 14.7435 18.0674 15.0742C17.6553 15.2842 17.2115 15.3706 16.7148 15.4111C16.2534 15.4488 15.689 15.4492 15 15.4492V18.75C15 20.4069 13.6569 21.75 12 21.75C10.3432 21.75 9 20.4069 9 18.75V15.4492C8.31157 15.4492 7.74724 15.4488 7.28614 15.4111C6.78964 15.3706 6.34663 15.2842 5.93457 15.0742C5.28542 14.7435 4.75752 14.2156 4.42676 13.5664C4.21683 13.1544 4.13043 12.7113 4.08985 12.2148C4.04999 11.727 4.05079 11.1236 4.05079 10.3799V4.44043C4.05079 4.20091 4.05012 3.97573 4.06543 3.78809C4.08148 3.59176 4.11874 3.37084 4.23047 3.15137L4.29395 3.03711C4.45248 2.77864 4.68049 2.56811 4.95215 2.42969L5.11622 2.35938C5.28021 2.30095 5.4415 2.27669 5.58887 2.26465C5.77651 2.24934 6.00169 2.25 6.24122 2.25H17.7607ZM10.5 15.4502V18.75C10.5 19.5784 11.1716 20.25 12 20.25C12.8284 20.25 13.5 19.5784 13.5 18.75V15.4502H10.5ZM5.55372 10.9502C5.55566 11.4254 5.56031 11.791 5.58497 12.0928C5.61797 12.4964 5.67941 12.7204 5.76368 12.8857C5.95058 13.2524 6.24861 13.5504 6.61524 13.7373C6.78063 13.8216 7.00454 13.883 7.40821 13.916C7.82081 13.9497 8.35265 13.9502 9.1211 13.9502H14.8809C15.6491 13.9502 16.1802 13.9497 16.5928 13.916C16.9965 13.883 17.2203 13.8216 17.3857 13.7373C17.7526 13.5504 18.0513 13.2526 18.2383 12.8857C18.3226 12.7204 18.383 12.4964 18.416 12.0928C18.4407 11.791 18.4463 11.4254 18.4482 10.9502H5.55372ZM6.24122 3.75C5.97698 3.75 5.82337 3.7506 5.71094 3.75977C5.66411 3.7636 5.63789 3.76797 5.62598 3.77051C5.60321 3.78367 5.58445 3.80243 5.57129 3.8252C5.56875 3.83711 5.56438 3.86333 5.56055 3.91016C5.55138 4.02259 5.55079 4.1762 5.55079 4.44043V9.4502H18.4512V4.44043C18.4512 4.17622 18.4506 4.02259 18.4414 3.91016C18.4376 3.86317 18.4322 3.83705 18.4297 3.8252C18.4165 3.80239 18.3979 3.78363 18.375 3.77051C18.3629 3.76795 18.337 3.76353 18.291 3.75977C18.1786 3.75058 18.0251 3.75 17.7607 3.75H6.24122Z" fill="currentColor"/>
</svg>
