<svg width="24" height="24" viewBox="0 0 24 24" fill="none" xmlns="http://www.w3.org/2000/svg">
<path fill-rule="evenodd" clip-rule="evenodd" d="M19.2012 10.75C19.6152 10.7502 19.9512 11.0859 19.9512 11.5C19.9512 11.9379 19.9525 12.2377 19.9141 12.5C19.6932 14.0081 18.509 15.1921 17.001 15.4131C16.7388 15.4515 16.4388 15.4502 16.001 15.4502H15V18.749C15 20.4059 13.6569 21.749 12 21.749C10.3432 21.749 9.00003 20.4059 9.00003 18.749V15.4502H8.001C7.56318 15.4502 7.26325 15.4515 7.001 15.4131C5.49282 15.1922 4.30785 14.0082 4.08694 12.5C4.04853 12.2377 4.05081 11.9379 4.05081 11.5C4.05081 11.0858 4.38662 10.75 4.80081 10.75H19.2012ZM5.57131 12.2822C5.69615 13.1346 6.36552 13.8047 7.2178 13.9297C7.34471 13.9483 7.51011 13.9502 8.001 13.9502H9.73049C9.73699 13.95 9.74349 13.9492 9.75003 13.9492C10.1642 13.9492 10.5 14.285 10.5 14.6992V18.749C10.5 19.5774 11.1716 20.249 12 20.249C12.8285 20.249 13.5 19.5774 13.5 18.749V14.6992C13.5 14.285 13.8358 13.9492 14.25 13.9492C14.2566 13.9492 14.2631 13.95 14.2696 13.9502H16.001C16.4915 13.9502 16.6564 13.9482 16.7832 13.9297C17.6357 13.8048 18.3058 13.1347 18.4307 12.2822C18.4322 12.2718 18.4323 12.261 18.4336 12.25H5.56839C5.56969 12.261 5.5698 12.2718 5.57131 12.2822Z" fill="currentColor"/>
<path d="M17.6006 2.05078C17.8681 2.05078 18.1141 2.05071 18.3184 2.06738C18.5314 2.08479 18.7649 2.12397 18.9951 2.24121C19.3243 2.40891 19.592 2.67679 19.7598 3.00586C19.8771 3.23606 19.9172 3.46957 19.9346 3.68262C19.9513 3.88689 19.9512 4.13289 19.9512 4.40039V8.80078C19.9512 9.21486 19.6152 9.55057 19.2012 9.55078H4.80081C4.38661 9.55077 4.05081 9.21499 4.05081 8.80078V4.40039C4.05081 4.13289 4.05072 3.88689 4.06741 3.68262C4.08484 3.46958 4.12395 3.23604 4.24124 3.00586C4.40898 2.67676 4.67679 2.40896 5.00589 2.24121C5.23606 2.12393 5.46961 2.08481 5.68264 2.06738C5.88691 2.05069 6.13293 2.05078 6.40042 2.05078H17.6006Z" fill="currentColor"/>
</svg>
