<svg width="24" height="24" viewBox="0 0 24 24" fill="none" xmlns="http://www.w3.org/2000/svg">
<path d="M9.8584 9.09961C10.2726 9.09961 10.6084 9.4354 10.6084 9.84961C10.6084 10.2638 10.2726 10.5996 9.8584 10.5996H9.84961C9.4354 10.5996 9.09961 10.2638 9.09961 9.84961C9.09961 9.4354 9.4354 9.09961 9.84961 9.09961H9.8584Z" fill="currentColor"/>
<path d="M13.8682 9.09961C14.2824 9.09961 14.6182 9.4354 14.6182 9.84961C14.6182 10.2638 14.2824 10.5996 13.8682 10.5996H13.8594C13.4452 10.5996 13.1094 10.2638 13.1094 9.84961C13.1094 9.4354 13.4452 9.09961 13.8594 9.09961H13.8682Z" fill="currentColor"/>
<path d="M9.8584 6.09961C10.2726 6.09961 10.6084 6.4354 10.6084 6.84961C10.6084 7.26383 10.2726 7.59961 9.8584 7.59961H9.84961C9.4354 7.59961 9.09961 7.26383 9.09961 6.84961C9.09961 6.4354 9.4354 6.09961 9.84961 6.09961H9.8584Z" fill="currentColor"/>
<path d="M13.8682 6.09961C14.2824 6.09961 14.6182 6.4354 14.6182 6.84961C14.6182 7.26383 14.2824 7.59961 13.8682 7.59961H13.8594C13.4452 7.59961 13.1094 7.26383 13.1094 6.84961C13.1094 6.4354 13.4452 6.09961 13.8594 6.09961H13.8682Z" fill="currentColor"/>
<path fill-rule="evenodd" clip-rule="evenodd" d="M14.9492 3C15.4966 3 15.9523 2.99901 16.3232 3.0293C16.7031 3.06034 17.0602 3.12797 17.3975 3.29981C17.9148 3.56346 18.335 3.98457 18.5986 4.50196C18.7704 4.83913 18.8381 5.19542 18.8691 5.5752C18.8995 5.94633 18.8984 6.40253 18.8984 6.9502V19.1992H19.9502C20.3643 19.1993 20.7002 19.5351 20.7002 19.9492C20.7002 20.3634 20.3643 20.6991 19.9502 20.6992H18.168C18.1615 20.6994 18.155 20.7002 18.1484 20.7002C18.1419 20.7002 18.1354 20.6994 18.1289 20.6992H14.5703C14.5638 20.6994 14.5573 20.7002 14.5508 20.7002C14.5442 20.7002 14.5377 20.6994 14.5312 20.6992H9.16992C9.16343 20.6994 9.15693 20.7002 9.15039 20.7002C9.14385 20.7002 9.13736 20.6994 9.13086 20.6992H5.56836C5.56186 20.6994 5.55536 20.7002 5.54883 20.7002C5.54229 20.7002 5.53579 20.6994 5.5293 20.6992H3.75C3.33579 20.6992 3 20.3634 3 19.9492C3 19.535 3.33579 19.1992 3.75 19.1992H4.79883V6.9502C4.79883 6.40253 4.7978 5.94633 4.82812 5.5752C4.85916 5.19547 4.92692 4.8391 5.09863 4.50196C5.36228 3.98451 5.78334 3.56346 6.30078 3.29981C6.63792 3.1281 6.99429 3.06033 7.37402 3.0293C7.74515 2.99898 8.20135 3 8.74902 3H14.9492ZM8.74902 4.5C8.1766 4.5 7.79197 4.50024 7.49609 4.52442C7.2091 4.54788 7.07199 4.59059 6.98145 4.63672C6.74633 4.75655 6.55537 4.94751 6.43555 5.18262C6.38941 5.27316 6.3467 5.41028 6.32324 5.69727C6.29907 5.99315 6.29883 6.37778 6.29883 6.9502V19.1992H8.40039V15.25C8.40039 14.9825 8.4003 14.7365 8.41699 14.5322C8.43442 14.3192 8.47353 14.0857 8.59082 13.8555C8.75857 13.5264 9.02636 13.2586 9.35547 13.0908C9.58566 12.9735 9.81918 12.9344 10.0322 12.917C10.2365 12.9003 10.4825 12.9004 10.75 12.9004H12.9502C13.2177 12.9004 13.4636 12.9003 13.668 12.917C13.881 12.9344 14.1145 12.9736 14.3447 13.0908C14.6739 13.2585 14.9416 13.5264 15.1094 13.8555C15.2267 14.0857 15.2668 14.3192 15.2842 14.5322C15.3009 14.7365 15.3008 14.9825 15.3008 15.25V19.1992H17.3984V6.9502C17.3984 6.37778 17.3982 5.99315 17.374 5.69727C17.3506 5.41043 17.3088 5.27316 17.2627 5.18262C17.143 4.94761 16.9517 4.75658 16.7168 4.63672C16.6262 4.59058 16.4883 4.54788 16.2012 4.52442C15.9054 4.50027 15.5213 4.5 14.9492 4.5H8.74902ZM10.75 14.4004C10.4578 14.4004 10.2834 14.4006 10.1543 14.4111C10.0342 14.421 10.0207 14.4361 10.0371 14.4277C9.99007 14.4517 9.9517 14.4901 9.92773 14.5371C9.93608 14.5207 9.92097 14.5343 9.91113 14.6543C9.90059 14.7834 9.90039 14.9578 9.90039 15.25V19.1992H13.8008V15.25C13.8008 14.9578 13.7996 14.7834 13.7891 14.6543C13.7792 14.5343 13.7651 14.5207 13.7734 14.5371C13.7495 14.4901 13.711 14.4517 13.6641 14.4277C13.6802 14.4359 13.6658 14.4209 13.5459 14.4111C13.4168 14.4006 13.2424 14.4004 12.9502 14.4004H10.75Z" fill="currentColor"/>
</svg>
