<svg width="24" height="24" viewBox="0 0 24 24" fill="none" xmlns="http://www.w3.org/2000/svg">
<path d="M16.4209 6.51954C16.7138 6.22684 17.1886 6.22671 17.4814 6.51954C17.7739 6.81239 17.774 7.28729 17.4814 7.58008L7.58106 17.4805C7.28827 17.7731 6.81337 17.773 6.52051 17.4805C6.22768 17.1876 6.22781 16.7128 6.52051 16.4199L16.4209 6.51954Z" fill="currentColor"/>
<path d="M16.9492 14.4004C17.3634 14.4004 17.6992 14.7362 17.6992 15.1504C17.6992 15.5646 17.3634 15.9004 16.9492 15.9004H13.3496C12.9354 15.9004 12.5996 15.5646 12.5996 15.1504C12.5996 14.7362 12.9354 14.4004 13.3496 14.4004H16.9492Z" fill="currentColor"/>
<path d="M8.84961 6.29981C9.26383 6.29981 9.59961 6.6356 9.59961 7.04981V8.09961H10.6504C11.0646 8.09961 11.4004 8.4354 11.4004 8.84961C11.4004 9.26383 11.0646 9.59961 10.6504 9.59961H9.59961V10.6494C9.59961 11.0636 9.26383 11.3994 8.84961 11.3994C8.4354 11.3994 8.09961 11.0636 8.09961 10.6494V9.59961H7.05079C6.63657 9.59961 6.30079 9.26383 6.30079 8.84961C6.30079 8.4354 6.63657 8.09962 7.05079 8.09961H8.09961V7.04981C8.09962 6.6356 8.4354 6.29981 8.84961 6.29981Z" fill="currentColor"/>
<path fill-rule="evenodd" clip-rule="evenodd" d="M16.9004 3.15039C17.4481 3.15039 17.9043 3.14937 18.2754 3.17969C18.6551 3.21073 19.0115 3.27846 19.3486 3.4502C19.8661 3.71385 20.2871 4.13491 20.5508 4.65235C20.7225 4.98945 20.7893 5.34591 20.8203 5.72559C20.8506 6.09672 20.8506 6.55292 20.8506 7.10059V16.9004C20.8506 17.4481 20.8506 17.9043 20.8203 18.2754C20.7893 18.6551 20.7225 19.0115 20.5508 19.3486C20.2871 19.8661 19.8661 20.2871 19.3486 20.5508C19.0115 20.7225 18.6551 20.7893 18.2754 20.8203C17.9043 20.8506 17.4481 20.8506 16.9004 20.8506H7.10059C6.55292 20.8506 6.09672 20.8506 5.72559 20.8203C5.34591 20.7893 4.98945 20.7225 4.65235 20.5508C4.13491 20.2871 3.71385 19.8661 3.4502 19.3486C3.27846 19.0115 3.21073 18.6551 3.17969 18.2754C3.14937 17.9043 3.15039 17.4481 3.15039 16.9004V7.10059C3.15039 6.55292 3.14937 6.09672 3.17969 5.72559C3.21072 5.34586 3.27849 4.98949 3.4502 4.65235C3.71385 4.1349 4.1349 3.71385 4.65235 3.4502C4.98949 3.27849 5.34586 3.21072 5.72559 3.17969C6.09672 3.14937 6.55292 3.15039 7.10059 3.15039H16.9004ZM7.10059 4.65039C6.52817 4.65039 6.14354 4.65063 5.84766 4.67481C5.56067 4.69827 5.42355 4.74098 5.33301 4.78711C5.0979 4.90694 4.90694 5.0979 4.78711 5.33301C4.74098 5.42355 4.69827 5.56067 4.67481 5.84766C4.65063 6.14354 4.65039 6.52817 4.65039 7.10059V16.9004C4.65039 17.4728 4.65064 17.8574 4.67481 18.1533C4.69827 18.4402 4.74099 18.5775 4.78711 18.668C4.90696 18.903 5.09792 19.0941 5.33301 19.2139C5.42355 19.26 5.56071 19.3017 5.84766 19.3252C6.14354 19.3494 6.52817 19.3506 7.10059 19.3506H16.9004C17.4728 19.3506 17.8574 19.3494 18.1533 19.3252C18.4401 19.3017 18.5775 19.26 18.668 19.2139C18.903 19.0941 19.0941 18.903 19.2139 18.668C19.26 18.5775 19.3017 18.4401 19.3252 18.1533C19.3494 17.8574 19.3506 17.4728 19.3506 16.9004V7.10059C19.3506 6.52817 19.3494 6.14354 19.3252 5.84766C19.3017 5.56071 19.26 5.42355 19.2139 5.33301C19.0941 5.09792 18.903 4.90696 18.668 4.78711C18.5775 4.74099 18.4402 4.69827 18.1533 4.67481C17.8574 4.65064 17.4728 4.65039 16.9004 4.65039H7.10059Z" fill="currentColor"/>
</svg>
