<svg width="24" height="24" viewBox="0 0 24 24" fill="none" xmlns="http://www.w3.org/2000/svg">
<path fill-rule="evenodd" clip-rule="evenodd" d="M14.7012 1.25C15.1154 1.25 15.4512 1.58579 15.4512 2V3.05078H16C16.5477 3.05078 17.0039 3.04976 17.375 3.08008C17.7547 3.11112 18.1111 3.17885 18.4482 3.35059C18.9656 3.61424 19.3868 4.03535 19.6504 4.55273C19.8219 4.88972 19.8889 5.24644 19.9199 5.62598C19.9502 5.99702 19.9502 6.45354 19.9502 7.00098V8.50098C19.9497 8.86286 19.6929 9.16525 19.3516 9.23535C19.3027 9.24537 19.252 9.25096 19.2002 9.25098L3.75 9.25V16.8008C3.75 17.3729 3.75025 17.7579 3.77442 18.0537C3.79789 18.3403 3.84063 18.4779 3.88672 18.5684C4.00658 18.8033 4.19765 18.9945 4.43262 19.1143C4.52316 19.1603 4.66051 19.2021 4.94727 19.2256C5.24314 19.2498 5.6278 19.251 6.2002 19.251H7.55079C7.965 19.251 8.30079 19.5868 8.30079 20.001C8.30042 20.4149 7.96477 20.751 7.55079 20.751H6.2002C5.65254 20.751 5.19632 20.751 4.8252 20.7207C4.44559 20.6897 4.089 20.6228 3.75196 20.4512C3.23464 20.1876 2.81347 19.7663 2.54981 19.249C2.37814 18.912 2.31036 18.5553 2.2793 18.1758C2.24899 17.8048 2.25 17.3482 2.25 16.8008V7.00098C2.25 6.45354 2.24902 5.99702 2.2793 5.62598C2.31032 5.24639 2.37824 4.88976 2.54981 4.55273C2.81343 4.03536 3.2346 3.61424 3.75196 3.35059C4.08909 3.17888 4.44549 3.11111 4.8252 3.08008C5.19633 3.04976 5.65253 3.05078 6.2002 3.05078H6.75V2C6.75 1.58579 7.08579 1.25 7.5 1.25C7.91422 1.25 8.25 1.58579 8.25 2V3.05078H13.9512V2C13.9512 1.58579 14.287 1.25 14.7012 1.25ZM6.2002 4.55078C5.62778 4.55078 5.24315 4.55102 4.94727 4.5752C4.6603 4.59866 4.52316 4.64137 4.43262 4.6875C4.1976 4.80733 4.00652 4.99835 3.88672 5.2334C3.84067 5.32394 3.79785 5.46146 3.77442 5.74805C3.75028 6.04386 3.75 6.42886 3.75 7.00098V7.75H18.4502V7.00098C18.4502 6.42886 18.4489 6.04386 18.4248 5.74805C18.4014 5.46149 18.3595 5.32394 18.3135 5.2334C18.1937 4.99836 18.0026 4.80735 17.7676 4.6875C17.6771 4.64138 17.5398 4.59866 17.2529 4.5752C16.9571 4.55102 16.5724 4.55078 16 4.55078H15.4512V5.59961C15.4512 6.01382 15.1154 6.34961 14.7012 6.34961C14.287 6.34961 13.9512 6.01382 13.9512 5.59961V4.55078H8.25V5.59961C8.25 6.01382 7.91422 6.34961 7.5 6.34961C7.08579 6.34961 6.75 6.01382 6.75 5.59961V4.55078H6.2002Z" fill="currentColor"/>
</svg>
