<svg width="24" height="24" viewBox="0 0 24 24" fill="none" xmlns="http://www.w3.org/2000/svg">
<path d="M12.9004 16.6484C13.3144 16.6486 13.6504 16.9844 13.6504 17.3984C13.6504 17.8125 13.3144 18.1482 12.9004 18.1484H7.5C7.08579 18.1484 6.75 17.8126 6.75 17.3984C6.75 16.9842 7.08579 16.6484 7.5 16.6484H12.9004Z" fill="currentColor"/>
<path d="M16.5088 16.6484C16.923 16.6484 17.2588 16.9842 17.2588 17.3984C17.2588 17.8127 16.923 18.1484 16.5088 18.1484H16.5C16.0858 18.1484 15.75 17.8126 15.75 17.3984C15.75 16.9842 16.0858 16.6484 16.5 16.6484H16.5088Z" fill="currentColor"/>
<path d="M7.50879 13.0488C7.92301 13.0488 8.25879 13.3846 8.25879 13.7988C8.25879 14.213 7.92301 14.5488 7.50879 14.5488H7.5C7.08579 14.5488 6.75 14.213 6.75 13.7988C6.75 13.3846 7.08579 13.0488 7.5 13.0488H7.50879Z" fill="currentColor"/>
<path d="M16.5 13.0488C16.914 13.049 17.25 13.3847 17.25 13.7988C17.25 14.2129 16.914 14.5486 16.5 14.5488H11.0996C10.6854 14.5488 10.3496 14.213 10.3496 13.7988C10.3496 13.3846 10.6854 13.0488 11.0996 13.0488H16.5Z" fill="currentColor"/>
<path fill-rule="evenodd" clip-rule="evenodd" d="M15.5996 2.24805C16.0138 2.24805 16.3496 2.58383 16.3496 2.99805V4.04883H16.9004C17.4481 4.04883 17.9043 4.0478 18.2754 4.07812C18.6551 4.10917 19.0115 4.17689 19.3486 4.34863C19.8661 4.61228 20.2871 5.03334 20.5508 5.55078C20.7225 5.88788 20.7893 6.24435 20.8203 6.62402C20.8506 6.99515 20.8506 7.45135 20.8506 7.99902V17.7988C20.8506 18.3465 20.8506 18.8027 20.8203 19.1738C20.7893 19.5535 20.7225 19.91 20.5508 20.2471C20.2871 20.7645 19.8661 21.1856 19.3486 21.4492C19.0115 21.6209 18.6551 21.6877 18.2754 21.7188C17.9043 21.7491 17.4481 21.749 16.9004 21.749H7.10059C6.55292 21.749 6.09672 21.7491 5.72559 21.7188C5.34591 21.6877 4.98945 21.6209 4.65235 21.4492C4.13491 21.1856 3.71385 20.7645 3.4502 20.2471C3.27846 19.9099 3.21073 19.5535 3.17969 19.1738C3.14937 18.8027 3.15039 18.3465 3.15039 17.7988V7.99902C3.15039 7.45135 3.14937 6.99515 3.17969 6.62402C3.21072 6.24429 3.27849 5.88792 3.4502 5.55078C3.71385 5.03334 4.1349 4.61228 4.65235 4.34863C4.98949 4.17692 5.34586 4.10916 5.72559 4.07812C6.09672 4.0478 6.55292 4.04883 7.10059 4.04883H7.65039V2.99805C7.65039 2.58383 7.98618 2.24805 8.40039 2.24805C8.81461 2.24805 9.15039 2.58383 9.15039 2.99805V4.04883H14.8496V2.99805C14.8496 2.58383 15.1854 2.24805 15.5996 2.24805ZM4.65039 17.7988C4.65039 18.3713 4.65063 18.7559 4.67481 19.0518C4.69827 19.3386 4.74099 19.4759 4.78711 19.5664C4.90696 19.8015 5.09791 19.9925 5.33301 20.1123C5.42355 20.1584 5.56071 20.2002 5.84766 20.2236C6.14354 20.2478 6.52817 20.249 7.10059 20.249H16.9004C17.4728 20.249 17.8574 20.2478 18.1533 20.2236C18.4401 20.2002 18.5775 20.1584 18.668 20.1123C18.903 19.9925 19.0941 19.8015 19.2139 19.5664C19.26 19.4759 19.3017 19.3386 19.3252 19.0518C19.3494 18.7559 19.3506 18.3713 19.3506 17.7988V10.9473H4.65039V17.7988ZM7.10059 5.54883C6.52817 5.54883 6.14354 5.54907 5.84766 5.57324C5.56067 5.5967 5.42355 5.63941 5.33301 5.68555C5.0979 5.80537 4.90694 5.99633 4.78711 6.23145C4.74098 6.32199 4.69827 6.4591 4.67481 6.74609C4.65063 7.04197 4.65039 7.4266 4.65039 7.99902V9.44727H19.3506V7.99902C19.3506 7.4266 19.3494 7.04197 19.3252 6.74609C19.3017 6.45914 19.26 6.32198 19.2139 6.23145C19.0941 5.99635 18.903 5.80539 18.668 5.68555C18.5775 5.63943 18.4402 5.59671 18.1533 5.57324C17.8574 5.54907 17.4728 5.54883 16.9004 5.54883H16.3496V6.59766C16.3496 7.01187 16.0138 7.34766 15.5996 7.34766C15.1854 7.34765 14.8496 7.01187 14.8496 6.59766V5.54883H9.15039V6.59766C9.15039 7.01187 8.81461 7.34766 8.40039 7.34766C7.98618 7.34765 7.65039 7.01187 7.65039 6.59766V5.54883H7.10059Z" fill="currentColor"/>
</svg>
