<svg width="24" height="24" viewBox="0 0 24 24" fill="none" xmlns="http://www.w3.org/2000/svg">
<path d="M16.8691 6.06928C17.1619 5.77642 17.6367 5.77648 17.9296 6.06928C18.2224 6.36219 18.2225 6.83699 17.9296 7.12983L13.0595 11.999L17.9296 16.8691C18.2224 17.162 18.2225 17.6368 17.9296 17.9296C17.6368 18.2225 17.162 18.2224 16.8691 17.9296L11.999 13.0595L7.12983 17.9296C6.83699 18.2225 6.36219 18.2224 6.06928 17.9296C5.77648 17.6367 5.77642 17.1619 6.06928 16.8691L10.9384 11.999L6.06928 7.12983C5.77639 6.83693 5.77639 6.36217 6.06928 6.06928C6.36217 5.77639 6.83693 5.77639 7.12983 6.06928L11.999 10.9384L16.8691 6.06928Z" fill="currentColor"/>
</svg>
