<svg width="24" height="24" viewBox="0 0 24 24" fill="none" xmlns="http://www.w3.org/2000/svg">
<path fill-rule="evenodd" clip-rule="evenodd" d="M12 2.25C12.4142 2.25 12.75 2.58579 12.75 3V4.15039H20C20.0167 4.15039 20.0333 4.15126 20.0498 4.15234C20.0666 4.15122 20.0835 4.15039 20.1006 4.15039C20.5147 4.1505 20.8506 4.48624 20.8506 4.90039V14.8008C20.8505 15.4769 20.5816 16.1254 20.1035 16.6035C19.6254 17.0816 18.9769 17.3505 18.3008 17.3506H13.0146L16.9688 20.5146C17.2919 20.7734 17.3444 21.245 17.0859 21.5684C16.8272 21.8918 16.3547 21.9443 16.0312 21.6855L12 18.46L7.96875 21.6855C7.6453 21.9443 7.17282 21.8918 6.91406 21.5684C6.65567 21.245 6.70816 20.7734 7.03125 20.5146L10.9854 17.3506H5.7002C5.02401 17.3505 4.37562 17.0816 3.89746 16.6035C3.41934 16.1254 3.15049 15.4769 3.15039 14.8008V4.90039C3.15039 4.48618 3.48618 4.15039 3.90039 4.15039C3.91713 4.15039 3.93373 4.15126 3.9502 4.15234C3.96666 4.15126 3.98326 4.15039 4 4.15039H11.25V3C11.25 2.58579 11.5858 2.25 12 2.25ZM4.65039 14.8008C4.65049 15.0791 4.76119 15.3461 4.95801 15.543C5.15487 15.7398 5.42183 15.8505 5.7002 15.8506H18.3008C18.5791 15.8505 18.8461 15.7398 19.043 15.543C19.2398 15.3461 19.3505 15.0791 19.3506 14.8008V5.65039H4.65039V14.8008Z" fill="currentColor"/>
<g opacity="0.3">
<path d="M7.65039 13L7.65039 10.2998C7.65039 9.88559 7.98618 9.5498 8.40039 9.5498C8.8146 9.5498 9.15039 9.88559 9.15039 10.2998L9.15039 13C9.15029 13.4141 8.81454 13.75 8.40039 13.75C7.98624 13.75 7.6505 13.4141 7.65039 13Z" fill="currentColor"/>
<path d="M11.25 13L11.25 8.5C11.25 8.08579 11.5858 7.75 12 7.75C12.4142 7.75 12.75 8.08579 12.75 8.5V13C12.75 13.4142 12.4142 13.75 12 13.75C11.5858 13.75 11.25 13.4142 11.25 13Z" fill="currentColor"/>
<path d="M14.8496 13.0005V12.1001C14.8496 11.6859 15.1854 11.3501 15.5996 11.3501C16.0138 11.3501 16.3496 11.6859 16.3496 12.1001V13.0005C16.3494 13.4145 16.0137 13.7505 15.5996 13.7505C15.1855 13.7505 14.8498 13.4145 14.8496 13.0005Z" fill="currentColor"/>
</g>
</svg>
