<svg width="24" height="24" viewBox="0 0 24 24" fill="none" xmlns="http://www.w3.org/2000/svg">
<path d="M21 10.7499C20.5858 10.7499 20.25 10.4141 20.25 9.99993V8.99993C20.25 7.75731 19.2426 6.74993 18 6.74993H7.81055L9.53027 8.46966C9.82313 8.76254 9.82313 9.23732 9.53027 9.5302C9.23739 9.82309 8.76262 9.82307 8.46973 9.5302L5.46973 6.5302C5.42134 6.48182 5.38396 6.42672 5.35156 6.37005C5.33604 6.3429 5.31971 6.31618 5.30762 6.28704C5.2869 6.23704 5.27212 6.18534 5.2627 6.13274C5.25498 6.0896 5.25 6.04529 5.25 5.99993C5.25 5.95521 5.25519 5.91163 5.2627 5.86907C5.27205 5.81611 5.28683 5.76414 5.30762 5.7138C5.31969 5.68463 5.33606 5.65797 5.35156 5.63079C5.38403 5.57384 5.42113 5.51825 5.46973 5.46966L8.46973 2.46966C8.76262 2.17679 9.23739 2.17677 9.53027 2.46966C9.82313 2.76254 9.82313 3.23732 9.53027 3.5302L7.81055 5.24993H18C20.071 5.24993 21.75 6.92889 21.75 8.99993V9.99993C21.75 10.4141 21.4142 10.7499 21 10.7499Z" fill="currentColor"/>
<path d="M15.5303 20.5302C15.2374 20.8231 14.7626 20.8231 14.4697 20.5302C14.1769 20.2373 14.1769 19.7625 14.4697 19.4697L16.1895 17.7499H6C3.92893 17.7499 2.25 16.071 2.25 13.9999V12.9999C2.25003 12.5857 2.58581 12.2499 3 12.2499C3.41419 12.2499 3.74997 12.5857 3.75 12.9999V13.9999C3.75 15.2426 4.75736 16.2499 6 16.2499H16.1895L14.4697 14.5302C14.1769 14.2373 14.1769 13.7625 14.4697 13.4697C14.7626 13.1768 15.2374 13.1769 15.5303 13.4697L18.5303 16.4697C18.5623 16.5016 18.5902 16.5363 18.6152 16.5722C18.646 16.6163 18.6726 16.6635 18.6934 16.7138C18.7141 16.7641 18.7289 16.8162 18.7383 16.8691C18.7458 16.9116 18.75 16.9553 18.75 16.9999C18.75 17.0452 18.746 17.0897 18.7383 17.1327C18.7292 17.1836 18.7149 17.2337 18.6953 17.2822L18.6914 17.2919C18.6783 17.3229 18.6605 17.3512 18.6436 17.3798C18.6121 17.433 18.576 17.4845 18.5303 17.5302L15.5303 20.5302Z" fill="currentColor"/>
</svg>
