<svg width="24" height="24" viewBox="0 0 24 24" fill="none" xmlns="http://www.w3.org/2000/svg">
<path d="M11.9004 2C17.3678 2.00021 21.7998 6.4329 21.7998 11.9004C21.7998 17.3679 17.3678 21.8006 11.9004 21.8008C6.43278 21.8008 2.00001 17.368 2 11.9004C2 6.43277 6.43277 2 11.9004 2ZM16.5859 8.56445C16.2345 8.21298 15.6649 8.21298 15.3135 8.56445L10.5498 13.3271L8.48633 11.2637C8.13494 10.9125 7.5653 10.9125 7.21387 11.2637C6.8624 11.6151 6.8624 12.1856 7.21387 12.5371L9.91406 15.2363C10.2655 15.5878 10.8351 15.5878 11.1865 15.2363L16.5859 9.83691C16.9374 9.48545 16.9374 8.91593 16.5859 8.56445Z" fill="currentColor"/>
</svg>
