<svg width="24" height="24" viewBox="0 0 24 24" fill="none" xmlns="http://www.w3.org/2000/svg">
<path d="M13.605 3.12641C13.7127 2.72662 14.1251 2.48863 14.525 2.59614C17.7738 3.46975 20.4842 6.00611 21.4185 9.49263C22.812 14.6937 19.725 20.0393 14.524 21.4331C9.3228 22.8266 3.97631 19.7407 2.58259 14.5395C1.18911 9.33837 4.27606 3.99186 9.47712 2.59809C9.87705 2.49108 10.2888 2.72852 10.3961 3.12837C10.5032 3.52833 10.2657 3.93997 9.86579 4.04731C5.46485 5.22654 2.85285 9.74989 4.03181 14.1508C5.21108 18.5519 9.7352 21.1641 14.1363 19.9848C18.5372 18.8054 21.1485 14.2813 19.9693 9.88032C19.1791 6.93205 16.8882 4.78564 14.1353 4.04536C13.7355 3.93786 13.4978 3.52628 13.605 3.12641Z" fill="currentColor"/>
</svg>
