<svg width="24" height="24" viewBox="0 0 24 24" fill="none" xmlns="http://www.w3.org/2000/svg">
<path d="M20.0713 12.001C20.0713 7.54367 16.4582 3.9299 12.001 3.92969C7.54354 3.92969 3.92969 7.54354 3.92969 12.001C3.9299 16.4582 7.54367 20.0713 12.001 20.0713C16.4581 20.0711 20.0711 16.4581 20.0713 12.001ZM11.25 6.70801C11.25 6.29392 11.586 5.95822 12 5.95801C12.4142 5.95801 12.75 6.29379 12.75 6.70801V11.5361L15.8643 13.0938C16.2346 13.279 16.3844 13.7292 16.1992 14.0996C16.014 14.47 15.5638 14.6207 15.1934 14.4355L11.665 12.6709C11.411 12.5439 11.25 12.2841 11.25 12V6.70801ZM21.5713 12.001C21.5711 17.2865 17.2865 21.5711 12.001 21.5713C6.71524 21.5713 2.4299 17.2867 2.42969 12.001C2.42969 6.71511 6.71511 2.42969 12.001 2.42969C17.2867 2.4299 21.5713 6.71524 21.5713 12.001Z" fill="currentColor"/>
</svg>
