<svg width="24" height="24" viewBox="0 0 24 24" fill="none" xmlns="http://www.w3.org/2000/svg">
<path fill-rule="evenodd" clip-rule="evenodd" d="M17.3994 3.15039C19.3047 3.1505 20.8496 4.69527 20.8496 6.60059C20.8495 8.25787 19.6803 9.64125 18.1221 9.97363C17.9618 12.0742 17.0587 14.0575 15.5586 15.5576C14.0585 17.0577 12.0752 17.9608 9.97461 18.1211C9.64301 19.6804 8.2586 20.8505 6.60059 20.8506C4.69527 20.8506 3.1505 19.3057 3.15039 17.4004C3.15039 15.753 4.30541 14.3761 5.84961 14.0332V3.90039C5.84961 3.48618 6.1854 3.15039 6.59961 3.15039C7.01382 3.15039 7.34961 3.48618 7.34961 3.90039V14.0322C8.64242 14.3185 9.66116 15.3301 9.95996 16.6182C11.6676 16.4645 13.2759 15.7192 14.498 14.4971C15.7197 13.2754 16.4651 11.6678 16.6191 9.96094C15.0897 9.60715 13.9493 8.23744 13.9492 6.60059C13.9492 4.6952 15.494 3.15039 17.3994 3.15039ZM6.60059 15.4502C5.52363 15.4502 4.65039 16.3234 4.65039 17.4004C4.6505 18.4773 5.5237 19.3506 6.60059 19.3506C7.67739 19.3505 8.55068 18.4772 8.55078 17.4004C8.55078 16.3235 7.67745 15.4503 6.60059 15.4502ZM17.3994 4.65039C16.3225 4.65039 15.4492 5.52363 15.4492 6.60059C15.4493 7.67419 16.3173 8.54454 17.3896 8.5498H17.4092C18.4815 8.54444 19.3495 7.67413 19.3496 6.60059C19.3496 5.5237 18.4763 4.6505 17.3994 4.65039Z" fill="currentColor"/>
</svg>
