<svg width="24" height="24" viewBox="0 0 24 24" fill="none" xmlns="http://www.w3.org/2000/svg">
<path d="M13.0673 3.73766C13.1573 3.33368 13.5577 3.07872 13.9618 3.16832C14.3662 3.25817 14.621 3.65948 14.5311 4.06383L10.9315 20.263C10.8417 20.6674 10.4404 20.9232 10.036 20.8334C9.632 20.7433 9.37688 20.342 9.46669 19.9379L13.0673 3.73766Z" fill="currentColor"/>
<path d="M6.96962 6.97008C7.26252 6.67718 7.73728 6.67718 8.03017 6.97008C8.32277 7.26299 8.32296 7.73783 8.03017 8.03062L4.06044 12.0003L8.03017 15.9701C8.32277 16.263 8.32296 16.7378 8.03017 17.0306C7.73737 17.3233 7.26251 17.3232 6.96962 17.0306L2.46962 12.5306C2.17676 12.2378 2.17682 11.763 2.46962 11.4701L6.96962 6.97008Z" fill="currentColor"/>
<path d="M15.9696 6.97008C16.2625 6.67718 16.7373 6.67718 17.0302 6.97008L21.5302 11.4701C21.8228 11.763 21.823 12.2378 21.5302 12.5306L17.0302 17.0306C16.7374 17.3233 16.2625 17.3232 15.9696 17.0306C15.6768 16.7378 15.6768 16.263 15.9696 15.9701L19.9393 12.0003L15.9696 8.03062C15.6768 7.73776 15.6768 7.26298 15.9696 6.97008Z" fill="currentColor"/>
</svg>
