<svg width="24" height="24" viewBox="0 0 24 24" fill="none" xmlns="http://www.w3.org/2000/svg">
<path d="M5.2002 14.8496C5.74787 14.8496 6.20407 14.8486 6.5752 14.8789C6.95493 14.9099 7.3113 14.9777 7.64844 15.1494C8.16588 15.4131 8.58693 15.8341 8.85059 16.3516C9.0223 16.6887 9.09006 17.0451 9.12109 17.4248C9.13625 17.6103 9.14284 17.8172 9.14648 18.0459L9.15039 18.7998V20.0996C9.15039 20.5138 8.8146 20.8496 8.40039 20.8496C7.98618 20.8496 7.65039 20.5138 7.65039 20.0996V18.7998L7.64746 18.0693C7.64429 17.8649 7.63806 17.6947 7.62598 17.5469C7.60251 17.2599 7.5598 17.1228 7.51367 17.0322C7.39385 16.7971 7.20289 16.6062 6.96777 16.4863C6.87723 16.4402 6.74012 16.3975 6.45312 16.374C6.15725 16.3498 5.77262 16.3496 5.2002 16.3496H3.90039C3.48618 16.3496 3.15039 16.0138 3.15039 15.5996C3.15039 15.1854 3.48618 14.8496 3.90039 14.8496H5.2002Z" fill="currentColor"/>
<path d="M20.0996 14.8496C20.5138 14.8496 20.8496 15.1854 20.8496 15.5996C20.8496 16.0138 20.5138 16.3496 20.0996 16.3496H18.7998C18.2274 16.3496 17.8428 16.3498 17.5469 16.374C17.2599 16.3975 17.1228 16.4402 17.0322 16.4863C16.7971 16.6062 16.6062 16.7971 16.4863 17.0322C16.4402 17.1228 16.3975 17.2599 16.374 17.5469C16.3498 17.8428 16.3496 18.2274 16.3496 18.7998V20.0996C16.3496 20.5138 16.0138 20.8496 15.5996 20.8496C15.1854 20.8496 14.8496 20.5138 14.8496 20.0996V18.7998C14.8496 18.2521 14.8486 17.7959 14.8789 17.4248C14.9099 17.0451 14.9777 16.6887 15.1494 16.3516C15.4131 15.8341 15.8341 15.4131 16.3516 15.1494C16.6887 14.9777 17.0451 14.9099 17.4248 14.8789C17.7959 14.8486 18.2521 14.8496 18.7998 14.8496H20.0996Z" fill="currentColor"/>
<path d="M8.40039 3.15039C8.78856 3.15039 9.10786 3.44527 9.14648 3.82324L9.15039 3.90039V5.2002C9.15039 5.74787 9.15142 6.20407 9.12109 6.5752C9.09006 6.95493 9.0223 7.3113 8.85059 7.64844C8.58693 8.16588 8.16588 8.58693 7.64844 8.85059C7.3113 9.0223 6.95493 9.09006 6.5752 9.12109C6.20407 9.15142 5.74787 9.15039 5.2002 9.15039H3.90039L3.82324 9.14648C3.44527 9.10786 3.15039 8.78856 3.15039 8.40039C3.15039 8.01222 3.44527 7.69292 3.82324 7.6543L3.90039 7.65039H5.2002C5.77262 7.65039 6.15725 7.65015 6.45312 7.62598C6.74012 7.60251 6.87723 7.5598 6.96777 7.51367C7.20289 7.39385 7.39385 7.20289 7.51367 6.96777C7.5598 6.87723 7.60251 6.74012 7.62598 6.45312C7.65015 6.15725 7.65039 5.77262 7.65039 5.2002V3.90039L7.6543 3.82324C7.69292 3.44527 8.01222 3.15039 8.40039 3.15039Z" fill="currentColor"/>
<path d="M15.5996 3.15039C16.0138 3.15039 16.3496 3.48618 16.3496 3.90039V5.2002C16.3496 5.77262 16.3498 6.15725 16.374 6.45312C16.3975 6.74012 16.4402 6.87723 16.4863 6.96777C16.6062 7.20289 16.7971 7.39385 17.0322 7.51367C17.1228 7.5598 17.2599 7.60251 17.5469 7.62598C17.8428 7.65015 18.2274 7.65039 18.7998 7.65039H20.0996C20.5138 7.65039 20.8496 7.98618 20.8496 8.40039C20.8496 8.8146 20.5138 9.15039 20.0996 9.15039H18.7998C18.2521 9.15039 17.7959 9.15142 17.4248 9.12109C17.0451 9.09006 16.6887 9.0223 16.3516 8.85059C15.8341 8.58693 15.4131 8.16588 15.1494 7.64844C14.9777 7.3113 14.9099 6.95493 14.8789 6.5752C14.8486 6.20407 14.8496 5.74787 14.8496 5.2002V3.90039C14.8496 3.48618 15.1854 3.15039 15.5996 3.15039Z" fill="currentColor"/>
</svg>
