<svg width="24" height="24" viewBox="0 0 24 24" fill="none" xmlns="http://www.w3.org/2000/svg">
<path d="M10.5693 6.96967C10.8622 6.67678 11.3369 6.67678 11.6298 6.96967C11.9226 7.26257 11.9227 7.73736 11.6298 8.03022L7.6601 11.9999L11.6298 15.9697C11.9226 16.2626 11.9227 16.7374 11.6298 17.0302C11.337 17.3231 10.8622 17.323 10.5693 17.0302L6.06928 12.5302C5.77639 12.2373 5.77639 11.7626 6.06928 11.4697L10.5693 6.96967Z" fill="currentColor"/>
<path d="M16.8701 6.96967C17.163 6.67678 17.6377 6.67678 17.9306 6.96967C18.2234 7.26257 18.2235 7.73736 17.9306 8.03022L13.9609 11.9999L17.9306 15.9697C18.2234 16.2626 18.2235 16.7374 17.9306 17.0302C17.6378 17.3231 17.163 17.323 16.8701 17.0302L12.3701 12.5302C12.0772 12.2373 12.0772 11.7626 12.3701 11.4697L16.8701 6.96967Z" fill="currentColor"/>
</svg>
