<svg width="24" height="24" viewBox="0 0 24 24" fill="none" xmlns="http://www.w3.org/2000/svg">
<path d="M10.2011 13.0507C10.2468 13.0507 10.2914 13.0555 10.3349 13.0634C10.3384 13.064 10.3421 13.0637 10.3456 13.0643C10.3746 13.07 10.4019 13.0808 10.4296 13.0897C10.4477 13.0956 10.4666 13.0991 10.4843 13.1063C10.5182 13.1202 10.5497 13.1386 10.5809 13.1571C10.5921 13.1637 10.6043 13.1685 10.6151 13.1757C10.6206 13.1793 10.6254 13.1837 10.6308 13.1874C10.6614 13.209 10.6908 13.2329 10.7186 13.2597C10.726 13.2667 10.7331 13.2738 10.7401 13.2811C10.7666 13.3086 10.79 13.3378 10.8114 13.3681C10.8984 13.4905 10.9511 13.6391 10.9511 13.8007V19.2011C10.9508 19.6149 10.6149 19.9508 10.2011 19.9511C9.78702 19.9511 9.45133 19.6151 9.45107 19.2011V15.6102L4.43056 20.6308C4.13774 20.9236 3.66292 20.9234 3.37001 20.6308C3.07722 20.3379 3.07715 19.8631 3.37001 19.5702L8.38954 14.5507H4.80068C4.3865 14.5507 4.05073 14.2148 4.05068 13.8007C4.05068 13.3865 4.38646 13.0507 4.80068 13.0507H10.2011Z" fill="currentColor"/>
<path d="M19.5702 3.37001C19.8631 3.07715 20.3379 3.07722 20.6308 3.37001C20.9234 3.66292 20.9236 4.13774 20.6308 4.43056L15.6102 9.45107H19.2011C19.6151 9.45133 19.9511 9.78702 19.9511 10.2011C19.9508 10.6149 19.6149 10.9508 19.2011 10.9511H13.8007C13.6391 10.9511 13.4905 10.8984 13.3681 10.8114C13.3378 10.79 13.3086 10.7666 13.2811 10.7401C13.2738 10.7331 13.2667 10.726 13.2597 10.7186C13.2329 10.6908 13.209 10.6614 13.1874 10.6308C13.1837 10.6254 13.1793 10.6206 13.1757 10.6151C13.1685 10.6043 13.1637 10.5921 13.1571 10.5809C13.1386 10.5497 13.1202 10.5182 13.1063 10.4843C13.0991 10.4666 13.0956 10.4477 13.0897 10.4296C13.0665 10.3572 13.0507 10.2811 13.0507 10.2011V4.80068C13.0507 4.38646 13.3865 4.05068 13.8007 4.05068C14.2148 4.05073 14.5507 4.3865 14.5507 4.80068V8.38954L19.5702 3.37001Z" fill="currentColor"/>
</svg>
