<svg width="64" height="64" viewBox="0 0 64 64" fill="none" xmlns="http://www.w3.org/2000/svg">
<path d="M20.9854 21.8184L13.9189 14.752C9.72852 19.1445 7.11816 25.0566 7.01074 31.584H17.0059C17.1084 27.8164 18.5996 24.3984 20.9854 21.8184Z" fill="#009587"/>
<path d="M17.0059 31.584H7.01074L7.00781 31.6895L7 32C7 39.0117 9.88965 45.3418 14.5381 49.8789L21.6045 42.8145C18.7666 40.0859 17 36.248 17 32C17 31.8613 17.002 31.7227 17.0059 31.584Z" fill="#03A8F3"/>
<path d="M21.6035 42.8125L14.5381 49.8789C18.998 54.2344 25.0781 56.9395 31.792 56.9941V46.998C27.8379 46.9434 24.2529 45.3613 21.6035 42.8125Z" fill="#3F51B4"/>
<path d="M31.792 46.998V56.9961L32 57C38.6914 57 44.7646 54.3652 49.251 50.084L42.1816 43.0156C39.5068 45.4883 35.9307 47 32 47C31.9307 47 31.8613 46.998 31.792 46.998Z" fill="#7B1FA1"/>
<path d="M42.1826 43.0156C45.1455 40.2754 47 36.3535 47 32C47 31.8613 46.998 31.7227 46.9941 31.584H56.9902L56.9951 31.7656L57.001 32C57.001 39.1152 54.0225 45.5312 49.252 50.084L42.1826 43.0156Z" fill="#F34336"/>
<path d="M46.9941 31.584H56.9893C56.8799 24.9531 54.1865 18.9531 49.877 14.5391L42.8135 21.6035C45.3174 24.207 46.8887 27.7129 46.9941 31.584Z" fill="#FE9700"/>
<path d="M31.792 7.00586L32 7C39.0107 7 45.3398 9.89062 49.8779 14.5391L42.8135 21.6035C40.084 18.7656 36.248 17 32 17C31.9307 17 31.8613 17.002 31.792 17.002V7.00586Z" fill="#FEEA3B"/>
<path d="M20.9844 21.8184C23.6807 18.9023 27.5205 17.0605 31.792 17.002V7.00586C24.7588 7.06445 18.4258 10.0293 13.9189 14.752L20.9844 21.8184Z" fill="#8AC24A"/>
</svg>
