<svg width="24" height="24" viewBox="0 0 24 24" fill="none" xmlns="http://www.w3.org/2000/svg">
<path fill-rule="evenodd" clip-rule="evenodd" d="M2.55951 2.55951C2.85241 2.26662 3.32717 2.26662 3.62006 2.55951L8.55072 7.49018V4.65033H7.95014C7.53603 4.65023 7.20017 4.31446 7.20014 3.90033C7.20014 3.48619 7.53602 3.15044 7.95014 3.15033H16.9003C17.448 3.15033 17.9042 3.14931 18.2753 3.17963C18.655 3.21068 19.0115 3.27841 19.3486 3.45014C19.866 3.71379 20.2871 4.13486 20.5507 4.65229C20.7224 4.98937 20.7892 5.34587 20.8203 5.72553C20.8506 6.09665 20.8505 6.55288 20.8505 7.10053V16.0507C20.8503 16.4647 20.5145 16.8006 20.1005 16.8007C19.6865 16.8007 19.3508 16.4647 19.3505 16.0507V7.10053C19.3505 6.52814 19.3493 6.14347 19.3251 5.8476C19.3017 5.56071 19.2599 5.42349 19.2138 5.33295C19.094 5.09787 18.903 4.9069 18.6679 4.78705C18.5774 4.74093 18.4401 4.69821 18.1533 4.67475C17.8574 4.65057 17.4727 4.65033 16.9003 4.65033H10.0507V8.99018L21.4404 20.3798C21.7328 20.6728 21.7331 21.1476 21.4404 21.4404C21.1476 21.7331 20.6728 21.7328 20.3798 21.4404L19.79 20.8505H7.10053C6.55288 20.8505 6.09665 20.8506 5.72553 20.8203C5.34587 20.7892 4.98937 20.7224 4.65229 20.5507C4.13486 20.2871 3.71379 19.866 3.45014 19.3486C3.27841 19.0115 3.21068 18.655 3.17963 18.2753C3.14931 17.9042 3.15033 17.448 3.15033 16.9003V4.21088L2.55951 3.62006C2.26662 3.32717 2.26662 2.85241 2.55951 2.55951ZM10.0507 19.3505H18.29L10.0507 11.1113V19.3505ZM5.68256 19.3066C5.73138 19.3132 5.786 19.3201 5.8476 19.3251C6.14347 19.3493 6.52814 19.3505 7.10053 19.3505H8.55072V16.1201L5.68256 19.3066ZM4.65033 15.6298V16.9003C4.65033 17.4727 4.65057 17.8574 4.67475 18.1533C4.67551 18.1626 4.67688 18.1716 4.67768 18.1806L8.44233 13.998C8.47581 13.9608 8.51212 13.9273 8.55072 13.8984V10.9501L4.65033 15.6298ZM4.65033 10.6298V13.2861L8.09369 9.15424L6.88569 7.94623L4.65033 10.6298ZM4.65033 8.28608L5.82026 6.8808L4.65033 5.71088V8.28608Z" fill="currentColor"/>
</svg>
