<svg width="64" height="64" viewBox="0 0 64 64" fill="none" xmlns="http://www.w3.org/2000/svg">
<path fill-rule="evenodd" clip-rule="evenodd" d="M16 12C15.1159 12 14.2681 12.3512 13.643 12.9763C13.0179 13.6014 12.6667 14.4493 12.6667 15.3333V31.3333C12.6667 32.4379 11.7712 33.3333 10.6667 33.3333C9.5621 33.3333 8.66667 32.4379 8.66667 31.3333V15.3333C8.66667 13.3884 9.43928 11.5232 10.8146 10.1479C12.1898 8.77262 14.0551 8 16 8H48C49.9449 8 51.8102 8.77262 53.1855 10.1479C54.5607 11.5231 55.3333 13.3884 55.3333 15.3333V31.3333C55.3333 32.4379 54.4379 33.3333 53.3333 33.3333C52.2288 33.3333 51.3333 32.4379 51.3333 31.3333V15.3333C51.3333 14.4493 50.9821 13.6014 50.357 12.9763C49.7319 12.3512 48.8841 12 48 12H16ZM17.4142 37.9191C18.1953 38.7002 18.1953 39.9665 17.4142 40.7475L12.8284 45.3333H26.6667C27.7712 45.3333 28.6667 46.2288 28.6667 47.3333C28.6667 48.4379 27.7712 49.3333 26.6667 49.3333H12.8284L17.4142 53.9191C18.1953 54.7002 18.1953 55.9665 17.4142 56.7475C16.6332 57.5286 15.3668 57.5286 14.5858 56.7475L6.58579 48.7475C5.80474 47.9665 5.80474 46.7002 6.58579 45.9191L14.5858 37.9191C15.3668 37.1381 16.6332 37.1381 17.4142 37.9191ZM46.5858 40.7475C45.8047 39.9665 45.8047 38.7002 46.5858 37.9191C47.3668 37.1381 48.6332 37.1381 49.4142 37.9191L57.4142 45.9191C58.1953 46.7002 58.1953 47.9665 57.4142 48.7475L49.4142 56.7475C48.6332 57.5286 47.3668 57.5286 46.5858 56.7475C45.8047 55.9665 45.8047 54.7002 46.5858 53.9191L51.1716 49.3333H37.3333C36.2288 49.3333 35.3333 48.4379 35.3333 47.3333C35.3333 46.2288 36.2288 45.3333 37.3333 45.3333H51.1716L46.5858 40.7475Z" fill="currentColor"/>
</svg>
