<svg width="24" height="24" viewBox="0 0 24 24" fill="none" xmlns="http://www.w3.org/2000/svg">
<path d="M15.3018 11.9512C15.5797 11.6919 16.0144 11.6799 16.3066 11.9355C16.5987 12.1912 16.6447 12.6238 16.4248 12.9336L16.377 12.9941L16.375 12.9961L16.373 12.999C16.3713 13.001 16.3687 13.0031 16.3662 13.0059C16.3612 13.0114 16.3546 13.0188 16.3467 13.0273C16.3309 13.0444 16.3093 13.0671 16.2822 13.0947C16.2279 13.1502 16.1507 13.2259 16.0518 13.3145C15.8543 13.491 15.5672 13.7225 15.1973 13.9531C14.4578 14.4141 13.3682 14.8838 12.001 14.8838C10.6338 14.8838 9.54415 14.4141 8.80469 13.9531C8.43479 13.7225 8.1476 13.491 7.9502 13.3145C7.85126 13.226 7.77403 13.1502 7.71973 13.0947C7.69268 13.0671 7.67103 13.0444 7.65528 13.0273C7.64741 13.0188 7.64075 13.0114 7.63574 13.0059C7.63328 13.0031 7.63067 13.001 7.62891 12.999L7.62696 12.9961L7.625 12.9941C7.35236 12.6825 7.38375 12.2083 7.69531 11.9355C8.00697 11.6629 8.48112 11.6943 8.75391 12.0059L8.75684 12.0098C8.76315 12.0166 8.77454 12.0291 8.79102 12.0459C8.82416 12.0798 8.87801 12.1317 8.9502 12.1963C9.09513 12.3259 9.31391 12.5032 9.59863 12.6807C10.1693 13.0364 10.9862 13.3838 12.001 13.3838C13.0158 13.3838 13.8326 13.0364 14.4033 12.6807C14.6881 12.5031 14.9068 12.3259 15.0518 12.1963C15.124 12.1317 15.1778 12.0798 15.2109 12.0459C15.2275 12.029 15.2388 12.0166 15.2451 12.0098L15.248 12.0059L15.3018 11.9512Z" fill="currentColor"/>
<path d="M9.13574 5.7666C9.78854 5.83286 10.2979 6.38441 10.2979 7.05469C10.2976 7.76929 9.71851 8.34841 9.00391 8.34863C8.33363 8.34863 7.78208 7.83932 7.71582 7.18653L7.70899 7.05469L7.71582 6.92188C7.78214 6.26914 8.33368 5.75977 9.00391 5.75977L9.13574 5.7666Z" fill="currentColor"/>
<path d="M15.1279 5.7666C15.7807 5.83286 16.29 6.38441 16.29 7.05469C16.2898 7.76929 15.7107 8.34841 14.9961 8.34863C14.3258 8.34863 13.7743 7.83932 13.708 7.18653L13.7012 7.05469L13.708 6.92188C13.7743 6.26914 14.3259 5.75977 14.9961 5.75977L15.1279 5.7666Z" fill="currentColor"/>
<path fill-rule="evenodd" clip-rule="evenodd" d="M18.2813 1.4043C18.8848 1.4043 19.3827 1.40349 19.7871 1.43653C20.2003 1.47028 20.5818 1.5429 20.9404 1.72559C21.4954 2.00835 21.9467 2.45975 22.2295 3.01465C22.4122 3.37321 22.4848 3.75486 22.5186 4.16797C22.5516 4.57234 22.5508 5.07036 22.5508 5.67383V14.9697C22.5508 15.5732 22.5516 16.0712 22.5186 16.4756C22.4848 16.8887 22.4122 17.2703 22.2295 17.6289C21.9467 18.1838 21.4954 18.6352 20.9404 18.918C20.5818 19.1007 20.2003 19.1733 19.7871 19.207C19.3827 19.2401 18.8848 19.2393 18.2813 19.2393H13.3584C12.8253 19.2393 12.6625 19.2429 12.5137 19.2734C12.3663 19.3037 12.2229 19.3534 12.0889 19.4219C11.9536 19.491 11.8245 19.5908 11.4082 19.9238L8.45313 22.2871C8.23603 22.4608 8.03305 22.6244 7.85938 22.7393C7.69722 22.8464 7.43467 23.0006 7.10645 23.001C6.71061 23.0014 6.33582 22.8211 6.08887 22.5117C5.88434 22.2553 5.84084 21.9543 5.82324 21.7607C5.80441 21.5534 5.80567 21.2926 5.80567 21.0147V19.2393H5.71875C5.11528 19.2393 4.61727 19.2401 4.21289 19.207C3.79977 19.1733 3.41814 19.1007 3.05957 18.918C2.50465 18.6352 2.0533 18.1838 1.77051 17.6289C1.5878 17.2703 1.51522 16.8887 1.48145 16.4756C1.44841 16.0712 1.44922 15.5732 1.44922 14.9697V5.67383C1.44922 5.07036 1.44841 4.57234 1.48145 4.16797C1.51522 3.75484 1.58781 3.37322 1.77051 3.01465C2.05331 2.45973 2.50465 2.00839 3.05957 1.72559C3.41814 1.54289 3.79977 1.4703 4.21289 1.43653C4.61727 1.40349 5.11528 1.4043 5.71875 1.4043H18.2813ZM5.71875 2.9043C5.09058 2.9043 4.66411 2.90475 4.33496 2.93164C4.01488 2.95782 3.85312 3.00552 3.74121 3.0625C3.46838 3.20152 3.24644 3.42346 3.10742 3.69629C3.05044 3.80819 3.00274 3.96996 2.97656 4.29004C2.94967 4.61919 2.94922 5.04566 2.94922 5.67383V14.9697C2.94922 15.5979 2.94967 16.0244 2.97656 16.3535C3.00274 16.6736 3.05044 16.8354 3.10742 16.9473C3.24644 17.2201 3.46838 17.442 3.74121 17.5811C3.85312 17.638 4.01487 17.6857 4.33496 17.7119C4.66411 17.7388 5.09058 17.7393 5.71875 17.7393H6.55567C6.96966 17.7395 7.30564 18.0752 7.30567 18.4893V21.2822C7.36603 21.2346 7.43619 21.1805 7.5166 21.1162L10.4707 18.752C10.8403 18.4562 11.1049 18.2404 11.4072 18.0859C11.6615 17.9561 11.9323 17.8611 12.2119 17.8037C12.5445 17.7355 12.8851 17.7393 13.3584 17.7393H18.2813C18.9096 17.7393 19.3358 17.7388 19.665 17.7119C19.9855 17.6857 20.1478 17.6381 20.2598 17.5811C20.5325 17.442 20.7546 17.22 20.8936 16.9473C20.9505 16.8354 20.9973 16.6734 21.0234 16.3535C21.0503 16.0244 21.0508 15.5979 21.0508 14.9697V5.67383C21.0508 5.04566 21.0503 4.61919 21.0234 4.29004C20.9973 3.97019 20.9505 3.80818 20.8936 3.69629C20.7546 3.42355 20.5325 3.20153 20.2598 3.0625C20.1478 3.00546 19.9855 2.95783 19.665 2.93164C19.3358 2.90475 18.9096 2.9043 18.2813 2.9043H5.71875Z" fill="currentColor"/>
</svg>
