<svg width="24" height="24" viewBox="0 0 24 24" fill="none" xmlns="http://www.w3.org/2000/svg">
<path fill-rule="evenodd" clip-rule="evenodd" d="M13.8536 2.25C18.2656 2.25017 21.8507 5.80501 21.8507 10.2002C21.8507 11.1912 21.6676 12.1417 21.3331 13.0186C21.3006 13.1039 21.2806 13.1562 21.2667 13.1953C21.2527 13.2346 21.2531 13.2374 21.256 13.2246C21.2543 13.232 21.2534 13.2364 21.253 13.2383V13.2539C21.2533 13.258 21.2539 13.2652 21.255 13.2764C21.2581 13.3085 21.2632 13.3514 21.2726 13.4277L21.6349 16.3711C21.6528 16.5166 21.6733 16.6753 21.6778 16.8105C21.6826 16.9509 21.6754 17.1556 21.5782 17.3682C21.4544 17.6387 21.2344 17.8541 20.961 17.9717C20.7462 18.064 20.5407 18.0656 20.4005 18.0576C20.2656 18.0499 20.1078 18.0261 19.963 18.0049L17.0958 17.585C17.0172 17.5734 16.9727 17.5664 16.9396 17.5625C16.9279 17.5611 16.9203 17.5609 16.9161 17.5605H16.9005C16.8985 17.5609 16.8935 17.5619 16.8858 17.5635C16.8991 17.5607 16.8963 17.5601 16.8556 17.5742C16.8151 17.5883 16.761 17.6086 16.673 17.6416C15.7952 17.9703 14.8444 18.1504 13.8536 18.1504C13.6578 18.1504 13.4631 18.1417 13.2706 18.1279C12.4593 20.2412 10.449 21.75 8.07432 21.75C7.43682 21.75 6.82239 21.6405 6.2501 21.4385C6.15381 21.4045 6.09188 21.3824 6.046 21.3672C6.0287 21.3615 6.01689 21.3576 6.00987 21.3555C6.00324 21.3541 5.99805 21.353 5.99522 21.3525C5.99235 21.3525 5.98776 21.3526 5.98155 21.3525C5.9772 21.3529 5.96902 21.3532 5.95713 21.3545C5.92401 21.3582 5.87963 21.3645 5.80283 21.375L3.10752 21.7432C2.86456 21.7763 2.62033 21.6882 2.4542 21.5078C2.28826 21.3274 2.22058 21.0772 2.27354 20.8379L2.82432 18.3525C2.84325 18.267 2.85339 18.2175 2.86045 18.1807C2.86298 18.1675 2.8646 18.1591 2.86534 18.1543C2.86577 18.1468 2.86621 18.1418 2.86631 18.1387C2.86591 18.1356 2.86552 18.1305 2.86436 18.123C2.86707 18.1402 2.86786 18.1367 2.85166 18.083C2.83624 18.0319 2.81362 17.9622 2.77842 17.8545C2.59288 17.2863 2.49326 16.6791 2.49326 16.0498C2.49334 13.708 3.88192 11.6808 5.87901 10.8076C5.86374 10.607 5.85557 10.4044 5.85557 10.2002C5.85557 5.80498 9.44155 2.25013 13.8536 2.25ZM8.07432 11.8496C5.83734 11.8498 3.99337 13.7132 3.99326 16.0498C3.99326 16.5194 4.06718 16.9702 4.2042 17.3896C4.26048 17.5619 4.32268 17.7433 4.3458 17.8906C4.36572 18.0176 4.3708 18.1128 4.36338 18.2412C4.35487 18.3883 4.31811 18.5416 4.28819 18.6768L3.9708 20.1104L5.59971 19.8887C5.72174 19.872 5.86028 19.8517 5.99131 19.8525C6.10638 19.8533 6.19001 19.8613 6.30283 19.8838C6.43305 19.9098 6.59545 19.9698 6.7501 20.0244C7.16446 20.1706 7.6098 20.25 8.07432 20.25C10.3115 20.25 12.1564 18.3866 12.1564 16.0498C12.1562 13.7131 10.3114 11.8496 8.07432 11.8496ZM13.8536 3.75C10.2607 3.75013 7.35557 6.64267 7.35557 10.2002C7.35557 10.2662 7.35652 10.332 7.3585 10.3975C7.59269 10.3669 7.83166 10.3496 8.07432 10.3496C11.1739 10.3496 13.6562 12.9191 13.6564 16.0498C13.6564 16.2509 13.6441 16.4496 13.6241 16.6455C13.7001 16.6481 13.777 16.6504 13.8536 16.6504C14.6621 16.6504 15.4347 16.5039 16.1466 16.2373C16.2869 16.1847 16.4403 16.1246 16.5772 16.0957C16.6925 16.0715 16.7905 16.0612 16.9083 16.0605C17.0469 16.0598 17.1891 16.0823 17.3136 16.1006L20.1407 16.5146L19.7843 13.6113C19.7694 13.4907 19.7499 13.3527 19.753 13.2188C19.7557 13.105 19.7675 13.0114 19.7921 12.9004C19.8215 12.7684 19.88 12.619 19.9317 12.4834C20.2021 11.7746 20.3507 11.0055 20.3507 10.2002C20.3507 6.64269 17.4465 3.75017 13.8536 3.75Z" fill="currentColor"/>
</svg>
