<svg width="24" height="24" viewBox="0 0 24 24" fill="none" xmlns="http://www.w3.org/2000/svg">
<path fill-rule="evenodd" clip-rule="evenodd" d="M12.001 14.1689C12.4383 14.1691 12.8577 14.3431 13.167 14.6523L15.3066 16.79C15.46 16.9432 15.5811 17.1259 15.6641 17.3262C15.747 17.5264 15.79 17.7413 15.79 17.958C15.79 18.1747 15.747 18.3897 15.6641 18.5898C15.5811 18.7899 15.4589 18.9709 15.3057 19.124L13.167 21.2637C12.8577 21.5727 12.4382 21.746 12.001 21.7461C11.5635 21.7461 11.1434 21.572 10.834 21.2627L8.69434 19.125C8.54115 18.9719 8.4199 18.7899 8.33691 18.5898C8.25393 18.3897 8.21099 18.1747 8.21094 17.958C8.21094 17.7413 8.25396 17.5264 8.33691 17.3262C8.41995 17.1259 8.5419 16.9433 8.69531 16.79L10.834 14.6523C11.1434 14.343 11.5635 14.1689 12.001 14.1689ZM11.9434 15.6807L11.8945 15.7129L9.75488 17.8516C9.74096 17.8655 9.73019 17.8822 9.72266 17.9004C9.71513 17.9186 9.71094 17.9383 9.71094 17.958C9.71099 17.9775 9.71522 17.9966 9.72266 18.0146C9.73018 18.0328 9.74101 18.0496 9.75488 18.0635L11.8945 20.2021L11.9434 20.2344C11.9614 20.2418 11.9811 20.2461 12.001 20.2461C12.0406 20.246 12.0784 20.2302 12.1064 20.2021L14.2461 18.0635L14.2783 18.0146C14.2858 17.9966 14.29 17.9775 14.29 17.958C14.29 17.9383 14.2858 17.9186 14.2783 17.9004C14.2708 17.8822 14.26 17.8655 14.2461 17.8516L12.1064 15.7129C12.0784 15.6849 12.0406 15.6691 12.001 15.6689C11.9811 15.6689 11.9614 15.6732 11.9434 15.6807Z" fill="currentColor"/>
<path fill-rule="evenodd" clip-rule="evenodd" d="M6.04297 8.21094C6.48049 8.21094 6.90054 8.38501 7.20996 8.69434L9.34863 10.833C9.65795 11.1424 9.83202 11.5625 9.83203 12C9.83203 12.4375 9.65796 12.8576 9.34863 13.167L7.20996 15.3057C6.90054 15.615 6.48049 15.7891 6.04297 15.7891C5.60546 15.7891 5.18539 15.615 4.87598 15.3057L2.7373 13.167C2.42798 12.8576 2.25391 12.4375 2.25391 12C2.25392 11.5625 2.42799 11.1424 2.7373 10.833L4.87598 8.69434C5.18539 8.38502 5.60546 8.21095 6.04297 8.21094ZM6.04297 9.71094C6.00333 9.71095 5.96462 9.72595 5.93652 9.75391L5.9375 9.75488L3.79785 11.8945C3.7699 11.9226 3.75392 11.9604 3.75391 12C3.75391 12.0398 3.76973 12.0783 3.79785 12.1064L5.9375 14.2451C5.96562 14.2732 6.00321 14.2891 6.04297 14.2891C6.08274 14.2891 6.12128 14.2732 6.14941 14.2451L8.28809 12.1064C8.31621 12.0783 8.33203 12.0398 8.33203 12C8.33202 11.9602 8.3162 11.9217 8.28809 11.8936L6.14941 9.75488C6.12128 9.72676 6.08274 9.71094 6.04297 9.71094Z" fill="currentColor"/>
<path fill-rule="evenodd" clip-rule="evenodd" d="M17.958 8.21094C18.3955 8.21094 18.8156 8.38501 19.125 8.69434L21.2637 10.833C21.573 11.1424 21.7471 11.5625 21.7471 12C21.7471 12.4375 21.573 12.8576 21.2637 13.167L19.125 15.3057C18.8156 15.615 18.3955 15.7891 17.958 15.7891C17.5205 15.789 17.1014 15.615 16.792 15.3057L14.6533 13.167C14.344 12.8576 14.1699 12.4375 14.1699 12C14.1699 11.5625 14.344 11.1424 14.6533 10.833L16.791 8.69434C17.1004 8.38507 17.5206 8.21097 17.958 8.21094ZM17.958 9.71094C17.9184 9.71097 17.8806 9.72692 17.8525 9.75488L15.7139 11.8936C15.6858 11.9217 15.6699 11.9602 15.6699 12C15.6699 12.0398 15.6857 12.0783 15.7139 12.1064L17.8525 14.2451C17.8806 14.2731 17.9184 14.289 17.958 14.2891C17.9978 14.2891 18.0363 14.2732 18.0645 14.2451L20.2031 12.1064C20.2312 12.0783 20.2471 12.0398 20.2471 12C20.2471 11.9602 20.2312 11.9217 20.2031 11.8936L18.0645 9.75488C18.0363 9.72676 17.9978 9.71094 17.958 9.71094Z" fill="currentColor"/>
<path fill-rule="evenodd" clip-rule="evenodd" d="M12 2.25391C12.4375 2.25391 12.8576 2.42798 13.167 2.7373L15.3057 4.87598C15.615 5.18539 15.7891 5.60546 15.7891 6.04297C15.7891 6.48049 15.615 6.90054 15.3057 7.20996L13.167 9.34863C12.8576 9.65793 12.4375 9.83105 12 9.83105C11.5627 9.83104 11.1433 9.65764 10.834 9.34863L8.69434 7.20996C8.38501 6.90054 8.21094 6.48049 8.21094 6.04297C8.21095 5.60546 8.38502 5.18539 8.69434 4.87598L10.833 2.7373C11.1424 2.42799 11.5625 2.25392 12 2.25391ZM12 3.75391C11.9604 3.75392 11.9216 3.76892 11.8936 3.79688L11.8945 3.79785L9.75488 5.9375C9.72693 5.96559 9.71095 6.00333 9.71094 6.04297C9.71094 6.08237 9.72628 6.12039 9.75391 6.14844L11.8936 8.28711C11.9217 8.31522 11.9602 8.33104 12 8.33105C12.0398 8.33105 12.0783 8.31523 12.1064 8.28711L14.2451 6.14844C14.2731 6.12033 14.2891 6.08262 14.2891 6.04297C14.2891 6.00321 14.2732 5.96464 14.2451 5.93652L12.1064 3.79785C12.0783 3.76973 12.0398 3.75391 12 3.75391Z" fill="currentColor"/>
</svg>
