<svg width="24" height="24" viewBox="0 0 24 24" fill="none" xmlns="http://www.w3.org/2000/svg">
<path d="M10 3.25C10.4142 3.25 10.75 3.58579 10.75 4V20C10.75 20.4142 10.4142 20.75 10 20.75C9.58579 20.75 9.25 20.4142 9.25 20V19.75H6.2002C5.65252 19.75 5.19632 19.751 4.8252 19.7207C4.44546 19.6897 4.08909 19.6219 3.75195 19.4502C3.23451 19.1865 2.81346 18.7655 2.5498 18.248C2.37809 17.9109 2.31033 17.5545 2.2793 17.1748C2.24897 16.8037 2.25 16.3475 2.25 15.7998V8.2002C2.25 7.65252 2.24897 7.19632 2.2793 6.8252C2.31033 6.44546 2.37809 6.08909 2.5498 5.75195C2.81346 5.23451 3.23451 4.81346 3.75195 4.5498C4.08909 4.37809 4.44546 4.31033 4.8252 4.2793C5.19632 4.24897 5.65252 4.25 6.2002 4.25H9.25V4C9.25 3.58579 9.58579 3.25 10 3.25ZM17.7998 4.25C18.3475 4.25 18.8037 4.24897 19.1748 4.2793C19.5545 4.31033 19.9109 4.37809 20.248 4.5498C20.7655 4.81346 21.1865 5.23451 21.4502 5.75195C21.6219 6.08909 21.6897 6.44546 21.7207 6.8252C21.751 7.19632 21.75 7.65252 21.75 8.2002V15.7998C21.75 16.3475 21.751 16.8037 21.7207 17.1748C21.6897 17.5545 21.6219 17.9109 21.4502 18.248C21.1865 18.7655 20.7655 19.1865 20.248 19.4502C19.9109 19.6219 19.5545 19.6897 19.1748 19.7207C18.8037 19.751 18.3475 19.75 17.7998 19.75H14C13.5858 19.75 13.25 19.4142 13.25 19C13.25 18.5858 13.5858 18.25 14 18.25H17.7998C18.3722 18.25 18.7569 18.2498 19.0527 18.2256C19.3397 18.2021 19.4768 18.1594 19.5674 18.1133C19.8025 17.9935 19.9935 17.8025 20.1133 17.5674C20.1594 17.4768 20.2021 17.3397 20.2256 17.0527C20.2498 16.7569 20.25 16.3722 20.25 15.7998V8.2002C20.25 7.62777 20.2498 7.24314 20.2256 6.94727C20.2021 6.66027 20.1594 6.52316 20.1133 6.43262C19.9935 6.1975 19.8025 6.00654 19.5674 5.88672C19.4768 5.84059 19.3397 5.79788 19.0527 5.77441C18.7569 5.75024 18.3722 5.75 17.7998 5.75H14C13.5858 5.75 13.25 5.41421 13.25 5C13.25 4.58579 13.5858 4.25 14 4.25H17.7998ZM6.2002 5.75C5.62777 5.75 5.24314 5.75024 4.94727 5.77441C4.66027 5.79788 4.52316 5.84059 4.43262 5.88672C4.1975 6.00655 4.00654 6.1975 3.88672 6.43262C3.84059 6.52316 3.79788 6.66027 3.77441 6.94727C3.75024 7.24314 3.75 7.62777 3.75 8.2002V15.7998C3.75 16.3722 3.75024 16.7569 3.77441 17.0527C3.79788 17.3397 3.84059 17.4768 3.88672 17.5674C4.00654 17.8025 4.1975 17.9935 4.43262 18.1133C4.52316 18.1594 4.66027 18.2021 4.94727 18.2256C5.24314 18.2498 5.62777 18.25 6.2002 18.25H9.25V5.75H6.2002Z" fill="currentColor"/>
</svg>
