<svg width="24" height="24" viewBox="0 0 24 24" fill="none" xmlns="http://www.w3.org/2000/svg">
<path fill-rule="evenodd" clip-rule="evenodd" d="M14.792 7.75098C14.9305 7.71844 15.1557 7.67626 15.4014 7.73438L15.5078 7.76562L15.6318 7.81738C15.8718 7.93463 16.0664 8.12918 16.1836 8.36914L16.2354 8.49316L16.2666 8.59961C16.3246 8.84525 16.2825 9.07049 16.25 9.20898C16.2102 9.37838 16.1408 9.58255 16.0723 9.78809L14.7344 13.8047C14.7063 13.8889 14.6515 14.0718 14.543 14.2305C14.4591 14.353 14.3531 14.4591 14.2305 14.543C14.0717 14.6516 13.8888 14.7063 13.8047 14.7344L9.78809 16.0723C9.58248 16.1408 9.37842 16.2102 9.20898 16.25C9.05068 16.2872 8.77922 16.3372 8.49316 16.2354C8.15404 16.1144 7.88668 15.8469 7.76562 15.5078C7.66375 15.2218 7.7138 14.9503 7.75098 14.792C7.79078 14.6226 7.86019 14.4185 7.92871 14.2129L9.26758 10.1973C9.29556 10.1133 9.3493 9.9295 9.45801 9.77051L9.52539 9.68164C9.59629 9.59629 9.67865 9.52088 9.77051 9.45801L9.89258 9.38574C10.0151 9.32342 10.1343 9.28857 10.1973 9.26758L14.2129 7.92871C14.4185 7.86017 14.6226 7.79079 14.792 7.75098ZM10.6855 10.6855L9.37012 14.6299L13.3154 13.3154L14.6299 9.37012L10.6855 10.6855Z" fill="currentColor"/>
<path fill-rule="evenodd" clip-rule="evenodd" d="M12 2.25C17.3848 2.25 21.75 6.61522 21.75 12C21.75 17.3848 17.3848 21.75 12 21.75C6.61522 21.75 2.25 17.3848 2.25 12C2.25 6.61522 6.61522 2.25 12 2.25ZM12 3.75C7.44365 3.75 3.75 7.44365 3.75 12C3.75 16.5563 7.44365 20.25 12 20.25C16.5563 20.25 20.25 16.5563 20.25 12C20.25 7.44365 16.5563 3.75 12 3.75Z" fill="currentColor"/>
</svg>
