<svg width="24" height="24" viewBox="0 0 24 24" fill="none" xmlns="http://www.w3.org/2000/svg">
<path fill-rule="evenodd" clip-rule="evenodd" d="M12.0011 8.2793C14.0555 8.2793 15.7217 9.94465 15.7218 11.999C15.7218 14.0535 14.0556 15.7197 12.0011 15.7197C9.94682 15.7195 8.2814 14.0534 8.2814 11.999C8.28154 9.94479 9.94691 8.27952 12.0011 8.2793ZM12.0011 9.7793C10.7753 9.77952 9.78154 10.7732 9.7814 11.999C9.7814 13.225 10.7752 14.2195 12.0011 14.2197C13.2272 14.2197 14.2218 13.2251 14.2218 11.999C14.2217 10.7731 13.2271 9.7793 12.0011 9.7793Z" fill="currentColor"/>
<path fill-rule="evenodd" clip-rule="evenodd" d="M12.215 1.35742C12.7089 1.39321 13.1874 1.55315 13.6046 1.82422C14.0811 2.13391 14.4576 2.57557 14.6886 3.09473L15.2716 4.39551L15.2736 4.39941C15.4143 4.71746 15.6518 4.98312 15.9523 5.1582L16.0675 5.21875C16.3423 5.34961 16.6489 5.40285 16.9533 5.37109L18.3683 5.2207C18.9339 5.16087 19.506 5.26632 20.0128 5.52441C20.5192 5.78234 20.9395 6.18178 21.2238 6.67383C21.5085 7.16635 21.6453 7.73171 21.6154 8.2998C21.5854 8.86777 21.3915 9.41516 21.0568 9.875L20.2179 11.0254C20.0124 11.3081 19.9025 11.6495 19.9025 11.999L19.1525 12L19.9025 12.0029C19.9007 12.3536 20.0107 12.6962 20.216 12.9805L21.0519 14.1299C21.3867 14.5898 21.5806 15.1371 21.6105 15.7051C21.6366 16.2021 21.5367 16.6968 21.3205 17.1426L21.2208 17.3301C20.9366 17.8227 20.5148 18.2223 20.008 18.4805C19.5646 18.7061 19.0722 18.8151 18.5773 18.7988L18.3644 18.7842L16.9484 18.6338C16.6008 18.5976 16.2502 18.672 15.9474 18.8467L15.9464 18.8457C15.6463 19.0199 15.4091 19.2856 15.2677 19.6025L14.6896 20.9033C14.4587 21.4231 14.0815 21.8648 13.6046 22.1748C13.1874 22.4459 12.709 22.6058 12.215 22.6416L12.0021 22.6494C11.4333 22.6494 10.8764 22.4847 10.3996 22.1748C9.92276 21.8648 9.54549 21.423 9.3146 20.9033L8.73647 19.6016C8.5947 19.2822 8.3545 19.0155 8.0519 18.8408C7.74883 18.6662 7.39783 18.5904 7.04995 18.627L7.05093 18.6279L5.63589 18.7793C5.07044 18.8387 4.49799 18.7326 3.99136 18.4746C3.48496 18.2166 3.06385 17.8173 2.77944 17.3252C2.49488 16.8328 2.35903 16.2681 2.38882 15.7002C2.41869 15.1324 2.6129 14.5848 2.94741 14.125L3.7853 12.9727C3.99089 12.6899 4.10172 12.3496 4.10171 12C4.10168 11.6504 3.9909 11.3091 3.7853 11.0264L2.94741 9.875C2.61275 9.41519 2.41876 8.86772 2.38882 8.2998C2.35894 7.73177 2.49481 7.16632 2.77944 6.67383C3.06365 6.1818 3.48506 5.78237 3.99136 5.52441C4.43489 5.29852 4.92782 5.18874 5.423 5.20508L5.63491 5.2207L7.05581 5.37109C7.40377 5.40758 7.75369 5.33296 8.05679 5.1582C8.35722 4.98311 8.5948 4.71744 8.7355 4.39941L8.73647 4.39746L9.3146 3.09668C9.54547 2.57674 9.92261 2.1343 10.3996 1.82422C10.8764 1.51432 11.4334 1.3496 12.0021 1.34961L12.215 1.35742ZM11.8976 2.85352C11.6557 2.87111 11.4212 2.94928 11.2169 3.08203C10.9834 3.23387 10.7988 3.45053 10.6857 3.70508L10.1066 5.00488C9.83762 5.61333 9.3839 6.12178 8.80874 6.45605L8.80581 6.45703C8.22848 6.78993 7.5604 6.93191 6.89761 6.8623L5.47671 6.71191C5.19993 6.68282 4.92003 6.73405 4.67202 6.86035C4.45494 6.97096 4.27003 7.13521 4.13394 7.33594L4.07827 7.4248C3.93894 7.66592 3.87224 7.94261 3.88686 8.2207C3.9015 8.49878 3.99645 8.76704 4.1603 8.99219L4.99917 10.1436L5.13784 10.3516C5.44066 10.846 5.60168 11.416 5.60171 11.999C5.60181 12.5825 5.44101 13.1536 5.13784 13.6484L4.99917 13.8555L4.1603 15.0068C3.99649 15.2319 3.90154 15.5003 3.88686 15.7783C3.87224 16.0564 3.93894 16.3331 4.07827 16.5742C4.2176 16.8154 4.42392 17.0112 4.67202 17.1377C4.92003 17.264 5.19991 17.316 5.47671 17.2871L6.89272 17.1367C7.55554 17.0671 8.22458 17.209 8.8019 17.542L9.01284 17.6748C9.49072 18.0035 9.86983 18.4592 10.1066 18.9922L10.6857 20.2939L10.7316 20.3877C10.8458 20.6017 11.0126 20.7841 11.2169 20.917C11.4505 21.0688 11.7235 21.1494 12.0021 21.1494L12.1066 21.1455C12.3485 21.128 12.5829 21.0497 12.7873 20.917C13.0209 20.7651 13.2054 20.5486 13.3185 20.2939L13.8976 18.9922C14.1679 18.3864 14.6233 17.8802 15.1974 17.5479L15.5353 18.1328L15.1984 17.5469C15.7034 17.2557 16.278 17.1111 16.8576 17.126L17.1066 17.1416L17.1076 17.1426L18.5236 17.293C18.8005 17.3223 19.0791 17.2699 19.3273 17.1436C19.5755 17.0171 19.7818 16.8214 19.921 16.5801C20.0604 16.339 20.128 16.0623 20.1134 15.7842C20.0988 15.506 20.0029 15.2379 19.839 15.0127L19.0011 13.8613L18.9992 13.8594C18.6077 13.3175 18.3992 12.6646 18.4025 11.9961C18.4031 11.3306 18.6137 10.6818 19.005 10.1436L19.8439 8.99219C20.0078 8.76701 20.1027 8.49883 20.1173 8.2207C20.1301 7.97717 20.0808 7.73497 19.9748 7.5166L19.9259 7.4248C19.7867 7.1835 19.5804 6.98679 19.3322 6.86035C19.115 6.74982 18.8734 6.69707 18.631 6.70508L18.5275 6.71191L17.1115 6.8623C16.4487 6.9318 15.7796 6.79002 15.2023 6.45703L15.2003 6.45605C14.6261 6.12237 14.1717 5.61585 13.9025 5.00879L13.3195 3.70801L13.3185 3.70508C13.2054 3.45052 13.0208 3.23385 12.7873 3.08203C12.5537 2.9303 12.2806 2.84956 12.0021 2.84961L11.8976 2.85352Z" fill="currentColor"/>
</svg>
