<svg width="64" height="64" viewBox="0 0 64 64" fill="none" xmlns="http://www.w3.org/2000/svg">
<path d="M31.9993 20.0002L53.3327 20.0002M31.9993 20.0002C31.9993 23.6821 29.0146 26.6668 25.3327 26.6668C21.6508 26.6668 18.666 23.6821 18.666 20.0002C18.666 16.3183 21.6508 13.3335 25.3327 13.3335C29.0146 13.3335 31.9993 16.3183 31.9993 20.0002ZM10.666 20.0002L17.3327 20.0002M10.666 44.0002L33.3327 44.0002M47.9994 44.0002H53.3327M47.9994 44.0002C47.9994 47.6821 45.0146 50.6668 41.3327 50.6668C37.6508 50.6668 34.666 47.6821 34.666 44.0002C34.666 40.3183 37.6508 37.3335 41.3327 37.3335C45.0146 37.3335 47.9994 40.3183 47.9994 44.0002Z" stroke="currentColor" stroke-width="4" stroke-linecap="round" stroke-linejoin="round"/>
</svg>
