<svg width="24" height="24" viewBox="0 0 24 24" fill="none" xmlns="http://www.w3.org/2000/svg">
<path d="M20.25 11.5996C20.25 11.0275 20.2497 10.6435 20.2256 10.3477C20.2021 10.0605 20.1604 9.9226 20.1143 9.83204C19.9945 9.59708 19.8033 9.40595 19.5684 9.28614C19.4778 9.23999 19.3399 9.19827 19.0527 9.17481C18.7569 9.15065 18.3729 9.1504 17.8008 9.15039H11.6006C11.0282 9.15039 10.6435 9.15063 10.3477 9.17481C10.0608 9.19826 9.92355 9.24002 9.83301 9.28614C9.59798 9.40589 9.40697 9.59706 9.28711 9.83204C9.24097 9.9226 9.19827 10.0605 9.17481 10.3477C9.15066 10.6434 9.15039 11.0275 9.15039 11.5996V17.7998C9.15039 18.3722 9.15063 18.7569 9.17481 19.0527C9.19827 19.3397 9.24099 19.4769 9.28711 19.5674C9.40695 19.8025 9.5979 19.9935 9.83301 20.1133C9.92355 20.1594 10.0607 20.2021 10.3477 20.2256C10.6435 20.2498 11.0282 20.25 11.6006 20.25H17.8008C18.3729 20.25 18.757 20.2497 19.0527 20.2256C19.3399 20.2021 19.4778 20.1594 19.5684 20.1133C19.8033 19.9934 19.9945 19.8024 20.1143 19.5674C20.1604 19.4769 20.2021 19.3396 20.2256 19.0527C20.2498 18.7569 20.25 18.3722 20.25 17.7998V11.5996ZM14.8496 6.2002C14.8496 5.62777 14.8494 5.24315 14.8252 4.94727C14.8017 4.66043 14.76 4.52316 14.7139 4.43262C14.5941 4.19761 14.4029 4.00658 14.168 3.88672C14.0774 3.84058 13.9395 3.79788 13.6523 3.77442C13.3566 3.75027 12.9725 3.75 12.4004 3.75H6.2002C5.62777 3.75 5.24315 3.75024 4.94727 3.77442C4.66027 3.79788 4.52316 3.84059 4.43262 3.88672C4.19751 4.00655 4.00655 4.19751 3.88672 4.43262C3.84059 4.52316 3.79788 4.66027 3.77442 4.94727C3.75024 5.24315 3.75 5.62777 3.75 6.2002V12.4004C3.75 12.9725 3.75027 13.3566 3.77442 13.6523C3.79788 13.9395 3.84058 14.0774 3.88672 14.168C4.00658 14.4029 4.19761 14.5941 4.43262 14.7139C4.52316 14.76 4.66043 14.8017 4.94727 14.8252C5.24315 14.8494 5.62777 14.8496 6.2002 14.8496H7.65039V11.5996C7.65039 11.0523 7.64941 10.5966 7.67969 10.2256C7.71073 9.84571 7.77836 9.48863 7.9502 9.15137C8.21385 8.63396 8.63493 8.21286 9.15235 7.94922C9.48942 7.77759 9.84595 7.71072 10.2256 7.67969C10.5967 7.64937 11.0529 7.65039 11.6006 7.65039H14.8496V6.2002ZM16.3496 7.65039H17.8008C18.3482 7.65039 18.8038 7.6494 19.1748 7.67969C19.5547 7.71073 19.9118 7.7774 20.249 7.94922C20.7664 8.21284 21.1865 8.63403 21.4502 9.15137C21.622 9.48863 21.6897 9.84571 21.7207 10.2256C21.751 10.5966 21.75 11.0522 21.75 11.5996V17.7998C21.75 18.3475 21.751 18.8037 21.7207 19.1748C21.6897 19.5546 21.622 19.9109 21.4502 20.2481C21.1866 20.7655 20.7664 21.1865 20.249 21.4502C19.9118 21.622 19.5547 21.6887 19.1748 21.7197C18.8038 21.75 18.3482 21.75 17.8008 21.75H11.6006C11.0529 21.75 10.5967 21.7501 10.2256 21.7197C9.8459 21.6887 9.48946 21.6219 9.15235 21.4502C8.6349 21.1865 8.21385 20.7655 7.9502 20.2481C7.77847 19.9109 7.71073 19.5545 7.67969 19.1748C7.64937 18.8037 7.65039 18.3475 7.65039 17.7998V16.3496H6.2002C5.65252 16.3496 5.19633 16.3506 4.8252 16.3203C4.44542 16.2893 4.08914 16.2216 3.75196 16.0498C3.23456 15.7862 2.81347 15.366 2.54981 14.8486C2.37796 14.5114 2.31034 14.1543 2.2793 13.7744C2.24901 13.4034 2.25 12.9478 2.25 12.4004V6.2002C2.25 5.65252 2.24898 5.19633 2.2793 4.8252C2.31033 4.44547 2.3781 4.0891 2.54981 3.75196C2.81346 3.23451 3.23451 2.81346 3.75196 2.54981C4.0891 2.3781 4.44547 2.31033 4.8252 2.2793C5.19633 2.24898 5.65252 2.25 6.2002 2.25H12.4004C12.9478 2.25 13.4034 2.24901 13.7744 2.2793C14.1543 2.31034 14.5114 2.37796 14.8486 2.54981C15.366 2.81347 15.7862 3.23456 16.0498 3.75196C16.2216 4.08914 16.2893 4.44542 16.3203 4.8252C16.3506 5.19633 16.3496 5.65252 16.3496 6.2002V7.65039Z" fill="currentColor"/>
</svg>
