<svg width="16" height="16" viewBox="0 0 16 16" fill="none" xmlns="http://www.w3.org/2000/svg">
  <path fill-rule="evenodd" clip-rule="evenodd"
    d="M3.45455 3C3.31049 3 3.23847 3 3.1819 3.02422C3.11104 3.05457 3.05457 3.11104 3.02422 3.18191C3 3.23847 3 3.31049 3 3.45455V4.24703C3 5.16699 3 5.88478 3.04796 6.46094C3.0967 7.04649 3.19724 7.52493 3.42111 7.95619C3.79153 8.66975 4.38259 9.24989 5.10958 9.61346C5.54896 9.8332 6.03641 9.93188 6.63299 9.97972C7.22 10.0268 7.95131 10.0268 8.88861 10.0268H11.4481L9.38913 12.0477C9.28748 12.1475 9.23666 12.1973 9.21328 12.2532C9.18224 12.3273 9.18224 12.4108 9.21328 12.4849C9.23666 12.5408 9.28748 12.5906 9.38913 12.6904C9.48741 12.7869 9.53655 12.8351 9.59124 12.8574C9.66387 12.887 9.74522 12.887 9.81785 12.8574C9.87254 12.8351 9.92168 12.7869 10.02 12.6904L12.8669 9.89612C13.0444 9.72189 13.0444 9.4394 12.8669 9.26517L10.02 6.47088C9.92168 6.37441 9.87254 6.32618 9.81785 6.30387C9.74522 6.27425 9.66387 6.27425 9.59124 6.30387C9.53655 6.32618 9.48741 6.37441 9.38913 6.47088C9.28748 6.57065 9.23666 6.62053 9.21328 6.67635C9.18224 6.75049 9.18224 6.83398 9.21328 6.90812C9.23666 6.96394 9.28748 7.01383 9.38913 7.11359L11.4481 9.1345H8.90909C7.94696 9.1345 7.25269 9.13415 6.70702 9.09039C6.16666 9.04706 5.81216 8.96339 5.5223 8.81843C4.96637 8.5404 4.51438 8.09676 4.23112 7.5511C4.08342 7.26659 3.99818 6.91865 3.95403 6.38828C3.90944 5.85269 3.90909 5.17126 3.90909 4.2269V3.45455C3.90909 3.31049 3.90909 3.23847 3.88487 3.18191C3.85452 3.11104 3.79805 3.05457 3.72719 3.02422C3.67062 3 3.5986 3 3.45455 3Z"
    fill="currentColor" />
</svg>
