<svg width="24" height="24" viewBox="0 0 24 24" fill="none" xmlns="http://www.w3.org/2000/svg">
<path d="M11.0996 13.0488C11.5138 13.0488 11.8496 13.3846 11.8496 13.7988C11.8496 14.213 11.5138 14.5488 11.0996 14.5488H6.59961C6.1854 14.5488 5.84961 14.213 5.84961 13.7988C5.84962 13.3846 6.1854 13.0488 6.59961 13.0488H11.0996Z" fill="currentColor"/>
<path fill-rule="evenodd" clip-rule="evenodd" d="M17.7998 4.94922C18.3475 4.94922 18.8037 4.9482 19.1748 4.97852C19.5545 5.00955 19.9109 5.07732 20.2481 5.24903C20.7655 5.51268 21.1865 5.93373 21.4502 6.45118C21.6219 6.78832 21.6897 7.14469 21.7207 7.52442C21.751 7.89555 21.75 8.35175 21.75 8.89942V15.0996C21.75 15.647 21.751 16.1026 21.7207 16.4736C21.6897 16.8535 21.622 17.2106 21.4502 17.5479C21.1865 18.0652 20.7654 18.4854 20.2481 18.749C19.9109 18.9208 19.5546 18.9885 19.1748 19.0195C18.8037 19.0499 18.3475 19.0488 17.7998 19.0488H6.2002C5.65253 19.0488 5.19633 19.0499 4.8252 19.0195C4.44542 18.9885 4.08913 18.9208 3.75196 18.749C3.23457 18.4854 2.81346 18.0652 2.54981 17.5479C2.37797 17.2106 2.31034 16.8535 2.2793 16.4736C2.24901 16.1026 2.25 15.647 2.25 15.0996V8.89942C2.25 8.35175 2.24898 7.89555 2.2793 7.52442C2.31033 7.14469 2.3781 6.78832 2.54981 6.45118C2.81346 5.93373 3.23451 5.51268 3.75196 5.24903C4.0891 5.07732 4.44547 5.00955 4.8252 4.97852C5.19633 4.9482 5.65253 4.94922 6.2002 4.94922H17.7998ZM3.75 10.9492V15.0996C3.75 15.6717 3.75027 16.0558 3.77442 16.3516C3.79788 16.6387 3.84058 16.7766 3.88672 16.8672C4.00658 17.1021 4.19762 17.2933 4.43262 17.4131C4.52316 17.4592 4.66043 17.501 4.94727 17.5244C5.24315 17.5486 5.62778 17.5488 6.2002 17.5488H17.7998C18.3722 17.5488 18.7569 17.5486 19.0527 17.5244C19.3396 17.501 19.4768 17.4592 19.5674 17.4131C19.8024 17.2933 19.9934 17.1021 20.1133 16.8672C20.1594 16.7766 20.2021 16.6387 20.2256 16.3516C20.2497 16.0558 20.25 15.6717 20.25 15.0996V10.9492H3.75ZM6.2002 6.44922C5.62778 6.44922 5.24315 6.44946 4.94727 6.47364C4.66028 6.4971 4.52316 6.53981 4.43262 6.58594C4.19751 6.70577 4.00655 6.89673 3.88672 7.13184C3.84059 7.22238 3.79788 7.35949 3.77442 7.64649C3.75024 7.94237 3.75 8.32699 3.75 8.89942V9.44922H20.25V8.89942C20.25 8.32699 20.2498 7.94237 20.2256 7.64649C20.2021 7.3595 20.1594 7.22238 20.1133 7.13184C19.9935 6.89673 19.8025 6.70577 19.5674 6.58594C19.4768 6.53981 19.3397 6.4971 19.0527 6.47364C18.7569 6.44946 18.3722 6.44922 17.7998 6.44922H6.2002Z" fill="currentColor"/>
</svg>
