<svg width="24" height="24" viewBox="0 0 24 24" fill="none" xmlns="http://www.w3.org/2000/svg">
<path fill-rule="evenodd" clip-rule="evenodd" d="M12.001 8.55078C13.9063 8.55089 15.4512 10.0957 15.4512 12.001C15.4511 13.9062 13.9062 15.4511 12.001 15.4512C10.0957 15.4512 8.55089 13.9063 8.55078 12.001C8.55078 10.0956 10.0956 8.55078 12.001 8.55078ZM12.001 10.0508C10.924 10.0508 10.0508 10.924 10.0508 12.001C10.0509 13.0778 10.9241 13.9512 12.001 13.9512C13.0778 13.9511 13.9511 13.0778 13.9512 12.001C13.9512 10.9241 13.0778 10.0509 12.001 10.0508Z" fill="currentColor"/>
<path fill-rule="evenodd" clip-rule="evenodd" d="M12 2.25C12.4142 2.25 12.75 2.58579 12.75 3V4.08691C16.542 4.44144 19.5597 7.45822 19.915 11.25H20.999C21.4132 11.25 21.749 11.5858 21.749 12C21.749 12.4142 21.4132 12.75 20.999 12.75H19.915C19.5604 16.5426 16.5426 19.5594 12.75 19.9141V20.999C12.75 21.4132 12.4142 21.749 12 21.749C11.5858 21.749 11.25 21.4132 11.25 20.999V19.9141C7.45827 19.5587 4.44143 16.542 4.08691 12.75H3C2.58579 12.75 2.25 12.4142 2.25 12C2.25 11.5858 2.58579 11.25 3 11.25H4.08691C4.4422 7.4588 7.4588 4.4422 11.25 4.08691V3C11.25 2.58579 11.5858 2.25 12 2.25ZM12.001 5.55078C8.43874 5.55078 5.55078 8.43874 5.55078 12.001C5.55089 15.5543 8.42457 18.436 11.9746 18.4502C11.983 18.4499 11.9915 18.4492 12 18.4492C12.0085 18.4492 12.017 18.4499 12.0254 18.4502C15.5681 18.437 18.437 15.5681 18.4502 12.0254C18.4499 12.017 18.4492 12.0085 18.4492 12C18.4492 11.9915 18.4499 11.983 18.4502 11.9746C18.436 8.42457 15.5543 5.55089 12.001 5.55078Z" fill="currentColor"/>
</svg>
