<svg width="24" height="24" viewBox="0 0 24 24" fill="none" xmlns="http://www.w3.org/2000/svg">
<path d="M7.34961 17.5996C7.76382 17.5996 8.09961 17.9354 8.09961 18.3496C8.09961 18.7638 7.76382 19.0996 7.34961 19.0996H3.75C3.33579 19.0996 3 18.7638 3 18.3496C3 17.9354 3.33579 17.5996 3.75 17.5996H7.34961Z" fill="currentColor"/>
<path d="M15.3457 13.8008C16.0912 13.8008 16.6961 14.405 16.6963 15.1504C16.6963 15.896 16.0913 16.501 15.3457 16.501C14.6003 16.5008 13.9961 15.8958 13.9961 15.1504C13.9963 14.4051 14.6004 13.801 15.3457 13.8008Z" fill="currentColor"/>
<path fill-rule="evenodd" clip-rule="evenodd" d="M15.3496 11.25C16.73 11.25 17.8457 11.8608 18.6572 12.5381C19.467 13.2139 20.0191 13.9921 20.2949 14.4287C20.3318 14.4871 20.4006 14.5892 20.4541 14.7295L20.501 14.8818L20.5225 15.0127C20.5367 15.1478 20.5296 15.2932 20.501 15.418C20.4505 15.6381 20.3441 15.7932 20.2949 15.8711C20.0192 16.3077 19.4669 17.0859 18.6572 17.7617C17.8457 18.439 16.73 19.0498 15.3496 19.0498C13.9692 19.0497 12.8535 18.439 12.042 17.7617C11.2323 17.0859 10.68 16.3077 10.4043 15.8711C10.355 15.7931 10.2487 15.638 10.1982 15.418C10.1601 15.2515 10.1601 15.0482 10.1982 14.8818L10.2451 14.7295C10.2986 14.5893 10.3674 14.4872 10.4043 14.4287C10.68 13.9921 11.2323 13.2139 12.042 12.5381C12.8535 11.8608 13.9692 11.2501 15.3496 11.25ZM15.3496 12.75C14.433 12.7501 13.6459 13.1528 13.0029 13.6895C12.4035 14.1898 11.9692 14.7761 11.7256 15.1494C11.9691 15.5227 12.4031 16.1096 13.0029 16.6104C13.6459 17.147 14.433 17.5497 15.3496 17.5498C16.2663 17.5498 17.0532 17.147 17.6963 16.6104C18.2959 16.1099 18.7291 15.5227 18.9727 15.1494C18.729 14.776 18.2955 14.1896 17.6963 13.6895C17.0532 13.1528 16.2663 12.75 15.3496 12.75Z" fill="currentColor"/>
<path d="M7.34961 11.3008C7.76382 11.3008 8.09961 11.6366 8.09961 12.0508C8.09961 12.465 7.76382 12.8008 7.34961 12.8008H3.75C3.33579 12.8008 3 12.465 3 12.0508C3 11.6366 3.33579 11.3008 3.75 11.3008H7.34961Z" fill="currentColor"/>
<path d="M19.9502 5C20.3643 5.00011 20.7002 5.33585 20.7002 5.75C20.7002 6.16415 20.3643 6.49989 19.9502 6.5H3.75C3.33579 6.5 3 6.16421 3 5.75C3 5.33579 3.33579 5 3.75 5H19.9502Z" fill="currentColor"/>
</svg>
