<svg width="24" height="24" viewBox="0 0 24 24" fill="none" xmlns="http://www.w3.org/2000/svg">
<path fill-rule="evenodd" clip-rule="evenodd" d="M6.5498 3.15039C8.4551 3.1505 10 4.69527 10 6.60059C9.99996 7.28112 9.80118 7.91462 9.46094 8.44922L11.9512 10.9395L18.6201 4.27051C18.9129 3.97768 19.3878 3.97781 19.6807 4.27051C19.9734 4.56341 19.9735 5.03821 19.6807 5.33105L13.0117 12L19.6807 18.6689C19.9735 18.9618 19.9735 19.4366 19.6807 19.7295C19.3878 20.0224 18.913 20.0223 18.6201 19.7295L11.9512 13.0605L9.46094 15.5498C9.80144 16.0845 10 16.7186 10 17.3994C9.99989 19.3046 8.45503 20.8495 6.5498 20.8496C4.64449 20.8496 3.09971 19.3047 3.09961 17.3994C3.09961 15.494 4.64442 13.9492 6.5498 13.9492C7.23123 13.9493 7.86633 14.1472 8.40137 14.4883L10.8906 12L8.40137 9.51074C7.86624 9.85197 7.23141 10.0507 6.5498 10.0508C4.64449 10.0508 3.09971 8.50588 3.09961 6.60059C3.09961 4.6952 4.64442 3.15039 6.5498 3.15039ZM6.5498 15.4492C5.47285 15.4492 4.59961 16.3225 4.59961 17.3994C4.59971 18.4763 5.47291 19.3496 6.5498 19.3496C7.62661 19.3495 8.49989 18.4762 8.5 17.3994C8.5 16.3225 7.62667 15.4493 6.5498 15.4492ZM6.5498 4.65039C5.47285 4.65039 4.59961 5.52363 4.59961 6.60059C4.59971 7.67745 5.47291 8.55078 6.5498 8.55078C7.62661 8.55068 8.49989 7.67739 8.5 6.60059C8.5 5.5237 7.62667 4.6505 6.5498 4.65039Z" fill="currentColor"/>
</svg>
