<svg width="24" height="24" viewBox="0 0 24 24" fill="none" xmlns="http://www.w3.org/2000/svg">
<path d="M19.3467 13.6C19.3467 13.3078 19.3465 13.1333 19.3359 13.0043C19.3301 12.9335 19.3228 12.8996 19.3193 12.8871C19.2954 12.84 19.257 12.8017 19.21 12.7777C19.2263 12.7861 19.213 12.7709 19.0928 12.7611C18.9637 12.7506 18.7894 12.7504 18.4971 12.7504H15.3965C15.1043 12.7504 14.9299 12.7506 14.8008 12.7611C14.6807 12.7709 14.6672 12.7861 14.6836 12.7777C14.6366 12.8017 14.5982 12.84 14.5742 12.8871C14.5826 12.8707 14.5675 12.8842 14.5576 13.0043C14.5471 13.1333 14.5469 13.3078 14.5469 13.6V18.5004C14.5469 18.7927 14.5471 18.9669 14.5576 19.0961C14.5674 19.2156 14.5822 19.2301 14.5742 19.2142C14.5982 19.2611 14.6367 19.2987 14.6836 19.3226C14.696 19.3261 14.7299 19.3334 14.8008 19.3392C14.9299 19.3498 15.1043 19.35 15.3965 19.35H18.4971C18.7894 19.35 18.9637 19.3498 19.0928 19.3392C19.1635 19.3335 19.1974 19.3261 19.21 19.3226C19.2569 19.2987 19.2954 19.2611 19.3193 19.2142C19.3114 19.23 19.3262 19.2154 19.3359 19.0961C19.3465 18.9669 19.3467 18.7927 19.3467 18.5004V13.6ZM20.8467 18.5004C20.8467 18.768 20.8477 19.0138 20.8311 19.2181C20.8136 19.4313 20.7736 19.6646 20.6562 19.8949C20.4885 20.2241 20.2208 20.4918 19.8916 20.6595C19.6613 20.7769 19.428 20.8169 19.2148 20.8344C19.0105 20.851 18.7646 20.85 18.4971 20.85H15.3965C15.129 20.85 14.883 20.851 14.6787 20.8344C14.4657 20.8169 14.2322 20.7768 14.002 20.6595C13.6728 20.4918 13.405 20.2241 13.2373 19.8949C13.12 19.6646 13.0809 19.4312 13.0635 19.2181C13.0468 19.0138 13.0469 18.768 13.0469 18.5004V13.6C13.0469 13.3325 13.0468 13.0865 13.0635 12.8822C13.0809 12.6692 13.12 12.4356 13.2373 12.2054C13.4051 11.8763 13.6728 11.6085 14.002 11.4408C14.2321 11.3235 14.4657 11.2844 14.6787 11.267C14.883 11.2503 15.129 11.2504 15.3965 11.2504H18.4971C18.7646 11.2504 19.0105 11.2503 19.2148 11.267C19.4279 11.2844 19.6613 11.3235 19.8916 11.4408C20.2208 11.6085 20.4885 11.8763 20.6562 12.2054C20.7735 12.4357 20.8136 12.6691 20.8311 12.8822C20.8477 13.0865 20.8467 13.3325 20.8467 13.6V18.5004Z" fill="currentColor"/>
<path d="M9.4502 5.5C9.45019 5.20783 9.45 5.03337 9.43945 4.9043C9.43365 4.83348 9.42628 4.79958 9.42285 4.78711C9.39888 4.74007 9.36052 4.7017 9.31348 4.67773C9.32986 4.68608 9.31653 4.67097 9.19629 4.66113C9.06719 4.65059 8.89287 4.65039 8.60059 4.65039H5.5C5.20783 4.65039 5.03337 4.65059 4.9043 4.66113C4.78424 4.67097 4.77073 4.68608 4.78711 4.67773C4.74007 4.7017 4.7017 4.74007 4.67773 4.78711C4.68608 4.77073 4.67097 4.78424 4.66113 4.9043C4.65059 5.03337 4.65039 5.20783 4.65039 5.5V10.4004C4.65039 10.6928 4.65059 10.867 4.66113 10.9961C4.6709 11.1156 4.68572 11.1301 4.67773 11.1143C4.70171 11.1611 4.74019 11.1987 4.78711 11.2227C4.79954 11.2261 4.83339 11.2334 4.9043 11.2393C5.03337 11.2498 5.20783 11.25 5.5 11.25H8.60059C8.89287 11.25 9.06719 11.2498 9.19629 11.2393C9.26698 11.2335 9.30089 11.2261 9.31348 11.2227C9.36038 11.1988 9.39887 11.1611 9.42285 11.1143C9.41495 11.13 9.4297 11.1154 9.43945 10.9961C9.45 10.867 9.4502 10.6928 9.4502 10.4004V5.5ZM10.9502 10.4004C10.9502 10.668 10.9513 10.9138 10.9346 11.1182C10.9172 11.3313 10.8771 11.5646 10.7598 11.7949C10.592 12.1241 10.3243 12.3918 9.99512 12.5596C9.76484 12.6769 9.53147 12.717 9.31836 12.7344C9.11403 12.7511 8.86816 12.75 8.60059 12.75H5.5C5.2325 12.75 4.9865 12.7511 4.78223 12.7344C4.56917 12.7169 4.33567 12.6769 4.10547 12.5596C3.77636 12.3918 3.50853 12.1241 3.34082 11.7949C3.22351 11.5646 3.1844 11.3313 3.16699 11.1182C3.1503 10.9138 3.15039 10.668 3.15039 10.4004V5.5C3.15039 5.2325 3.1503 4.9865 3.16699 4.78223C3.18442 4.56918 3.22353 4.33566 3.34082 4.10547C3.50857 3.77636 3.77636 3.50857 4.10547 3.34082C4.33566 3.22353 4.56918 3.18442 4.78223 3.16699C4.9865 3.1503 5.2325 3.15039 5.5 3.15039H8.60059C8.86816 3.15039 9.11403 3.1503 9.31836 3.16699C9.53146 3.18441 9.76486 3.2235 9.99512 3.34082C10.3243 3.50855 10.592 3.77635 10.7598 4.10547C10.8771 4.33568 10.9171 4.56917 10.9346 4.78223C10.9513 4.9865 10.9502 5.2325 10.9502 5.5V10.4004Z" fill="currentColor"/>
<path d="M19.3467 5.5C19.3467 5.20783 19.3465 5.03337 19.3359 4.9043C19.3301 4.83348 19.3228 4.79958 19.3193 4.78711C19.2954 4.74007 19.257 4.7017 19.21 4.67773C19.2263 4.68608 19.213 4.67097 19.0928 4.66113C18.9637 4.65059 18.7894 4.65039 18.4971 4.65039H15.3965C15.1043 4.65039 14.9299 4.65059 14.8008 4.66113C14.6807 4.67097 14.6672 4.68608 14.6836 4.67773C14.6366 4.7017 14.5982 4.74007 14.5742 4.78711C14.5826 4.77073 14.5675 4.78424 14.5576 4.9043C14.5471 5.03337 14.5469 5.20783 14.5469 5.5V6.80078L14.5488 7.15918C14.5503 7.25556 14.5523 7.33185 14.5576 7.39648C14.5675 7.51655 14.5826 7.53005 14.5742 7.51367C14.5982 7.56071 14.6366 7.59908 14.6836 7.62305C14.6672 7.6147 14.6807 7.62981 14.8008 7.63965C14.9299 7.65019 15.1043 7.65039 15.3965 7.65039H18.4971C18.7894 7.65039 18.9637 7.6502 19.0928 7.63965C19.213 7.62981 19.2263 7.6147 19.21 7.62305C19.257 7.59908 19.2954 7.56071 19.3193 7.51367C19.3228 7.5012 19.3301 7.46731 19.3359 7.39648C19.3465 7.26742 19.3467 7.09295 19.3467 6.80078V5.5ZM20.8467 6.80078C20.8467 7.06828 20.8477 7.31428 20.8311 7.51855C20.8136 7.73162 20.7735 7.9651 20.6562 8.19531C20.4885 8.52444 20.2208 8.79223 19.8916 8.95996C19.6613 9.07728 19.4279 9.11637 19.2148 9.13379C19.0105 9.15048 18.7646 9.15039 18.4971 9.15039H15.3965C15.129 9.15039 14.883 9.15048 14.6787 9.13379C14.4657 9.11636 14.2321 9.07725 14.002 8.95996C13.6728 8.79221 13.4051 8.52442 13.2373 8.19531C13.12 7.96512 13.0809 7.7316 13.0635 7.51855C13.0551 7.41624 13.0508 7.30325 13.0488 7.18262L13.0469 6.80078V5.5C13.0469 5.2325 13.0468 4.9865 13.0635 4.78223C13.0809 4.56918 13.12 4.33566 13.2373 4.10547C13.4051 3.77636 13.6728 3.50857 14.002 3.34082C14.2321 3.22353 14.4657 3.18442 14.6787 3.16699C14.883 3.1503 15.129 3.15039 15.3965 3.15039H18.4971C18.7646 3.15039 19.0105 3.1503 19.2148 3.16699C19.4279 3.18441 19.6613 3.2235 19.8916 3.34082C20.2208 3.50855 20.4885 3.77635 20.6562 4.10547C20.7735 4.33568 20.8136 4.56917 20.8311 4.78223C20.8477 4.9865 20.8467 5.2325 20.8467 5.5V6.80078Z" fill="currentColor"/>
<path d="M9.4502 17.2C9.45019 16.9078 9.45 16.7333 9.43945 16.6043C9.43365 16.5335 9.42628 16.4996 9.42285 16.4871C9.39888 16.44 9.36052 16.4017 9.31348 16.3777C9.32986 16.3861 9.31653 16.3709 9.19629 16.3611C9.06719 16.3506 8.89287 16.3504 8.60059 16.3504H5.5C5.20783 16.3504 5.03337 16.3506 4.9043 16.3611C4.78424 16.3709 4.77073 16.3861 4.78711 16.3777C4.74007 16.4017 4.7017 16.44 4.67773 16.4871C4.68608 16.4707 4.67097 16.4842 4.66113 16.6043C4.65059 16.7333 4.65039 16.9078 4.65039 17.2V18.5008L4.65234 18.8592C4.65381 18.9555 4.65585 19.0318 4.66113 19.0965C4.67097 19.2165 4.68608 19.23 4.67773 19.2136C4.7017 19.2607 4.74007 19.2991 4.78711 19.323C4.77073 19.3147 4.78424 19.3298 4.9043 19.3396C5.03337 19.3502 5.20783 19.3504 5.5 19.3504H8.60059C8.89287 19.3504 9.06719 19.3502 9.19629 19.3396C9.31653 19.3298 9.32987 19.3147 9.31348 19.323C9.36052 19.2991 9.39888 19.2607 9.42285 19.2136C9.42628 19.2012 9.43365 19.1673 9.43945 19.0965C9.45 18.9674 9.45019 18.7929 9.4502 18.5008V17.2ZM10.9502 18.5008C10.9502 18.7683 10.9513 19.0143 10.9346 19.2185C10.9171 19.4316 10.8771 19.6651 10.7598 19.8953C10.592 20.2244 10.3243 20.4922 9.99512 20.6599C9.76486 20.7773 9.53146 20.8163 9.31836 20.8338C9.11403 20.8505 8.86816 20.8504 8.60059 20.8504H5.5C5.2325 20.8504 4.9865 20.8505 4.78223 20.8338C4.56918 20.8163 4.33566 20.7772 4.10547 20.6599C3.77636 20.4922 3.50857 20.2244 3.34082 19.8953C3.22353 19.6651 3.18442 19.4316 3.16699 19.2185C3.15863 19.1162 3.15428 19.0032 3.15234 18.8826L3.15039 18.5008V17.2C3.15039 16.9325 3.1503 16.6865 3.16699 16.4822C3.18442 16.2692 3.22353 16.0356 3.34082 15.8054C3.50857 15.4763 3.77636 15.2085 4.10547 15.0408C4.33566 14.9235 4.56918 14.8844 4.78223 14.867C4.9865 14.8503 5.2325 14.8504 5.5 14.8504H8.60059C8.86816 14.8504 9.11403 14.8503 9.31836 14.867C9.53146 14.8844 9.76486 14.9235 9.99512 15.0408C10.3243 15.2085 10.592 15.4763 10.7598 15.8054C10.8771 16.0357 10.9171 16.2691 10.9346 16.4822C10.9513 16.6865 10.9502 16.9325 10.9502 17.2V18.5008Z" fill="currentColor"/>
</svg>
