<svg width="24" height="24" viewBox="0 0 24 24" fill="none" xmlns="http://www.w3.org/2000/svg">
<path d="M19.1326 7.18051C19.4947 6.97945 19.952 7.10948 20.1531 7.47152C20.3539 7.8335 20.223 8.28993 19.8611 8.49105L12.7498 12.4422V20.3797C12.7497 20.7938 12.4139 21.1296 11.9998 21.1297C11.5857 21.1297 11.2499 20.7939 11.2498 20.3797V12.4422L4.13751 8.49105C3.77557 8.28986 3.64542 7.83354 3.84649 7.47152C4.0477 7.10956 4.50399 6.97938 4.86602 7.18051L11.9988 11.1424L19.1326 7.18051Z" fill="currentColor" opacity="0.3"/>
<path d="M11.4952 2.59541C11.8606 2.52026 12.2382 2.5203 12.6036 2.59541C13.043 2.68586 13.4435 2.91734 13.9679 3.20869L18.8673 5.93037C19.421 6.23801 19.8527 6.46783 20.172 6.81416C20.437 7.10187 20.6381 7.44373 20.7608 7.81514C20.9085 8.26233 20.8995 8.7503 20.8995 9.3835V12.0007C20.8995 12.4148 20.5636 12.7506 20.1495 12.7507C19.7354 12.7506 19.3995 12.4148 19.3995 12.0007V9.3835C19.3995 8.64703 19.3901 8.44858 19.336 8.28486C19.2802 8.11633 19.1888 7.96135 19.0685 7.83076C18.9516 7.7041 18.7824 7.59944 18.1388 7.2419L13.2394 4.51924C12.63 4.18071 12.4619 4.09728 12.3009 4.06416C12.1351 4.03014 11.9638 4.03012 11.798 4.06416C11.637 4.0973 11.4688 4.1807 10.8595 4.51924L5.95909 7.2419C5.31541 7.5995 5.14723 7.70402 5.03038 7.83076C4.91002 7.96138 4.81865 8.11626 4.7628 8.28486C4.70871 8.44858 4.69933 8.64703 4.69933 9.3835V14.6179C4.69933 15.354 4.70884 15.5528 4.7628 15.7165C4.81859 15.8851 4.9101 16.04 5.03038 16.1706C5.14721 16.2974 5.31548 16.4019 5.95909 16.7595L11.5138 19.8454C11.8469 20.0303 12.252 20.0304 12.5851 19.8454C12.947 19.6444 13.4033 19.7748 13.6046 20.1364C13.8057 20.4985 13.6755 20.9547 13.3136 21.156C12.5274 21.5928 11.5715 21.5928 10.7853 21.156L5.23058 18.071C4.67693 17.7634 4.24609 17.5336 3.92686 17.1872C3.66183 16.8994 3.46074 16.5577 3.338 16.1862C3.19046 15.739 3.19933 15.2511 3.19933 14.6179V9.3835C3.19932 8.75027 3.19034 8.26235 3.338 7.81514C3.4608 7.44364 3.66175 7.10192 3.92686 6.81416C4.24615 6.46776 4.67683 6.238 5.23058 5.93037L10.131 3.20869C10.6556 2.91724 11.0557 2.68587 11.4952 2.59541Z" fill="currentColor"/>
<path fill-rule="evenodd" clip-rule="evenodd" d="M18.3507 13.9499C20.256 13.95 21.8009 15.4948 21.8009 17.4001C21.8008 18.1973 21.5286 18.9301 21.0743 19.5144L21.5812 20.0212C21.8735 20.3141 21.8739 20.789 21.5812 21.0817C21.2884 21.3743 20.8135 21.374 20.5206 21.0817L19.9132 20.4743C19.4439 20.7133 18.9134 20.8503 18.3507 20.8503C16.4455 20.8502 14.9007 19.3052 14.9005 17.4001C14.9005 15.4948 16.4454 13.95 18.3507 13.9499ZM18.3507 15.4499C17.2738 15.45 16.4005 16.3232 16.4005 17.4001C16.4007 18.4768 17.2739 19.3502 18.3507 19.3503C19.4274 19.3502 20.3006 18.4768 20.3009 17.4001C20.3009 16.3232 19.4276 15.45 18.3507 15.4499Z" fill="currentColor"/>
</svg>
