<svg width="24" height="24" viewBox="0 0 24 24" fill="none" xmlns="http://www.w3.org/2000/svg">
<path d="M6.6084 16.6504C7.02262 16.6504 7.3584 16.9862 7.3584 17.4004C7.3584 17.8146 7.02262 18.1504 6.6084 18.1504H6.59961C6.1854 18.1504 5.84961 17.8146 5.84961 17.4004C5.84961 16.9862 6.1854 16.6504 6.59961 16.6504H6.6084Z" fill="currentColor"/>
<path d="M10.208 16.6504C10.6222 16.6504 10.958 16.9862 10.958 17.4004C10.958 17.8146 10.6222 18.1504 10.208 18.1504H10.1992C9.78501 18.1504 9.44922 17.8146 9.44922 17.4004C9.44922 16.9862 9.78501 16.6504 10.1992 16.6504H10.208Z" fill="currentColor"/>
<path fill-rule="evenodd" clip-rule="evenodd" d="M17.7998 13.25C18.3475 13.25 18.8037 13.249 19.1748 13.2793C19.5545 13.3103 19.9109 13.3781 20.2481 13.5498C20.7655 13.8135 21.1865 14.2345 21.4502 14.752C21.6219 15.0891 21.6897 15.4455 21.7207 15.8252C21.751 16.1963 21.75 16.6525 21.75 17.2002V18C21.75 18.5477 21.751 19.0039 21.7207 19.375C21.6897 19.7547 21.6219 20.1111 21.4502 20.4482C21.1865 20.9657 20.7655 21.3867 20.2481 21.6504C19.911 21.8221 19.5545 21.8889 19.1748 21.9199C18.8037 21.9502 18.3475 21.9502 17.7998 21.9502H6.2002C5.65253 21.9502 5.19633 21.9502 4.8252 21.9199C4.44552 21.8889 4.08906 21.8221 3.75196 21.6504C3.23452 21.3867 2.81346 20.9657 2.54981 20.4482C2.37807 20.1111 2.31034 19.7547 2.2793 19.375C2.24898 19.0039 2.25 18.5477 2.25 18V17.2002C2.25 16.6525 2.24898 16.1963 2.2793 15.8252C2.31033 15.4455 2.3781 15.0891 2.54981 14.752C2.81346 14.2345 3.23451 13.8135 3.75196 13.5498C4.0891 13.3781 4.44547 13.3103 4.8252 13.2793C5.19633 13.249 5.65253 13.25 6.2002 13.25H17.7998ZM6.2002 14.75C5.62778 14.75 5.24315 14.7502 4.94727 14.7744C4.66028 14.7979 4.52316 14.8406 4.43262 14.8867C4.19751 15.0065 4.00655 15.1975 3.88672 15.4326C3.84059 15.5232 3.79788 15.6603 3.77442 15.9473C3.75024 16.2431 3.75 16.6278 3.75 17.2002V18C3.75 18.5724 3.75024 18.9571 3.77442 19.2529C3.79788 19.5398 3.8406 19.6771 3.88672 19.7676C4.00657 20.0026 4.19752 20.1937 4.43262 20.3135C4.52316 20.3596 4.66032 20.4013 4.94727 20.4248C5.24315 20.449 5.62778 20.4502 6.2002 20.4502H17.7998C18.3722 20.4502 18.7569 20.449 19.0527 20.4248C19.3397 20.4013 19.4769 20.3596 19.5674 20.3135C19.8025 20.1937 19.9934 20.0026 20.1133 19.7676C20.1594 19.6771 20.2021 19.5398 20.2256 19.2529C20.2498 18.9571 20.25 18.5724 20.25 18V17.2002C20.25 16.6278 20.2498 16.2431 20.2256 15.9473C20.2021 15.6603 20.1594 15.5232 20.1133 15.4326C19.9935 15.1975 19.8025 15.0065 19.5674 14.8867C19.4768 14.8406 19.3397 14.7979 19.0527 14.7744C18.7569 14.7502 18.3722 14.75 17.7998 14.75H6.2002Z" fill="currentColor"/>
<path d="M12 2.25C12.4142 2.25 12.75 2.58579 12.75 3V8.38867L15.0703 6.06934C15.3632 5.77654 15.838 5.77648 16.1309 6.06934C16.4236 6.36221 16.4236 6.83703 16.1309 7.12988L12.5342 10.7246C12.5292 10.7297 12.5237 10.7343 12.5186 10.7393C12.4925 10.7643 12.4651 10.7871 12.4365 10.8076C12.3134 10.8963 12.1634 10.9502 12 10.9502C11.8384 10.9502 11.6898 10.8975 11.5674 10.8105C11.5372 10.7891 11.5079 10.7657 11.4805 10.7393C11.4753 10.7343 11.4698 10.7297 11.4648 10.7246L7.87012 7.12988C7.57723 6.83699 7.57723 6.36223 7.87012 6.06934C8.16301 5.77644 8.63777 5.77644 8.93067 6.06934L11.25 8.38867V3C11.25 2.58579 11.5858 2.25 12 2.25Z" fill="currentColor"/>
</svg>
