<svg width="24" height="24" viewBox="0 0 24 24" fill="none" xmlns="http://www.w3.org/2000/svg">
<path fill-rule="evenodd" clip-rule="evenodd" d="M12 2.25C14.2948 2.25 16.4039 2.55883 17.9648 3.0791C18.7412 3.33789 19.424 3.66267 19.9277 4.05957C20.4231 4.44996 20.8506 4.9991 20.8506 5.7002V18.2998C20.8506 18.9991 20.4282 19.5485 19.9336 19.9404C19.4315 20.3383 18.7508 20.6631 17.9756 20.9219C16.4173 21.4421 14.3076 21.75 12 21.75C9.69258 21.75 7.58362 21.4421 6.02539 20.9219C5.25016 20.6631 4.56948 20.3383 4.06738 19.9404C3.57276 19.5485 3.15039 18.9991 3.15039 18.2998V5.7002C3.15039 4.99914 3.57693 4.44996 4.07227 4.05957C4.57608 3.66252 5.25955 3.33796 6.03613 3.0791C7.597 2.5589 9.70546 2.25004 12 2.25ZM19.3506 14.0254C18.948 14.2533 18.4825 14.4528 17.9756 14.6221C16.4173 15.1423 14.3076 15.4502 12 15.4502C9.69264 15.4502 7.58361 15.1423 6.02539 14.6221C5.51845 14.4528 5.05294 14.2533 4.65039 14.0254V18.2998C4.65039 18.3475 4.67802 18.5103 4.99902 18.7646C5.31249 19.013 5.81302 19.2696 6.5 19.499C7.8666 19.9553 9.80773 20.25 12 20.25C14.1922 20.25 16.1333 19.9552 17.5 19.499C18.1872 19.2696 18.6884 19.0131 19.002 18.7646C19.3229 18.5103 19.3506 18.3475 19.3506 18.2998V14.0254ZM19.3506 7.7207C18.9452 7.94984 18.4757 8.15001 17.9648 8.32031C16.4039 8.84062 14.2949 9.15039 12 9.15039C9.70537 9.15036 7.59702 8.84055 6.03613 8.32031C5.52542 8.15007 5.05595 7.9497 4.65039 7.7207V12C4.65039 12.0477 4.67822 12.2096 4.99902 12.4639C5.31251 12.7123 5.81291 12.9698 6.5 13.1992C7.8666 13.6555 9.80773 13.9502 12 13.9502C14.1922 13.9502 16.1333 13.6554 17.5 13.1992C18.1872 12.9698 18.6884 12.7123 19.002 12.4639C19.3226 12.2097 19.3506 12.0477 19.3506 12V7.7207ZM12 3.75C9.82158 3.75004 7.8803 4.04511 6.50977 4.50195C5.82059 4.73169 5.31691 4.9893 5.00098 5.23828C4.67677 5.49385 4.65039 5.65571 4.65039 5.7002C4.65047 5.74496 4.67706 5.90683 5.00098 6.16211C5.31688 6.41107 5.82068 6.66774 6.50977 6.89746C7.8803 7.35431 9.82158 7.65036 12 7.65039C14.1786 7.65039 16.1206 7.35433 17.4912 6.89746C18.1802 6.66776 18.6841 6.41105 19 6.16211C19.3238 5.90688 19.3505 5.74496 19.3506 5.7002C19.3506 5.65572 19.3241 5.49379 19 5.23828C18.6841 4.98932 18.1803 4.73167 17.4912 4.50195C16.1206 4.04508 14.1786 3.75 12 3.75Z" fill="currentColor"/>
</svg>
