<svg width="24" height="24" viewBox="0 0 24 24" fill="none" xmlns="http://www.w3.org/2000/svg">
<path d="M6.6084 17.6493C7.02262 17.6493 7.3584 17.9851 7.3584 18.3993C7.35834 18.8135 7.02258 19.1493 6.6084 19.1493H6.59961C6.18544 19.1493 5.84967 18.8135 5.84961 18.3993C5.84961 17.9851 6.1854 17.6493 6.59961 17.6493H6.6084Z" fill="currentColor"/>
<path d="M10.208 17.6493C10.6222 17.6493 10.958 17.9851 10.958 18.3993C10.958 18.8135 10.6222 19.1493 10.208 19.1493H10.1992C9.78505 19.1493 9.44928 18.8135 9.44922 18.3993C9.44922 17.9851 9.78501 17.6493 10.1992 17.6493H10.208Z" fill="currentColor"/>
<path fill-rule="evenodd" clip-rule="evenodd" d="M17.7998 14.2489C18.3475 14.2489 18.8037 14.2479 19.1748 14.2782C19.5545 14.3093 19.9109 14.377 20.2481 14.5487C20.7655 14.8124 21.1866 15.2335 21.4502 15.7509C21.6219 16.088 21.6897 16.4444 21.7207 16.8241C21.751 17.1952 21.75 17.6515 21.75 18.1991V18.9989C21.75 19.5466 21.751 20.0028 21.7207 20.3739C21.6897 20.7536 21.6219 21.1101 21.4502 21.4472C21.1865 21.9646 20.7655 22.3857 20.2481 22.6493C19.911 22.821 19.5545 22.8878 19.1748 22.9189C18.8037 22.9492 18.3475 22.9491 17.7998 22.9491H6.2002C5.65253 22.9491 5.19633 22.9492 4.8252 22.9189C4.44553 22.8878 4.08905 22.821 3.75196 22.6493C3.23454 22.3857 2.81346 21.9646 2.54981 21.4472C2.37808 21.1101 2.31035 20.7536 2.2793 20.3739C2.24898 20.0028 2.25 19.5466 2.25 18.9989V18.1991C2.25 17.6515 2.24899 17.1952 2.2793 16.8241C2.31033 16.4444 2.37813 16.088 2.54981 15.7509C2.81345 15.2335 3.23453 14.8124 3.75196 14.5487C4.08909 14.377 4.44547 14.3093 4.8252 14.2782C5.19633 14.2479 5.65253 14.2489 6.2002 14.2489H17.7998ZM6.2002 15.7489C5.62778 15.7489 5.24315 15.7492 4.94727 15.7734C4.66028 15.7968 4.52316 15.8395 4.43262 15.8857C4.19753 16.0055 4.00654 16.1965 3.88672 16.4316C3.84061 16.5221 3.79787 16.6593 3.77442 16.9462C3.75025 17.2421 3.75 17.6268 3.75 18.1991V18.9989C3.75 19.5713 3.75025 19.956 3.77442 20.2519C3.79788 20.5387 3.84061 20.676 3.88672 20.7665C4.00657 21.0016 4.19755 21.1926 4.43262 21.3124C4.52316 21.3585 4.66035 21.4003 4.94727 21.4237C5.24315 21.4479 5.62778 21.4491 6.2002 21.4491H17.7998C18.3722 21.4491 18.7569 21.4479 19.0527 21.4237C19.3396 21.4003 19.4769 21.3585 19.5674 21.3124C19.8025 21.1926 19.9934 21.0016 20.1133 20.7665C20.1594 20.676 20.2021 20.5387 20.2256 20.2519C20.2498 19.956 20.25 19.5713 20.25 18.9989V18.1991C20.25 17.6268 20.2498 17.2421 20.2256 16.9462C20.2021 16.6593 20.1594 16.5221 20.1133 16.4316C19.9935 16.1965 19.8025 16.0055 19.5674 15.8857C19.4768 15.8395 19.3397 15.7968 19.0527 15.7734C18.7569 15.7492 18.3722 15.7489 17.7998 15.7489H6.2002Z" fill="currentColor"/>
<path d="M14.4697 6.46769C14.7626 6.1748 15.2374 6.1748 15.5303 6.46769L17.5205 8.45793C17.5318 8.4688 17.5421 8.48055 17.5527 8.49211C17.5688 8.50972 17.5836 8.52809 17.5977 8.54679C17.6931 8.67262 17.752 8.82788 17.752 8.99797C17.7519 9.17252 17.6889 9.3305 17.5889 9.45793C17.5817 9.46702 17.575 9.47644 17.5674 9.48527C17.5491 9.50647 17.5303 9.52678 17.5098 9.54582L15.5303 11.5263C15.2374 11.8192 14.7626 11.8191 14.4697 11.5263C14.1768 11.2334 14.1768 10.7586 14.4697 10.4657L15.1875 9.74797H7.00196C6.58778 9.74796 6.25202 9.41213 6.25196 8.99797C6.25196 8.58375 6.58775 8.24797 7.00196 8.24797H15.1895L14.4697 7.52824C14.1769 7.23541 14.177 6.7606 14.4697 6.46769Z" fill="currentColor"/>
<path d="M8.46875 1.46965C8.76165 1.1768 9.23642 1.17677 9.5293 1.46965C9.82203 1.76253 9.8221 2.23735 9.5293 2.53019L8.81153 3.24797H17.002C17.4162 3.24797 17.752 3.58375 17.752 3.99797C17.7519 4.41213 17.4161 4.74797 17.002 4.74797H8.80957L9.5293 5.46769C9.82213 5.76057 9.82213 6.23536 9.5293 6.52824C9.23642 6.82102 8.76162 6.82105 8.46875 6.52824L6.46973 4.52922C6.34803 4.40751 6.27934 4.25405 6.25879 4.09562C6.25657 4.07853 6.25497 4.0613 6.25391 4.04386C6.25215 4.01449 6.25223 3.98535 6.25391 3.95597C6.25504 3.93554 6.25704 3.91539 6.25977 3.89543C6.28147 3.73945 6.34982 3.58863 6.46973 3.46867L8.46875 1.46965Z" fill="currentColor"/>
</svg>
