<svg width="24" height="24" viewBox="0 0 24 24" fill="none" xmlns="http://www.w3.org/2000/svg">
<path d="M6.6084 16.6504C7.02261 16.6504 7.3584 16.9862 7.3584 17.4004C7.3584 17.8146 7.02262 18.1504 6.6084 18.1504H6.59961C6.1854 18.1504 5.84961 17.8146 5.84961 17.4004C5.84962 16.9862 6.1854 16.6504 6.59961 16.6504H6.6084Z" fill="currentColor"/>
<path fill-rule="evenodd" clip-rule="evenodd" d="M17.7998 13.0498C18.3475 13.0498 18.8037 13.0488 19.1748 13.0791C19.5545 13.1101 19.9109 13.1779 20.2481 13.3496C20.7655 13.6133 21.1865 14.0343 21.4502 14.5518C21.6219 14.8889 21.6897 15.2453 21.7207 15.625C21.751 15.9961 21.75 16.4523 21.75 17V17.7998C21.75 18.3475 21.751 18.8037 21.7207 19.1748C21.6897 19.5545 21.6219 19.9109 21.4502 20.2481C21.1865 20.7655 20.7655 21.1865 20.2481 21.4502C19.911 21.6219 19.5545 21.6887 19.1748 21.7197C18.8037 21.7501 18.3475 21.75 17.7998 21.75H6.2002C5.65253 21.75 5.19633 21.7501 4.8252 21.7197C4.44552 21.6887 4.08905 21.6219 3.75196 21.4502C3.23452 21.1865 2.81346 20.7655 2.54981 20.2481C2.37807 19.9109 2.31034 19.5545 2.2793 19.1748C2.24898 18.8037 2.25 18.3475 2.25 17.7998V17C2.25 16.4523 2.24898 15.9961 2.2793 15.625C2.31033 15.2453 2.3781 14.8889 2.54981 14.5518C2.81346 14.0343 3.23451 13.6133 3.75196 13.3496C4.0891 13.1779 4.44547 13.1101 4.8252 13.0791C5.19633 13.0488 5.65253 13.0498 6.2002 13.0498H17.7998ZM6.2002 14.5498C5.62778 14.5498 5.24315 14.55 4.94727 14.5742C4.66028 14.5977 4.52316 14.6404 4.43262 14.6865C4.19751 14.8064 4.00655 14.9973 3.88672 15.2324C3.84059 15.323 3.79788 15.4601 3.77442 15.7471C3.75024 16.043 3.75 16.4276 3.75 17V17.7998C3.75 18.3722 3.75024 18.7569 3.77442 19.0527C3.79788 19.3396 3.8406 19.4769 3.88672 19.5674C4.00657 19.8025 4.19753 19.9935 4.43262 20.1133C4.52316 20.1594 4.66032 20.2012 4.94727 20.2246C5.24315 20.2488 5.62778 20.25 6.2002 20.25H17.7998C18.3722 20.25 18.7569 20.2488 19.0527 20.2246C19.3397 20.2012 19.4769 20.1594 19.5674 20.1133C19.8025 19.9935 19.9934 19.8025 20.1133 19.5674C20.1594 19.4769 20.2021 19.3396 20.2256 19.0527C20.2498 18.7569 20.25 18.3722 20.25 17.7998V17C20.25 16.4276 20.2498 16.043 20.2256 15.7471C20.2021 15.4601 20.1594 15.323 20.1133 15.2324C19.9935 14.9973 19.8025 14.8064 19.5674 14.6865C19.4768 14.6404 19.3397 14.5977 19.0527 14.5742C18.7569 14.55 18.3722 14.5498 17.7998 14.5498H6.2002Z" fill="currentColor"/>
<path d="M6.6084 5.84961C7.02261 5.84961 7.3584 6.1854 7.3584 6.59961C7.3584 7.01383 7.02262 7.34961 6.6084 7.34961H6.59961C6.1854 7.34961 5.84961 7.01383 5.84961 6.59961C5.84962 6.1854 6.1854 5.84962 6.59961 5.84961H6.6084Z" fill="currentColor"/>
<path fill-rule="evenodd" clip-rule="evenodd" d="M17.7998 2.25C18.3475 2.25 18.8037 2.24898 19.1748 2.2793C19.5545 2.31033 19.9109 2.3781 20.2481 2.54981C20.7655 2.81346 21.1865 3.23452 21.4502 3.75196C21.6219 4.0891 21.6897 4.44547 21.7207 4.8252C21.751 5.19633 21.75 5.65253 21.75 6.2002V7C21.75 7.54768 21.751 8.00388 21.7207 8.375C21.6897 8.75472 21.6219 9.11112 21.4502 9.44825C21.1865 9.96569 20.7655 10.3867 20.2481 10.6504C19.911 10.8221 19.5545 10.8889 19.1748 10.9199C18.8037 10.9502 18.3475 10.9502 17.7998 10.9502H6.2002C5.65253 10.9502 5.19633 10.9502 4.8252 10.9199C4.44552 10.8889 4.08905 10.8221 3.75196 10.6504C3.23452 10.3867 2.81346 9.96569 2.54981 9.44825C2.37807 9.11112 2.31034 8.75472 2.2793 8.375C2.24898 8.00388 2.25 7.54768 2.25 7V6.2002C2.25 5.65253 2.24898 5.19633 2.2793 4.8252C2.31033 4.44547 2.3781 4.0891 2.54981 3.75196C2.81346 3.23451 3.23451 2.81346 3.75196 2.54981C4.0891 2.3781 4.44547 2.31033 4.8252 2.2793C5.19633 2.24898 5.65253 2.25 6.2002 2.25H17.7998ZM6.2002 3.75C5.62778 3.75 5.24315 3.75024 4.94727 3.77442C4.66028 3.79788 4.52316 3.84059 4.43262 3.88672C4.19751 4.00655 4.00655 4.19751 3.88672 4.43262C3.84059 4.52316 3.79788 4.66028 3.77442 4.94727C3.75024 5.24315 3.75 5.62778 3.75 6.2002V7C3.75 7.57243 3.75024 7.95706 3.77442 8.25293C3.79788 8.53979 3.8406 8.67706 3.88672 8.76758C4.00657 9.00265 4.19753 9.19368 4.43262 9.31348C4.52316 9.35961 4.66032 9.40135 4.94727 9.42481C5.24315 9.44898 5.62778 9.4502 6.2002 9.4502H17.7998C18.3722 9.4502 18.7569 9.44898 19.0527 9.42481C19.3397 9.40135 19.4769 9.35961 19.5674 9.31348C19.8025 9.19368 19.9934 9.00265 20.1133 8.76758C20.1594 8.67706 20.2021 8.5398 20.2256 8.25293C20.2498 7.95706 20.25 7.57243 20.25 7V6.2002C20.25 5.62778 20.2498 5.24315 20.2256 4.94727C20.2021 4.66028 20.1594 4.52316 20.1133 4.43262C19.9935 4.19751 19.8025 4.00655 19.5674 3.88672C19.4768 3.84059 19.3397 3.79788 19.0527 3.77442C18.7569 3.75024 18.3722 3.75 17.7998 3.75H6.2002Z" fill="currentColor"/>
</svg>
