<svg width="24" height="24" viewBox="0 0 24 24" fill="none" xmlns="http://www.w3.org/2000/svg">
<path d="M19.1326 7.18051C19.4947 6.97945 19.952 7.10948 20.1531 7.47152C20.3539 7.8335 20.223 8.28993 19.8611 8.49105L12.7498 12.4422V20.3797C12.7497 20.7938 12.4139 21.1296 11.9998 21.1297C11.5857 21.1297 11.2499 20.7939 11.2498 20.3797V12.4422L4.13751 8.49105C3.77557 8.28986 3.64542 7.83354 3.84649 7.47152C4.0477 7.10956 4.50399 6.97938 4.86602 7.18051L11.9988 11.1424L19.1326 7.18051Z" fill="currentColor" opacity="0.3"/>
<path d="M19.1886 9.47142C19.1886 8.73507 19.1792 8.53745 19.1251 8.37376C19.0693 8.20482 18.9781 8.04953 18.8575 7.91868C18.7407 7.79186 18.572 7.68769 17.9278 7.32982L13.1896 4.697C12.5799 4.3583 12.4121 4.27505 12.2511 4.24193C12.085 4.2078 11.9132 4.20777 11.7472 4.24193C11.5863 4.27511 11.4186 4.3587 10.8097 4.697L6.07042 7.32982C5.42658 7.68751 5.25857 7.79192 5.14171 7.91868C5.02112 8.04955 4.92996 8.20479 4.87413 8.37376C4.82006 8.53747 4.81066 8.73493 4.81066 9.47142V14.5271C4.81066 15.2635 4.82011 15.4611 4.87413 15.6247C4.92996 15.7937 5.02112 15.949 5.14171 16.0798C5.25856 16.2066 5.42648 16.3109 6.07042 16.6687L10.8097 19.3015C11.4186 19.6398 11.5863 19.7234 11.7472 19.7566C11.9133 19.7907 12.085 19.7907 12.2511 19.7566C12.4121 19.7235 12.5799 19.6402 13.1896 19.3015L17.9278 16.6687C18.572 16.3108 18.7407 16.2066 18.8575 16.0798C18.9781 15.949 19.0693 15.7936 19.1251 15.6247C19.1791 15.4611 19.1886 15.2633 19.1886 14.5271V9.47142ZM20.6886 14.5271C20.6886 15.1605 20.6976 15.6481 20.5499 16.0954C20.4271 16.4672 20.2254 16.8085 19.9601 17.0964C19.6407 17.4429 19.2102 17.6725 18.6564 17.9802L13.9181 20.612C13.3934 20.9035 12.9933 21.1358 12.5538 21.2263C12.1883 21.3015 11.8109 21.3015 11.4454 21.2263C11.0058 21.1359 10.6059 20.9036 10.0812 20.612L5.34191 17.9802C4.78807 17.6725 4.3575 17.4429 4.0382 17.0964C3.77298 16.8086 3.57212 16.4671 3.44933 16.0954C3.30161 15.6481 3.31066 15.1605 3.31066 14.5271V9.47142C3.31065 8.83799 3.30156 8.35038 3.44933 7.90306C3.57214 7.53136 3.77293 7.18996 4.0382 6.90208C4.35744 6.55566 4.78823 6.32686 5.34191 6.01927L10.0812 3.38646C10.6059 3.09496 11.0058 2.86361 11.4454 2.77318C11.8109 2.698 12.1883 2.698 12.5538 2.77318C12.9933 2.86366 13.3935 3.09503 13.9181 3.38646L18.6564 6.01927C19.2101 6.32693 19.6408 6.5557 19.9601 6.90208C20.2254 7.18998 20.4271 7.53132 20.5499 7.90306C20.6976 8.35035 20.6886 8.83803 20.6886 9.47142V14.5271Z" fill="currentColor"/>
</svg>
