<svg width="24" height="24" viewBox="0 0 24 24" fill="none" xmlns="http://www.w3.org/2000/svg">
<path d="M20.0901 13.5437C20.0875 13.5001 20.0845 13.4804 20.0832 13.4743C20.0727 13.4415 20.0552 13.4104 20.0324 13.3845C20.0279 13.3802 20.0128 13.3671 19.9768 13.3425C19.9153 13.3006 19.8308 13.25 19.6819 13.1608L16.5891 11.3083L12.7502 13.4411V17.3112C12.8872 17.3734 13.0182 17.4464 13.1438 17.5144L16.0295 19.0769C16.1759 19.1561 16.2591 19.2009 16.3235 19.2312C16.3619 19.2492 16.3796 19.255 16.385 19.2565C16.4175 19.2631 16.4511 19.2631 16.4836 19.2565C16.4887 19.255 16.5064 19.2494 16.5451 19.2312C16.6095 19.2009 16.6927 19.1561 16.8391 19.0769L19.6496 17.5544C19.8097 17.4677 19.9007 17.418 19.967 17.3767C20.0063 17.3522 20.0228 17.3398 20.0276 17.3356C20.0521 17.3094 20.0709 17.278 20.0823 17.2439C20.0836 17.2378 20.0872 17.2171 20.0901 17.1706C20.0948 17.0927 20.0949 16.9891 20.0949 16.8073V13.8903C20.0949 13.7168 20.0944 13.6179 20.0901 13.5437ZM3.95139 16.8064L3.95628 17.1706C3.95905 17.2161 3.96267 17.2364 3.96409 17.2429C3.97547 17.2769 3.99427 17.3085 4.01878 17.3347C4.02307 17.3385 4.03891 17.3516 4.07932 17.3767C4.14576 17.4179 4.23727 17.4677 4.39768 17.5544L7.21702 19.0769C7.36337 19.1559 7.4466 19.201 7.51096 19.2312C7.54872 19.2489 7.56674 19.2548 7.57249 19.2565C7.60492 19.263 7.6387 19.2631 7.67112 19.2565C7.66534 19.2578 7.67789 19.2574 7.73362 19.2312C7.79787 19.2008 7.88062 19.1561 8.02659 19.0769L10.9035 17.5153C11.0149 17.4549 11.1301 17.3909 11.2502 17.3337V13.4411L7.43967 11.3239L4.36546 13.1618C4.21616 13.251 4.13113 13.3016 4.06956 13.3435C4.03259 13.3686 4.01801 13.3816 4.01389 13.3855C3.9911 13.4113 3.97363 13.4415 3.96311 13.4743C3.9652 13.4677 3.96011 13.4786 3.95628 13.5437C3.95191 13.618 3.95139 13.7173 3.95139 13.8913V16.8064ZM15.6897 6.03291C15.6869 5.98656 15.6832 5.96642 15.6819 5.96065C15.6707 5.92689 15.6522 5.89598 15.6282 5.86983C15.6234 5.86566 15.608 5.85235 15.5696 5.82784C15.5045 5.78639 15.4152 5.73644 15.258 5.64913L12.4465 4.0876C12.2977 4.00495 12.2133 3.95814 12.1477 3.92647C12.0902 3.89872 12.0778 3.89777 12.0842 3.89913C12.0511 3.89234 12.0168 3.89231 11.9836 3.89913C11.9905 3.89772 11.9782 3.89846 11.9201 3.92647C11.8545 3.95815 11.7701 4.00497 11.6213 4.0876L8.81077 5.64913C8.65336 5.73657 8.56337 5.78636 8.49827 5.82784C8.4596 5.85248 8.44424 5.86577 8.43967 5.86983C8.41557 5.89599 8.39713 5.92687 8.38596 5.96065C8.38465 5.96647 8.38094 5.98667 8.37815 6.03291C8.37352 6.10994 8.37327 6.21242 8.37327 6.39229V10.1267L12.0002 12.1413L15.6946 10.0896V6.39229C15.6946 6.21241 15.6943 6.10994 15.6897 6.03291ZM17.1946 9.92159L20.4524 11.8737C20.6933 12.018 20.9599 12.1679 21.1584 12.3933C21.318 12.5745 21.4384 12.7873 21.5119 13.0173C21.6034 13.3036 21.5949 13.6093 21.5949 13.8903V16.8073C21.5949 17.1017 21.6044 17.4221 21.5051 17.7194C21.4254 17.9579 21.295 18.1764 21.1233 18.3601C20.9091 18.5889 20.6233 18.7336 20.3645 18.8737L17.5539 20.3962C17.3171 20.5245 17.0629 20.6702 16.7795 20.7273C16.5517 20.7731 16.3169 20.7731 16.0891 20.7273C15.8059 20.6702 15.5523 20.5244 15.3157 20.3962L12.4289 18.8327C12.2825 18.7534 12.1994 18.7087 12.135 18.6784C12.0968 18.6605 12.079 18.6547 12.0735 18.653C12.041 18.6465 12.0073 18.6465 11.9748 18.653C11.97 18.6544 11.952 18.6597 11.9123 18.6784C11.848 18.7088 11.7647 18.7543 11.6184 18.8337L8.74241 20.3952C8.50578 20.5237 8.25222 20.67 7.96897 20.7273C7.74121 20.7733 7.50639 20.7728 7.27854 20.7273C6.99515 20.6705 6.74104 20.5252 6.50413 20.3972L3.68479 18.8737C3.42552 18.7337 3.13864 18.5891 2.92405 18.3601C2.75199 18.1763 2.62106 17.9572 2.54124 17.7185C2.46672 17.4953 2.45346 17.2593 2.45139 17.031V13.8913C2.45139 13.61 2.4427 13.3039 2.5344 13.0173C2.60807 12.7871 2.72905 12.5746 2.88889 12.3933C3.08784 12.1677 3.35448 12.018 3.59592 11.8737L6.87327 9.91475V6.39229C6.87327 6.10127 6.86381 5.78459 6.96116 5.48995C7.0393 5.25345 7.16739 5.03641 7.33616 4.85323C7.54645 4.62504 7.82785 4.47894 8.08225 4.3376L10.8928 2.77608C11.1339 2.64213 11.3925 2.4899 11.6819 2.43038C11.9144 2.38261 12.1545 2.38256 12.3869 2.43038C12.6761 2.48995 12.9341 2.64222 13.175 2.77608L15.9856 4.3376C16.24 4.47894 16.5214 4.62504 16.7317 4.85323C16.9005 5.03641 17.0285 5.25342 17.1067 5.48995C17.204 5.78459 17.1946 6.10126 17.1946 6.39229V9.92159Z" fill="currentColor"/>
</svg>
