<svg width="24" height="24" viewBox="0 0 24 24" fill="none" xmlns="http://www.w3.org/2000/svg">
<path fill-rule="evenodd" clip-rule="evenodd" d="M12.29 14.4492C12.9014 14.4492 13.4453 14.5917 13.918 14.8789L14.0938 14.9883C14.4916 15.2539 14.8069 15.6024 15.04 16.0322L15.1377 16.2168C15.3497 16.6545 15.4551 17.1458 15.4551 17.6895C15.4551 18.003 15.4186 18.303 15.3438 18.5889L15.2559 18.8701C15.1316 19.2048 14.9593 19.5067 14.7451 19.7793L15.1016 20.1094L15.1035 20.1113L15.2158 20.2412C15.3131 20.3731 15.3652 20.5125 15.3652 20.6592C15.3652 20.8642 15.3056 21.0351 15.1787 21.1621C15.0068 21.334 14.8083 21.4247 14.5859 21.4248C14.4048 21.4248 14.2454 21.3558 14.1123 21.2227L14.1113 21.2207L13.6074 20.6895C13.2006 20.8787 12.7613 20.9746 12.29 20.9746C11.6878 20.9745 11.1395 20.831 10.6475 20.5439L10.6465 20.543C10.1656 20.2462 9.78119 19.8473 9.49512 19.3467C9.21868 18.845 9.08008 18.2914 9.08008 17.6895C9.08008 17.068 9.21878 16.514 9.49609 16.0313C9.74662 15.6019 10.0718 15.2538 10.4717 14.9883L10.6484 14.8789C11.1307 14.592 11.6787 14.4493 12.29 14.4492ZM12.29 15.7842C11.7904 15.7843 11.3808 15.9616 11.0557 16.3154C10.7405 16.6693 10.5801 17.1251 10.5801 17.6895C10.5801 18.2536 10.7401 18.715 11.0557 19.0791C11.381 19.4427 11.7911 19.6239 12.29 19.624C12.3734 19.624 12.4548 19.6165 12.5342 19.6055L12.3906 19.4707C12.2149 19.3168 12.1251 19.1213 12.125 18.8897C12.125 18.6931 12.1862 18.5277 12.3125 18.4014C12.4666 18.2473 12.6556 18.1691 12.875 18.1689C13.0239 18.1689 13.1566 18.2075 13.2705 18.2832L13.3789 18.3711L13.3809 18.374L13.7148 18.7451C13.8739 18.4389 13.9551 18.088 13.9551 17.6895C13.9551 17.1246 13.7952 16.6684 13.4795 16.3145L13.4785 16.3135C13.1735 15.9608 12.7793 15.7842 12.29 15.7842Z" fill="currentColor"/>
<path d="M5.53516 14.4492C6.26814 14.4492 6.86262 14.6379 7.30957 15.0225C7.49316 15.174 7.58978 15.3585 7.58984 15.5742C7.58984 15.7575 7.51467 15.9173 7.37109 16.0498C7.2366 16.1731 7.07262 16.2344 6.88477 16.2344C6.74082 16.2343 6.60709 16.1955 6.48535 16.1182C6.11646 15.8852 5.73002 15.7695 5.3252 15.7695C5.08508 15.7695 4.88916 15.8176 4.7334 15.9092C4.58683 15.9954 4.51575 16.1203 4.51562 16.2939C4.51562 16.4635 4.61608 16.6079 4.85938 16.7207C5.12178 16.8373 5.50668 16.9463 6.01465 17.0459C6.30019 17.0969 6.5791 17.1886 6.85352 17.3203C7.14575 17.4456 7.38745 17.6391 7.5752 17.8994L7.64648 18.0039C7.80089 18.2573 7.875 18.5797 7.875 18.9648C7.87489 19.5568 7.64446 20.0419 7.1875 20.416C6.74138 20.7895 6.1691 20.9745 5.47559 20.9746C5.00745 20.9746 4.5681 20.8984 4.15918 20.7451L4.15723 20.7441C3.74896 20.5808 3.42298 20.3644 3.18359 20.0938C3.06232 19.9606 3 19.8023 3 19.624C3.0001 19.4326 3.07412 19.2638 3.2168 19.1211C3.36052 18.9774 3.53499 18.9043 3.73535 18.9043C3.92433 18.9043 4.08794 18.9716 4.22168 19.1045L4.35059 19.2129C4.48806 19.3146 4.65106 19.3985 4.83984 19.4639C5.09263 19.5514 5.33933 19.5947 5.58008 19.5947C5.82933 19.5947 6.04114 19.5417 6.21777 19.4395C6.38156 19.3349 6.46484 19.1757 6.46484 18.9492C6.46479 18.7657 6.3891 18.6296 6.23145 18.5332L6.22656 18.5313C6.10983 18.449 5.92559 18.375 5.66895 18.3145L5.3877 18.2588C4.65237 18.1379 4.08886 17.9349 3.70508 17.6445L3.7041 17.6436C3.31387 17.3377 3.12012 16.9094 3.12012 16.3691C3.12019 15.7869 3.34579 15.3193 3.79492 14.9746C4.24129 14.6222 4.82369 14.4492 5.53516 14.4492Z" fill="currentColor"/>
<path d="M17.7178 14.5244C17.9242 14.5244 18.0988 14.59 18.2344 14.7246L18.2852 14.7773C18.3972 14.9044 18.4531 15.0612 18.4531 15.2441V19.0693C18.4531 19.2077 18.488 19.2975 18.5439 19.3535C18.5999 19.4095 18.6897 19.4443 18.8281 19.4443H20.1631C20.3615 19.4443 20.5275 19.5114 20.6533 19.6484C20.7878 19.7738 20.8535 19.9382 20.8535 20.1348C20.8534 20.3332 20.7863 20.5028 20.6514 20.6377C20.5251 20.764 20.3596 20.8242 20.1631 20.8242H18.0029C17.6961 20.8242 17.4411 20.7282 17.2451 20.5322C17.0491 20.3362 16.9531 20.0812 16.9531 19.7744V15.2441C16.9532 15.0352 17.0256 14.8598 17.1719 14.7246C17.3175 14.5902 17.5017 14.5245 17.7178 14.5244Z" fill="currentColor"/>
<path fill-rule="evenodd" clip-rule="evenodd" d="M13.125 2C13.3239 2 13.5146 2.07908 13.6553 2.21973L19.0557 7.62012C19.1961 7.76073 19.2754 7.95167 19.2754 8.15039V12.4502C19.2753 12.8642 18.9394 13.2 18.5254 13.2002C18.1112 13.2002 17.7755 12.8643 17.7754 12.4502V8.89942H14.5654C14.3259 8.89942 14.1007 8.90008 13.9131 8.88477C13.7167 8.86873 13.4959 8.8315 13.2764 8.71973C12.966 8.56156 12.7129 8.30942 12.5547 7.99903C12.4429 7.77958 12.4057 7.55866 12.3896 7.36231C12.3743 7.17468 12.375 6.9495 12.375 6.70997V3.5H7.3252C6.75277 3.5 6.36814 3.50024 6.07227 3.52442C5.78527 3.54788 5.64816 3.59059 5.55762 3.63672C5.3225 3.75655 5.13155 3.94751 5.01172 4.18262C4.96559 4.27316 4.92288 4.41028 4.89941 4.69727C4.87524 4.99315 4.875 5.37778 4.875 5.9502V12.4502C4.87489 12.8643 4.53915 13.2002 4.125 13.2002C3.71085 13.2002 3.37511 12.8643 3.375 12.4502V5.9502C3.375 5.40253 3.37397 4.94633 3.4043 4.5752C3.43533 4.19547 3.50309 3.8391 3.6748 3.50196C3.93846 2.98451 4.35951 2.56346 4.87695 2.29981C5.21409 2.1281 5.57046 2.06033 5.9502 2.0293C6.32132 1.99898 6.77752 2 7.3252 2H13.125ZM13.875 6.70997C13.875 6.97383 13.8756 7.12689 13.8848 7.23926C13.8885 7.2846 13.8929 7.31084 13.8955 7.32325C13.9084 7.34601 13.9267 7.36463 13.9492 7.37793C13.9605 7.38042 13.9867 7.38569 14.0352 7.38965C14.1476 7.39883 14.3012 7.39942 14.5654 7.39942H16.7139L13.875 4.56055V6.70997Z" fill="currentColor"/>
</svg>
