<svg width="24" height="24" viewBox="0 0 24 24" fill="none" xmlns="http://www.w3.org/2000/svg">
<path d="M20.2333 3.74889C20.6555 4.15556 20.9333 4.69333 20.9978 5.27778C20.9978 5.52222 20.9333 5.68444 20.7866 5.99333C20.64 6.30222 18.8333 9.42667 18.2956 10.2889C17.9867 10.7933 17.8244 11.3956 17.8244 11.9822C17.8244 12.5689 17.9867 13.1711 18.2956 13.6756C18.8333 14.5378 20.64 17.68 20.7866 17.9889C20.9333 18.2978 20.9978 18.4444 20.9978 18.6889C20.9333 19.2756 20.6733 19.8111 20.2489 20.2022C19.8422 20.6244 19.3044 20.9022 18.7355 20.9511C18.4911 20.9511 18.3289 20.8867 18.0355 20.74C17.7422 20.5933 14.5533 18.8356 13.6911 18.2978C13.6267 18.2644 13.56 18.2156 13.48 18.1844L9.21556 15.6622C9.31333 16.4756 9.67109 17.2578 10.2578 17.8267C10.3711 17.94 10.4866 18.0378 10.6155 18.1356C10.5178 18.1844 10.4044 18.2333 10.3067 18.2978C9.44444 18.8356 6.30222 20.6422 5.99333 20.7889C5.68444 20.9356 5.53778 21 5.27778 21C4.69111 20.9356 4.15554 20.6756 3.76443 20.2511C3.34221 19.8444 3.06444 19.3067 3 18.7222C3.01556 18.4778 3.08221 18.2333 3.2111 18.0222C3.35777 17.7133 5.16442 14.5711 5.7022 13.7089C6.01109 13.2044 6.17331 12.6178 6.17331 12.0156C6.17331 11.4133 6.01109 10.8267 5.7022 10.3222C5.16442 9.42667 3.34221 6.28667 3.2111 5.97778C3.07999 5.76667 3.01556 5.52222 3 5.27778C3.06444 4.69111 3.32444 4.15556 3.74889 3.74889C4.15333 3.32444 4.68889 3.06444 5.27556 3C5.52 3.01556 5.76444 3.08222 5.99111 3.21111C6.25111 3.32444 8.54667 4.66 9.76667 5.37556L10.0444 5.53778C10.1422 5.60222 10.2244 5.65111 10.2889 5.68444L10.42 5.76667L14.7644 8.33778C14.6666 7.36222 14.1622 6.46667 13.38 5.86444C13.4778 5.81556 13.5911 5.76667 13.6889 5.70222C14.5511 5.16444 17.6933 3.34222 18.0022 3.21111C18.2133 3.08222 18.4578 3.01556 18.7178 3C19.2867 3.06444 19.8244 3.32444 20.2311 3.74889H20.2333ZM12.2266 13.1556L13.1533 12.2289C13.2844 12.0978 13.2844 11.9044 13.1533 11.7733L12.2266 10.8467C12.0955 10.7156 11.9022 10.7156 11.7711 10.8467L10.8444 11.7733C10.7133 11.9044 10.7133 12.0978 10.8444 12.2289L11.7711 13.1556C11.8844 13.2689 12.0955 13.2689 12.2266 13.1556ZM20.2333 3.74889C20.6555 4.15556 20.9333 4.69333 20.9978 5.27778C20.9978 5.52222 20.9333 5.68444 20.7866 5.99333C20.64 6.30222 18.8333 9.42667 18.2956 10.2889C17.9867 10.7933 17.8244 11.3956 17.8244 11.9822C17.8244 12.5689 17.9867 13.1711 18.2956 13.6756C18.8333 14.5378 20.64 17.68 20.7866 17.9889C20.9333 18.2978 20.9978 18.4444 20.9978 18.6889C20.9333 19.2756 20.6733 19.8111 20.2489 20.2022C19.8422 20.6244 19.3044 20.9022 18.7355 20.9511C18.4911 20.9511 18.3289 20.8867 18.0355 20.74C17.7422 20.5933 14.5533 18.8356 13.6911 18.2978C13.6267 18.2644 13.56 18.2156 13.48 18.1844L9.21556 15.6622C9.31333 16.4756 9.67109 17.2578 10.2578 17.8267C10.3711 17.94 10.4866 18.0378 10.6155 18.1356C10.5178 18.1844 10.4044 18.2333 10.3067 18.2978C9.44444 18.8356 6.30222 20.6422 5.99333 20.7889C5.68444 20.9356 5.53778 21 5.27778 21C4.69111 20.9356 4.15554 20.6756 3.76443 20.2511C3.34221 19.8444 3.06444 19.3067 3 18.7222C3.01556 18.4778 3.08221 18.2333 3.2111 18.0222C3.35777 17.7133 5.16442 14.5711 5.7022 13.7089C6.01109 13.2044 6.17331 12.6178 6.17331 12.0156C6.17331 11.4133 6.01109 10.8267 5.7022 10.3222C5.16442 9.42667 3.34221 6.28667 3.2111 5.97778C3.07999 5.76667 3.01556 5.52222 3 5.27778C3.06444 4.69111 3.32444 4.15556 3.74889 3.74889C4.15333 3.32444 4.68889 3.06444 5.27556 3C5.52 3.01556 5.76444 3.08222 5.99111 3.21111C6.25111 3.32444 8.54667 4.66 9.76667 5.37556L10.0444 5.53778C10.1422 5.60222 10.2244 5.65111 10.2889 5.68444L10.42 5.76667L14.7644 8.33778C14.6666 7.36222 14.1622 6.46667 13.38 5.86444C13.4778 5.81556 13.5911 5.76667 13.6889 5.70222C14.5511 5.16444 17.6933 3.34222 18.0022 3.21111C18.2133 3.08222 18.4578 3.01556 18.7178 3C19.2867 3.06444 19.8244 3.32444 20.2311 3.74889H20.2333ZM12.2266 13.1556L13.1533 12.2289C13.2844 12.0978 13.2844 11.9044 13.1533 11.7733L12.2266 10.8467C12.0955 10.7156 11.9022 10.7156 11.7711 10.8467L10.8444 11.7733C10.7133 11.9044 10.7133 12.0978 10.8444 12.2289L11.7711 13.1556C11.8844 13.2689 12.0955 13.2689 12.2266 13.1556Z" fill="#FF694A"/>
</svg>
