<svg width="24" height="24" viewBox="0 0 24 24" fill="none" xmlns="http://www.w3.org/2000/svg">
<path fill-rule="evenodd" clip-rule="evenodd" d="M3.82617 8.51062C3.82946 8.51096 3.83265 8.5122 3.83594 8.51257C3.87217 8.51671 3.90693 8.52593 3.94141 8.53504C3.97046 8.54276 3.99989 8.54999 4.02832 8.5614C4.03592 8.56444 4.04331 8.56789 4.05078 8.57117C4.0721 8.58055 4.09349 8.59088 4.11426 8.60242L11.2588 12.5712C11.273 12.5791 11.2863 12.5889 11.2998 12.5975C11.3067 12.602 11.3145 12.6055 11.3213 12.6102C11.348 12.6287 11.3719 12.6505 11.3955 12.6718C11.4184 12.6925 11.4397 12.7148 11.46 12.7382C11.4728 12.7531 11.4855 12.7683 11.4971 12.7841C11.5142 12.8074 11.5295 12.832 11.5439 12.8573C11.5526 12.8726 11.5608 12.8883 11.5684 12.9042C11.5818 12.9322 11.5926 12.9613 11.6025 12.9911C11.6079 13.0073 11.6139 13.0234 11.6182 13.0399C11.6336 13.0999 11.6455 13.1626 11.6455 13.2274V20.7684C11.6455 20.7952 11.6434 20.8215 11.6406 20.8475C11.6335 20.9542 11.6062 21.0613 11.5508 21.161C11.3496 21.523 10.8923 21.6531 10.5303 21.452L3.38574 17.4833C3.14768 17.351 3.00004 17.0994 3 16.827V9.25769C3 9.23172 3.00035 9.20584 3.00293 9.18054C3.00307 9.17922 3.00376 9.17796 3.00391 9.17664L3.01562 9.10632C3.01795 9.09498 3.02256 9.08427 3.02539 9.07312C3.0339 9.03977 3.04231 9.00605 3.05566 8.97351C3.05672 8.97094 3.05751 8.96826 3.05859 8.9657L3.09473 8.89343C3.10307 8.87843 3.1119 8.86369 3.12109 8.84949C3.12459 8.84411 3.12723 8.83817 3.13086 8.83289C3.1515 8.80272 3.176 8.77613 3.2002 8.74988C3.21743 8.73122 3.23585 8.71397 3.25488 8.69714C3.27289 8.68123 3.29126 8.66621 3.31055 8.65222C3.32978 8.63824 3.34957 8.6253 3.37012 8.61316C3.39093 8.60092 3.41179 8.58912 3.43359 8.57898C3.4558 8.56861 3.47863 8.55983 3.50195 8.55164C3.52417 8.54384 3.5465 8.53681 3.56934 8.53113C3.60622 8.52199 3.6438 8.51408 3.68262 8.51062C3.6852 8.51039 3.68784 8.51083 3.69043 8.51062C3.7101 8.50907 3.72993 8.50769 3.75 8.50769C3.77569 8.50769 3.80115 8.5081 3.82617 8.51062ZM4.5 16.3856L10.1455 19.5223V13.6688L4.5 10.5311V16.3856Z" fill="currentColor"/>
<path fill-rule="evenodd" clip-rule="evenodd" d="M20.8975 8.51062C20.9013 8.51091 20.9053 8.51027 20.9092 8.51062C20.9463 8.51403 20.9823 8.52154 21.0176 8.53015C21.0445 8.53665 21.0706 8.54514 21.0967 8.55457C21.1149 8.56123 21.1329 8.56805 21.1504 8.57605C21.1786 8.58879 21.2049 8.60476 21.2314 8.62097C21.245 8.6293 21.2586 8.63722 21.2715 8.64636C21.2984 8.66523 21.3232 8.68633 21.3477 8.70886C21.3588 8.71922 21.3703 8.7291 21.3809 8.74011C21.4245 8.78564 21.465 8.83572 21.4971 8.89343C21.5329 8.95794 21.555 9.02609 21.5703 9.09461C21.5728 9.10562 21.5752 9.11662 21.5771 9.12781C21.5829 9.16042 21.5865 9.19275 21.5879 9.22546C21.5883 9.23613 21.5898 9.24692 21.5898 9.25769V16.827C21.5898 17.0993 21.4421 17.351 21.2041 17.4833L14.0596 21.452C13.6976 21.6531 13.2413 21.5228 13.04 21.161C12.9794 21.0519 12.9514 20.934 12.9482 20.8173C12.9472 20.8011 12.9463 20.7848 12.9463 20.7684V13.2274C12.9463 13.1626 12.9582 13.0999 12.9736 13.0399C12.9779 13.0234 12.9839 13.0073 12.9893 12.9911C12.9992 12.9613 13.01 12.9322 13.0234 12.9042C13.031 12.8883 13.0392 12.8726 13.0479 12.8573C13.0623 12.832 13.0776 12.8074 13.0947 12.7841C13.1063 12.7683 13.119 12.7531 13.1318 12.7382C13.1521 12.7148 13.1734 12.6925 13.1963 12.6718C13.2199 12.6505 13.2438 12.6287 13.2705 12.6102C13.2773 12.6055 13.2851 12.602 13.292 12.5975C13.3055 12.5889 13.3188 12.5791 13.333 12.5712L20.4775 8.60242C20.4913 8.59477 20.5055 8.58763 20.5195 8.58093C20.5362 8.57301 20.553 8.56517 20.5703 8.55847C20.5966 8.54823 20.6236 8.54117 20.6504 8.53406C20.6855 8.52489 20.7209 8.51562 20.7578 8.5116C20.7595 8.51141 20.7611 8.51079 20.7627 8.51062C20.788 8.50803 20.8139 8.5077 20.8398 8.50769C20.8593 8.5077 20.8784 8.50917 20.8975 8.51062ZM14.4463 13.6688V19.5214L20.0898 16.3856V10.5331L14.4463 13.6688Z" fill="currentColor"/>
<path fill-rule="evenodd" clip-rule="evenodd" d="M11.9199 2.10046C12.152 1.9665 12.4379 1.96652 12.6699 2.10046L19.8105 6.22254C19.9463 6.28514 20.0651 6.388 20.1455 6.52722C20.1771 6.582 20.1983 6.6399 20.2148 6.69812C20.2197 6.71484 20.2229 6.73188 20.2266 6.7489C20.2326 6.77759 20.2376 6.80595 20.2402 6.83484C20.2425 6.8579 20.2421 6.88091 20.2422 6.90418C20.2421 6.92745 20.2425 6.95044 20.2402 6.97351C20.2377 7.0024 20.2325 7.03075 20.2266 7.05945C20.2229 7.07649 20.2197 7.09349 20.2148 7.11023C20.1983 7.16868 20.1772 7.2271 20.1455 7.28211C20.1066 7.34948 20.0553 7.40486 20.001 7.45496C19.9952 7.46022 19.9903 7.46645 19.9844 7.47156C19.9494 7.50176 19.9124 7.5277 19.873 7.55066C19.8542 7.56165 19.8361 7.57459 19.8164 7.58386L12.6729 11.7079C12.6188 11.7391 12.5612 11.7597 12.5039 11.7762C12.4853 11.7817 12.4663 11.785 12.4473 11.7889C12.4202 11.7945 12.3935 11.8001 12.3662 11.8026C12.3428 11.8049 12.3195 11.8045 12.2959 11.8046C12.272 11.8045 12.2483 11.805 12.2246 11.8026C12.198 11.8001 12.1719 11.7953 12.1455 11.7899C12.1258 11.7858 12.1062 11.7819 12.0869 11.7762C12.03 11.7597 11.9735 11.7388 11.9199 11.7079L4.77539 7.58289C4.71457 7.55418 4.65923 7.51539 4.60742 7.47058C4.60128 7.46532 4.59578 7.45941 4.58984 7.45398C4.53571 7.40398 4.48509 7.34829 4.44629 7.28113C4.41505 7.22698 4.39349 7.16968 4.37695 7.11218C4.37161 7.09387 4.3682 7.07518 4.36426 7.05652C4.35855 7.0288 4.3531 7.00141 4.35059 6.97351C4.34833 6.95015 4.34869 6.92677 4.34863 6.9032C4.34874 6.87964 4.34828 6.85625 4.35059 6.83289C4.3531 6.80563 4.35869 6.77892 4.36426 6.75183C4.36826 6.73286 4.3715 6.7138 4.37695 6.69519C4.39349 6.63793 4.41516 6.58116 4.44629 6.52722C4.48603 6.4584 4.53699 6.40028 4.59277 6.34949C4.59602 6.34656 4.59923 6.34358 4.60254 6.3407C4.65557 6.29411 4.71275 6.25403 4.77539 6.22449L11.9199 2.10046ZM6.59863 6.9032L12.2959 10.1932L17.9912 6.90418L12.2949 3.61511L6.59863 6.9032Z" fill="currentColor"/>
</svg>
