<svg width="24" height="24" viewBox="0 0 24 24" fill="none" xmlns="http://www.w3.org/2000/svg">
<path d="M16.1006 2.25C16.6479 2.25 17.1036 2.24902 17.4746 2.2793C17.8545 2.31034 18.2116 2.37797 18.5488 2.54981C19.0663 2.81346 19.4873 3.23452 19.751 3.75196C19.9226 4.08904 19.9895 4.44555 20.0205 4.8252C20.0508 5.19633 20.0508 5.65253 20.0508 6.2002V10.6504C20.0506 11.0643 19.7147 11.4002 19.3008 11.4004C18.8867 11.4004 18.551 11.0644 18.5508 10.6504V6.2002C18.5508 5.62778 18.5496 5.24315 18.5254 4.94727C18.5019 4.66036 18.4602 4.52316 18.4141 4.43262C18.2943 4.19756 18.1032 4.00658 17.8682 3.88672C17.7776 3.84058 17.6397 3.79788 17.3525 3.77442C17.0568 3.75028 16.6726 3.75 16.1006 3.75H8.10059C7.52817 3.75 7.14354 3.75024 6.84766 3.77442C6.56067 3.79788 6.42355 3.84059 6.33301 3.88672C6.0979 4.00655 5.90694 4.19751 5.78711 4.43262C5.74098 4.52316 5.69827 4.66028 5.67481 4.94727C5.65063 5.24315 5.65039 5.62778 5.65039 6.2002V17.7998C5.65039 18.3722 5.65064 18.7569 5.67481 19.0527C5.69827 19.3397 5.74098 19.4768 5.78711 19.5674C5.90694 19.8025 6.0979 19.9935 6.33301 20.1133C6.42355 20.1594 6.56067 20.2021 6.84766 20.2256C7.14354 20.2498 7.52817 20.25 8.10059 20.25H11.6504C12.0646 20.25 12.4004 20.5858 12.4004 21C12.4004 21.4142 12.0646 21.75 11.6504 21.75H8.10059C7.55292 21.75 7.09672 21.751 6.72559 21.7207C6.34586 21.6897 5.98949 21.6219 5.65235 21.4502C5.13491 21.1865 4.71385 20.7655 4.4502 20.2481C4.27849 19.9109 4.21072 19.5545 4.17969 19.1748C4.14937 18.8037 4.15039 18.3475 4.15039 17.7998V6.2002C4.15039 5.65253 4.14937 5.19633 4.17969 4.8252C4.21072 4.44547 4.27849 4.0891 4.4502 3.75196C4.71385 3.23451 5.1349 2.81346 5.65235 2.54981C5.98949 2.3781 6.34586 2.31033 6.72559 2.2793C7.09672 2.24898 7.55292 2.25 8.10059 2.25H16.1006Z" fill="currentColor"/>
<path fill-rule="evenodd" clip-rule="evenodd" d="M17.5 13.5C19.6537 13.5002 21.3994 15.2466 21.3994 17.4004C21.3993 18.206 21.1539 18.9538 20.7354 19.5752L21.6299 20.4697C21.9227 20.7626 21.9228 21.2374 21.6299 21.5303C21.337 21.8232 20.8622 21.8231 20.5693 21.5303L19.6748 20.6357C19.0534 21.0543 18.3056 21.2997 17.5 21.2998C15.3462 21.2998 13.5998 19.5541 13.5996 17.4004C13.5996 15.2465 15.3461 13.5 17.5 13.5ZM17.5 15C16.1745 15 15.0996 16.0749 15.0996 17.4004C15.0998 18.7257 16.1747 19.7998 17.5 19.7998C18.8252 19.7996 19.8992 18.7256 19.8994 17.4004C19.8994 16.075 18.8253 15.0002 17.5 15Z" fill="currentColor"/>
<path d="M10.2998 13.9492C10.714 13.9492 11.0498 14.285 11.0498 14.6992C11.0498 15.1134 10.714 15.4492 10.2998 15.4492H8.5C8.08579 15.4492 7.75 15.1134 7.75 14.6992C7.75001 14.285 8.08579 13.9492 8.5 13.9492H10.2998Z" fill="currentColor"/>
<path d="M13.9004 10.3496C14.3144 10.3498 14.6504 10.6855 14.6504 11.0996C14.6504 11.5137 14.3144 11.8494 13.9004 11.8496H8.5C8.08579 11.8496 7.75 11.5138 7.75 11.0996C7.75001 10.6854 8.08579 10.3496 8.5 10.3496H13.9004Z" fill="currentColor"/>
<path d="M15.7002 6.75C16.1143 6.75011 16.4502 7.08586 16.4502 7.5C16.4502 7.91415 16.1143 8.2499 15.7002 8.25H8.5C8.08579 8.25 7.75 7.91422 7.75 7.5C7.75001 7.08579 8.08579 6.75001 8.5 6.75H15.7002Z" fill="currentColor"/>
</svg>
