<svg width="24" height="24" viewBox="0 0 24 24" fill="none" xmlns="http://www.w3.org/2000/svg">
<path fill-rule="evenodd" clip-rule="evenodd" d="M15.999 2.25C16.5464 2.25 17.0021 2.24902 17.3731 2.2793C17.7529 2.31034 18.11 2.37797 18.4473 2.54981C18.9647 2.81346 19.3858 3.23452 19.6494 3.75196C19.8211 4.08903 19.8879 4.44555 19.9189 4.8252C19.9493 5.19633 19.9492 5.65253 19.9492 6.2002V17.7998C19.9492 18.3475 19.9493 18.8037 19.9189 19.1748C19.8879 19.5545 19.8211 19.911 19.6494 20.2481C19.3858 20.7655 18.9647 21.1865 18.4473 21.4502C18.11 21.622 17.7529 21.6897 17.3731 21.7207C17.0021 21.751 16.5464 21.75 15.999 21.75H7.99903C7.45136 21.75 6.99515 21.751 6.62403 21.7207C6.2443 21.6897 5.88792 21.6219 5.55079 21.4502C5.03335 21.1865 4.61229 20.7655 4.34864 20.2481C4.17693 19.9109 4.10916 19.5545 4.07813 19.1748C4.04781 18.8037 4.04883 18.3475 4.04883 17.7998V6.2002C4.04883 5.65253 4.04781 5.19633 4.07813 4.8252C4.10916 4.44547 4.17693 4.0891 4.34864 3.75196C4.61229 3.23452 5.03334 2.81346 5.55079 2.54981C5.88792 2.3781 6.2443 2.31033 6.62403 2.2793C6.99515 2.24898 7.45136 2.25 7.99903 2.25H15.999ZM8.39942 13.9502C7.98521 13.9502 7.64942 14.286 7.64942 14.7002C7.64942 15.1144 7.9852 15.4502 8.39942 15.4502H10.1992C10.6132 15.4499 10.9492 15.1143 10.9492 14.7002C10.9492 14.2861 10.6132 13.9505 10.1992 13.9502H8.39942ZM8.39942 10.3496C7.98521 10.3496 7.64942 10.6854 7.64942 11.0996C7.64942 11.5138 7.9852 11.8496 8.39942 11.8496H13.7998C14.2136 11.8491 14.5498 11.5135 14.5498 11.0996C14.5498 10.6857 14.2136 10.3501 13.7998 10.3496H8.39942ZM8.39942 6.75C7.98521 6.75 7.64942 7.08579 7.64942 7.5C7.64942 7.91422 7.9852 8.25 8.39942 8.25H15.5996C16.0135 8.24964 16.3496 7.91399 16.3496 7.5C16.3496 7.08602 16.0135 6.75037 15.5996 6.75H8.39942Z" fill="currentColor"/>
</svg>
