<svg width="24" height="24" viewBox="0 0 24 24" fill="none" xmlns="http://www.w3.org/2000/svg">
<path d="M8.7998 16.5996C9.79392 16.5996 10.5996 17.4063 10.5996 18.4004C10.5994 19.3943 9.79379 20.2002 8.7998 20.2002C7.80591 20.2001 7.00021 19.3943 7 18.4004C7 17.4063 7.80578 16.5997 8.7998 16.5996Z" fill="currentColor"/>
<path d="M15.7998 16.5996C16.7939 16.5996 17.5996 17.4063 17.5996 18.4004C17.5994 19.3943 16.7938 20.2002 15.7998 20.2002C14.8059 20.2001 14.0002 19.3943 14 18.4004C14 17.4063 14.8058 16.5997 15.7998 16.5996Z" fill="currentColor"/>
<path d="M8.7998 10.2998C9.79379 10.2998 10.5994 11.1057 10.5996 12.0996C10.5996 13.0937 9.79392 13.9004 8.7998 13.9004C7.80578 13.9003 7 13.0937 7 12.0996C7.00021 11.1057 7.80591 10.2999 8.7998 10.2998Z" fill="currentColor"/>
<path d="M15.7998 10.2998C16.7938 10.2998 17.5994 11.1057 17.5996 12.0996C17.5996 13.0937 16.7939 13.9004 15.7998 13.9004C14.8058 13.9003 14 13.0937 14 12.0996C14.0002 11.1057 14.8059 10.2999 15.7998 10.2998Z" fill="currentColor"/>
<path d="M8.7998 4C9.79385 4 10.5995 4.80578 10.5996 5.7998C10.5996 6.79392 9.79392 7.59961 8.7998 7.59961C7.80578 7.5995 7 6.79385 7 5.7998C7.00011 4.80585 7.80585 4.00011 8.7998 4Z" fill="currentColor"/>
<path d="M15.7998 4C16.7939 4 17.5995 4.80578 17.5996 5.7998C17.5996 6.79392 16.7939 7.59961 15.7998 7.59961C14.8058 7.5995 14 6.79385 14 5.7998C14.0001 4.80585 14.8058 4.00011 15.7998 4Z" fill="currentColor"/>
</svg>
