<svg width="24" height="24" viewBox="0 0 24 24" fill="none" xmlns="http://www.w3.org/2000/svg">
<path d="M12.0273 2.25098C12.0339 2.25121 12.0404 2.25155 12.0469 2.25195C12.0849 2.2543 12.1219 2.25978 12.1582 2.26758C12.1878 2.27392 12.2163 2.284 12.2451 2.29395C12.2606 2.29933 12.277 2.30224 12.292 2.30859L12.2998 2.3125C12.3837 2.34899 12.4626 2.40111 12.5312 2.46973L15.2314 5.16992C15.524 5.46278 15.5241 5.93767 15.2314 6.23047C14.9387 6.52326 14.4638 6.52305 14.1709 6.23047L12.75 4.80957V11.25H19.1895L17.7705 9.83105C17.4776 9.53816 17.4776 9.0634 17.7705 8.77051C18.0634 8.47761 18.5382 8.47761 18.8311 8.77051L21.5312 11.4707C21.5873 11.5268 21.6295 11.5913 21.6641 11.6582C21.6732 11.6759 21.6847 11.6925 21.6924 11.7109C21.7155 11.7661 21.7299 11.8236 21.7393 11.8818C21.7454 11.9204 21.751 11.9607 21.751 12.001C21.7509 12.0396 21.7449 12.0772 21.7393 12.1143C21.716 12.2667 21.6486 12.4139 21.5312 12.5312L18.8311 15.2314C18.5382 15.5241 18.0634 15.524 17.7705 15.2314C17.4777 14.9386 17.4778 14.4638 17.7705 14.1709L19.1914 12.75H12.75V19.1914L14.1709 17.7705C14.4638 17.4778 14.9386 17.4777 15.2314 17.7705C15.524 18.0634 15.5241 18.5382 15.2314 18.8311L12.5312 21.5312C12.4139 21.6486 12.2667 21.716 12.1143 21.7393C12.0772 21.7449 12.0396 21.7509 12.001 21.751C11.9607 21.751 11.9204 21.7454 11.8818 21.7393C11.8236 21.7299 11.7661 21.7155 11.7109 21.6924C11.6925 21.6847 11.6759 21.6732 11.6582 21.6641C11.5913 21.6295 11.5268 21.5873 11.4707 21.5312L8.77051 18.8311C8.47761 18.5382 8.47761 18.0634 8.77051 17.7705C9.0634 17.4776 9.53816 17.4776 9.83105 17.7705L11.25 19.1895V12.75H4.80957L6.23047 14.1709C6.52296 14.4638 6.52323 14.9387 6.23047 15.2314C5.9377 15.5241 5.46281 15.5239 5.16992 15.2314L2.46973 12.5312C2.40918 12.4707 2.36363 12.401 2.32812 12.3281C2.32149 12.3146 2.31247 12.3021 2.30664 12.2881C2.28548 12.2369 2.27108 12.1837 2.26172 12.1299C2.25434 12.0877 2.25 12.0443 2.25 12C2.25 11.9543 2.25486 11.9097 2.2627 11.8662C2.26352 11.8617 2.26374 11.8571 2.26465 11.8525C2.26946 11.8284 2.27808 11.8055 2.28516 11.7822C2.2919 11.7601 2.29683 11.7374 2.30566 11.7158C2.32693 11.6639 2.35491 11.6156 2.38672 11.5703C2.40894 11.5387 2.43328 11.5081 2.46094 11.4795C2.46558 11.4747 2.46984 11.4695 2.47461 11.4648L5.16992 8.77051C5.46282 8.47771 5.93761 8.47765 6.23047 8.77051C6.52313 9.06339 6.5232 9.53822 6.23047 9.83105L4.81152 11.25H11.25V4.81152L9.83105 6.23047C9.53819 6.52322 9.06338 6.52321 8.77051 6.23047C8.47765 5.93761 8.47771 5.46282 8.77051 5.16992L11.4648 2.47461C11.4695 2.46984 11.4747 2.46558 11.4795 2.46094L11.5273 2.41797C11.5361 2.41086 11.5457 2.40509 11.5547 2.39844C11.573 2.38487 11.5918 2.37224 11.6113 2.36035C11.6324 2.34751 11.6538 2.33577 11.6758 2.3252C11.6961 2.3154 11.717 2.30679 11.7383 2.29883C11.7627 2.28973 11.7875 2.28284 11.8125 2.27637C11.8401 2.26924 11.8677 2.26178 11.8965 2.25781C11.8991 2.25744 11.9017 2.2562 11.9043 2.25586C11.9356 2.25187 11.9676 2.25 12 2.25C12.0092 2.25 12.0183 2.25065 12.0273 2.25098Z" fill="currentColor"/>
</svg>
