<svg width="24" height="24" viewBox="0 0 24 24" fill="none" xmlns="http://www.w3.org/2000/svg">
<path d="M19.7305 7.32812C20.1012 7.14397 20.5519 7.29542 20.7363 7.66602C21.3855 8.97226 21.7499 10.4449 21.75 12C21.75 17.3848 17.3848 21.75 12 21.75C6.61522 21.75 2.25 17.3848 2.25 12C2.25006 10.4449 2.61452 8.97226 3.26367 7.66602C3.44811 7.29542 3.89876 7.14397 4.26953 7.32812C4.64029 7.51244 4.79151 7.96314 4.60742 8.33398C4.05907 9.43743 3.75006 10.6817 3.75 12C3.75 16.5563 7.44365 20.25 12 20.25C16.5563 20.25 20.25 16.5563 20.25 12C20.2499 10.6817 19.9409 9.43743 19.3926 8.33398C19.2085 7.96314 19.3597 7.51244 19.7305 7.32812ZM12 2.25C12.414 2.25021 12.7499 2.58599 12.75 3V13.7891L15.0693 11.4697C15.3622 11.1769 15.837 11.177 16.1299 11.4697C16.4226 11.7626 16.4227 12.2374 16.1299 12.5303L12.5303 16.1299C12.2374 16.4227 11.7626 16.4226 11.4697 16.1299L7.86914 12.5303C7.5765 12.2375 7.57659 11.7626 7.86914 11.4697C8.16198 11.1769 8.63678 11.177 8.92969 11.4697L11.25 13.79V3C11.2501 2.58591 11.5859 2.25008 12 2.25Z" fill="currentColor"/>
</svg>
