<svg width="24" height="24" viewBox="0 0 24 24" fill="none" xmlns="http://www.w3.org/2000/svg">
<path d="M12 2.25C17.3848 2.25 21.75 6.61522 21.75 12C21.75 17.3848 17.3848 21.75 12 21.75C10.4449 21.7499 8.97226 21.3855 7.66602 20.7363C7.29542 20.5519 7.14397 20.1012 7.32812 19.7305C7.51244 19.3597 7.96314 19.2085 8.33398 19.3926C9.43743 19.9409 10.6817 20.2499 12 20.25C16.5563 20.25 20.25 16.5563 20.25 12C20.25 7.44365 16.5563 3.75 12 3.75C10.6817 3.75006 9.43743 4.05907 8.33398 4.60742C7.96314 4.79151 7.51244 4.64029 7.32812 4.26953C7.14397 3.89876 7.29542 3.44811 7.66602 3.26367C8.97226 2.61452 10.4449 2.25006 12 2.25ZM11.4697 7.87012C11.7626 7.57742 12.2374 7.57729 12.5303 7.87012L16.1299 11.4697C16.4227 11.7626 16.4226 12.2374 16.1299 12.5303L12.5303 16.1309C12.2375 16.4235 11.7626 16.4234 11.4697 16.1309C11.1769 15.838 11.177 15.3632 11.4697 15.0703L13.79 12.75H3C2.58591 12.7499 2.25008 12.4141 2.25 12C2.25021 11.586 2.58599 11.2501 3 11.25H13.7891L11.4697 8.93066C11.1769 8.63782 11.177 8.16302 11.4697 7.87012Z" fill="currentColor"/>
</svg>
