<svg width="24" height="24" viewBox="0 0 24 24" fill="none" xmlns="http://www.w3.org/2000/svg">
<path d="M14.6992 11.25C15.1134 11.25 15.4492 11.5858 15.4492 12V13.9492H17.4004C17.8144 13.9494 18.1504 14.2851 18.1504 14.6992C18.1504 15.1133 17.8144 15.449 17.4004 15.4492H15.4492V17.4004C15.449 17.8144 15.1133 18.1504 14.6992 18.1504C14.2851 18.1504 13.9494 17.8144 13.9492 17.4004V15.4492H12C11.5858 15.4492 11.25 15.1134 11.25 14.6992C11.25 14.285 11.5858 13.9492 12 13.9492H13.9492V12C13.9492 11.5858 14.285 11.25 14.6992 11.25Z" fill="currentColor"/>
<path fill-rule="evenodd" clip-rule="evenodd" d="M12.4004 2.25C12.9478 2.25 13.4034 2.24901 13.7744 2.2793C14.1543 2.31034 14.5114 2.37797 14.8486 2.54981C15.366 2.81346 15.7862 3.23457 16.0498 3.75196C16.2216 4.08913 16.2893 4.44542 16.3203 4.8252C16.3506 5.19633 16.3496 5.65253 16.3496 6.2002V7.65039H17.8008C18.3481 7.65039 18.8038 7.6494 19.1748 7.67969C19.5547 7.71073 19.9118 7.77836 20.249 7.9502C20.7664 8.21385 21.1866 8.63496 21.4502 9.15235C21.622 9.48952 21.6897 9.84581 21.7207 10.2256C21.751 10.5967 21.75 11.0529 21.75 11.6006V17.8008C21.75 18.3482 21.751 18.8038 21.7207 19.1748C21.6897 19.5547 21.622 19.9118 21.4502 20.249C21.1866 20.7662 20.7662 21.1866 20.249 21.4502C19.9118 21.622 19.5547 21.6897 19.1748 21.7207C18.8038 21.751 18.3482 21.75 17.8008 21.75H11.6006C11.0529 21.75 10.5967 21.751 10.2256 21.7207C9.84581 21.6897 9.48952 21.622 9.15235 21.4502C8.63496 21.1866 8.21385 20.7664 7.9502 20.249C7.77836 19.9118 7.71073 19.5547 7.67969 19.1748C7.6494 18.8038 7.65039 18.3481 7.65039 17.8008V16.3496H6.2002C5.65253 16.3496 5.19633 16.3506 4.8252 16.3203C4.44542 16.2893 4.08913 16.2216 3.75196 16.0498C3.23457 15.7862 2.81346 15.366 2.54981 14.8486C2.37797 14.5114 2.31034 14.1543 2.2793 13.7744C2.24901 13.4034 2.25 12.9478 2.25 12.4004V6.2002C2.25 5.65253 2.24898 5.19633 2.2793 4.8252C2.31033 4.44547 2.3781 4.0891 2.54981 3.75196C2.81346 3.23451 3.23451 2.81346 3.75196 2.54981C4.0891 2.3781 4.44547 2.31033 4.8252 2.2793C5.19633 2.24898 5.65253 2.25 6.2002 2.25H12.4004ZM11.6006 9.15039C11.0282 9.15039 10.6435 9.15063 10.3477 9.17481C10.0607 9.19827 9.92355 9.24098 9.83301 9.28711C9.5979 9.40694 9.40694 9.5979 9.28711 9.83301C9.24098 9.92355 9.19827 10.0607 9.17481 10.3477C9.15063 10.6435 9.15039 11.0282 9.15039 11.6006V17.8008C9.1504 18.3729 9.15066 18.757 9.17481 19.0527C9.19827 19.3399 9.24097 19.4778 9.28711 19.5684C9.40697 19.8033 9.59801 19.9945 9.83301 20.1143C9.92355 20.1604 10.0608 20.2021 10.3477 20.2256C10.6435 20.2498 11.0282 20.25 11.6006 20.25H17.8008C18.3729 20.25 18.757 20.2497 19.0527 20.2256C19.3399 20.2021 19.4778 20.1604 19.5684 20.1143C19.8033 19.9945 19.9945 19.8033 20.1143 19.5684C20.1604 19.4778 20.2021 19.3399 20.2256 19.0527C20.2497 18.757 20.25 18.3729 20.25 17.8008V11.6006C20.25 11.0282 20.2498 10.6435 20.2256 10.3477C20.2021 10.0608 20.1604 9.92355 20.1143 9.83301C19.9945 9.59801 19.8033 9.40697 19.5684 9.28711C19.4778 9.24097 19.3399 9.19827 19.0527 9.17481C18.757 9.15066 18.3729 9.1504 17.8008 9.15039H11.6006ZM6.2002 3.75C5.62778 3.75 5.24315 3.75024 4.94727 3.77442C4.66028 3.79788 4.52316 3.84059 4.43262 3.88672C4.19751 4.00655 4.00655 4.19751 3.88672 4.43262C3.84059 4.52316 3.79788 4.66028 3.77442 4.94727C3.75024 5.24315 3.75 5.62778 3.75 6.2002V12.4004C3.75 12.9725 3.75027 13.3566 3.77442 13.6523C3.79788 13.9395 3.84058 14.0774 3.88672 14.168C4.00658 14.4029 4.19761 14.5941 4.43262 14.7139C4.52316 14.76 4.66043 14.8017 4.94727 14.8252C5.24315 14.8494 5.62778 14.8496 6.2002 14.8496H7.65039V11.6006C7.65039 11.0529 7.64937 10.5967 7.67969 10.2256C7.71072 9.84586 7.77849 9.48949 7.9502 9.15235C8.21385 8.6349 8.6349 8.21385 9.15235 7.9502C9.48949 7.77849 9.84586 7.71072 10.2256 7.67969C10.5967 7.64937 11.0529 7.65039 11.6006 7.65039H14.8496V6.2002C14.8496 5.62778 14.8494 5.24315 14.8252 4.94727C14.8017 4.66043 14.76 4.52316 14.7139 4.43262C14.5941 4.19761 14.4029 4.00658 14.168 3.88672C14.0774 3.84058 13.9395 3.79788 13.6523 3.77442C13.3566 3.75027 12.9725 3.75 12.4004 3.75H6.2002Z" fill="currentColor"/>
</svg>
