<svg width="24" height="24" viewBox="0 0 24 24" fill="none" xmlns="http://www.w3.org/2000/svg">
<path d="M11.999 16.5C12.9931 16.5 13.7988 17.3067 13.7988 18.3008C13.7986 19.2947 12.993 20.1006 11.999 20.1006C11.0051 20.1005 10.1994 19.2946 10.1992 18.3008C10.1992 17.3067 11.005 16.5001 11.999 16.5Z" fill="currentColor"/>
<path d="M11.999 10.2002C12.993 10.2002 13.7986 11.0061 13.7988 12C13.7988 12.9941 12.9931 13.8008 11.999 13.8008C11.005 13.8007 10.1992 12.994 10.1992 12C10.1994 11.0061 11.0051 10.2003 11.999 10.2002Z" fill="currentColor"/>
<path d="M11.999 3.90039C12.9931 3.90039 13.7987 4.70617 13.7988 5.7002C13.7988 6.69431 12.9931 7.5 11.999 7.5C11.005 7.49989 10.1992 6.69424 10.1992 5.7002C10.1993 4.70624 11.0051 3.9005 11.999 3.90039Z" fill="currentColor"/>
</svg>
