<svg width="24" height="24" viewBox="0 0 24 24" fill="none" xmlns="http://www.w3.org/2000/svg">
<path d="M5.7002 10.1992C6.69424 10.1992 7.49989 11.005 7.5 11.999C7.5 12.9931 6.69431 13.7988 5.7002 13.7988C4.70617 13.7987 3.90039 12.9931 3.90039 11.999C3.9005 11.0051 4.70624 10.1993 5.7002 10.1992Z" fill="currentColor"/>
<path d="M12 10.1992C12.994 10.1992 13.8007 11.005 13.8008 11.999C13.8008 12.9931 12.9941 13.7988 12 13.7988C11.0061 13.7986 10.2002 12.993 10.2002 11.999C10.2003 11.0051 11.0061 10.1994 12 10.1992Z" fill="currentColor"/>
<path d="M18.3008 10.1992C19.2946 10.1994 20.1005 11.0051 20.1006 11.999C20.1006 12.993 19.2947 13.7986 18.3008 13.7988C17.3067 13.7988 16.5 12.9931 16.5 11.999C16.5001 11.005 17.3067 10.1992 18.3008 10.1992Z" fill="currentColor"/>
</svg>
