<svg width="24" height="24" viewBox="0 0 24 24" fill="none" xmlns="http://www.w3.org/2000/svg">
<path d="M9.13965 6.96973C9.43248 6.6769 9.90729 6.67703 10.2002 6.96973C10.4929 7.26264 10.493 7.73743 10.2002 8.03028L8.12989 10.0996L10.2002 12.1699C10.4929 12.4628 10.493 12.9376 10.2002 13.2305C9.90733 13.523 9.43246 13.5231 9.13965 13.2305L6.54004 10.6299C6.24735 10.337 6.24722 9.86217 6.54004 9.56934L9.13965 6.96973Z" fill="currentColor"/>
<path d="M13.2998 6.96973C13.5927 6.67684 14.0675 6.67684 14.3604 6.96973L16.96 9.56934C17.2528 9.86224 17.2528 10.337 16.96 10.6299L14.3604 13.2305C14.0675 13.5232 13.5927 13.5232 13.2998 13.2305C13.0069 12.9376 13.007 12.4628 13.2998 12.1699L15.3691 10.0996L13.2998 8.03028C13.0069 7.73738 13.0069 7.26262 13.2998 6.96973Z" fill="currentColor"/>
<path fill-rule="evenodd" clip-rule="evenodd" d="M17.5498 3C18.0975 3 18.5537 2.99898 18.9248 3.0293C19.3045 3.06033 19.6609 3.1281 19.9981 3.29981C20.5155 3.56346 20.9365 3.98452 21.2002 4.50196C21.3719 4.8391 21.4397 5.19547 21.4707 5.5752C21.501 5.94633 21.5 6.40253 21.5 6.9502V13.1504C21.5 13.6978 21.501 14.1534 21.4707 14.5244C21.4397 14.9043 21.372 15.2614 21.2002 15.5986C20.9365 16.116 20.5154 16.5362 19.9981 16.7998C19.6609 16.9716 19.3046 17.0393 18.9248 17.0703C18.5537 17.1006 18.0975 17.0996 17.5498 17.0996H12.5V19.1992H15.3506C15.7647 19.1993 16.1006 19.5351 16.1006 19.9492C16.1006 20.3634 15.7647 20.6991 15.3506 20.6992H8.15039C7.73618 20.6992 7.40039 20.3634 7.40039 19.9492C7.4004 19.535 7.73618 19.1992 8.15039 19.1992H11V17.0996H5.9502C5.40253 17.0996 4.94633 17.1006 4.5752 17.0703C4.19542 17.0393 3.83913 16.9716 3.50196 16.7998C2.98457 16.5362 2.56346 16.116 2.29981 15.5986C2.12797 15.2614 2.06034 14.9043 2.0293 14.5244C1.99901 14.1534 2 13.6978 2 13.1504V6.9502C2 6.40253 1.99898 5.94633 2.0293 5.5752C2.06033 5.19547 2.1281 4.8391 2.29981 4.50196C2.56346 3.98451 2.98451 3.56346 3.50196 3.29981C3.8391 3.1281 4.19547 3.06033 4.5752 3.0293C4.94633 2.99898 5.40253 3 5.9502 3H17.5498ZM5.9502 4.5C5.37778 4.5 4.99315 4.50024 4.69727 4.52442C4.41028 4.54788 4.27316 4.59059 4.18262 4.63672C3.94751 4.75655 3.75655 4.94751 3.63672 5.18262C3.59059 5.27316 3.54788 5.41028 3.52442 5.69727C3.50024 5.99315 3.5 6.37778 3.5 6.9502V13.1504C3.5 13.7225 3.50027 14.1066 3.52442 14.4023C3.54788 14.6895 3.59058 14.8274 3.63672 14.918C3.75658 15.1529 3.94761 15.3441 4.18262 15.4639C4.27316 15.51 4.41043 15.5517 4.69727 15.5752C4.99315 15.5994 5.37778 15.5996 5.9502 15.5996H17.5498C18.1222 15.5996 18.5069 15.5994 18.8027 15.5752C19.0896 15.5517 19.2268 15.51 19.3174 15.4639C19.5524 15.3441 19.7434 15.1529 19.8633 14.918C19.9094 14.8274 19.9521 14.6895 19.9756 14.4023C19.9997 14.1066 20 13.7225 20 13.1504V6.9502C20 6.37778 19.9998 5.99315 19.9756 5.69727C19.9521 5.41028 19.9094 5.27316 19.8633 5.18262C19.7435 4.94751 19.5525 4.75655 19.3174 4.63672C19.2268 4.59059 19.0897 4.54788 18.8027 4.52442C18.5069 4.50024 18.1222 4.5 17.5498 4.5H5.9502Z" fill="currentColor"/>
</svg>
