<svg width="24" height="24" viewBox="0 0 24 24" fill="none" xmlns="http://www.w3.org/2000/svg">
<path d="M9.52832 11.379C9.78802 11.1193 10.21 11.1193 10.4697 11.379C10.7294 11.6387 10.7294 12.0607 10.4697 12.3204L8.69043 14.0997L10.4697 15.879C10.7294 16.1387 10.7294 16.5607 10.4697 16.8204C10.21 17.0797 9.78788 17.08 9.52832 16.8204L7.27832 14.5704C7.01878 14.3109 7.01906 13.8888 7.27832 13.629L9.52832 11.379Z" fill="currentColor"/>
<path d="M13.1299 11.379C13.3896 11.1193 13.8116 11.1193 14.0713 11.379L16.3213 13.629C16.581 13.8887 16.581 14.3107 16.3213 14.5704L14.0713 16.8204C13.8116 17.0797 13.3894 17.08 13.1299 16.8204C12.8703 16.5609 12.8706 16.1388 13.1299 15.879L14.9092 14.0997L13.1299 12.3204C12.8703 12.0609 12.8706 11.6388 13.1299 11.379Z" fill="currentColor"/>
<path fill-rule="evenodd" clip-rule="evenodd" d="M8.87207 3.00011C9.53558 3.00011 10.0466 2.99044 10.5107 3.1505C10.8959 3.28338 11.247 3.5002 11.5381 3.78527C11.8888 4.12876 12.1086 4.5903 12.4053 5.18371L13.1133 6.59972H17.5498C18.0975 6.59972 18.5537 6.5987 18.9248 6.62902C19.3045 6.66005 19.6609 6.72783 19.9981 6.89953C20.5155 7.16316 20.9365 7.58427 21.2002 8.10168C21.3719 8.43878 21.4397 8.79523 21.4707 9.17492C21.501 9.54602 21.5 10.0023 21.5 10.5499V16.7501C21.5 17.2974 21.501 17.7532 21.4707 18.1241C21.4397 18.504 21.372 18.8611 21.2002 19.1984C20.9366 19.7157 20.5154 20.1359 19.9981 20.3995C19.6609 20.5713 19.3046 20.639 18.9248 20.67C18.5537 20.7004 18.0975 20.6993 17.5498 20.6993H5.9502C5.40253 20.6993 4.94633 20.7004 4.5752 20.67C4.19543 20.639 3.83913 20.5713 3.50196 20.3995C2.98459 20.1359 2.56346 19.7157 2.29981 19.1984C2.128 18.8611 2.06034 18.504 2.0293 18.1241C1.99902 17.7532 2 17.2974 2 16.7501V6.95031C2 6.40273 1.99898 5.94639 2.0293 5.57531C2.06034 5.19566 2.12813 4.83914 2.29981 4.50207C2.56347 3.9847 2.98457 3.56354 3.50196 3.29992C3.83907 3.12824 4.1955 3.06044 4.5752 3.02941C4.94633 2.99909 5.40253 3.00011 5.9502 3.00011H8.87207ZM3.5 16.7501C3.5 17.3221 3.50028 17.7063 3.52442 18.0021C3.54787 18.2891 3.5906 18.4271 3.63672 18.5177C3.75657 18.7526 3.94763 18.9438 4.18262 19.0636C4.27316 19.1097 4.41044 19.1515 4.69727 19.1749C4.99315 19.1991 5.37778 19.1993 5.9502 19.1993H17.5498C18.1222 19.1993 18.5069 19.1991 18.8027 19.1749C19.0896 19.1515 19.2268 19.1097 19.3174 19.0636C19.5524 18.9438 19.7434 18.7526 19.8633 18.5177C19.9094 18.4271 19.9521 18.2891 19.9756 18.0021C19.9997 17.7063 20 17.3221 20 16.7501V10.5499C20 9.97755 19.9998 9.59285 19.9756 9.29699C19.9521 9.01007 19.9094 8.87287 19.8633 8.78234C19.7435 8.54727 19.5525 8.35625 19.3174 8.23644C19.2268 8.19032 19.0897 8.14759 18.8027 8.12414C18.5069 8.09996 18.1222 8.09972 17.5498 8.09972H3.5V16.7501ZM5.9502 4.50011C5.37778 4.50011 4.99315 4.50035 4.69727 4.52453C4.41036 4.54798 4.27316 4.59071 4.18262 4.63683C3.94756 4.75663 3.75656 4.94769 3.63672 5.18273C3.5906 5.27325 3.54788 5.41053 3.52442 5.69738C3.50555 5.92832 3.50195 6.21355 3.50098 6.59972H11.4365L11.0635 5.8546C10.7182 5.16413 10.6165 4.98313 10.4883 4.85753C10.3559 4.72794 10.1966 4.62887 10.0215 4.56847C9.85181 4.50997 9.64421 4.50011 8.87207 4.50011H5.9502Z" fill="currentColor"/>
</svg>
