<svg width="24" height="24" viewBox="0 0 24 24" fill="none" xmlns="http://www.w3.org/2000/svg">
<path fill-rule="evenodd" clip-rule="evenodd" d="M14.7497 2.21262C15.3019 2.03327 15.8968 2.03331 16.449 2.21262C16.8088 2.32955 17.1087 2.53444 17.3991 2.78098C17.683 3.02193 18.0051 3.34497 18.3923 3.73216L20.1667 5.50657C20.5539 5.89376 20.8769 6.21591 21.1179 6.49973C21.3645 6.79025 21.5693 7.09002 21.6863 7.44993C21.8657 8.00211 21.8656 8.59695 21.6863 9.14915C21.5693 9.50905 21.3645 9.80885 21.1179 10.0993C20.8769 10.3832 20.554 10.7053 20.1667 11.0925L12.0095 19.2497H20.1003C20.5143 19.2498 20.8501 19.5858 20.8503 19.9997C20.8503 20.4139 20.5144 20.7496 20.1003 20.7497H7.7927C7.38826 20.7497 7.06321 20.7547 6.74973 20.6794C6.4896 20.6169 6.24053 20.5135 6.01243 20.3738C5.73765 20.2053 5.51127 19.9722 5.22532 19.6863L3.83176 18.2927C3.44458 17.9055 3.12154 17.5834 2.88059 17.2995C2.63405 17.0091 2.42916 16.7092 2.31223 16.3493C2.13292 15.7972 2.13288 15.2023 2.31223 14.6501C2.42918 14.2902 2.63401 13.9904 2.88059 13.6999C3.12157 13.4161 3.44452 13.094 3.83176 12.7068L12.8064 3.73216C13.1936 3.34492 13.5157 3.02196 13.7995 2.78098C14.09 2.5344 14.3899 2.32957 14.7497 2.21262ZM4.89231 13.7673C4.48758 14.172 4.21626 14.4443 4.02415 14.6706C3.83812 14.8898 3.77046 15.0164 3.73899 15.113C3.65744 15.364 3.65747 15.6354 3.73899 15.8865C3.77044 15.983 3.83816 16.1097 4.02415 16.3288C4.21624 16.5551 4.48765 16.8275 4.89231 17.2322L6.28587 18.6257C6.62221 18.962 6.70831 19.0413 6.79661 19.0954C6.89024 19.1528 6.99261 19.1947 7.09934 19.2204C7.2001 19.2446 7.31686 19.2497 7.7927 19.2497H9.00657C9.48223 19.2497 9.59822 19.2446 9.69895 19.2204C9.80603 19.1947 9.90877 19.153 10.0027 19.0954C10.091 19.0413 10.1759 18.9622 10.5124 18.6257L16.3386 12.7995L11.0993 7.56028L4.89231 13.7673ZM15.9861 3.63938C15.7351 3.55787 15.4636 3.55783 15.2126 3.63938C15.116 3.67085 14.9894 3.73851 14.7702 3.92454C14.5439 4.11665 14.2717 4.38797 13.8669 4.7927L12.1599 6.49973L17.3991 11.739L19.1062 10.032C19.5109 9.62722 19.7822 9.35494 19.9743 9.12864C20.1605 8.90935 20.2281 8.78286 20.2595 8.68626C20.341 8.43531 20.341 8.16476 20.2595 7.9138C20.2281 7.81715 20.1607 7.68992 19.9743 7.47044C19.7822 7.24417 19.5108 6.97175 19.1062 6.56712L17.3318 4.7927C16.9271 4.38804 16.6547 4.11663 16.4284 3.92454C16.2093 3.73855 16.0826 3.67083 15.9861 3.63938Z" fill="currentColor"/>
</svg>
