<svg width="24" height="24" viewBox="0 0 24 24" fill="none" xmlns="http://www.w3.org/2000/svg">
<path d="M14.1709 8.77051C14.4638 8.47781 14.9386 8.47768 15.2314 8.77051C15.5239 9.06336 15.524 9.53826 15.2314 9.83105L13.0615 12.001L15.2314 14.1709C15.5239 14.4638 15.5242 14.9387 15.2314 15.2314C14.9387 15.5242 14.4638 15.5239 14.1709 15.2314L12.001 13.0615L9.83105 15.2314C9.53826 15.524 9.06336 15.5239 8.77051 15.2314C8.47768 14.9386 8.47781 14.4638 8.77051 14.1709L10.9404 12.001L8.77051 9.83105C8.47761 9.53816 8.47761 9.0634 8.77051 8.77051C9.0634 8.47761 9.53816 8.47761 9.83105 8.77051L12.001 10.9404L14.1709 8.77051Z" fill="currentColor"/>
<path fill-rule="evenodd" clip-rule="evenodd" d="M12 2.25C17.3848 2.25 21.75 6.61522 21.75 12C21.75 17.3848 17.3848 21.75 12 21.75C6.61522 21.75 2.25 17.3848 2.25 12C2.25 6.61522 6.61522 2.25 12 2.25ZM12 3.75C7.44365 3.75 3.75 7.44365 3.75 12C3.75 16.5563 7.44365 20.25 12 20.25C16.5563 20.25 20.25 16.5563 20.25 12C20.25 7.44365 16.5563 3.75 12 3.75Z" fill="currentColor"/>
</svg>
