<svg width="24" height="24" viewBox="0 0 24 24" fill="none" xmlns="http://www.w3.org/2000/svg">
<path d="M11.9004 2C17.368 2 21.8008 6.43277 21.8008 11.9004C21.8006 17.3678 17.3679 21.7998 11.9004 21.7998C6.43289 21.7998 2.0002 17.3678 2 11.9004C2 6.43277 6.43277 2 11.9004 2Z" fill="currentColor"/>
<path d="M13.8942 8.49383C14.2848 8.1035 14.9178 8.10337 15.3083 8.49383C15.6985 8.88431 15.6985 9.51744 15.3083 9.90789L13.3151 11.9011L15.3083 13.8942C15.6983 14.2848 15.6986 14.9179 15.3083 15.3083C14.9179 15.6986 14.2848 15.6983 13.8942 15.3083L11.9011 13.3151L9.90789 15.3083C9.51744 15.6985 8.88431 15.6985 8.49383 15.3083C8.10337 14.9178 8.1035 14.2848 8.49383 13.8942L10.487 11.9011L8.49383 9.90789C8.1033 9.51736 8.1033 8.88435 8.49383 8.49383C8.88435 8.1033 9.51736 8.1033 9.90789 8.49383L11.9011 10.487L13.8942 8.49383Z" fill="white"/>
</svg>
