<svg width="24" height="24" viewBox="0 0 24 24" fill="none" xmlns="http://www.w3.org/2000/svg">
<path d="M7.49994 4.05078C7.91413 4.05081 8.24994 4.38659 8.24994 4.80078V17.3887L10.5703 15.0693C10.8632 14.7766 11.338 14.7765 11.6308 15.0693C11.9235 15.3622 11.9235 15.837 11.6308 16.1299L8.03901 19.7197C8.02908 19.73 8.01825 19.7393 8.00776 19.749C7.98764 19.7676 7.96681 19.7848 7.94526 19.8008C7.82041 19.8937 7.66749 19.9512 7.49994 19.9512C7.33388 19.9512 7.18183 19.8951 7.05756 19.8037C7.03464 19.7869 7.01247 19.7688 6.99115 19.749C6.98067 19.7393 6.96982 19.73 6.9599 19.7197L3.37006 16.1299C3.07717 15.837 3.07717 15.3622 3.37006 15.0693C3.66296 14.7765 4.13772 14.7765 4.43061 15.0693L6.74994 17.3887V4.80078C6.74994 4.38657 7.08573 4.05078 7.49994 4.05078Z" fill="currentColor"/>
<path d="M16.4999 4.05078L16.5761 4.05469C16.5953 4.05662 16.6141 4.06013 16.6328 4.06348C16.6373 4.06429 16.6419 4.06453 16.6464 4.06543C16.6662 4.06934 16.6849 4.0766 16.704 4.08203C16.7315 4.08982 16.7594 4.09644 16.7861 4.10742C16.8096 4.11715 16.8312 4.13059 16.8535 4.14258C16.9164 4.17641 16.9771 4.21742 17.0302 4.27051L20.6308 7.87012C20.9234 8.16292 20.9233 8.63781 20.6308 8.93066C20.338 9.2235 19.8632 9.22337 19.5703 8.93066L17.2499 6.61035V19.2012C17.2497 19.6152 16.914 19.9511 16.4999 19.9512C16.0859 19.9512 15.7502 19.6152 15.7499 19.2012V6.61035L13.4306 8.93066C13.1378 9.2235 12.663 9.22337 12.3701 8.93066C12.0774 8.63775 12.0772 8.16295 12.3701 7.87012L15.9697 4.27051C16.0259 4.21427 16.0901 4.17135 16.1572 4.13672C16.1742 4.12791 16.1902 4.11689 16.208 4.10938L16.2177 4.10547C16.2482 4.09313 16.2799 4.08532 16.3115 4.07715C16.3246 4.07375 16.3372 4.06813 16.3505 4.06543C16.356 4.06432 16.3616 4.06349 16.3671 4.0625C16.4102 4.0548 16.4546 4.05078 16.4999 4.05078Z" fill="currentColor"/>
</svg>
