<svg width="24" height="24" viewBox="0 0 24 24" fill="none" xmlns="http://www.w3.org/2000/svg">
<path fill-rule="evenodd" clip-rule="evenodd" d="M11.9004 2C17.3679 2.00022 21.7998 6.43285 21.7998 11.9004C21.7995 17.3676 17.3677 21.7996 11.9004 21.7998C6.43294 21.7998 2.00035 17.3678 2 11.9004C2 6.43272 6.43272 2.00001 11.9004 2ZM11.8984 15.5996C11.3462 15.5996 10.8984 16.0473 10.8984 16.5996C10.8984 17.1519 11.3462 17.5996 11.8984 17.5996H11.9072C12.4595 17.5996 12.9072 17.1519 12.9072 16.5996C12.9072 16.0473 12.4595 15.5996 11.9072 15.5996H11.8984ZM11.8984 7.09961C11.3462 7.09961 10.8984 7.54732 10.8984 8.09961V12.5996C10.8984 13.1519 11.3462 13.5996 11.8984 13.5996C12.4507 13.5996 12.8984 13.1519 12.8984 12.5996V8.09961C12.8984 7.54732 12.4507 7.09961 11.8984 7.09961Z" fill="currentColor"/>
</svg>
