<svg width="24" height="24" viewBox="0 0 24 24" fill="none" xmlns="http://www.w3.org/2000/svg">
<path d="M12.0092 15.6506C12.4232 15.6507 12.759 15.9866 12.7592 16.4006C12.7592 16.8148 12.4233 17.1505 12.0092 17.1506H12.0004C11.5862 17.1506 11.2504 16.8148 11.2504 16.4006C11.2506 15.9866 11.5863 15.6506 12.0004 15.6506H12.0092Z" fill="currentColor"/>
<path d="M12.0004 8.45042C12.4144 8.45053 12.7502 8.78643 12.7504 9.20042V12.8C12.7504 13.2142 12.4145 13.5499 12.0004 13.55C11.5862 13.55 11.2504 13.2142 11.2504 12.8V9.20042C11.2506 8.78636 11.5863 8.45042 12.0004 8.45042Z" fill="currentColor"/>
<path fill-rule="evenodd" clip-rule="evenodd" d="M11.4604 2.78245C11.8688 2.6503 12.3142 2.67176 12.7104 2.84788C13.047 2.99762 13.2746 3.2656 13.4477 3.50999C13.6229 3.75739 13.813 4.08759 14.0326 4.46702L21.1576 16.7737C21.3783 17.1548 21.571 17.4859 21.6987 17.7619C21.8246 18.0343 21.9429 18.3656 21.9047 18.7326C21.8531 19.2261 21.595 19.6753 21.1938 19.967C20.8951 20.184 20.5482 20.2472 20.2494 20.2746C19.9466 20.3024 19.5637 20.301 19.1235 20.301H4.87444C4.43409 20.301 4.0513 20.3024 3.74846 20.2746C3.44958 20.2472 3.10279 20.1842 2.80413 19.967C2.40288 19.6753 2.14474 19.2261 2.09319 18.7326C2.05497 18.3655 2.17427 18.0343 2.30022 17.7619C2.42789 17.486 2.61966 17.1547 2.84026 16.7737L9.96526 4.46702C10.185 4.08752 10.376 3.75742 10.5512 3.50999C10.7243 3.26567 10.952 2.99762 11.2885 2.84788L11.4604 2.78245ZM12.0903 4.21507C12.0312 4.19188 11.9656 4.1916 11.9067 4.21507C11.9311 4.20205 11.8918 4.21207 11.7748 4.37718C11.6488 4.55519 11.4975 4.81407 11.2631 5.21898L4.13811 17.5256C3.90282 17.932 3.75346 18.1932 3.66155 18.3918C3.60743 18.5089 3.59063 18.5673 3.58635 18.5871C3.59557 18.6502 3.62915 18.7067 3.67913 18.7463C3.69848 18.7526 3.75685 18.7687 3.88518 18.7805C4.10324 18.8005 4.40452 18.801 4.87444 18.801H19.1235C19.5933 18.801 19.8946 18.8005 20.1127 18.7805C20.2402 18.7688 20.2989 18.7527 20.3188 18.7463C20.3685 18.707 20.4011 18.6508 20.4106 18.5881C20.4065 18.569 20.392 18.5102 20.3373 18.3918C20.2454 18.1931 20.0952 17.9322 19.8598 17.5256L12.7348 5.21898C12.5002 4.81384 12.3491 4.5552 12.2231 4.37718C12.1475 4.27045 12.1046 4.22792 12.0903 4.21507Z" fill="currentColor"/>
</svg>
