<svg width="24" height="24" viewBox="0 0 24 24" fill="none" xmlns="http://www.w3.org/2000/svg">
<path d="M3.90039 14.8496C4.31461 14.8496 4.65039 15.1854 4.65039 15.5996V16.8994L4.65332 17.6299C4.65649 17.8343 4.66273 18.0045 4.67481 18.1523C4.69827 18.4393 4.74098 18.5765 4.78711 18.667C4.90694 18.9021 5.0979 19.0931 5.33301 19.2129C5.42355 19.259 5.56066 19.3017 5.84766 19.3252C6.14354 19.3494 6.52816 19.3496 7.10059 19.3496H8.40039C8.81461 19.3496 9.15039 19.6854 9.15039 20.0996C9.15039 20.5138 8.81461 20.8496 8.40039 20.8496H7.10059C6.55292 20.8496 6.09672 20.8506 5.72559 20.8203C5.34586 20.7893 4.98949 20.7215 4.65235 20.5498C4.1349 20.2862 3.71385 19.8651 3.4502 19.3477C3.27849 19.0105 3.21072 18.6541 3.17969 18.2744C3.16453 18.0889 3.15795 17.8821 3.1543 17.6533L3.15039 16.8994V15.5996C3.1504 15.1854 3.48618 14.8496 3.90039 14.8496Z" fill="currentColor"/>
<path d="M20.0996 14.8496C20.5138 14.8496 20.8496 15.1854 20.8496 15.5996V16.8994C20.8496 17.4471 20.8506 17.9033 20.8203 18.2744C20.7893 18.6541 20.7215 19.0105 20.5498 19.3477C20.2862 19.8651 19.8651 20.2862 19.3477 20.5498C19.0105 20.7215 18.6541 20.7893 18.2744 20.8203C17.9033 20.8506 17.4471 20.8496 16.8994 20.8496H15.5996C15.1854 20.8496 14.8496 20.5138 14.8496 20.0996C14.8496 19.6854 15.1854 19.3496 15.5996 19.3496H16.8994C17.4718 19.3496 17.8565 19.3494 18.1523 19.3252C18.4393 19.3017 18.5765 19.259 18.667 19.2129C18.9021 19.0931 19.0931 18.9021 19.2129 18.667C19.259 18.5765 19.3017 18.4393 19.3252 18.1523C19.3494 17.8565 19.3496 17.4718 19.3496 16.8994V15.5996C19.3496 15.1854 19.6854 14.8496 20.0996 14.8496Z" fill="currentColor"/>
<path d="M8.47754 3.1543C8.85551 3.19292 9.15039 3.51223 9.15039 3.90039C9.15039 4.28856 8.85551 4.60787 8.47754 4.64649L8.40039 4.65039H7.10059C6.52817 4.65039 6.14354 4.65063 5.84766 4.67481C5.56067 4.69827 5.42355 4.74098 5.33301 4.78711C5.0979 4.90694 4.90694 5.0979 4.78711 5.33301C4.74098 5.42355 4.69827 5.56067 4.67481 5.84766C4.65063 6.14354 4.65039 6.52817 4.65039 7.10059V8.40039L4.64649 8.47754C4.60787 8.85551 4.28856 9.15039 3.90039 9.15039C3.51223 9.15039 3.19292 8.85551 3.1543 8.47754L3.15039 8.40039V7.10059C3.15039 6.55292 3.14937 6.09672 3.17969 5.72559C3.21072 5.34586 3.27849 4.98949 3.4502 4.65235C3.71385 4.1349 4.1349 3.71385 4.65235 3.4502C4.98949 3.27849 5.34586 3.21072 5.72559 3.17969C6.09672 3.14937 6.55292 3.15039 7.10059 3.15039H8.40039L8.47754 3.1543Z" fill="currentColor"/>
<path d="M16.8994 3.15039C17.4471 3.15039 17.9033 3.14937 18.2744 3.17969C18.6541 3.21072 19.0105 3.27849 19.3477 3.4502C19.8651 3.71385 20.2862 4.13491 20.5498 4.65235C20.7215 4.98949 20.7893 5.34586 20.8203 5.72559C20.8506 6.09672 20.8496 6.55292 20.8496 7.10059V8.40039C20.8496 8.81461 20.5138 9.15039 20.0996 9.15039C19.6854 9.15039 19.3496 8.81461 19.3496 8.40039V7.10059C19.3496 6.52817 19.3494 6.14354 19.3252 5.84766C19.3017 5.56067 19.259 5.42355 19.2129 5.33301C19.0931 5.0979 18.9021 4.90694 18.667 4.78711C18.5765 4.74098 18.4393 4.69827 18.1523 4.67481C17.8565 4.65063 17.4718 4.65039 16.8994 4.65039H15.5996C15.1854 4.65039 14.8496 4.31461 14.8496 3.90039C14.8496 3.48619 15.1854 3.1504 15.5996 3.15039H16.8994Z" fill="currentColor"/>
</svg>
