<svg width="24" height="24" viewBox="0 0 24 24" fill="none" xmlns="http://www.w3.org/2000/svg">
<path d="M6.06928 6.96967C6.36217 6.67678 6.83693 6.67678 7.12983 6.96967L11.6298 11.4697C11.9226 11.7626 11.9227 12.2374 11.6298 12.5302L7.12983 17.0302C6.83697 17.3231 6.36218 17.323 6.06928 17.0302C5.77639 16.7373 5.77639 16.2626 6.06928 15.9697L10.039 11.9999L6.06928 8.03022C5.77639 7.73732 5.77639 7.26256 6.06928 6.96967Z" fill="currentColor"/>
<path d="M12.3701 6.96967C12.663 6.67678 13.1377 6.67678 13.4306 6.96967L17.9306 11.4697C18.2234 11.7626 18.2235 12.2374 17.9306 12.5302L13.4306 17.0302C13.1378 17.3231 12.663 17.323 12.3701 17.0302C12.0772 16.7373 12.0772 16.2626 12.3701 15.9697L16.3398 11.9999L12.3701 8.03022C12.0772 7.73732 12.0772 7.26256 12.3701 6.96967Z" fill="currentColor"/>
</svg>
