<svg width="24" height="24" viewBox="0 0 24 24" fill="none" xmlns="http://www.w3.org/2000/svg">
<path d="M9.66992 13.2705C9.96278 12.9776 10.4376 12.9777 10.7305 13.2705C11.0232 13.5634 11.0233 14.0382 10.7305 14.3311L5.71191 19.3496H9.30078C9.71482 19.3498 10.0508 19.6855 10.0508 20.0996C10.0505 20.5134 9.71463 20.8494 9.30078 20.8496H3.91016C3.89939 20.8498 3.88869 20.848 3.87793 20.8477C3.84607 20.8467 3.81492 20.8437 3.78418 20.8389C3.63279 20.8152 3.48681 20.7475 3.37012 20.6309C3.31735 20.5781 3.27691 20.5175 3.24316 20.4551C3.23105 20.4327 3.21688 20.4113 3.20703 20.3877C3.18598 20.3369 3.1715 20.284 3.16211 20.2305C3.1546 20.188 3.15042 20.1443 3.15039 20.0996V14.6992C3.15039 14.285 3.48618 13.9492 3.90039 13.9492C4.3146 13.9492 4.65039 14.285 4.65039 14.6992V18.29L9.66992 13.2705Z" fill="currentColor"/>
<path d="M20.1016 3.15039C20.1452 3.15052 20.1879 3.15482 20.2295 3.16211C20.2833 3.17148 20.3365 3.18586 20.3877 3.20703C20.4017 3.21286 20.4142 3.22188 20.4277 3.22852C20.5006 3.26402 20.5703 3.3096 20.6309 3.37012C20.7473 3.4866 20.8151 3.63211 20.8389 3.7832C20.8437 3.81426 20.8467 3.84574 20.8477 3.87793C20.848 3.8887 20.8498 3.89939 20.8496 3.91016V9.30078C20.8493 9.71461 20.5135 10.0506 20.0996 10.0508C19.6856 10.0508 19.3499 9.71474 19.3496 9.30078V5.71191L14.3311 10.7305C14.0382 11.0232 13.5634 11.0231 13.2705 10.7305C12.9777 10.4376 12.9777 9.96279 13.2705 9.66992L18.29 4.65039H14.6992C14.2851 4.65039 13.9493 4.31453 13.9492 3.90039C13.9492 3.48618 14.285 3.15039 14.6992 3.15039H20.1016Z" fill="currentColor"/>
</svg>
