<svg width="24" height="24" viewBox="0 0 24 24" fill="none" xmlns="http://www.w3.org/2000/svg">
<path d="M10.2002 4.9502C10.6144 4.9502 10.9502 5.28598 10.9502 5.7002C10.9502 6.11441 10.6144 6.4502 10.2002 6.4502H7.10059C6.52817 6.4502 6.14354 6.45044 5.84766 6.47461C5.56067 6.49807 5.42355 6.54078 5.33301 6.58691C5.0979 6.70674 4.90694 6.8977 4.78711 7.13281C4.74098 7.22335 4.69827 7.36046 4.67481 7.64746C4.65063 7.94334 4.65039 8.32796 4.65039 8.90039V16.9004C4.65039 17.4725 4.65067 17.8566 4.67481 18.1523C4.69827 18.4395 4.74097 18.5774 4.78711 18.668C4.90697 18.903 5.09795 19.0941 5.33301 19.2139C5.42355 19.26 5.56075 19.3017 5.84766 19.3252C6.14354 19.3494 6.52817 19.3506 7.10059 19.3506H15.1006C15.6727 19.3506 16.0567 19.3493 16.3525 19.3252C16.6397 19.3017 16.7776 19.26 16.8682 19.2139C17.1032 19.0941 17.2943 18.903 17.4141 18.668C17.4602 18.5774 17.5019 18.4395 17.5254 18.1523C17.5495 17.8565 17.5508 17.4725 17.5508 16.9004V13.7998C17.551 13.3858 17.8867 13.0498 18.3008 13.0498C18.7147 13.05 19.0506 13.3859 19.0508 13.7998V16.9004C19.0508 17.4478 19.0508 17.9034 19.0205 18.2744C18.9895 18.6542 18.9228 19.0114 18.751 19.3486C18.4873 19.8661 18.0663 20.2871 17.5488 20.5508C17.2116 20.7226 16.8544 20.7893 16.4746 20.8203C16.1036 20.8506 15.648 20.8506 15.1006 20.8506H7.10059C6.55292 20.8506 6.09672 20.8506 5.72559 20.8203C5.34594 20.7893 4.98943 20.7224 4.65235 20.5508C4.13491 20.2871 3.71385 19.8661 3.4502 19.3486C3.27836 19.0114 3.21073 18.6543 3.17969 18.2744C3.14941 17.9034 3.15039 17.4477 3.15039 16.9004V8.90039C3.15039 8.35272 3.14937 7.89652 3.17969 7.52539C3.21072 7.14566 3.27849 6.78929 3.4502 6.45215C3.71385 5.9347 4.1349 5.51365 4.65235 5.25C4.98949 5.07829 5.34586 5.01052 5.72559 4.97949C6.09672 4.94917 6.55292 4.9502 7.10059 4.9502H10.2002Z" fill="currentColor"/>
<path d="M20.1016 3.15039L20.1758 3.1543C20.1864 3.15537 20.1966 3.15865 20.207 3.16016C20.2327 3.16382 20.258 3.16848 20.2832 3.1748C20.3028 3.17976 20.3219 3.18591 20.3408 3.19238C20.3664 3.20105 20.3913 3.21115 20.416 3.22266C20.4343 3.23122 20.4523 3.24004 20.4697 3.25C20.527 3.28254 20.5821 3.32131 20.6309 3.37012C20.6705 3.40979 20.7035 3.45359 20.7324 3.49902C20.7424 3.51463 20.75 3.53149 20.7588 3.54785C20.8194 3.66107 20.8513 3.78498 20.8496 3.91016V9.30078C20.8494 9.71469 20.5135 10.0506 20.0996 10.0508C19.6855 10.0508 19.3498 9.71481 19.3496 9.30078V5.71191L13.4307 11.6309C13.1378 11.9236 12.663 11.9235 12.3701 11.6309C12.0773 11.338 12.0773 10.8632 12.3701 10.5703L18.29 4.65039H14.6992C14.285 4.65039 13.9492 4.3146 13.9492 3.90039C13.9492 3.48618 14.285 3.15039 14.6992 3.15039H20.1016Z" fill="currentColor"/>
</svg>
