<svg width="24" height="24" viewBox="0 0 24 24" fill="none" xmlns="http://www.w3.org/2000/svg">
<path fill-rule="evenodd" clip-rule="evenodd" d="M12.0011 8.55078C13.9064 8.55089 15.4513 10.0957 15.4513 12.001C15.4512 13.9062 13.9064 15.4511 12.0011 15.4512C10.0959 15.4511 8.55104 13.9062 8.55094 12.001C8.55094 10.0956 10.0958 8.55087 12.0011 8.55078ZM12.0011 10.0508C10.9243 10.0509 10.0509 10.9241 10.0509 12.001C10.051 13.0778 10.9243 13.9511 12.0011 13.9512C13.0779 13.9511 13.9512 13.0778 13.9513 12.001C13.9513 10.9241 13.078 10.0509 12.0011 10.0508Z" fill="currentColor"/>
<path fill-rule="evenodd" clip-rule="evenodd" d="M12.0002 4.94922C14.529 4.94922 16.5961 6.06637 18.1349 7.35059C19.672 8.63341 20.728 10.1194 21.257 10.957C21.3674 11.1318 21.5038 11.3359 21.5714 11.6309C21.6224 11.8535 21.6225 12.1455 21.5714 12.3682C21.5038 12.6631 21.3674 12.8672 21.257 13.042C20.728 13.8796 19.6719 15.3647 18.1349 16.6475C16.5961 17.9317 14.5291 19.0488 12.0002 19.0488C9.47122 19.0487 7.4042 17.9318 5.86539 16.6475C4.32843 15.3646 3.27228 13.8795 2.74332 13.042C2.63294 12.8672 2.49653 12.6631 2.42887 12.3682C2.37786 12.1456 2.3779 11.8535 2.42887 11.6309L2.49137 11.4258C2.56353 11.2359 2.66052 11.0881 2.74332 10.957C3.27226 10.1195 4.32837 8.63345 5.86539 7.35059C7.40418 6.06636 9.47132 4.94932 12.0002 4.94922ZM12.0002 6.44922C9.93493 6.44932 8.19665 7.35924 6.82633 8.50293C5.45439 9.64807 4.49573 10.9917 4.01187 11.7578C3.98036 11.8077 3.95703 11.8441 3.93766 11.876C3.91871 11.9072 3.90836 11.9273 3.90152 11.9404C3.89406 11.9548 3.89268 11.9589 3.89176 11.9629C3.89092 11.9718 3.89079 11.9845 3.89078 11.999C3.89078 12.0135 3.89093 12.0262 3.89176 12.0352L3.90152 12.0586C3.90836 12.0717 3.91896 12.0913 3.93766 12.1221C3.95701 12.1539 3.98042 12.1904 4.01187 12.2402C4.49575 13.0064 5.45428 14.3509 6.82633 15.4961C8.19664 16.6398 9.93496 17.5487 12.0002 17.5488C14.0654 17.5488 15.8036 16.6397 17.174 15.4961C18.546 14.351 19.5045 13.0065 19.9884 12.2402C20.0199 12.1904 20.0433 12.1539 20.0627 12.1221C20.0813 12.0913 20.0919 12.0717 20.0988 12.0586L20.1086 12.0352C20.1094 12.0262 20.1095 12.0135 20.1095 11.999C20.1095 11.9844 20.1094 11.9718 20.1086 11.9629C20.1076 11.9589 20.1063 11.9548 20.0988 11.9404C20.0919 11.9272 20.0816 11.9072 20.0627 11.876C20.0433 11.8441 20.0199 11.8077 19.9884 11.7578C19.5045 10.9916 18.5459 9.64803 17.174 8.50293C15.8036 7.35926 14.0654 6.44922 12.0002 6.44922Z" fill="currentColor"/>
</svg>
