<svg width="24" height="24" viewBox="0 0 24 24" fill="none" xmlns="http://www.w3.org/2000/svg">
<path fill-rule="evenodd" clip-rule="evenodd" d="M3.37028 3.37006C3.66318 3.07717 4.13794 3.07717 4.43083 3.37006L7.73649 6.67572C7.77152 6.70562 7.8054 6.7374 7.83513 6.77436L17.2336 16.1728C17.2762 16.2077 17.3168 16.2458 17.3517 16.291L20.631 19.5703C20.9237 19.8632 20.9239 20.338 20.631 20.6308C20.3382 20.9235 19.8634 20.9235 19.5705 20.6308L16.6496 17.7099C15.347 18.4911 13.7883 19.0507 12.0002 19.0507C9.4712 19.0506 7.40422 17.9327 5.8654 16.6484C4.32853 15.3656 3.27224 13.8804 2.74333 13.0429C2.63294 12.8682 2.49647 12.664 2.42888 12.3691C2.37791 12.1464 2.37784 11.8544 2.42888 11.6318L2.49138 11.4267C2.56375 11.2365 2.66125 11.0884 2.74431 10.957C3.29688 10.0823 4.43304 8.48726 6.10075 7.16108L3.37028 4.43061C3.07743 4.13775 3.0775 3.66296 3.37028 3.37006ZM7.17009 8.23041C5.61898 9.42426 4.53984 10.9236 4.01286 11.7578C3.98117 11.8079 3.95816 11.8448 3.93864 11.8769C3.91958 11.9083 3.90848 11.928 3.90153 11.9413C3.89424 11.9554 3.89267 11.9601 3.89177 11.9638C3.89093 11.9727 3.89079 11.9864 3.89079 12.0009C3.8908 12.0153 3.89096 12.0282 3.89177 12.0371L3.90153 12.0595C3.90832 12.0726 3.91901 12.0922 3.93767 12.123C3.95704 12.1549 3.98038 12.1922 4.01188 12.2421C4.49574 13.0083 5.45448 14.3519 6.82634 15.497C8.19665 16.6407 9.93495 17.5506 12.0002 17.5507C13.3216 17.5507 14.5073 17.1778 15.55 16.6103L13.8508 14.9111C13.3161 15.2515 12.6817 15.4511 12.0011 15.4511C10.0959 15.451 8.55104 13.9062 8.55095 12.0009C8.55095 11.3202 8.7495 10.685 9.09001 10.1503L7.17009 8.23041ZM10.1974 11.2578C10.103 11.4867 10.0509 11.7377 10.0509 12.0009C10.051 13.0777 10.9243 13.951 12.0011 13.9511C12.2642 13.9511 12.5145 13.8979 12.7433 13.8037L10.1974 11.2578Z" fill="currentColor"/>
<path d="M11.9992 4.94916C14.528 4.94919 16.5951 6.06632 18.134 7.35053C19.6709 8.63332 20.726 10.1194 21.255 10.957C21.3655 11.1319 21.5028 11.3356 21.5705 11.6308C21.6215 11.8535 21.6215 12.1454 21.5705 12.3681C21.5027 12.6634 21.365 12.8683 21.2541 13.0439C20.9704 13.4929 20.5395 14.1212 19.9689 14.8027C19.703 15.12 19.2298 15.1622 18.9123 14.8964C18.595 14.6305 18.5529 14.1573 18.8185 13.8398C19.3377 13.2197 19.7296 12.6472 19.9855 12.2421C20.0172 12.1919 20.0412 12.1552 20.0607 12.123C20.0797 12.0917 20.0908 12.0719 20.0978 12.0585L20.1076 12.0351C20.1084 12.0262 20.1086 12.0134 20.1086 11.999C20.1086 11.9844 20.1084 11.9717 20.1076 11.9628C20.1067 11.9588 20.1053 11.9548 20.0978 11.9404C20.091 11.9272 20.0806 11.9071 20.0617 11.8759C20.0423 11.844 20.019 11.8076 19.9875 11.7578C19.5036 10.9916 18.5449 9.64796 17.173 8.50287C15.8027 7.35924 14.0644 6.44919 11.9992 6.44916C11.6482 6.44918 11.3068 6.47556 10.9767 6.52436C10.5673 6.58447 10.1857 6.30104 10.1252 5.89154C10.0649 5.4821 10.3486 5.10075 10.758 5.03998C11.1591 4.9807 11.5734 4.94918 11.9992 4.94916Z" fill="currentColor"/>
</svg>
