<svg width="24" height="24" viewBox="0 0 24 24" fill="none" xmlns="http://www.w3.org/2000/svg">
<path fill-rule="evenodd" clip-rule="evenodd" d="M11.5766 2.29578C11.8514 2.20082 12.1504 2.20095 12.4252 2.29578L12.561 2.35144L12.6645 2.40808C12.894 2.55075 13.0354 2.75745 13.1235 2.90125C13.2304 3.07596 13.3433 3.30554 13.4633 3.54871L15.4672 7.61023C15.4787 7.63344 15.4888 7.65334 15.4975 7.67078C15.5169 7.67368 15.539 7.67677 15.5649 7.68054L20.0492 8.33679C20.3176 8.37602 20.5708 8.41196 20.7699 8.45984C20.9573 8.5049 21.2438 8.59037 21.4662 8.82508C21.7357 9.10964 21.8623 9.50099 21.811 9.88953C21.7686 10.2099 21.5875 10.4472 21.4623 10.5936C21.3291 10.7493 21.145 10.9278 20.9506 11.1171L17.7074 14.2762C17.6888 14.2944 17.6726 14.3094 17.6586 14.3231C17.6619 14.3425 17.6659 14.3647 17.6703 14.3905L18.435 18.8524C18.4809 19.1199 18.5253 19.3728 18.5414 19.577C18.5566 19.7692 18.5639 20.0683 18.4096 20.3524C18.2224 20.6967 17.8896 20.9381 17.5043 21.0096C17.1862 21.0686 16.904 20.9692 16.726 20.8954C16.5367 20.8169 16.31 20.6975 16.0698 20.5712L12.0619 18.4628C12.0384 18.4504 12.0181 18.4397 12.0004 18.4305C11.9831 18.4396 11.9639 18.4507 11.9408 18.4628L7.93206 20.5712C7.69191 20.6975 7.466 20.8169 7.27678 20.8954C7.09881 20.9692 6.81663 21.0685 6.49846 21.0096C6.11314 20.9382 5.78041 20.6967 5.59319 20.3524C5.43888 20.0683 5.44618 19.7692 5.46135 19.577C5.47753 19.3728 5.52094 19.1199 5.56682 18.8524L6.33245 14.3905C6.33687 14.3647 6.33995 14.3425 6.34319 14.3231C6.3294 14.3096 6.31365 14.2941 6.29534 14.2762L3.0512 11.1171C2.85695 10.9279 2.67361 10.7492 2.54045 10.5936C2.41523 10.4472 2.23326 10.21 2.19085 9.88953C2.13953 9.50092 2.26699 9.10965 2.53655 8.82508L2.62249 8.74402C2.82893 8.5697 3.06892 8.49926 3.23284 8.45984C3.43198 8.41199 3.68523 8.37601 3.95354 8.33679L8.43694 7.68054C8.46268 7.67678 8.48498 7.67368 8.50432 7.67078C8.51302 7.65331 8.52311 7.63349 8.5346 7.61023L10.5395 3.54871C10.6596 3.30542 10.7724 3.07599 10.8793 2.90125C10.9799 2.73689 11.1497 2.49073 11.4418 2.35144L11.5766 2.29578ZM11.8842 4.21277L9.8803 8.27332C9.82574 8.38386 9.73686 8.58023 9.59026 8.73816C9.47588 8.86125 9.33831 8.96122 9.18596 9.03211C8.99065 9.12293 8.77684 9.14709 8.65471 9.16492L4.17034 9.82019C4.07107 9.8347 3.98546 9.84793 3.91155 9.85925C3.96466 9.9117 4.02638 9.97205 4.09807 10.0419L7.34124 13.2011C7.40764 13.2657 7.51456 13.3638 7.60784 13.4882L7.69475 13.621L7.75042 13.7343C7.78383 13.811 7.81045 13.8909 7.82854 13.9725L7.84905 14.0975L7.85686 14.2557C7.85456 14.4112 7.82663 14.5531 7.81096 14.6444L7.04534 19.1063C7.02847 19.2047 7.01447 19.2896 7.00237 19.3632C7.06869 19.3289 7.14524 19.2896 7.23381 19.243L11.2426 17.1356C11.3519 17.0781 11.5394 16.9711 11.7514 16.9296L11.8754 16.911C11.9588 16.9029 12.043 16.9029 12.1264 16.911L12.2514 16.9296L12.4047 16.9706C12.552 17.0209 12.6782 17.0925 12.7602 17.1356L16.768 19.243C16.8563 19.2895 16.9333 19.3289 16.9994 19.3632C16.9874 19.2897 16.9743 19.2046 16.9574 19.1063L16.1918 14.6444C16.171 14.5228 16.1269 14.3117 16.1528 14.0975L16.1742 13.9725C16.2014 13.8499 16.2467 13.7311 16.308 13.621L16.3949 13.4882C16.4882 13.3638 16.5942 13.2657 16.6606 13.2011L19.9047 10.0419C19.9763 9.97219 20.0372 9.91162 20.0903 9.85925C20.0165 9.84796 19.9314 9.83465 19.8324 9.82019L15.3481 9.16492C15.2261 9.14709 15.0123 9.12294 14.8168 9.03211C14.6644 8.96124 14.5269 8.86125 14.4125 8.73816C14.2659 8.58027 14.1771 8.38391 14.1225 8.27332L12.1176 4.21277C12.0733 4.123 12.0339 4.04611 12.0004 3.97937C11.967 4.04599 11.9284 4.12323 11.8842 4.21277Z" fill="currentColor"/>
</svg>
