<svg width="24" height="24" viewBox="0 0 24 24" fill="none" xmlns="http://www.w3.org/2000/svg">
<path d="M11.5888 3.06849C11.8969 2.96216 12.2366 2.97956 12.5342 3.12122C12.8183 3.25671 12.9822 3.49582 13.0752 3.64759C13.1743 3.80961 13.2782 4.02158 13.3867 4.24134L15.209 7.93372C15.213 7.94194 15.2171 7.94987 15.2207 7.95716C15.2286 7.95833 15.2371 7.95975 15.2461 7.96106L19.3232 8.55677C19.5658 8.59223 19.7996 8.62562 19.9844 8.67005C20.1572 8.71163 20.4339 8.79336 20.6504 9.02161C20.9095 9.29517 21.0316 9.67145 20.9824 10.045C20.9412 10.357 20.765 10.5856 20.6494 10.7208C20.5259 10.8651 20.3562 11.0293 20.1806 11.2003L17.2314 14.0724C17.225 14.0786 17.2186 14.0844 17.2129 14.09C17.2143 14.0982 17.2162 14.1071 17.2177 14.1163L17.9131 18.173C17.9545 18.4148 17.9957 18.6475 18.0107 18.837C18.0248 19.0144 18.033 19.3035 17.8828 19.5802C17.7028 19.9115 17.3824 20.1433 17.0117 20.212C16.702 20.2695 16.43 20.1728 16.2656 20.1046C16.09 20.0317 15.8812 19.921 15.664 19.8068L12.0195 17.8908C12.0112 17.8864 12.0034 17.8819 11.9961 17.8781C11.9889 17.8818 11.9816 17.8865 11.9736 17.8908L8.32908 19.8068C8.11192 19.921 7.90311 20.0318 7.72751 20.1046C7.56312 20.1728 7.29104 20.2694 6.98142 20.212C6.61092 20.1433 6.29124 19.9113 6.1113 19.5802C5.96108 19.3034 5.96933 19.0144 5.98337 18.837C5.99841 18.6475 6.03859 18.4147 6.08005 18.173L6.77634 14.1163C6.77791 14.1071 6.77886 14.0981 6.78025 14.09C6.77454 14.0844 6.76811 14.0786 6.76169 14.0724L3.81345 11.2003C3.63777 11.0292 3.46728 10.8652 3.34373 10.7208C3.22806 10.5856 3.05192 10.3569 3.01072 10.045C2.96148 9.67145 3.08358 9.29517 3.34275 9.02161L3.42673 8.94251C3.62695 8.77361 3.85751 8.70643 4.00876 8.67005C4.19348 8.62564 4.42734 8.59222 4.6699 8.55677L8.74705 7.96106C8.75602 7.95975 8.76447 7.95833 8.77244 7.95716C8.77604 7.94987 8.78009 7.94195 8.78415 7.93372L10.6064 4.24134C10.715 4.0214 10.8197 3.80968 10.9189 3.64759C11.0119 3.49582 11.1748 3.25671 11.459 3.12122L11.5888 3.06849Z" fill="currentColor"/>
</svg>
