<svg width="24" height="24" viewBox="0 0 24 24" fill="none" xmlns="http://www.w3.org/2000/svg">
<path fill-rule="evenodd" clip-rule="evenodd" d="M18.679 3.1504C19.1745 3.1504 19.598 3.14922 19.9261 3.17872C20.1968 3.20306 20.5299 3.25531 20.8177 3.44044L20.9378 3.52833L21.0785 3.65821C21.3868 3.97976 21.5534 4.41568 21.5355 4.86622C21.5193 5.26985 21.3069 5.60358 21.1214 5.85255C20.9247 6.11668 20.6412 6.43156 20.3109 6.80079L15.1761 12.54C15.1042 12.6204 15.0649 12.6638 15.0374 12.6973C15.014 12.7258 15.0142 12.7291 15.0189 12.7207C15.0117 12.7335 15.0064 12.7475 15.0033 12.7617C15.0053 12.7524 15.0038 12.7552 15.0023 12.792C15.0004 12.8353 15.0003 12.8935 15.0003 13.001V17.8125C15.0003 17.9286 15.0112 18.1817 14.9242 18.415C14.8573 18.5943 14.7484 18.7551 14.6068 18.8838C14.4224 19.0513 14.1833 19.1346 14.0755 19.1777L11.016 20.4014C10.8639 20.4622 10.7024 20.5277 10.5628 20.5693C10.4213 20.6116 10.2032 20.6619 9.9554 20.6104C9.64596 20.5459 9.37419 20.3621 9.19954 20.0986C9.05974 19.8876 9.02539 19.6666 9.01204 19.5195C8.9989 19.3745 9.00032 19.2008 9.00033 19.0371V13.001C9.00033 12.8936 9.0002 12.8353 8.99837 12.792C8.9968 12.7552 8.99435 12.7524 8.99642 12.7617C8.99324 12.7475 8.98794 12.7335 8.98079 12.7207C8.98548 12.7291 8.98564 12.7258 8.96224 12.6973C8.93474 12.6638 8.89637 12.6203 8.82454 12.54L3.6888 6.80079C3.35841 6.43152 3.07502 6.1167 2.87826 5.85255C2.6928 5.60358 2.48034 5.26984 2.46419 4.86622C2.44376 4.35153 2.66477 3.8564 3.06185 3.52833C3.37341 3.27108 3.76431 3.20653 4.07357 3.17872C4.40163 3.14922 4.82513 3.1504 5.32064 3.1504H18.679ZM5.32064 4.6504C4.79545 4.6504 4.45306 4.65088 4.20833 4.67286C4.08803 4.68367 4.02461 4.69789 3.9974 4.70508C3.98064 4.72538 3.96856 4.74947 3.96419 4.7754C3.97617 4.79923 4.00708 4.85629 4.08138 4.95606C4.22817 5.15312 4.4557 5.40929 4.80599 5.80079L9.94173 11.54C10.0555 11.6672 10.1914 11.8124 10.2894 11.9873C10.368 12.1275 10.4253 12.2787 10.4603 12.4356C10.5038 12.6312 10.5003 12.8303 10.5003 13.001V18.9912L13.5003 17.792V13.001C13.5003 12.8303 13.4958 12.6312 13.5394 12.4356C13.5743 12.2787 13.6317 12.1275 13.7103 11.9873C13.8083 11.8124 13.9441 11.6672 14.0579 11.54L19.1937 5.80079C19.544 5.40927 19.7715 5.15312 19.9183 4.95606C19.9906 4.85896 20.0218 4.8023 20.0345 4.77735C20.0303 4.75053 20.0187 4.72595 20.0013 4.70508C19.9735 4.69781 19.9101 4.68353 19.7913 4.67286C19.5466 4.65089 19.2041 4.6504 18.679 4.6504H5.32064Z" fill="currentColor"/>
</svg>
