<svg width="24" height="24" viewBox="0 0 24 24" fill="none" xmlns="http://www.w3.org/2000/svg">
<path d="M18.7348 3C19.2868 3 19.7529 2.99891 20.1127 3.03125C20.411 3.0581 20.7635 3.115 21.0649 3.3086L21.1908 3.4004L21.3402 3.53907C21.667 3.88004 21.8445 4.34171 21.8256 4.81934C21.8089 5.24105 21.5858 5.5945 21.3813 5.86915C21.1654 6.1589 20.8539 6.5055 20.4858 6.917L15.5893 12.3897C15.5174 12.4699 15.4781 12.5134 15.4506 12.5469C15.4409 12.5587 15.435 12.5662 15.432 12.5703C15.4249 12.5831 15.4196 12.5971 15.4164 12.6113C15.4185 12.602 15.417 12.6048 15.4154 12.6416C15.4136 12.6849 15.4135 12.7431 15.4135 12.8506V17.6621C15.4135 17.7782 15.4243 18.0313 15.3373 18.2647C15.2704 18.4439 15.1615 18.6047 15.0199 18.7334C14.8356 18.9008 14.5966 18.9842 14.4887 19.0273L11.5385 20.207C11.3681 20.2752 11.193 20.3467 11.0424 20.3916C10.8898 20.4371 10.6636 20.4885 10.4086 20.4356C10.0863 20.3685 9.80349 20.1767 9.6215 19.9023C9.47742 19.685 9.44058 19.4555 9.42618 19.2969C9.41201 19.1404 9.41349 18.9519 9.41349 18.7686V12.8506C9.41349 12.7432 9.41337 12.6849 9.41154 12.6416C9.40996 12.6048 9.4075 12.602 9.40958 12.6113C9.40641 12.5971 9.40109 12.5831 9.39396 12.5703C9.3986 12.5786 9.39868 12.5752 9.3754 12.5469C9.34791 12.5134 9.30949 12.4699 9.23771 12.3897L4.34025 6.917C3.97207 6.50551 3.66059 6.1589 3.44474 5.86915C3.24016 5.5945 3.01813 5.24105 3.00138 4.81934C2.97973 4.27334 3.21383 3.74833 3.63517 3.4004L3.76115 3.3086C4.06249 3.115 4.41495 3.0581 4.71329 3.03125C5.07307 2.99892 5.53927 3 6.09122 3H18.7348Z" fill="currentColor"/>
</svg>
