<svg width="24" height="24" viewBox="0 0 24 24" fill="none" xmlns="http://www.w3.org/2000/svg">
<path d="M14.9495 17.8125C14.9495 17.9286 14.9604 18.1817 14.8734 18.415C14.8065 18.5943 14.6976 18.7551 14.556 18.8838C14.3716 19.0513 14.1325 19.1346 14.0247 19.1777L10.9652 20.4014C10.8131 20.4622 10.6516 20.5277 10.512 20.5693C10.3705 20.6116 10.1525 20.6619 9.90462 20.6104C9.59518 20.5459 9.32341 20.3621 9.14876 20.0986C9.00895 19.8876 8.97461 19.6666 8.96126 19.5195C8.94811 19.3745 8.94954 19.2008 8.94954 19.0371V13.001C8.94954 12.8935 8.94942 12.8353 8.94759 12.792C8.94602 12.7551 8.94356 12.7524 8.94564 12.7617C8.94246 12.7475 8.93716 12.7335 8.93001 12.7207C8.9347 12.7291 8.93486 12.7258 8.91146 12.6973C8.88396 12.6638 8.84559 12.6203 8.77376 12.54L3.63802 6.80079C3.30762 6.43152 3.02424 6.1167 2.82747 5.85255C2.64202 5.60358 2.42956 5.26985 2.41341 4.86622C2.39297 4.35152 2.61399 3.8564 3.01107 3.52833C3.32263 3.27108 3.71353 3.20653 4.02279 3.17872C4.35085 3.14922 4.77435 3.1504 5.26986 3.1504H12.849C13.2632 3.1504 13.599 3.48618 13.599 3.9004C13.599 4.31461 13.2632 4.6504 12.849 4.6504H5.26986C4.74467 4.6504 4.40228 4.65088 4.15755 4.67286C4.03724 4.68368 3.97383 4.69789 3.94662 4.70508C3.92985 4.72539 3.91777 4.74946 3.91341 4.7754C3.92539 4.79923 3.95629 4.85628 4.0306 4.95606C4.17739 5.15312 4.40492 5.40929 4.75521 5.80079L9.89095 11.54C10.0048 11.6672 10.1406 11.8124 10.2386 11.9873C10.3172 12.1275 10.3746 12.2786 10.4095 12.4356C10.4531 12.6313 10.4495 12.8303 10.4495 13.001V18.9912L13.4495 17.792V13.001C13.4495 12.8303 13.4451 12.6313 13.4886 12.4356C13.5236 12.2787 13.5809 12.1275 13.6595 11.9873C13.7575 11.8124 13.8934 11.6672 14.0072 11.54L14.596 10.8818C14.8722 10.5732 15.3469 10.5462 15.6556 10.8223C15.9643 11.0985 15.9904 11.5732 15.7142 11.8818L15.1253 12.54C15.0534 12.6204 15.0142 12.6638 14.9867 12.6973C14.9633 12.7258 14.9634 12.7291 14.9681 12.7207C14.9609 12.7335 14.9557 12.7475 14.9525 12.7617C14.9546 12.7524 14.9531 12.7551 14.9515 12.792C14.9497 12.8353 14.9495 12.8935 14.9495 13.001V17.8125Z" fill="currentColor"/>
<path fill-rule="evenodd" clip-rule="evenodd" d="M14.9008 3.34127C15.1547 3.08755 15.5669 3.08747 15.8207 3.34127L17.1371 4.65767C17.1476 4.66728 17.1575 4.67756 17.1674 4.68795L20.933 8.45455C20.9485 8.46828 20.9627 8.48312 20.977 8.49849L22.3002 9.82173C22.5537 10.0756 22.5538 10.487 22.3002 10.7407C22.0465 10.9944 21.6352 10.9942 21.3813 10.7407L20.3969 9.75631C19.8825 10.0234 19.28 10.2094 18.5981 10.2094C17.4786 10.2092 16.5751 9.71387 15.9203 9.16744C15.2673 8.62241 14.8222 7.99573 14.6 7.644C14.5615 7.58304 14.4718 7.45096 14.4291 7.26509C14.397 7.12471 14.397 6.95435 14.4291 6.81392C14.4717 6.62833 14.5613 6.49622 14.6 6.43502C14.7968 6.12349 15.1745 5.58566 15.7231 5.08345L14.9008 4.26119C14.647 4.00735 14.647 3.59511 14.9008 3.34127ZM16.644 6.00435C16.2414 6.36437 15.9412 6.76526 15.7592 7.04049C15.9555 7.3373 16.2934 7.78546 16.7534 8.16939C17.262 8.59392 17.8805 8.90941 18.5981 8.90963C18.8852 8.90963 19.1563 8.85851 19.4106 8.77095L18.769 8.12838C18.6984 8.14229 18.6173 8.15084 18.5239 8.15084C17.9397 8.15075 17.4664 7.67737 17.4662 7.09322C17.4662 6.99995 17.4717 6.9154 17.4799 6.83931L16.644 6.00435Z" fill="currentColor"/>
<path d="M18.5981 3.86959C19.7176 3.86975 20.6211 4.36517 21.2758 4.91158C21.9291 5.45683 22.374 6.08433 22.5961 6.43599C22.6346 6.49697 22.7244 6.62822 22.767 6.81392C22.7992 6.95447 22.7993 7.12554 22.767 7.26607C22.7243 7.45203 22.6337 7.58399 22.5951 7.64498C22.4752 7.83478 22.2943 8.09937 22.0541 8.38619C21.8237 8.66139 21.4134 8.69759 21.1381 8.46724C20.8629 8.23678 20.8266 7.82647 21.0571 7.55123C21.2163 7.36099 21.3414 7.18109 21.435 7.03951C21.2386 6.74269 20.9025 6.29334 20.4428 5.90963C19.9341 5.48514 19.3157 5.17053 18.5981 5.17037C18.4751 5.17037 18.3551 5.17869 18.2397 5.19576C17.8847 5.2481 17.5549 5.00291 17.5024 4.64791C17.4501 4.2929 17.6952 3.96309 18.0502 3.9106C18.2272 3.88445 18.4103 3.86959 18.5981 3.86959Z" fill="currentColor"/>
</svg>
