<svg width="24" height="24" viewBox="0 0 24 24" fill="none" xmlns="http://www.w3.org/2000/svg">
<path fill-rule="evenodd" clip-rule="evenodd" d="M9.12207 3.25011C9.78558 3.25011 10.2966 3.24044 10.7607 3.4005C11.1459 3.53338 11.497 3.7502 11.7881 4.03527C12.1388 4.37876 12.3586 4.8403 12.6553 5.43371L13.3633 6.84972H17.7998C18.3475 6.84972 18.8037 6.8487 19.1748 6.87902C19.5545 6.91005 19.9109 6.97783 20.2481 7.14953C20.7655 7.41316 21.1865 7.83427 21.4502 8.35168C21.6219 8.68878 21.6897 9.04523 21.7207 9.42492C21.751 9.79602 21.75 10.2523 21.75 10.7999V17.0001C21.75 17.5474 21.751 18.0032 21.7207 18.3741C21.6897 18.754 21.622 19.1111 21.4502 19.4484C21.1866 19.9657 20.7654 20.3859 20.2481 20.6495C19.9109 20.8213 19.5546 20.889 19.1748 20.92C18.8037 20.9504 18.3475 20.9493 17.7998 20.9493H6.2002C5.65253 20.9493 5.19633 20.9504 4.8252 20.92C4.44543 20.889 4.08913 20.8213 3.75196 20.6495C3.23459 20.3859 2.81346 19.9657 2.54981 19.4484C2.378 19.1111 2.31034 18.754 2.2793 18.3741C2.24902 18.0032 2.25 17.5474 2.25 17.0001V7.20031C2.25 6.65273 2.24898 6.19639 2.2793 5.82531C2.31034 5.44566 2.37813 5.08914 2.54981 4.75207C2.81347 4.2347 3.23457 3.81354 3.75196 3.54992C4.08907 3.37824 4.4455 3.31044 4.8252 3.27941C5.19633 3.24909 5.65253 3.25011 6.2002 3.25011H9.12207ZM3.75 17.0001C3.75 17.5721 3.75028 17.9563 3.77442 18.2521C3.79787 18.5391 3.8406 18.6771 3.88672 18.7677C4.00657 19.0026 4.19763 19.1938 4.43262 19.3136C4.52316 19.3597 4.66044 19.4015 4.94727 19.4249C5.24315 19.4491 5.62778 19.4493 6.2002 19.4493H17.7998C18.3722 19.4493 18.7569 19.4491 19.0527 19.4249C19.3396 19.4015 19.4768 19.3597 19.5674 19.3136C19.8024 19.1938 19.9934 19.0026 20.1133 18.7677C20.1594 18.6771 20.2021 18.5391 20.2256 18.2521C20.2497 17.9563 20.25 17.5721 20.25 17.0001V10.7999C20.25 10.2276 20.2498 9.84285 20.2256 9.54699C20.2021 9.26007 20.1594 9.12287 20.1133 9.03234C19.9935 8.79727 19.8025 8.60625 19.5674 8.48644C19.4768 8.44032 19.3397 8.39759 19.0527 8.37414C18.7569 8.34996 18.3722 8.34972 17.7998 8.34972H3.75V17.0001ZM6.2002 4.75011C5.62778 4.75011 5.24315 4.75035 4.94727 4.77453C4.66036 4.79798 4.52316 4.84071 4.43262 4.88683C4.19756 5.00663 4.00656 5.19769 3.88672 5.43273C3.8406 5.52325 3.79788 5.66053 3.77442 5.94738C3.75555 6.17832 3.75195 6.46355 3.75098 6.84972H11.6865L11.3135 6.1046C10.9682 5.41413 10.8665 5.23313 10.7383 5.10753C10.6059 4.97794 10.4466 4.87887 10.2715 4.81847C10.1018 4.75997 9.89421 4.75011 9.12207 4.75011H6.2002Z" fill="currentColor"/>
</svg>
