<svg width="24" height="24" viewBox="0 0 24 24" fill="none" xmlns="http://www.w3.org/2000/svg">
<path d="M11.4697 10.5685C11.7626 10.2756 12.2374 10.2756 12.5303 10.5685L15.2256 13.2638C15.3645 13.3999 15.4511 13.5892 15.4512 13.7989C15.4512 14.0085 15.3642 14.197 15.2256 14.3331L12.5303 17.0294C12.2374 17.322 11.7626 17.322 11.4697 17.0294C11.1769 16.7366 11.177 16.2618 11.4697 15.9689L12.8897 14.5489H9.30079C8.88657 14.5489 8.55079 14.2132 8.55079 13.7989C8.55085 13.3848 8.88661 13.0489 9.30079 13.0489H12.8897L11.4697 11.629C11.1768 11.3361 11.1768 10.8614 11.4697 10.5685Z" fill="currentColor"/>
<path fill-rule="evenodd" clip-rule="evenodd" d="M9.12207 3.14855C9.78558 3.14855 10.2966 3.13888 10.7607 3.29894C11.1459 3.43182 11.497 3.64864 11.7881 3.93371C12.1388 4.2772 12.3586 4.73874 12.6553 5.33214L13.3643 6.74914H17.7998C18.3475 6.74914 18.8037 6.74811 19.1748 6.77843C19.5545 6.80946 19.9109 6.87725 20.2481 7.04894C20.7655 7.31258 21.1865 7.73369 21.4502 8.25109C21.6219 8.5882 21.6897 8.94464 21.7207 9.32433C21.751 9.69543 21.75 10.1517 21.75 10.6993V16.8995C21.75 17.4468 21.751 17.9026 21.7207 18.2736C21.6897 18.6534 21.622 19.0105 21.4502 19.3478C21.1866 19.8651 20.7654 20.2853 20.2481 20.5489C19.9109 20.7207 19.5546 20.7884 19.1748 20.8194C18.8037 20.8498 18.3475 20.8487 17.7998 20.8487H6.2002C5.65253 20.8487 5.19633 20.8498 4.8252 20.8194C4.44543 20.7884 4.08913 20.7207 3.75196 20.5489C3.23459 20.2853 2.81346 19.8651 2.54981 19.3478C2.378 19.0105 2.31034 18.6534 2.2793 18.2736C2.24902 17.9026 2.25 17.4468 2.25 16.8995V7.09875C2.25 6.55117 2.24898 6.09482 2.2793 5.72375C2.31034 5.3441 2.37813 4.98758 2.54981 4.6505C2.81347 4.13314 3.23457 3.71198 3.75196 3.44835C4.08907 3.27667 4.4455 3.20888 4.8252 3.17785C5.19633 3.14753 5.65253 3.14855 6.2002 3.14855H9.12207ZM3.75 16.8995C3.75 17.4715 3.75028 17.8557 3.77442 18.1515C3.79787 18.4385 3.8406 18.5765 3.88672 18.6671C4.00657 18.902 4.19763 19.0933 4.43262 19.213C4.52316 19.2591 4.66044 19.3009 4.94727 19.3243C5.24315 19.3485 5.62778 19.3487 6.2002 19.3487H17.7998C18.3722 19.3487 18.7569 19.3485 19.0527 19.3243C19.3396 19.3009 19.4768 19.2591 19.5674 19.213C19.8024 19.0933 19.9934 18.902 20.1133 18.6671C20.1594 18.5765 20.2021 18.4385 20.2256 18.1515C20.2497 17.8557 20.25 17.4715 20.25 16.8995V10.6993C20.25 10.127 20.2498 9.74226 20.2256 9.4464C20.2021 9.15948 20.1594 9.02228 20.1133 8.93175C19.9935 8.69668 19.8025 8.50567 19.5674 8.38585C19.4768 8.33973 19.3397 8.29701 19.0527 8.27355C18.7569 8.24938 18.3722 8.24914 17.7998 8.24914H3.75V16.8995ZM6.2002 4.64855C5.62778 4.64855 5.24315 4.64879 4.94727 4.67296C4.66036 4.69642 4.52316 4.73915 4.43262 4.78527C4.19756 4.90507 4.00656 5.09613 3.88672 5.33117C3.8406 5.42168 3.79788 5.55897 3.77442 5.84582C3.75553 6.07695 3.75195 6.36247 3.75098 6.74914H11.6865L11.3135 6.00304C10.9682 5.31256 10.8665 5.13156 10.7383 5.00597C10.6059 4.87638 10.4466 4.77731 10.2715 4.71691C10.1018 4.65841 9.89421 4.64855 9.12207 4.64855H6.2002Z" fill="currentColor"/>
</svg>
