<svg width="24" height="24" viewBox="0 0 24 24" fill="none" xmlns="http://www.w3.org/2000/svg">
<path fill-rule="evenodd" clip-rule="evenodd" d="M8.59473 3.1486C9.19162 3.1486 9.68717 3.137 10.1367 3.30876C10.5054 3.44968 10.8349 3.67751 11.1035 3.96891C11.4244 4.31722 11.6238 4.78112 11.8945 5.38102L12.5322 6.79313H16.5254C17.0235 6.79313 17.4475 6.79303 17.7939 6.82438C18.1514 6.85677 18.4952 6.92807 18.8203 7.11149C19.3103 7.38808 19.6958 7.82129 19.9326 8.3361C20.0947 8.68873 20.1484 9.12667 20.1738 9.53923C20.192 9.83366 20.1965 10.1684 20.1982 10.5285C21.2994 11.0745 21.9754 12.3126 21.6816 13.6154L20.5391 18.6779C20.2512 19.9536 19.1076 20.8487 17.8008 20.8488H5C3.48128 20.8488 2.25011 19.6175 2.25 18.0988V7.13884C2.25 6.58311 2.24994 6.12469 2.27734 5.75309C2.30527 5.37494 2.36458 5.02327 2.51758 4.69059C2.75438 4.17593 3.13909 3.74255 3.62891 3.46598C3.9541 3.28245 4.2986 3.21125 4.65625 3.17888C5.00267 3.14752 5.42669 3.1486 5.9248 3.1486H8.59473ZM5.9248 4.6486C5.39958 4.6486 5.05509 4.64924 4.79199 4.67302C4.54032 4.6958 4.43195 4.73554 4.36621 4.77263C4.16872 4.88424 3.99444 5.07082 3.88086 5.31755C3.83476 5.41778 3.79437 5.56691 3.77246 5.86345C3.75007 6.16707 3.75 6.56078 3.75 7.13884V18.0988C3.75011 18.7891 4.30971 19.3488 5 19.3488H17.8008C18.4213 19.3487 18.9459 18.925 19.0762 18.3478L20.2188 13.2853C20.3948 12.5041 19.7923 11.7368 18.9434 11.7365H10.3789C9.89891 11.7365 9.46218 11.9931 9.23438 12.3966L7.25195 15.9113C7.04837 16.2719 6.59019 16.399 6.22949 16.1955C5.86915 15.9918 5.74195 15.5346 5.94531 15.174L7.92773 11.6593C8.42533 10.7775 9.36557 10.2365 10.3789 10.2365H18.6963C18.6932 10.013 18.6879 9.81203 18.6768 9.632C18.6524 9.23819 18.6062 9.04355 18.5693 8.96306C18.4557 8.71606 18.2807 8.52877 18.083 8.41716C18.0172 8.38014 17.9094 8.34126 17.6582 8.31852C17.3951 8.29472 17.0508 8.29313 16.5254 8.29313H12.0479C11.753 8.29313 11.4855 8.12047 11.3643 7.85173L10.5273 5.99821C10.2115 5.29842 10.1166 5.1121 10 4.98552C9.88172 4.85722 9.74472 4.76491 9.60156 4.71013C9.47191 4.66061 9.30977 4.6486 8.59473 4.6486H5.9248Z" fill="currentColor"/>
</svg>
