<svg width="24" height="24" viewBox="0 0 24 24" fill="none" xmlns="http://www.w3.org/2000/svg">
<path d="M16.6953 14.4685C16.9882 14.1759 17.4631 14.1757 17.7559 14.4685C18.0485 14.7613 18.0484 15.2361 17.7559 15.529L16.1729 17.111L17.7559 18.694C18.0484 18.9869 18.0485 19.4618 17.7559 19.7546C17.4631 20.0474 16.9882 20.0472 16.6953 19.7546L15.1123 18.1716L13.5303 19.7546C13.2374 20.0473 12.7626 20.0473 12.4697 19.7546C12.1769 19.4617 12.177 18.9869 12.4697 18.694L14.0518 17.111L12.4697 15.529C12.177 15.2361 12.1769 14.7613 12.4697 14.4685C12.7626 14.1758 13.2374 14.1758 13.5303 14.4685L15.1123 16.0505L16.6953 14.4685Z" fill="currentColor"/>
<path d="M8.9248 5.64424C9.86493 4.68188 11.2395 4.3106 12.9277 4.54072C13.3381 4.59669 13.6262 4.97507 13.5703 5.38545C13.5143 5.79576 13.1359 6.08294 12.7256 6.02705C11.3611 5.84098 10.515 6.16381 9.99805 6.69307C9.45819 7.24586 9.13582 8.16612 9.13574 9.44697V10.362H12.4102C12.8242 10.362 13.16 10.698 13.1602 11.112C13.1602 11.5262 12.8244 11.862 12.4102 11.862H9.13574V15.2761C9.13574 16.6198 8.83911 17.8157 8.02832 18.6716C7.20999 19.5354 6.00304 19.9118 4.5 19.9118C4.08579 19.9118 3.75 19.576 3.75 19.1618C3.75012 18.7477 4.08586 18.4118 4.5 18.4118C5.77246 18.4118 6.50874 18.0949 6.93945 17.6403C7.37759 17.1778 7.63574 16.4303 7.63574 15.2761V11.862H4.5C4.08579 11.862 3.75 11.5262 3.75 11.112C3.75021 10.698 4.08591 10.362 4.5 10.362H7.63574V9.44697C7.63582 7.95274 8.0077 6.58318 8.9248 5.64424Z" fill="currentColor"/>
</svg>
