<svg width="24" height="24" viewBox="0 0 24 24" fill="none" xmlns="http://www.w3.org/2000/svg">
<path fill-rule="evenodd" clip-rule="evenodd" d="M13.75 2.25C13.9489 2.25 14.1396 2.32908 14.2803 2.46973L19.6807 7.87012C19.8211 8.01073 19.9004 8.20167 19.9004 8.40039V10.5C19.9004 10.9141 19.5644 11.2498 19.1504 11.25C18.7362 11.25 18.4004 10.9142 18.4004 10.5V9.14942H15.1904C14.9509 9.14942 14.7257 9.15008 14.5381 9.13477C14.3417 9.11873 14.1209 9.0815 13.9014 8.96973C13.591 8.81156 13.3379 8.55942 13.1797 8.24903C13.0679 8.02958 13.0307 7.80866 13.0147 7.61231C12.9993 7.42468 13 7.1995 13 6.95997V3.75H7.9502C7.37778 3.75 6.99315 3.75024 6.69727 3.77442C6.41028 3.79788 6.27316 3.84059 6.18262 3.88672C5.94751 4.00655 5.75655 4.19751 5.63672 4.43262C5.59059 4.52316 5.54788 4.66028 5.52442 4.94727C5.50024 5.24315 5.5 5.62778 5.5 6.2002V17.7998C5.5 18.3722 5.50024 18.7569 5.52442 19.0527C5.54788 19.3397 5.59059 19.4768 5.63672 19.5674C5.75655 19.8025 5.94751 19.9935 6.18262 20.1133C6.27316 20.1594 6.41028 20.2021 6.69727 20.2256C6.99315 20.2498 7.37778 20.25 7.9502 20.25H11.9502C12.3643 20.2501 12.7002 20.5859 12.7002 21C12.7002 21.4142 12.3643 21.7499 11.9502 21.75H7.9502C7.40253 21.75 6.94633 21.751 6.5752 21.7207C6.19547 21.6897 5.8391 21.6219 5.50196 21.4502C4.98452 21.1865 4.56346 20.7655 4.29981 20.2481C4.1281 19.9109 4.06033 19.5545 4.0293 19.1748C3.99898 18.8037 4 18.3475 4 17.7998V6.2002C4 5.65253 3.99898 5.19633 4.0293 4.8252C4.06033 4.44547 4.1281 4.0891 4.29981 3.75196C4.56346 3.23451 4.98451 2.81346 5.50196 2.54981C5.8391 2.3781 6.19547 2.31033 6.5752 2.2793C6.94633 2.24898 7.40253 2.25 7.9502 2.25H13.75ZM14.5 6.95997C14.5 7.22383 14.5006 7.37689 14.5098 7.48926C14.5135 7.5346 14.5179 7.56084 14.5205 7.57325C14.5334 7.59601 14.5517 7.61463 14.5742 7.62793C14.5855 7.63042 14.6117 7.63569 14.6602 7.63965C14.7726 7.64883 14.9262 7.64942 15.1904 7.64942H17.3389L14.5 4.81055V6.95997Z" fill="currentColor"/>
<path fill-rule="evenodd" clip-rule="evenodd" d="M16.6504 12.2617C18.8595 12.2617 20.6504 14.0526 20.6504 16.2617C20.6504 17.397 20.1336 18.3702 19.4785 19.2207C18.8309 20.0616 17.9682 20.8795 17.1807 21.667C16.8878 21.9599 16.413 21.9599 16.1201 21.667C15.3326 20.8795 14.4699 20.0616 13.8223 19.2207C13.1672 18.3702 12.6504 17.397 12.6504 16.2617C12.6504 14.0526 14.4413 12.2617 16.6504 12.2617ZM16.7022 14.1035C15.6119 14.1035 14.7143 14.9323 14.6065 15.9941L14.5957 16.21L14.6065 16.4248C14.7143 17.4867 15.6118 18.3154 16.7022 18.3154C17.8648 18.3152 18.8074 17.3726 18.8076 16.21C18.8076 15.1196 17.9789 14.2221 16.917 14.1143L16.7022 14.1035Z" fill="currentColor"/>
</svg>
