<svg width="66" height="64" viewBox="0 0 66 64" fill="none" xmlns="http://www.w3.org/2000/svg">
    <path fill-rule="evenodd" clip-rule="evenodd" d="M32.5219 6C17.856 6 6 17.9166 6 32.6591C6 44.4436 13.5965 54.4188 24.135 57.9494C25.4525 58.2148 25.9351 57.3758 25.9351 56.67C25.9351 56.052 25.8917 53.9335 25.8917 51.7262C18.514 53.3155 16.9776 48.5483 16.9776 48.5483C15.792 45.4586 14.0352 44.6645 14.0352 44.6645C11.6205 43.0314 14.2111 43.0314 14.2111 43.0314C16.8897 43.208 18.2952 45.7679 18.2952 45.7679C20.6659 49.8282 24.4862 48.681 26.0231 47.9747C26.2424 46.2532 26.9454 45.0616 27.6919 44.3997C21.8076 43.7816 15.6166 41.4866 15.6166 31.2464C15.6166 28.3334 16.6698 25.95 18.3386 24.0965C18.0753 23.4346 17.153 20.6975 18.6024 17.0342C18.6024 17.0342 20.8418 16.3279 25.8912 19.7707C28.053 19.1872 30.2824 18.8903 32.5219 18.8878C34.7613 18.8878 37.0441 19.1971 39.1521 19.7707C44.202 16.3279 46.4414 17.0342 46.4414 17.0342C47.8909 20.6975 46.968 23.4346 46.7047 24.0965C48.4175 25.95 49.4273 28.3334 49.4273 31.2464C49.4273 41.4866 43.2362 43.7372 37.308 44.3997C38.2743 45.2382 39.1082 46.8269 39.1082 49.3429C39.1082 52.9179 39.0647 55.7871 39.0647 56.6695C39.0647 57.3758 39.5479 58.2148 40.8649 57.95C51.4033 54.4183 58.9999 44.4436 58.9999 32.6591C59.0433 17.9166 47.1439 6 32.5219 6Z" fill="currentColor"/>
</svg>
