<svg width="64" height="64" viewBox="0 0 64 64" fill="none" xmlns="http://www.w3.org/2000/svg">
    <path d="M58.5072 34.9597L55.7072 26.373C55.7072 26.293 55.6805 26.213 55.6539 26.133L50.0272 8.85301C49.8693 8.41215 49.5803 8.03019 49.1989 7.75846C48.8175 7.48673 48.3621 7.33826 47.8939 7.33301C46.9339 7.33301 46.0805 7.99967 45.7872 8.87967L40.4539 25.333H23.5739L18.2139 8.87967C18.0653 8.43595 17.7831 8.04908 17.4059 7.77216C17.0287 7.49523 16.575 7.34183 16.1072 7.33301C15.1205 7.33301 14.2672 7.99967 13.9739 8.87967L8.34719 26.1863V26.213L5.49386 34.9597C5.06719 36.293 5.52052 37.733 6.66719 38.533L31.2539 56.4263C31.7072 56.7463 32.2939 56.7463 32.7472 56.3997L57.3339 38.533C58.4805 37.733 58.9339 36.293 58.5072 34.9597ZM21.7339 27.8663L28.5872 48.9597L12.1339 27.8663M35.4139 48.9863L42.0005 28.7463L42.2672 27.8663H51.8939L36.9872 46.9597M47.9205 10.5063L52.7472 25.333H43.0939M39.6272 27.8663L34.8539 42.5597L32.0005 51.3063L24.3739 27.8663M16.0805 10.5063L20.9072 25.333H11.2805M8.13386 36.5063C7.89386 36.3197 7.78719 35.9997 7.89386 35.733L10.0005 29.253L25.5205 49.1197M55.8672 36.5063L38.5072 49.1197L38.5605 49.0397L54.0005 29.253L56.1072 35.733C56.2139 35.9997 56.1072 36.3197 55.8672 36.5063Z" fill="currentColor"/>
</svg>
