<svg width="24" height="24" viewBox="0 0 24 24" fill="none" xmlns="http://www.w3.org/2000/svg">
<path fill-rule="evenodd" clip-rule="evenodd" d="M12 2.25C17.3848 2.25 21.75 6.61522 21.75 12C21.75 17.3848 17.3848 21.75 12 21.75C6.61522 21.75 2.25 17.3848 2.25 12C2.25 6.61522 6.61522 2.25 12 2.25ZM3.78613 12.75C4.11226 16.3679 6.77203 19.3101 10.25 20.0615C8.7141 17.9275 7.81552 15.391 7.67188 12.75H3.78613ZM16.3291 12.75C16.1854 15.3912 15.2861 17.9274 13.75 20.0615C17.228 19.3101 19.8877 16.3679 20.2139 12.75H16.3291ZM9.17578 12.75C9.33578 15.3631 10.3255 17.8559 12 19.8672C13.6746 17.8558 14.6651 15.3632 14.8252 12.75H9.17578ZM10.25 3.9375C6.77194 4.68887 4.11226 7.63205 3.78613 11.25H7.67188C7.81553 8.60871 8.71381 6.0717 10.25 3.9375ZM12 4.13184C10.3253 6.14322 9.33573 8.63661 9.17578 11.25H14.8252C14.6651 8.6365 13.6749 6.14329 12 4.13184ZM13.75 3.9375C15.2864 6.0718 16.1854 8.60853 16.3291 11.25H20.2139C19.8877 7.63205 17.2281 4.68887 13.75 3.9375Z" fill="currentColor"/>
</svg>
