<svg width="24" height="24" viewBox="0 0 24 24" fill="none" xmlns="http://www.w3.org/2000/svg">
<path d="M5.7998 13.6006C6.79392 13.6006 7.59961 14.4063 7.59961 15.4004C7.59945 16.3944 6.79382 17.2002 5.7998 17.2002C4.80588 17.2001 4.00016 16.3943 4 15.4004C4 14.4063 4.80578 13.6007 5.7998 13.6006Z" fill="currentColor"/>
<path d="M12.0996 13.6006C13.0937 13.6006 13.9004 14.4063 13.9004 15.4004C13.9002 16.3944 13.0936 17.2002 12.0996 17.2002C11.1058 17.2 10.3 16.3942 10.2998 15.4004C10.2998 14.4064 11.1057 13.6008 12.0996 13.6006Z" fill="currentColor"/>
<path d="M18.4004 13.6006C19.3943 13.6008 20.2002 14.4064 20.2002 15.4004C20.2 16.3942 19.3942 17.2 18.4004 17.2002C17.4064 17.2002 16.5998 16.3944 16.5996 15.4004C16.5996 14.4063 17.4063 13.6006 18.4004 13.6006Z" fill="currentColor"/>
<path d="M5.7998 7C6.79385 7 7.5995 7.80578 7.59961 8.7998C7.59961 9.79392 6.79392 10.5996 5.7998 10.5996C4.80578 10.5995 4 9.79385 4 8.7998C4.00011 7.80585 4.80585 7.00011 5.7998 7Z" fill="currentColor"/>
<path d="M12.0996 7C13.0937 7 13.9003 7.80578 13.9004 8.7998C13.9004 9.79392 13.0937 10.5996 12.0996 10.5996C11.1057 10.5994 10.2998 9.79379 10.2998 8.7998C10.2999 7.80591 11.1057 7.00021 12.0996 7Z" fill="currentColor"/>
<path d="M18.4004 7C19.3943 7.00021 20.2001 7.80591 20.2002 8.7998C20.2002 9.79379 19.3943 10.5994 18.4004 10.5996C17.4063 10.5996 16.5996 9.79392 16.5996 8.7998C16.5997 7.80578 17.4063 7 18.4004 7Z" fill="currentColor"/>
</svg>
