<svg width="24" height="24" viewBox="0 0 24 24" fill="none" xmlns="http://www.w3.org/2000/svg">
<path fill-rule="evenodd" clip-rule="evenodd" d="M9.75078 13.9502C12.5859 13.9506 15.07 15.4991 16.6219 17.8291C16.7682 18.0488 16.9192 18.2733 17.0223 18.4834C17.1382 18.72 17.2178 18.9848 17.199 19.2988C17.184 19.5489 17.1003 19.7849 16.9988 19.9746C16.8973 20.1642 16.7474 20.3654 16.5477 20.5166C16.2809 20.7183 15.9901 20.7911 15.7225 20.8223C15.4736 20.8512 15.1733 20.8506 14.8602 20.8506H4.64043C4.32732 20.8506 4.02697 20.8511 3.77812 20.8223C3.51064 20.7911 3.22057 20.7179 2.9539 20.5166C2.75402 20.3654 2.60337 20.1643 2.50175 19.9746C2.40023 19.7849 2.31658 19.549 2.30156 19.2988C2.28274 18.9845 2.36324 18.7201 2.47929 18.4834C2.58239 18.2732 2.73331 18.0489 2.87968 17.8291C4.43172 15.499 6.91534 13.9502 9.75078 13.9502ZM9.75078 15.4502C7.49138 15.4502 5.44547 16.6819 4.12773 18.6602C3.96003 18.9119 3.87552 19.0426 3.82597 19.1436C3.80595 19.1844 3.80083 19.204 3.79961 19.209L3.80156 19.2139C3.8059 19.2278 3.81339 19.2467 3.82402 19.2666C3.83461 19.2863 3.84614 19.3031 3.85527 19.3145C3.86998 19.3187 3.89998 19.326 3.95195 19.332C4.09427 19.3485 4.29223 19.3506 4.64043 19.3506H14.8602C15.2087 19.3506 15.4073 19.3486 15.5496 19.332C15.6 19.3261 15.6295 19.3187 15.6443 19.3145C15.6535 19.3031 15.6659 19.2864 15.6766 19.2666C15.6872 19.2466 15.6947 19.2278 15.699 19.2139C15.7035 19.1995 15.7026 19.1976 15.7019 19.209C15.7009 19.2045 15.6958 19.1849 15.6756 19.1436C15.6261 19.0426 15.5406 18.912 15.3728 18.6602C14.0553 16.6821 12.0098 15.4506 9.75078 15.4502Z" fill="currentColor"/>
<path d="M16.7303 15.1162C16.9164 14.7465 17.3671 14.5974 17.7371 14.7832C19.1808 15.5087 20.4044 16.665 21.2908 18.0928C21.4314 18.3193 21.6108 18.5861 21.6668 18.9473C21.7264 19.3323 21.6224 19.7059 21.4627 19.9932C21.3029 20.2804 21.04 20.5662 20.6814 20.7188C20.3396 20.864 19.966 20.8496 19.6502 20.8496C19.236 20.8496 18.9002 20.5138 18.9002 20.0996C18.9004 19.6855 19.2361 19.3496 19.6502 19.3496C19.8507 19.3496 19.9604 19.349 20.0408 19.3428C20.1071 19.3376 20.1099 19.3315 20.0945 19.3379C20.0834 19.3427 20.0883 19.3436 20.1033 19.3291C20.118 19.3148 20.1355 19.2919 20.1512 19.2637C20.1668 19.2354 20.1761 19.2085 20.1805 19.1885C20.1848 19.1683 20.1825 19.1648 20.1844 19.1768C20.184 19.1745 20.1834 19.1729 20.1834 19.1729C20.1827 19.1709 20.1796 19.1613 20.1697 19.1416C20.1444 19.091 20.1039 19.0248 20.0164 18.8838C19.2631 17.6705 18.2393 16.714 17.0633 16.123C16.6934 15.937 16.5444 15.4862 16.7303 15.1162Z" fill="currentColor"/>
<path fill-rule="evenodd" clip-rule="evenodd" d="M9.74882 3.15039C12.3995 3.15071 14.5485 5.29952 14.5486 7.9502C14.5486 10.601 12.3995 12.7497 9.74882 12.75C7.09795 12.7499 4.94902 10.6011 4.94902 7.9502C4.94912 5.29938 7.09801 3.1505 9.74882 3.15039ZM9.74882 4.65039C7.92644 4.6505 6.44913 6.12781 6.44902 7.9502C6.44902 9.77267 7.92637 11.2499 9.74882 11.25C11.5711 11.2497 13.0486 9.77254 13.0486 7.9502C13.0485 6.12794 11.571 4.65071 9.74882 4.65039Z" fill="currentColor"/>
<path d="M14.9275 3.98633C15.112 3.61583 15.5627 3.46441 15.9334 3.64844C17.5117 4.43298 18.5992 6.06383 18.5994 7.94922C18.5994 9.83478 17.5118 11.4654 15.9334 12.25C15.5625 12.4343 15.1119 12.2829 14.9275 11.9121C14.7436 11.5413 14.8947 11.0905 15.2654 10.9062C16.3537 10.3653 17.0994 9.24368 17.0994 7.94922C17.0992 6.65495 16.3535 5.53307 15.2654 4.99219C14.8948 4.80773 14.7433 4.35714 14.9275 3.98633Z" fill="currentColor"/>
</svg>
