<svg width="24" height="24" viewBox="0 0 24 24" fill="none" xmlns="http://www.w3.org/2000/svg">
<path d="M20.1006 16.6504C20.5147 16.6505 20.8506 16.9862 20.8506 17.4004C20.8506 17.8145 20.5147 18.1503 20.1006 18.1504H3.90039C3.48618 18.1504 3.15039 17.8146 3.15039 17.4004C3.15039 16.9862 3.48618 16.6504 3.90039 16.6504H20.1006Z" fill="currentColor"/>
<path d="M20.1006 11.25C20.5147 11.2501 20.8506 11.5859 20.8506 12C20.8506 12.4141 20.5147 12.7499 20.1006 12.75H3.90039C3.48618 12.75 3.15039 12.4142 3.15039 12C3.15039 11.5858 3.48618 11.25 3.90039 11.25H20.1006Z" fill="currentColor"/>
<path d="M20.1006 5.84961C20.5147 5.84971 20.8506 6.18546 20.8506 6.59961C20.8506 7.01376 20.5147 7.3495 20.1006 7.34961H3.90039C3.48618 7.34961 3.15039 7.01382 3.15039 6.59961C3.15039 6.1854 3.48618 5.84961 3.90039 5.84961H20.1006Z" fill="currentColor"/>
</svg>
