<svg width="24" height="24" viewBox="0 0 24 24" fill="none" xmlns="http://www.w3.org/2000/svg">
<path d="M16.1602 3.77783C16.2282 3.36936 16.615 3.09274 17.0234 3.16064C17.4319 3.22872 17.7085 3.61546 17.6406 4.02392L17.0361 7.65088H19.6006C20.0147 7.65098 20.3506 7.98673 20.3506 8.40088C20.3506 8.81502 20.0147 9.15077 19.6006 9.15088H16.7861L15.8359 14.8511H18.7002C19.1144 14.8511 19.4502 15.1869 19.4502 15.6011C19.4501 16.0152 19.1143 16.3511 18.7002 16.3511H15.5859L14.9404 20.2241C14.8723 20.6327 14.4857 20.9084 14.0771 20.8403C13.6687 20.7723 13.3931 20.3865 13.4609 19.978L14.0654 16.3511H8.38574L7.74023 20.2241C7.67214 20.6327 7.28553 20.9084 6.87695 20.8403C6.46862 20.7722 6.19291 20.3864 6.26074 19.978L6.86523 16.3511H3.40039C2.98624 16.3511 2.6505 16.0152 2.65039 15.6011C2.65039 15.1869 2.98618 14.8511 3.40039 14.8511H7.11523L8.06543 9.15088H4.30078C3.88657 9.15088 3.55078 8.81509 3.55078 8.40088C3.55078 7.98666 3.88657 7.65088 4.30078 7.65088H8.31543L8.96094 3.77783C9.02901 3.36942 9.41485 3.09286 9.82324 3.16064C10.2317 3.22872 10.5084 3.61545 10.4404 4.02392L9.83594 7.65088H15.5146L16.1602 3.77783ZM8.63574 14.8511H14.3154L15.2646 9.15088H9.58594L8.63574 14.8511Z" fill="currentColor"/>
</svg>
