<svg width="24" height="24" viewBox="0 0 24 24" fill="none" xmlns="http://www.w3.org/2000/svg">
<path d="M8.40039 4.05078C8.8146 4.05078 9.15039 4.38657 9.15039 4.80078C9.15039 5.21499 8.8146 5.55078 8.40039 5.55078H7.34961V11.251H16.6504V5.55078H15.5996C15.1854 5.55078 14.8496 5.21499 14.8496 4.80078C14.8496 4.38657 15.1854 4.05078 15.5996 4.05078H19.1992C19.6134 4.05078 19.9492 4.38657 19.9492 4.80078C19.9492 5.21499 19.6134 5.55078 19.1992 5.55078H18.1504V18.4512H19.1992C19.6134 18.4512 19.9492 18.787 19.9492 19.2012C19.9492 19.6154 19.6134 19.9512 19.1992 19.9512H15.5996C15.1854 19.9512 14.8496 19.6154 14.8496 19.2012C14.8496 18.787 15.1854 18.4512 15.5996 18.4512H16.6504V12.751H7.34961V18.4512H8.40039C8.8146 18.4512 9.15039 18.787 9.15039 19.2012C9.15039 19.6154 8.8146 19.9512 8.40039 19.9512H4.80078C4.38657 19.9512 4.05078 19.6154 4.05078 19.2012C4.05078 18.787 4.38657 18.4512 4.80078 18.4512H5.84961V5.55078H4.80078C4.38657 5.55078 4.05078 5.21499 4.05078 4.80078C4.05078 4.38657 4.38657 4.05078 4.80078 4.05078H8.40039Z" fill="currentColor"/>
</svg>
