<svg width="24" height="24" viewBox="0 0 24 24" fill="none" xmlns="http://www.w3.org/2000/svg">
<path d="M12 2.25C17.3848 2.25 21.75 6.61522 21.75 12C21.75 17.3848 17.3848 21.75 12 21.75C6.61522 21.75 2.25 17.3848 2.25 12C2.25 6.61522 6.61522 2.25 12 2.25ZM12 3.75C7.44365 3.75 3.75 7.44365 3.75 12C3.75 16.5563 7.44365 20.25 12 20.25C16.5563 20.25 20.25 16.5563 20.25 12C20.25 7.44365 16.5563 3.75 12 3.75ZM12.0088 15.4004C12.5608 15.4004 13.0098 15.8479 13.0098 16.4004C13.0098 16.9529 12.5608 17.4004 12.0088 17.4004H12C11.4477 17.4004 11 16.9527 11 16.4004C11 15.8481 11.4477 15.4004 12 15.4004H12.0088ZM10.126 7.13477C10.8486 6.71005 11.6992 6.55469 12.5254 6.69629C13.3514 6.83805 14.1008 7.2681 14.6406 7.90918C15.1802 8.55015 15.4755 9.36143 15.4746 10.1992L15.4639 10.4473C15.3511 11.6609 14.427 12.4777 13.7461 12.9316C13.3574 13.1907 12.9746 13.3814 12.6924 13.5068C12.5502 13.57 12.4299 13.6185 12.3438 13.6514C12.3008 13.6677 12.2655 13.6805 12.2402 13.6895C12.2276 13.6939 12.2167 13.6975 12.209 13.7002C12.2053 13.7014 12.2017 13.7023 12.1992 13.7031L12.1963 13.7051H12.1943C11.7491 13.8532 11.2666 13.6132 11.1182 13.168C10.9703 12.7234 11.2103 12.2419 11.6543 12.0928H11.6562L11.6709 12.0879C11.6851 12.0829 11.708 12.074 11.7383 12.0625C11.7997 12.0391 11.8913 12.0033 12.002 11.9541C12.2258 11.8546 12.5178 11.7072 12.8037 11.5166C13.4271 11.1009 13.7754 10.6479 13.7754 10.1992C13.776 9.76244 13.6211 9.33806 13.3398 9.00391C13.0585 8.66993 12.6677 8.4459 12.2373 8.37207C11.8069 8.29843 11.3637 8.37935 10.9873 8.60059C10.611 8.82192 10.3246 9.16923 10.1797 9.58105C10.0239 10.0239 9.53854 10.2564 9.0957 10.1006C8.65333 9.94453 8.42047 9.4592 8.57617 9.0166C8.85439 8.22616 9.40358 7.55945 10.126 7.13477Z" fill="currentColor"/>
</svg>
