<svg width="24" height="24" viewBox="0 0 24 24" fill="none" xmlns="http://www.w3.org/2000/svg">
<path d="M12.639 2.99023C17.6013 2.99036 21.6243 7.01331 21.6244 11.9756C21.6244 16.938 17.6014 20.9608 12.639 20.9609C9.81622 20.9608 7.29672 19.6581 5.65076 17.624C5.3866 17.2973 5.43682 16.8183 5.76307 16.5537C6.08986 16.2893 6.56975 16.3394 6.83436 16.666C8.20359 18.3581 10.2953 19.4384 12.639 19.4385C16.7603 19.4384 20.101 16.0969 20.101 11.9756C20.1008 7.8544 16.7602 4.51379 12.639 4.51367C8.58325 4.51387 5.28476 7.74944 5.18104 11.7803L5.98182 10.9795C6.27912 10.6825 6.76071 10.6825 7.05799 10.9795C7.35532 11.2769 7.35541 11.7593 7.05799 12.0566L5.22986 13.8838L5.11463 13.9795C4.9904 14.0624 4.84331 14.1074 4.69178 14.1074C4.48985 14.1074 4.29647 14.0266 4.15369 13.8838L2.32654 12.0566C2.02922 11.7592 2.02913 11.2768 2.32654 10.9795C2.62397 10.6823 3.1064 10.6821 3.40369 10.9795L3.68397 11.2607C4.04843 6.63276 7.91749 2.99043 12.639 2.99023Z" fill="currentColor"/>
<path d="M12.015 7.25C12.4292 7.25 12.765 7.58579 12.765 8V12.0977L15.1312 13.6758C15.4758 13.9055 15.5688 14.3712 15.3392 14.7158C15.1094 15.0603 14.6438 15.1535 14.2992 14.9238L11.599 13.124C11.3905 12.9849 11.265 12.7507 11.265 12.5V8C11.265 7.58591 11.601 7.2502 12.015 7.25Z" fill="currentColor"/>
</svg>
