<svg width="24" height="24" viewBox="0 0 24 24" fill="none" xmlns="http://www.w3.org/2000/svg">
<path fill-rule="evenodd" clip-rule="evenodd" d="M11.543 2.52759C11.8425 2.44652 12.1586 2.44655 12.4581 2.52759C12.8329 2.62918 13.147 2.89076 13.4434 3.12134L19.3253 7.69654C19.7451 8.02304 20.0727 8.26907 20.3116 8.59205C20.5105 8.86098 20.6589 9.16446 20.7491 9.48658C20.8302 9.77659 20.8475 10.0793 20.8507 10.4368V16.8499C20.8507 17.3972 20.8507 17.8529 20.8204 18.2239C20.7893 18.6037 20.7227 18.9609 20.5509 19.2981C20.2872 19.8154 19.8661 20.2357 19.3487 20.4993C19.0116 20.671 18.6551 20.7387 18.2755 20.7698C17.9044 20.8001 17.448 20.7991 16.9005 20.7991H7.10066C6.55309 20.7991 6.09674 20.8001 5.72566 20.7698C5.34597 20.7387 4.98954 20.671 4.65242 20.4993C4.1351 20.2357 3.71391 19.8154 3.45027 19.2981C3.27845 18.9609 3.21081 18.6037 3.17977 18.2239C3.14948 17.8529 3.15047 17.3971 3.15047 16.8499V10.8147C3.15047 10.283 3.14387 9.87336 3.25203 9.48658C3.34217 9.16455 3.49071 8.86092 3.68953 8.59205C3.9284 8.26918 4.25622 8.02292 4.67586 7.69654L10.5577 3.12134C10.8541 2.89077 11.1683 2.6292 11.543 2.52759ZM11.9346 3.97486C11.9262 3.97861 11.9022 3.99095 11.8546 4.02271C11.7702 4.07909 11.6625 4.16287 11.4786 4.30591L5.59676 8.88111C5.11005 9.25966 4.98327 9.36608 4.89559 9.48463C4.80531 9.60678 4.73731 9.74461 4.69637 9.89088C4.65674 10.0328 4.65047 10.1986 4.65047 10.8147V16.8499C4.65047 17.4218 4.65073 17.8061 4.67488 18.1018C4.69834 18.3888 4.74105 18.5269 4.78719 18.6174C4.90703 18.8523 5.09814 19.0436 5.33309 19.1633C5.4236 19.2094 5.56104 19.2512 5.84773 19.2747C6.14357 19.2988 6.52837 19.2991 7.10066 19.2991H8.55086V13.5491C8.55086 13.2818 8.55081 13.0355 8.56746 12.8313C8.58488 12.6184 8.62417 12.3846 8.74129 12.1545C8.90898 11.8255 9.17697 11.5577 9.50594 11.3899C9.73606 11.2726 9.9697 11.2335 10.1827 11.2161C10.3869 11.1994 10.633 11.1995 10.9005 11.1995H13.1007C13.3682 11.1995 13.6141 11.1994 13.8184 11.2161C14.0315 11.2335 14.265 11.2726 14.4952 11.3899C14.8243 11.5576 15.0921 11.8255 15.2598 12.1545C15.377 12.3847 15.4172 12.6183 15.4346 12.8313C15.4513 13.0355 15.4513 13.2818 15.4513 13.5491V19.2991H16.9005C17.4727 19.2991 17.8576 19.2988 18.1534 19.2747C18.44 19.2512 18.5775 19.2094 18.668 19.1633C18.903 19.0436 19.0941 18.8523 19.2139 18.6174C19.2601 18.5269 19.3018 18.3888 19.3253 18.1018C19.3494 17.8061 19.3507 17.4219 19.3507 16.8499V10.8147C19.3507 10.1981 19.3435 10.0329 19.3038 9.89088C19.2628 9.74455 19.1959 9.60681 19.1055 9.48463C19.0179 9.36606 18.8912 9.25976 18.4044 8.88111L12.5225 4.30591C12.3385 4.16276 12.2309 4.07908 12.1466 4.02271C12.0973 3.98984 12.0733 3.97812 12.0655 3.97486C12.0229 3.96341 11.9773 3.96332 11.9346 3.97486ZM10.9005 12.6995C10.6084 12.6995 10.4338 12.6997 10.3048 12.7102C10.2334 12.7161 10.1997 12.7233 10.1876 12.7268C10.1407 12.7508 10.1021 12.7893 10.0782 12.8362C10.0865 12.8198 10.0714 12.8333 10.0616 12.9534C10.0511 13.0824 10.0509 13.2573 10.0509 13.5491V19.2991H13.9513V13.5491C13.9512 13.2572 13.95 13.0824 13.9395 12.9534C13.9297 12.8334 13.9156 12.8198 13.9239 12.8362C13.9 12.7892 13.8615 12.7508 13.8145 12.7268C13.8023 12.7233 13.7682 12.7161 13.6964 12.7102C13.5673 12.6997 13.3928 12.6995 13.1007 12.6995H10.9005Z" fill="currentColor"/>
</svg>
