<svg width="24" height="24" viewBox="0 0 24 24" fill="none" xmlns="http://www.w3.org/2000/svg">
<path d="M20.25 12C20.25 7.44365 16.5563 3.75 12 3.75C7.44365 3.75 3.75 7.44365 3.75 12C3.75 16.5563 7.44365 20.25 12 20.25C16.5563 20.25 20.25 16.5563 20.25 12ZM21.75 12C21.75 17.3848 17.3848 21.75 12 21.75C6.61522 21.75 2.25 17.3848 2.25 12C2.25 6.61522 6.61522 2.25 12 2.25C17.3848 2.25 21.75 6.61522 21.75 12Z" fill="currentColor"/>
<path d="M11.1498 16.4187V11.9187C11.1498 11.4492 11.53 11.0691 11.9994 11.0691C12.4689 11.0691 12.849 11.4492 12.849 11.9187V16.4187C12.849 16.8881 12.4689 17.2683 11.9994 17.2683C11.53 17.2683 11.1498 16.8881 11.1498 16.4187Z" fill="currentColor"/>
<path d="M12.0082 7.06907C12.4776 7.06907 12.8588 7.44924 12.8588 7.91868C12.8588 8.38812 12.4776 8.76829 12.0082 8.76829H11.9994C11.53 8.76829 11.1498 8.38812 11.1498 7.91868C11.1498 7.44924 11.53 7.06907 11.9994 7.06907H12.0082Z" fill="currentColor"/>
</svg>
