<svg width="24" height="24" viewBox="0 0 24 24" fill="none" xmlns="http://www.w3.org/2000/svg">
<path d="M11.9004 2C17.3679 2.00022 21.7998 6.43285 21.7998 11.9004C21.7995 17.3676 17.3677 21.7996 11.9004 21.7998C6.43294 21.7998 2.00035 17.3678 2 11.9004C2 6.43272 6.43272 2.00001 11.9004 2Z" fill="currentColor"/>
<path d="M10.6485 15.9283V11.4283C10.6485 10.738 11.2082 10.1783 11.8985 10.1783C12.5889 10.1783 13.1485 10.738 13.1485 11.4283V15.9283C13.1485 16.6187 12.5889 17.1783 11.8985 17.1783C11.2082 17.1783 10.6485 16.6187 10.6485 15.9283Z" fill="white"/>
<path d="M11.9073 6.64951C12.5977 6.64951 13.1573 7.20916 13.1573 7.89951C13.1573 8.58987 12.5977 9.14951 11.9073 9.14951H11.8985C11.2082 9.14951 10.6485 8.58987 10.6485 7.89951C10.6485 7.20916 11.2082 6.64951 11.8985 6.64951H11.9073Z" fill="white"/>
</svg>
