<svg width="24" height="24" viewBox="0 0 24 24" fill="none" xmlns="http://www.w3.org/2000/svg">
<path fill-rule="evenodd" clip-rule="evenodd" d="M11.9004 2C17.3679 2.00022 21.7998 6.43284 21.7998 11.9004C21.7995 17.3677 17.3677 21.7996 11.9004 21.7998C6.43293 21.7997 2.00035 17.3678 2 11.9004C2.00005 6.43274 6.43275 2.00006 11.9004 2ZM11.8984 10.3301C11.2909 10.3301 10.7988 10.8222 10.7988 11.4297V15.9297C10.7991 16.537 11.2911 17.0293 11.8984 17.0293C12.5058 17.0293 12.9978 16.537 12.998 15.9297V11.4297C12.998 10.8222 12.506 10.3301 11.8984 10.3301ZM11.8984 6.80078C11.2909 6.80078 10.7988 7.29288 10.7988 7.90039C10.7988 8.5079 11.2909 9 11.8984 9H11.9072C12.5147 9 13.0078 8.5079 13.0078 7.90039C13.0078 7.29288 12.5147 6.80078 11.9072 6.80078H11.8984Z" fill="currentColor"/>
</svg>
