<svg width="24" height="24" viewBox="0 0 24 24" fill="none" xmlns="http://www.w3.org/2000/svg">
<path fill-rule="evenodd" clip-rule="evenodd" d="M10.2002 2.25C10.4144 2.25 10.5761 2.24953 10.7197 2.26367C12.0253 2.39236 13.0579 3.42491 13.1865 4.73047C13.2007 4.87416 13.2002 5.03568 13.2002 5.25V5.84961H14.2002C14.7476 5.84961 15.2032 5.8496 15.5742 5.87988C15.954 5.91092 16.3112 5.97763 16.6484 6.14942C17.1659 6.41307 17.5869 6.83412 17.8506 7.35156C18.0224 7.68878 18.0891 8.04596 18.1201 8.42578C18.1504 8.79679 18.1504 9.25243 18.1504 9.79981V9.90039H18.75C18.9643 9.90039 19.1259 9.89894 19.2695 9.91309C20.5752 10.0417 21.6077 11.0752 21.7363 12.3809C21.7504 12.5245 21.75 12.6863 21.75 12.9004C21.75 13.1145 21.7505 13.2763 21.7363 13.4199C21.6076 14.7254 20.575 15.7581 19.2695 15.8867C19.1258 15.9009 18.9643 15.9004 18.75 15.9004H18.1504V17.7998C18.1504 18.3475 18.1504 18.8037 18.1201 19.1748C18.0891 19.5545 18.0222 19.911 17.8506 20.248C17.5869 20.7655 17.1659 21.1865 16.6484 21.4502C16.3112 21.622 15.9541 21.6897 15.5742 21.7207C15.2032 21.751 14.7475 21.75 14.2002 21.75H12.4502C12.036 21.75 11.7002 21.4142 11.7002 21V19.3877C11.6935 18.707 11.1427 18.1571 10.4619 18.1504H10.3877C9.70697 18.1571 9.1571 18.707 9.15039 19.3877V21C9.15039 21.4141 8.81443 21.7498 8.40039 21.75H6.2002C5.65253 21.75 5.19633 21.751 4.8252 21.7207C4.44547 21.6897 4.0891 21.6219 3.75196 21.4502C3.23452 21.1865 2.81346 20.7655 2.54981 20.248C2.3781 19.9109 2.31033 19.5545 2.2793 19.1748C2.24898 18.8037 2.25 18.3475 2.25 17.7998V15.1504C2.25001 14.7362 2.5858 14.4004 3 14.4004H4.34961C4.59962 14.4004 4.67079 14.3987 4.72266 14.3936C5.31605 14.335 5.78531 13.8659 5.84375 13.2725C5.84886 13.2206 5.84961 13.15 5.84961 12.9004C5.84961 12.6504 5.84886 12.5792 5.84375 12.5273C5.78524 11.934 5.316 11.4648 4.72266 11.4063C4.67079 11.4011 4.59962 11.4004 4.34961 11.4004H3C2.58592 11.4004 2.25022 11.0644 2.25 10.6504V9.79981C2.25 9.25246 2.24902 8.79678 2.2793 8.42578C2.31034 8.0459 2.37797 7.68883 2.54981 7.35156C2.81346 6.83412 3.23451 6.41307 3.75196 6.14942C4.08904 5.97777 4.44555 5.91091 4.8252 5.87988C5.19633 5.84956 5.65253 5.84961 6.2002 5.84961H7.2002V5.25C7.2002 5.03571 7.19875 4.87415 7.21289 4.73047C7.34149 3.42484 8.37504 2.39227 9.68067 2.26367C9.82432 2.24954 9.98596 2.25 10.2002 2.25ZM9.82715 3.75586C9.23383 3.81445 8.7645 4.28457 8.70606 4.87793C8.70099 4.92976 8.7002 5.0007 8.7002 5.25V6.59961C8.7002 7.01376 8.36432 7.34951 7.9502 7.34961H6.2002C5.62778 7.34961 5.24315 7.35083 4.94727 7.375C4.66036 7.39846 4.52316 7.44021 4.43262 7.48633C4.19756 7.6061 4.00658 7.79722 3.88672 8.03223C3.84058 8.12279 3.79788 8.26073 3.77442 8.54785C3.75028 8.84364 3.75 9.22775 3.75 9.79981V9.90039H4.34961C4.56372 9.90039 4.72556 9.89898 4.86914 9.91309C6.17478 10.0417 7.20832 11.0752 7.33692 12.3809C7.35103 12.5244 7.34961 12.6863 7.34961 12.9004C7.34961 13.1145 7.35106 13.2763 7.33692 13.4199C7.20817 14.7254 6.17466 15.7581 4.86914 15.8867C4.72556 15.9008 4.56373 15.9004 4.34961 15.9004H3.75V17.7998C3.75 18.3722 3.75024 18.7569 3.77442 19.0527C3.79788 19.3397 3.84059 19.4768 3.88672 19.5674C4.00655 19.8025 4.19751 19.9935 4.43262 20.1133C4.52316 20.1594 4.66028 20.2021 4.94727 20.2256C5.24315 20.2498 5.62778 20.25 6.2002 20.25H7.65039V19.373C7.6651 17.8754 8.87539 16.6651 10.3731 16.6504H10.4766C11.9742 16.6651 13.1855 17.8754 13.2002 19.373V20.25H14.2002C14.7723 20.25 15.1564 20.2497 15.4522 20.2256C15.7393 20.2021 15.8772 20.1594 15.9678 20.1133C16.2028 19.9934 16.3939 19.8024 16.5137 19.5674C16.5598 19.4768 16.6015 19.3397 16.625 19.0527C16.6492 18.7569 16.6504 18.3722 16.6504 17.7998V15.1504C16.6504 14.7362 16.9862 14.4004 17.4004 14.4004H18.75C18.9994 14.4004 19.0702 14.3986 19.1221 14.3936C19.7155 14.3351 20.1857 13.8659 20.2441 13.2725C20.2492 13.2206 20.25 13.15 20.25 12.9004C20.25 12.6504 20.2493 12.5792 20.2441 12.5273C20.1856 11.9339 19.7155 11.4647 19.1221 11.4063C19.0702 11.4012 18.9993 11.4004 18.75 11.4004H17.4004C16.9863 11.4004 16.6506 11.0644 16.6504 10.6504V9.79981C16.6504 9.22772 16.6491 8.84365 16.625 8.54785C16.6015 8.26073 16.5598 8.12279 16.5137 8.03223C16.3939 7.79724 16.2028 7.60613 15.9678 7.48633C15.8772 7.44019 15.7393 7.39846 15.4522 7.375C15.1564 7.35086 14.7723 7.34961 14.2002 7.34961H12.4502C12.036 7.34961 11.7002 7.01382 11.7002 6.59961V5.25C11.7002 5.00076 11.6994 4.92976 11.6943 4.87793C11.6359 4.28446 11.1657 3.81431 10.5723 3.75586C10.5204 3.75078 10.4496 3.75 10.2002 3.75C9.95019 3.75 9.87902 3.75075 9.82715 3.75586Z" fill="currentColor"/>
</svg>
