<svg width="24" height="24" viewBox="0 0 24 24" fill="none" xmlns="http://www.w3.org/2000/svg">
<path d="M8.40918 13.0498C8.82339 13.0498 9.15918 13.3856 9.15918 13.7998C9.15918 14.214 8.82339 14.5498 8.40918 14.5498H8.40039C7.98618 14.5498 7.65039 14.214 7.65039 13.7998C7.65039 13.3856 7.98618 13.0498 8.40039 13.0498H8.40918Z" fill="currentColor"/>
<path d="M12.0088 13.0498C12.423 13.0498 12.7588 13.3856 12.7588 13.7998C12.7588 14.214 12.423 14.5498 12.0088 14.5498H12C11.5858 14.5498 11.25 14.214 11.25 13.7998C11.25 13.3856 11.5858 13.0498 12 13.0498H12.0088Z" fill="currentColor"/>
<path d="M15.6084 13.0498C16.0226 13.0498 16.3584 13.3856 16.3584 13.7998C16.3584 14.214 16.0226 14.5498 15.6084 14.5498H15.5996C15.1854 14.5498 14.8496 14.214 14.8496 13.7998C14.8496 13.3856 15.1854 13.0498 15.5996 13.0498H15.6084Z" fill="currentColor"/>
<path d="M6.6084 9.4502C7.02261 9.4502 7.3584 9.78598 7.3584 10.2002C7.3584 10.6144 7.02261 10.9502 6.6084 10.9502H6.59961C6.1854 10.9502 5.84961 10.6144 5.84961 10.2002C5.84961 9.78598 6.1854 9.4502 6.59961 9.4502H6.6084Z" fill="currentColor"/>
<path d="M10.208 9.4502C10.6222 9.4502 10.958 9.78598 10.958 10.2002C10.958 10.6144 10.6222 10.9502 10.208 10.9502H10.1992C9.78501 10.9502 9.44922 10.6144 9.44922 10.2002C9.44922 9.78598 9.78501 9.4502 10.1992 9.4502H10.208Z" fill="currentColor"/>
<path d="M13.8096 9.4502C14.2238 9.4502 14.5596 9.78598 14.5596 10.2002C14.5596 10.6144 14.2238 10.9502 13.8096 10.9502H13.8008C13.3866 10.9502 13.0508 10.6144 13.0508 10.2002C13.0508 9.78598 13.3866 9.4502 13.8008 9.4502H13.8096Z" fill="currentColor"/>
<path d="M17.4092 9.4502C17.8234 9.4502 18.1592 9.78598 18.1592 10.2002C18.1592 10.6144 17.8234 10.9502 17.4092 10.9502H17.4004C16.9862 10.9502 16.6504 10.6144 16.6504 10.2002C16.6504 9.78598 16.9862 9.4502 17.4004 9.4502H17.4092Z" fill="currentColor"/>
<path fill-rule="evenodd" clip-rule="evenodd" d="M18.1201 5.84961C18.6117 5.84961 19.0255 5.84936 19.3633 5.87695C19.7098 5.90526 20.0416 5.967 20.3574 6.12793C20.8372 6.37241 21.2272 6.76237 21.4717 7.24219C21.6326 7.55805 21.6943 7.88981 21.7227 8.23633C21.7503 8.57408 21.75 8.98787 21.75 9.47949V14.5195C21.75 15.0111 21.7502 15.425 21.7227 15.7627C21.6943 16.1092 21.6325 16.441 21.4717 16.7568C21.2272 17.2366 20.8372 17.6276 20.3574 17.8721C20.0417 18.0329 19.7097 18.0947 19.3633 18.123C19.0255 18.1506 18.6117 18.1494 18.1201 18.1494H5.87988C5.38829 18.1494 4.97446 18.1506 4.63672 18.123C4.29032 18.0947 3.95834 18.0329 3.64258 17.8721C3.16277 17.6276 2.7728 17.2366 2.52832 16.7568C2.36745 16.441 2.30565 16.1092 2.27734 15.7627C2.24976 15.425 2.25 15.0111 2.25 14.5195V9.47949C2.25 8.98787 2.24975 8.57408 2.27734 8.23633C2.30566 7.88981 2.36739 7.55805 2.52832 7.24219C2.7728 6.76237 3.16277 6.37241 3.64258 6.12793C3.95844 5.967 4.2902 5.90526 4.63672 5.87695C4.97447 5.84936 5.38826 5.84961 5.87988 5.84961H18.1201ZM5.87988 7.34961C5.36353 7.34961 5.0213 7.35062 4.75879 7.37207C4.5051 7.3928 4.39241 7.42863 4.32324 7.46387C4.12567 7.56453 3.96492 7.72528 3.86426 7.92285C3.82902 7.99202 3.79319 8.10471 3.77246 8.3584C3.75101 8.62091 3.75 8.96314 3.75 9.47949V14.5195C3.75 15.0359 3.75102 15.3781 3.77246 15.6406C3.79318 15.8942 3.82904 16.007 3.86426 16.0762C3.96492 16.2737 4.1257 16.4345 4.32324 16.5352C4.39241 16.5704 4.50503 16.6072 4.75879 16.6279C5.0213 16.6494 5.36353 16.6494 5.87988 16.6494H18.1201C18.6365 16.6494 18.9787 16.6494 19.2412 16.6279C19.495 16.6072 19.6076 16.5704 19.6768 16.5352C19.8743 16.4345 20.0351 16.2737 20.1357 16.0762C20.171 16.007 20.2068 15.8942 20.2275 15.6406C20.249 15.3781 20.25 15.0359 20.25 14.5195V9.47949C20.25 8.96313 20.249 8.62091 20.2275 8.3584C20.2068 8.10471 20.171 7.99202 20.1357 7.92285C20.0351 7.72528 19.8743 7.56453 19.6768 7.46387C19.6076 7.42863 19.4949 7.3928 19.2412 7.37207C18.9787 7.35062 18.6365 7.34961 18.1201 7.34961H5.87988Z" fill="currentColor"/>
</svg>
