<svg width="24" height="24" viewBox="0 0 24 24" fill="none" xmlns="http://www.w3.org/2000/svg">
<path d="M8.4267 4.05176C8.43322 4.05199 8.43972 4.05233 8.44623 4.05273C8.48489 4.05507 8.52266 4.06038 8.55951 4.06836C8.58476 4.07384 8.60905 4.08271 8.63373 4.09082C8.70026 4.11269 8.7634 4.14117 8.82026 4.17969C8.85908 4.20601 8.89621 4.23611 8.93061 4.27051L13.4306 8.77051C13.7235 9.06336 13.7234 9.53815 13.4306 9.83105C13.1377 10.1239 12.663 10.1239 12.3701 9.83105L9.15033 6.61133V10.5605C9.15033 12.0851 9.15113 13.184 9.22162 14.0469C9.29142 14.9007 9.42578 15.458 9.65717 15.9121C10.103 16.7869 10.8145 17.4986 11.6894 17.9443C12.1435 18.1757 12.7008 18.3101 13.5546 18.3799C14.4174 18.4504 15.5157 18.4512 17.04 18.4512H20.1005C20.5146 18.4513 20.8505 18.787 20.8505 19.2012C20.8503 19.6151 20.5145 19.951 20.1005 19.9512H17.04C15.5404 19.9512 14.3706 19.9516 13.4326 19.875C12.4859 19.7977 11.7096 19.6373 11.0087 19.2803C9.85155 18.6907 8.90988 17.75 8.32026 16.5928C7.96324 15.892 7.80387 15.1155 7.72651 14.1689C7.64986 13.2309 7.65033 12.0603 7.65033 10.5605V6.61133L4.43061 9.83105C4.13772 10.1239 3.66295 10.1239 3.37006 9.83105C3.07717 9.53816 3.07717 9.0634 3.37006 8.77051L7.87006 4.27051L7.9267 4.21875C7.9369 4.21043 7.94841 4.20399 7.95893 4.19629C7.97447 4.18493 7.99037 4.17423 8.00678 4.16406C8.03068 4.14928 8.05495 4.13587 8.08002 4.12402C8.0982 4.11541 8.11674 4.10775 8.13569 4.10059C8.16169 4.09079 8.18804 4.08297 8.21479 4.07617C8.2408 4.06953 8.26686 4.06243 8.29389 4.05859C8.29781 4.05804 8.30168 4.05713 8.30561 4.05664C8.33661 4.05274 8.36828 4.05078 8.40033 4.05078C8.40917 4.05078 8.41794 4.05145 8.4267 4.05176Z" fill="currentColor"/>
</svg>
