<svg width="24" height="24" viewBox="0 0 24 24" fill="none" xmlns="http://www.w3.org/2000/svg">
<path d="M18.3467 12.9004C18.6143 12.9004 18.8601 12.9003 19.0645 12.917C19.2775 12.9344 19.511 12.9735 19.7412 13.0908C20.0704 13.2585 20.3381 13.5263 20.5059 13.8555C20.6232 14.0857 20.6632 14.3192 20.6807 14.5322C20.6974 14.7365 20.6963 14.9825 20.6963 15.25V18.3506C20.6963 18.6182 20.6974 18.864 20.6807 19.0684C20.6632 19.2815 20.6232 19.5148 20.5059 19.7451C20.3381 20.0743 20.0704 20.342 19.7412 20.5098C19.5109 20.6271 19.2776 20.6672 19.0645 20.6846C18.8601 20.7013 18.6143 20.7002 18.3467 20.7002H15.2461C14.9786 20.7002 14.7326 20.7013 14.5283 20.6846C14.3153 20.6671 14.0818 20.6271 13.8516 20.5098C13.5224 20.342 13.2546 20.0743 13.0869 19.7451C12.9696 19.5149 12.9305 19.2815 12.9131 19.0684C12.8964 18.864 12.8965 18.6182 12.8965 18.3506V15.25C12.8965 14.9825 12.8964 14.7365 12.9131 14.5322C12.9305 14.3192 12.9696 14.0857 13.0869 13.8555C13.2547 13.5264 13.5225 13.2586 13.8516 13.0908C14.0818 12.9735 14.3153 12.9344 14.5283 12.917C14.7326 12.9003 14.9786 12.9004 15.2461 12.9004H18.3467Z" fill="#8DBEF2"/>
<path d="M8.4502 3C8.71777 3 8.96364 2.99991 9.16797 3.0166C9.38106 3.03402 9.61447 3.07311 9.84473 3.19043C10.1739 3.35816 10.4416 3.62596 10.6094 3.95508C10.7267 4.18529 10.7668 4.41878 10.7842 4.63184C10.8009 4.83611 10.7998 5.08211 10.7998 5.34961V8.4502C10.7998 8.71777 10.8009 8.96364 10.7842 9.16797C10.7668 9.38108 10.7267 9.61445 10.6094 9.84473C10.4416 10.1739 10.1739 10.4416 9.84473 10.6094C9.61445 10.7267 9.38108 10.7668 9.16797 10.7842C8.96364 10.8009 8.71777 10.7998 8.4502 10.7998H5.34961C5.08211 10.7998 4.83611 10.8009 4.63184 10.7842C4.41878 10.7668 4.18529 10.7267 3.95508 10.6094C3.62596 10.4416 3.35816 10.1739 3.19043 9.84473C3.07311 9.61447 3.03402 9.38106 3.0166 9.16797C2.99991 8.96364 3 8.71777 3 8.4502V5.34961C3 5.08211 2.99991 4.83611 3.0166 4.63184C3.03403 4.41879 3.07314 4.18527 3.19043 3.95508C3.35818 3.62597 3.62597 3.35818 3.95508 3.19043C4.18527 3.07314 4.41879 3.03403 4.63184 3.0166C4.83611 2.99991 5.08211 3 5.34961 3H8.4502Z" fill="#2CB67F"/>
<path d="M8.4502 12.9004C8.71777 12.9004 8.96364 12.9003 9.16797 12.917C9.38106 12.9344 9.61447 12.9735 9.84473 13.0908C10.1739 13.2585 10.4416 13.5263 10.6094 13.8555C10.7267 14.0857 10.7668 14.3192 10.7842 14.5322C10.8009 14.7365 10.7998 14.9825 10.7998 15.25V18.3506C10.7998 18.6182 10.8009 18.864 10.7842 19.0684C10.7668 19.2815 10.7267 19.5148 10.6094 19.7451C10.4416 20.0743 10.1739 20.342 9.84473 20.5098C9.61445 20.6271 9.38108 20.6672 9.16797 20.6846C8.96364 20.7013 8.71777 20.7002 8.4502 20.7002H5.34961C5.08211 20.7002 4.83611 20.7013 4.63184 20.6846C4.41878 20.6671 4.18529 20.6271 3.95508 20.5098C3.62596 20.342 3.35816 20.0743 3.19043 19.7451C3.07311 19.5149 3.03402 19.2815 3.0166 19.0684C2.99991 18.864 3 18.6182 3 18.3506V15.25C3 14.9825 2.99991 14.7365 3.0166 14.5322C3.03403 14.3192 3.07314 14.0857 3.19043 13.8555C3.35818 13.5264 3.62597 13.2586 3.95508 13.0908C4.18527 12.9735 4.41879 12.9344 4.63184 12.917C4.83611 12.9003 5.08211 12.9004 5.34961 12.9004H8.4502Z" fill="#1B7CE4"/>
<path d="M16.7988 3.44922C17.213 3.44922 17.5488 3.78501 17.5488 4.19922V6.15039H19.5C19.914 6.1506 20.25 6.48631 20.25 6.90039C20.25 7.31447 19.914 7.65018 19.5 7.65039H17.5488V9.59961C17.5486 10.0136 17.2129 10.3496 16.7988 10.3496C16.3847 10.3496 16.049 10.0136 16.0488 9.59961V7.65039H14.0996C13.6854 7.65039 13.3496 7.3146 13.3496 6.90039C13.3496 6.48618 13.6854 6.15039 14.0996 6.15039H16.0488V4.19922C16.0488 3.78501 16.3846 3.44922 16.7988 3.44922Z" fill="#505157"/>
</svg>
