<svg width="24" height="24" viewBox="0 0 24 24" fill="none" xmlns="http://www.w3.org/2000/svg">
<path d="M14.249 20.25C14.6632 20.25 14.999 20.5858 14.999 21C14.999 21.4142 14.6632 21.75 14.249 21.75H9.74902C9.3349 21.7499 8.99902 21.4141 8.99902 21C8.99902 20.5859 9.3349 20.2501 9.74902 20.25H14.249Z" fill="currentColor"/>
<path d="M13.7988 9.4502C14.213 9.4502 14.5488 9.78598 14.5488 10.2002C14.5487 10.6143 14.213 10.9502 13.7988 10.9502H12.749V15.5996C12.749 16.0138 12.4132 16.3496 11.999 16.3496C11.5849 16.3495 11.249 16.0138 11.249 15.5996V10.9502H10.1992C9.78507 10.9502 9.44932 10.6143 9.44922 10.2002C9.44922 9.78598 9.78501 9.4502 10.1992 9.4502H13.7988Z" fill="currentColor"/>
<path fill-rule="evenodd" clip-rule="evenodd" d="M11.999 2.25C15.8926 2.25 19.0487 5.40629 19.0488 9.2998C19.0488 11.9412 17.5965 14.242 15.4492 15.4492V15.5996C15.4492 16.0086 15.4499 16.3533 15.4307 16.6357C15.4109 16.9249 15.3675 17.2036 15.2549 17.4756C14.9961 18.1004 14.4998 18.5966 13.875 18.8555C13.603 18.9681 13.3244 19.0115 13.0352 19.0312C12.7527 19.0505 12.4081 19.0498 11.999 19.0498C11.59 19.0498 11.2453 19.0505 10.9629 19.0312C10.6738 19.0115 10.3949 18.9681 10.123 18.8555C9.49843 18.5966 9.00191 18.1003 8.74316 17.4756C8.63058 17.2037 8.58809 16.9249 8.56836 16.6357C8.5491 16.3533 8.54883 16.0086 8.54883 15.5996V15.4482C6.40197 14.2409 4.94922 11.9409 4.94922 9.2998C4.94932 5.40635 8.10557 2.25011 11.999 2.25ZM11.999 3.75C8.934 3.75011 6.44932 6.23478 6.44922 9.2998C6.44922 11.5126 7.74429 13.4248 9.62109 14.3164C9.88257 14.4407 10.0488 14.7046 10.0488 14.9941V15.5996C10.0488 16.0292 10.0495 16.3146 10.0645 16.5342C10.0789 16.7462 10.1046 16.8426 10.1289 16.9014C10.2354 17.1586 10.4401 17.3631 10.6973 17.4697C10.756 17.4941 10.8526 17.5197 11.0654 17.5342C11.285 17.5492 11.5695 17.5498 11.999 17.5498C12.4284 17.5498 12.7131 17.5491 12.9326 17.5342C13.1453 17.5197 13.242 17.4941 13.3008 17.4697C13.5581 17.3632 13.7626 17.1586 13.8691 16.9014C13.8934 16.8426 13.9191 16.7464 13.9336 16.5342C13.9486 16.3146 13.9492 16.0292 13.9492 15.5996V14.9941C13.9492 14.7048 14.1157 14.4407 14.377 14.3164C16.2538 13.4248 17.5488 11.5126 17.5488 9.2998C17.5487 6.23471 15.0641 3.75 11.999 3.75Z" fill="currentColor"/>
</svg>
