<svg width="24" height="24" viewBox="0 0 24 24" fill="none" xmlns="http://www.w3.org/2000/svg">
<path d="M12.5908 2C14.0776 2.02209 15.2776 3.22225 15.2998 4.70898V7.61035C15.2998 7.87421 15.3004 8.02728 15.3096 8.13965C15.3133 8.18502 15.3177 8.21124 15.3203 8.22363C15.3334 8.24662 15.3522 8.26499 15.375 8.27832C15.3867 8.28084 15.4126 8.28617 15.46 8.29004C15.5724 8.29923 15.7258 8.2998 15.9902 8.2998H18.0205C18.6496 8.2998 19.1695 8.29984 19.5879 8.33594C20.0135 8.37267 20.4129 8.45141 20.7783 8.65918C21.3331 8.97468 21.7608 9.47397 21.9883 10.0703C22.138 10.463 22.1554 10.8697 22.127 11.2959C22.099 11.715 22.0195 12.2287 21.9238 12.8506L21.1084 18.1504C21.0361 18.6206 20.9759 19.0148 20.9014 19.335C20.8247 19.6643 20.7219 19.9697 20.5371 20.2529C20.2511 20.6912 19.8459 21.0389 19.3691 21.2549C19.0612 21.3944 18.7443 21.4499 18.4072 21.4756C18.0795 21.5005 17.6807 21.5 17.2051 21.5H9.25V13.75C9.25 13.1977 8.80228 12.75 8.25 12.75C7.69772 12.75 7.25 13.1977 7.25 13.75V21.5H5.34961C5.08211 21.5 4.83611 21.5001 4.63184 21.4834C4.41879 21.466 4.18527 21.4269 3.95508 21.3096C3.62597 21.1418 3.35818 20.874 3.19043 20.5449C3.07314 20.3147 3.03403 20.0812 3.0166 19.8682C2.99991 19.6639 3 19.4179 3 19.1504V12.4502C3 12.1827 2.99992 11.9367 3.0166 11.7324C3.03401 11.5194 3.07318 11.2859 3.19043 11.0557C3.35813 10.7265 3.62601 10.4588 3.95508 10.291C4.18528 10.1737 4.41878 10.1336 4.63184 10.1162C4.83611 10.0995 5.08211 10.0996 5.34961 10.0996H7.20996C7.4073 10.0996 7.52057 10.0992 7.60547 10.0938C7.65513 10.0905 7.67758 10.0866 7.68457 10.085C7.72069 10.072 7.75365 10.0511 7.78027 10.0234C7.77502 10.0291 7.78683 10.0199 7.82129 9.9541C7.86073 9.87878 7.90726 9.77581 7.9873 9.5957L10.8955 3.05078C10.8996 3.04157 10.9038 3.03105 10.9082 3.02148C11.1902 2.40538 11.8029 2.00751 12.4805 2H12.5908Z" fill="currentColor"/>
</svg>
