<svg width="24" height="24" viewBox="0 0 24 24" fill="none" xmlns="http://www.w3.org/2000/svg">
<path fill-rule="evenodd" clip-rule="evenodd" d="M11.8408 2.25C13.3276 2.27209 14.5276 3.47225 14.5498 4.95898V7.86035C14.5498 8.12421 14.5504 8.27728 14.5596 8.38965C14.5633 8.43502 14.5677 8.46124 14.5703 8.47363C14.5834 8.49662 14.6022 8.51499 14.625 8.52832C14.6367 8.53084 14.6626 8.53617 14.71 8.54004C14.8224 8.54923 14.9758 8.5498 15.2402 8.5498H17.2705C17.8996 8.5498 18.4195 8.54984 18.8379 8.58594C19.2635 8.62267 19.6629 8.70141 20.0283 8.90918C20.5831 9.22468 21.0108 9.72397 21.2383 10.3203C21.388 10.713 21.4054 11.1197 21.377 11.5459C21.349 11.965 21.2695 12.4787 21.1738 13.1006L20.3584 18.4004C20.2861 18.8706 20.2259 19.2648 20.1514 19.585C20.0747 19.9143 19.9719 20.2197 19.7871 20.5029C19.5011 20.9412 19.0959 21.2889 18.6191 21.5049C18.3112 21.6444 17.9943 21.6999 17.6572 21.7256C17.3295 21.7505 16.9307 21.75 16.4551 21.75H4.59961C4.33211 21.75 4.08611 21.7501 3.88184 21.7334C3.66879 21.716 3.43527 21.6769 3.20508 21.5596C2.87597 21.3918 2.60818 21.124 2.44043 20.7949C2.32314 20.5647 2.28403 20.3312 2.2666 20.1182C2.24991 19.9139 2.25 19.6679 2.25 19.4004V12.7002C2.25 12.4327 2.24992 12.1867 2.2666 11.9824C2.28401 11.7694 2.32318 11.5359 2.44043 11.3057C2.60813 10.9765 2.87601 10.7088 3.20508 10.541C3.43528 10.4237 3.66878 10.3836 3.88184 10.3662C4.08611 10.3495 4.33211 10.3496 4.59961 10.3496H6.45996C6.6573 10.3496 6.77057 10.3492 6.85547 10.3438C6.90513 10.3405 6.92758 10.3366 6.93457 10.335C6.97069 10.322 7.00365 10.3011 7.03027 10.2734C7.02502 10.2791 7.03683 10.2699 7.07129 10.2041C7.11073 10.1288 7.15726 10.0258 7.2373 9.8457L10.1455 3.30078C10.1496 3.29157 10.1538 3.28105 10.1582 3.27148C10.4402 2.65538 11.0529 2.25751 11.7305 2.25H11.8408ZM11.7471 3.75C11.6504 3.75108 11.5628 3.80769 11.5225 3.89551L11.5215 3.89844C11.5204 3.90089 11.5191 3.90456 11.5166 3.91016L8.60742 10.4541C8.5058 10.6828 8.40209 10.9292 8.25 11.1426V20.25H16.4551C16.9534 20.25 17.2853 20.2491 17.543 20.2295C17.7912 20.2106 17.9146 20.1774 18 20.1387C18.2167 20.0405 18.4012 19.8819 18.5312 19.6826C18.5824 19.6041 18.6341 19.4873 18.6904 19.2451C18.749 18.9934 18.8002 18.6654 18.876 18.1729L19.6914 12.8721C19.7911 12.2243 19.8582 11.7857 19.8809 11.4463C19.903 11.114 19.8756 10.9558 19.8369 10.8545C19.7336 10.5836 19.539 10.3573 19.2871 10.2139C19.1929 10.1603 19.0406 10.1087 18.709 10.0801C18.3701 10.0508 17.9261 10.0498 17.2705 10.0498H15.2402C15.0006 10.0498 14.7756 10.0505 14.5879 10.0352C14.3915 10.0191 14.1707 9.98194 13.9512 9.87012C13.6407 9.71195 13.3877 9.45983 13.2295 9.14941C13.1176 8.9298 13.0805 8.70818 13.0645 8.51172C13.0492 8.32421 13.0498 8.09966 13.0498 7.86035V4.98145C13.0398 4.30562 12.4942 3.76004 11.8184 3.75H11.7471ZM6.7041 11.8496H4.59961C4.30744 11.8496 4.13298 11.8508 4.00391 11.8613C3.88389 11.8712 3.87034 11.8853 3.88672 11.877C3.83974 11.9009 3.80132 11.9394 3.77734 11.9863C3.7855 11.9702 3.77054 11.9846 3.76074 12.1045C3.75021 12.2336 3.75 12.408 3.75 12.7002V19.4004C3.75 19.6926 3.7502 19.867 3.76074 19.9961C3.77058 20.1162 3.78569 20.1297 3.77734 20.1133C3.80131 20.1603 3.83968 20.1987 3.88672 20.2227C3.87034 20.2143 3.88384 20.2294 4.00391 20.2393C4.13298 20.2498 4.30744 20.25 4.59961 20.25H6.75V11.8477C6.73467 11.8479 6.71938 11.8495 6.7041 11.8496Z" fill="currentColor"/>
</svg>
