<svg width="24" height="24" viewBox="0 0 24 24" fill="none" xmlns="http://www.w3.org/2000/svg">
<path d="M20.2998 5.80078C21.2939 5.80078 22.0995 6.60656 22.0996 7.60059C22.0996 8.5947 21.2939 9.40039 20.2998 9.40039C19.5367 9.40031 18.8859 8.92527 18.624 8.25488L4.25 8.29102V14.0596C5.02606 14.2595 5.59952 14.9623 5.59961 15.8008C5.59961 16.7949 4.79392 17.6006 3.7998 17.6006C2.80578 17.6005 2 16.7948 2 15.8008C2.00006 15.199 2.29637 14.6676 2.75 14.3408V7.54199C2.75004 7.12857 3.08463 6.79307 3.49805 6.79199L18.7109 6.75488C19.0137 6.18726 19.6116 5.80085 20.2998 5.80078Z" fill="currentColor"/>
</svg>
