<svg width="24" height="24" viewBox="0 0 24 24" fill="none" xmlns="http://www.w3.org/2000/svg">
<path d="M12.2002 6.19922C13.1942 6.19922 13.9999 7.005 14 7.99902C14 8.21931 13.9591 8.42992 13.8867 8.625L19.0254 13.7637C19.177 13.7222 19.3363 13.6992 19.501 13.6992C20.495 13.6992 21.3007 14.505 21.3008 15.499C21.3008 16.4931 20.4951 17.2988 19.501 17.2988C18.507 17.2987 17.7012 16.4931 17.7012 15.499C17.7012 15.2249 17.7644 14.9659 17.874 14.7334L12.8262 9.68555C12.6311 9.75797 12.4205 9.79883 12.2002 9.79883C11.9797 9.7988 11.7694 9.75713 11.5742 9.68457L6.23535 15.0234C6.27687 15.1751 6.30076 15.3342 6.30078 15.499C6.30078 16.4931 5.49509 17.2988 4.50098 17.2988C3.50695 17.2987 2.70117 16.4931 2.70117 15.499C2.70128 14.5051 3.50702 13.6993 4.50098 13.6992C4.77491 13.6992 5.03417 13.7616 5.2666 13.8711L10.5137 8.62402C10.4415 8.42922 10.4004 8.21894 10.4004 7.99902C10.4005 7.00507 11.2062 6.19932 12.2002 6.19922Z" fill="currentColor"/>
</svg>
