<svg width="24" height="24" viewBox="0 0 24 24" fill="none" xmlns="http://www.w3.org/2000/svg">
<path d="M20.2998 5.80078C21.2939 5.80078 22.0995 6.60656 22.0996 7.60059C22.0996 8.5947 21.2939 9.40039 20.2998 9.40039C19.5353 9.40031 18.8839 8.92333 18.623 8.25098H13.7783C13.5956 8.72197 13.2211 9.09587 12.75 9.27832V16.001C12.75 16.4152 12.4142 16.751 12 16.751H5.32715C5.00933 17.2608 4.44482 17.6006 3.7998 17.6006C2.80578 17.6005 2 16.7948 2 15.8008C2.00011 14.8068 2.80585 14.0011 3.7998 14.001C4.60202 14.001 5.28117 14.526 5.51367 15.251H11.25V9.18652C10.6852 8.88284 10.3008 8.28681 10.3008 7.60059C10.3009 6.60663 11.1066 5.80089 12.1006 5.80078C12.7873 5.80078 13.384 6.1855 13.6875 6.75098H18.7129C19.0163 6.18546 19.6131 5.80085 20.2998 5.80078Z" fill="currentColor"/>
</svg>
