<svg width="24" height="24" viewBox="0 0 24 24" fill="none" xmlns="http://www.w3.org/2000/svg">
<path d="M7.07812 11C7.66391 11 8.13965 11.4748 8.13965 12.0605C8.13965 12.6463 7.66391 13.1211 7.07812 13.1211H7.06055C6.47476 13.1211 6 12.6463 6 12.0605C6 11.4748 6.47476 11 7.06055 11H7.07812Z" fill="currentColor"/>
<path d="M2.07812 11C2.66391 11 3.13965 11.4748 3.13965 12.0605C3.13965 12.6463 2.66391 13.1211 2.07812 13.1211H2.06055C1.47476 13.1211 1 12.6463 1 12.0605C1 11.4748 1.47476 11 2.06055 11H2.07812Z" fill="currentColor"/>
<path d="M12.0781 11C12.6639 11 13.1396 11.4748 13.1396 12.0605C13.1396 12.6463 12.6639 13.1211 12.0781 13.1211H12.0605C11.4748 13.1211 11 12.6463 11 12.0605C11 11.4748 11.4748 11 12.0605 11H12.0781Z" fill="currentColor"/>
<path d="M17.0781 11C17.6639 11 18.1396 11.4748 18.1396 12.0605C18.1396 12.6463 17.6639 13.1211 17.0781 13.1211H17.0605C16.4748 13.1211 16 12.6463 16 12.0605C16 11.4748 16.4748 11 17.0605 11H17.0781Z" fill="currentColor"/>
<path d="M22.0781 11C22.6639 11 23.1396 11.4748 23.1396 12.0605C23.1396 12.6463 22.6639 13.1211 22.0781 13.1211H22.0605C21.4748 13.1211 21 12.6463 21 12.0605C21 11.4748 21.4748 11 22.0605 11H22.0781Z" fill="currentColor"/>
</svg>
