<svg width="24" height="24" viewBox="0 0 24 24" fill="none" xmlns="http://www.w3.org/2000/svg">
<path d="M20.9854 11C21.4735 11 21.8691 11.3956 21.8691 11.8838C21.8691 12.3719 21.4735 12.7676 20.9854 12.7676H18.4854C17.9972 12.7676 17.6016 12.3719 17.6016 11.8838C17.6016 11.3956 17.9972 11 18.4854 11H20.9854Z" fill="currentColor"/>
<path d="M13.1846 11C13.6727 11 14.0684 11.3956 14.0684 11.8838C14.0684 12.3719 13.6727 12.7676 13.1846 12.7676H10.6846C10.1964 12.7676 9.80078 12.3719 9.80078 11.8838C9.80078 11.3956 10.1964 11 10.6846 11H13.1846Z" fill="currentColor"/>
<path d="M5.38379 11C5.87194 11 6.26758 11.3956 6.26758 11.8838C6.26758 12.3719 5.87194 12.7676 5.38379 12.7676H2.88379C2.39563 12.7676 2 12.3719 2 11.8838C2 11.3956 2.39563 11 2.88379 11H5.38379Z" fill="currentColor"/>
</svg>
