<svg width="24" height="24" viewBox="0 0 24 24" fill="none" xmlns="http://www.w3.org/2000/svg">
<path d="M20.2998 5.80078C21.2939 5.80078 22.0995 6.60656 22.0996 7.60059C22.0996 8.2456 21.7598 8.81011 21.25 9.12793V15.96C21.25 16.3734 20.9154 16.7089 20.502 16.71L5.3291 16.7461C5.0118 17.2584 4.44668 17.6006 3.7998 17.6006C2.80578 17.6005 2 16.7948 2 15.8008C2.00011 14.8068 2.80585 14.0011 3.7998 14.001C4.59985 14.001 5.27744 14.5232 5.51172 15.2451L19.75 15.2109V9.31445C19.025 9.08195 18.5 8.4028 18.5 7.60059C18.5001 6.60663 19.3058 5.80089 20.2998 5.80078Z" fill="currentColor"/>
</svg>
