<svg width="24" height="24" viewBox="0 0 24 24" fill="none" xmlns="http://www.w3.org/2000/svg">
<path d="M12.2998 8C13.1135 8 13.8007 8.54012 14.0234 9.28125C16.4691 9.79842 18.5282 11.2013 19.9629 12.8174C20.0406 12.8071 20.1197 12.7998 20.2002 12.7998C21.1942 12.7998 21.9999 13.6056 22 14.5996C22 15.5937 21.1943 16.3994 20.2002 16.3994C19.2062 16.3993 18.4004 15.5937 18.4004 14.5996C18.4004 14.2447 18.5043 13.9145 18.6816 13.6357C17.4629 12.3262 15.7749 11.2125 13.8135 10.7715C13.4933 11.2693 12.9357 11.5996 12.2998 11.5996C11.622 11.5995 11.0316 11.2254 10.7246 10.6719C8.471 11.0452 6.72842 12.3842 5.4834 13.9678C5.55733 14.1646 5.59959 14.377 5.59961 14.5996C5.59961 15.5937 4.79392 16.3994 3.7998 16.3994C2.80578 16.3993 2 15.5937 2 14.5996C2.00011 13.6057 2.80585 12.7999 3.7998 12.7998C4.01383 12.7998 4.21877 12.8387 4.40918 12.9072C5.8449 11.1336 7.90396 9.57496 10.6152 9.1709C10.8705 8.48747 11.5274 8.00008 12.2998 8Z" fill="currentColor"/>
</svg>
