<svg width="24" height="24" viewBox="0 0 24 24" fill="none" xmlns="http://www.w3.org/2000/svg">
<path d="M10.5715 8.55879C11.3223 8.61256 12.0535 8.82685 12.7141 9.1877C13.3746 9.54861 13.9497 10.0478 14.4006 10.6506C14.6487 10.9823 14.5809 11.4523 14.2492 11.7004C13.9176 11.9481 13.4474 11.8806 13.1994 11.549C12.8773 11.1185 12.4662 10.7619 11.9943 10.5041C11.5227 10.2466 11.001 10.0933 10.465 10.0549C9.92881 10.0165 9.38964 10.0936 8.88594 10.2814C8.3823 10.4694 7.92419 10.7636 7.54414 11.1438L4.85274 13.8342C4.16988 14.5414 3.79244 15.4898 3.80098 16.4729C3.80963 17.4559 4.20453 18.3968 4.89961 19.092C5.59476 19.787 6.53583 20.181 7.51875 20.1896C8.50175 20.1981 9.4493 19.8198 10.1564 19.1369L11.6857 17.6076C11.9786 17.3148 12.4534 17.3149 12.7463 17.6076C13.0392 17.9005 13.0392 18.3753 12.7463 18.6682L11.1984 20.216C10.2083 21.1722 8.88151 21.7016 7.50508 21.6896C6.12896 21.6775 4.81226 21.1256 3.83907 20.1525C2.86579 19.1792 2.31296 17.862 2.30098 16.4855C2.28902 15.1093 2.81861 13.7833 3.77461 12.7932L3.7834 12.7834L6.4836 10.0832C7.01566 9.55097 7.65646 9.13929 8.36153 8.87617C9.06667 8.61314 9.8208 8.50512 10.5715 8.55879Z" fill="currentColor"/>
<path d="M16.4943 2.30879C17.8707 2.32078 19.188 2.87367 20.1613 3.84688C21.1343 4.82007 21.6863 6.13679 21.6984 7.51289C21.7104 8.88936 21.1811 10.2161 20.2248 11.2063L17.5158 13.9152C16.9837 14.4476 16.3431 14.8592 15.6379 15.1223C14.9326 15.3854 14.1788 15.4944 13.4279 15.4406C12.6771 15.3868 11.946 15.1717 11.2854 14.8107C10.6249 14.4498 10.0496 13.9505 9.59883 13.3479C9.35122 13.0162 9.4187 12.546 9.7502 12.298C10.0817 12.0503 10.5519 12.1183 10.8 12.4494C11.122 12.8799 11.5333 13.2365 12.0051 13.4943C12.4769 13.7521 12.9991 13.9051 13.5354 13.9436C14.0716 13.9819 14.6098 13.9049 15.1135 13.717C15.6173 13.5291 16.0751 13.235 16.4553 12.8547L19.1457 10.1643C19.8286 9.4571 20.2069 8.50961 20.1984 7.52656C20.1898 6.54347 19.795 5.60261 19.0998 4.90742C18.4047 4.21247 17.4646 3.81745 16.4816 3.80879C15.4985 3.80028 14.5502 4.17854 13.843 4.86153L12.3029 6.39278C12.0092 6.68473 11.5344 6.68356 11.2424 6.38985C10.9507 6.09616 10.9519 5.62126 11.2453 5.3293L12.7932 3.79024L12.801 3.78242C13.7911 2.82621 15.1179 2.29686 16.4943 2.30879Z" fill="currentColor"/>
</svg>
