<svg width="24" height="24" viewBox="0 0 24 24" fill="none" xmlns="http://www.w3.org/2000/svg">
<path d="M18.5455 3H5.45455C4.80356 3 4.17924 3.2586 3.71892 3.71892C3.2586 4.17924 3 4.80356 3 5.45455L3 18.5455C3 19.1964 3.2586 19.8208 3.71892 20.2811C4.17924 20.7414 4.80356 21 5.45455 21H18.5455C19.1964 21 19.8208 20.7414 20.2811 20.2811C20.7414 19.8208 21 19.1964 21 18.5455V5.45455C21 4.80356 20.7414 4.17924 20.2811 3.71892C19.8208 3.2586 19.1964 3 18.5455 3ZM9.13636 17.2445C9.1365 17.2945 9.12678 17.3439 9.10777 17.3901C9.08877 17.4362 9.06084 17.4782 9.02559 17.5135C8.99035 17.5488 8.94847 17.5769 8.90237 17.596C8.85627 17.6152 8.80685 17.625 8.75693 17.625H7.14C7.09 17.6251 7.04047 17.6154 6.99425 17.5963C6.94803 17.5772 6.90603 17.5492 6.87068 17.5139C6.83532 17.4785 6.8073 17.4365 6.78823 17.3903C6.76916 17.3441 6.75941 17.2945 6.75955 17.2445V10.4659C6.75955 10.365 6.79963 10.2682 6.87098 10.1969C6.94233 10.1255 7.0391 10.0855 7.14 10.0855H8.75693C8.85766 10.0857 8.95416 10.1259 9.02529 10.1972C9.09642 10.2686 9.13636 10.3652 9.13636 10.4659V17.2445ZM7.94795 9.44318C7.64454 9.44318 7.34794 9.35321 7.09566 9.18464C6.84338 9.01607 6.64675 8.77648 6.53064 8.49616C6.41453 8.21584 6.38415 7.90739 6.44334 7.6098C6.50253 7.31222 6.64864 7.03887 6.86319 6.82432C7.07773 6.60978 7.35108 6.46367 7.64867 6.40448C7.94625 6.34528 8.25471 6.37566 8.53503 6.49178C8.81534 6.60789 9.05494 6.80452 9.2235 7.0568C9.39207 7.30908 9.48205 7.60568 9.48205 7.90909C9.48205 8.31596 9.32042 8.70616 9.03272 8.99386C8.74502 9.28155 8.35482 9.44318 7.94795 9.44318ZM17.5882 17.2711C17.5883 17.3171 17.5794 17.3627 17.5618 17.4051C17.5443 17.4476 17.5185 17.4863 17.486 17.5188C17.4535 17.5513 17.4149 17.577 17.3724 17.5946C17.3299 17.6121 17.2844 17.621 17.2384 17.6209H15.4998C15.4538 17.621 15.4083 17.6121 15.3658 17.5946C15.3233 17.577 15.2847 17.5513 15.2521 17.5188C15.2196 17.4863 15.1939 17.4476 15.1763 17.4051C15.1588 17.3627 15.1499 17.3171 15.15 17.2711V14.0956C15.15 13.621 15.2891 12.0174 13.9094 12.0174C12.8407 12.0174 12.6228 13.1148 12.5799 13.6077V17.2752C12.5799 17.3671 12.5437 17.4553 12.4793 17.5208C12.4148 17.5862 12.3271 17.6237 12.2352 17.625H10.5559C10.51 17.625 10.4646 17.6159 10.4222 17.5984C10.3798 17.5808 10.3413 17.555 10.3089 17.5225C10.2765 17.49 10.2509 17.4514 10.2334 17.409C10.2159 17.3666 10.207 17.3211 10.2072 17.2752V10.4362C10.207 10.3904 10.2159 10.3449 10.2334 10.3025C10.2509 10.26 10.2765 10.2215 10.3089 10.189C10.3413 10.1565 10.3798 10.1307 10.4222 10.1131C10.4646 10.0955 10.51 10.0865 10.5559 10.0865H12.2352C12.328 10.0865 12.417 10.1233 12.4826 10.1889C12.5481 10.2545 12.585 10.3435 12.585 10.4362V11.0274C12.9818 10.4311 13.5699 9.97295 14.8248 9.97295C17.6045 9.97295 17.5861 12.5686 17.5861 13.9943L17.5882 17.2711Z" fill="#505157"/>
</svg>
