<svg width="24" height="24" viewBox="0 0 24 24" fill="none" xmlns="http://www.w3.org/2000/svg">
<path d="M2.46973 2.46973C2.76262 2.17683 3.23738 2.17683 3.53027 2.46973L21.5303 20.4697C21.8231 20.7626 21.8231 21.2374 21.5303 21.5303C21.2374 21.8231 20.7626 21.8231 20.4697 21.5303L11.6895 12.75H8.40039C7.9862 12.75 7.65042 12.4142 7.65039 12C7.65039 11.5858 7.98618 11.25 8.40039 11.25H10.1895L7.20215 8.2627C6.31668 8.33328 5.48133 8.71593 4.84863 9.34863C4.14539 10.0519 3.75 11.0055 3.75 12C3.75002 12.9945 4.14538 13.9481 4.84863 14.6514C5.55189 15.3546 6.50545 15.75 7.5 15.75H9.2998C9.71402 15.75 10.0498 16.0858 10.0498 16.5C10.0498 16.9142 9.714 17.25 9.2998 17.25H7.5C6.10763 17.25 4.77265 16.6965 3.78809 15.7119C2.80353 14.7274 2.25002 13.3924 2.25 12C2.25 10.6076 2.80354 9.27265 3.78809 8.28809C4.39251 7.68366 5.12893 7.24142 5.92969 6.99023L2.46973 3.53027C2.17684 3.23739 2.17686 2.76262 2.46973 2.46973ZM16.499 6.75C17.474 6.75 18.4304 7.0216 19.2598 7.53418C20.089 8.04675 20.7594 8.78043 21.1953 9.65234C21.6312 10.5243 21.8151 11.5008 21.7275 12.4717C21.6399 13.4426 21.2842 14.3705 20.6992 15.1504C20.4506 15.4815 19.9807 15.5482 19.6494 15.2998C19.3181 15.0513 19.2506 14.5814 19.499 14.25C19.9168 13.6929 20.1718 13.0305 20.2344 12.3369C20.2969 11.6434 20.1648 10.946 19.8535 10.3232C19.5421 9.70043 19.063 9.17667 18.4707 8.81055C17.8783 8.44442 17.1954 8.25 16.499 8.25H14.6992C14.285 8.25 13.9492 7.91419 13.9492 7.5C13.9492 7.08579 14.285 6.75 14.6992 6.75H16.499Z" fill="currentColor"/>
</svg>
