<svg width="24" height="24" viewBox="0 0 24 24" fill="none" xmlns="http://www.w3.org/2000/svg">
<path d="M4.84961 15.6992C5.7607 15.6994 6.49902 16.4385 6.49902 17.3496C6.49881 18.2606 5.76057 18.9988 4.84961 18.999C3.93847 18.999 3.19943 18.2607 3.19922 17.3496C3.19922 16.4383 3.93834 15.6992 4.84961 15.6992Z" fill="currentColor"/>
<path d="M20.1006 16.6504C20.5148 16.6504 20.8506 16.9862 20.8506 17.4004C20.8506 17.8146 20.5148 18.1504 20.1006 18.1504H9.30078C8.88657 18.1504 8.55078 17.8146 8.55078 17.4004C8.55078 16.9862 8.88657 16.6504 9.30078 16.6504H20.1006Z" fill="currentColor"/>
<path d="M4.84961 10.3008C5.7607 10.301 6.49902 11.04 6.49902 11.9512C6.49881 12.8621 5.76057 13.6004 4.84961 13.6006C3.93847 13.6006 3.19943 12.8623 3.19922 11.9512C3.19922 11.0399 3.93834 10.3008 4.84961 10.3008Z" fill="currentColor"/>
<path d="M20.1006 11.25C20.5148 11.25 20.8506 11.5858 20.8506 12C20.8506 12.4142 20.5148 12.75 20.1006 12.75H9.30078C8.88657 12.75 8.55078 12.4142 8.55078 12C8.55078 11.5858 8.88657 11.25 9.30078 11.25H20.1006Z" fill="currentColor"/>
<path d="M4.84961 4.95117C5.7607 4.95138 6.49902 5.69042 6.49902 6.60156C6.49881 7.51252 5.76057 8.25077 4.84961 8.25098C3.93847 8.25098 3.19943 7.51265 3.19922 6.60156C3.19922 5.69029 3.93834 4.95117 4.84961 4.95117Z" fill="currentColor"/>
<path d="M20.1006 5.84961C20.5148 5.84961 20.8506 6.1854 20.8506 6.59961C20.8506 7.01382 20.5148 7.34961 20.1006 7.34961H9.30078C8.88657 7.34961 8.55078 7.01382 8.55078 6.59961C8.55078 6.1854 8.88657 5.84961 9.30078 5.84961H20.1006Z" fill="currentColor"/>
</svg>
