<svg width="24" height="24" viewBox="0 0 24 24" fill="none" xmlns="http://www.w3.org/2000/svg">
<path fill-rule="evenodd" clip-rule="evenodd" d="M12 3.15039C14.8995 3.15039 17.25 5.5009 17.25 8.40039V10.3672C17.3784 10.3726 17.5 10.3793 17.6152 10.3887C18.1117 10.4293 18.5548 10.5157 18.9668 10.7256C19.6159 11.0564 20.1439 11.5843 20.4746 12.2334C20.6845 12.6454 20.7709 13.0885 20.8115 13.585C20.8514 14.0728 20.8506 14.6762 20.8506 15.4199V15.7793C20.8506 16.523 20.8514 17.1264 20.8115 17.6143C20.7709 18.1107 20.6845 18.5538 20.4746 18.9658C20.1439 19.615 19.6159 20.1429 18.9668 20.4736C18.5548 20.6836 18.1117 20.77 17.6152 20.8105C17.1274 20.8504 16.524 20.8496 15.7803 20.8496H8.2207C7.47701 20.8496 6.8736 20.8504 6.38574 20.8105C5.88924 20.77 5.44624 20.6836 5.03418 20.4736C4.38502 20.1429 3.85713 19.615 3.52637 18.9658C3.31643 18.5538 3.23003 18.1108 3.18945 17.6143C3.14959 17.1264 3.15039 16.523 3.15039 15.7793V15.4199C3.15039 14.6762 3.14959 14.0728 3.18945 13.585C3.23003 13.0885 3.31643 12.6455 3.52637 12.2334C3.85713 11.5842 4.38502 11.0563 5.03418 10.7256C5.44624 10.5156 5.88924 10.4293 6.38574 10.3887C6.50064 10.3793 6.62196 10.3726 6.75 10.3672V8.40039C6.75 5.5009 9.10051 3.15039 12 3.15039ZM8.2207 11.8496C7.45226 11.8496 6.92042 11.8501 6.50781 11.8838C6.10415 11.9168 5.88024 11.9782 5.71484 12.0625C5.34821 12.2494 5.05019 12.5474 4.86328 12.9141C4.77901 13.0795 4.71757 13.3034 4.68457 13.707C4.65086 14.1196 4.65039 14.6515 4.65039 15.4199V15.7793C4.65039 16.5477 4.65086 17.0796 4.68457 17.4922C4.71757 17.8959 4.77901 18.1198 4.86328 18.2852C5.05019 18.6518 5.34821 18.9498 5.71484 19.1367C5.88024 19.221 6.10415 19.2824 6.50781 19.3154C6.92042 19.3491 7.45226 19.3496 8.2207 19.3496H15.7803C16.5484 19.3496 17.0797 19.3491 17.4922 19.3154C17.896 19.2824 18.1207 19.221 18.2861 19.1367C18.6527 18.9498 18.9508 18.6518 19.1377 18.2852C19.222 18.1198 19.2834 17.8959 19.3164 17.4922C19.3501 17.0796 19.3506 16.5477 19.3506 15.7793V15.4199C19.3506 14.6515 19.3501 14.1196 19.3164 13.707C19.2834 13.3034 19.222 13.0795 19.1377 12.9141C18.9508 12.5474 18.6527 12.2494 18.2861 12.0625C18.1207 11.9782 17.896 11.9168 17.4922 11.8838C17.0797 11.8501 16.5484 11.8496 15.7803 11.8496H8.2207ZM12 4.65039C9.92893 4.65039 8.25 6.32932 8.25 8.40039V10.3496H15.75V8.40039C15.75 6.32932 14.0711 4.65039 12 4.65039Z" fill="currentColor"/>
</svg>
