<svg width="24" height="24" viewBox="0 0 24 24" fill="none" xmlns="http://www.w3.org/2000/svg">
<path fill-rule="evenodd" clip-rule="evenodd" d="M13.8848 1C14.9892 1.00023 15.8848 1.89655 15.8848 3.00098V4.36914C15.8848 4.43389 15.9757 4.47051 16.0199 4.42316C16.0341 4.40787 16.0487 4.39279 16.0635 4.37793L17.0313 3.41113C17.8124 2.63026 19.0784 2.63014 19.8594 3.41113C20.6402 4.19214 20.6402 5.45828 19.8594 6.23926L18.8926 7.20703C18.8782 7.22148 18.8634 7.23557 18.8485 7.24934C18.8008 7.29323 18.8366 7.38575 18.9014 7.38574H20.2696C21.3739 7.38597 22.2696 8.28131 22.2696 9.38574C22.2692 10.4898 21.3737 11.3855 20.2696 11.3857H18.9014C18.8254 11.3857 18.776 11.5106 18.832 11.562C18.8525 11.5809 18.8727 11.6002 18.8926 11.6201L19.8594 12.5869C20.64 13.368 20.6403 14.6351 19.8594 15.416C19.0785 16.1963 17.8122 16.1962 17.0313 15.416L16.0635 14.4482C15.8113 14.196 15.6411 13.8927 15.5521 13.5718C15.5203 13.457 15.3655 13.4118 15.2813 13.4961L7.6602 21.1172C6.1364 22.6408 3.66633 22.6409 2.14262 21.1172C0.619135 19.5935 0.61912 17.1233 2.14262 15.5996L9.76371 7.97852L9.90922 7.83984C9.93787 7.81396 9.92413 7.76612 9.88611 7.75942C9.49661 7.69073 9.12322 7.50776 8.82231 7.20703L7.85453 6.23926C7.07385 5.45837 7.07406 4.19216 7.85453 3.41113C8.6356 2.63026 9.90265 2.63014 10.6836 3.41113L11.6504 4.37793C11.6702 4.39767 11.6894 4.41774 11.7081 4.43814C11.7593 4.49405 11.8848 4.44498 11.8848 4.36914V3.00098C11.8848 1.89646 12.7803 1.00009 13.8848 1Z" fill="white"/>
<path d="M14.6348 4.36865V3.00049C14.6348 2.58627 14.299 2.25049 13.8848 2.25049C13.4706 2.25049 13.1348 2.58627 13.1348 3.00049V4.36865C13.1348 4.78283 13.4706 5.11865 13.8848 5.11865C14.299 5.11865 14.6347 4.78283 14.6348 4.36865Z" fill="#D0B5F4"/>
<path d="M18.9756 4.29443C18.6827 4.00154 18.2079 4.00154 17.915 4.29443L16.9473 5.26221C16.6548 5.55513 16.6545 6.02999 16.9473 6.32275C17.24 6.61552 17.7149 6.61526 18.0078 6.32275L18.9756 5.35498C19.2685 5.06209 19.2685 4.58733 18.9756 4.29443Z" fill="#D0B5F4"/>
<path d="M18.0078 12.5029C17.7149 12.2102 17.2401 12.2101 16.9473 12.5029C16.6546 12.7958 16.6546 13.2706 16.9473 13.5635L17.915 14.5312C18.2079 14.8239 18.6827 14.8239 18.9756 14.5312C19.2684 14.2384 19.2683 13.7636 18.9756 13.4707L18.0078 12.5029Z" fill="#D0B5F4"/>
<path d="M9.79883 4.29443C9.50592 4.00173 9.03111 4.0016 8.73828 4.29443C8.44565 4.58728 8.44565 5.06214 8.73828 5.35498L9.70606 6.32275C9.9989 6.61539 10.4738 6.61539 10.7666 6.32275C11.0594 6.02992 11.0593 5.55512 10.7666 5.26221L9.79883 4.29443Z" fill="#D0B5F4"/>
<path d="M18.9014 8.63501C18.4872 8.63505 18.1514 8.97082 18.1514 9.38501C18.1514 9.7992 18.4872 10.135 18.9014 10.135H20.2695C20.6837 10.135 21.0195 9.79922 21.0195 9.38501C21.0195 8.9708 20.6837 8.63501 20.2695 8.63501H18.9014Z" fill="#D0B5F4"/>
<path fill-rule="evenodd" clip-rule="evenodd" d="M10.6473 8.86316C11.6829 7.82786 13.3618 7.82797 14.3973 8.86316C15.4329 9.89871 15.4328 11.5775 14.3973 12.6132L12.6268 14.3827C12.6198 14.3903 12.6137 14.3988 12.6063 14.4061C12.5989 14.4135 12.5905 14.4196 12.5829 14.4266L6.77624 20.2343C5.74061 21.2697 4.0618 21.2698 3.02624 20.2343C1.99106 19.1987 1.99095 17.5198 3.02624 16.4843L10.6473 8.86316ZM4.08679 17.5448C3.63728 17.9945 3.63739 18.7239 4.08679 19.1737C4.53656 19.6235 5.26585 19.6233 5.7157 19.1737L11.0145 13.8749L9.38562 12.246L4.08679 17.5448ZM13.3368 9.9237C12.887 9.47431 12.1576 9.4742 11.7079 9.9237L10.4462 11.1854L12.0751 12.8143L13.3368 11.5526C13.7864 11.1028 13.7866 10.3735 13.3368 9.9237Z" fill="#D0B5F4"/>
<path d="M11.0145 13.8749L5.7157 19.1737C5.26585 19.6233 4.53656 19.6235 4.08679 19.1737C3.63739 18.7239 3.63728 17.9945 4.08679 17.5448L9.38562 12.246L11.0145 13.8749Z" fill="white"/>
<path d="M11.7079 9.9237C12.1576 9.4742 12.887 9.47431 13.3368 9.9237C13.7866 10.3735 13.7864 11.1028 13.3368 11.5526L12.0751 12.8143L10.4462 11.1854L11.7079 9.9237Z" fill="white"/>
</svg>
