<svg width="24" height="24" viewBox="0 0 24 24" fill="none" xmlns="http://www.w3.org/2000/svg">
<path fill-rule="evenodd" clip-rule="evenodd" d="M17.7998 4.04883C18.3475 4.04883 18.8037 4.04781 19.1748 4.07813C19.5545 4.10916 19.9109 4.17693 20.2481 4.34864C20.7655 4.61229 21.1865 5.03334 21.4502 5.55079C21.6219 5.88793 21.6897 6.2443 21.7207 6.62403C21.7408 6.87016 21.7451 7.15373 21.7471 7.47657C21.7473 7.48408 21.7481 7.49152 21.7481 7.49903C21.7489 7.65639 21.75 7.82298 21.75 7.99903V15.999C21.75 16.5464 21.751 17.0021 21.7207 17.3731C21.6897 17.7529 21.622 18.11 21.4502 18.4473C21.1865 18.9647 20.7655 19.3858 20.2481 19.6494C19.911 19.8211 19.5545 19.8879 19.1748 19.9189C18.8037 19.9493 18.3475 19.9492 17.7998 19.9492H6.2002C5.65253 19.9492 5.19633 19.9493 4.8252 19.9189C4.44555 19.8879 4.08904 19.8211 3.75196 19.6494C3.23452 19.3858 2.81346 18.9647 2.54981 18.4473C2.37797 18.11 2.31034 17.7529 2.2793 17.3731C2.24902 17.0021 2.25 16.5464 2.25 15.999V7.99903C2.25 7.82662 2.25017 7.66327 2.25098 7.50879C2.25079 7.49511 2.2514 7.48148 2.25196 7.46778C2.254 7.14858 2.25937 6.86793 2.2793 6.62403C2.31033 6.2443 2.3781 5.88793 2.54981 5.55079C2.81346 5.03334 3.23451 4.61229 3.75196 4.34864C4.0891 4.17693 4.44547 4.10916 4.8252 4.07813C5.19633 4.04781 5.65253 4.04883 6.2002 4.04883H17.7998ZM14.082 13.2578C13.538 13.6386 13.108 13.9537 12.6172 14.0762C12.2123 14.1771 11.7877 14.177 11.3828 14.0762C10.892 13.9537 10.4619 13.6386 9.91797 13.2578L3.75 8.93848V15.999C3.75 16.5711 3.75028 16.9552 3.77442 17.251C3.79788 17.5381 3.84058 17.676 3.88672 17.7666C4.00658 18.0016 4.19756 18.1927 4.43262 18.3125C4.52316 18.3586 4.66036 18.4004 4.94727 18.4238C5.24315 18.448 5.62777 18.4492 6.2002 18.4492H17.7998C18.3722 18.4492 18.7569 18.448 19.0527 18.4238C19.3396 18.4004 19.4768 18.3586 19.5674 18.3125C19.8025 18.1927 19.9934 18.0016 20.1133 17.7666C20.1594 17.676 20.2021 17.5381 20.2256 17.251C20.2497 16.9552 20.25 16.5711 20.25 15.999V8.93848L14.082 13.2578ZM6.2002 5.54883C5.62777 5.54883 5.24315 5.54907 4.94727 5.57325C4.66027 5.59671 4.52316 5.63942 4.43262 5.68555C4.19751 5.80538 4.00655 5.99634 3.88672 6.23145C3.84059 6.32199 3.79788 6.4591 3.77442 6.7461C3.76553 6.85486 3.76043 6.97563 3.75684 7.11329L10.7783 12.0283C11.4239 12.4803 11.5899 12.5822 11.7461 12.6211C11.9127 12.6625 12.0874 12.6626 12.2539 12.6211C12.4101 12.5821 12.5761 12.4803 13.2217 12.0283L20.2422 7.11329C20.2386 6.97564 20.2345 6.85485 20.2256 6.7461C20.2021 6.4591 20.1594 6.32199 20.1133 6.23145C19.9935 5.99634 19.8025 5.80538 19.5674 5.68555C19.4768 5.63942 19.3397 5.59671 19.0527 5.57325C18.7569 5.54907 18.3722 5.54883 17.7998 5.54883H6.2002Z" fill="currentColor"/>
</svg>
