<svg width="24" height="24" viewBox="0 0 24 24" fill="none" xmlns="http://www.w3.org/2000/svg">
<path fill-rule="evenodd" clip-rule="evenodd" d="M12.0002 2.07031C12.1962 2.07023 12.3922 2.09265 12.5842 2.1377C13.0482 2.24668 13.4598 2.5273 13.9797 2.86523L20.4816 7.09082C20.5053 7.1062 20.529 7.12211 20.5529 7.1377L20.7541 7.26855C20.9537 7.39827 21.1904 7.54338 21.3664 7.75391C21.5071 7.92228 21.6124 8.11743 21.6769 8.32715C21.7576 8.58958 21.7502 8.86734 21.7502 9.10547V16.8232C21.7502 17.3708 21.7512 17.8271 21.7209 18.1982C21.6898 18.5781 21.6222 18.9352 21.4504 19.2725C21.1867 19.7897 20.7655 20.21 20.2482 20.4736C19.9111 20.6453 19.5546 20.7131 19.175 20.7441C18.8039 20.7744 18.3475 20.7734 17.8 20.7734H6.20038C5.65286 20.7734 5.19642 20.7745 4.82538 20.7441C4.44576 20.7131 4.08919 20.6453 3.75213 20.4736C3.23494 20.21 2.81359 19.7897 2.54999 19.2725C2.37822 18.9353 2.31051 18.578 2.27948 18.1982C2.24917 17.8272 2.25018 17.3708 2.25018 16.8232V9.10547C2.25018 8.86735 2.24273 8.58958 2.32342 8.32715C2.38792 8.11741 2.49329 7.9223 2.63397 7.75391C2.80995 7.54333 3.04668 7.39828 3.24628 7.26855L10.0217 2.86523C10.5415 2.52735 10.9532 2.24674 11.4172 2.1377C11.6087 2.09274 11.8046 2.07034 12.0002 2.07031ZM3.75018 16.8232C3.75018 17.3956 3.75043 17.7803 3.7746 18.0762C3.79803 18.363 3.84081 18.5003 3.8869 18.5908C4.00669 18.8259 4.19775 19.0178 4.4328 19.1377C4.5233 19.1838 4.66093 19.2256 4.94745 19.249C5.24326 19.2732 5.62815 19.2734 6.20038 19.2734H17.8C18.3722 19.2734 18.7571 19.2732 19.0529 19.249C19.3394 19.2256 19.477 19.1837 19.5676 19.1377C19.8027 19.0179 19.9936 18.826 20.1135 18.5908C20.1596 18.5003 20.2023 18.3632 20.2258 18.0762C20.2499 17.7803 20.2502 17.3956 20.2502 16.8232V9.70605L13.9797 13.7822C13.4597 14.1202 13.0483 14.4008 12.5842 14.5098C12.2009 14.5997 11.8014 14.5997 11.4181 14.5098C10.9541 14.4008 10.5426 14.1202 10.0226 13.7822L3.75018 9.7041V16.8232ZM12.0002 3.57129C11.9199 3.57137 11.8395 3.58019 11.7609 3.59863C11.6131 3.63343 11.4557 3.72289 10.84 4.12305L4.37713 8.32324L10.84 12.5244C11.4557 12.9246 11.6131 13.014 11.7609 13.0488C11.9187 13.0859 12.0836 13.0859 12.2414 13.0488C12.3893 13.014 12.5465 12.9247 13.1623 12.5244L19.6242 8.32324L13.1613 4.12305C12.5459 3.72301 12.3882 3.63342 12.2404 3.59863C12.1615 3.58014 12.0808 3.57126 12.0002 3.57129Z" fill="currentColor"/>
</svg>
