<svg width="24" height="24" viewBox="0 0 24 24" fill="none" xmlns="http://www.w3.org/2000/svg">
<path d="M2.25 16.9503C2.25 16.1397 2.62325 15.4238 3.18262 14.837C3.7383 14.2542 4.50654 13.7642 5.39746 13.3712C5.77632 13.2043 6.21853 13.3762 6.38574 13.755C6.55292 14.134 6.38186 14.5771 6.00293 14.7443C5.22773 15.0862 4.64532 15.476 4.26758 15.8722C3.89366 16.2645 3.75 16.6281 3.75 16.9503C3.75019 17.5896 4.36211 18.4184 5.94336 19.13C7.45469 19.8101 9.59566 20.2501 12 20.2501C14.4043 20.2501 16.5453 19.8101 18.0566 19.13C19.6379 18.4184 20.2498 17.5896 20.25 16.9503C20.25 16.6281 20.1063 16.2645 19.7324 15.8722C19.3547 15.476 18.7723 15.0862 17.9971 14.7443C17.6181 14.5771 17.4471 14.134 17.6143 13.755C17.7815 13.3762 18.2237 13.2043 18.6025 13.3712C19.4935 13.7642 20.2617 14.2542 20.8174 14.837C21.3768 15.4238 21.75 16.1397 21.75 16.9503C21.7498 18.5475 20.3474 19.7442 18.6719 20.4982C16.9259 21.2839 14.5662 21.7501 12 21.7501C9.4338 21.7501 7.07415 21.2839 5.32812 20.4982C3.6526 19.7442 2.25017 18.5475 2.25 16.9503Z" fill="currentColor"/>
<path fill-rule="evenodd" clip-rule="evenodd" d="M12 2.25C15.3964 2.25021 18.1494 5.00397 18.1494 8.40039C18.1493 10.5362 16.9543 12.0707 15.7471 13.3281C15.4429 13.645 15.1284 13.9537 14.8271 14.25C14.523 14.5492 14.2315 14.8367 13.957 15.126C13.405 15.7077 12.9589 16.2592 12.6709 16.835C12.5439 17.0889 12.2839 17.2499 12 17.25C11.7159 17.25 11.4561 17.089 11.3291 16.835C11.0411 16.2591 10.5941 15.7079 10.042 15.126C9.76754 14.8367 9.47604 14.5492 9.17188 14.25C8.8706 13.9537 8.55615 13.645 8.25195 13.3281C7.0448 12.0708 5.84976 10.5361 5.84961 8.40039C5.84961 5.00384 8.60345 2.25 12 2.25ZM12 6.75C11.0887 6.75 10.3496 7.48912 10.3496 8.40039C10.3498 9.31148 11.0889 10.0498 12 10.0498C12.911 10.0496 13.6492 9.31135 13.6494 8.40039C13.6494 7.48925 12.9111 6.75021 12 6.75Z" fill="currentColor"/>
</svg>
