<svg width="24" height="24" viewBox="0 0 24 24" fill="none" xmlns="http://www.w3.org/2000/svg">
<path d="M17.6143 13.7539C17.7815 13.3754 18.2238 13.2033 18.6025 13.3701C19.4934 13.7631 20.2617 14.2532 20.8174 14.8359C21.3767 15.4226 21.7499 16.1387 21.75 16.9492C21.7498 18.5464 20.3473 19.7431 18.6719 20.4971C16.9259 21.2828 14.5662 21.749 12 21.749C9.4338 21.749 7.07415 21.2828 5.32812 20.4971C3.65266 19.7431 2.25017 18.5464 2.25 16.9492C2.2501 16.1387 2.62333 15.4226 3.18262 14.8359C3.73829 14.2532 4.50663 13.7631 5.39746 13.3701C5.77619 13.2033 6.21846 13.3754 6.38574 13.7539C6.5529 14.1328 6.38178 14.5759 6.00293 14.7432C5.22785 15.0851 4.64533 15.4749 4.26758 15.8711C3.89379 16.2633 3.7501 16.627 3.75 16.9492C3.75019 17.5885 4.36221 18.4173 5.94336 19.1289C7.45469 19.809 9.59566 20.249 12 20.249C14.4043 20.249 16.5453 19.809 18.0566 19.1289C19.6378 18.4173 20.2498 17.5885 20.25 16.9492C20.2499 16.627 20.1062 16.2633 19.7324 15.8711C19.3547 15.4749 18.7722 15.0851 17.9971 14.7432C17.6182 14.5759 17.4471 14.1328 17.6143 13.7539Z" fill="currentColor"/>
<path d="M12 6.75C12.9111 6.75021 13.6494 7.48925 13.6494 8.40039C13.6492 9.31135 12.911 10.0496 12 10.0498C11.0889 10.0498 10.3498 9.31148 10.3496 8.40039C10.3496 7.48912 11.0887 6.75 12 6.75Z" fill="currentColor"/>
<path fill-rule="evenodd" clip-rule="evenodd" d="M12 2.25C15.3964 2.25021 18.1494 5.00397 18.1494 8.40039C18.1493 10.5362 16.9543 12.0707 15.7471 13.3281C15.4429 13.645 15.1284 13.9537 14.8271 14.25C14.523 14.5492 14.2315 14.8367 13.957 15.126C13.405 15.7077 12.9589 16.2592 12.6709 16.835C12.5439 17.0889 12.2839 17.2499 12 17.25C11.7159 17.25 11.4561 17.089 11.3291 16.835C11.0411 16.2591 10.5941 15.7079 10.042 15.126C9.76754 14.8367 9.47604 14.5492 9.17188 14.25C8.8706 13.9537 8.55615 13.645 8.25195 13.3281C7.0448 12.0708 5.84976 10.5361 5.84961 8.40039C5.84961 5.00384 8.60345 2.25 12 2.25ZM12 3.75C9.43188 3.75 7.34961 5.83227 7.34961 8.40039C7.34975 9.9214 8.17892 11.087 9.33398 12.29C9.6204 12.5884 9.91848 12.8805 10.2236 13.1807C10.5257 13.4778 10.8359 13.7829 11.1309 14.0938C11.4331 14.4123 11.7294 14.7472 11.999 15.1025C12.2689 14.7469 12.5666 14.4126 12.8691 14.0938C13.164 13.783 13.4733 13.4778 13.7754 13.1807C14.0805 12.8806 14.3787 12.5883 14.665 12.29C15.8201 11.087 16.6493 9.9214 16.6494 8.40039C16.6494 5.8324 14.5679 3.75021 12 3.75Z" fill="currentColor"/>
</svg>
