<svg width="24" height="24" viewBox="0 0 24 24" fill="none" xmlns="http://www.w3.org/2000/svg">
<path d="M18.4492 14.8496C18.8634 14.8496 19.1992 15.1854 19.1992 15.5996V19.1895L20.6201 17.7686C20.913 17.4759 21.3878 17.4757 21.6807 17.7686C21.9732 18.0614 21.9733 18.5363 21.6807 18.8291L18.9795 21.5303C18.8438 21.666 18.6563 21.75 18.4492 21.75C18.2367 21.75 18.0457 21.6607 17.9092 21.5186L15.2197 18.8291C14.9268 18.5362 14.9268 18.0615 15.2197 17.7686C15.5126 17.4757 15.9874 17.4757 16.2803 17.7686L17.6992 19.1875V15.5996C17.6992 15.1854 18.035 14.8496 18.4492 14.8496Z" fill="currentColor"/>
<path d="M17.7998 3.15039C18.3475 3.15039 18.8037 3.14937 19.1748 3.17969C19.5545 3.21072 19.9109 3.27849 20.2481 3.4502C20.7655 3.71385 21.1865 4.13491 21.4502 4.65235C21.6219 4.98949 21.6897 5.34586 21.7207 5.72559C21.751 6.09672 21.75 6.55292 21.75 7.10059V12.5C21.75 12.9142 21.4142 13.25 21 13.25C20.5858 13.25 20.25 12.9142 20.25 12.5V7.10059C20.25 6.52817 20.2498 6.14354 20.2256 5.84766C20.2021 5.56067 20.1594 5.42355 20.1133 5.33301C19.9935 5.0979 19.8025 4.90694 19.5674 4.78711C19.4768 4.74098 19.3397 4.69827 19.0527 4.67481C18.7569 4.65063 18.3722 4.65039 17.7998 4.65039H6.2002C5.62777 4.65039 5.24315 4.65063 4.94727 4.67481C4.66027 4.69827 4.52316 4.74098 4.43262 4.78711C4.19751 4.90694 4.00655 5.0979 3.88672 5.33301C3.84059 5.42355 3.79788 5.56067 3.77442 5.84766C3.75024 6.14354 3.75 6.52817 3.75 7.10059V16.9004C3.75 17.4728 3.75024 17.8574 3.77442 18.1533C3.79788 18.4402 3.8406 18.5775 3.88672 18.668C4.00657 18.903 4.19752 19.0941 4.43262 19.2139C4.52316 19.26 4.66031 19.3017 4.94727 19.3252C5.24315 19.3494 5.62777 19.3506 6.2002 19.3506H12.5C12.9142 19.3506 13.25 19.6864 13.25 20.1006C13.2499 20.5147 12.9142 20.8506 12.5 20.8506H6.2002C5.65252 20.8506 5.19633 20.8506 4.8252 20.8203C4.44552 20.7893 4.08906 20.7225 3.75196 20.5508C3.23451 20.2871 2.81346 19.8661 2.54981 19.3486C2.37807 19.0115 2.31034 18.6551 2.2793 18.2754C2.24898 17.9043 2.25 17.4481 2.25 16.9004V7.10059C2.25 6.55292 2.24898 6.09672 2.2793 5.72559C2.31033 5.34586 2.3781 4.98949 2.54981 4.65235C2.81346 4.13491 3.23451 3.71385 3.75196 3.4502C4.0891 3.27849 4.44547 3.21072 4.8252 3.17969C5.19633 3.14937 5.65252 3.15039 6.2002 3.15039H17.7998Z" fill="currentColor"/>
<path d="M8.42286 7.2334C8.78014 7.15113 9.14704 7.32663 9.30762 7.65625L12.0273 13.2393L14.8984 7.64161C15.0644 7.31805 15.4307 7.15014 15.7842 7.23536C16.1377 7.32076 16.3867 7.63729 16.3867 8.00098V15.001C16.3865 15.4357 16.0344 15.7881 15.5996 15.7881C15.1648 15.7881 14.8127 15.4357 14.8125 15.001V11.2617L12.7109 15.3604C12.5748 15.6255 12.3 15.791 12.002 15.7881C11.7038 15.785 11.4325 15.6137 11.3018 15.3457L9.38672 11.4141V15.001C9.38653 15.4357 9.03442 15.7881 8.59961 15.7881C8.16481 15.7881 7.8127 15.4357 7.8125 15.001V8.00098C7.8125 7.63427 8.06554 7.31585 8.42286 7.2334Z" fill="currentColor"/>
</svg>
