<svg width="24" height="24" viewBox="0 0 24 24" fill="none" xmlns="http://www.w3.org/2000/svg">
<path d="M17.7998 4.65076C18.3722 4.65076 18.7569 4.651 19.0527 4.67517C19.3397 4.69864 19.4768 4.74135 19.5674 4.78748C19.8025 4.90731 19.9935 5.09826 20.1133 5.33338C20.1594 5.42392 20.2021 5.56103 20.2256 5.84803C20.2498 6.1439 20.25 6.52853 20.25 7.10096V12.5004C20.25 12.8885 20.5449 13.2078 20.9229 13.2465L21 13.2504V18.2006C20.9999 19.305 20.1045 20.2006 19 20.2006H13.2422C13.2465 20.1679 13.25 20.1348 13.25 20.101C13.25 19.6867 12.9142 19.351 12.5 19.351H6.2002C5.62777 19.351 5.24315 19.3497 4.94727 19.3256C4.66032 19.3021 4.52316 19.2604 4.43262 19.2142C4.19752 19.0944 4.00657 18.9034 3.88672 18.6683C3.8406 18.5778 3.79788 18.4406 3.77442 18.1537C3.75024 17.8578 3.75 17.4732 3.75 16.9008V7.10096C3.75 6.52853 3.75024 6.1439 3.77442 5.84803C3.79788 5.56103 3.84059 5.42392 3.88672 5.33338C4.00655 5.09826 4.19751 4.90731 4.43262 4.78748C4.52316 4.74135 4.66028 4.69864 4.94727 4.67517C5.24315 4.651 5.62777 4.65076 6.2002 4.65076H17.7998Z" fill="#D1E5FA"/>
<path d="M14.8129 15.0004V11.2611L12.7113 15.3597C12.5753 15.6251 12.3005 15.7904 12.0023 15.7875C11.7041 15.7844 11.4328 15.6133 11.3022 15.3451L9.38711 11.4135V15.0004C9.38711 15.4353 9.03493 15.7875 8.6 15.7875C8.16508 15.7875 7.8129 15.4353 7.8129 15.0004V8.00037C7.8129 7.63363 8.06588 7.31521 8.42325 7.23279C8.78053 7.15052 9.14743 7.32602 9.30801 7.65564L12.0277 13.2387L14.8988 7.641C15.0648 7.31744 15.4311 7.14953 15.7846 7.23475C16.1381 7.32012 16.3871 7.63665 16.3871 8.00037V15.0004C16.3871 15.4353 16.0349 15.7875 15.6 15.7875C15.1651 15.7875 14.8129 15.4353 14.8129 15.0004Z" fill="#5EA3ED"/>
<path d="M3.75 16.9008V7.10096C3.75 6.52853 3.75024 6.1439 3.77442 5.84803C3.79788 5.56103 3.84059 5.42392 3.88672 5.33338C4.00655 5.09826 4.19751 4.90731 4.43262 4.78748C4.52316 4.74135 4.66028 4.69864 4.94727 4.67517C5.24315 4.651 5.62777 4.65076 6.2002 4.65076H17.7998C18.3722 4.65076 18.7569 4.651 19.0527 4.67517C19.3397 4.69864 19.4768 4.74135 19.5674 4.78748C19.8025 4.90731 19.9935 5.09826 20.1133 5.33338C20.1594 5.42392 20.2021 5.56103 20.2256 5.84803C20.2498 6.1439 20.25 6.52853 20.25 7.10096V12.5004C20.25 12.9146 20.5858 13.2504 21 13.2504C21.4142 13.2504 21.75 12.9142 21.75 12.5V7.10059C21.75 6.55291 21.751 6.09672 21.7207 5.72559C21.6897 5.34586 21.6219 4.98949 21.4502 4.65235C21.1865 4.1349 20.7655 3.71385 20.2481 3.4502C19.9109 3.27849 19.5545 3.21072 19.1748 3.17969C18.8037 3.14937 18.3475 3.15039 17.7998 3.15039H6.2002C5.65252 3.15039 5.19633 3.14937 4.8252 3.17969C4.44547 3.21072 4.0891 3.27849 3.75196 3.4502C3.23451 3.71385 2.81346 4.1349 2.54981 4.65235C2.3781 4.98949 2.31033 5.34586 2.2793 5.72559C2.24898 6.09672 2.25 6.55291 2.25 7.10059V16.9004C2.25 17.4481 2.24898 17.9043 2.2793 18.2754C2.31035 18.6551 2.37807 19.0115 2.54981 19.3486C2.81346 19.8661 3.23451 20.2871 3.75196 20.5508C4.08906 20.7225 4.44552 20.7893 4.8252 20.8203C5.19633 20.8506 5.65252 20.8506 6.2002 20.8506H12.5C12.9142 20.8506 13.2499 20.5151 13.25 20.101C13.25 19.6867 12.9142 19.351 12.5 19.351H6.2002C5.62777 19.351 5.24315 19.3497 4.94727 19.3256C4.66032 19.3021 4.52316 19.2604 4.43262 19.2142C4.19752 19.0944 4.00657 18.9034 3.88672 18.6683C3.8406 18.5778 3.79788 18.4406 3.77442 18.1537C3.75024 17.8578 3.75 17.4732 3.75 16.9008Z" fill="#5EA3ED"/>
<path d="M18.4492 14.8503C18.8634 14.8503 19.1992 15.1861 19.1992 15.6003V19.1902L20.6201 17.7693C20.913 17.4766 21.3878 17.4765 21.6806 17.7693C21.9732 18.0621 21.9732 18.537 21.6806 18.8298L18.9794 21.531C18.8437 21.6668 18.6562 21.7507 18.4492 21.7507C18.2366 21.7507 18.0456 21.6614 17.9091 21.5193L15.2197 18.8298C14.9268 18.5369 14.9268 18.0622 15.2197 17.7693C15.5126 17.4764 15.9873 17.4764 16.2802 17.7693L17.6992 19.1882V15.6003C17.6992 15.1861 18.035 14.8503 18.4492 14.8503Z" fill="#B184EC"/>
</svg>
