<svg width="24" height="24" viewBox="0 0 24 24" fill="none" xmlns="http://www.w3.org/2000/svg">
<path d="M20.75 15C21.1642 15 21.5 15.3358 21.5 15.75V16.6504C21.4999 17.1191 21.2729 17.5249 20.999 17.7988C20.725 18.0728 20.3185 18.2998 19.8496 18.2998H3.65039C3.18147 18.2998 2.77499 18.0728 2.50098 17.7988C2.22709 17.5249 2.00013 17.1191 2 16.6504V15.75C2 15.3358 2.33579 15 2.75 15C3.16421 15 3.5 15.3358 3.5 15.75V16.6504C3.5 16.6381 3.49718 16.6423 3.50684 16.6631C3.51663 16.6841 3.53479 16.7115 3.56152 16.7383C3.58831 16.7651 3.6157 16.7832 3.63672 16.793C3.65747 16.8027 3.66225 16.7999 3.65039 16.7998H19.8496C19.8378 16.7999 19.8425 16.8027 19.8633 16.793C19.8843 16.7832 19.9117 16.7651 19.9385 16.7383C19.9652 16.7115 19.9834 16.6841 19.9932 16.6631C20.0028 16.6423 20 16.6381 20 16.6504V15.75C20 15.3358 20.3358 15 20.75 15Z" fill="currentColor"/>
<path fill-rule="evenodd" clip-rule="evenodd" d="M9.94922 7.80078C10.3634 7.80078 10.6992 8.13657 10.6992 8.55078V11.1797C10.6997 11.2034 10.7012 11.2271 10.7012 11.251C10.7012 11.2745 10.6997 11.2979 10.6992 11.3213V13.9512C10.699 14.3652 10.3633 14.7012 9.94922 14.7012C9.58184 14.7012 9.27635 14.4367 9.21191 14.0879C8.65488 14.4737 7.97976 14.7011 7.25098 14.7012C5.34566 14.7012 3.80089 13.1563 3.80078 11.251C3.80078 9.34559 5.34559 7.80078 7.25098 7.80078C7.97958 7.80082 8.65496 8.02749 9.21191 8.41309C9.27658 8.06465 9.58205 7.80078 9.94922 7.80078ZM7.25098 9.30078C6.17402 9.30078 5.30078 10.174 5.30078 11.251C5.30089 12.3278 6.17409 13.2012 7.25098 13.2012C8.31472 13.2011 9.17829 12.3488 9.19922 11.29V11.2109C9.17788 10.1525 8.31445 9.30089 7.25098 9.30078Z" fill="currentColor"/>
<path fill-rule="evenodd" clip-rule="evenodd" d="M13.5508 6C13.965 6 14.3008 6.33579 14.3008 6.75V8.4043C14.8555 8.02349 15.5273 7.80078 16.251 7.80078C18.1563 7.80089 19.7012 9.34566 19.7012 11.251C19.7011 13.1562 18.1562 14.7011 16.251 14.7012C15.5211 14.7012 14.8446 14.4738 14.2871 14.0869C14.2227 14.4357 13.9182 14.7002 13.5508 14.7002C13.1366 14.7002 12.8009 14.3643 12.8008 13.9502V6.75C12.8008 6.33579 13.1366 6 13.5508 6ZM16.251 9.30078C15.174 9.30078 14.3008 10.174 14.3008 11.251C14.3009 12.3278 15.1741 13.2012 16.251 13.2012C17.3278 13.2011 18.2011 12.3278 18.2012 11.251C18.2012 10.1741 17.3278 9.30089 16.251 9.30078Z" fill="currentColor"/>
</svg>
