<svg width="24" height="24" viewBox="0 0 24 24" fill="none" xmlns="http://www.w3.org/2000/svg">
<path fill-rule="evenodd" clip-rule="evenodd" d="M17.75 3C18.2977 3 18.7539 2.99898 19.125 3.0293C19.5047 3.06034 19.8611 3.12807 20.1982 3.29981C20.7157 3.56346 21.1367 3.98452 21.4004 4.50196C21.5721 4.83906 21.6389 5.19552 21.6699 5.5752C21.7002 5.94633 21.7002 6.40252 21.7002 6.9502V16.75C21.7002 17.2977 21.7002 17.7539 21.6699 18.125C21.6389 18.5047 21.5721 18.8612 21.4004 19.1982C21.1367 19.7157 20.7157 20.1367 20.1982 20.4004C19.8612 20.5721 19.5047 20.6389 19.125 20.6699C18.7539 20.7002 18.2977 20.7002 17.75 20.7002H6.84961C6.76408 20.7002 6.69919 20.7005 6.6416 20.6982C5.20781 20.6417 4.0583 19.4915 4.00195 18.0576C3.9997 18 4 17.9352 4 17.8496C4.0002 17.4356 4.33592 17.0996 4.75 17.0996C5.16409 17.0996 5.4998 17.4356 5.5 17.8496C5.5 17.9495 5.50016 17.9782 5.50098 17.999C5.52659 18.6508 6.04937 19.1736 6.70117 19.1992C6.72194 19.2 6.75038 19.2002 6.84961 19.2002H17.75C18.3224 19.2002 18.7071 19.199 19.0029 19.1748C19.2897 19.1513 19.4271 19.1096 19.5176 19.0635C19.7526 18.9437 19.9437 18.7526 20.0635 18.5176C20.1096 18.4271 20.1513 18.2898 20.1748 18.0029C20.199 17.7071 20.2002 17.3224 20.2002 16.75V8.90039H5.5V10.4502C5.49988 10.8643 5.16414 11.2002 4.75 11.2002C4.33587 11.2002 4.00012 10.8643 4 10.4502V6.9502C4 6.40253 3.99897 5.94633 4.0293 5.5752C4.06033 5.19547 4.12809 4.8391 4.2998 4.50196C4.56345 3.98451 4.98451 3.56346 5.50195 3.29981C5.83909 3.1281 6.19547 3.06033 6.5752 3.0293C6.94632 2.99898 7.40252 3 7.9502 3H17.75ZM7.9502 4.5C7.37777 4.5 6.99314 4.50024 6.69727 4.52442C6.41028 4.54788 6.27316 4.59059 6.18262 4.63672C5.94751 4.75655 5.75654 4.94751 5.63672 5.18262C5.59059 5.27316 5.54788 5.41028 5.52441 5.69727C5.50024 5.99315 5.5 6.37777 5.5 6.9502V7.40039H20.2002V6.9502C20.2002 6.37777 20.199 5.99315 20.1748 5.69727C20.1513 5.41032 20.1096 5.27316 20.0635 5.18262C19.9437 4.94752 19.7526 4.75657 19.5176 4.63672C19.4271 4.5906 19.2898 4.54788 19.0029 4.52442C18.7071 4.50025 18.3224 4.5 17.75 4.5H7.9502Z" fill="currentColor"/>
<path d="M8.52051 10.9189C8.8134 10.6261 9.28816 10.6261 9.58105 10.9189L12.2812 13.6191C12.3373 13.6753 12.3795 13.7397 12.4141 13.8066C12.4232 13.8243 12.4347 13.8409 12.4424 13.8594C12.4655 13.9145 12.4799 13.9721 12.4893 14.0303C12.4943 14.0623 12.4972 14.0947 12.498 14.1279C12.4985 14.1426 12.4985 14.1572 12.498 14.1719C12.4971 14.2027 12.4938 14.2329 12.4893 14.2627C12.466 14.4151 12.3986 14.5623 12.2812 14.6797L9.58105 17.3799C9.28823 17.6725 8.81336 17.6725 8.52051 17.3799C8.22768 17.0871 8.22781 16.6122 8.52051 16.3193L9.94141 14.8984H2.75C2.33579 14.8984 2 14.5627 2 14.1484C2 13.7342 2.33579 13.3984 2.75 13.3984H9.93945L8.52051 11.9795C8.22761 11.6866 8.22761 11.2118 8.52051 10.9189Z" fill="currentColor"/>
</svg>
