<svg width="24" height="24" viewBox="0 0 24 24" fill="none" xmlns="http://www.w3.org/2000/svg">
<path d="M12.1215 15.7559C12.7268 15.8171 13.1996 16.3287 13.1996 16.9502C13.1995 17.6128 12.662 18.1503 11.9994 18.1504C11.3779 18.1504 10.8663 17.6776 10.8051 17.0723L10.7992 16.9502L10.8051 16.8272C10.8666 16.2221 11.3781 15.75 11.9994 15.75L12.1215 15.7559Z" fill="currentColor"/>
<path d="M17.5488 6.2002C17.5488 5.62777 17.5486 5.24315 17.5244 4.94727C17.501 4.66043 17.4592 4.52316 17.4131 4.43262C17.2933 4.19761 17.1021 4.00658 16.8672 3.88672C16.7766 3.84058 16.6387 3.79788 16.3516 3.77442C16.0558 3.75027 15.6717 3.75 15.0996 3.75H8.89942C8.32699 3.75 7.94237 3.75024 7.64649 3.77442C7.35949 3.79788 7.22238 3.84059 7.13184 3.88672C6.89672 4.00655 6.70577 4.19751 6.58594 4.43262C6.53981 4.52316 6.4971 4.66027 6.47364 4.94727C6.44946 5.24315 6.44922 5.62777 6.44922 6.2002V17.7998C6.44922 18.3722 6.44946 18.7569 6.47364 19.0527C6.4971 19.3397 6.53981 19.4768 6.58594 19.5674C6.70577 19.8025 6.89672 19.9935 7.13184 20.1133C7.22238 20.1594 7.35949 20.2021 7.64649 20.2256C7.94237 20.2498 8.32699 20.25 8.89942 20.25H15.0996C15.6717 20.25 16.0558 20.2497 16.3516 20.2256C16.6387 20.2021 16.7766 20.1594 16.8672 20.1133C17.1021 19.9934 17.2933 19.8024 17.4131 19.5674C17.4592 19.4768 17.501 19.3396 17.5244 19.0527C17.5486 18.7569 17.5488 18.3722 17.5488 17.7998V6.2002ZM19.0488 17.7998C19.0488 18.3475 19.0499 18.8037 19.0195 19.1748C18.9885 19.5546 18.9208 19.9109 18.749 20.2481C18.4854 20.7654 18.0652 21.1865 17.5479 21.4502C17.2106 21.622 16.8535 21.6897 16.4736 21.7207C16.1026 21.751 15.647 21.75 15.0996 21.75H8.89942C8.35174 21.75 7.89555 21.751 7.52442 21.7207C7.14469 21.6897 6.78832 21.6219 6.45118 21.4502C5.93373 21.1865 5.51268 20.7655 5.24903 20.2481C5.07732 19.9109 5.00955 19.5545 4.97852 19.1748C4.9482 18.8037 4.94922 18.3475 4.94922 17.7998V6.2002C4.94922 5.65252 4.9482 5.19633 4.97852 4.8252C5.00955 4.44547 5.07732 4.0891 5.24903 3.75196C5.51268 3.23451 5.93373 2.81346 6.45118 2.54981C6.78832 2.3781 7.14469 2.31033 7.52442 2.2793C7.89555 2.24898 8.35174 2.25 8.89942 2.25H15.0996C15.647 2.25 16.1026 2.24901 16.4736 2.2793C16.8535 2.31034 17.2106 2.37796 17.5479 2.54981C18.0652 2.81347 18.4854 3.23456 18.749 3.75196C18.9208 4.08914 18.9885 4.44542 19.0195 4.8252C19.0499 5.19633 19.0488 5.65252 19.0488 6.2002V17.7998Z" fill="currentColor"/>
</svg>
