<svg width="24" height="24" viewBox="0 0 24 24" fill="none" xmlns="http://www.w3.org/2000/svg">
<path d="M9.5293 8.52832C9.78966 8.2681 10.2124 8.26802 10.4727 8.52832C10.7328 8.78865 10.7328 9.21138 10.4727 9.47168L7.80567 12.1377C7.54537 12.398 7.12365 12.3979 6.86329 12.1377L5.5293 10.8047C5.26922 10.5444 5.26933 10.1226 5.5293 9.86231C5.78966 9.60208 6.21235 9.602 6.47266 9.86231L7.33399 10.7236L9.5293 8.52832Z" fill="currentColor"/>
<path d="M18.001 10.333C18.3692 10.333 18.668 10.6318 18.668 11C18.668 11.3682 18.3692 11.667 18.001 11.667H12.668C12.2998 11.667 12.001 11.3682 12.001 11C12.001 10.6318 12.2998 10.333 12.668 10.333H18.001Z" fill="currentColor"/>
<path fill-rule="evenodd" clip-rule="evenodd" d="M17.7998 3.15039C18.3475 3.15039 18.8037 3.14937 19.1748 3.17969C19.5545 3.21072 19.9109 3.27849 20.2481 3.4502C20.7655 3.71385 21.1865 4.13491 21.4502 4.65235C21.6219 4.98949 21.6897 5.34586 21.7207 5.72559C21.751 6.09672 21.75 6.55292 21.75 7.10059V13.3008C21.75 13.8481 21.751 14.3038 21.7207 14.6748C21.6897 15.0547 21.622 15.4118 21.4502 15.749C21.1865 16.2664 20.7654 16.6866 20.2481 16.9502C19.9109 17.122 19.5546 17.1897 19.1748 17.2207C18.8037 17.251 18.3475 17.25 17.7998 17.25H12.75V19.3496H15.6006C16.0147 19.3497 16.3506 19.6855 16.3506 20.0996C16.3506 20.5138 16.0147 20.8495 15.6006 20.8496H8.40039C7.98618 20.8496 7.65039 20.5138 7.65039 20.0996C7.6504 19.6854 7.98618 19.3496 8.40039 19.3496H11.25V17.25H6.2002C5.65253 17.25 5.19633 17.251 4.8252 17.2207C4.44542 17.1897 4.08913 17.122 3.75196 16.9502C3.23457 16.6866 2.81346 16.2664 2.54981 15.749C2.37797 15.4118 2.31034 15.0547 2.2793 14.6748C2.24901 14.3038 2.25 13.8481 2.25 13.3008V7.10059C2.25 6.55292 2.24898 6.09672 2.2793 5.72559C2.31033 5.34586 2.3781 4.98949 2.54981 4.65235C2.81346 4.1349 3.23451 3.71385 3.75196 3.4502C4.0891 3.27849 4.44547 3.21072 4.8252 3.17969C5.19633 3.14937 5.65253 3.15039 6.2002 3.15039H17.7998ZM6.2002 4.65039C5.62778 4.65039 5.24315 4.65063 4.94727 4.67481C4.66028 4.69827 4.52316 4.74098 4.43262 4.78711C4.19751 4.90694 4.00655 5.0979 3.88672 5.33301C3.84059 5.42355 3.79788 5.56067 3.77442 5.84766C3.75024 6.14354 3.75 6.52817 3.75 7.10059V13.3008C3.75 13.8729 3.75027 14.257 3.77442 14.5527C3.79788 14.8399 3.84058 14.9778 3.88672 15.0684C4.00658 15.3033 4.19761 15.4945 4.43262 15.6143C4.52316 15.6604 4.66043 15.7021 4.94727 15.7256C5.24315 15.7498 5.62778 15.75 6.2002 15.75H17.7998C18.3722 15.75 18.7569 15.7498 19.0527 15.7256C19.3396 15.7021 19.4768 15.6604 19.5674 15.6143C19.8024 15.4945 19.9934 15.3033 20.1133 15.0684C20.1594 14.9778 20.2021 14.8399 20.2256 14.5527C20.2497 14.257 20.25 13.8729 20.25 13.3008V7.10059C20.25 6.52817 20.2498 6.14354 20.2256 5.84766C20.2021 5.56067 20.1594 5.42355 20.1133 5.33301C19.9935 5.0979 19.8025 4.90694 19.5674 4.78711C19.4768 4.74098 19.3397 4.69827 19.0527 4.67481C18.7569 4.65064 18.3722 4.65039 17.7998 4.65039H6.2002Z" fill="currentColor"/>
</svg>
