<svg width="24" height="24" viewBox="0 0 24 24" fill="none" xmlns="http://www.w3.org/2000/svg">
<path d="M3.90039 3.15039C4.31461 3.15039 4.65039 3.48618 4.65039 3.90039V9.24414C4.90866 9.23978 5.06603 9.23217 5.21485 9.20801C5.85964 9.10328 6.45793 8.80623 6.93164 8.35645C7.11144 8.18568 7.27616 7.97399 7.70118 7.41504L7.86524 7.19824C8.37614 6.52635 8.78343 5.98991 9.13868 5.58594C9.49587 5.17981 9.84727 4.8518 10.2666 4.63379C11.3525 4.06943 12.6455 4.07074 13.7305 4.63672C14.1496 4.85541 14.5008 5.18402 14.8574 5.59082C15.212 5.99532 15.6181 6.53247 16.1279 7.20508L16.2764 7.39941C16.7085 7.96946 16.8752 8.1857 17.0586 8.35938C17.5294 8.80517 18.123 9.10019 18.7627 9.20605C19.0119 9.24727 19.2845 9.25 20 9.25C20.4142 9.25 20.75 9.58579 20.75 10C20.7498 10.414 20.4141 10.75 20 10.75C19.3349 10.75 18.917 10.7526 18.5176 10.6865C17.5828 10.5318 16.7154 10.1006 16.0273 9.44922C15.7334 9.17087 15.4827 8.8356 15.0811 8.30566L14.9326 8.11035C14.4095 7.42026 14.0405 6.93391 13.7295 6.5791C13.4208 6.22701 13.2145 6.05942 13.0371 5.9668C12.3862 5.62724 11.6104 5.6264 10.959 5.96484C10.7814 6.05719 10.5742 6.22518 10.2647 6.57715C9.95309 6.93149 9.58362 7.41726 9.05957 8.10645L8.89454 8.32324C8.49964 8.84258 8.25291 9.17073 7.96485 9.44434C7.27248 10.1018 6.39753 10.5354 5.45508 10.6885C5.21167 10.728 4.96128 10.7391 4.65039 10.7441V16.9004C4.65039 17.4728 4.65063 17.8574 4.67481 18.1533C4.69827 18.4402 4.74099 18.5774 4.78711 18.668C4.90696 18.903 5.09791 19.0941 5.33301 19.2139C5.42355 19.26 5.56071 19.3017 5.84766 19.3252C6.14354 19.3494 6.52817 19.3506 7.10059 19.3506H20.1006C20.5147 19.3507 20.8506 19.6864 20.8506 20.1006C20.8505 20.5146 20.5146 20.8505 20.1006 20.8506H7.10059C6.55292 20.8506 6.09672 20.8506 5.72559 20.8203C5.34591 20.7893 4.98945 20.7225 4.65235 20.5508C4.13491 20.2871 3.71385 19.8661 3.4502 19.3486C3.27846 19.0115 3.21074 18.6551 3.17969 18.2754C3.14937 17.9043 3.15039 17.4481 3.15039 16.9004V3.90039C3.15039 3.48618 3.48618 3.1504 3.90039 3.15039Z" fill="currentColor"/>
<path d="M7.80079 12.4492C8.215 12.4492 8.55079 12.785 8.55079 13.1992V17.1992C8.55079 17.6134 8.215 17.9492 7.80079 17.9492C7.38657 17.9492 7.05079 17.6134 7.05079 17.1992V13.1992C7.05079 12.785 7.38657 12.4492 7.80079 12.4492Z" fill="currentColor"/>
<path d="M11.3008 9.44922C11.715 9.44922 12.0508 9.78501 12.0508 10.1992V17.1992C12.0508 17.6134 11.715 17.9492 11.3008 17.9492C10.8866 17.9492 10.5508 17.6134 10.5508 17.1992V10.1992C10.5508 9.78501 10.8866 9.44922 11.3008 9.44922Z" fill="currentColor"/>
<path d="M14.8008 11.4492C15.215 11.4492 15.5508 11.785 15.5508 12.1992V17.1992C15.5508 17.6134 15.215 17.9492 14.8008 17.9492C14.3866 17.9492 14.0508 17.6134 14.0508 17.1992V12.1992C14.0508 11.785 14.3866 11.4492 14.8008 11.4492Z" fill="currentColor"/>
<path d="M18.3008 14.4492C18.715 14.4492 19.0508 14.785 19.0508 15.1992V17.1992C19.0508 17.6134 18.715 17.9492 18.3008 17.9492C17.8866 17.9492 17.5508 17.6134 17.5508 17.1992V15.1992C17.5508 14.785 17.8866 14.4492 18.3008 14.4492Z" fill="currentColor"/>
</svg>
