<svg width="24" height="24" viewBox="0 0 24 24" fill="none" xmlns="http://www.w3.org/2000/svg">
<path d="M12.4199 3.09961C17.0589 3.09986 20.8193 6.86096 20.8193 11.5C20.8191 16.1389 17.0588 19.8992 12.4199 19.8994C11.3572 19.8994 10.3383 19.7022 9.40039 19.3408C9.31947 19.3096 9.27028 19.2906 9.2334 19.2773C9.19658 19.2641 9.19412 19.2639 9.20605 19.2666C9.19689 19.2645 9.19242 19.2638 9.19141 19.2637C9.18957 19.2635 9.18534 19.264 9.17773 19.2637C9.17388 19.2638 9.16699 19.2638 9.15625 19.2646C9.12543 19.267 9.08414 19.2717 9.01074 19.2793L4.40137 19.7559C4.19659 19.777 3.99078 19.7988 3.82227 19.8008C3.66194 19.8026 3.39679 19.7919 3.14551 19.6387C2.84448 19.455 2.63954 19.1482 2.58496 18.7998C2.53947 18.5088 2.63133 18.2597 2.69434 18.1123C2.7606 17.9573 2.85917 17.7759 2.95703 17.5947L4.42969 14.8701C4.49338 14.7522 4.52881 14.6842 4.55371 14.6328C4.57645 14.5859 4.57508 14.5819 4.57129 14.5967C4.57462 14.5836 4.5766 14.5764 4.57715 14.5732C4.57687 14.577 4.57808 14.572 4.57617 14.5479C4.57799 14.5708 4.58038 14.5665 4.55957 14.4961C4.53911 14.4269 4.50847 14.3343 4.45801 14.1846C4.1736 13.3408 4.01957 12.4374 4.01953 11.5C4.01953 6.86081 7.78073 3.09961 12.4199 3.09961ZM12.4199 4.59961C8.60916 4.59961 5.51953 7.68924 5.51953 11.5C5.51957 12.2723 5.64586 13.0137 5.87891 13.7051C5.95909 13.943 6.05321 14.2013 6.07129 14.4297C6.08645 14.6212 6.07277 14.7806 6.02539 14.9668C5.96938 15.1869 5.8495 15.397 5.74902 15.583L4.30273 18.2578L8.85645 17.7871C8.97272 17.7751 9.10596 17.7597 9.23535 17.7646C9.34483 17.7689 9.43618 17.7811 9.54297 17.8057C9.67014 17.835 9.81099 17.8909 9.93945 17.9404C10.708 18.2365 11.5445 18.3994 12.4199 18.3994C16.2303 18.3992 19.3191 15.3104 19.3193 11.5C19.3193 7.68939 16.2305 4.59986 12.4199 4.59961ZM12.4199 8.0498C12.8339 8.05006 13.1699 8.38575 13.1699 8.7998V10.75H15.1191C15.5333 10.75 15.8691 11.0858 15.8691 11.5C15.8689 11.914 15.5332 12.25 15.1191 12.25H13.1699V14.1992C13.1699 14.6133 12.8339 14.949 12.4199 14.9492C12.0057 14.9492 11.6699 14.6134 11.6699 14.1992V12.25H9.71973C9.30564 12.25 8.96994 11.914 8.96973 11.5C8.96973 11.0858 9.30551 10.75 9.71973 10.75H11.6699V8.7998C11.6699 8.38559 12.0057 8.0498 12.4199 8.0498Z" fill="currentColor"/>
</svg>
