<svg width="24" height="24" viewBox="0 0 24 24" fill="none" xmlns="http://www.w3.org/2000/svg">
<path fill-rule="evenodd" clip-rule="evenodd" d="M10.7705 10.4697C11.0634 10.1769 11.5382 10.177 11.8311 10.4697L19.9326 18.5713C20.2254 18.8642 20.2255 19.339 19.9326 19.6318C19.6397 19.9245 19.1649 19.9246 18.8721 19.6318L17.6113 18.3711C16.9669 18.7129 16.2102 18.9511 15.3516 18.9512C13.971 18.9511 12.8546 18.3405 12.043 17.6631C11.2333 16.9873 10.6811 16.2092 10.4053 15.7725C10.3561 15.6946 10.2497 15.5387 10.1992 15.3184C10.1612 15.1519 10.1611 14.9486 10.1992 14.7822L10.2461 14.6289C10.2997 14.4888 10.3694 14.3865 10.4062 14.3281C10.6568 13.9316 11.1417 13.2424 11.8477 12.6074L10.7705 11.5303C10.4778 11.2374 10.4779 10.7626 10.7705 10.4697ZM12.9111 13.6709C12.3624 14.1501 11.9587 14.6917 11.7256 15.0488C11.969 15.4221 12.4032 16.0103 13.0039 16.5117C13.647 17.0484 14.4347 17.4511 15.3516 17.4512C15.7536 17.4511 16.1291 17.3713 16.4795 17.2393L15.6338 16.3936C15.53 16.4224 15.4051 16.4375 15.2549 16.4375C14.5245 16.4374 13.9319 15.8456 13.9316 15.1152C13.9316 14.9653 13.9412 14.8334 13.959 14.7188L12.9111 13.6709Z" fill="currentColor"/>
<path d="M7.34961 17.5996C7.76369 17.5996 8.0994 17.9356 8.09961 18.3496C8.09961 18.7638 7.76382 19.0996 7.34961 19.0996H3.75C3.33579 19.0996 3 18.7638 3 18.3496C3.00021 17.9356 3.33592 17.5996 3.75 17.5996H7.34961Z" fill="currentColor"/>
<path d="M15.8174 11.25C17.1976 11.2502 18.3135 11.8609 19.125 12.5381C19.9345 13.2138 20.4868 13.992 20.7627 14.4287C20.7996 14.4871 20.8694 14.5894 20.9229 14.7295L20.9688 14.8828L20.9902 15.0127C21.0046 15.148 20.9974 15.2939 20.9688 15.4189C20.9182 15.639 20.8121 15.7949 20.7627 15.873C20.6139 16.1086 20.3881 16.4377 20.0898 16.7939C19.8239 17.1111 19.3507 17.1523 19.0332 16.8867C18.716 16.6208 18.6737 16.1475 18.9395 15.8301C19.1539 15.5739 19.3204 15.3333 19.4404 15.1494C19.1967 14.776 18.763 14.1894 18.1641 13.6895C17.5211 13.1529 16.7339 12.7502 15.8174 12.75C15.6607 12.75 15.5075 12.7615 15.3604 12.7832C14.9508 12.8435 14.5694 12.5609 14.5088 12.1514C14.4483 11.7417 14.7319 11.3604 15.1416 11.2998C15.3598 11.2676 15.5859 11.25 15.8174 11.25Z" fill="currentColor"/>
<path d="M7.34961 11.2998C7.76376 11.2998 8.0995 11.6357 8.09961 12.0498C8.09961 12.464 7.76382 12.7998 7.34961 12.7998H3.75C3.33579 12.7998 3 12.464 3 12.0498C3.00011 11.6357 3.33585 11.2998 3.75 11.2998H7.34961Z" fill="currentColor"/>
<path d="M19.9502 5C20.3643 5.00011 20.7002 5.33585 20.7002 5.75C20.7002 6.16415 20.3643 6.49989 19.9502 6.5H3.75C3.33579 6.5 3 6.16421 3 5.75C3 5.33579 3.33579 5 3.75 5H19.9502Z" fill="currentColor"/>
</svg>
