<svg width="24" height="24" viewBox="0 0 24 24" fill="none" xmlns="http://www.w3.org/2000/svg">
<path d="M17.7686 5.16879C18.0614 4.87596 18.5362 4.87609 18.8291 5.16879C19.1218 5.4617 19.1219 5.9365 18.8291 6.22934L16.5098 8.54867H18.2988C18.7129 8.54867 19.0486 8.88464 19.0488 9.29867C19.0487 9.71275 18.7129 10.0487 18.2988 10.0487H15.0098L11.1094 13.9491H18.2988C18.713 13.9491 19.0488 14.2849 19.0488 14.6991C19.0487 15.1131 18.7129 15.4491 18.2988 15.4491H9.60938L6.22949 18.8289C5.93664 19.1216 5.4618 19.1216 5.16895 18.8289C4.8763 18.5361 4.87627 18.0612 5.16895 17.7684L7.48828 15.4491H5.69922C5.28511 15.4491 4.94939 15.1131 4.94922 14.6991C4.94922 14.2849 5.28501 13.9491 5.69922 13.9491H8.98828L12.8887 10.0487H5.69922C5.28511 10.0487 4.94939 9.71275 4.94922 9.29867C4.94943 8.88464 5.28514 8.54867 5.69922 8.54867H14.3887L17.7686 5.16879Z" fill="currentColor"/>
</svg>
