<svg width="24" height="24" viewBox="0 0 24 24" fill="none" xmlns="http://www.w3.org/2000/svg">
<path d="M19.3506 7.10059C19.3506 6.52816 19.3494 6.14354 19.3252 5.84766C19.3017 5.5607 19.26 5.42355 19.2139 5.33301C19.0941 5.09791 18.903 4.90696 18.668 4.78711C18.5775 4.74099 18.4402 4.69827 18.1533 4.67481C17.8574 4.65063 17.4728 4.65039 16.9004 4.65039H7.10059C6.52816 4.65039 6.14354 4.65063 5.84766 4.67481C5.56066 4.69827 5.42355 4.74098 5.33301 4.78711C5.0979 4.90694 4.90694 5.0979 4.78711 5.33301C4.74098 5.42355 4.69827 5.56066 4.67481 5.84766C4.65063 6.14354 4.65039 6.52816 4.65039 7.10059V16.9004C4.65039 17.4728 4.65063 17.8574 4.67481 18.1533C4.69827 18.4402 4.74099 18.5775 4.78711 18.668C4.90696 18.903 5.09791 19.0941 5.33301 19.2139C5.42355 19.26 5.5607 19.3017 5.84766 19.3252C6.14354 19.3494 6.52816 19.3506 7.10059 19.3506H16.9004C17.4728 19.3506 17.8574 19.3494 18.1533 19.3252C18.4401 19.3017 18.5775 19.26 18.668 19.2139C18.903 19.0941 19.0941 18.903 19.2139 18.668C19.26 18.5775 19.3017 18.4401 19.3252 18.1533C19.3494 17.8574 19.3506 17.4728 19.3506 16.9004V7.10059ZM20.8506 16.9004C20.8506 17.4481 20.8506 17.9043 20.8203 18.2754C20.7893 18.6551 20.7225 19.0115 20.5508 19.3486C20.2871 19.8661 19.8661 20.2871 19.3486 20.5508C19.0115 20.7225 18.6551 20.7893 18.2754 20.8203C17.9043 20.8506 17.4481 20.8506 16.9004 20.8506H7.10059C6.55291 20.8506 6.09672 20.8506 5.72559 20.8203C5.34591 20.7893 4.98945 20.7225 4.65235 20.5508C4.1349 20.2871 3.71385 19.8661 3.4502 19.3486C3.27846 19.0115 3.21074 18.6551 3.17969 18.2754C3.14937 17.9043 3.15039 17.4481 3.15039 16.9004V7.10059C3.15039 6.55291 3.14937 6.09672 3.17969 5.72559C3.21072 5.34586 3.27849 4.98949 3.4502 4.65235C3.71385 4.1349 4.1349 3.71385 4.65235 3.4502C4.98949 3.27849 5.34586 3.21072 5.72559 3.17969C6.09672 3.14937 6.55291 3.15039 7.10059 3.15039H16.9004C17.4481 3.15039 17.9043 3.14937 18.2754 3.17969C18.6551 3.21074 19.0115 3.27846 19.3486 3.4502C19.8661 3.71385 20.2871 4.1349 20.5508 4.65235C20.7225 4.98945 20.7893 5.34591 20.8203 5.72559C20.8506 6.09672 20.8506 6.55291 20.8506 7.10059V16.9004Z" fill="currentColor"/>
<path d="M13.3155 7.05017C13.0227 6.75728 12.5479 6.75728 12.255 7.05017L9.28528 10.0199C8.99238 10.3128 8.99238 10.7876 9.28528 11.0804L12.255 14.0512C12.5478 14.3438 13.0227 14.3438 13.3155 14.0512C13.6084 13.7583 13.6082 13.2835 13.3155 12.9906L10.8761 10.5502L13.3155 8.11072C13.6084 7.81783 13.6084 7.34307 13.3155 7.05017Z" fill="currentColor"/>
<path d="M9.92532 16.0703C9.5111 16.0703 9.17532 16.4061 9.17532 16.8203C9.17532 17.2346 9.5111 17.5703 9.92532 17.5703H13.8853C14.2995 17.5703 14.6353 17.2346 14.6353 16.8203C14.6353 16.4061 14.2995 16.0703 13.8853 16.0703H9.92532Z" fill="currentColor"/>
</svg>
