<svg width="24" height="24" viewBox="0 0 24 24" fill="none" xmlns="http://www.w3.org/2000/svg">
<path d="M7.5 10.3496C8.41109 10.3498 9.14941 11.0889 9.14941 12C9.1492 12.911 8.41096 13.6492 7.5 13.6494C6.58886 13.6494 5.84982 12.9111 5.84961 12C5.84961 11.0887 6.58873 10.3496 7.5 10.3496Z" fill="currentColor"/>
<path d="M15.5996 6.75C16.5107 6.75021 17.249 7.48925 17.249 8.40039C17.2488 9.31135 16.5106 10.0496 15.5996 10.0498C14.6885 10.0498 13.9494 9.31148 13.9492 8.40039C13.9492 7.48912 14.6883 6.75 15.5996 6.75Z" fill="currentColor"/>
<path d="M10.2012 5.84961C11.1123 5.84982 11.8506 6.58886 11.8506 7.5C11.8504 8.41096 11.1121 9.1492 10.2012 9.14941C9.29003 9.14941 8.55099 8.41109 8.55078 7.5C8.55078 6.58873 9.2899 5.84961 10.2012 5.84961Z" fill="currentColor"/>
<path fill-rule="evenodd" clip-rule="evenodd" d="M12 2.25C17.3848 2.25 21.75 6.61522 21.75 12C21.75 13.9054 20.2052 15.4502 18.2998 15.4502H17.8496C17.4081 15.4502 17.2599 15.4517 17.1455 15.4668C16.2705 15.582 15.582 16.2705 15.4668 17.1455C15.4517 17.2599 15.4502 17.4081 15.4502 17.8496V18.2998C15.4502 20.2052 13.9054 21.75 12 21.75C6.61522 21.75 2.25 17.3848 2.25 12C2.25 6.61522 6.61522 2.25 12 2.25ZM12 3.75C7.44365 3.75 3.75 7.44365 3.75 12C3.75 16.5563 7.44365 20.25 12 20.25C13.077 20.25 13.9502 19.3768 13.9502 18.2998V17.8496C13.9502 17.4557 13.9484 17.1856 13.9795 16.9492C14.1835 15.4015 15.4015 14.1835 16.9492 13.9795C17.1856 13.9484 17.4557 13.9502 17.8496 13.9502H18.2998C19.3768 13.9502 20.25 13.077 20.25 12C20.25 7.44365 16.5563 3.75 12 3.75Z" fill="currentColor"/>
</svg>
