<svg width="24" height="24" viewBox="0 0 24 24" fill="none" xmlns="http://www.w3.org/2000/svg">
<path d="M12.4492 14.2363C12.8634 14.2363 13.1992 14.5721 13.1992 14.9863C13.1992 15.4005 12.8634 15.7363 12.4492 15.7363H8.58594C8.17173 15.7363 7.83594 15.4005 7.83594 14.9863C7.83594 14.5721 8.17173 14.2363 8.58594 14.2363H12.4492Z" fill="currentColor"/>
<path d="M15.7861 10.6367C16.2003 10.6368 16.5361 10.9726 16.5361 11.3867C16.5361 11.8009 16.2003 12.1366 15.7861 12.1367H8.58594C8.17173 12.1367 7.83594 11.8009 7.83594 11.3867C7.83594 10.9725 8.17173 10.6367 8.58594 10.6367H15.7861Z" fill="currentColor"/>
<path fill-rule="evenodd" clip-rule="evenodd" d="M14.1094 2C14.349 2 14.574 1.99933 14.7617 2.01465C14.9091 2.0267 15.0703 2.05091 15.2344 2.10938L15.3984 2.17969L15.5127 2.24317C15.7711 2.4017 15.9817 2.62976 16.1201 2.90137C16.2318 3.12081 16.2691 3.34178 16.2852 3.53809C16.2918 3.61953 16.2939 3.70808 16.2959 3.80176C16.6926 3.80263 17.0343 3.80642 17.3242 3.83008C17.7041 3.86112 18.0612 3.92875 18.3984 4.10059C18.9159 4.36424 19.3369 4.7853 19.6006 5.30274C19.7722 5.63982 19.8391 5.99633 19.8701 6.37598C19.9004 6.74711 19.9004 7.20331 19.9004 7.75098V17.5508C19.9004 18.0985 19.9004 18.5547 19.8701 18.9258C19.8391 19.3054 19.7723 19.662 19.6006 19.999C19.3369 20.5165 18.9159 20.9375 18.3984 21.2012C18.0612 21.373 17.7041 21.4397 17.3242 21.4707C16.9532 21.501 16.4976 21.501 15.9502 21.501H7.9502C7.40253 21.501 6.94633 21.501 6.5752 21.4707C6.19552 21.4397 5.83905 21.3728 5.50196 21.2012C4.98452 20.9375 4.56346 20.5165 4.29981 19.999C4.12807 19.6619 4.06034 19.3055 4.0293 18.9258C3.99898 18.5547 4 18.0985 4 17.5508V7.75098C4 7.20331 3.99898 6.74711 4.0293 6.37598C4.06033 5.99625 4.1281 5.63988 4.29981 5.30274C4.56346 4.7853 4.98451 4.36424 5.50196 4.10059C5.8391 3.92888 6.19547 3.86111 6.5752 3.83008C6.86482 3.80642 7.20626 3.80263 7.60254 3.80176C7.60453 3.70807 7.60762 3.61954 7.61426 3.53809C7.6303 3.34176 7.66757 3.12084 7.7793 2.90137L7.84278 2.78711C8.00131 2.52864 8.22931 2.31811 8.50098 2.17969L8.66504 2.10938C8.82904 2.05095 8.99033 2.02669 9.1377 2.01465C9.32534 1.99934 9.55052 2 9.79004 2H14.1094ZM16.2852 5.5625C16.2691 5.75888 16.232 5.97973 16.1201 6.19922C15.9619 6.50969 15.7089 6.76173 15.3984 6.91993C15.1789 7.03178 14.9581 7.06892 14.7617 7.08497C14.574 7.1003 14.349 7.09961 14.1094 7.09961H9.79004C9.55051 7.09961 9.32535 7.10028 9.1377 7.08497C8.94132 7.06892 8.7205 7.03172 8.50098 6.91993C8.19053 6.76174 7.93749 6.50967 7.7793 6.19922C7.66746 5.97973 7.63033 5.75888 7.61426 5.5625C7.60768 5.48189 7.60454 5.39437 7.60254 5.30176C7.21477 5.30272 6.92884 5.30628 6.69727 5.3252C6.41028 5.34866 6.27316 5.39137 6.18262 5.4375C5.94751 5.55733 5.75655 5.74829 5.63672 5.9834C5.59059 6.07394 5.54788 6.21106 5.52442 6.49805C5.50024 6.79393 5.5 7.17856 5.5 7.75098V17.5508C5.5 18.1232 5.50024 18.5078 5.52442 18.8037C5.54788 19.0906 5.5906 19.2278 5.63672 19.3184C5.75657 19.5534 5.94753 19.7445 6.18262 19.8643C6.27316 19.9104 6.41032 19.9521 6.69727 19.9756C6.99315 19.9998 7.37778 20.001 7.9502 20.001H15.9502C16.5223 20.001 16.9064 19.9997 17.2022 19.9756C17.4893 19.9521 17.6272 19.9104 17.7178 19.8643C17.9528 19.7444 18.1439 19.5534 18.2637 19.3184C18.3098 19.2278 18.3515 19.0905 18.375 18.8037C18.3992 18.5078 18.4004 18.1232 18.4004 17.5508V7.75098C18.4004 7.17856 18.3992 6.79393 18.375 6.49805C18.3515 6.21114 18.3098 6.07394 18.2637 5.9834C18.1439 5.74834 17.9528 5.55736 17.7178 5.4375C17.6272 5.39136 17.4893 5.34866 17.2022 5.3252C16.9703 5.30628 16.6842 5.30272 16.2959 5.30176C16.2939 5.39436 16.2917 5.4819 16.2852 5.5625ZM9.79004 3.5C9.52581 3.5 9.3722 3.5006 9.25977 3.50977C9.21294 3.5136 9.18672 3.51797 9.17481 3.52051C9.15203 3.53367 9.13328 3.55243 9.12012 3.5752C9.11758 3.58711 9.11321 3.61333 9.10938 3.66016C9.10021 3.77259 9.09961 3.9262 9.09961 4.19043V4.91016C9.09961 5.17446 9.10019 5.32801 9.10938 5.44043C9.11316 5.48654 9.11757 5.51237 9.12012 5.52442C9.13303 5.54688 9.15156 5.56495 9.17383 5.57813C9.18514 5.58061 9.21127 5.58589 9.25977 5.58985C9.37221 5.59902 9.52578 5.59961 9.79004 5.59961H14.1094C14.3738 5.59961 14.5272 5.59904 14.6397 5.58985C14.6871 5.58597 14.7129 5.58065 14.7246 5.57813C14.747 5.565 14.7653 5.54693 14.7783 5.52442C14.7809 5.51244 14.7862 5.48675 14.79 5.44043C14.7992 5.32801 14.7998 5.17446 14.7998 4.91016V4.19043C14.7998 3.92621 14.7992 3.77259 14.79 3.66016C14.7862 3.61312 14.7809 3.58703 14.7783 3.5752C14.7651 3.55238 14.7466 3.53362 14.7236 3.52051C14.7114 3.51794 14.6855 3.51352 14.6397 3.50977C14.5272 3.50058 14.3738 3.5 14.1094 3.5H9.79004Z" fill="currentColor"/>
</svg>
