<svg width="24" height="24" viewBox="0 0 24 24" fill="none" xmlns="http://www.w3.org/2000/svg">
<path d="M9.75 8.5498C10.1642 8.5498 10.5 8.88559 10.5 9.2998V14.7002L10.4961 14.7764C10.4577 15.1546 10.1384 15.4502 9.75 15.4502C9.36164 15.4502 9.04226 15.1546 9.00391 14.7764L9 14.7002V9.2998C9 8.88559 9.33579 8.5498 9.75 8.5498Z" fill="currentColor"/>
<path d="M14.25 8.5498C14.6642 8.5498 15 8.88559 15 9.2998V14.7002C14.9998 15.1142 14.6641 15.4502 14.25 15.4502C13.8359 15.4502 13.5002 15.1142 13.5 14.7002V9.2998C13.5 8.88559 13.8358 8.5498 14.25 8.5498Z" fill="currentColor"/>
<path fill-rule="evenodd" clip-rule="evenodd" d="M12 2.25C17.3848 2.25 21.75 6.61522 21.75 12C21.75 17.3848 17.3848 21.75 12 21.75C6.61522 21.75 2.25 17.3848 2.25 12C2.25 6.61522 6.61522 2.25 12 2.25ZM12 3.75C7.44365 3.75 3.75 7.44365 3.75 12C3.75 16.5563 7.44365 20.25 12 20.25C16.5563 20.25 20.25 16.5563 20.25 12C20.25 7.44365 16.5563 3.75 12 3.75Z" fill="currentColor"/>
</svg>
