<svg width="24" height="24" viewBox="0 0 24 24" fill="none" xmlns="http://www.w3.org/2000/svg">
<path fill-rule="evenodd" clip-rule="evenodd" d="M11.9 2C6.43238 2 2 6.43238 2 11.9C2 17.3676 6.43238 21.8 11.9 21.8C17.3676 21.8 21.8 17.3676 21.8 11.9C21.8 6.43238 17.3676 2 11.9 2ZM10.55 9.2C10.55 8.70294 10.1471 8.3 9.65 8.3C9.15294 8.3 8.75 8.70294 8.75 9.2V14.6C8.75 15.0971 9.15294 15.5 9.65 15.5C10.1471 15.5 10.55 15.0971 10.55 14.6V9.2ZM15.05 9.2C15.05 8.70294 14.6471 8.3 14.15 8.3C13.6529 8.3 13.25 8.70294 13.25 9.2V14.6C13.25 15.0971 13.6529 15.5 14.15 15.5C14.6471 15.5 15.05 15.0971 15.05 14.6V9.2Z" fill="currentColor"/>
</svg>
