<svg width="24" height="24" viewBox="0 0 24 24" fill="none" xmlns="http://www.w3.org/2000/svg">
<path d="M12 3.15029C12.4142 3.15029 12.75 3.48607 12.75 3.90029C12.7499 4.31445 12.4142 4.65029 12 4.65029H7.10059C6.52817 4.65029 6.14354 4.65053 5.84766 4.6747C5.56067 4.69816 5.42355 4.74087 5.33301 4.787C5.09792 4.90683 4.90693 5.0978 4.78711 5.3329C4.741 5.42345 4.69826 5.56065 4.67481 5.84755C4.65064 6.14341 4.65039 6.52813 4.65039 7.10048V16.9003C4.65039 17.4727 4.65064 17.8574 4.67481 18.1532C4.69828 18.44 4.741 18.5774 4.78711 18.6679C4.90696 18.9029 5.09794 19.094 5.33301 19.2138C5.42355 19.2599 5.56075 19.3016 5.84766 19.3251C6.14354 19.3493 6.52817 19.3505 7.10059 19.3505H16.9004C17.4728 19.3505 17.8574 19.3493 18.1533 19.3251C18.4401 19.3016 18.5775 19.2599 18.668 19.2138C18.903 19.094 19.0941 18.9029 19.2139 18.6679C19.26 18.5774 19.3017 18.44 19.3252 18.1532C19.3494 17.8574 19.3506 17.4727 19.3506 16.9003V11.9999C19.3508 11.5859 19.6865 11.2499 20.1006 11.2499C20.5146 11.25 20.8504 11.5859 20.8506 11.9999V16.9003C20.8506 17.4479 20.8506 17.9042 20.8203 18.2753C20.7893 18.6549 20.7225 19.0115 20.5508 19.3485C20.2871 19.8659 19.8661 20.287 19.3486 20.5507C19.0116 20.7224 18.655 20.7892 18.2754 20.8202C17.9043 20.8505 17.4481 20.8505 16.9004 20.8505H7.10059C6.55292 20.8505 6.09672 20.8505 5.72559 20.8202C5.34593 20.7892 4.98944 20.7223 4.65235 20.5507C4.13493 20.287 3.71385 19.8659 3.4502 19.3485C3.27847 19.0114 3.21074 18.655 3.17969 18.2753C3.14937 17.9042 3.15039 17.4479 3.15039 16.9003V7.10048C3.15039 6.55286 3.14938 6.09659 3.17969 5.72548C3.21072 5.34578 3.27852 4.98935 3.4502 4.65224C3.71384 4.13481 4.13493 3.71374 4.65235 3.45009C4.98949 3.27838 5.34586 3.21061 5.72559 3.17958C6.09672 3.14926 6.55292 3.15029 7.10059 3.15029H12Z" fill="currentColor"/>
<path fill-rule="evenodd" clip-rule="evenodd" d="M17.5439 2.61806C18.5373 1.62471 20.1473 1.62471 21.1406 2.61806C22.1339 3.61141 22.134 5.2214 21.1406 6.21474L13.9883 13.3681C13.8306 13.5258 13.7075 13.651 13.5674 13.7597C13.4506 13.8503 13.3256 13.9309 13.1953 14.0009C13.0392 14.0846 12.8751 14.1464 12.667 14.2265L9.14844 15.58C8.87188 15.6863 8.55816 15.6195 8.34864 15.4101C8.13912 15.2005 8.07245 14.8868 8.17872 14.6102L9.53223 11.0917C9.61227 10.8836 9.67407 10.7195 9.75782 10.5634C9.82775 10.4331 9.9084 10.3081 9.99903 10.1913C10.1077 10.0512 10.2329 9.92813 10.3906 9.7704L17.5439 2.61806ZM20.0801 3.67861C19.6725 3.27104 19.0121 3.27104 18.6045 3.67861L11.4512 10.8309C11.2681 11.014 11.2223 11.0625 11.1846 11.1112C11.1452 11.1619 11.1095 11.2158 11.0791 11.2724C11.05 11.3266 11.0254 11.3886 10.9326 11.6298L10.1846 13.5731L12.1289 12.8261C12.3703 12.7332 12.4321 12.7077 12.4863 12.6786C12.5428 12.6483 12.5968 12.6134 12.6475 12.5741C12.6961 12.5363 12.7447 12.4906 12.9277 12.3075L20.0801 5.15419C20.4876 4.74664 20.4876 4.08617 20.0801 3.67861Z" fill="currentColor"/>
</svg>
