<svg width="24" height="24" viewBox="0 0 24 24" fill="none" xmlns="http://www.w3.org/2000/svg">
<path d="M13.7383 12.9112C13.8852 12.6142 14.245 12.4919 14.5421 12.6387C14.8389 12.7855 14.961 13.1455 14.8145 13.4424C14.2616 14.561 13.9493 15.823 13.9493 17.1592C13.9494 18.4953 14.2616 19.7565 14.8145 20.875C14.9612 21.172 14.8389 21.5319 14.5421 21.6787C14.2451 21.8254 13.8853 21.7041 13.7383 21.4073C13.1054 20.1269 12.7501 18.6837 12.7501 17.1592C12.7501 15.6348 13.1054 14.1916 13.7383 12.9112Z" fill="currentColor"/>
<path d="M20.1592 12.6387C20.4562 12.4921 20.8162 12.6142 20.963 12.9112C21.5958 14.1915 21.9512 15.6349 21.9512 17.1592C21.9512 18.6836 21.5959 20.1269 20.963 21.4073C20.8161 21.704 20.4562 21.8252 20.1592 21.6787C19.8623 21.5319 19.7401 21.1721 19.8868 20.875C20.4397 19.7565 20.751 18.4952 20.751 17.1592C20.751 15.8231 20.4397 14.561 19.8868 13.4424C19.7402 13.1454 19.8623 12.7855 20.1592 12.6387Z" fill="currentColor"/>
<path d="M16.4532 15.0645C16.8829 15.0646 17.2643 15.315 17.4424 15.6924L17.5059 15.8614L17.5909 16.1621L18.0528 15.6221C18.3545 15.2683 18.7964 15.0645 19.2618 15.0645H19.3018C19.633 15.0647 19.9014 15.3329 19.9014 15.6641C19.9014 15.9953 19.633 16.2635 19.3018 16.2637H19.2618C19.149 16.2637 19.0404 16.314 18.9659 16.4014L17.9854 17.5498L18.2696 18.5489H18.8067C19.138 18.5489 19.4072 18.8172 19.4073 19.1485C19.4073 19.4798 19.1381 19.7481 18.8067 19.7481H18.1905C17.6994 19.7481 17.2703 19.4211 17.1368 18.9512L17.0499 18.6475L16.588 19.1905C16.2863 19.5441 15.8451 19.748 15.3799 19.7481H15.3399C15.0086 19.748 14.7403 19.4798 14.7403 19.1485C14.7404 18.8172 15.0086 18.5489 15.3399 18.5489H15.3799C15.4926 18.5488 15.6004 18.4985 15.6749 18.4112L16.6553 17.2598L16.3731 16.2637H15.836C15.5047 16.2637 15.2364 15.9954 15.2364 15.6641C15.2364 15.3328 15.5047 15.0645 15.836 15.0645H16.4532Z" fill="currentColor"/>
<path fill-rule="evenodd" clip-rule="evenodd" d="M14.3702 2.77836C15.4085 1.74049 17.0916 1.7406 18.1299 2.77836C19.1684 3.81682 19.1684 5.50062 18.1299 6.5391L6.82429 17.8457C6.53829 18.1317 6.31202 18.3648 6.03718 18.5332C5.80902 18.6731 5.56006 18.7764 5.29987 18.8389C4.98634 18.9142 4.66143 18.9092 4.2569 18.9092H2.75007C2.33598 18.9091 2.00017 18.5733 2.00007 18.1592V16.6524C2.00006 16.248 1.99515 15.9229 2.07038 15.6094C2.13285 15.3493 2.23626 15.1002 2.37604 14.8721C2.54451 14.5973 2.77757 14.371 3.06354 14.085L14.3702 2.77836ZM4.12409 15.1455C3.78766 15.482 3.70851 15.568 3.65436 15.6563C3.59704 15.7499 3.55506 15.8523 3.52936 15.959C3.50518 16.0598 3.50007 16.1766 3.50007 16.6524V17.4092H4.2569C4.73227 17.4092 4.84861 17.404 4.94929 17.3799C5.05642 17.3542 5.15905 17.3115 5.253 17.2539C5.34133 17.1998 5.42726 17.1217 5.76374 16.7852L14.6387 7.90824L13.0001 6.26957L4.12409 15.1455ZM17.0694 3.8389C16.6168 3.38693 15.8833 3.38683 15.4307 3.8389L14.0606 5.20902L15.6993 6.84769L17.0694 5.47855C17.522 5.02586 17.5221 4.29158 17.0694 3.8389Z" fill="currentColor"/>
</svg>
