<svg width="24" height="24" viewBox="0 0 24 24" fill="none" xmlns="http://www.w3.org/2000/svg">
<path fill-rule="evenodd" clip-rule="evenodd" d="M16.2692 3.96524C17.5562 2.67825 19.6433 2.67826 20.9303 3.96524C22.2173 5.25225 22.2173 7.3394 20.9303 8.62637L9.0446 20.5121C8.80147 20.7552 8.60813 20.9528 8.3776 21.1049C8.18592 21.2312 7.97688 21.332 7.75846 21.4027C7.49561 21.4877 7.22047 21.5151 6.87858 21.5531L3.83268 21.891C3.60643 21.916 3.3804 21.8371 3.2194 21.6762C3.05841 21.5152 2.97954 21.2892 3.00456 21.0629L3.34245 18.017C3.38044 17.6751 3.40788 17.4 3.49284 17.1371C3.56355 16.9187 3.66337 16.7097 3.78971 16.518C3.94187 16.2872 4.14017 16.0943 4.38346 15.851L16.2692 3.96524ZM5.44401 16.9115C5.15844 17.1971 5.09163 17.2699 5.04264 17.3441C4.9907 17.423 4.94868 17.5092 4.9196 17.599C4.89237 17.6835 4.87817 17.7825 4.83366 18.183L4.59831 20.2963L6.71257 20.0619C7.11372 20.0173 7.21196 20.0023 7.29655 19.975C7.38639 19.9459 7.47258 19.9049 7.55143 19.8529C7.62571 19.8039 7.69845 19.7362 7.98405 19.4506L16.6393 10.7943L14.1003 8.25528L5.44401 16.9115ZM19.8698 5.02579C19.1686 4.32459 18.031 4.32458 17.3298 5.02579L15.1608 7.19473L17.6999 9.7338L19.8698 7.56583C20.571 6.86464 20.5709 5.72701 19.8698 5.02579Z" fill="currentColor"/>
</svg>
