<svg width="24" height="24" viewBox="0 0 24 24" fill="none" xmlns="http://www.w3.org/2000/svg">
<path d="M13.0029 19.7393C13.4108 19.6682 13.7988 19.9417 13.8701 20.3496C13.9413 20.7575 13.6687 21.1455 13.2607 21.2168C12.7321 21.3092 12.1888 21.3574 11.6348 21.3574C11.0806 21.3574 10.5366 21.3093 10.0078 21.2168C9.6 21.1454 9.32732 20.7574 9.39844 20.3496C9.46979 19.9416 9.85858 19.6679 10.2666 19.7393C10.7104 19.8168 11.1677 19.8574 11.6348 19.8574C12.1018 19.8574 12.5592 19.8169 13.0029 19.7393Z" fill="currentColor"/>
<path d="M18.0918 16.4971C18.3298 16.1582 18.7977 16.0766 19.1367 16.3145C19.4757 16.5524 19.5573 17.0203 19.3193 17.3594C18.6912 18.2543 17.9108 19.0344 17.0156 19.6621C16.6765 19.8999 16.2085 19.8176 15.9707 19.4785C15.7332 19.1394 15.8153 18.6713 16.1543 18.4336C16.9071 17.9057 17.5636 17.2496 18.0918 16.4971Z" fill="currentColor"/>
<path d="M4.13184 16.3135C4.4709 16.0757 4.93889 16.158 5.17676 16.4971C5.70382 17.2481 6.35851 17.9033 7.10938 18.4307C7.44834 18.6687 7.53005 19.1366 7.29199 19.4756C7.0539 19.8144 6.58599 19.8962 6.24707 19.6582C5.35391 19.0309 4.57514 18.2519 3.94824 17.3584C3.71033 17.0193 3.79276 16.5514 4.13184 16.3135Z" fill="currentColor"/>
<path d="M11 7.25C11.4142 7.25 11.75 7.58579 11.75 8V12.0977L14.1162 13.6758C14.4607 13.9055 14.5538 14.3712 14.3242 14.7158C14.0945 15.0605 13.6288 15.1536 13.2842 14.9238L10.584 13.124C10.3753 12.9849 10.25 12.7508 10.25 12.5V8C10.25 7.58579 10.5858 7.25 11 7.25Z" fill="currentColor"/>
<path d="M20.2676 11.2246C20.6818 11.2246 21.0176 11.5604 21.0176 11.9746C21.0176 12.5289 20.9695 13.0726 20.877 13.6016C20.8056 14.0096 20.4168 14.2823 20.0088 14.2109C19.6009 14.1395 19.3281 13.7507 19.3994 13.3428C19.477 12.8989 19.5176 12.4418 19.5176 11.9746C19.5176 11.5604 19.8534 11.2246 20.2676 11.2246Z" fill="currentColor"/>
<path d="M11.6328 2.5918C14.6646 2.5918 17.3598 4.03089 19.0742 6.25977L19.3174 5.35352C19.4247 4.95354 19.8363 4.71605 20.2363 4.82324C20.6363 4.93055 20.8738 5.34217 20.7666 5.74219L20.0645 8.36328C19.957 8.76305 19.5454 9.00067 19.1455 8.89355L16.5254 8.19043C16.1253 8.08323 15.888 7.67253 15.9951 7.27246C16.1023 6.87238 16.513 6.63498 16.9131 6.74219L17.707 6.9541C16.2601 5.20586 14.0772 4.0918 11.6328 4.0918C7.2836 4.09203 3.75705 7.6143 3.75 11.9619C3.75007 11.9661 3.75098 11.9704 3.75098 11.9746C3.75098 12.4414 3.79167 12.8983 3.86914 13.3418C3.94023 13.7496 3.6675 14.1375 3.25977 14.209C2.85173 14.2803 2.46289 14.0076 2.3916 13.5996C2.29931 13.0713 2.25 12.5283 2.25 11.9746C2.25019 6.79273 6.45095 2.59203 11.6328 2.5918Z" fill="currentColor"/>
</svg>
