<svg width="24" height="24" viewBox="0 0 24 24" fill="none" xmlns="http://www.w3.org/2000/svg">
<path fill-rule="evenodd" clip-rule="evenodd" d="M13.4998 2.50841C13.8339 2.33357 14.2198 2.27765 14.5926 2.35314L14.7078 2.38146C14.968 2.45899 15.1767 2.60693 15.3455 2.74767C15.537 2.90727 15.7542 3.1251 15.9959 3.36681L20.6238 7.99572C20.8655 8.2374 21.0844 8.45466 21.244 8.64611C21.3847 8.81493 21.5327 9.02376 21.6102 9.2838L21.6395 9.39904L21.6639 9.56017C21.7019 9.93509 21.6096 10.3136 21.4012 10.6315C21.2251 10.8999 20.9758 11.0647 20.7547 11.1842C20.5356 11.3025 20.2531 11.4228 19.9393 11.5572L17.6932 12.5201C17.6433 12.5415 17.6163 12.5531 17.5965 12.5621C17.5897 12.5652 17.5851 12.5669 17.5828 12.568C17.5762 12.5718 17.5693 12.5759 17.5633 12.5807C17.5669 12.5778 17.5665 12.5791 17.5535 12.5914C17.5377 12.6065 17.5162 12.6268 17.4774 12.6656L16.0731 14.0699C16.0126 14.1304 15.9803 14.164 15.9569 14.1891C15.9485 14.1981 15.9428 14.2036 15.9403 14.2067C15.9336 14.2162 15.9279 14.2271 15.9237 14.2379C15.9226 14.2418 15.9206 14.2495 15.9178 14.2613C15.9099 14.2947 15.9013 14.3398 15.8846 14.4234L15.2244 17.7213C15.1417 18.1351 15.0703 18.4969 14.9871 18.777C14.9061 19.0497 14.7789 19.3774 14.5037 19.6217C14.143 19.9416 13.66 20.0872 13.1824 20.0211C12.8179 19.9706 12.5301 19.7695 12.3113 19.5875C12.0868 19.4006 11.8266 19.1379 11.5281 18.8395L8.86994 16.1813L4.30939 20.7428C4.01654 21.0354 3.54167 21.0354 3.24885 20.7428C2.95603 20.45 2.95619 19.9752 3.24885 19.6822L7.80939 15.1207L5.15119 12.4625C4.85287 12.1642 4.59095 11.9038 4.40412 11.6793C4.22221 11.4606 4.02104 11.1734 3.97053 10.8092C3.90445 10.3316 4.05005 9.84862 4.36994 9.4879C4.61415 9.21277 4.94192 9.08554 5.21467 9.0045C5.49468 8.92135 5.85668 8.84993 6.27033 8.7672L9.56916 8.10802C9.65298 8.09126 9.69792 8.08172 9.73127 8.07384C9.75838 8.06743 9.76084 8.06562 9.75471 8.06798C9.76535 8.06375 9.77557 8.05792 9.78498 8.05138C9.78799 8.04878 9.79336 8.04335 9.80256 8.03478C9.82762 8.01138 9.86032 7.97897 9.92072 7.91857L11.4002 6.4381C11.4054 6.43269 11.4083 6.4292 11.41 6.42736C11.4147 6.4214 11.4199 6.4154 11.4237 6.4088C11.4247 6.40664 11.4265 6.4026 11.4295 6.39611C11.4385 6.37629 11.45 6.34863 11.4715 6.29845L12.4344 4.05236C12.5689 3.73856 12.6891 3.45604 12.8074 3.23693C12.9269 3.01584 13.0918 2.7665 13.3602 2.59044L13.4998 2.50841ZM14.2811 3.82189C14.2516 3.81869 14.2224 3.82474 14.1961 3.83849C14.1848 3.85351 14.1616 3.8862 14.1278 3.94884C14.0492 4.09416 13.9583 4.30351 13.8123 4.64415L12.8504 6.88927C12.8161 6.9694 12.7769 7.06282 12.7254 7.15294C12.684 7.22548 12.6367 7.29454 12.5848 7.35997C12.5201 7.44142 12.4483 7.51308 12.3865 7.57482L10.9813 8.97911C10.885 9.07537 10.7754 9.18973 10.6434 9.28185C10.5372 9.35588 10.4221 9.41719 10.3016 9.46447C10.1518 9.52315 9.99649 9.55205 9.8631 9.57872L6.56428 10.2379C6.1213 10.3265 5.83992 10.383 5.64142 10.442C5.5535 10.4681 5.50598 10.4898 5.48322 10.5006C5.46629 10.5255 5.4578 10.5535 5.45783 10.5836C5.47063 10.605 5.49918 10.6491 5.55842 10.7203C5.69084 10.8794 5.89261 11.0828 6.21174 11.402L12.5887 17.7789C12.9082 18.0985 13.1121 18.3017 13.2713 18.4342C13.3419 18.4929 13.3865 18.5199 13.408 18.5328C13.4378 18.5329 13.4653 18.5259 13.4901 18.5094C13.5007 18.487 13.5222 18.4384 13.5487 18.3492C13.6076 18.1508 13.6652 17.87 13.7537 17.4274L14.4139 14.1295C14.4406 13.996 14.4684 13.84 14.5272 13.6901C14.5744 13.5695 14.6357 13.4544 14.7098 13.3483C14.8019 13.2162 14.9162 13.1057 15.0125 13.0094L16.4168 11.6051C16.4786 11.5434 16.5492 11.4706 16.6307 11.4059C16.6962 11.3539 16.7661 11.3077 16.8387 11.2662C16.929 11.2146 17.0231 11.1756 17.1033 11.1412L19.3475 10.1783C19.6878 10.0325 19.8965 9.94236 20.0418 9.86388C20.106 9.8292 20.1385 9.80466 20.1531 9.79357C20.1664 9.76756 20.172 9.7396 20.1688 9.71056C20.1587 9.69406 20.1364 9.66082 20.0916 9.60704C19.9859 9.48016 19.8254 9.31833 19.5633 9.05626L14.9344 4.42736C14.6728 4.16581 14.5123 4.00571 14.3856 3.90001C14.3311 3.85462 14.2974 3.83187 14.2811 3.82189Z" fill="currentColor"/>
</svg>
