<svg width="24" height="24" viewBox="0 0 24 24" fill="none" xmlns="http://www.w3.org/2000/svg">
<path fill-rule="evenodd" clip-rule="evenodd" d="M6.6875 3.03516C6.99836 3.0495 7.27135 3.1724 7.49023 3.29102C7.74715 3.43025 8.05405 3.63499 8.40527 3.86914L17.8691 10.1787C18.1574 10.3709 18.4163 10.5431 18.6123 10.7012C18.7849 10.8404 18.9731 11.0181 19.1006 11.2607L19.1514 11.3691L19.207 11.5225C19.3172 11.8862 19.2982 12.2787 19.1514 12.6328C19.0272 12.9322 18.8096 13.1416 18.6123 13.3008C18.4163 13.4588 18.1574 13.6311 17.8691 13.8232L8.40527 20.1328C8.05405 20.367 7.74715 20.5717 7.49023 20.7109C7.24003 20.8465 6.91911 20.9887 6.55176 20.9668C6.07016 20.938 5.62505 20.6992 5.33398 20.3145C5.11221 20.0211 5.05235 19.6758 5.02637 19.3926C4.99971 19.1016 5 18.7326 5 18.3105V5.69141C5 5.26938 4.99971 4.90032 5.02637 4.60938C5.05235 4.32611 5.11221 3.98082 5.33398 3.6875L5.4502 3.5498C5.73692 3.24609 6.13037 3.06032 6.55176 3.03516H6.6875ZM6.62207 4.53809C6.5923 4.54384 6.5662 4.55751 6.54492 4.5791C6.53884 4.6033 6.52798 4.65487 6.51953 4.74707C6.50067 4.95325 6.5 5.23993 6.5 5.69141V18.3105C6.5 18.762 6.50067 19.0487 6.51953 19.2549C6.52787 19.3459 6.5388 19.3973 6.54492 19.4219C6.56623 19.4437 6.59214 19.4571 6.62207 19.4629C6.64568 19.4545 6.69455 19.4364 6.77539 19.3926C6.9574 19.2939 7.19652 19.1353 7.57227 18.8848L17.0371 12.5752C17.3494 12.367 17.5404 12.238 17.6709 12.1328C17.7263 12.0881 17.7541 12.0585 17.7676 12.0439C17.7765 12.015 17.7767 11.986 17.7676 11.957C17.7539 11.9424 17.7256 11.9133 17.6709 11.8691C17.5404 11.7639 17.3494 11.635 17.0371 11.4268L7.57227 5.11719C7.19652 4.86669 6.9574 4.70801 6.77539 4.60938C6.6942 4.56539 6.64557 4.54644 6.62207 4.53809Z" fill="currentColor"/>
</svg>
