<svg width="24" height="24" viewBox="0 0 24 24" fill="none" xmlns="http://www.w3.org/2000/svg">
<path fill-rule="evenodd" clip-rule="evenodd" d="M10.2197 7.5752C10.4603 7.58294 10.6569 7.67406 10.7803 7.73828C10.927 7.81463 11.0966 7.92419 11.2646 8.03223L15.5137 10.7637C15.6582 10.8566 15.8102 10.9535 15.9287 11.0459C16.0326 11.1269 16.1791 11.2543 16.2822 11.4463L16.3232 11.5332L16.3643 11.6465C16.4471 11.9151 16.4335 12.2055 16.3232 12.4668C16.2214 12.7078 16.0475 12.8614 15.9287 12.9541C15.8103 13.0465 15.6581 13.1435 15.5137 13.2363L11.2646 15.9678C11.0965 16.0758 10.927 16.1863 10.7803 16.2627C10.6393 16.3361 10.4025 16.4434 10.1143 16.4229C9.76719 16.398 9.44782 16.2239 9.23926 15.9453C9.06596 15.7138 9.02916 15.4561 9.01465 15.2979C8.99956 15.1331 9 14.9312 9 14.7314V9.26855C9 9.0688 8.99955 8.86681 9.01465 8.70215C9.02916 8.54398 9.06621 8.28699 9.23926 8.05566L9.32227 7.95605C9.52786 7.73553 9.81039 7.59891 10.1143 7.57715L10.2197 7.5752ZM10.5 14.6758L14.6621 12L10.5 9.32324V14.6758Z" fill="currentColor"/>
<path fill-rule="evenodd" clip-rule="evenodd" d="M12 2.25C17.3848 2.25 21.75 6.61522 21.75 12C21.75 17.3848 17.3848 21.75 12 21.75C6.61522 21.75 2.25 17.3848 2.25 12C2.25 6.61522 6.61522 2.25 12 2.25ZM12 3.75C7.44365 3.75 3.75 7.44365 3.75 12C3.75 16.5563 7.44365 20.25 12 20.25C16.5563 20.25 20.25 16.5563 20.25 12C20.25 7.44365 16.5563 3.75 12 3.75Z" fill="currentColor"/>
</svg>
