<svg width="24" height="24" viewBox="0 0 24 24" fill="none" xmlns="http://www.w3.org/2000/svg">
<path fill-rule="evenodd" clip-rule="evenodd" d="M11.9 2C6.43238 2 2 6.43238 2 11.9C2 17.3676 6.43238 21.8 11.9 21.8C17.3676 21.8 21.8 17.3676 21.8 11.9C21.8 6.43238 17.3676 2 11.9 2ZM9.73977 8.40447C9.65 8.52438 9.65 8.73916 9.65 9.16871V14.6311C9.65 15.0607 9.65 15.2755 9.73977 15.3954C9.818 15.4998 9.93774 15.5652 10.0679 15.5745C10.2173 15.5852 10.398 15.4691 10.7593 15.2368L15.0079 12.5056C15.3214 12.304 15.4782 12.2032 15.5323 12.0751C15.5797 11.9631 15.5797 11.8367 15.5323 11.7248C15.4782 11.5966 15.3214 11.4958 15.0079 11.2943L10.7593 8.56307C10.398 8.33078 10.2173 8.21464 10.0679 8.22531C9.93774 8.23461 9.818 8.29998 9.73977 8.40447Z" fill="currentColor"/>
</svg>
