<svg width="12" height="12" viewBox="0 0 12 12" fill="none" xmlns="http://www.w3.org/2000/svg">
<path d="M10.2656 1.3125C10.4805 1.3125 10.6562 1.48828 10.6562 1.70312V10.2969C10.6562 10.5117 10.4805 10.6875 10.2656 10.6875H1.67188C1.45703 10.6875 1.28125 10.5117 1.28125 10.2969V1.70312C1.28125 1.48828 1.45703 1.3125 1.67188 1.3125H10.2656ZM10.2656 0.53125H1.67188C1.0249 0.53125 0.5 1.05615 0.5 1.70312V10.2969C0.5 10.9438 1.0249 11.4688 1.67188 11.4688H10.2656C10.9126 11.4688 11.4375 10.9438 11.4375 10.2969V1.70312C11.4375 1.05615 10.9126 0.53125 10.2656 0.53125ZM8.80078 5.56055H6.4082V3.16797C6.4082 3.00684 6.27637 2.875 6.11523 2.875H5.82227C5.66113 2.875 5.5293 3.00684 5.5293 3.16797V5.56055H3.13672C2.97559 5.56055 2.84375 5.69238 2.84375 5.85352V6.14648C2.84375 6.30762 2.97559 6.43945 3.13672 6.43945H5.5293V8.83203C5.5293 8.99316 5.66113 9.125 5.82227 9.125H6.11523C6.27637 9.125 6.4082 8.99316 6.4082 8.83203V6.43945H8.80078C8.96191 6.43945 9.09375 6.30762 9.09375 6.14648V5.85352C9.09375 5.69238 8.96191 5.56055 8.80078 5.56055Z" fill="currentColor"/>
</svg>
