<svg width="24" height="24" viewBox="0 0 24 24" fill="none" xmlns="http://www.w3.org/2000/svg">
<path d="M12 2.25C17.3848 2.25 21.75 6.61522 21.75 12C21.75 17.3848 17.3848 21.75 12 21.75C6.61522 21.75 2.25 17.3848 2.25 12C2.25 6.61522 6.61522 2.25 12 2.25ZM12 3.75C7.44365 3.75 3.75 7.44365 3.75 12C3.75 16.5563 7.44365 20.25 12 20.25C16.5563 20.25 20.25 16.5563 20.25 12C20.25 7.44365 16.5563 3.75 12 3.75ZM12 7.65039C12.4142 7.65039 12.75 7.98618 12.75 8.40039V11.25H15.6006C16.0147 11.2501 16.3506 11.5859 16.3506 12C16.3506 12.4141 16.0147 12.7499 15.6006 12.75H12.75V15.6006C12.7499 16.0147 12.4141 16.3506 12 16.3506C11.5859 16.3506 11.2501 16.0147 11.25 15.6006V12.75H8.40039C7.98618 12.75 7.65039 12.4142 7.65039 12C7.65039 11.5858 7.98618 11.25 8.40039 11.25H11.25V8.40039C11.25 7.98618 11.5858 7.65039 12 7.65039Z" fill="currentColor"/>
</svg>
