<svg width="24" height="24" viewBox="0 0 24 24" fill="none" xmlns="http://www.w3.org/2000/svg">
<path d="M19.1326 7.18051C19.4947 6.97945 19.952 7.10948 20.1531 7.47152C20.3539 7.8335 20.223 8.28993 19.8611 8.49105L12.7498 12.4422V20.3797C12.7497 20.7938 12.4139 21.1296 11.9998 21.1297C11.5857 21.1297 11.2499 20.7939 11.2498 20.3797V12.4422L4.13751 8.49105C3.77557 8.28986 3.64542 7.83354 3.84649 7.47152C4.0477 7.10956 4.50399 6.97938 4.86602 7.18051L11.9988 11.1424L19.1326 7.18051Z" fill="currentColor" opacity="0.3"/>
<path d="M17.6262 13.6521C17.6327 13.6523 17.6392 13.6527 17.6457 13.6531C17.6843 13.6554 17.7221 13.6607 17.759 13.6687C17.7842 13.6742 17.8085 13.683 17.8332 13.6911C17.8997 13.713 17.9629 13.7415 18.0197 13.78C18.0585 13.8063 18.0957 13.8364 18.1301 13.8708L21.1301 16.8708C21.4229 17.1637 21.4228 17.6385 21.1301 17.9314C20.8372 18.2243 20.3624 18.2243 20.0695 17.9314L18.3498 16.2117V20.4011C18.3498 20.8153 18.014 21.1511 17.5998 21.1511C17.1856 21.1511 16.8498 20.8153 16.8498 20.4011V16.2117L15.1301 17.9314C14.8372 18.2243 14.3624 18.2243 14.0695 17.9314C13.7766 17.6385 13.7766 17.1637 14.0695 16.8708L17.0695 13.8708L17.1262 13.8191C17.1364 13.8108 17.1479 13.8043 17.1584 13.7966C17.1739 13.7852 17.1898 13.7746 17.2062 13.7644C17.2301 13.7496 17.2544 13.7362 17.2795 13.7243C17.2977 13.7157 17.3162 13.7081 17.3351 13.7009C17.3611 13.6911 17.3875 13.6833 17.4142 13.6765C17.4403 13.6699 17.4663 13.6628 17.4933 13.6589C17.4973 13.6584 17.5011 13.6575 17.5051 13.657C17.5361 13.6531 17.5677 13.6511 17.5998 13.6511C17.6086 13.6511 17.6174 13.6518 17.6262 13.6521Z" fill="currentColor"/>
<path d="M19.3995 12.0007V9.38353C19.3995 8.64669 19.3901 8.44864 19.336 8.28489C19.2802 8.11618 19.1889 7.9615 19.0685 7.83079C18.9516 7.70397 18.7829 7.5998 18.1388 7.24193L13.2394 4.51927C12.6297 4.18057 12.4619 4.09731 12.3009 4.06419C12.135 4.03011 11.9639 4.03013 11.798 4.06419C11.6369 4.09731 11.469 4.18064 10.8595 4.51927L5.95909 7.24193C5.31518 7.59966 5.14723 7.70399 5.03038 7.83079C4.90994 7.9615 4.81864 8.11616 4.7628 8.28489C4.7087 8.44864 4.69933 8.64669 4.69933 9.38353V14.6179C4.69933 15.3547 4.7087 15.5528 4.7628 15.7165C4.81864 15.8853 4.90994 16.0399 5.03038 16.1706C5.14723 16.2974 5.31518 16.4018 5.95909 16.7595L11.5138 19.8454C11.8469 20.0303 12.252 20.0304 12.5851 19.8454C12.9471 19.6443 13.4034 19.7745 13.6046 20.1365C13.8057 20.4985 13.6755 20.9548 13.3136 21.156C12.5274 21.5928 11.5715 21.5928 10.7853 21.156L5.23058 18.071C4.67676 17.7634 4.24616 17.5337 3.92686 17.1872C3.66167 16.8994 3.46079 16.5579 3.338 16.1863C3.1903 15.7389 3.19933 15.2514 3.19933 14.6179V9.38353C3.19933 8.75008 3.1903 8.26249 3.338 7.81517C3.46079 7.44354 3.66167 7.10204 3.92686 6.81419C4.24616 6.46771 4.67676 6.23808 5.23058 5.9304L10.131 3.20872C10.6556 2.91724 11.0557 2.68589 11.4952 2.59544C11.8607 2.52027 12.2381 2.52027 12.6036 2.59544C13.0431 2.68591 13.4433 2.91728 13.9679 3.20872L18.8673 5.9304C19.4212 6.23814 19.8526 6.46766 20.172 6.81419C20.4371 7.10202 20.6381 7.44358 20.7608 7.81517C20.9085 8.26247 20.8995 8.75011 20.8995 9.38353V12.0007C20.8995 12.4149 20.5636 12.7506 20.1495 12.7507C19.7353 12.7507 19.3995 12.4149 19.3995 12.0007Z" fill="currentColor"/>
</svg>
