<svg width="24" height="24" viewBox="0 0 24 24" fill="none" xmlns="http://www.w3.org/2000/svg">
<path d="M19.9492 7C20.3633 7.00021 20.6992 7.33592 20.6992 7.75V13.1504C20.6992 13.1785 20.6964 13.2061 20.6934 13.2334C20.6915 13.2498 20.6884 13.2659 20.6855 13.2822C20.6828 13.2975 20.6784 13.3122 20.6748 13.3271C20.6669 13.3596 20.6578 13.3914 20.6455 13.4229C20.6387 13.4402 20.6311 13.4569 20.623 13.4736C20.5928 13.5365 20.5568 13.5979 20.5078 13.6523C20.4675 13.6971 20.4216 13.7339 20.374 13.7666C20.3625 13.7746 20.3499 13.7808 20.3379 13.7881C20.3097 13.8052 20.2818 13.8218 20.252 13.835C20.2327 13.8435 20.2125 13.8495 20.1924 13.8564C20.1665 13.8653 20.1409 13.8739 20.1143 13.8799C20.077 13.8883 20.0391 13.8948 20 13.8975C19.9925 13.898 19.985 13.8982 19.9775 13.8984C19.9681 13.8988 19.9587 13.9004 19.9492 13.9004H14.5488C14.1347 13.9004 13.799 13.5644 13.7988 13.1504C13.7988 12.7362 14.1346 12.4004 14.5488 12.4004H17.9951L16.748 11.2783C15.4858 10.1468 13.8739 9.48757 12.1875 9.4082L11.8496 9.40039C9.90041 9.40049 8.03064 10.1744 6.65234 11.5527C5.27404 12.931 4.5001 14.8008 4.5 16.75C4.5 17.1642 4.16421 17.5 3.75 17.5C3.33579 17.5 3 17.1642 3 16.75C3.0001 14.403 3.93219 12.1518 5.5918 10.4922C7.2514 8.83258 9.50258 7.90049 11.8496 7.90039L12.2578 7.91016C14.1539 7.99935 15.9715 8.69632 17.4414 9.89746L17.751 10.1621L17.752 10.1631L19.1992 11.4648V7.75C19.1992 7.33579 19.535 7 19.9492 7Z" fill="currentColor"/>
</svg>
