<svg width="24" height="24" viewBox="0 0 24 24" fill="none" xmlns="http://www.w3.org/2000/svg">
<path d="M4 3.25C4.41421 3.25 4.75 3.58579 4.75 4V16.6777C4.75 17.2498 4.75028 17.6339 4.77441 17.9297C4.79787 18.2168 4.84058 18.3548 4.88672 18.4453C5.00657 18.6804 5.19754 18.8714 5.43262 18.9912C5.52315 19.0373 5.66033 19.0791 5.94727 19.1025C6.24314 19.1267 6.62777 19.1279 7.2002 19.1279H19.8779C20.292 19.1281 20.6279 19.4638 20.6279 19.8779C20.6278 20.2919 20.2919 20.6278 19.8779 20.6279H7.2002C6.65252 20.6279 6.19632 20.628 5.8252 20.5977C5.44553 20.5666 5.08904 20.4998 4.75195 20.3281C4.23451 20.0645 3.81346 19.6434 3.5498 19.126C3.37805 18.7889 3.31035 18.4324 3.2793 18.0527C3.24898 17.6816 3.25 17.2254 3.25 16.6777V4C3.25 3.58579 3.58579 3.25 4 3.25ZM7.29883 7.70898C8.63939 5.51098 11.9238 5.82196 12.8281 8.23242L13.96 11.25H14.3408C14.755 11.25 15.0908 11.5858 15.0908 12C15.0908 12.3545 14.8443 12.6493 14.5137 12.7275L15.1348 14.3838C15.6607 15.7862 17.6093 15.8779 18.2646 14.5312C18.4459 14.1591 18.8953 14.0037 19.2676 14.1846C19.6399 14.3657 19.7952 14.8151 19.6143 15.1875C18.3827 17.7192 14.719 17.5463 13.7305 14.9102L12.9199 12.75H12.541C12.1268 12.75 11.791 12.4142 11.791 12C11.791 11.6465 12.036 11.3517 12.3652 11.2725L11.4229 8.75879C10.9576 7.51948 9.26967 7.35934 8.58008 8.48926C8.36444 8.84291 7.90248 8.9549 7.54883 8.73926C7.1957 8.52358 7.08363 8.06242 7.29883 7.70898ZM8.94043 11.25C9.35464 11.25 9.69043 11.5858 9.69043 12C9.69043 12.4142 9.35464 12.75 8.94043 12.75H7.14062C6.72641 12.75 6.39062 12.4142 6.39062 12C6.39062 11.5858 6.72641 11.25 7.14062 11.25H8.94043ZM19.7412 11.25C20.1554 11.25 20.4912 11.5858 20.4912 12C20.4912 12.4142 20.1554 12.75 19.7412 12.75H17.9414C17.5272 12.75 17.1914 12.4142 17.1914 12C17.1914 11.5858 17.5272 11.25 17.9414 11.25H19.7412Z" fill="currentColor"/>
</svg>
