<svg width="24" height="24" viewBox="0 0 24 24" fill="none" xmlns="http://www.w3.org/2000/svg">
<path d="M3.93555 13.0674C4.33939 12.9758 4.74122 13.2291 4.83301 13.6328C5.12918 14.9382 5.78507 16.1786 6.80273 17.1963C9.67304 20.0666 14.3269 20.0665 17.1973 17.1963C18.4232 15.9704 19.1714 15.1213 19.626 14.5508H15.5996C15.1854 14.5508 14.8496 14.215 14.8496 13.8008C14.8496 13.3866 15.1854 13.0508 15.5996 13.0508H20.959C20.9681 13.0503 20.9772 13.051 20.9863 13.0508H21C21.027 13.0508 21.0538 13.0519 21.0801 13.0547C21.0888 13.0556 21.0977 13.0554 21.1064 13.0567C21.1665 13.0653 21.2233 13.083 21.2773 13.1045C21.2928 13.1107 21.3073 13.1188 21.3223 13.126C21.3527 13.1406 21.3823 13.1556 21.4102 13.1739C21.4205 13.1806 21.4295 13.1891 21.4395 13.1963C21.4679 13.2171 21.4954 13.2383 21.5205 13.2627C21.5308 13.2727 21.5401 13.2835 21.5498 13.294C21.5727 13.319 21.5949 13.3443 21.6143 13.3721C21.6243 13.3865 21.6326 13.4019 21.6416 13.417C21.6557 13.4406 21.6692 13.4642 21.6807 13.4893C21.6902 13.5101 21.6974 13.5319 21.7051 13.5537C21.7137 13.5785 21.7225 13.6032 21.7285 13.6289C21.737 13.6652 21.743 13.7022 21.7461 13.7403C21.7472 13.7539 21.7487 13.7675 21.749 13.7813C21.7492 13.7878 21.75 13.7943 21.75 13.8008V19.2012C21.7498 19.6151 21.4139 19.951 21 19.9512C20.5859 19.9512 20.2502 19.6152 20.25 19.2012V16.1416C19.7677 16.6966 19.1231 17.3916 18.2578 18.2569C14.8017 21.7128 9.19828 21.7129 5.74219 18.2569C4.51861 17.0332 3.72707 15.538 3.37012 13.9649C3.27865 13.5611 3.5318 13.1591 3.93555 13.0674Z" fill="currentColor"/>
<path d="M5.74219 5.74221C9.19829 2.28651 14.8018 2.28639 18.2578 5.74221C19.4814 6.96582 20.2729 8.46105 20.6299 10.0342C20.7215 10.4381 20.4683 10.8399 20.0645 10.9317C19.6605 11.0233 19.2586 10.7702 19.167 10.3662C18.8708 9.06092 18.215 7.82047 17.1973 6.80276C14.327 3.93272 9.67305 3.93285 6.80273 6.80276C5.57504 8.03045 4.8265 8.88063 4.37207 9.45119H8.40039C8.81441 9.4514 9.15037 9.78712 9.15039 10.2012C9.15018 10.6151 8.81429 10.951 8.40039 10.9512H3C2.94172 10.9512 2.88551 10.9423 2.83105 10.9297C2.79746 10.922 2.7649 10.9124 2.7334 10.9004C2.70098 10.888 2.67071 10.8721 2.64062 10.8555C2.62792 10.8485 2.61476 10.8426 2.60254 10.835C2.57698 10.8189 2.55364 10.8002 2.53027 10.7813C2.51511 10.769 2.49947 10.7575 2.48535 10.7442C2.46421 10.7241 2.44545 10.7021 2.42676 10.6797C2.41515 10.6658 2.40316 10.6524 2.39258 10.6377C2.37445 10.6125 2.3587 10.586 2.34375 10.5586C2.33578 10.544 2.32732 10.5298 2.32031 10.5147C2.30879 10.4897 2.29979 10.4638 2.29102 10.4375C2.28346 10.415 2.2759 10.3925 2.27051 10.3692C2.26217 10.3329 2.25481 10.2959 2.25195 10.2578C2.251 10.2452 2.25129 10.2325 2.25098 10.2197C2.25082 10.2136 2.25 10.2074 2.25 10.2012V4.8008C2.25002 4.3866 2.5858 4.0508 3 4.0508C3.4142 4.0508 3.74998 4.3866 3.75 4.8008V7.85647C4.23228 7.30165 4.87733 6.60707 5.74219 5.74221Z" fill="currentColor"/>
</svg>
