<svg width="24" height="24" viewBox="0 0 24 24" fill="none" xmlns="http://www.w3.org/2000/svg">
<path d="M20.25 10.7002C20.25 10.1281 20.2497 9.74403 20.2256 9.44824C20.2021 9.16112 20.1594 9.02318 20.1133 8.93262C19.9934 8.69761 19.8024 8.50649 19.5674 8.38672C19.4769 8.3406 19.3397 8.29885 19.0527 8.27539C18.7569 8.25122 18.3722 8.25 17.7998 8.25H17.25V15.75H17.7998C18.3722 15.75 18.7569 15.7498 19.0527 15.7256C19.3396 15.7021 19.4768 15.6604 19.5674 15.6143C19.8024 15.4945 19.9934 15.3033 20.1133 15.0684C20.1594 14.9778 20.2021 14.8399 20.2256 14.5527C20.2497 14.257 20.25 13.8729 20.25 13.3008V10.7002ZM2.25 13.3008V10.7002C2.25 10.1528 2.24902 9.69717 2.2793 9.32617C2.31034 8.94629 2.37796 8.58922 2.54981 8.25195C2.81346 7.73451 3.23451 7.31346 3.75196 7.0498C4.08904 6.87816 4.44554 6.8113 4.8252 6.78027C5.19633 6.74995 5.65252 6.75 6.2002 6.75H12.9004C13.3143 6.75021 13.6502 7.0861 13.6504 7.5C13.6504 7.91408 13.3144 8.24979 12.9004 8.25H6.2002C5.62777 8.25 5.24315 8.25122 4.94727 8.27539C4.66035 8.29885 4.52316 8.3406 4.43262 8.38672C4.19756 8.50649 4.00658 8.69761 3.88672 8.93262C3.84058 9.02318 3.79788 9.16112 3.77442 9.44824C3.75028 9.74403 3.75 10.1281 3.75 10.7002V13.3008C3.75 13.8729 3.75027 14.257 3.77442 14.5527C3.79788 14.8399 3.84058 14.9778 3.88672 15.0684C4.00658 15.3033 4.19761 15.4945 4.43262 15.6143C4.52316 15.6604 4.66043 15.7021 4.94727 15.7256C5.24315 15.7498 5.62777 15.75 6.2002 15.75H12.9004C13.3143 15.7502 13.6502 16.0861 13.6504 16.5C13.6504 16.9141 13.3144 17.2498 12.9004 17.25H6.2002C5.65252 17.25 5.19633 17.251 4.8252 17.2207C4.44542 17.1897 4.08914 17.122 3.75196 16.9502C3.23456 16.6866 2.81347 16.2664 2.54981 15.749C2.37796 15.4118 2.31034 15.0547 2.2793 14.6748C2.24901 14.3038 2.25 13.8481 2.25 13.3008ZM21.75 13.3008C21.75 13.8481 21.751 14.3038 21.7207 14.6748C21.6897 15.0547 21.622 15.4118 21.4502 15.749C21.1865 16.2664 20.7654 16.6866 20.2481 16.9502C19.9109 17.122 19.5546 17.1897 19.1748 17.2207C18.8037 17.251 18.3475 17.25 17.7998 17.25H17.25V19.3506H18.75C19.1642 19.3506 19.5 19.6864 19.5 20.1006C19.4999 20.5147 19.1642 20.8506 18.75 20.8506H14.25C13.8359 20.8506 13.5001 20.5147 13.5 20.1006C13.5 19.6864 13.8358 19.3506 14.25 19.3506H15.75V4.65039H14.25C13.8358 4.65039 13.5 4.3146 13.5 3.90039C13.5 3.48618 13.8358 3.15039 14.25 3.15039H18.75C19.1642 3.15039 19.5 3.48618 19.5 3.90039C19.5 4.3146 19.1642 4.65039 18.75 4.65039H17.25V6.75H17.7998C18.3475 6.75 18.8037 6.74995 19.1748 6.78027C19.5545 6.8113 19.911 6.87816 20.2481 7.0498C20.7655 7.31346 21.1865 7.73451 21.4502 8.25195C21.622 8.58922 21.6897 8.94629 21.7207 9.32617C21.751 9.69717 21.75 10.1528 21.75 10.7002V13.3008Z" fill="currentColor"/>
</svg>
