<svg width="24" height="24" viewBox="0 0 24 24" fill="none" xmlns="http://www.w3.org/2000/svg">
<path fill-rule="evenodd" clip-rule="evenodd" d="M9.18164 16.2051C9.51301 16.2051 9.78125 16.4733 9.78125 16.8047V18.5049C9.78176 18.525 9.78418 18.5452 9.78418 18.5654C9.78418 18.5854 9.78174 18.6052 9.78125 18.625V20.3262C9.78125 20.6575 9.51301 20.9268 9.18164 20.9268C8.94276 20.9268 8.73803 20.7862 8.6416 20.584C8.28538 20.7996 7.8695 20.9268 7.42285 20.9268C6.11904 20.9267 5.0625 19.8692 5.0625 18.5654C5.06254 17.2616 6.11907 16.2051 7.42285 16.2051C7.86937 16.2051 8.28545 16.3315 8.6416 16.5469C8.73806 16.345 8.94282 16.2051 9.18164 16.2051ZM7.42285 17.4043C6.78181 17.4043 6.26176 17.9244 6.26172 18.5654C6.26172 19.2065 6.78178 19.7265 7.42285 19.7266C8.05087 19.7266 8.5614 19.2275 8.58203 18.6045V18.5254C8.56085 17.9029 8.05051 17.4043 7.42285 17.4043Z" fill="currentColor"/>
<path d="M12.2383 16.3848C12.6692 16.2061 13.144 16.1592 13.6016 16.25C14.059 16.3408 14.4795 16.565 14.8096 16.8945C15.0439 17.1286 15.0444 17.5087 14.8105 17.7432C14.5764 17.9775 14.1964 17.9781 13.9619 17.7441C13.7997 17.5822 13.593 17.4714 13.3682 17.4268C13.1433 17.3821 12.91 17.4054 12.6982 17.4932C12.4865 17.5809 12.3051 17.7294 12.1777 17.9199C12.0504 18.1105 11.9825 18.3353 11.9824 18.5645C11.9825 18.7934 12.0506 19.0175 12.1777 19.208C12.3051 19.3986 12.4865 19.5479 12.6982 19.6357C12.91 19.7235 13.1433 19.7458 13.3682 19.7012C13.593 19.6565 13.7998 19.5467 13.9619 19.3848C14.1963 19.1507 14.5764 19.1505 14.8105 19.3848C15.0447 19.6192 15.0439 19.9992 14.8096 20.2334C14.4795 20.5631 14.0592 20.7881 13.6016 20.8789C13.144 20.9697 12.6692 20.9228 12.2383 20.7441C11.8076 20.5655 11.4397 20.2627 11.1807 19.875C10.9216 19.4871 10.7833 19.0309 10.7832 18.5645C10.7832 18.098 10.9216 17.6418 11.1807 17.2539C11.4397 16.8662 11.8076 16.5634 12.2383 16.3848Z" fill="currentColor"/>
<path fill-rule="evenodd" clip-rule="evenodd" d="M16.5996 14.0078C17.4833 14.0078 18.1992 14.7238 18.1992 15.6074V21.6074C18.1992 22.4911 17.4833 23.207 16.5996 23.207H3.59961C2.71595 23.207 2 22.4911 2 21.6074V15.6074C2 14.7238 2.71595 14.0078 3.59961 14.0078H16.5996ZM3.59961 15.207C3.3787 15.207 3.19922 15.3865 3.19922 15.6074V21.6074C3.19922 21.8283 3.3787 22.0078 3.59961 22.0078H16.5996C16.8205 22.0078 17 21.8283 17 21.6074V15.6074C17 15.3865 16.8205 15.207 16.5996 15.207H3.59961Z" fill="currentColor"/>
<path d="M19 11.5C19.9941 11.5 20.7998 12.3057 20.7998 13.2998V17.6494C20.7998 17.9808 20.5316 18.25 20.2002 18.25C19.8688 18.25 19.6006 17.9808 19.6006 17.6494V13.2998C19.6006 12.9684 19.3314 12.6992 19 12.6992H12.0996C11.7682 12.6992 11.5 12.431 11.5 12.0996C11.5 11.7682 11.7682 11.5 12.0996 11.5H19Z" fill="currentColor"/>
<path d="M8.89844 4.9082C9.22981 4.9082 9.49902 5.17644 9.49902 5.50781C9.49902 5.83918 9.22981 6.10742 8.89844 6.10742H7.09863C6.78044 6.10747 6.475 6.23399 6.25 6.45898C6.025 6.68398 5.89849 6.98943 5.89844 7.30762V10.0596L7.5752 8.38477C7.80951 8.15045 8.18951 8.15045 8.42383 8.38477C8.65784 8.61903 8.65787 8.99817 8.42383 9.23242L5.72363 11.9326C5.48933 12.1669 5.10932 12.1669 4.875 11.9326L2.17578 9.23242C1.94147 8.99811 1.94147 8.61908 2.17578 8.38477C2.4101 8.15045 2.78912 8.15045 3.02344 8.38477L4.69922 10.0596V7.30762C4.69927 6.67117 4.95133 6.06039 5.40137 5.61035C5.85141 5.16031 6.46218 4.90825 7.09863 4.9082H8.89844Z" fill="currentColor"/>
<path fill-rule="evenodd" clip-rule="evenodd" d="M15.5117 3.30469C15.8431 3.30469 16.1113 3.57293 16.1113 3.9043V5.84082C16.1114 5.84733 16.1123 5.85383 16.1123 5.86035C16.1123 5.86654 16.1114 5.87272 16.1113 5.87891V7.81738C16.1112 8.14868 15.843 8.41699 15.5117 8.41699C15.2462 8.41699 15.0232 8.24392 14.9443 8.00488C14.5442 8.26451 14.0681 8.41699 13.5557 8.41699C12.144 8.41677 11 7.27211 11 5.86035C11.0002 4.44878 12.1441 3.30491 13.5557 3.30469C14.0679 3.30469 14.5443 3.45644 14.9443 3.71582C15.0235 3.47722 15.2464 3.30469 15.5117 3.30469ZM13.5557 4.50391C12.8068 4.50413 12.1994 5.11152 12.1992 5.86035C12.1992 6.60937 12.8067 7.21657 13.5557 7.2168C14.3048 7.2168 14.9121 6.60951 14.9121 5.86035C14.9119 5.11139 14.3047 4.50391 13.5557 4.50391Z" fill="currentColor"/>
<path fill-rule="evenodd" clip-rule="evenodd" d="M17.6875 2C18.0189 2 18.2871 2.26824 18.2871 2.59961V3.69727C18.6805 3.45006 19.1446 3.30477 19.6436 3.30469C21.0553 3.30469 22.2 4.44864 22.2002 5.86035C22.2002 7.27225 21.0555 8.41699 19.6436 8.41699C19.1306 8.41691 18.6541 8.26408 18.2539 8.00391C18.175 8.24311 17.953 8.41699 17.6875 8.41699C17.3561 8.41699 17.0879 8.14778 17.0879 7.81641V2.59961C17.0879 2.26824 17.3561 2 17.6875 2ZM19.6436 4.50391C18.8947 4.50413 18.2873 5.11152 18.2871 5.86035C18.2871 6.60937 18.8946 7.21657 19.6436 7.2168C20.3927 7.2168 21 6.60951 21 5.86035C20.9998 5.11139 20.3926 4.50391 19.6436 4.50391Z" fill="currentColor"/>
</svg>
