<svg width="24" height="24" viewBox="0 0 24 24" fill="none" xmlns="http://www.w3.org/2000/svg">
<path d="M11.6728 15.4336C12.1038 15.255 12.5784 15.208 13.0361 15.2988C13.4935 15.3897 13.9141 15.6138 14.2441 15.9434C14.4784 16.1774 14.4787 16.5575 14.2451 16.792C14.011 17.0264 13.6309 17.0269 13.3964 16.793C13.2342 16.6309 13.0267 16.5202 12.8017 16.4756C12.5769 16.4311 12.3435 16.4543 12.1318 16.542C11.9201 16.6298 11.7386 16.7782 11.6113 16.9688C11.484 17.1594 11.4161 17.3841 11.416 17.6133C11.416 17.8425 11.484 18.0672 11.6113 18.2578C11.7386 18.4485 11.92 18.5977 12.1318 18.6855C12.3436 18.7733 12.5768 18.7955 12.8017 18.751C13.0266 18.7063 13.2342 18.5966 13.3964 18.4346C13.6309 18.2005 14.0109 18.2003 14.2451 18.4346C14.4791 18.669 14.4784 19.0491 14.2441 19.2832C13.914 19.6129 13.4937 19.8378 13.0361 19.9287C12.5785 20.0195 12.1038 19.9726 11.6728 19.7939C11.2419 19.6153 10.8734 19.3126 10.6142 18.9248C10.3551 18.5368 10.2167 18.0799 10.2167 17.6133C10.2168 17.1468 10.3551 16.6907 10.6142 16.3027C10.8734 15.9148 11.2418 15.6123 11.6728 15.4336Z" fill="currentColor"/>
<path fill-rule="evenodd" clip-rule="evenodd" d="M18.6503 13.0078C19.5616 13.0078 20.3007 13.747 20.3007 14.6582V20.6582C20.3007 21.5695 19.5616 22.3086 18.6503 22.3086H5.65034C4.73907 22.3086 3.99995 21.5695 3.99995 20.6582V14.6582C3.99995 13.7469 4.73907 13.0078 5.65034 13.0078H18.6503ZM5.65034 14.3086C5.45704 14.3086 5.30073 14.4649 5.30073 14.6582V20.6582C5.30073 20.8515 5.45704 21.0078 5.65034 21.0078H18.6503C18.8436 21.0078 19 20.8515 19 20.6582V14.6582C19 14.4649 18.8436 14.3086 18.6503 14.3086H5.65034Z" fill="currentColor"/>
<path d="M9.94917 3.9082C10.3081 3.90823 10.5996 4.19963 10.5996 4.55859C10.5996 4.91756 10.3081 5.20896 9.94917 5.20898H8.14936C7.84445 5.20904 7.55248 5.33029 7.33686 5.5459C7.12124 5.76152 7 6.05347 6.99995 6.3584V8.98926L8.59077 7.39941C8.84453 7.14589 9.25593 7.14594 9.50972 7.39941C9.76348 7.65325 9.76351 8.06552 9.50972 8.31934L6.80952 11.0186C6.55571 11.2724 6.14442 11.2723 5.89058 11.0186L3.19038 8.31934C2.93654 8.0655 2.93654 7.65325 3.19038 7.39941C3.44422 7.1456 3.85647 7.14558 4.1103 7.39941L5.69917 8.98828V6.3584C5.69922 5.70869 5.95753 5.08539 6.41694 4.62598C6.87636 4.16657 7.49967 3.90825 8.14936 3.9082H9.94917Z" fill="currentColor"/>
<path fill-rule="evenodd" clip-rule="evenodd" d="M12.6503 1C13.0093 1.00003 13.3007 1.29142 13.3007 1.65039V2.65723C13.6849 2.43416 14.1303 2.30476 14.6064 2.30469C16.0457 2.30471 17.2126 3.47183 17.2128 4.91113C17.2128 6.35063 16.0459 7.51755 14.6064 7.51758C14.1064 7.5175 13.6409 7.37402 13.2441 7.12988C13.143 7.35789 12.9157 7.51756 12.6503 7.51758C12.2914 7.51758 12 7.22617 12 6.86719V1.65039C12 1.29141 12.2914 1 12.6503 1ZM14.6064 3.60547C13.8852 3.60569 13.301 4.18992 13.3007 4.91113C13.3007 5.63254 13.885 6.21755 14.6064 6.21777C15.3279 6.21775 15.913 5.63266 15.913 4.91113C15.9128 4.1898 15.3278 3.60549 14.6064 3.60547Z" fill="currentColor"/>
</svg>
