<svg width="24" height="24" viewBox="0 0 24 24" fill="none" xmlns="http://www.w3.org/2000/svg">
<path d="M11.4492 3.30078C13.894 3.30078 16.1091 4.29352 17.71 5.89551C18.378 6.56406 19.1026 7.41982 19.7012 8.16113V4.95117C19.7012 4.53696 20.037 4.20117 20.4512 4.20117C20.8652 4.20138 21.2012 4.53709 21.2012 4.95117V10.3516C21.2011 10.4857 21.1624 10.6098 21.1006 10.7188C21.0964 10.7262 21.0924 10.7338 21.0879 10.7412C21.0664 10.7762 21.0424 10.8089 21.0156 10.8398C21.01 10.8463 21.0049 10.8531 20.999 10.8594C20.9861 10.8733 20.9729 10.8865 20.959 10.8994C20.9382 10.9187 20.9169 10.9379 20.8936 10.9551L20.8887 10.957C20.8725 10.9688 20.856 10.9798 20.8389 10.9902C20.8152 11.0047 20.7912 11.0178 20.7666 11.0293C20.7242 11.0491 20.68 11.0645 20.6338 11.0762C20.6292 11.0773 20.6247 11.079 20.6201 11.0801C20.5657 11.0927 20.5094 11.1015 20.4512 11.1016H15.0508C14.6367 11.1016 14.301 10.7656 14.3008 10.3516C14.3008 9.93735 14.6366 9.60156 15.0508 9.60156H18.9297C18.8797 9.53806 18.8301 9.47159 18.7773 9.40527C18.1472 8.61259 17.3504 7.65754 16.6484 6.95508C15.3174 5.62325 13.4799 4.80078 11.4492 4.80078C7.39024 4.80099 4.09982 8.09141 4.09961 12.1504C4.09961 16.2096 7.39011 19.5008 11.4492 19.501C14.799 19.501 17.6278 17.2588 18.5127 14.1924C18.6277 13.7947 19.0436 13.5659 19.4414 13.6807C19.8389 13.7957 20.0686 14.2107 19.9541 14.6084C18.8889 18.2997 15.485 21.001 11.4492 21.001C6.56168 21.0008 2.59961 17.038 2.59961 12.1504C2.59982 7.26298 6.56181 3.30099 11.4492 3.30078Z" fill="currentColor"/>
</svg>
