<svg width="24" height="24" viewBox="0 0 24 24" fill="none" xmlns="http://www.w3.org/2000/svg">
<path d="M13.7334 19.7393C14.1414 19.6679 14.5302 19.9416 14.6016 20.3496C14.6727 20.7574 14.4 21.1454 13.9922 21.2168C13.4634 21.3093 12.9194 21.3574 12.3652 21.3574C11.8112 21.3574 11.2679 21.3092 10.7393 21.2168C10.3313 21.1455 10.0587 20.7575 10.1299 20.3496C10.2012 19.9417 10.5892 19.6682 10.9971 19.7393C11.4408 19.8169 11.8982 19.8574 12.3652 19.8574C12.8323 19.8574 13.2896 19.8168 13.7334 19.7393Z" fill="currentColor"/>
<path d="M4.86328 16.3145C5.20226 16.0766 5.67021 16.1582 5.9082 16.4971C6.43635 17.2496 7.09293 17.9057 7.8457 18.4336C8.18475 18.6713 8.26684 19.1394 8.0293 19.4785C7.7915 19.8176 7.32351 19.8999 6.98438 19.6621C6.08917 19.0344 5.30879 18.2543 4.68066 17.3594C4.44272 17.0203 4.52427 16.5524 4.86328 16.3145Z" fill="currentColor"/>
<path d="M18.8232 16.4971C19.0611 16.158 19.5291 16.0757 19.8682 16.3135C20.2072 16.5514 20.2897 17.0193 20.0518 17.3584C19.4249 18.2519 18.6461 19.0309 17.7529 19.6582C17.414 19.8962 16.9461 19.8144 16.708 19.4756C16.4699 19.1366 16.5517 18.6687 16.8906 18.4307C17.6415 17.9033 18.2962 17.2481 18.8232 16.4971Z" fill="currentColor"/>
<path d="M12.0156 7.25C12.4298 7.25 12.7656 7.58579 12.7656 8V12.0977L15.1318 13.6758C15.4764 13.9055 15.5694 14.3712 15.3398 14.7158C15.1101 15.0605 14.6444 15.1536 14.2998 14.9238L11.5996 13.124C11.391 12.9849 11.2656 12.7508 11.2656 12.5V8C11.2656 7.58579 11.6014 7.25 12.0156 7.25Z" fill="currentColor"/>
<path d="M3.73242 11.2246C4.14664 11.2246 4.48242 11.5604 4.48242 11.9746C4.48242 12.4418 4.52297 12.8989 4.60059 13.3428C4.67194 13.7507 4.39915 14.1395 3.99121 14.2109C3.58321 14.2823 3.19443 14.0096 3.12305 13.6016C3.03054 13.0726 2.98242 12.5289 2.98242 11.9746C2.98242 11.5604 3.31821 11.2246 3.73242 11.2246Z" fill="currentColor"/>
<path d="M12.3672 2.5918C17.5491 2.59203 21.7498 6.79273 21.75 11.9746C21.75 12.5283 21.7007 13.0713 21.6084 13.5996C21.5371 14.0076 21.1483 14.2803 20.7402 14.209C20.3325 14.1375 20.0598 13.7496 20.1309 13.3418C20.2083 12.8983 20.249 12.4414 20.249 11.9746C20.249 11.9704 20.249 11.9661 20.249 11.9619C20.242 7.6143 16.7164 4.09203 12.3672 4.0918C9.92256 4.0918 7.73891 5.20558 6.29199 6.9541L7.08691 6.74219C7.487 6.63498 7.89766 6.87238 8.00488 7.27246C8.11203 7.67253 7.87468 8.08323 7.47461 8.19043L4.85449 8.89355C4.45458 9.00067 4.04296 8.76305 3.93555 8.36328L3.2334 5.74219C3.12621 5.34217 3.36372 4.93055 3.76367 4.82324C4.1637 4.71605 4.57532 4.95354 4.68262 5.35352L4.9248 6.25977C6.63921 4.03062 9.33515 2.5918 12.3672 2.5918Z" fill="currentColor"/>
</svg>
