<svg width="24" height="24" viewBox="0 0 24 24" fill="none" xmlns="http://www.w3.org/2000/svg">
<path d="M6.62281 14.8147C7.20744 14.8328 7.76842 15.0391 8.2234 15.3997L8.4109 15.5637L8.42066 15.5725C9.43047 16.5698 9.42035 18.1764 8.54762 19.2092L8.54664 19.2082C8.16741 19.6591 7.64051 19.9969 7.12183 20.2502C6.59415 20.508 6.02231 20.705 5.50562 20.8528C4.98646 21.0013 4.50686 21.1039 4.15797 21.1702C3.98317 21.2034 3.83986 21.2284 3.73902 21.2444C3.68884 21.2523 3.64876 21.2579 3.62086 21.262C3.6069 21.264 3.59548 21.2657 3.58766 21.2668C3.58374 21.2674 3.58021 21.2675 3.57789 21.2678C3.57689 21.268 3.57563 21.2677 3.57496 21.2678L3.57398 21.2688C3.34246 21.2997 3.10933 21.221 2.9441 21.0559C2.77891 20.8907 2.70033 20.6576 2.73121 20.426V20.4211C2.73151 20.4189 2.73265 20.416 2.73316 20.4123C2.73425 20.4045 2.73602 20.3931 2.73805 20.3791C2.7421 20.3512 2.74764 20.3114 2.75562 20.261C2.7716 20.1602 2.79569 20.0168 2.82887 19.842C2.8951 19.4932 2.99874 19.0135 3.14723 18.4944C3.29506 17.9776 3.49195 17.405 3.74976 16.8772C4.00337 16.3581 4.34027 15.8297 4.79176 15.4504C5.30275 15.0202 5.95512 14.794 6.62281 14.8147ZM11.2742 19.175V14.9856L9.01344 12.7248H4.82398C4.60177 12.7247 4.3912 12.6259 4.24879 12.4553C4.10639 12.2846 4.04698 12.0598 4.08668 11.8411V11.8391L4.08766 11.8372C4.08805 11.835 4.08799 11.8318 4.08863 11.8284C4.08992 11.8215 4.09219 11.8118 4.09449 11.8C4.09911 11.7764 4.10523 11.7431 4.11402 11.7014C4.13171 11.6175 4.15834 11.4989 4.1941 11.3547C4.26535 11.0675 4.37537 10.6727 4.53004 10.2463C4.82122 9.44368 5.33797 8.33406 6.20777 7.75219L6.20875 7.75121C6.71559 7.41338 7.31573 7.26982 7.87281 7.21801C8.43653 7.16562 9.01325 7.20187 9.51734 7.26684C10.024 7.33216 10.4785 7.4294 10.8054 7.51C10.8118 7.51159 10.8186 7.51332 10.825 7.51489C11.9089 5.95824 13.3378 4.66894 15.0046 3.75219C16.8496 2.73753 18.9236 2.21179 21.0291 2.22485C21.4414 2.22742 21.7741 2.56256 21.7742 2.97485C21.7742 5.49056 21.0659 9.8804 16.4871 13.1877C16.4876 13.1897 16.4885 13.1916 16.489 13.1936C16.5697 13.5206 16.6678 13.9756 16.7332 14.4827C16.7981 14.9867 16.8334 15.5626 16.781 16.1262C16.7292 16.6834 16.5868 17.2843 16.2488 17.7913L16.2478 17.7922C15.6658 18.6621 14.5553 19.1788 13.7527 19.47C13.3264 19.6246 12.9315 19.7337 12.6443 19.8049C12.5002 19.8407 12.3814 19.8673 12.2976 19.885C12.2558 19.8938 12.2226 19.9009 12.199 19.9055C12.1872 19.9078 12.1775 19.9091 12.1707 19.9104C12.1674 19.911 12.1649 19.912 12.1629 19.9123C12.1618 19.9125 12.1606 19.9122 12.1599 19.9123L12.1589 19.9133C11.9404 19.9529 11.7143 19.8935 11.5437 19.7512C11.373 19.6087 11.2742 19.3974 11.2742 19.175ZM6.57594 16.3137C6.27744 16.3045 5.98594 16.4064 5.75758 16.5989L5.7566 16.5998C5.53333 16.7875 5.30772 17.1049 5.09742 17.5354C4.89121 17.9576 4.72302 18.4401 4.58961 18.9065C4.52168 19.144 4.463 19.3733 4.4148 19.5832C4.62492 19.535 4.85478 19.4784 5.09254 19.4104C5.55897 19.277 6.04138 19.1079 6.46363 18.9016C6.89441 18.6912 7.21249 18.4658 7.40016 18.2424L7.40113 18.2414C7.80612 17.7623 7.77787 17.0466 7.36598 16.6399C7.15113 16.4394 6.86996 16.3228 6.57594 16.3137ZM15.1394 14.0373C14.3759 14.4689 13.5862 14.8526 12.7742 15.1848V18.2131C12.9212 18.1686 13.0791 18.1185 13.241 18.0598C13.9713 17.7949 14.6237 17.441 14.9421 17.0393L15.0007 16.9582C15.1485 16.7363 15.2486 16.4102 15.2879 15.9875C15.3266 15.5708 15.3014 15.1127 15.2449 14.6741C15.2158 14.4481 15.1781 14.2328 15.1394 14.0373ZM20.2468 3.74828C18.6651 3.85145 17.1217 4.29975 15.7273 5.06664C14.1067 5.958 12.7413 7.24951 11.7605 8.81762L11.7556 8.82446C11.1521 9.76716 10.6327 10.7609 10.2039 11.7942L12.2068 13.7971C13.2539 13.3687 14.2616 12.8491 15.2185 12.2444C19.1649 9.59269 20.095 6.10004 20.2468 3.74828ZM8.01246 8.71215C7.5894 8.75147 7.26278 8.85133 7.04078 8.99926C6.60607 9.29059 6.22261 9.97952 5.94019 10.758C5.88146 10.92 5.83044 11.0778 5.7859 11.2248H8.81715C9.15371 10.4132 9.54185 9.62419 9.97926 8.86254C9.77932 8.82267 9.55753 8.78412 9.32496 8.75414C8.88655 8.69766 8.42896 8.67349 8.01246 8.71215Z" fill="currentColor"/>
</svg>
