<svg width="24" height="24" viewBox="0 0 24 24" fill="none" xmlns="http://www.w3.org/2000/svg">
<path d="M16.501 4.05078C16.91 4.05078 17.2547 4.05007 17.5371 4.06934C17.8262 4.08908 18.1051 4.1325 18.377 4.24512C19.0016 4.50397 19.4981 5.00031 19.7568 5.625C19.8695 5.89697 19.9119 6.17569 19.9316 6.46485C19.9509 6.74732 19.9512 7.0919 19.9512 7.50098C19.9511 7.91497 19.6151 8.25077 19.2012 8.25098C18.787 8.25098 18.4513 7.9151 18.4512 7.50098C18.4512 7.07166 18.4505 6.7869 18.4356 6.56739C18.4211 6.35492 18.3954 6.25803 18.3711 6.19922C18.2646 5.942 18.0599 5.73745 17.8027 5.63086C17.744 5.60652 17.6474 5.58093 17.4346 5.56641C17.215 5.55143 16.9305 5.55078 16.501 5.55078H12.75V18.4492H14.7012C15.1152 18.4494 15.4512 18.7851 15.4512 19.1992C15.4512 19.6133 15.1152 19.949 14.7012 19.9492H12.0391C12.0261 19.9499 12.0131 19.9512 12 19.9512C11.9872 19.9512 11.9745 19.9499 11.9619 19.9492H9.30078C8.88657 19.9492 8.55078 19.6134 8.55078 19.1992C8.55079 18.785 8.88657 18.4492 9.30078 18.4492H11.25V5.55078H7.50098C7.07164 5.55078 6.7869 5.55146 6.56739 5.56641C6.35475 5.58092 6.25801 5.60654 6.19922 5.63086C5.94195 5.73743 5.73743 5.94195 5.63086 6.19922C5.60654 6.25801 5.58092 6.35475 5.56641 6.56739C5.55146 6.7869 5.55078 7.07164 5.55078 7.50098C5.55068 7.9151 5.21493 8.25098 4.80078 8.25098C4.38664 8.25098 4.05089 7.9151 4.05078 7.50098C4.05078 7.09191 4.05007 6.74731 4.06934 6.46485C4.08907 6.17564 4.13245 5.89701 4.24512 5.625C4.50393 5.00021 5.00021 4.50393 5.625 4.24512C5.89701 4.13245 6.17564 4.08907 6.46485 4.06934C6.74731 4.05007 7.09191 4.05078 7.50098 4.05078H16.501Z" fill="currentColor"/>
</svg>
