<svg width="24" height="24" viewBox="0 0 24 24" fill="none" xmlns="http://www.w3.org/2000/svg">
<path d="M13.8799 16C14.294 16.0001 14.6298 16.3359 14.6299 16.75C14.6299 17.1642 14.294 17.4999 13.8799 17.5H13.1016L16.8691 20.5146C17.1922 20.7734 17.2448 21.245 16.9863 21.5684C16.7276 21.8918 16.2551 21.9443 15.9316 21.6855L11.9004 18.46L7.86914 21.6855C7.54569 21.9443 7.07321 21.8918 6.81445 21.5684C6.55606 21.245 6.60856 20.7734 6.93164 20.5146L10.6992 17.5H10.1191C9.70493 17.5 9.36914 17.1642 9.36914 16.75C9.36919 16.3358 9.70496 16 10.1191 16H13.8799Z" fill="currentColor"/>
<path d="M3.90039 13.0566C4.31457 13.0566 4.65034 13.3925 4.65039 13.8066V14.7002C4.6505 15.3905 5.2101 15.9502 5.90039 15.9502H7.31641C7.73059 15.9502 8.06636 16.286 8.06641 16.7002C8.0663 17.1143 7.73055 17.4502 7.31641 17.4502H5.90039C4.38167 17.4502 3.1505 16.2189 3.15039 14.7002V13.8066C3.15044 13.3925 3.48621 13.0566 3.90039 13.0566Z" fill="currentColor"/>
<path d="M20.1006 13.0566C20.5147 13.0567 20.8505 13.3925 20.8506 13.8066V14.7002C20.8505 16.2188 19.6192 17.4501 18.1006 17.4502H16.6846C16.2704 17.4502 15.9347 17.1143 15.9346 16.7002C15.9346 16.286 16.2704 15.9502 16.6846 15.9502H18.1006C18.7908 15.9501 19.3505 15.3904 19.3506 14.7002V13.8066C19.3506 13.3925 19.6864 13.0566 20.1006 13.0566Z" fill="currentColor"/>
<path d="M12.0996 7.25C12.5138 7.25 12.8496 7.58579 12.8496 8V9.94922H14.8008C15.2148 9.94943 15.5508 10.2851 15.5508 10.6992C15.5508 11.1133 15.2148 11.449 14.8008 11.4492H12.8496V13.4004C12.8494 13.8144 12.5137 14.1504 12.0996 14.1504C11.6855 14.1504 11.3498 13.8144 11.3496 13.4004V11.4492H9.40039C8.98618 11.4492 8.65039 11.1134 8.65039 10.6992C8.65039 10.285 8.98618 9.94922 9.40039 9.94922H11.3496V8C11.3496 7.58579 11.6854 7.25 12.0996 7.25Z" fill="currentColor"/>
<path d="M3.90039 8.24805C4.31457 8.24805 4.65034 8.58388 4.65039 8.99805V11.25C4.65018 11.664 4.31447 12 3.90039 12C3.48631 12 3.1506 11.664 3.15039 11.25V8.99805C3.15044 8.58388 3.48621 8.24805 3.90039 8.24805Z" fill="currentColor"/>
<path d="M20.1006 8.24805C20.5147 8.24815 20.8505 8.58394 20.8506 8.99805V11.25C20.8504 11.664 20.5146 11.9999 20.1006 12C19.6865 12 19.3508 11.664 19.3506 11.25V8.99805C19.3506 8.58388 19.6864 8.24805 20.1006 8.24805Z" fill="currentColor"/>
<path d="M7.15039 4.25C7.5646 4.25 7.90039 4.58579 7.90039 5C7.90039 5.41421 7.5646 5.75 7.15039 5.75H4.65039V6.3584C4.65019 6.77245 4.31448 7.1084 3.90039 7.1084C3.4863 7.1084 3.15059 6.77245 3.15039 6.3584V5C3.15044 4.58583 3.48621 4.25 3.90039 4.25H7.15039Z" fill="currentColor"/>
<path d="M20.1006 4.25C20.5147 4.25011 20.8505 4.58589 20.8506 5V6.3584C20.8504 6.77238 20.5146 7.10829 20.1006 7.1084C19.6865 7.1084 19.3508 6.77245 19.3506 6.3584V5.75H16.6504C16.2363 5.74983 15.9004 5.41411 15.9004 5C15.9004 4.58593 16.2363 4.25017 16.6504 4.25H20.1006Z" fill="currentColor"/>
<path d="M11.9004 2.25C12.3146 2.25 12.6504 2.58579 12.6504 3V4.25H13.8809C14.295 4.25006 14.6308 4.58587 14.6309 5C14.6309 5.41418 14.295 5.74994 13.8809 5.75H10.1201C9.7059 5.75 9.37012 5.41421 9.37012 5C9.37017 4.58583 9.70593 4.25 10.1201 4.25H11.1504V3C11.1504 2.58579 11.4862 2.25 11.9004 2.25Z" fill="currentColor"/>
</svg>
