<svg width="24" height="24" viewBox="0 0 24 24" fill="none" xmlns="http://www.w3.org/2000/svg">
<path fill-rule="evenodd" clip-rule="evenodd" d="M14.4072 3.15046C14.8118 3.15046 15.1367 3.1455 15.4502 3.22077C15.7103 3.28323 15.9594 3.38665 16.1875 3.52643C16.4623 3.69489 16.6887 3.92801 16.9746 4.21393L19.7871 7.02643C20.0731 7.31243 20.3061 7.53869 20.4746 7.81354C20.6144 8.04166 20.7178 8.2907 20.7803 8.55085C20.8555 8.86431 20.8506 9.18939 20.8506 9.59382V16.9005C20.8506 17.4481 20.8506 17.9044 20.8203 18.2755C20.7893 18.6551 20.7224 19.0116 20.5508 19.3487C20.2871 19.8661 19.8661 20.2872 19.3486 20.5508C19.0115 20.7225 18.6551 20.7893 18.2754 20.8204C17.9043 20.8507 17.4481 20.8507 16.9004 20.8507H7.10059C6.55292 20.8507 6.09672 20.8507 5.72559 20.8204C5.34592 20.7893 4.98944 20.7225 4.65235 20.5508C4.13493 20.2872 3.71384 19.8661 3.4502 19.3487C3.2785 19.0116 3.21073 18.6551 3.17969 18.2755C3.14938 17.9044 3.15039 17.4481 3.15039 16.9005V7.10065C3.15039 6.55304 3.14937 6.09675 3.17969 5.72565C3.21073 5.34597 3.27851 4.98951 3.4502 4.65241C3.71385 4.13501 4.13494 3.7139 4.65235 3.45026C4.98948 3.27857 5.34588 3.21078 5.72559 3.17975C6.09672 3.14943 6.55292 3.15046 7.10059 3.15046H14.4072ZM9.09961 13.6505C8.80745 13.6505 8.63298 13.6507 8.50391 13.6612C8.38385 13.671 8.37034 13.6861 8.38672 13.6778C8.3397 13.7018 8.30132 13.7402 8.27735 13.7872C8.28563 13.7709 8.27057 13.7845 8.26075 13.9044C8.2502 14.0334 8.25 14.2079 8.25 14.5001V19.3507H15.75V14.5001C15.75 14.2079 15.7498 14.0334 15.7393 13.9044C15.7294 13.7845 15.7144 13.7709 15.7227 13.7872C15.6987 13.7402 15.6603 13.7018 15.6133 13.6778C15.6297 13.6861 15.6162 13.671 15.4961 13.6612C15.367 13.6507 15.1926 13.6505 14.9004 13.6505H9.09961ZM6.75 4.65143C6.36372 4.65241 6.07864 4.656 5.84766 4.67487C5.56071 4.69833 5.42355 4.74105 5.33301 4.78718C5.09793 4.90699 4.90694 5.09801 4.78711 5.33307C4.74099 5.4236 4.69827 5.56082 4.67481 5.84772C4.65064 6.14358 4.65039 6.5283 4.65039 7.10065V16.9005C4.65039 17.4728 4.65065 17.8575 4.67481 18.1534C4.69826 18.4401 4.74101 18.5775 4.78711 18.668C4.90695 18.9031 5.09794 19.0941 5.33301 19.2139C5.42354 19.2601 5.56072 19.3018 5.84766 19.3253C6.07864 19.3441 6.36372 19.3475 6.75 19.3487V14.5001C6.75 14.2326 6.74992 13.9866 6.76661 13.7823C6.78404 13.5693 6.82316 13.3357 6.94043 13.1055C7.10818 12.7765 7.37599 12.5086 7.70508 12.3409C7.93526 12.2236 8.1688 12.1845 8.38184 12.1671C8.58612 12.1504 8.83212 12.1505 9.09961 12.1505H14.9004C15.1679 12.1505 15.4139 12.1504 15.6182 12.1671C15.8312 12.1845 16.0647 12.2236 16.2949 12.3409C16.624 12.5086 16.8918 12.7765 17.0596 13.1055C17.1768 13.3357 17.216 13.5693 17.2334 13.7823C17.2501 13.9866 17.25 14.2326 17.25 14.5001V19.3487C17.6368 19.3475 17.9221 19.3442 18.1533 19.3253C18.4401 19.3018 18.5775 19.2601 18.668 19.2139C18.903 19.0941 19.0941 18.9031 19.2139 18.668C19.26 18.5775 19.3017 18.4401 19.3252 18.1534C19.3494 17.8575 19.3506 17.4728 19.3506 16.9005V9.59382C19.3506 9.11797 19.3455 9.00121 19.3213 8.90046C19.2956 8.79356 19.2528 8.69148 19.1953 8.59772C19.1412 8.5094 19.063 8.42341 18.7266 8.08698L17.25 6.61042V6.80085C17.25 7.06832 17.2501 7.31436 17.2334 7.51862C17.216 7.73165 17.1768 7.96521 17.0596 8.19538C16.8918 8.52448 16.624 8.79228 16.2949 8.96003C16.0647 9.07731 15.8312 9.11643 15.6182 9.13386C15.4139 9.15055 15.1679 9.15046 14.9004 9.15046H9.09961C8.83212 9.15046 8.58612 9.15055 8.38184 9.13386C8.1688 9.11643 7.93527 9.07731 7.70508 8.96003C7.37599 8.79228 7.10818 8.52448 6.94043 8.19538C6.82317 7.96521 6.78403 7.73165 6.76661 7.51862C6.75825 7.41633 6.7539 7.30329 6.75196 7.18268L6.75 6.80085V4.65143ZM8.25 6.80085L8.25196 7.15925C8.25342 7.25559 8.25547 7.33194 8.26075 7.39655C8.27058 7.51661 8.28569 7.53012 8.27735 7.51374C8.30131 7.56077 8.3397 7.59914 8.38672 7.62311C8.37039 7.6148 8.38393 7.62989 8.50391 7.63972C8.63298 7.65026 8.80745 7.65046 9.09961 7.65046H14.9004C15.1926 7.65046 15.367 7.65026 15.4961 7.63972C15.6161 7.62989 15.6296 7.6148 15.6133 7.62311C15.6603 7.59914 15.6987 7.56077 15.7227 7.51374C15.7143 7.53012 15.7294 7.51661 15.7393 7.39655C15.7498 7.26749 15.75 7.09296 15.75 6.80085V5.11335C15.5446 4.91058 15.4753 4.84885 15.4033 4.80475C15.3095 4.74729 15.2066 4.70545 15.0996 4.67975C14.9989 4.65562 14.8828 4.65046 14.4072 4.65046H8.25V6.80085Z" fill="currentColor"/>
</svg>
