<svg width="24" height="24" viewBox="0 0 24 24" fill="none" xmlns="http://www.w3.org/2000/svg">
<path d="M14.6201 12.8193C14.9129 12.5265 15.3878 12.5266 15.6807 12.8193C15.9735 13.1122 15.9735 13.587 15.6807 13.8799L11.6309 17.9297C11.4902 18.0703 11.2995 18.1494 11.1006 18.1494C10.9018 18.1494 10.7109 18.0702 10.5703 17.9297L8.77051 16.1299C8.47764 15.837 8.47767 15.3622 8.77051 15.0693C9.06341 14.7764 9.53817 14.7764 9.83106 15.0693L11.1006 16.3389L14.6201 12.8193Z" fill="currentColor"/>
<path fill-rule="evenodd" clip-rule="evenodd" d="M15.5996 2.25C16.0138 2.25 16.3496 2.58579 16.3496 3V4.05078H16.9004C17.4481 4.05078 17.9043 4.04976 18.2754 4.08008C18.6551 4.11112 19.0115 4.17885 19.3486 4.35059C19.8661 4.61424 20.2871 5.03529 20.5508 5.55273C20.7225 5.88983 20.7893 6.2463 20.8203 6.62598C20.8506 6.99711 20.8506 7.4533 20.8506 8.00098V17.8008C20.8506 18.3485 20.8506 18.8047 20.8203 19.1758C20.7893 19.5554 20.7225 19.9119 20.5508 20.249C20.2871 20.7665 19.8661 21.1875 19.3486 21.4512C19.0115 21.6229 18.6551 21.6897 18.2754 21.7207C17.9043 21.751 17.4481 21.751 16.9004 21.751H7.10059C6.55292 21.751 6.09672 21.751 5.72559 21.7207C5.34591 21.6897 4.98945 21.6228 4.65235 21.4512C4.13491 21.1875 3.71385 20.7665 3.4502 20.249C3.27846 19.9119 3.21073 19.5555 3.17969 19.1758C3.14937 18.8047 3.15039 18.3485 3.15039 17.8008V8.00098C3.15039 7.4533 3.14937 6.9971 3.17969 6.62598C3.21072 6.24625 3.27849 5.88988 3.4502 5.55273C3.71385 5.03529 4.1349 4.61424 4.65235 4.35059C4.98949 4.17887 5.34586 4.11111 5.72559 4.08008C6.09672 4.04976 6.55292 4.05078 7.10059 4.05078H7.65039V3C7.65039 2.58579 7.98618 2.25 8.40039 2.25C8.81461 2.25 9.15039 2.58579 9.15039 3V4.05078H14.8496V3C14.8496 2.58579 15.1854 2.25 15.5996 2.25ZM4.65039 17.8008C4.65039 18.3732 4.65063 18.7578 4.67481 19.0537C4.69827 19.3406 4.74099 19.4778 4.78711 19.5684C4.90696 19.8034 5.09791 19.9945 5.33301 20.1143C5.42355 20.1604 5.56071 20.2021 5.84766 20.2256C6.14354 20.2498 6.52817 20.251 7.10059 20.251H16.9004C17.4728 20.251 17.8574 20.2498 18.1533 20.2256C18.4401 20.2021 18.5775 20.1604 18.668 20.1143C18.903 19.9944 19.0941 19.8034 19.2139 19.5684C19.26 19.4778 19.3017 19.3405 19.3252 19.0537C19.3494 18.7578 19.3506 18.3732 19.3506 17.8008V10.9492H4.65039V17.8008ZM7.10059 5.55078C6.52817 5.55078 6.14354 5.55102 5.84766 5.5752C5.56067 5.59866 5.42355 5.64137 5.33301 5.6875C5.0979 5.80733 4.90694 5.99828 4.78711 6.2334C4.74098 6.32394 4.69827 6.46105 4.67481 6.74805C4.65063 7.04392 4.65039 7.42855 4.65039 8.00098V9.44922H19.3506V8.00098C19.3506 7.42855 19.3494 7.04393 19.3252 6.74805C19.3017 6.46109 19.26 6.32393 19.2139 6.2334C19.0941 5.9983 18.903 5.80734 18.668 5.6875C18.5775 5.64138 18.4402 5.59866 18.1533 5.5752C17.8574 5.55102 17.4728 5.55078 16.9004 5.55078H16.3496V6.59961C16.3496 7.01382 16.0138 7.34961 15.5996 7.34961C15.1854 7.34961 14.8496 7.01382 14.8496 6.59961V5.55078H9.15039V6.59961C9.15039 7.01382 8.81461 7.34961 8.40039 7.34961C7.98618 7.34961 7.65039 7.01382 7.65039 6.59961V5.55078H7.10059Z" fill="currentColor"/>
</svg>
