<svg width="24" height="24" viewBox="0 0 24 24" fill="none" xmlns="http://www.w3.org/2000/svg">
<path d="M11.0996 7.65039C11.5138 7.65039 11.8496 7.98618 11.8496 8.40039V10.3496H13.8008C14.2148 10.3498 14.5508 10.6855 14.5508 11.0996C14.5508 11.5137 14.2148 11.8494 13.8008 11.8496H11.8496V13.8008C11.8494 14.2148 11.5137 14.5508 11.0996 14.5508C10.6855 14.5508 10.3498 14.2148 10.3496 13.8008V11.8496H8.40039C7.98618 11.8496 7.65039 11.5138 7.65039 11.0996C7.65039 10.6854 7.98618 10.3496 8.40039 10.3496H10.3496V8.40039C10.3496 7.98618 10.6854 7.65039 11.0996 7.65039Z" fill="currentColor"/>
<path fill-rule="evenodd" clip-rule="evenodd" d="M11.1006 3.15039C15.4912 3.1505 19.0508 6.70999 19.0508 11.1006C19.0507 13.0258 18.3653 14.7904 17.2266 16.166L20.6309 19.5703C20.9237 19.8632 20.9237 20.338 20.6309 20.6309C20.338 20.9237 19.8632 20.9237 19.5703 20.6309L16.166 17.2266C14.7904 18.3653 13.0258 19.0507 11.1006 19.0508C6.70999 19.0508 3.1505 15.4912 3.15039 11.1006C3.15039 6.70992 6.70992 3.15039 11.1006 3.15039ZM11.1006 4.65039C7.53835 4.65039 4.65039 7.53835 4.65039 11.1006C4.6505 14.6627 7.53841 17.5508 11.1006 17.5508C12.8478 17.5507 14.4312 16.854 15.5928 15.7256C15.6118 15.7011 15.6328 15.6778 15.6553 15.6553C15.6778 15.6328 15.7011 15.6118 15.7256 15.5928C16.854 14.4312 17.5507 12.8478 17.5508 11.1006C17.5508 7.53841 14.6627 4.6505 11.1006 4.65039Z" fill="currentColor"/>
</svg>
