<svg width="24" height="24" viewBox="0 0 24 24" fill="none" xmlns="http://www.w3.org/2000/svg">
<path fill-rule="evenodd" clip-rule="evenodd" d="M10.9502 3C15.3408 3.00011 18.9004 6.5596 18.9004 10.9502C18.9003 12.8754 18.215 14.64 17.0762 16.0156L20.4805 19.4199C20.7733 19.7128 20.7733 20.1876 20.4805 20.4805C20.1876 20.7733 19.7128 20.7733 19.4199 20.4805L16.0156 17.0762C14.64 18.215 12.8754 18.9003 10.9502 18.9004C6.5596 18.9004 3.00011 15.3408 3 10.9502C3 6.55953 6.55953 3 10.9502 3ZM10.9502 4.5C7.38796 4.5 4.5 7.38796 4.5 10.9502C4.50011 14.5123 7.38802 17.4004 10.9502 17.4004C12.6974 17.4003 14.2808 16.7037 15.4424 15.5752C15.4614 15.5507 15.4824 15.5274 15.5049 15.5049C15.5274 15.4824 15.5507 15.4614 15.5752 15.4424C16.7037 14.2808 17.4003 12.6974 17.4004 10.9502C17.4004 7.38802 14.5123 4.50011 10.9502 4.5Z" fill="#505157"/>
<path d="M7.5 12.7502L7.5 10.05C7.5 9.63584 7.83579 9.30005 8.25 9.30005C8.66421 9.30005 9 9.63584 9 10.05L9 12.7502C8.99989 13.1644 8.66415 13.5002 8.25 13.5002C7.83585 13.5002 7.50011 13.1644 7.5 12.7502Z" fill="#8DBEF2"/>
<path d="M10.5 12.75L10.5 8.25C10.5 7.83579 10.8358 7.5 11.25 7.5C11.6642 7.5 12 7.83579 12 8.25V12.75C12 13.1642 11.6642 13.5 11.25 13.5C10.8358 13.5 10.5 13.1642 10.5 12.75Z" fill="#1B7CE4"/>
<path d="M13.5 12.7505V11.8501C13.5 11.4359 13.8358 11.1001 14.25 11.1001C14.6642 11.1001 15 11.4359 15 11.8501V12.7505C14.9998 13.1645 14.6641 13.5005 14.25 13.5005C13.8359 13.5005 13.5002 13.1645 13.5 12.7505Z" fill="#8DBEF2"/>
</svg>
