<svg width="24" height="24" viewBox="0 0 24 24" fill="none" xmlns="http://www.w3.org/2000/svg">
<path d="M12.7793 8.7793C13.0396 8.51895 13.4623 8.51895 13.7227 8.7793C13.983 9.03965 13.983 9.46232 13.7227 9.72266L12.1943 11.251L13.7227 12.7793C13.983 13.0397 13.983 13.4623 13.7227 13.7227C13.4623 13.983 13.0397 13.983 12.7793 13.7227L11.251 12.1943L9.72266 13.7227C9.46232 13.983 9.03965 13.983 8.7793 13.7227C8.51895 13.4623 8.51895 13.0396 8.7793 12.7793L10.3076 11.251L8.7793 9.72266C8.51895 9.46231 8.51895 9.03965 8.7793 8.7793C9.03965 8.51895 9.46231 8.51895 9.72266 8.7793L11.251 10.3076L12.7793 8.7793Z" fill="currentColor"/>
<path fill-rule="evenodd" clip-rule="evenodd" d="M11.1006 3.15039C15.4912 3.1505 19.0508 6.70999 19.0508 11.1006C19.0507 13.0258 18.3653 14.7904 17.2266 16.166L20.6309 19.5703C20.9237 19.8632 20.9237 20.338 20.6309 20.6309C20.338 20.9237 19.8632 20.9237 19.5703 20.6309L16.166 17.2266C14.7904 18.3653 13.0258 19.0507 11.1006 19.0508C6.70999 19.0508 3.1505 15.4912 3.15039 11.1006C3.15039 6.70992 6.70992 3.15039 11.1006 3.15039ZM11.1006 4.65039C7.53835 4.65039 4.65039 7.53835 4.65039 11.1006C4.6505 14.6627 7.53841 17.5508 11.1006 17.5508C12.8478 17.5507 14.4312 16.854 15.5928 15.7256C15.6118 15.7011 15.6328 15.6778 15.6553 15.6553C15.6778 15.6328 15.7011 15.6118 15.7256 15.5928C16.854 14.4312 17.5507 12.8478 17.5508 11.1006C17.5508 7.53841 14.6627 4.6505 11.1006 4.65039Z" fill="currentColor"/>
</svg>
