<svg width="24" height="24" viewBox="0 0 24 24" fill="none" xmlns="http://www.w3.org/2000/svg">
<path fill-rule="evenodd" clip-rule="evenodd" d="M19.7989 2.6963C19.9395 2.65546 20.1817 2.59394 20.4473 2.64845L20.5626 2.6797L20.6925 2.73146C20.9454 2.85026 21.1497 3.05378 21.2686 3.30666L21.3204 3.43751L21.3516 3.55275C21.4061 3.81806 21.3446 4.05953 21.3038 4.20021C21.2514 4.3804 21.1651 4.59936 21.0762 4.82716L15.1446 20.0264C15.0455 20.2804 14.9534 20.5182 14.8643 20.6983C14.7886 20.8515 14.6358 21.141 14.3282 21.3008C13.981 21.481 13.5677 21.4806 13.2208 21.2998C12.9134 21.1396 12.7602 20.8505 12.6846 20.6973C12.5958 20.5171 12.5042 20.2785 12.4053 20.0244L10.045 13.9541L3.97566 11.5947C3.72155 11.4959 3.48299 11.4033 3.3028 11.3145C3.14946 11.2389 2.8604 11.0865 2.70026 10.7793C2.51959 10.4324 2.5191 10.019 2.69929 9.67189L2.76472 9.56349C2.92921 9.32695 3.1677 9.20111 3.30183 9.13478C3.48188 9.04579 3.71986 8.95357 3.9737 8.85451L19.1729 2.92384C19.4005 2.83504 19.6188 2.74865 19.7989 2.6963ZM11.501 13.5596L13.7755 19.4092L18.9727 6.08791L11.501 13.5596ZM4.58991 10.2236L10.4405 12.499L17.9171 5.02248L4.58991 10.2236Z" fill="currentColor"/>
</svg>
