<svg width="24" height="24" viewBox="0 0 24 24" fill="none" xmlns="http://www.w3.org/2000/svg">
<path d="M10.0498 3C10.464 3 10.7998 3.33579 10.7998 3.75C10.7998 4.16422 10.464 4.5 10.0498 4.5H6.9502C6.37778 4.5 5.99315 4.50024 5.69727 4.52442C5.41028 4.54788 5.27316 4.59059 5.18262 4.63672C4.94751 4.75655 4.75655 4.94751 4.63672 5.18262C4.59059 5.27316 4.54788 5.41028 4.52442 5.69727C4.50024 5.99315 4.5 6.37778 4.5 6.9502V16.75C4.5 17.3224 4.50024 17.7071 4.52442 18.0029C4.54788 18.2898 4.5906 18.4271 4.63672 18.5176C4.75657 18.7527 4.94753 18.9437 5.18262 19.0635C5.27316 19.1096 5.41032 19.1513 5.69727 19.1748C5.99315 19.199 6.37778 19.2002 6.9502 19.2002H16.75C17.3224 19.2002 17.7071 19.199 18.0029 19.1748C18.2898 19.1513 18.4271 19.1096 18.5176 19.0635C18.7526 18.9437 18.9437 18.7526 19.0635 18.5176C19.1096 18.4271 19.1513 18.2898 19.1748 18.0029C19.199 17.7071 19.2002 17.3224 19.2002 16.75V13.6504C19.2002 13.2362 19.536 12.9004 19.9502 12.9004C20.3643 12.9005 20.7002 13.2362 20.7002 13.6504V16.75C20.7002 17.2977 20.7002 17.7539 20.6699 18.125C20.6389 18.5047 20.5721 18.8612 20.4004 19.1982C20.1367 19.7157 19.7157 20.1367 19.1982 20.4004C18.8612 20.5721 18.5047 20.6389 18.125 20.6699C17.7539 20.7002 17.2977 20.7002 16.75 20.7002H6.9502C6.40253 20.7002 5.94633 20.7002 5.5752 20.6699C5.19552 20.6389 4.83906 20.5721 4.50196 20.4004C3.98452 20.1367 3.56346 19.7157 3.29981 19.1982C3.12807 18.8611 3.06034 18.5047 3.0293 18.125C2.99898 17.7539 3 17.2977 3 16.75V6.9502C3 6.40253 2.99898 5.94633 3.0293 5.5752C3.06033 5.19547 3.1281 4.8391 3.29981 4.50196C3.56346 3.98451 3.98451 3.56346 4.50196 3.29981C4.8391 3.1281 5.19547 3.06033 5.5752 3.0293C5.94633 2.99898 6.40253 3 6.9502 3H10.0498Z" fill="currentColor"/>
<path d="M16.7197 3.21973C17.0126 2.92684 17.4874 2.92684 17.7803 3.21973L20.4746 5.91407C20.4794 5.91875 20.4836 5.92391 20.4883 5.92871C20.516 5.95731 20.5402 5.98795 20.5625 6.01954C20.5944 6.06488 20.6222 6.11309 20.6436 6.16504C20.6509 6.18283 20.6553 6.20154 20.6611 6.21973C20.6698 6.24669 20.6789 6.27357 20.6846 6.30176C20.6855 6.30628 20.6857 6.31091 20.6865 6.31543C20.6944 6.35894 20.7002 6.40345 20.7002 6.44922C20.7002 6.4936 20.6949 6.53684 20.6875 6.57911C20.6781 6.633 20.6638 6.68612 20.6426 6.73731C20.6327 6.76098 20.6186 6.78232 20.6064 6.80469C20.5727 6.86709 20.5332 6.92775 20.4805 6.98047L17.7803 9.68067C17.4875 9.97328 17.0126 9.97325 16.7197 9.68067C16.4269 9.38784 16.427 8.91303 16.7197 8.62012L18.1406 7.19922H15.9502C15.3778 7.19922 14.9931 7.19946 14.6973 7.22364C14.4103 7.2471 14.2732 7.28981 14.1826 7.33594C13.9475 7.45577 13.7565 7.64673 13.6367 7.88184C13.5906 7.97238 13.5479 8.10949 13.5244 8.39649C13.5002 8.69237 13.5 9.07699 13.5 9.64942V11.8496C13.4998 12.2636 13.1641 12.5996 12.75 12.5996C12.3359 12.5996 12.0002 12.2636 12 11.8496V9.64942C12 9.10175 11.999 8.64555 12.0293 8.27442C12.0603 7.89469 12.1281 7.53832 12.2998 7.20118C12.5635 6.68373 12.9845 6.26268 13.502 5.99903C13.8391 5.82732 14.1955 5.75955 14.5752 5.72852C14.9463 5.6982 15.4025 5.69922 15.9502 5.69922H18.1387L16.7197 4.28028C16.4268 3.98738 16.4268 3.51262 16.7197 3.21973Z" fill="currentColor"/>
</svg>
