<svg width="24" height="24" viewBox="0 0 24 24" fill="none" xmlns="http://www.w3.org/2000/svg">
<path fill-rule="evenodd" clip-rule="evenodd" d="M17.249 2C19.1543 2.00011 20.6992 3.54488 20.6992 5.4502C20.6991 7.35542 19.1543 8.90029 17.249 8.90039C16.2484 8.90039 15.348 8.47358 14.7178 7.79297L9.73633 10.7002C9.84223 11.0316 9.90039 11.3845 9.90039 11.751C9.90037 12.1164 9.84262 12.4683 9.7373 12.7988L14.7207 15.7031C15.3508 15.0246 16.2501 14.5996 17.249 14.5996C19.1543 14.5997 20.6992 16.1445 20.6992 18.0498C20.6991 19.955 19.1543 21.4999 17.249 21.5C15.3437 21.5 13.7989 19.9551 13.7988 18.0498C13.7988 17.6831 13.8559 17.3296 13.9619 16.998L8.97949 14.0947C8.34932 14.7744 7.45002 15.2011 6.4502 15.2012C4.54488 15.2012 3.00011 13.6563 3 11.751C3 9.84559 4.54481 8.30078 6.4502 8.30078C7.44979 8.30084 8.34934 8.72685 8.97949 9.40625L13.9609 6.49902C13.8555 6.1683 13.7988 5.81584 13.7988 5.4502C13.7988 3.54481 15.3436 2 17.249 2ZM17.249 16.0996C16.5662 16.0996 15.9656 16.4509 15.6172 16.9824C15.6047 17.0119 15.5918 17.0419 15.5752 17.0703C15.5587 17.0986 15.539 17.1242 15.5195 17.1494C15.379 17.4189 15.2988 17.7249 15.2988 18.0498C15.2989 19.1267 16.1721 20 17.249 20C18.3258 19.9999 19.1991 19.1266 19.1992 18.0498C19.1992 16.9729 18.3259 16.0997 17.249 16.0996ZM6.4502 9.80078C5.37324 9.80078 4.5 10.674 4.5 11.751C4.50011 12.8278 5.37331 13.7012 6.4502 13.7012C7.15957 13.7011 7.77787 13.3204 8.11914 12.7539C8.12308 12.7466 8.12763 12.7396 8.13184 12.7324C8.14251 12.7141 8.1531 12.6958 8.16504 12.6787C8.31472 12.4027 8.40036 12.0869 8.40039 11.751C8.40039 10.6741 7.52706 9.80089 6.4502 9.80078ZM17.249 3.5C16.1721 3.5 15.2988 4.37324 15.2988 5.4502C15.2989 5.78629 15.3834 6.10283 15.5332 6.37891C15.5449 6.39567 15.5569 6.41269 15.5674 6.43066C15.5718 6.43824 15.575 6.44644 15.5791 6.4541C15.9204 7.0205 16.5397 7.40039 17.249 7.40039C18.3258 7.40029 19.1991 6.527 19.1992 5.4502C19.1992 4.37331 18.3259 3.50011 17.249 3.5Z" fill="currentColor"/>
</svg>
