<svg width="24" height="24" viewBox="0 0 24 24" fill="none" xmlns="http://www.w3.org/2000/svg">
<path d="M9.30079 3.15039C9.71482 3.15061 10.0508 3.48631 10.0508 3.90039C10.0508 4.31448 9.71482 4.65018 9.30079 4.65039H7.10059C6.52817 4.65039 6.14354 4.65063 5.84766 4.67481C5.56067 4.69827 5.42355 4.74098 5.33301 4.78711C5.0979 4.90694 4.90694 5.0979 4.78711 5.33301C4.74098 5.42355 4.69827 5.56067 4.67481 5.84766C4.65063 6.14354 4.65039 6.52817 4.65039 7.10059V16.9004C4.65039 17.4728 4.65064 17.8574 4.67481 18.1533C4.69827 18.4402 4.74099 18.5775 4.78711 18.668C4.90696 18.903 5.09792 19.0941 5.33301 19.2139C5.42355 19.26 5.56071 19.3017 5.84766 19.3252C6.14354 19.3494 6.52817 19.3506 7.10059 19.3506H9.30079C9.71482 19.3508 10.0508 19.6865 10.0508 20.1006C10.0507 20.5146 9.71476 20.8504 9.30079 20.8506H7.10059C6.55292 20.8506 6.09672 20.8506 5.72559 20.8203C5.34591 20.7893 4.98945 20.7225 4.65235 20.5508C4.13491 20.2871 3.71385 19.8661 3.4502 19.3486C3.27846 19.0115 3.21073 18.6551 3.17969 18.2754C3.14937 17.9043 3.15039 17.4481 3.15039 16.9004V7.10059C3.15039 6.55292 3.14937 6.09672 3.17969 5.72559C3.21072 5.34586 3.27849 4.98949 3.4502 4.65235C3.71385 4.1349 4.1349 3.71385 4.65235 3.4502C4.98949 3.27849 5.34586 3.21072 5.72559 3.17969C6.09672 3.14937 6.55292 3.15039 7.10059 3.15039H9.30079Z" fill="currentColor"/>
<path d="M15.0693 6.96973C15.3622 6.67684 15.837 6.67684 16.1299 6.96973L20.625 11.4648C20.6301 11.4698 20.6347 11.4753 20.6397 11.4805C20.6661 11.5079 20.6895 11.5372 20.7109 11.5674C20.7979 11.6898 20.8506 11.8384 20.8506 12C20.8506 12.1634 20.7967 12.3133 20.708 12.4365C20.6874 12.4651 20.6647 12.4925 20.6397 12.5186C20.6347 12.5237 20.6301 12.5292 20.625 12.5342L16.1299 17.0303C15.837 17.3232 15.3622 17.3231 15.0693 17.0303C14.7764 16.7374 14.7764 16.2626 15.0693 15.9697L18.2891 12.75H9.30079C8.88657 12.75 8.55079 12.4142 8.55079 12C8.55079 11.5858 8.88658 11.25 9.30079 11.25H18.2891L15.0693 8.03028C14.7764 7.73738 14.7764 7.26262 15.0693 6.96973Z" fill="currentColor"/>
</svg>
