<svg width="24" height="24" viewBox="0 0 24 24" fill="none" xmlns="http://www.w3.org/2000/svg">
<path d="M15.6004 4.35C15.6004 3.60442 14.996 3 14.2504 3C13.5048 3 12.9004 3.60442 12.9004 4.35V8.85C12.9004 9.59558 13.5048 10.2 14.2504 10.2C14.996 10.2 15.6004 9.59558 15.6004 8.85V4.35Z" stroke="#505157" stroke-width="1.5" stroke-linecap="round" stroke-linejoin="round"/>
<path d="M18.3008 8.85V10.2H19.6508C19.9178 10.2 20.1788 10.1208 20.4008 9.97249C20.6228 9.82415 20.7958 9.6133 20.898 9.36662C21.0002 9.11994 21.0269 8.8485 20.9748 8.58663C20.9228 8.32475 20.7942 8.08421 20.6054 7.89541C20.4166 7.70661 20.176 7.57803 19.9142 7.52594C19.6523 7.47385 19.3808 7.50058 19.1342 7.60276C18.8875 7.70494 18.6766 7.87797 18.5283 8.09998C18.38 8.32199 18.3008 8.583 18.3008 8.85Z" stroke="#505157" stroke-width="1.5" stroke-linecap="round" stroke-linejoin="round"/>
<path d="M11.1004 15.1508C11.1004 14.4052 10.496 13.8008 9.75039 13.8008C9.00481 13.8008 8.40039 14.4052 8.40039 15.1508V19.6508C8.40039 20.3964 9.00481 21.0008 9.75039 21.0008C10.496 21.0008 11.1004 20.3964 11.1004 19.6508V15.1508Z" stroke="#505157" stroke-width="1.5" stroke-linecap="round" stroke-linejoin="round"/>
<path d="M5.7 15.1508V13.8008H4.35C4.083 13.8008 3.82199 13.88 3.59998 14.0283C3.37797 14.1766 3.20494 14.3875 3.10276 14.6342C3.00058 14.8808 2.97385 15.1523 3.02594 15.4142C3.07803 15.676 3.20661 15.9166 3.39541 16.1054C3.58421 16.2942 3.82475 16.4228 4.08663 16.4748C4.3485 16.5269 4.61994 16.5002 4.86662 16.398C5.1133 16.2958 5.32414 16.1228 5.47248 15.9008C5.62082 15.6788 5.7 15.4178 5.7 15.1508Z" stroke="#505157" stroke-width="1.5" stroke-linecap="round" stroke-linejoin="round"/>
<path d="M19.6508 12.9004H15.1508C14.4052 12.9004 13.8008 13.5048 13.8008 14.2504C13.8008 14.996 14.4052 15.6004 15.1508 15.6004H19.6508C20.3964 15.6004 21.0008 14.996 21.0008 14.2504C21.0008 13.5048 20.3964 12.9004 19.6508 12.9004Z" stroke="#505157" stroke-width="1.5" stroke-linecap="round" stroke-linejoin="round"/>
<path d="M15.1508 18.3008H13.8008V19.6508C13.8008 19.9178 13.88 20.1788 14.0283 20.4008C14.1766 20.6228 14.3875 20.7958 14.6342 20.898C14.8808 21.0002 15.1523 21.0269 15.4142 20.9748C15.676 20.9228 15.9166 20.7942 16.1054 20.6054C16.2942 20.4166 16.4228 20.176 16.4748 19.9142C16.5269 19.6523 16.5002 19.3808 16.398 19.1342C16.2958 18.8875 16.1228 18.6766 15.9008 18.5283C15.6788 18.38 15.4178 18.3008 15.1508 18.3008Z" stroke="#505157" stroke-width="1.5" stroke-linecap="round" stroke-linejoin="round"/>
<path d="M8.85 8.40039H4.35C3.60442 8.40039 3 9.00481 3 9.75039C3 10.496 3.60442 11.1004 4.35 11.1004H8.85C9.59558 11.1004 10.2 10.496 10.2 9.75039C10.2 9.00481 9.59558 8.40039 8.85 8.40039Z" stroke="#505157" stroke-width="1.5" stroke-linecap="round" stroke-linejoin="round"/>
<path d="M8.85 5.7H10.2V4.35C10.2 4.083 10.1208 3.82199 9.97249 3.59998C9.82415 3.37797 9.6133 3.20494 9.36662 3.10276C9.11994 3.00058 8.8485 2.97385 8.58663 3.02594C8.32475 3.07803 8.08421 3.20661 7.89541 3.39541C7.70661 3.58421 7.57803 3.82475 7.52594 4.08663C7.47385 4.3485 7.50058 4.61994 7.60276 4.86662C7.70494 5.1133 7.87797 5.32414 8.09998 5.47248C8.32199 5.62082 8.583 5.7 8.85 5.7Z" stroke="#505157" stroke-width="1.5" stroke-linecap="round" stroke-linejoin="round"/>
</svg>
