<svg width="24" height="24" viewBox="0 0 24 24" fill="none" xmlns="http://www.w3.org/2000/svg">
<path d="M9.18425 12.2794C8.05325 12.2794 7.13594 13.1967 7.13594 14.3277V19.4513C7.13594 20.5823 8.05325 21.4996 9.18425 21.4996C10.3153 21.4996 11.2326 20.5823 11.2326 19.4513V14.3277C11.2318 13.1967 10.3144 12.2794 9.18425 12.2794Z" fill="#E01E5A"/>
<path d="M2.01528 14.3274C2.01528 15.4592 2.93341 16.3774 4.06522 16.3774C5.19703 16.3774 6.11516 15.4592 6.11516 14.3274V12.2775H4.06522C2.93341 12.2775 2.01528 13.1956 2.01528 14.3274Z" fill="#E01E5A"/>
<path d="M9.18831 2H9.18587C8.05406 2 7.13594 2.91813 7.13594 4.04994C7.13594 5.18175 8.05406 6.09987 9.18587 6.09987H11.2342V4.04587C11.2334 2.91569 10.3177 2 9.18831 2Z" fill="#36C5F0"/>
<path d="M4.05189 11.2377H9.18527C10.3171 11.2377 11.2352 10.3195 11.2352 9.18773C11.2352 8.05592 10.3171 7.13779 9.18527 7.13779H4.05189C2.92008 7.13779 2.00195 8.05592 2.00195 9.18773C2.00195 10.3195 2.92008 11.2377 4.05189 11.2377Z" fill="#36C5F0"/>
<path d="M19.4345 7.13779C18.3044 7.13779 17.3887 8.05348 17.3887 9.18367V11.2377H19.437C20.5688 11.2377 21.4869 10.3195 21.4869 9.18773C21.4869 8.05592 20.5688 7.13779 19.437 7.13779H19.4345Z" fill="#2EB67D"/>
<path d="M12.2699 4.04831V9.18737C12.2699 10.3184 13.1872 11.2357 14.3182 11.2357C15.4492 11.2357 16.3665 10.3184 16.3665 9.18737V4.04831C16.3665 2.91731 15.4492 2 14.3182 2C13.1872 2 12.2699 2.91731 12.2699 4.04831Z" fill="#2EB67D"/>
<path d="M16.3669 19.4485C16.3669 18.3175 15.4496 17.4002 14.3186 17.4002H12.2703V19.4501C12.2711 20.5803 13.1876 21.4968 14.3186 21.4968C15.4496 21.4968 16.3669 20.5795 16.3669 19.4485Z" fill="#ECB22E"/>
<path d="M19.4517 12.2776H14.3183C13.1865 12.2776 12.2684 13.1958 12.2684 14.3276C12.2684 15.4594 13.1865 16.3775 14.3183 16.3775H19.4517C20.5835 16.3775 21.5017 15.4594 21.5017 14.3276C21.5017 13.1958 20.5835 12.2776 19.4517 12.2776Z" fill="#ECB22E"/>
</svg>
