<svg width="24" height="24" viewBox="0 0 24 24" fill="none" xmlns="http://www.w3.org/2000/svg">
<path opacity="0.3" d="M7.34955 4C7.76374 4.00003 8.09955 4.33581 8.09955 4.75V17.3379L10.4199 15.0186C10.7128 14.7258 11.1876 14.7257 11.4804 15.0186C11.7731 15.3114 11.7731 15.7863 11.4804 16.0791L7.88862 19.6689C7.87869 19.6793 7.86786 19.6885 7.85737 19.6982C7.83725 19.7169 7.81642 19.734 7.79487 19.75C7.67002 19.8429 7.5171 19.9004 7.34955 19.9004C7.18349 19.9004 7.03144 19.8444 6.90717 19.7529C6.88425 19.7361 6.86208 19.718 6.84076 19.6982C6.83028 19.6885 6.81942 19.6793 6.80951 19.6689L3.21967 16.0791C2.92678 15.7862 2.92678 15.3114 3.21967 15.0186C3.51257 14.7257 3.98733 14.7257 4.28022 15.0186L6.59955 17.3379V4.75C6.59955 4.33579 6.93534 4 7.34955 4Z" fill="currentColor"/>
<path d="M16.3495 4L16.4256 4.00391C16.4448 4.00584 16.4636 4.00935 16.4823 4.0127C16.4868 4.01351 16.4914 4.01375 16.4959 4.01465C16.5157 4.01856 16.5344 4.02582 16.5536 4.03125C16.581 4.03904 16.609 4.04566 16.6356 4.05664C16.6591 4.06637 16.6807 4.07981 16.703 4.0918C16.7659 4.12563 16.8266 4.16666 16.8797 4.21973L20.4803 7.81934C20.7729 8.11212 20.7728 8.58704 20.4803 8.87988C20.1875 9.1727 19.7127 9.17254 19.4198 8.87988L17.0995 6.55957V19.1504C17.0992 19.5644 16.7635 19.9003 16.3495 19.9004C15.9354 19.9004 15.5997 19.5644 15.5995 19.1504V6.55957L13.2801 8.87988C12.9873 9.1727 12.5125 9.17254 12.2196 8.87988C11.9269 8.58697 11.9267 8.11216 12.2196 7.81934L15.8192 4.21973C15.8725 4.16642 15.9328 4.12471 15.9959 4.09082C16.0163 4.07989 16.036 4.06765 16.0575 4.05859L16.0672 4.05469C16.0977 4.04235 16.1294 4.03453 16.161 4.02637C16.1741 4.02297 16.1867 4.01735 16.2 4.01465C16.2056 4.01354 16.2111 4.01271 16.2166 4.01172C16.2597 4.00403 16.3042 4 16.3495 4Z" fill="currentColor"/>
</svg>
