<svg width="24" height="24" viewBox="0 0 24 24" fill="none" xmlns="http://www.w3.org/2000/svg">
<path d="M6.5 12C6.5 8.96243 8.96243 6.5 12 6.5C15.0376 6.5 17.5 8.96243 17.5 12C17.5 15.0376 15.0376 17.5 12 17.5C8.96243 17.5 6.5 15.0376 6.5 12ZM3.5 12C3.5 16.6944 7.30558 20.5 12 20.5C16.6944 20.5 20.5 16.6944 20.5 12C20.5 7.30558 16.6944 3.5 12 3.5C7.30558 3.5 3.5 7.30558 3.5 12Z" fill="url(#paint0_linear_32769_29251)"/>
<path d="M20.5 12C20.5 7.30558 16.6944 3.5 12 3.5V6.5C15.0376 6.5 17.5 8.96243 17.5 12C17.5 15.0376 15.0376 17.5 12 17.5V20.5C16.6944 20.5 20.5 16.6944 20.5 12Z" fill="url(#paint1_linear_32769_29251)"/>
<path d="M10.5 19C10.5 19.8284 11.1716 20.5 12 20.5C12.8284 20.5 13.5 19.8284 13.5 19C13.5 18.1716 12.8284 17.5 12 17.5C11.1716 17.5 10.5 18.1716 10.5 19Z" fill="#4896EA"/>
<defs>
<linearGradient id="paint0_linear_32769_29251" x1="9.08333" y1="20.75" x2="22.5" y2="1.5" gradientUnits="userSpaceOnUse">
<stop stop-color="white" stop-opacity="0"/>
<stop offset="1" stop-color="#4896EA"/>
</linearGradient>
<linearGradient id="paint1_linear_32769_29251" x1="4" y1="5.5" x2="13.1667" y2="17.8333" gradientUnits="userSpaceOnUse">
<stop stop-color="white" stop-opacity="0"/>
<stop offset="1" stop-color="#4896EA"/>
</linearGradient>
</defs>
</svg>
