<svg width="24" height="24" viewBox="0 0 24 24" fill="none" xmlns="http://www.w3.org/2000/svg">
<path fill-rule="evenodd" clip-rule="evenodd" d="M12.6543 8C13.3555 8 13.9793 8.16336 14.5214 8.49279L14.7229 8.61823C15.1792 8.92289 15.5408 9.32256 15.8082 9.81548L15.9202 10.0272C16.1634 10.5292 16.2842 11.0926 16.2842 11.7161C16.2842 12.0757 16.2423 12.4197 16.1565 12.7476L16.0557 13.0701C15.9132 13.454 15.7157 13.8003 15.47 14.1128L15.8788 14.4914L15.881 14.4936L16.0098 14.6426C16.1214 14.7939 16.1811 14.9537 16.1812 15.1219C16.1812 15.3571 16.1128 15.553 15.9672 15.6987C15.7701 15.8959 15.5425 15.9999 15.2874 16C15.0796 16 14.8969 15.9208 14.7442 15.7682L14.7431 15.7659L14.1652 15.1567C13.6987 15.3737 13.1949 15.4837 12.6543 15.4837C11.9636 15.4836 11.3349 15.319 10.7705 14.9898L10.7694 14.9887C10.2179 14.6484 9.77706 14.1908 9.44897 13.6167C9.13194 13.0413 8.97299 12.4064 8.97298 11.7161C8.97298 11.0034 9.13205 10.368 9.45009 9.81436C9.73741 9.32199 10.1103 8.92279 10.5689 8.61823L10.7717 8.49279C11.3247 8.16373 11.9532 8.00008 12.6543 8ZM12.6543 9.53101C12.0813 9.53113 11.6116 9.73447 11.2387 10.1403C10.8773 10.5461 10.6933 11.0688 10.6933 11.7161C10.6933 12.3631 10.8768 12.8923 11.2387 13.3098C11.6118 13.7269 12.0821 13.9346 12.6543 13.9348C12.7499 13.9348 12.8433 13.9261 12.9343 13.9135L12.7697 13.7589C12.5681 13.5824 12.4651 13.3582 12.4651 13.0925C12.4651 12.8672 12.5353 12.6774 12.6801 12.5325C12.8568 12.3558 13.0735 12.2661 13.3252 12.266C13.4959 12.266 13.6482 12.3102 13.7788 12.397L13.9031 12.4978L13.9054 12.5012L14.2884 12.9268C14.4708 12.5756 14.5639 12.1732 14.5639 11.7161C14.5639 11.0683 14.3805 10.5451 14.0185 10.1392L14.0174 10.138C13.6675 9.73358 13.2154 9.53101 12.6543 9.53101Z" fill="currentColor"/>
<path d="M4.90746 8C5.74809 8 6.42987 8.21636 6.94246 8.65743C7.15302 8.83121 7.26383 9.04286 7.2639 9.29021C7.2639 9.5004 7.17768 9.68365 7.01302 9.83564C6.85878 9.97703 6.67071 10.0473 6.45527 10.0473C6.29019 10.0472 6.13682 10.0027 5.9972 9.91404C5.57414 9.64684 5.13094 9.51421 4.66667 9.51421C4.39129 9.51421 4.1666 9.56931 3.98796 9.67437C3.81987 9.77324 3.73835 9.9165 3.73821 10.1156C3.73821 10.3101 3.85341 10.4757 4.13244 10.6051C4.43338 10.7388 4.87481 10.8638 5.45737 10.978C5.78485 11.0365 6.10472 11.1417 6.41943 11.2927C6.75458 11.4364 7.03178 11.6583 7.2471 11.9569L7.32885 12.0767C7.50593 12.3673 7.59093 12.7371 7.59093 13.1788C7.5908 13.8577 7.32653 14.414 6.80246 14.8431C6.29083 15.2714 5.6345 15.4836 4.83914 15.4837C4.30226 15.4837 3.79839 15.3963 3.32941 15.2205L3.32717 15.2194C2.85895 15.0321 2.4851 14.7838 2.21056 14.4735C2.07147 14.3208 2 14.1392 2 13.9348C2.00012 13.7152 2.08501 13.5216 2.24864 13.358C2.41347 13.1931 2.61356 13.1093 2.84334 13.1093C3.06007 13.1094 3.24771 13.1865 3.40109 13.3389L3.54893 13.4633C3.70659 13.5799 3.89353 13.6761 4.11004 13.7511C4.39995 13.8514 4.68287 13.9011 4.95898 13.9012C5.24483 13.9012 5.48775 13.8404 5.69033 13.7231C5.87817 13.6032 5.97368 13.4206 5.97368 13.1609C5.97362 12.9503 5.88682 12.7943 5.70601 12.6837L5.70041 12.6815C5.56653 12.5872 5.35524 12.5023 5.0609 12.4329L4.73835 12.369C3.89503 12.2304 3.24876 11.9975 2.80862 11.6646L2.8075 11.6634C2.35997 11.3127 2.13776 10.8215 2.13776 10.2019C2.13784 9.53408 2.39657 8.99785 2.91166 8.60255C3.42358 8.19838 4.09152 8.00001 4.90746 8Z" fill="currentColor"/>
<path d="M18.8792 8.08624C19.1159 8.08624 19.3162 8.16146 19.4717 8.31583L19.5299 8.37631C19.6583 8.52203 19.7225 8.7019 19.7225 8.91166V13.2986C19.7225 13.4573 19.7625 13.5603 19.8267 13.6245C19.8909 13.6887 19.9938 13.7287 20.1526 13.7287H21.6836C21.9112 13.7287 22.1016 13.8055 22.2458 13.9628C22.4001 14.1065 22.4754 14.2951 22.4754 14.5205C22.4753 14.748 22.3983 14.9426 22.2436 15.0973C22.0988 15.2421 21.909 15.3112 21.6836 15.3112H19.2062C18.8544 15.3112 18.5619 15.2011 18.3371 14.9763C18.1123 14.7515 18.0022 14.4591 18.0022 14.1072V8.91166C18.0023 8.67208 18.0853 8.47092 18.2531 8.31583C18.4201 8.16169 18.6314 8.08632 18.8792 8.08624Z" fill="currentColor"/>
</svg>
