<svg width="24" height="24" viewBox="0 0 24 24" fill="none" xmlns="http://www.w3.org/2000/svg">
<path fill-rule="evenodd" clip-rule="evenodd" d="M11.9 2C6.43238 2 2 6.43238 2 11.9C2 17.3676 6.43238 21.8 11.9 21.8C17.3676 21.8 21.8 17.3676 21.8 11.9C21.8 6.43238 17.3676 2 11.9 2ZM8.39809 8.79141C8.3 8.98393 8.3 9.23595 8.3 9.74V14.06C8.3 14.564 8.3 14.8161 8.39809 15.0086C8.48438 15.1779 8.62206 15.3156 8.79141 15.4019C8.98393 15.5 9.23595 15.5 9.74 15.5H14.06C14.564 15.5 14.8161 15.5 15.0086 15.4019C15.1779 15.3156 15.3156 15.1779 15.4019 15.0086C15.5 14.8161 15.5 14.564 15.5 14.06V9.74C15.5 9.23595 15.5 8.98393 15.4019 8.79141C15.3156 8.62206 15.1779 8.48438 15.0086 8.39809C14.8161 8.3 14.564 8.3 14.06 8.3H9.74C9.23595 8.3 8.98393 8.3 8.79141 8.39809C8.62206 8.48438 8.48438 8.62206 8.39809 8.79141Z" fill="currentColor"/>
</svg>
