<svg width="24" height="24" viewBox="0 0 24 24" fill="none" xmlns="http://www.w3.org/2000/svg">
<path fill-rule="evenodd" clip-rule="evenodd" d="M12 2.25C14.2948 2.25 16.4039 2.55883 17.9648 3.0791C18.7412 3.33789 19.424 3.66267 19.9277 4.05957C20.4222 4.44923 20.848 4.99707 20.8496 5.69629L20.8506 5.69922V11.999C20.8506 12.4132 20.5147 12.7489 20.1006 12.749C19.6864 12.749 19.3506 12.4132 19.3506 11.999V7.7207C18.9452 7.94984 18.4757 8.15001 17.9648 8.32031C16.4039 8.84062 14.2949 9.15039 12 9.15039C9.70537 9.15036 7.59702 8.84055 6.03613 8.32031C5.52542 8.15007 5.05595 7.9497 4.65039 7.7207V12C4.65039 12.0477 4.67822 12.2096 4.99902 12.4639C5.31251 12.7123 5.81291 12.9698 6.5 13.1992C7.8666 13.6555 9.80773 13.9502 12 13.9502C12.4142 13.9502 12.75 14.286 12.75 14.7002C12.7499 15.1143 12.4141 15.4502 12 15.4502C9.69264 15.4502 7.58361 15.1423 6.02539 14.6221C5.51845 14.4528 5.05294 14.2533 4.65039 14.0254V18.2988C4.65039 18.3465 4.67802 18.5093 4.99902 18.7637C5.31249 19.012 5.81302 19.2687 6.5 19.498C7.8666 19.9543 9.80773 20.249 12 20.249C12.4141 20.249 12.7499 20.5849 12.75 20.999C12.75 21.4132 12.4142 21.749 12 21.749C9.69258 21.749 7.58362 21.4411 6.02539 20.9209C5.25016 20.6621 4.56948 20.3373 4.06738 19.9395C3.57276 19.5475 3.15039 18.9981 3.15039 18.2988V5.69629C3.15197 4.9971 3.57785 4.44923 4.07227 4.05957C4.57608 3.66252 5.25955 3.33796 6.03613 3.0791C7.597 2.5589 9.70546 2.25004 12 2.25ZM12 3.75C9.82158 3.75004 7.8803 4.04511 6.50977 4.50195C5.82059 4.73169 5.31691 4.9893 5.00098 5.23828C4.67677 5.49385 4.65039 5.65571 4.65039 5.7002C4.65047 5.74496 4.67706 5.90683 5.00098 6.16211C5.31688 6.41107 5.82068 6.66774 6.50977 6.89746C7.8803 7.35431 9.82158 7.65036 12 7.65039C14.1786 7.65039 16.1206 7.35433 17.4912 6.89746C18.1802 6.66776 18.6841 6.41105 19 6.16211C19.3238 5.90688 19.3505 5.74496 19.3506 5.7002C19.3506 5.65572 19.3241 5.49379 19 5.23828C18.6841 4.98932 18.1803 4.73167 17.4912 4.50195C16.1206 4.04508 14.1786 3.75 12 3.75Z" fill="currentColor"/>
<path d="M17.625 13.7764C17.6315 13.7766 17.638 13.777 17.6445 13.7773C17.6835 13.7796 17.7216 13.7849 17.7588 13.793C17.796 13.801 17.8323 13.8124 17.8682 13.8262C17.8763 13.8293 17.8846 13.8316 17.8926 13.835C17.9261 13.8491 17.9577 13.8674 17.9893 13.8867C18.0271 13.9098 18.0617 13.9366 18.0947 13.9658C18.1061 13.9759 18.119 13.9843 18.1299 13.9951L21.1299 16.9951C21.4228 17.288 21.4228 17.7628 21.1299 18.0557C20.837 18.3484 20.3622 18.3485 20.0693 18.0557L18.3496 16.3359V20.5254C18.3496 20.9396 18.0138 21.2754 17.5996 21.2754C17.1856 21.2752 16.8496 20.9395 16.8496 20.5254V16.3359L15.1299 18.0557C14.837 18.3484 14.3622 18.3485 14.0693 18.0557C13.7767 17.7628 13.7767 17.288 14.0693 16.9951L17.0693 13.9951L17.126 13.9434C17.1357 13.9354 17.1472 13.9293 17.1572 13.9219C17.1743 13.9094 17.1919 13.8978 17.21 13.8867C17.2314 13.8736 17.253 13.8613 17.2754 13.8506C17.2957 13.8408 17.3166 13.8322 17.3379 13.8242C17.3649 13.8142 17.3921 13.8057 17.4199 13.7988C17.4392 13.7941 17.4586 13.7894 17.4785 13.7861C17.4903 13.7842 17.5019 13.7816 17.5137 13.7803C17.5419 13.777 17.5705 13.7754 17.5996 13.7754C17.608 13.7754 17.6167 13.7761 17.625 13.7764Z" fill="currentColor"/>
</svg>
