<svg width="24" height="24" viewBox="0 0 24 24" fill="none" xmlns="http://www.w3.org/2000/svg">
<path d="M2.78539 11.3955C3.03217 11.0631 3.50262 10.9937 3.83519 11.2402L6.0432 12.8789C6.37541 13.1258 6.44502 13.5952 6.19847 13.9277C5.95168 14.2604 5.48133 14.3298 5.14867 14.083L4.34691 13.4873C5.07975 17.0241 8.21272 19.6825 11.967 19.6826C12.6672 19.6826 13.3457 19.5906 13.9895 19.418C14.1516 19.3745 14.3122 19.325 14.47 19.2715C14.8619 19.1391 15.288 19.3495 15.4211 19.7412C15.5541 20.1333 15.3434 20.5592 14.9514 20.6924C14.7629 20.7563 14.5709 20.8142 14.3772 20.8662C13.6079 21.0725 12.7995 21.1826 11.967 21.1826C7.48824 21.1825 3.75 18.0112 2.87621 13.791L2.35277 14.498C2.10597 14.8306 1.6356 14.9001 1.30297 14.6533C0.970517 14.4065 0.900955 13.9361 1.14769 13.6035L2.78539 11.3955Z" fill="currentColor"/>
<path fill-rule="evenodd" clip-rule="evenodd" d="M12.218 8.49316C14.1785 8.49327 15.7677 10.0825 15.7678 12.043C15.7678 14.0035 14.1785 15.5927 12.218 15.5928C10.2575 15.5926 8.6682 14.0035 8.6682 12.043C8.66831 10.0825 10.2576 8.49333 12.218 8.49316ZM12.218 9.99316C11.086 9.99333 10.1683 10.911 10.1682 12.043C10.1682 13.1751 11.086 14.0926 12.218 14.0928C13.3501 14.0927 14.2678 13.1751 14.2678 12.043C14.2677 10.9109 13.35 9.99327 12.218 9.99316Z" fill="currentColor"/>
<path d="M11.9993 2.5C15.6547 2.5001 18.8129 4.6221 20.3137 7.69824L20.5989 6.66699C20.7091 6.26771 21.1224 6.03238 21.5217 6.14258C21.9205 6.25277 22.1546 6.66556 22.0452 7.06445L21.3137 9.71582C21.2034 10.1149 20.79 10.3493 20.3909 10.2393L17.7414 9.50781C17.3422 9.39762 17.1068 8.98425 17.217 8.58496C17.3273 8.18576 17.7407 7.95139 18.1399 8.06152L18.927 8.27832C17.654 5.74079 15.0293 4.0001 11.9993 4C10.0343 4 8.24123 4.731 6.87523 5.93652C5.93485 6.76656 5.19824 7.82126 4.74828 9.01465C4.60218 9.40223 4.16906 9.59823 3.78148 9.45215C3.39391 9.30604 3.1979 8.87293 3.34398 8.48535C3.88179 7.05891 4.76222 5.80079 5.88304 4.81152C7.51252 3.37357 9.65504 2.5 11.9993 2.5Z" fill="currentColor"/>
</svg>
