<svg width="24" height="24" viewBox="0 0 24 24" fill="none" xmlns="http://www.w3.org/2000/svg">
<path fill-rule="evenodd" clip-rule="evenodd" d="M17.7998 3.15039C18.3475 3.15039 18.8037 3.14937 19.1748 3.17969C19.5545 3.21072 19.9109 3.27849 20.2481 3.4502C20.7655 3.71385 21.1865 4.13491 21.4502 4.65235C21.6219 4.98949 21.6897 5.34586 21.7207 5.72559C21.751 6.09672 21.75 6.55292 21.75 7.10059V16.9004C21.75 17.4481 21.751 17.9043 21.7207 18.2754C21.6897 18.6551 21.6219 19.0115 21.4502 19.3486C21.1865 19.8661 20.7655 20.2871 20.2481 20.5508C19.911 20.7225 19.5545 20.7893 19.1748 20.8203C18.8037 20.8506 18.3475 20.8506 17.7998 20.8506H6.2002C5.65253 20.8506 5.19633 20.8506 4.8252 20.8203C4.44552 20.7893 4.08906 20.7225 3.75196 20.5508C3.23452 20.2871 2.81346 19.8661 2.54981 19.3486C2.37807 19.0115 2.31034 18.6551 2.2793 18.2754C2.24898 17.9043 2.25 17.4481 2.25 16.9004V7.10059C2.25 6.55292 2.24898 6.09672 2.2793 5.72559C2.31033 5.34586 2.3781 4.98949 2.54981 4.65235C2.81346 4.1349 3.23451 3.71385 3.75196 3.4502C4.0891 3.27849 4.44547 3.21072 4.8252 3.17969C5.19633 3.14937 5.65253 3.15039 6.2002 3.15039H17.7998ZM3.75 9.15039V16.9004C3.75 17.4728 3.75024 17.8574 3.77442 18.1533C3.79788 18.4402 3.8406 18.5775 3.88672 18.668C4.00657 18.903 4.19753 19.0941 4.43262 19.2139C4.52316 19.26 4.66032 19.3017 4.94727 19.3252C5.24315 19.3494 5.62778 19.3506 6.2002 19.3506H17.7998C18.3722 19.3506 18.7569 19.3494 19.0527 19.3252C19.3397 19.3017 19.4769 19.26 19.5674 19.2139C19.8025 19.0941 19.9934 18.903 20.1133 18.668C20.1594 18.5775 20.2021 18.4402 20.2256 18.1533C20.2498 17.8574 20.25 17.4728 20.25 16.9004V9.15039H3.75ZM6.2002 4.65039C5.62778 4.65039 5.24315 4.65063 4.94727 4.67481C4.66028 4.69827 4.52316 4.74098 4.43262 4.78711C4.19751 4.90694 4.00655 5.0979 3.88672 5.33301C3.84059 5.42355 3.79788 5.56067 3.77442 5.84766C3.75024 6.14354 3.75 6.52817 3.75 7.10059V7.65039H7.65039V4.65039H6.2002ZM9.15039 7.65039H20.25V7.10059C20.25 6.52817 20.2498 6.14354 20.2256 5.84766C20.2021 5.56067 20.1594 5.42355 20.1133 5.33301C19.9935 5.0979 19.8025 4.90694 19.5674 4.78711C19.4768 4.74098 19.3397 4.69827 19.0527 4.67481C18.7569 4.65064 18.3722 4.65039 17.7998 4.65039H9.15039V7.65039Z" fill="currentColor"/>
</svg>
