<svg width="24" height="24" viewBox="0 0 24 24" fill="none" xmlns="http://www.w3.org/2000/svg">
<path fill-rule="evenodd" clip-rule="evenodd" d="M16.7656 3.69727C17.313 3.69727 17.7687 3.69627 18.1397 3.72657C18.5195 3.7576 18.8766 3.82523 19.2139 3.99707C19.7312 4.26073 20.1514 4.68185 20.415 5.19922C20.5868 5.53639 20.6545 5.8927 20.6856 6.27246C20.7159 6.64359 20.7148 7.09979 20.7148 7.64746V9.24805C20.7155 9.261 20.7168 9.27399 20.7168 9.28711V16.9277C20.7168 17.4754 20.7178 17.9316 20.6875 18.3027C20.6565 18.6825 20.5887 19.0388 20.417 19.376C20.1533 19.8934 19.7323 20.3145 19.2148 20.5781C18.8777 20.7498 18.5213 20.8176 18.1416 20.8486C17.7705 20.879 17.3143 20.8779 16.7666 20.8779H7.48536C6.93768 20.8779 6.48148 20.879 6.11036 20.8486C5.73063 20.8176 5.37425 20.7498 5.03711 20.5781C4.51967 20.3145 4.09862 19.8934 3.83497 19.376C3.66325 19.0388 3.59549 18.6825 3.56446 18.3027C3.53414 17.9316 3.53516 17.4754 3.53516 16.9277V7.64746C3.53516 7.09979 3.53413 6.64359 3.56446 6.27246C3.59549 5.89274 3.66325 5.53636 3.83497 5.19922C4.09862 4.68178 4.51967 4.26073 5.03711 3.99707C5.37425 3.82536 5.73063 3.7576 6.11036 3.72657C6.48148 3.69624 6.93768 3.69727 7.48536 3.69727H16.7656ZM5.03516 16.9277C5.03516 17.5002 5.0354 17.8848 5.05957 18.1807C5.08304 18.4676 5.12575 18.6048 5.17188 18.6953C5.29171 18.9304 5.48267 19.1214 5.71778 19.2412C5.80832 19.2873 5.94543 19.3301 6.23243 19.3535C6.5283 19.3777 6.91293 19.3779 7.48536 19.3779H11.5352V15.75H5.03516V16.9277ZM13.0352 19.3779H16.7666C17.339 19.3779 17.7237 19.3777 18.0195 19.3535C18.3065 19.3301 18.4436 19.2873 18.5342 19.2412C18.7693 19.1214 18.9603 18.9304 19.0801 18.6953C19.1262 18.6048 19.1689 18.4677 19.1924 18.1807C19.2166 17.8848 19.2168 17.5002 19.2168 16.9277V15.75H13.0352V19.3779ZM5.03516 10.1973V14.25H11.5352V10.1973H5.03516ZM13.0352 10.1973V14.25H19.2168V10.1973H13.0352ZM7.48536 5.19727C6.91293 5.19727 6.5283 5.19751 6.23243 5.22168C5.94543 5.24515 5.80832 5.28786 5.71778 5.33399C5.48266 5.45381 5.29171 5.64477 5.17188 5.87989C5.12575 5.97043 5.08304 6.10754 5.05957 6.39454C5.0354 6.69041 5.03516 7.07504 5.03516 7.64746V8.59571H19.2148V7.64746C19.2148 7.07504 19.2146 6.69041 19.1904 6.39454C19.167 6.10773 19.1252 5.97043 19.0791 5.87989C18.9593 5.64469 18.7674 5.45383 18.5322 5.33399C18.4417 5.28788 18.3045 5.24513 18.0176 5.22168C17.7218 5.19753 17.3377 5.19727 16.7656 5.19727H7.48536Z" fill="currentColor"/>
</svg>
