<svg width="24" height="24" viewBox="0 0 24 24" fill="none" xmlns="http://www.w3.org/2000/svg">
<path fill-rule="evenodd" clip-rule="evenodd" d="M16.9004 3.15039C17.4481 3.15039 17.9043 3.14937 18.2754 3.17969C18.6551 3.21073 19.0115 3.27846 19.3486 3.4502C19.8661 3.71385 20.2871 4.13491 20.5508 4.65235C20.7225 4.98945 20.7893 5.34591 20.8203 5.72559C20.8506 6.09672 20.8506 6.55292 20.8506 7.10059V16.9004C20.8506 17.4481 20.8506 17.9043 20.8203 18.2754C20.7893 18.6551 20.7225 19.0115 20.5508 19.3486C20.2871 19.8661 19.8661 20.2871 19.3486 20.5508C19.0115 20.7225 18.6551 20.7893 18.2754 20.8203C17.9043 20.8506 17.4481 20.8506 16.9004 20.8506H7.10059C6.55292 20.8506 6.09672 20.8506 5.72559 20.8203C5.34591 20.7893 4.98945 20.7225 4.65235 20.5508C4.13491 20.2871 3.71385 19.8661 3.4502 19.3486C3.27846 19.0115 3.21073 18.6551 3.17969 18.2754C3.14937 17.9043 3.15039 17.4481 3.15039 16.9004V7.10059C3.15039 6.55292 3.14937 6.09672 3.17969 5.72559C3.21072 5.34586 3.27849 4.98949 3.4502 4.65235C3.71385 4.1349 4.1349 3.71385 4.65235 3.4502C4.98949 3.27849 5.34586 3.21072 5.72559 3.17969C6.09672 3.14937 6.55292 3.15039 7.10059 3.15039H16.9004ZM4.65039 15.4492V16.9004C4.65039 17.4728 4.65064 17.8574 4.67481 18.1533C4.69827 18.4402 4.74099 18.5775 4.78711 18.668C4.90696 18.903 5.09792 19.0941 5.33301 19.2139C5.42355 19.26 5.56071 19.3017 5.84766 19.3252C6.14354 19.3494 6.52817 19.3506 7.10059 19.3506H16.9004C17.4728 19.3506 17.8574 19.3494 18.1533 19.3252C18.4401 19.3017 18.5775 19.26 18.668 19.2139C18.903 19.0941 19.0941 18.903 19.2139 18.668C19.26 18.5775 19.3017 18.4401 19.3252 18.1533C19.3494 17.8574 19.3506 17.4728 19.3506 16.9004V15.4492H4.65039ZM4.65039 10.0508V13.9492H19.3506V10.0508H4.65039ZM15 8.55079H19.3506V7.10059C19.3506 6.52817 19.3494 6.14354 19.3252 5.84766C19.3017 5.56071 19.26 5.42355 19.2139 5.33301C19.0941 5.09792 18.903 4.90696 18.668 4.78711C18.5775 4.74099 18.4402 4.69827 18.1533 4.67481C17.8574 4.65064 17.4728 4.65039 16.9004 4.65039H15V8.55079ZM7.10059 4.65039C6.52817 4.65039 6.14354 4.65063 5.84766 4.67481C5.56067 4.69827 5.42355 4.74098 5.33301 4.78711C5.0979 4.90694 4.90694 5.0979 4.78711 5.33301C4.74098 5.42355 4.69827 5.56067 4.67481 5.84766C4.65063 6.14354 4.65039 6.52817 4.65039 7.10059V8.55079H9V4.65039H7.10059Z" fill="currentColor" opacity="0.3"/>
<path d="M9 3.34961C9.41421 3.34961 9.75 3.6854 9.75 4.09961V20.0996C9.75 20.5138 9.41421 20.8496 9 20.8496C8.58579 20.8496 8.25 20.5138 8.25 20.0996V4.09961C8.25 3.6854 8.58579 3.34961 9 3.34961Z" fill="currentColor"/>
<path d="M15 3.34961C15.4142 3.34961 15.75 3.6854 15.75 4.09961V20.0996C15.75 20.5138 15.4142 20.8496 15 20.8496C14.5858 20.8496 14.25 20.5138 14.25 20.0996V4.09961C14.25 3.6854 14.5858 3.34961 15 3.34961Z" fill="currentColor"/>
</svg>
