<svg width="24" height="24" viewBox="0 0 24 24" fill="none" xmlns="http://www.w3.org/2000/svg">
<path fill-rule="evenodd" clip-rule="evenodd" d="M16.9004 3.15039C17.4481 3.15039 17.9043 3.14937 18.2754 3.17969C18.6551 3.21073 19.0115 3.27846 19.3486 3.4502C19.8661 3.71385 20.2871 4.13491 20.5508 4.65235C20.7225 4.98945 20.7893 5.34591 20.8203 5.72559C20.8506 6.09672 20.8506 6.55292 20.8506 7.10059V16.9004C20.8506 17.4481 20.8506 17.9043 20.8203 18.2754C20.7893 18.6551 20.7225 19.0115 20.5508 19.3486C20.2871 19.8661 19.8661 20.2871 19.3486 20.5508C19.0115 20.7225 18.6551 20.7893 18.2754 20.8203C17.9043 20.8506 17.4481 20.8506 16.9004 20.8506H7.10059C6.55292 20.8506 6.09672 20.8506 5.72559 20.8203C5.34591 20.7893 4.98945 20.7225 4.65235 20.5508C4.13491 20.2871 3.71385 19.8661 3.4502 19.3486C3.27846 19.0115 3.21073 18.6551 3.17969 18.2754C3.14937 17.9043 3.15039 17.4481 3.15039 16.9004V7.10059C3.15039 6.55292 3.14937 6.09672 3.17969 5.72559C3.21072 5.34586 3.27849 4.98949 3.4502 4.65235C3.71385 4.1349 4.1349 3.71385 4.65235 3.4502C4.98949 3.27849 5.34586 3.21072 5.72559 3.17969C6.09672 3.14937 6.55292 3.15039 7.10059 3.15039H16.9004ZM4.65039 9V16.9004C4.65039 17.4728 4.65064 17.8574 4.67481 18.1533C4.69827 18.4402 4.74099 18.5775 4.78711 18.668C4.90696 18.903 5.09792 19.0941 5.33301 19.2139C5.42355 19.26 5.56071 19.3017 5.84766 19.3252C6.14354 19.3494 6.52817 19.3506 7.10059 19.3506H8.25V10.0996C8.25001 9.6854 8.58579 9.34962 9 9.34961C9.41422 9.34961 9.75 9.6854 9.75 10.0996V19.3506H14.25V10.0996C14.25 9.6854 14.5858 9.34962 15 9.34961C15.4142 9.34961 15.75 9.6854 15.75 10.0996V19.3506H16.9004C17.4728 19.3506 17.8574 19.3494 18.1533 19.3252C18.4401 19.3017 18.5775 19.26 18.668 19.2139C18.903 19.0941 19.0941 18.903 19.2139 18.668C19.26 18.5775 19.3017 18.4401 19.3252 18.1533C19.3494 17.8574 19.3506 17.4728 19.3506 16.9004V9H4.65039Z" fill="currentColor" opacity="0.3"/>
<path d="M20.1006 8.55078C20.5147 8.55089 20.8506 8.88663 20.8506 9.30078C20.8506 9.71493 20.5147 10.0507 20.1006 10.0508H3.90039C3.48618 10.0508 3.15039 9.71499 3.15039 9.30078C3.15039 8.88657 3.48618 8.55078 3.90039 8.55078H20.1006Z" fill="currentColor"/>
<path d="M20.1006 13.9508C20.5147 13.9509 20.8506 14.2866 20.8506 14.7008C20.8506 15.1149 20.5147 15.4507 20.1006 15.4508H3.90039C3.48618 15.4508 3.15039 15.115 3.15039 14.7008C3.15039 14.2866 3.48618 13.9508 3.90039 13.9508H20.1006Z" fill="currentColor"/>
</svg>
