<svg width="24" height="24" viewBox="0 0 24 24" fill="none" xmlns="http://www.w3.org/2000/svg">
<path d="M8.76529 2.46768C10.8948 1.783 13.1958 1.85203 15.2809 2.66202C15.6666 2.81222 15.8576 3.2468 15.7077 3.63272C15.5574 4.01839 15.1229 4.2094 14.737 4.05948C12.9726 3.3742 11.0261 3.31698 9.22427 3.8964C7.42231 4.47596 5.87364 5.65765 4.83951 7.24308C3.80559 8.82847 3.34766 10.7218 3.54361 12.6044C3.73967 14.487 4.57729 16.2455 5.91568 17.5839C7.25407 18.9223 9.0126 19.7599 10.8952 19.956C12.7777 20.1519 14.6711 19.694 16.2565 18.6601C17.842 17.6259 19.0236 16.0773 19.6032 14.2753C20.1826 12.4734 20.1255 10.527 19.4401 8.76261C19.2902 8.37676 19.4813 7.94217 19.8668 7.7919C20.253 7.6419 20.6876 7.83354 20.8376 8.21964C21.6476 10.3049 21.7167 12.6056 21.0319 14.7353C20.347 16.8646 18.9502 18.6938 17.0768 19.9159C15.2031 21.138 12.9649 21.6788 10.7399 21.4472C8.51501 21.2154 6.43688 20.2262 4.85513 18.6444C3.27339 17.0627 2.2841 14.9846 2.0524 12.7597C1.8208 10.5346 2.36153 8.29651 3.58365 6.42276C4.80582 4.54929 6.63584 3.15256 8.76529 2.46768Z" fill="currentColor"/>
<path fill-rule="evenodd" clip-rule="evenodd" d="M17.5397 4.90128C17.8326 4.60852 18.3074 4.60843 18.6002 4.90128C18.8928 5.19415 18.8929 5.66902 18.6002 5.96183L14.0221 10.539C14.2103 10.8945 14.319 11.2991 14.319 11.7294C14.3189 13.1376 13.1773 14.279 11.7692 14.2792C10.361 14.2791 9.21944 13.1376 9.21939 11.7294C9.21949 10.3212 10.361 9.1797 11.7692 9.1796C12.2008 9.17965 12.6072 9.28713 12.9635 9.47647L17.5397 4.90128ZM11.7692 10.6796C11.1894 10.6797 10.7195 11.1497 10.7194 11.7294C10.7194 12.3092 11.1894 12.7791 11.7692 12.7792C12.3489 12.779 12.8189 12.3091 12.819 11.7294C12.819 11.4837 12.7338 11.2579 12.5924 11.079C12.5602 11.0558 12.5287 11.0308 12.4997 11.0019C12.4694 10.9716 12.4426 10.9389 12.4186 10.9052C12.2399 10.7641 12.0145 10.6797 11.7692 10.6796Z" fill="currentColor"/>
</svg>
