<svg width="24" height="24" viewBox="0 0 24 24" fill="none" xmlns="http://www.w3.org/2000/svg">
<path fill-rule="evenodd" clip-rule="evenodd" d="M9.29688 5.29983C9.70089 5.29982 10.0256 5.29501 10.3389 5.37014C10.5987 5.43259 10.8473 5.5362 11.0752 5.67581C11.3501 5.84426 11.5763 6.07733 11.8623 6.36331L18.4326 12.9326C18.7801 13.2801 19.0737 13.5728 19.293 13.8311C19.5179 14.096 19.7088 14.3749 19.8184 14.7119C19.9847 15.224 19.9847 15.7761 19.8184 16.2881C19.7088 16.625 19.5178 16.9041 19.293 17.169C19.0737 17.4273 18.7801 17.7199 18.4326 18.0674L16.2061 20.294C15.8584 20.6416 15.566 20.935 15.3076 21.1543C15.0427 21.3792 14.7637 21.5702 14.4268 21.6797C13.9149 21.8459 13.3634 21.8459 12.8516 21.6797C12.5146 21.5702 12.2356 21.3792 11.9707 21.1543C11.8416 21.0447 11.7034 20.9165 11.5547 20.7725L11.0723 20.293L4.05176 13.2735C3.76609 12.9878 3.53362 12.7619 3.36523 12.4873C3.22542 12.2592 3.12204 12.0092 3.05957 11.7491C2.98444 11.4357 2.98926 11.1113 2.98926 10.7071L2.98828 8.92971C2.98828 8.43864 2.98811 8.02506 3.01563 7.68753C3.04393 7.34112 3.10579 7.00818 3.2666 6.69241C3.51105 6.21271 3.90117 5.82164 4.38086 5.57718C4.69667 5.41629 5.02951 5.35549 5.37598 5.32718C5.7135 5.29962 6.12702 5.29983 6.61816 5.29983H9.29688ZM6.61816 6.79983C6.10233 6.79983 5.76041 6.80087 5.49805 6.82229C5.24479 6.84298 5.13171 6.87892 5.0625 6.91409C4.8651 7.0147 4.70417 7.17571 4.60352 7.37307C4.5683 7.44226 4.53146 7.55604 4.51074 7.8096C4.48937 8.07192 4.48926 8.41416 4.48926 8.92971V10.7071C4.48926 11.1828 4.49339 11.2997 4.51758 11.4004C4.54326 11.507 4.58633 11.6086 4.64355 11.7022C4.69768 11.7905 4.77605 11.8767 5.1123 12.2129L12.1328 19.2324L12.5986 19.6944C12.73 19.8217 12.841 19.9255 12.9414 20.0108C13.135 20.175 13.2407 20.2289 13.3145 20.253C13.5251 20.3213 13.7522 20.3213 13.9629 20.253C14.0367 20.229 14.1429 20.1755 14.3369 20.0108C14.5377 19.8403 14.7804 19.5985 15.1455 19.2334L17.3721 17.0069C17.7371 16.6419 17.979 16.399 18.1494 16.1983C18.3141 16.0042 18.3676 15.8981 18.3916 15.8242C18.46 15.6136 18.4609 15.3865 18.3926 15.1758C18.3686 15.102 18.3139 14.9966 18.1494 14.8028C17.9789 14.602 17.7363 14.3593 17.3711 13.9942L10.8018 7.42386C10.4654 7.08752 10.3803 7.00826 10.292 6.95413C10.1981 6.89665 10.0953 6.85482 9.98828 6.82913C9.88761 6.80498 9.77188 6.79984 9.29688 6.79983H6.61816Z" fill="currentColor"/>
<path d="M10.0488 2.15042C10.6732 2.15042 11.1085 2.14611 11.5254 2.24612C11.8771 2.33061 12.214 2.47024 12.5225 2.65921C12.888 2.88325 13.1924 3.19345 13.6338 3.63479L20.4688 10.4698C20.7616 10.7626 20.7614 11.2374 20.4688 11.5303C20.1759 11.8232 19.7011 11.8232 19.4082 11.5303L12.5732 4.69632C12.0813 4.2044 11.9184 4.04731 11.7393 3.93753C11.5649 3.83069 11.3746 3.7519 11.1758 3.70413C10.9715 3.65508 10.7448 3.65042 10.0488 3.65042H6.43848C6.02428 3.6504 5.68848 3.31462 5.68848 2.90042C5.68849 2.48623 6.02429 2.15044 6.43848 2.15042H10.0488Z" fill="currentColor"/>
</svg>
