<svg width="24" height="24" viewBox="0 0 24 24" fill="none" xmlns="http://www.w3.org/2000/svg">
<path d="M8.34772 7.03034C8.95302 7.09158 9.42581 7.60323 9.42584 8.22467C9.42574 8.88726 8.88824 9.42476 8.22565 9.42487C7.6042 9.42484 7.09255 8.95205 7.03131 8.34674L7.02545 8.22467L7.03131 8.10163C7.09285 7.49663 7.60442 7.02451 8.22565 7.02448L8.34772 7.03034Z" fill="currentColor"/>
<path fill-rule="evenodd" clip-rule="evenodd" d="M9.73248 2.07428C10.1369 2.07428 10.462 2.06939 10.7755 2.1446C11.0356 2.20706 11.2846 2.31047 11.5128 2.45026C11.7876 2.6187 12.0139 2.85182 12.2999 3.13776L19.2012 10.0391C19.727 10.5649 20.154 10.9912 20.4708 11.3643C20.7932 11.7441 21.0456 12.1188 21.1885 12.5587C21.4136 13.2515 21.4136 13.9977 21.1885 14.6905C21.0456 15.1303 20.7932 15.505 20.4708 15.8848C20.154 16.2579 19.7269 16.6843 19.2012 17.21L17.211 19.2003C16.6853 19.726 16.2589 20.1531 15.8858 20.4698C15.5061 20.7921 15.1321 21.0447 14.6924 21.1876C13.9995 21.4127 13.2525 21.4127 12.5596 21.1876C12.1199 21.0447 11.7459 20.7921 11.3663 20.4698C10.9932 20.1531 10.5667 19.7259 10.0411 19.2003L3.13971 12.2989C2.8537 12.0129 2.61971 11.7866 2.45123 11.5118C2.31142 11.2836 2.20901 11.0337 2.14655 10.7735C2.07144 10.4602 2.07623 10.1357 2.07623 9.73151V5.70417C2.07623 5.21312 2.07509 4.79949 2.1026 4.46198C2.13091 4.11553 2.19272 3.78267 2.35358 3.46686C2.59797 2.98721 2.98824 2.5971 3.46784 2.3526C3.78362 2.19171 4.11653 2.12995 4.46295 2.10163C4.80043 2.07409 5.21411 2.07428 5.70514 2.07428H9.73248ZM5.70514 3.57428C5.18961 3.57428 4.84732 3.57536 4.58502 3.59674C4.33222 3.61743 4.21865 3.6534 4.14948 3.68854C3.9521 3.78918 3.79112 3.95014 3.69049 4.14753C3.65526 4.21667 3.61943 4.32951 3.5987 4.58307C3.57725 4.84552 3.57623 5.188 3.57623 5.70417V9.73151C3.57624 10.2072 3.58037 10.3241 3.60455 10.4249C3.6303 10.5317 3.67407 10.6339 3.73151 10.7276C3.78564 10.8158 3.86426 10.9024 4.20026 11.2383L11.1016 18.1387C11.645 18.6821 12.0214 19.0583 12.337 19.3262C12.6456 19.5882 12.847 19.7034 13.0235 19.7608C13.4147 19.8879 13.8363 19.8877 14.2276 19.7608C14.4041 19.7035 14.6064 19.5883 14.9151 19.3262C15.2307 19.0583 15.6071 18.6821 16.1505 18.1387L18.1407 16.1495C18.6841 15.6061 19.0593 15.2287 19.3272 14.9132C19.5892 14.6045 19.7044 14.4031 19.7618 14.2266C19.8889 13.8353 19.8888 13.4139 19.7618 13.0225C19.7044 12.846 19.5894 12.6438 19.3272 12.335C19.0593 12.0195 18.6839 11.6429 18.1407 11.0997L11.2393 4.19831C10.9036 3.86263 10.8177 3.78368 10.7296 3.72956C10.6357 3.67206 10.5328 3.62931 10.4258 3.60358C10.3251 3.57941 10.2083 3.57428 9.73248 3.57428H5.70514Z" fill="currentColor"/>
</svg>
