<svg width="24" height="24" viewBox="0 0 24 24" fill="none" xmlns="http://www.w3.org/2000/svg">
<path fill-rule="evenodd" clip-rule="evenodd" d="M8.49989 12.4502C9.46616 12.4505 10.2499 13.2339 10.2499 14.2002V17.6006C10.2497 18.5667 9.46603 19.3503 8.49989 19.3506H5.0995C4.13314 19.3506 3.34971 18.5669 3.3495 17.6006V14.2002C3.3495 13.2337 4.133 12.4502 5.0995 12.4502H8.49989ZM5.0995 13.9502C4.96143 13.9502 4.8495 14.0621 4.8495 14.2002V17.6006C4.84971 17.7385 4.96156 17.8506 5.0995 17.8506H8.49989C8.6376 17.8503 8.74968 17.7383 8.74989 17.6006V14.2002C8.74989 14.0623 8.63773 13.9505 8.49989 13.9502H5.0995Z" fill="currentColor"/>
<path d="M20.2001 17.8496C20.6142 17.8498 20.9501 18.1855 20.9501 18.5996C20.9501 19.0137 20.6142 19.3494 20.2001 19.3496H12.9999C12.5857 19.3496 12.2499 19.0138 12.2499 18.5996C12.2499 18.1854 12.5857 17.8496 12.9999 17.8496H20.2001Z" fill="currentColor"/>
<path d="M20.2001 11.5498C20.6142 11.55 20.9501 11.8857 20.9501 12.2998C20.9501 12.7139 20.6142 13.0496 20.2001 13.0498H12.9999C12.5857 13.0498 12.2499 12.714 12.2499 12.2998C12.2499 11.8856 12.5857 11.5498 12.9999 11.5498H20.2001Z" fill="currentColor"/>
<path d="M8.87001 5.46973C9.16292 5.17706 9.63774 5.17691 9.93056 5.46973C10.223 5.76257 10.2231 6.23749 9.93056 6.53027L6.32997 10.1299C6.03714 10.4227 5.56233 10.4226 5.26943 10.1299L3.46962 8.33008C3.17683 8.03718 3.17676 7.56239 3.46962 7.26953C3.76249 6.9768 4.23731 6.97678 4.53017 7.26953L5.7997 8.53906L8.87001 5.46973Z" fill="currentColor"/>
<path d="M20.2001 5.25C20.6142 5.25017 20.9501 5.58589 20.9501 6C20.9501 6.41411 20.6142 6.74983 20.2001 6.75H12.9999C12.5857 6.75 12.2499 6.41421 12.2499 6C12.2499 5.58579 12.5857 5.25 12.9999 5.25H20.2001Z" fill="currentColor"/>
</svg>
