<svg width="24" height="24" viewBox="0 0 24 24" fill="none" xmlns="http://www.w3.org/2000/svg">
<path d="M10.0488 10.5498C10.463 10.5498 10.7988 10.8856 10.7988 11.2998V15.7998C10.7988 16.214 10.463 16.5498 10.0488 16.5498C9.63461 16.5498 9.29883 16.214 9.29883 15.7998V11.2998C9.29883 10.8856 9.63461 10.5498 10.0488 10.5498Z" fill="currentColor"/>
<path d="M13.6504 10.5498C14.0646 10.5498 14.4004 10.8856 14.4004 11.2998V15.7998C14.4004 16.214 14.0646 16.5498 13.6504 16.5498C13.2362 16.5498 12.9004 16.214 12.9004 15.7998V11.2998C12.9004 10.8856 13.2362 10.5498 13.6504 10.5498Z" fill="currentColor"/>
<path fill-rule="evenodd" clip-rule="evenodd" d="M12.5703 2C13.0618 2 13.4758 1.99975 13.8135 2.02734C14.1599 2.05566 14.4918 2.11741 14.8076 2.27832C15.2874 2.5228 15.6774 2.9128 15.9219 3.39258C16.0828 3.70841 16.1445 4.04023 16.1729 4.38672C16.1999 4.71751 16.2002 5.12126 16.2002 5.59961H19.9502C20.3643 5.59971 20.7002 5.93546 20.7002 6.34961C20.7002 6.76376 20.3643 7.0995 19.9502 7.09961H18.8984V16.4297C18.8984 17.1732 18.8992 17.7759 18.8594 18.2637C18.8188 18.7603 18.7325 19.2041 18.5225 19.6162C18.1917 20.2652 17.6637 20.7933 17.0146 21.124C16.6027 21.3338 16.1595 21.4194 15.6631 21.46C15.1753 21.4998 14.5726 21.5 13.8291 21.5H9.86914C9.12545 21.5 8.52204 21.4998 8.03418 21.46C7.53776 21.4194 7.09462 21.3339 6.68262 21.124C6.03354 20.7933 5.50558 20.2653 5.1748 19.6162C4.96481 19.2041 4.87847 18.7603 4.83789 18.2637C4.79806 17.7759 4.79883 17.1732 4.79883 16.4297V7.09961H3.75C3.33579 7.09961 3 6.76382 3 6.34961C3 5.9354 3.33579 5.59961 3.75 5.59961H7.5C7.5 5.12125 7.50032 4.71751 7.52734 4.38672C7.55566 4.0402 7.61739 3.70844 7.77832 3.39258C8.0228 2.91277 8.41277 2.5228 8.89258 2.27832C9.20844 2.11739 9.5402 2.05566 9.88672 2.02734C10.2245 1.99975 10.6383 2 11.1299 2H12.5703ZM6.29883 7.09961V16.4297C6.29883 17.1979 6.29932 17.7291 6.33301 18.1416C6.366 18.5454 6.42746 18.7692 6.51172 18.9346C6.69864 19.3014 6.99646 19.6001 7.36328 19.7871C7.52867 19.8714 7.75261 19.9318 8.15625 19.9648C8.56885 19.9986 9.1007 20 9.86914 20H13.8291C14.5974 20 15.1285 19.9985 15.541 19.9648C15.9448 19.9319 16.1686 19.8714 16.334 19.7871C16.7009 19.6002 16.9996 19.3015 17.1865 18.9346C17.2707 18.7692 17.3313 18.5452 17.3643 18.1416C17.3979 17.729 17.3984 17.1979 17.3984 16.4297V7.09961H6.29883ZM11.1299 3.5C10.6135 3.5 10.2713 3.50101 10.0088 3.52246C9.7551 3.54319 9.64241 3.57902 9.57324 3.61426C9.37567 3.71492 9.21492 3.87567 9.11426 4.07324C9.07902 4.14241 9.04319 4.2551 9.02246 4.50879C9.00144 4.76613 9.00005 5.10009 9 5.59961H14.7002C14.7001 5.10009 14.6988 4.76613 14.6777 4.50879C14.657 4.25519 14.6212 4.14241 14.5859 4.07324C14.4853 3.87572 14.3245 3.71493 14.127 3.61426C14.0578 3.57903 13.945 3.5432 13.6914 3.52246C13.4289 3.50102 13.0866 3.5 12.5703 3.5H11.1299Z" fill="currentColor"/>
</svg>
