<svg width="24" height="24" viewBox="0 0 24 24" fill="none" xmlns="http://www.w3.org/2000/svg">
<path d="M4 3.25C4.41421 3.25 4.75 3.58579 4.75 4V16.6777C4.75 17.2498 4.75028 17.6339 4.77441 17.9297C4.79787 18.2168 4.84058 18.3548 4.88672 18.4453C5.00657 18.6804 5.19754 18.8714 5.43262 18.9912C5.52315 19.0373 5.66033 19.0791 5.94727 19.1025C6.24314 19.1267 6.62777 19.1279 7.2002 19.1279H19.8779C20.292 19.1281 20.6279 19.4638 20.6279 19.8779C20.6278 20.2919 20.2919 20.6278 19.8779 20.6279H7.2002C6.65252 20.6279 6.19632 20.628 5.8252 20.5977C5.44553 20.5666 5.08904 20.4998 4.75195 20.3281C4.23451 20.0645 3.81346 19.6434 3.5498 19.126C3.37805 18.7889 3.31035 18.4324 3.2793 18.0527C3.24898 17.6816 3.25 17.2254 3.25 16.6777V4C3.25 3.58579 3.58579 3.25 4 3.25ZM20.0371 6.6875C20.4513 6.68756 20.7871 7.02332 20.7871 7.4375V11.0371C20.7871 11.4513 20.4513 11.7871 20.0371 11.7871C19.6231 11.7869 19.2871 11.4512 19.2871 11.0371V9.24805L15.6768 12.8584C15.5965 12.9386 15.505 13.0314 15.4189 13.1045C15.3261 13.1833 15.1916 13.2833 15.0088 13.3428C14.7678 13.4211 14.5076 13.421 14.2666 13.3428C14.0836 13.2833 13.9493 13.1833 13.8564 13.1045C13.7703 13.0314 13.678 12.9387 13.5977 12.8584L11.9375 11.1982L7.96777 15.168C7.67492 15.4607 7.2001 15.4607 6.90723 15.168C6.61437 14.8751 6.61443 14.4003 6.90723 14.1074L10.8984 10.1162C10.9787 10.0359 11.0702 9.94319 11.1562 9.87012C11.2491 9.79133 11.3836 9.69228 11.5664 9.63281L11.75 9.58887C11.8742 9.56922 12.0008 9.56921 12.125 9.58887L12.3086 9.63281L12.4365 9.68359C12.5559 9.7403 12.6491 9.81098 12.7188 9.87012C12.8048 9.9432 12.8963 10.0359 12.9766 10.1162L14.6367 11.7764L18.2266 8.1875H16.4375C16.0233 8.1875 15.6875 7.85171 15.6875 7.4375C15.6875 7.02329 16.0233 6.6875 16.4375 6.6875H20.0371Z" fill="currentColor"/>
</svg>
