<svg width="24" height="24" viewBox="0 0 24 24" fill="none" xmlns="http://www.w3.org/2000/svg">
<path d="M16.6532 17.4859H14.9908L7.33887 6.54053H9.00126L16.6532 17.4859Z" fill="currentColor"/>
<path d="M19.0551 3H4.94494C3.87081 3 3 3.87081 3 4.94494V19.0551C3 20.1292 3.87081 21 4.94494 21H19.0551C20.1292 21 21 20.1292 21 19.0551V4.94494C21 3.87081 20.1292 3 19.0551 3ZM14.481 18.2644L11.1361 13.3963L6.94826 18.2644H5.86592L10.6555 12.6971L5.86592 5.72641H9.51902L12.6864 10.3361L16.652 5.72641H17.7343L13.1671 11.0355L18.1341 18.2644H14.481Z" fill="currentColor"/>
</svg>
