<svg width="24" height="24" viewBox="0 0 24 24" fill="none" xmlns="http://www.w3.org/2000/svg">
<path d="M12.0195 10.75C12.0561 10.7508 12.0919 10.7549 12.127 10.7607C12.1824 10.7702 12.2364 10.7852 12.2881 10.8066C12.3154 10.818 12.3406 10.8333 12.3662 10.8477C12.4256 10.881 12.4822 10.9198 12.5312 10.9688L15.2314 13.6689C15.5243 13.9618 15.5243 14.4366 15.2314 14.7295C14.9386 15.0224 14.4638 15.0224 14.1709 14.7295L12.752 13.3105V16.9004C12.752 17.3146 12.4162 17.6504 12.002 17.6504C11.5877 17.6504 11.252 17.3146 11.252 16.9004V13.3086L9.83105 14.7295C9.53815 15.0222 9.06334 15.0223 8.77051 14.7295C8.47793 14.4366 8.47789 13.9618 8.77051 13.6689L11.4707 10.9688C11.5819 10.8576 11.7248 10.7863 11.8779 10.7607C11.9111 10.7552 11.945 10.752 11.9795 10.751C11.9867 10.7508 11.9938 10.749 12.001 10.749C12.0072 10.749 12.0134 10.7498 12.0195 10.75Z" fill="currentColor"/>
<path fill-rule="evenodd" clip-rule="evenodd" d="M19.4004 3.15039C19.6679 3.15039 19.9139 3.1503 20.1182 3.16699C20.3312 3.18442 20.5647 3.22353 20.7949 3.34082C21.124 3.50857 21.3918 3.77636 21.5596 4.10547C21.6769 4.33566 21.716 4.56918 21.7334 4.78223C21.7501 4.9865 21.75 5.2325 21.75 5.5V6.80078C21.75 7.06828 21.7501 7.31428 21.7334 7.51855C21.716 7.7316 21.6769 7.96512 21.5596 8.19531C21.3918 8.52442 21.124 8.79221 20.7949 8.95996C20.5647 9.07725 20.3312 9.11636 20.1182 9.13379C20.0652 9.13811 20.0094 9.13826 19.9512 9.14062V16.9004C19.9512 17.4481 19.9512 17.9043 19.9209 18.2754C19.8899 18.655 19.823 19.0116 19.6514 19.3486C19.3877 19.8661 18.9667 20.2871 18.4492 20.5508C18.112 20.7226 17.7549 20.7893 17.375 20.8203C17.004 20.8506 16.5484 20.8506 16.001 20.8506H8.00098C7.4533 20.8506 6.99711 20.8506 6.62598 20.8203C6.2463 20.7893 5.88983 20.7225 5.55273 20.5508C5.03529 20.2871 4.61424 19.8661 4.35059 19.3486C4.17884 19.0115 4.11112 18.6551 4.08008 18.2754C4.04976 17.9043 4.05078 17.4481 4.05078 16.9004V9.14062C3.99189 9.13825 3.93537 9.13816 3.88184 9.13379C3.66879 9.11636 3.43527 9.07725 3.20508 8.95996C2.87597 8.79221 2.60818 8.52442 2.44043 8.19531C2.32314 7.96512 2.28403 7.7316 2.2666 7.51855C2.24991 7.31428 2.25 7.06828 2.25 6.80078V5.5C2.25 5.2325 2.24991 4.9865 2.2666 4.78223C2.28403 4.56918 2.32314 4.33566 2.44043 4.10547C2.60818 3.77636 2.87597 3.50857 3.20508 3.34082C3.43527 3.22353 3.66879 3.18442 3.88184 3.16699C4.08611 3.1503 4.33211 3.15039 4.59961 3.15039H19.4004ZM5.55078 16.9004C5.55078 17.4728 5.55102 17.8574 5.5752 18.1533C5.59866 18.4402 5.64138 18.5774 5.6875 18.668C5.80734 18.903 5.9983 19.0941 6.2334 19.2139C6.32393 19.26 6.46109 19.3017 6.74805 19.3252C7.04393 19.3494 7.42855 19.3506 8.00098 19.3506H16.001C16.5731 19.3506 16.9571 19.3493 17.2529 19.3252C17.54 19.3017 17.678 19.26 17.7686 19.2139C18.0036 19.094 18.1947 18.903 18.3145 18.668C18.3606 18.5775 18.4023 18.4402 18.4258 18.1533C18.45 17.8574 18.4512 17.4728 18.4512 16.9004V9.15039H5.55078V16.9004ZM4.59961 4.65039C4.30744 4.65039 4.13298 4.65059 4.00391 4.66113C3.88384 4.67097 3.87034 4.68608 3.88672 4.67773C3.83968 4.7017 3.80131 4.74007 3.77734 4.78711C3.78569 4.77073 3.77058 4.78424 3.76074 4.9043C3.7502 5.03337 3.75 5.20783 3.75 5.5V6.80078C3.75 7.09295 3.7502 7.26742 3.76074 7.39648C3.77058 7.51655 3.78569 7.53005 3.77734 7.51367C3.80131 7.56071 3.83968 7.59908 3.88672 7.62305C3.87034 7.6147 3.88384 7.62981 4.00391 7.63965C4.13298 7.65019 4.30744 7.65039 4.59961 7.65039H19.4004C19.6926 7.65039 19.867 7.65019 19.9961 7.63965C20.1162 7.62981 20.1297 7.6147 20.1133 7.62305C20.1603 7.59908 20.1987 7.56071 20.2227 7.51367C20.2143 7.53005 20.2294 7.51655 20.2393 7.39648C20.2498 7.26742 20.25 7.09295 20.25 6.80078V5.5C20.25 5.20783 20.2498 5.03337 20.2393 4.9043C20.2294 4.78424 20.2143 4.77073 20.2227 4.78711C20.1987 4.74007 20.1603 4.7017 20.1133 4.67773C20.1297 4.68608 20.1162 4.67097 19.9961 4.66113C19.867 4.65059 19.6926 4.65039 19.4004 4.65039H4.59961Z" fill="currentColor"/>
</svg>
