<svg width="24" height="24" viewBox="0 0 24 24" fill="none" xmlns="http://www.w3.org/2000/svg">
<path d="M3.75 7C4.16421 7 4.5 7.33579 4.5 7.75V11.4658L5.94824 10.1631L5.94922 10.1621C7.57055 8.70795 9.67171 7.90265 11.8496 7.90039C14.1966 7.90039 16.4478 8.83279 18.1074 10.4922C19.767 12.1518 20.7001 14.403 20.7002 16.75C20.7002 17.1641 20.3643 17.4999 19.9502 17.5C19.5361 17.4999 19.2002 17.1642 19.2002 16.75C19.2001 14.8008 18.4252 12.931 17.0469 11.5527C15.6685 10.1746 13.7987 9.40039 11.8496 9.40039C10.0417 9.40256 8.29728 10.0704 6.95117 11.2773L5.7041 12.4004H9.15039C9.56442 12.4006 9.90039 12.7363 9.90039 13.1504C9.90018 13.5643 9.56429 13.9002 9.15039 13.9004H3.75C3.7405 13.9004 3.73109 13.8988 3.72168 13.8984C3.7145 13.8982 3.70736 13.8979 3.7002 13.8975C3.66009 13.8948 3.62115 13.8886 3.58301 13.8799C3.55937 13.8745 3.53677 13.8661 3.51367 13.8584C3.49053 13.8507 3.46739 13.8438 3.44531 13.834C3.42032 13.8229 3.39691 13.8089 3.37305 13.7949C3.35597 13.7849 3.33845 13.7759 3.32227 13.7646C3.2881 13.7408 3.25515 13.7147 3.22461 13.6846C3.22133 13.6813 3.21807 13.6781 3.21484 13.6748C3.2075 13.6673 3.19948 13.6602 3.19238 13.6523C3.17001 13.6275 3.15028 13.6011 3.13184 13.5742C3.12918 13.5703 3.12661 13.5664 3.12402 13.5625C3.10746 13.5374 3.09426 13.5108 3.08105 13.4844C3.07004 13.4624 3.05963 13.4402 3.05078 13.417C3.04151 13.3926 3.03495 13.3678 3.02832 13.3428C3.02205 13.3192 3.01472 13.2959 3.01074 13.2715C3.0091 13.2614 3.00709 13.2514 3.00586 13.2412C3.00225 13.2114 3.00002 13.1811 3 13.1504V7.75C3 7.33579 3.33579 7 3.75 7Z" fill="currentColor"/>
<path d="M3.75 7C4.16421 7 4.5 7.33579 4.5 7.75V11.4658L5.94824 10.1631L5.94922 10.1621C7.57055 8.70795 9.67171 7.90265 11.8496 7.90039C14.1966 7.90039 16.4478 8.83279 18.1074 10.4922C19.767 12.1518 20.7001 14.403 20.7002 16.75C20.7002 17.1641 20.3643 17.4999 19.9502 17.5C19.5361 17.4999 19.2002 17.1642 19.2002 16.75C19.2001 14.8008 18.4252 12.931 17.0469 11.5527C15.6685 10.1746 13.7987 9.40039 11.8496 9.40039C10.0417 9.40256 8.29728 10.0704 6.95117 11.2773L5.7041 12.4004H9.15039C9.56442 12.4006 9.90039 12.7363 9.90039 13.1504C9.90018 13.5643 9.56429 13.9002 9.15039 13.9004H3.75C3.7405 13.9004 3.73109 13.8988 3.72168 13.8984C3.7145 13.8982 3.70736 13.8979 3.7002 13.8975C3.66009 13.8948 3.62115 13.8886 3.58301 13.8799C3.55937 13.8745 3.53677 13.8661 3.51367 13.8584C3.49053 13.8507 3.46739 13.8438 3.44531 13.834C3.42032 13.8229 3.39691 13.8089 3.37305 13.7949C3.35597 13.7849 3.33845 13.7759 3.32227 13.7646C3.2881 13.7408 3.25515 13.7147 3.22461 13.6846C3.22133 13.6813 3.21807 13.6781 3.21484 13.6748C3.2075 13.6673 3.19948 13.6602 3.19238 13.6523C3.17001 13.6275 3.15028 13.6011 3.13184 13.5742C3.12918 13.5703 3.12661 13.5664 3.12402 13.5625C3.10746 13.5374 3.09426 13.5108 3.08105 13.4844C3.07004 13.4624 3.05963 13.4402 3.05078 13.417C3.04151 13.3926 3.03495 13.3678 3.02832 13.3428C3.02205 13.3192 3.01472 13.2959 3.01074 13.2715C3.0091 13.2614 3.00709 13.2514 3.00586 13.2412C3.00225 13.2114 3.00002 13.1811 3 13.1504V7.75C3 7.33579 3.33579 7 3.75 7Z" fill="currentColor"/>
</svg>
