<svg width="24" height="24" viewBox="0 0 24 24" fill="none" xmlns="http://www.w3.org/2000/svg">
<path d="M14.1709 8.77055C14.4638 8.47788 14.9386 8.47773 15.2314 8.77055C15.5239 9.0634 15.524 9.53829 15.2314 9.8311L13.0615 12.001L15.2314 14.1709C15.5239 14.4639 15.5242 14.9387 15.2314 15.2315C14.9387 15.5242 14.4638 15.524 14.1709 15.2315L12.001 13.0616L9.83105 15.2315C9.53825 15.5241 9.06336 15.524 8.77051 15.2315C8.47768 14.9387 8.47781 14.4639 8.77051 14.1709L10.9404 12.001L8.77051 9.8311C8.47761 9.5382 8.47761 9.06344 8.77051 8.77055C9.0634 8.47768 9.53817 8.47767 9.83105 8.77055L12.001 10.9405L14.1709 8.77055Z" fill="currentColor"/>
<path fill-rule="evenodd" clip-rule="evenodd" d="M8.04297 2.44633C8.67496 2.18456 9.38559 2.18455 10.0176 2.44633L11.5869 3.09672C11.8514 3.20599 12.1478 3.20542 12.4121 3.09575L12.4131 3.09477L13.9834 2.44828C14.6153 2.18665 15.3261 2.18558 15.958 2.44731C16.5897 2.70905 17.0917 3.2112 17.3535 3.84282L17.999 5.40434C18.0002 5.4071 18.0027 5.40939 18.0039 5.41215C18.1133 5.67661 18.3236 5.88639 18.5879 5.99614L20.1582 6.64653C20.7901 6.90834 21.292 7.41112 21.5537 8.04301C21.8154 8.67485 21.8153 9.38478 21.5537 10.0166L20.9033 11.587C20.7937 11.8517 20.7938 12.1489 20.9033 12.4122L20.9043 12.4141L21.5537 13.9834C21.6833 14.2962 21.7499 14.6312 21.75 14.9698C21.7501 15.3085 21.6833 15.6441 21.5537 15.9571C21.424 16.2701 21.2338 16.5554 20.9941 16.795C20.7547 17.0343 20.4701 17.224 20.1572 17.3536L18.5869 18.0039C18.3225 18.1133 18.1127 18.3237 18.0029 18.5879L17.3525 20.1573C17.0908 20.7893 16.5881 21.2919 15.9561 21.5538C15.3242 21.8154 14.6143 21.8154 13.9824 21.5538L12.4121 20.9034C12.181 20.8082 11.9246 20.7962 11.6875 20.8682L11.5869 20.9043L10.0156 21.5547C9.38403 21.8158 8.67437 21.8153 8.04297 21.5538C7.41153 21.2922 6.90941 20.7905 6.64746 20.1592L5.99707 18.5879C5.88771 18.3235 5.67731 18.1127 5.41309 18.003L3.84277 17.3526C3.21113 17.0909 2.70912 16.5887 2.44727 15.9571C2.18549 15.3255 2.18508 14.6153 2.44629 13.9834L3.09668 12.4141L3.13281 12.3135C3.2043 12.0761 3.19149 11.82 3.0957 11.5889V11.587L2.44629 10.0166L2.36133 9.77739C2.28789 9.5353 2.25008 9.28324 2.25 9.02934C2.24996 8.69051 2.31663 8.3541 2.44629 8.04106C2.57596 7.72814 2.76631 7.44363 3.00586 7.20414C3.24538 6.96474 3.52989 6.77509 3.84277 6.64555L5.41211 5.99516C5.67581 5.88605 5.88615 5.67648 5.99609 5.41313L6.64746 3.84282C6.90926 3.21083 7.41098 2.70812 8.04297 2.44633ZM9.44336 3.83207C9.17898 3.72257 8.88158 3.72262 8.61719 3.83207C8.35288 3.94156 8.14281 4.15179 8.0332 4.41606L7.38184 5.98735C7.15221 6.53923 6.73936 6.9931 6.2168 7.2725L5.98633 7.3809L4.41699 8.03129C4.28612 8.08545 4.16662 8.1646 4.06641 8.26469C3.96617 8.3649 3.8863 8.48433 3.83203 8.61528C3.77782 8.74616 3.75003 8.8867 3.75 9.02836C3.75002 9.16996 3.77788 9.31062 3.83203 9.44145L3.83301 9.44243L4.48145 11.0137L4.56738 11.2539C4.71489 11.7406 4.71522 12.2603 4.56836 12.7471L4.48242 12.9873L3.83301 14.5567C3.72369 14.8211 3.72345 15.1185 3.83301 15.3829C3.9426 15.6471 4.15269 15.8573 4.41699 15.9668L5.9873 16.6172C6.61876 16.8794 7.12147 17.3819 7.38281 18.0137L8.0332 19.584C8.14283 19.8482 8.35295 20.0585 8.61719 20.168C8.88137 20.2774 9.17813 20.2772 9.44238 20.168L11.0127 19.5186L11.2529 19.4327C11.7395 19.2852 12.2593 19.2848 12.7461 19.4317L12.9863 19.5176L14.5557 20.168C14.82 20.2775 15.1175 20.2774 15.3818 20.168C15.6462 20.0585 15.8572 19.8484 15.9668 19.584L16.6172 18.0127C16.8795 17.3815 17.382 16.8795 18.0137 16.6182L19.583 15.9678L19.6787 15.9219C19.7722 15.872 19.8584 15.8086 19.9336 15.7334C20.0337 15.6333 20.1138 15.5146 20.168 15.3838C20.2222 15.2528 20.25 15.1116 20.25 14.9698C20.2499 14.8634 20.2339 14.7577 20.2031 14.6563L20.167 14.5567L19.5186 12.9883C19.2553 12.3555 19.256 11.6445 19.5176 11.0127L20.168 9.4434C20.2774 9.17904 20.2774 8.88161 20.168 8.61723C20.0584 8.35281 19.8484 8.14182 19.584 8.03227L18.0127 7.38188C17.3901 7.12332 16.8942 6.63113 16.6299 6.01176C16.6263 6.00392 16.6215 5.99634 16.6182 5.98832L15.9678 4.41703C15.8582 4.15279 15.648 3.94255 15.3838 3.83305C15.1194 3.72356 14.822 3.72362 14.5576 3.83305L14.5566 3.83403L12.9854 4.48051L12.9863 4.48149C12.3549 4.74333 11.6455 4.74342 11.0137 4.48246L9.44336 3.83207Z" fill="currentColor"/>
</svg>
