<svg width="24" height="24" viewBox="0 0 24 24" fill="none" xmlns="http://www.w3.org/2000/svg">
<path d="M11.8096 6C11.8096 5.86193 11.6976 5.75 11.5596 5.75H6C5.86193 5.75 5.75 5.86193 5.75 6V9.40039C5.75021 9.53828 5.86206 9.65039 6 9.65039H11.5596C11.6975 9.65039 11.8094 9.53828 11.8096 9.40039V6ZM13.3096 9.40039C13.3094 10.3667 12.5259 11.1504 11.5596 11.1504H6C5.03363 11.1504 4.25021 10.3667 4.25 9.40039V6C4.25 5.0335 5.0335 4.25 6 4.25H11.5596C12.5261 4.25 13.3096 5.0335 13.3096 6V9.40039Z" fill="currentColor"/>
<path d="M17.9111 15C17.9111 14.8619 17.7992 14.75 17.6611 14.75H12.1016C11.9635 14.75 11.8516 14.8619 11.8516 15V18.4004C11.8518 18.5383 11.9636 18.6504 12.1016 18.6504H17.6611C17.7991 18.6504 17.9109 18.5383 17.9111 18.4004V15ZM19.4111 18.4004C19.4109 19.3667 18.6275 20.1504 17.6611 20.1504H12.1016C11.1352 20.1504 10.3518 19.3667 10.3516 18.4004V15C10.3516 14.0335 11.1351 13.25 12.1016 13.25H17.6611C18.6276 13.25 19.4111 14.0335 19.4111 15V18.4004Z" fill="currentColor"/>
</svg>
