<svg width="24" height="24" viewBox="0 0 24 24" fill="none" xmlns="http://www.w3.org/2000/svg">
<path d="M15.5996 17.5508C16.0138 17.5508 16.3496 17.8866 16.3496 18.3008V21.001C16.3495 21.4151 16.0138 21.751 15.5996 21.751C15.1855 21.751 14.8497 21.4151 14.8496 21.001V18.3008C14.8496 17.8866 15.1854 17.5508 15.5996 17.5508Z" fill="currentColor"/>
<path d="M5.32227 11.2451C5.61513 10.9523 6.08993 10.9523 6.38281 11.2451C6.67552 11.538 6.6756 12.0128 6.38281 12.3057L4.85352 13.835L4.72754 13.9727C4.11717 14.6714 3.78594 15.5738 3.80176 16.5059C3.81875 17.4996 4.22863 18.4462 4.94238 19.1377L5.07617 19.2607C5.75902 19.8582 6.63742 20.1894 7.54883 20.1895C8.52116 20.1894 9.45635 19.8127 10.1562 19.1377L11.6855 17.6084C11.9784 17.3156 12.4532 17.3155 12.7461 17.6084C13.0386 17.9013 13.0388 18.3762 12.7461 18.6689L11.1973 20.2178L11.1963 20.2168C10.2168 21.1612 8.90941 21.6894 7.54883 21.6895C6.18824 21.6893 4.88079 21.1612 3.90137 20.2168L3.90039 20.2158C2.90052 19.2478 2.32548 17.9228 2.30176 16.5312C2.27814 15.1396 2.80788 13.7955 3.77441 12.7939L3.7832 12.7842L5.32227 11.2451Z" fill="currentColor"/>
<path d="M21.001 14.8496C21.4151 14.8497 21.751 15.1855 21.751 15.5996C21.751 16.0138 21.4151 16.3495 21.001 16.3496H18.3008C17.8866 16.3496 17.5508 16.0138 17.5508 15.5996C17.5508 15.1854 17.8866 14.8496 18.3008 14.8496H21.001Z" fill="currentColor"/>
<path d="M16.4512 2.31055C17.7266 2.31065 18.9555 2.77437 19.9111 3.61035L20.0986 3.7832L20.0996 3.78418C21.0995 4.75234 21.6746 6.07809 21.6982 7.46973C21.7208 8.80717 21.2311 10.0992 20.335 11.0869C20.3056 11.1331 20.2733 11.1781 20.2334 11.2178L18.6855 12.7568C18.3919 13.0487 17.9171 13.0472 17.625 12.7539C17.333 12.4602 17.3342 11.9854 17.6279 11.6934L19.0693 10.2588C19.0921 10.2259 19.1181 10.1945 19.1465 10.165C19.8369 9.44955 20.216 8.48928 20.1992 7.49512C20.1823 6.50118 19.7716 5.55397 19.0576 4.8623C18.3578 4.18757 17.4233 3.81066 16.4512 3.81055C15.4827 3.81055 14.5506 4.1837 13.8516 4.85352L13.8525 4.85449L12.3037 6.39355C12.01 6.68544 11.5352 6.68425 11.2432 6.39062C10.9513 6.09686 10.9534 5.62205 11.2471 5.33008L12.7949 3.79102L12.8027 3.7832L12.9902 3.61035C13.946 2.77419 15.1756 2.31055 16.4512 2.31055Z" fill="currentColor"/>
<path d="M5.7002 7.65039C6.11432 7.6505 6.4502 7.98624 6.4502 8.40039C6.4502 8.81454 6.11432 9.15029 5.7002 9.15039H3C2.58579 9.15039 2.25 8.8146 2.25 8.40039C2.25 7.98618 2.58579 7.65039 3 7.65039H5.7002Z" fill="currentColor"/>
<path d="M8.40039 2.25C8.8146 2.25 9.15039 2.58579 9.15039 3V5.7002C9.15029 6.11432 8.81454 6.4502 8.40039 6.4502C7.98624 6.4502 7.6505 6.11432 7.65039 5.7002V3C7.65039 2.58579 7.98618 2.25 8.40039 2.25Z" fill="currentColor"/>
</svg>
