<svg width="24" height="24" viewBox="0 0 24 24" fill="none" xmlns="http://www.w3.org/2000/svg">
<path fill-rule="evenodd" clip-rule="evenodd" d="M3.46857 3.46935C3.7614 3.17652 4.23621 3.17666 4.52912 3.46935L20.5291 19.4693C20.822 19.7622 20.822 20.237 20.5291 20.5299C20.2362 20.8226 19.7614 20.8227 19.4686 20.5299L15.4627 16.524L15.2244 17.7213C15.1417 18.1351 15.0703 18.4969 14.9871 18.777C14.9061 19.0497 14.7789 19.3774 14.5037 19.6217C14.143 19.9416 13.66 20.0872 13.1824 20.0211C12.8179 19.9706 12.5301 19.7695 12.3113 19.5875C12.0868 19.4006 11.8266 19.1379 11.5281 18.8395L8.86994 16.1813L4.30939 20.7428C4.01654 21.0354 3.54167 21.0354 3.24885 20.7428C2.95603 20.45 2.95619 19.9752 3.24885 19.6822L7.80939 15.1207L5.15119 12.4625C4.85287 12.1642 4.59095 11.9038 4.40412 11.6793C4.22221 11.4606 4.02104 11.1734 3.97053 10.8092C3.90445 10.3316 4.05005 9.84862 4.36994 9.4879C4.61415 9.21277 4.94192 9.08554 5.21467 9.0045C5.49468 8.92135 5.85668 8.84993 6.27033 8.7672L7.46662 8.52794L3.46857 4.52989C3.17594 4.23704 3.17591 3.76219 3.46857 3.46935ZM8.69904 9.81114L6.56428 10.2379C6.1213 10.3265 5.83992 10.383 5.64142 10.442C5.5535 10.4681 5.50598 10.4898 5.48322 10.5006C5.46629 10.5255 5.4578 10.5535 5.45783 10.5836C5.47063 10.605 5.49918 10.6491 5.55842 10.7203C5.69084 10.8794 5.89261 11.0828 6.21174 11.402L12.5887 17.7789C12.9082 18.0985 13.1121 18.3017 13.2713 18.4342C13.3419 18.4929 13.3865 18.5199 13.408 18.5328C13.4378 18.5329 13.4653 18.5259 13.4901 18.5094C13.5007 18.487 13.5222 18.4384 13.5487 18.3492C13.6076 18.1508 13.6652 17.87 13.7537 17.4274L14.1805 15.2926C14.1833 15.2787 14.1868 15.2651 14.1903 15.2516L8.73908 9.8004C8.72586 9.8038 8.71259 9.80843 8.69904 9.81114Z" fill="currentColor"/>
<path d="M13.4998 2.50841C13.8339 2.33357 14.2198 2.27765 14.5926 2.35314L14.7078 2.38146C14.968 2.45899 15.1767 2.60693 15.3455 2.74767C15.537 2.90727 15.7542 3.1251 15.9959 3.36681L20.6238 7.99572C20.8655 8.2374 21.0844 8.45466 21.244 8.64611C21.3847 8.81493 21.5327 9.02376 21.6102 9.2838L21.6395 9.39904L21.6639 9.56017C21.7019 9.93509 21.6096 10.3136 21.4012 10.6315C21.2251 10.8999 20.9758 11.0647 20.7547 11.1842C20.5356 11.3025 20.2531 11.4228 19.9393 11.5572L17.4383 12.6285C17.0577 12.7914 16.617 12.6156 16.4539 12.235C16.2908 11.8544 16.4671 11.4139 16.8475 11.2506L19.3475 10.1783C19.6878 10.0325 19.8965 9.94236 20.0418 9.86388C20.106 9.8292 20.1385 9.80466 20.1531 9.79357C20.1664 9.76756 20.172 9.7396 20.1688 9.71056C20.1587 9.69406 20.1364 9.66082 20.0916 9.60704C19.9859 9.48016 19.8254 9.31833 19.5633 9.05626L14.9344 4.42736C14.6728 4.16581 14.5123 4.00571 14.3856 3.90001C14.3311 3.85462 14.2974 3.83187 14.2811 3.82189C14.2516 3.81869 14.2224 3.82474 14.1961 3.83849C14.1848 3.85351 14.1616 3.8862 14.1278 3.94884C14.0492 4.09416 13.9583 4.30351 13.8123 4.64415L12.741 7.14318C12.5779 7.52376 12.1373 7.70062 11.7567 7.53771C11.3762 7.37441 11.2 6.93296 11.3631 6.55236L12.4344 4.05236C12.5689 3.73856 12.6891 3.45604 12.8074 3.23693C12.9269 3.01584 13.0918 2.7665 13.3602 2.59044L13.4998 2.50841Z" fill="currentColor"/>
</svg>
