<svg width="24" height="24" viewBox="0 0 24 24" fill="none" xmlns="http://www.w3.org/2000/svg">
<path fill-rule="evenodd" clip-rule="evenodd" d="M16.5996 18.4494C18.4148 18.4494 20.025 19.3271 21.0459 20.6779C21.1293 20.7883 21.2382 20.93 21.3164 21.0695C21.4099 21.2363 21.485 21.4415 21.4805 21.6935C21.4767 21.8975 21.4157 22.0821 21.3457 22.2228C21.2756 22.3636 21.1655 22.5245 21.0049 22.6506C20.7897 22.8193 20.5589 22.8745 20.374 22.8966C20.2092 22.9164 20.0165 22.9152 19.8486 22.9152H13.3506C13.1827 22.9152 12.99 22.9164 12.8252 22.8966C12.6404 22.8745 12.4094 22.8192 12.1943 22.6506C12.0338 22.5245 11.9236 22.3635 11.8535 22.2228C11.7835 22.0821 11.7225 21.8974 11.7188 21.6935C11.7143 21.4416 11.7894 21.2363 11.8828 21.0695C11.961 20.93 12.0699 20.7883 12.1533 20.6779C13.1742 19.327 14.7844 18.4494 16.5996 18.4494ZM16.5996 19.9494C15.3562 19.9494 14.2387 20.5147 13.4834 21.4152H19.7158C18.9605 20.5147 17.843 19.9494 16.5996 19.9494Z" fill="currentColor"/>
<path d="M8.34473 1.00016C8.94162 1.00016 9.43717 0.988564 9.88672 1.16032C10.2554 1.30125 10.5849 1.52907 10.8535 1.82048C11.1744 2.16878 11.3738 2.63269 11.6445 3.23259L12.2822 4.6447H16.2754C16.7735 4.6447 17.1975 4.64459 17.5439 4.67595C17.9014 4.70833 18.2452 4.77963 18.5703 4.96305C19.0603 5.23964 19.4458 5.67286 19.6826 6.18766C19.8401 6.53023 19.8971 6.91938 19.9238 7.31169C19.9508 7.7092 19.9502 8.19284 19.9502 8.75016C19.9502 8.7635 19.9489 8.77704 19.9482 8.7902C19.9492 8.8058 19.9502 8.82221 19.9502 8.83806C19.95 9.25203 19.6142 9.58796 19.2002 9.58805H10.1289C9.64891 9.58805 9.21218 9.84462 8.98438 10.2482L7.00195 13.7629C6.79837 14.1235 6.34019 14.2505 5.97949 14.047C5.61915 13.8434 5.49195 13.3861 5.69531 13.0256L7.67773 9.51091C8.17533 8.62906 9.11557 8.08806 10.1289 8.08806H18.4473C18.4448 7.82631 18.4398 7.60486 18.4268 7.41325C18.4037 7.07375 18.3608 6.90505 18.3193 6.81462C18.2057 6.56762 18.0307 6.38033 17.833 6.26872C17.7672 6.2317 17.6594 6.19282 17.4082 6.17009C17.1451 6.14629 16.8008 6.1447 16.2754 6.1447H11.7979C11.503 6.1447 11.2355 5.97203 11.1143 5.70329L10.2773 3.84977C9.96153 3.14999 9.86664 2.96367 9.75 2.83708C9.63172 2.70878 9.49472 2.61648 9.35156 2.56169C9.22191 2.51217 9.05977 2.50016 8.34473 2.50016H5.6748C5.14958 2.50016 4.80509 2.5008 4.54199 2.52458C4.29032 2.54736 4.18195 2.58711 4.11621 2.62419C3.91872 2.7358 3.74444 2.92238 3.63086 3.16911C3.58476 3.26934 3.54437 3.41848 3.52246 3.71501C3.50007 4.01863 3.5 4.41235 3.5 4.9904V15.9504C3.50011 16.6406 4.05971 17.2004 4.75 17.2004H10.1504C10.5644 17.2004 10.9002 17.5363 10.9004 17.9504C10.9003 18.3644 10.5645 18.7003 10.1504 18.7004H4.75C3.23128 18.7004 2.00011 17.4691 2 15.9504V4.9904C2 4.43468 1.99994 3.97625 2.02734 3.60466C2.05527 3.2265 2.11458 2.87483 2.26758 2.54216C2.50438 2.02749 2.88909 1.59411 3.37891 1.31755C3.7041 1.13401 4.0486 1.06282 4.40625 1.03044C4.75267 0.999083 5.17669 1.00016 5.6748 1.00016H8.34473Z" fill="currentColor"/>
<path fill-rule="evenodd" clip-rule="evenodd" d="M16.5977 12.0002C18.2404 12.0002 19.5722 13.332 19.5723 14.9748C19.5723 16.6176 18.2405 17.9494 16.5977 17.9494C14.9548 17.9494 13.623 16.6176 13.623 14.9748C13.6231 13.332 14.9549 12.0002 16.5977 12.0002ZM16.5977 13.5002C15.7833 13.5002 15.1231 14.1604 15.123 14.9748C15.123 15.7892 15.7833 16.4494 16.5977 16.4494C17.4121 16.4494 18.0723 15.7892 18.0723 14.9748C18.0722 14.1604 17.412 13.5002 16.5977 13.5002Z" fill="currentColor"/>
</svg>
