<svg width="24" height="24" viewBox="0 0 24 24" fill="none" xmlns="http://www.w3.org/2000/svg">
<path d="M11.9993 13.9502C12.4134 13.9503 12.7493 14.286 12.7493 14.7002C12.7493 15.1143 12.4134 15.4501 11.9993 15.4502C9.3947 15.4503 7.07369 16.7072 5.59206 18.668C5.4064 18.9137 5.31344 19.0399 5.25807 19.1387C5.23851 19.1736 5.23111 19.1922 5.22878 19.1992C5.22878 19.1992 5.22992 19.2041 5.23073 19.207C5.2348 19.2217 5.24162 19.2414 5.25221 19.2627C5.26245 19.2832 5.27343 19.3005 5.28249 19.3125C5.29699 19.3169 5.32663 19.3246 5.38014 19.3311C5.52526 19.3484 5.72706 19.3506 6.08425 19.3506H11.9993C12.4134 19.3507 12.7493 19.6864 12.7493 20.1006C12.7491 20.5146 12.4133 20.8505 11.9993 20.8506H6.08425C5.76364 20.8506 5.45644 20.8519 5.20143 20.8213C4.92634 20.7883 4.62998 20.7101 4.35964 20.498C4.15646 20.3386 4.00741 20.1275 3.90944 19.9307C3.81159 19.734 3.73352 19.4885 3.72878 19.2305C3.72288 18.9082 3.81711 18.6416 3.94948 18.4053C4.06648 18.1965 4.23411 17.9776 4.39577 17.7637C6.14464 15.4492 8.89813 13.9503 11.9993 13.9502Z" fill="currentColor"/>
<path fill-rule="evenodd" clip-rule="evenodd" d="M15.7581 14.5234C16.6515 13.7601 17.765 13.8165 18.596 14.3564C19.4254 13.8165 20.5296 13.77 21.428 14.5166C22.5113 15.4172 22.6397 16.9577 21.8079 18.0283C21.3805 18.5782 20.3551 19.5292 19.7258 20.0986C19.6273 20.1878 19.5199 20.2849 19.4202 20.3613C19.3108 20.4451 19.1705 20.5356 18.9885 20.5908C18.7361 20.6672 18.4577 20.6673 18.2053 20.5908C18.0234 20.5356 17.8831 20.4451 17.7737 20.3613C17.6739 20.2849 17.5665 20.1878 17.468 20.0986C16.8387 19.5291 15.8133 18.5781 15.386 18.0283C14.5477 16.9493 14.7058 15.423 15.7581 14.5234ZM18.0266 15.8281C17.6477 15.3855 17.1154 15.3363 16.7327 15.6631C16.2828 16.0477 16.2292 16.6689 16.5706 17.1084C16.8994 17.5314 17.81 18.3846 18.4749 18.9863C18.5238 19.0306 18.563 19.0657 18.5969 19.0957C18.6309 19.0657 18.6701 19.0306 18.719 18.9863C19.3838 18.3847 20.2943 17.5315 20.6233 17.1084C20.9716 16.6603 20.9143 16.04 20.469 15.6699C20.0656 15.3349 19.5406 15.392 19.1673 15.8281C19.0248 15.9945 18.816 16.0908 18.5969 16.0908C18.3779 16.0907 18.169 15.9946 18.0266 15.8281Z" fill="currentColor"/>
<path fill-rule="evenodd" clip-rule="evenodd" d="M11.9993 3.15039C14.65 3.15064 16.799 5.29947 16.7991 7.9502C16.7991 10.601 14.65 12.7498 11.9993 12.75C9.34841 12.7499 7.19948 10.6011 7.19948 7.9502C7.19959 5.29938 9.34847 3.1505 11.9993 3.15039ZM11.9993 4.65039C10.1769 4.6505 8.69959 6.12781 8.69948 7.9502C8.69948 9.77267 10.1768 11.2499 11.9993 11.25C13.8216 11.2498 15.2991 9.77258 15.2991 7.9502C15.299 6.1279 13.8216 4.65064 11.9993 4.65039Z" fill="currentColor"/>
</svg>
