<svg width="24" height="24" viewBox="0 0 24 24" fill="none" xmlns="http://www.w3.org/2000/svg">
<path d="M11.9104 13.8953C14.9846 13.8955 17.7147 15.3774 19.4483 17.6656C19.6083 17.8769 19.7747 18.0941 19.8908 18.301C20.0223 18.5352 20.1165 18.7997 20.1107 19.1196C20.1059 19.3757 20.0281 19.6195 19.9309 19.8144C19.8336 20.0094 19.6855 20.2193 19.4834 20.3777C19.2143 20.5883 18.9183 20.6656 18.6451 20.6983C18.3921 20.7285 18.0869 20.7265 17.7697 20.7265H6.05216C5.73498 20.7265 5.42978 20.7285 5.17674 20.6983C4.90355 20.6656 4.60768 20.5883 4.33845 20.3777C4.1362 20.2193 3.98834 20.0095 3.89097 19.8144C3.7937 19.6194 3.71596 19.3758 3.71119 19.1196C3.70536 18.7997 3.79953 18.5352 3.93103 18.301C4.04723 18.0942 4.21359 17.8769 4.37362 17.6656C6.10717 15.3775 8.83647 13.8955 11.9104 13.8953Z" fill="currentColor"/>
<path d="M12.3999 3.22656C15.0297 3.22671 17.161 5.3533 17.161 7.97625C17.1606 10.5989 15.0294 12.7248 12.3999 12.725C9.77043 12.7248 7.63827 10.5989 7.63789 7.97625C7.63789 5.3533 9.7702 3.2267 12.3999 3.22656Z" fill="currentColor"/>
</svg>
