<svg width="24" height="24" viewBox="0 0 24 24" fill="none" xmlns="http://www.w3.org/2000/svg">
<path fill-rule="evenodd" clip-rule="evenodd" d="M11.9993 13.9502C15.1006 13.9503 17.8549 15.4491 19.6038 17.7637C19.7654 17.9776 19.9331 18.1965 20.0501 18.4053C20.1824 18.6416 20.2767 18.9082 20.2708 19.2305C20.266 19.4886 20.187 19.7339 20.0891 19.9307C19.9912 20.1274 19.843 20.3386 19.6399 20.498C19.3697 20.7101 19.0731 20.7883 18.7981 20.8213C18.5432 20.8519 18.2359 20.8506 17.9153 20.8506H6.08425C5.76364 20.8506 5.45644 20.8519 5.20143 20.8213C4.92634 20.7883 4.62998 20.7101 4.35964 20.498C4.15646 20.3386 4.00741 20.1275 3.90944 19.9307C3.81159 19.734 3.73352 19.4885 3.72878 19.2305C3.72288 18.9082 3.81711 18.6416 3.94948 18.4053C4.06648 18.1965 4.23411 17.9776 4.39577 17.7637C6.14464 15.4492 8.89813 13.9503 11.9993 13.9502ZM11.9993 15.4502C9.3947 15.4503 7.07369 16.7072 5.59206 18.668C5.4064 18.9137 5.31344 19.0399 5.25807 19.1387C5.23851 19.1736 5.23111 19.1922 5.22878 19.1992C5.22878 19.1992 5.22992 19.2041 5.23073 19.207C5.2348 19.2217 5.24162 19.2414 5.25221 19.2627C5.26245 19.2832 5.27343 19.3005 5.28249 19.3125C5.29699 19.3169 5.32663 19.3246 5.38014 19.3311C5.52526 19.3484 5.72706 19.3506 6.08425 19.3506H17.9153C18.2724 19.3506 18.4743 19.3485 18.6194 19.3311C18.672 19.3247 18.7014 19.3169 18.7161 19.3125C18.7252 19.3005 18.7361 19.2834 18.7464 19.2627C18.757 19.2413 18.7648 19.2217 18.7688 19.207C18.7695 19.2046 18.7698 19.2002 18.7698 19.2002C18.7677 19.1938 18.7617 19.1747 18.7415 19.1387C18.6861 19.0398 18.5924 18.9139 18.4065 18.668C16.9248 16.7071 14.604 15.4503 11.9993 15.4502Z" fill="currentColor"/>
<path fill-rule="evenodd" clip-rule="evenodd" d="M11.9993 3.15039C14.65 3.15064 16.799 5.29947 16.7991 7.9502C16.7991 10.601 14.65 12.7498 11.9993 12.75C9.34841 12.7499 7.19948 10.6011 7.19948 7.9502C7.19959 5.29938 9.34847 3.1505 11.9993 3.15039ZM11.9993 4.65039C10.1769 4.6505 8.69959 6.12781 8.69948 7.9502C8.69948 9.77267 10.1768 11.2499 11.9993 11.25C13.8216 11.2498 15.2991 9.77258 15.2991 7.9502C15.299 6.1279 13.8216 4.65064 11.9993 4.65039Z" fill="currentColor"/>
</svg>
