<svg width="24" height="24" viewBox="0 0 24 24" fill="none" xmlns="http://www.w3.org/2000/svg">
<path d="M11.9993 13.9502C12.4134 13.9503 12.7493 14.286 12.7493 14.7002C12.7493 15.1143 12.4134 15.4501 11.9993 15.4502C9.3947 15.4503 7.07369 16.7072 5.59206 18.668C5.4064 18.9137 5.31344 19.0399 5.25807 19.1387C5.23851 19.1736 5.23111 19.1922 5.22878 19.1992C5.22878 19.1992 5.22992 19.2041 5.23073 19.207C5.2348 19.2217 5.24162 19.2414 5.25221 19.2627C5.26245 19.2832 5.27343 19.3005 5.28249 19.3125C5.29699 19.3169 5.32663 19.3246 5.38014 19.3311C5.52526 19.3484 5.72706 19.3506 6.08425 19.3506H11.9993C12.4134 19.3507 12.7493 19.6864 12.7493 20.1006C12.7491 20.5146 12.4133 20.8505 11.9993 20.8506H6.08425C5.76364 20.8506 5.45644 20.8519 5.20143 20.8213C4.92634 20.7883 4.62998 20.7101 4.35964 20.498C4.15646 20.3386 4.00741 20.1275 3.90944 19.9307C3.81159 19.734 3.73352 19.4885 3.72878 19.2305C3.72288 18.9082 3.81711 18.6416 3.94948 18.4053C4.06648 18.1965 4.23411 17.9776 4.39577 17.7637C6.14464 15.4492 8.89813 13.9503 11.9993 13.9502Z" fill="currentColor"/>
<path d="M18.301 13.9502C18.715 13.9504 19.051 14.2861 19.051 14.7002V16.6504H21.0003C21.4141 16.6508 21.7503 16.9865 21.7503 17.4004C21.7503 17.8143 21.4141 18.1499 21.0003 18.1504H19.051V20.1006C19.0508 20.5145 18.7149 20.8503 18.301 20.8506C17.887 20.8506 17.5513 20.5146 17.551 20.1006V18.1504H15.5999C15.1857 18.1504 14.8499 17.8146 14.8499 17.4004C14.8499 16.9862 15.1857 16.6504 15.5999 16.6504H17.551V14.7002C17.551 14.286 17.8868 13.9502 18.301 13.9502Z" fill="currentColor"/>
<path fill-rule="evenodd" clip-rule="evenodd" d="M11.9993 3.15039C14.65 3.15064 16.799 5.29947 16.7991 7.9502C16.7991 10.601 14.65 12.7498 11.9993 12.75C9.34841 12.7499 7.19948 10.6011 7.19948 7.9502C7.19959 5.29938 9.34847 3.1505 11.9993 3.15039ZM11.9993 4.65039C10.1769 4.6505 8.69959 6.12781 8.69948 7.9502C8.69948 9.77267 10.1768 11.2499 11.9993 11.25C13.8216 11.2498 15.2991 9.77258 15.2991 7.9502C15.299 6.1279 13.8216 4.65064 11.9993 4.65039Z" fill="currentColor"/>
</svg>
