<svg width="24" height="24" viewBox="0 0 24 24" fill="none" xmlns="http://www.w3.org/2000/svg">
<path fill-rule="evenodd" clip-rule="evenodd" d="M16.5996 17.5489C18.4149 17.5489 20.025 18.4266 21.0459 19.7775C21.1293 19.8878 21.2382 20.0296 21.3164 20.1691C21.4099 20.3359 21.485 20.5411 21.4805 20.7931C21.4767 20.9971 21.4157 21.1816 21.3457 21.3224C21.2756 21.4632 21.1655 21.6241 21.0049 21.7501C20.7898 21.9188 20.5589 21.974 20.374 21.9962C20.2092 22.016 20.0165 22.0148 19.8486 22.0148H13.3506C13.1827 22.0148 12.99 22.016 12.8252 21.9962C12.6404 21.974 12.4094 21.9188 12.1943 21.7501C12.0338 21.6241 11.9236 21.4631 11.8535 21.3224C11.7835 21.1817 11.7225 20.997 11.7188 20.7931C11.7143 20.5411 11.7894 20.3359 11.8828 20.1691C11.961 20.0295 12.0699 19.8879 12.1533 19.7775C13.1742 18.4266 14.7844 17.549 16.5996 17.5489ZM16.5996 19.0489C15.3562 19.049 14.2387 19.6142 13.4834 20.5148H19.7158C18.9605 19.6143 17.843 19.0489 16.5996 19.0489Z" fill="currentColor"/>
<path fill-rule="evenodd" clip-rule="evenodd" d="M8.87207 3.00011C9.53558 3.00011 10.0466 2.99044 10.5107 3.1505C10.8959 3.28338 11.247 3.5002 11.5381 3.78527C11.8888 4.12876 12.1086 4.5903 12.4053 5.18371L13.1133 6.59972H17.5996C18.1241 6.59972 18.5611 6.5992 18.917 6.62707C19.2812 6.6556 19.6242 6.717 19.9502 6.87511C20.5059 7.14467 20.955 7.59379 21.2246 8.14953C21.3827 8.47555 21.4441 8.81858 21.4727 9.18273C21.5005 9.53864 21.5 9.97569 21.5 10.5001C21.4998 10.9141 21.1641 11.2501 20.75 11.2501C20.3359 11.2501 20.0002 10.9141 20 10.5001C20 9.9521 19.9997 9.58367 19.9775 9.29992C19.9559 9.02439 19.9173 8.89112 19.875 8.80382C19.7525 8.55139 19.5483 8.34722 19.2959 8.22472C19.2086 8.18238 19.0754 8.14377 18.7998 8.12218C18.516 8.09998 18.1477 8.09972 17.5996 8.09972H3.5V16.7501C3.5 17.3221 3.50028 17.7063 3.52442 18.0021C3.54787 18.2891 3.5906 18.4271 3.63672 18.5177C3.75657 18.7526 3.94763 18.9438 4.18262 19.0636C4.27316 19.1097 4.41044 19.1515 4.69727 19.1749C4.99315 19.1991 5.37778 19.1993 5.9502 19.1993H9.5C9.91405 19.1993 10.2497 19.5353 10.25 19.9493C10.25 20.3635 9.91422 20.6993 9.5 20.6993H5.9502C5.40253 20.6993 4.94633 20.7004 4.5752 20.67C4.19543 20.639 3.83913 20.5713 3.50196 20.3995C2.98459 20.1359 2.56346 19.7157 2.29981 19.1984C2.128 18.8611 2.06034 18.504 2.0293 18.1241C1.99902 17.7532 2 17.2974 2 16.7501V6.95031C2 6.40273 1.99898 5.94639 2.0293 5.57531C2.06034 5.19566 2.12813 4.83914 2.29981 4.50207C2.56347 3.9847 2.98457 3.56354 3.50196 3.29992C3.83907 3.12824 4.1955 3.06044 4.5752 3.02941C4.94633 2.99909 5.40253 3.00011 5.9502 3.00011H8.87207ZM5.9502 4.50011C5.37778 4.50011 4.99315 4.50035 4.69727 4.52453C4.41036 4.54798 4.27316 4.59071 4.18262 4.63683C3.94756 4.75663 3.75656 4.94769 3.63672 5.18273C3.5906 5.27325 3.54788 5.41053 3.52442 5.69738C3.50555 5.92832 3.50195 6.21355 3.50098 6.59972H11.4365L11.0635 5.8546C10.7182 5.16413 10.6165 4.98313 10.4883 4.85753C10.3559 4.72794 10.1966 4.62887 10.0215 4.56847C9.85181 4.50997 9.64421 4.50011 8.87207 4.50011H5.9502Z" fill="currentColor"/>
<path fill-rule="evenodd" clip-rule="evenodd" d="M16.5977 11.0997C18.2405 11.0997 19.5722 12.4316 19.5723 14.0743C19.5723 15.7172 18.2405 17.0489 16.5977 17.0489C14.9548 17.0489 13.6231 15.7172 13.6231 14.0743C13.6231 12.4316 14.9549 11.0997 16.5977 11.0997ZM16.5977 12.5997C15.7833 12.5997 15.1231 13.26 15.1231 14.0743C15.1231 14.8887 15.7833 15.5489 16.5977 15.5489C17.4121 15.5489 18.0723 14.8887 18.0723 14.0743C18.0722 13.26 17.412 12.5997 16.5977 12.5997Z" fill="currentColor"/>
</svg>
