<svg width="24" height="24" viewBox="0 0 24 24" fill="none" xmlns="http://www.w3.org/2000/svg">
<path d="M2.25 11.9997C2.25006 8.97271 2.95582 6.10908 4.21191 3.56809C4.39548 3.19678 4.84548 3.04468 5.2168 3.22825C5.58799 3.41181 5.74005 3.86091 5.55664 4.23216C4.40043 6.57094 3.75006 9.208 3.75 11.9997C3.75 14.7914 4.40051 17.4285 5.55664 19.7673C5.7402 20.1386 5.58811 20.5886 5.2168 20.7722C4.84548 20.9558 4.39548 20.8037 4.21191 20.4324C2.95572 17.8912 2.25 15.027 2.25 11.9997ZM20.25 11.9997C20.2499 9.208 19.5996 6.57094 18.4434 4.23216C18.26 3.86096 18.4121 3.41184 18.7832 3.22825C19.1545 3.04468 19.6045 3.19678 19.7881 3.56809C21.0442 6.10909 21.7499 8.97268 21.75 11.9997C21.75 15.027 21.0443 17.8912 19.7881 20.4324C19.6045 20.8037 19.1545 20.9558 18.7832 20.7722C18.412 20.5886 18.2598 20.1386 18.4434 19.7673C19.5995 17.4285 20.25 14.7915 20.25 11.9997ZM10.2979 8.21263C11.0851 8.21263 11.7737 8.73699 11.9883 9.49192L12.4033 10.9529L13.9131 9.18333C14.4377 8.56807 15.2044 8.21275 16.0127 8.21263H16.0938C16.508 8.21263 16.8438 8.54841 16.8438 8.96263C16.8438 9.37684 16.508 9.71263 16.0938 9.71263H16.0127C15.6454 9.71275 15.2953 9.87404 15.0547 10.156L12.8955 12.6872L13.585 15.1111C13.6176 15.2253 13.72 15.3005 13.832 15.3005H15.0869C15.501 15.3007 15.8369 15.6364 15.8369 16.0505C15.8367 16.4645 15.5009 16.8004 15.0869 16.8005H13.832C13.0449 16.8005 12.3562 16.276 12.1416 15.5212L11.7256 14.0593L10.2168 15.8298C9.69217 16.4449 8.92541 16.8004 8.11719 16.8005H8.03613C7.62205 16.8005 7.28634 16.4646 7.28613 16.0505C7.28613 15.6363 7.62192 15.3005 8.03613 15.3005H8.11719C8.48469 15.3004 8.83457 15.1383 9.0752 14.8562L11.2334 12.3249L10.5449 9.90208C10.5124 9.78767 10.41 9.71263 10.2979 9.71263H9.04297C8.62893 9.71241 8.29297 9.37671 8.29297 8.96263C8.29297 8.54854 8.62893 8.21284 9.04297 8.21263H10.2979Z" fill="currentColor"/>
</svg>
