<svg width="24" height="24" viewBox="0 0 24 24" fill="none" xmlns="http://www.w3.org/2000/svg">
<path fill-rule="evenodd" clip-rule="evenodd" d="M2.92835 11.9C2.92808 11.7796 2.90443 11.6592 2.85738 11.5459L2.20809 9.97378C2.07092 9.64269 2.00006 9.28729 2 8.92891C1.99994 8.57034 2.07054 8.21527 2.20775 7.88399C2.34497 7.5527 2.54612 7.25171 2.79971 6.99819C3.05322 6.74474 3.35419 6.54372 3.6854 6.40661L5.25494 5.75646C5.48225 5.66247 5.66354 5.48198 5.75817 5.25493L6.40847 3.68492C6.68547 3.01615 7.2168 2.48479 7.88557 2.20777C8.55435 1.93074 9.30578 1.93074 9.97455 2.20777L11.5434 2.85761C11.771 2.9516 12.0269 2.95148 12.2544 2.85708L12.2562 2.85634L13.8264 2.20873C14.4949 1.93208 15.2465 1.93199 15.915 2.20888C16.5836 2.48585 17.1149 3.01705 17.3919 3.68566L18.0266 5.21797C18.0322 5.23006 18.0376 5.24233 18.0428 5.25477C18.1369 5.48232 18.3174 5.66322 18.5447 5.75777L20.1151 6.40829C20.7839 6.68532 21.3152 7.21667 21.5922 7.88545C21.8693 8.55423 21.8693 9.30565 21.5922 9.97443L20.9421 11.544C20.8949 11.658 20.8713 11.7795 20.8713 11.9003C20.8713 12.0211 20.8949 12.142 20.9421 12.256L21.5922 13.8256C21.8693 14.4943 21.8693 15.2458 21.5922 15.9146C21.3152 16.5833 20.7839 17.1147 20.1151 17.3917L18.5447 18.0422C18.3174 18.1368 18.1369 18.3177 18.0428 18.5452C18.0376 18.5577 18.0322 18.5699 18.0266 18.582L17.3919 20.1143C17.1149 20.7829 16.5836 21.3141 15.915 21.5911C15.2465 21.868 14.4949 21.8679 13.8264 21.5913L12.2562 20.9437L12.2544 20.9429C12.0269 20.8485 11.771 20.8484 11.5434 20.9424L9.97455 21.5922C9.30578 21.8693 8.55435 21.8693 7.88557 21.5922C7.2168 21.3152 6.68547 20.7839 6.40847 20.1151L5.75817 18.5451C5.66354 18.318 5.48225 18.1375 5.25494 18.0435L3.6854 17.3934C3.35419 17.2563 3.05322 17.0553 2.79971 16.8018C2.54612 16.5483 2.34497 16.2473 2.20775 15.916C2.07054 15.5847 1.99994 15.2297 2 14.8711C2.00006 14.5127 2.07092 14.1573 2.20809 13.8262L2.85738 12.2541C2.90443 12.1408 2.92808 12.0204 2.92835 11.9ZM15.6864 10.2864C16.0379 9.93492 16.0379 9.36508 15.6864 9.0136C15.3349 8.66213 14.7651 8.66213 14.4136 9.0136L11 12.4272L9.8364 11.2636C9.48492 10.9121 8.91508 10.9121 8.5636 11.2636C8.21213 11.6151 8.21213 12.1849 8.5636 12.5364L10.3636 14.3364C10.7151 14.6879 11.2849 14.6879 11.6364 14.3364L15.6864 10.2864Z" fill="currentColor"/>
</svg>
