<svg width="24" height="24" viewBox="0 0 24 24" fill="none" xmlns="http://www.w3.org/2000/svg">
<path d="M11.4796 3.07991C11.8645 2.95546 12.284 2.97643 12.6574 3.14241C12.9792 3.28554 13.1936 3.53941 13.3517 3.76252C13.5118 3.98865 13.6849 4.28941 13.882 4.62971L21.2843 17.4158C21.4822 17.7576 21.6578 18.0591 21.7745 18.3114C21.8895 18.56 22.0035 18.8734 21.9669 19.2244C21.9183 19.6897 21.6744 20.1124 21.296 20.3875C21.0105 20.595 20.6821 20.6535 20.4093 20.6785C20.1326 20.7039 19.7844 20.703 19.3898 20.703H4.58509C4.19025 20.703 3.84137 20.7039 3.56458 20.6785C3.29174 20.6535 2.96335 20.5951 2.67786 20.3875C2.29955 20.1124 2.05555 19.6897 2.00696 19.2244C1.97038 18.8735 2.08438 18.56 2.19934 18.3114C2.31604 18.0591 2.49178 17.7575 2.68958 17.4158L10.0919 4.62971C10.2889 4.28953 10.4621 3.98863 10.6222 3.76252C10.7802 3.53951 10.995 3.28558 11.3165 3.14241L11.4796 3.07991Z" fill="currentColor"/>
<path d="M10.7366 13.104V8.60397C10.7366 7.91362 11.2962 7.35397 11.9866 7.35397C12.6769 7.35397 13.2366 7.91362 13.2366 8.60397V13.104C13.2366 13.7943 12.6769 14.354 11.9866 14.354C11.2962 14.354 10.7366 13.7943 10.7366 13.104Z" fill="white"/>
<path d="M11.9954 15.854C12.6857 15.854 13.2454 16.4136 13.2454 17.104C13.2454 17.7943 12.6857 18.354 11.9954 18.354H11.9866C11.2962 18.354 10.7366 17.7943 10.7366 17.104C10.7366 16.4136 11.2962 15.854 11.9866 15.854H11.9954Z" fill="white"/>
</svg>
