<svg width="24" height="24" viewBox="0 0 24 24" fill="none" xmlns="http://www.w3.org/2000/svg">
<path d="M20.25 16.4505C20.25 15.6946 19.9495 14.9693 19.415 14.4348C18.8807 13.9005 18.1561 13.6 17.4004 13.5999C16.3618 13.5999 14.8487 13.3284 14.1592 12.0667L11.3418 6.90945C11.1434 6.54596 11.2772 6.0904 11.6406 5.89187C12.0041 5.69342 12.4597 5.82723 12.6582 6.1907L15.4756 11.3479C15.7403 11.8318 16.4593 12.0999 17.4004 12.0999C18.5539 12.1 19.6599 12.5587 20.4756 13.3743C21.2914 14.1901 21.75 15.2968 21.75 16.4505C21.7499 17.604 21.2913 18.71 20.4756 19.5257C19.6599 20.3413 18.5539 20.8 17.4004 20.8001C16.9862 20.8001 16.6504 20.4643 16.6504 20.0501C16.6504 19.6359 16.9862 19.3001 17.4004 19.3001C18.1561 19.3 18.8807 18.9995 19.415 18.4651C19.9494 17.9307 20.2499 17.2062 20.25 16.4505ZM2.875 14.2561C3.09248 13.904 3.55385 13.7948 3.90625 14.012C4.25882 14.2294 4.36878 14.6916 4.15137 15.0442C3.8944 15.461 3.7572 15.9572 3.75 16.4612C3.7527 17.0928 3.9655 17.7055 4.35449 18.2034C4.74571 18.7041 5.29269 19.0601 5.90918 19.2141C6.52584 19.3681 7.177 19.3111 7.75781 19.053C8.33846 18.7948 8.81637 18.3501 9.11523 17.7893L9.12012 17.7796C9.6183 16.8772 10.5753 15.682 12.0088 15.6819H17.4004C17.8143 15.6821 18.1503 16.0179 18.1504 16.4319C18.1504 16.846 17.8144 17.1817 17.4004 17.1819H12.0088C11.4625 17.182 10.8893 17.6789 10.4336 18.5042L10.4326 18.5032C9.97611 19.3549 9.2504 20.0314 8.36719 20.4241C7.48069 20.8181 6.48712 20.9042 5.5459 20.6692C4.60485 20.4342 3.76904 19.8916 3.17188 19.1272C2.57467 18.3628 2.25032 17.4205 2.25 16.4505V16.4397L2.26367 16.1555C2.31574 15.494 2.51726 14.8362 2.875 14.2561ZM11.4414 2.23757C12.0171 2.16042 12.6027 2.20008 13.1631 2.3528C13.7235 2.50554 14.2481 2.76862 14.7051 3.12722C15.162 3.4858 15.5426 3.93269 15.8242 4.4407C16.0248 4.80292 15.8934 5.25946 15.5312 5.46023C15.169 5.66076 14.7125 5.52941 14.5117 5.16726C14.3272 4.83463 14.0785 4.54173 13.7793 4.30691C13.4799 4.07196 13.1357 3.90014 12.7686 3.80007C12.4014 3.70003 12.0178 3.67434 11.6406 3.72488C11.2635 3.77545 10.9001 3.90085 10.5723 4.09402C10.2445 4.28721 9.95839 4.54445 9.73145 4.84988C9.50465 5.15519 9.34134 5.50289 9.25098 5.87234C9.1606 6.24203 9.1456 6.62647 9.20605 7.00222C9.26633 7.3768 9.39984 7.73597 9.60059 8.05788C9.90116 8.52055 10.1779 9.08123 10.3066 9.678C10.4372 10.2832 10.4239 10.9695 10.0752 11.6077L10.0742 11.6067L7.25977 16.8069C7.06257 17.1711 6.60736 17.3067 6.24316 17.1096C5.87896 16.9124 5.74326 16.4573 5.94043 16.093L8.75781 10.8909L8.75879 10.8889C8.88709 10.6541 8.9185 10.3589 8.83984 9.99441C8.7602 9.62538 8.57598 9.23102 8.33887 8.86745C8.3363 8.86352 8.33354 8.85972 8.33105 8.85573C8.0231 8.36322 7.81688 7.81399 7.72461 7.2405C7.63236 6.6671 7.65607 6.08104 7.79395 5.51687C7.93185 4.95276 8.18105 4.42151 8.52734 3.95534C8.87368 3.48923 9.31029 3.09689 9.81055 2.80202C10.3109 2.50716 10.8657 2.31474 11.4414 2.23757Z" fill="currentColor"/>
</svg>
