<svg width="24" height="24" viewBox="0 0 24 24" fill="none" xmlns="http://www.w3.org/2000/svg">
<path fill-rule="evenodd" clip-rule="evenodd" d="M17.6006 2.25C17.8681 2.25 18.114 2.24993 18.3184 2.26661C18.5314 2.28401 18.7649 2.32319 18.9951 2.44043C19.3242 2.60813 19.592 2.87601 19.7598 3.20508C19.8771 3.43528 19.9171 3.66879 19.9346 3.88184C19.9513 4.08612 19.9512 4.33212 19.9512 4.59961V19.4004C19.9512 19.6679 19.9513 19.9139 19.9346 20.1182C19.9171 20.3312 19.8771 20.5647 19.7598 20.7949C19.592 21.124 19.3243 21.3919 18.9951 21.5596C18.7649 21.6768 18.5314 21.716 18.3184 21.7334C18.114 21.7501 17.8681 21.75 17.6006 21.75H8.00098C7.45331 21.75 6.99711 21.751 6.62598 21.7207C6.24625 21.6897 5.88988 21.6219 5.55274 21.4502C5.0353 21.1865 4.61424 20.7655 4.35059 20.2481C4.17888 19.9109 4.11111 19.5545 4.08008 19.1748C4.06036 18.9334 4.05484 18.656 4.05274 18.3408C4.052 18.3273 4.05079 18.3136 4.05079 18.2998V6.2002C4.05079 5.65253 4.04976 5.19633 4.08008 4.8252C4.11111 4.44547 4.17888 4.0891 4.35059 3.75196C4.61424 3.23451 5.0353 2.81346 5.55274 2.54981C5.88988 2.3781 6.24625 2.31033 6.62598 2.2793C6.99711 2.24898 7.45331 2.25 8.00098 2.25H17.6006ZM7.50098 16.3496C6.79986 16.3496 6.60312 16.3568 6.46192 16.3965C6.04338 16.5145 5.71572 16.8422 5.59766 17.2607C5.5604 17.3932 5.55269 17.5745 5.55176 18.1748C5.55286 18.5487 5.55673 18.8266 5.5752 19.0527C5.59866 19.3397 5.64137 19.4768 5.6875 19.5674C5.80733 19.8025 5.99829 19.9935 6.2334 20.1133C6.32394 20.1594 6.46106 20.2021 6.74805 20.2256C7.04393 20.2498 7.42856 20.25 8.00098 20.25H17.6006C17.8928 20.25 18.0672 20.2498 18.1963 20.2393C18.3162 20.2295 18.3306 20.2145 18.3145 20.2227C18.3614 20.1987 18.3999 20.1603 18.4238 20.1133C18.4155 20.1297 18.4296 20.1161 18.4395 19.9961C18.45 19.867 18.4512 19.6926 18.4512 19.4004V16.3496H7.50098ZM8.00098 3.75C7.42856 3.75 7.04393 3.75024 6.74805 3.77442C6.46106 3.79788 6.32394 3.84059 6.2334 3.88672C5.99829 4.00655 5.80733 4.19751 5.6875 4.43262C5.64137 4.52316 5.59866 4.66028 5.5752 4.94727C5.55103 5.24315 5.55079 5.62778 5.55079 6.2002V15.1504C5.71019 15.069 5.87881 15.0027 6.05469 14.9531C6.44587 14.8429 6.90086 14.8496 7.50098 14.8496H18.4512V4.59961C18.4512 4.30745 18.45 4.13298 18.4395 4.00391C18.4296 3.88392 18.4155 3.87036 18.4238 3.88672C18.3999 3.83975 18.3614 3.80132 18.3145 3.77735C18.3306 3.78551 18.3162 3.77055 18.1963 3.76075C18.0672 3.75022 17.8928 3.75 17.6006 3.75H8.00098Z" fill="currentColor"/>
</svg>
