<svg width="24" height="24" viewBox="0 0 24 24" fill="none" xmlns="http://www.w3.org/2000/svg">
<path d="M12.2515 4.84572C12.4116 4.8464 12.6425 4.84794 12.9228 4.85068C13.4836 4.85616 14.2475 4.86641 15.0565 4.88835C15.8646 4.91028 16.7242 4.94348 17.4749 4.99346C18.2059 5.04214 18.894 5.1106 19.3241 5.21556C19.3329 5.21771 19.3422 5.22005 19.3509 5.2225C19.8708 5.3696 20.343 5.65178 20.7192 6.03953C21.0483 6.37888 21.2939 6.78902 21.4381 7.23731L21.4936 7.43165L21.5045 7.48123C21.7759 8.98588 21.9083 10.5124 21.8992 12.0413L21.8942 12.6065C21.8689 13.9256 21.7387 15.2409 21.5045 16.5399C21.5015 16.5566 21.4977 16.5741 21.4936 16.5905C21.3624 17.1145 21.0953 17.5949 20.7192 17.9826C20.343 18.3704 19.8708 18.6526 19.3509 18.7997L19.34 18.8026C18.9038 18.9191 18.2104 18.9933 17.4799 19.0466C16.7278 19.1014 15.867 19.1375 15.0585 19.1616C14.2488 19.1856 13.4839 19.1982 12.9228 19.2042C12.6423 19.2072 12.4117 19.2084 12.2515 19.2092C12.1717 19.2095 12.1088 19.2101 12.0661 19.2102H11.9332C11.8904 19.2101 11.8275 19.2095 11.7478 19.2092C11.5875 19.2084 11.3569 19.2072 11.0765 19.2042C10.5153 19.1982 9.75045 19.1856 8.94073 19.1616C8.13219 19.1375 7.27144 19.1014 6.51939 19.0466C5.78883 18.9933 5.09531 18.9192 4.65926 18.8026L4.6543 18.8007C4.14526 18.6612 3.67997 18.3926 3.30482 18.0213C2.92973 17.6499 2.65617 17.1874 2.51159 16.6797C2.50478 16.6558 2.49915 16.6309 2.49473 16.6064C2.22294 15.0995 2.09049 13.5705 2.1001 12.0393C2.09312 10.5224 2.22553 9.00786 2.49473 7.51494L2.50564 7.46438C2.63686 6.94044 2.90401 6.45999 3.28003 6.07225C3.65619 5.68446 4.12853 5.40238 4.64835 5.25522L4.65926 5.25225C5.09531 5.13569 5.78883 5.06163 6.51939 5.00833C7.27144 4.95348 8.13219 4.91734 8.94073 4.89331C9.75045 4.86925 10.5153 4.85668 11.0765 4.85068C11.3569 4.84768 11.5875 4.84647 11.7478 4.84572C11.8275 4.84534 11.8904 4.84482 11.9332 4.84473H12.0661C12.1087 4.84481 12.1718 4.84538 12.2515 4.84572Z" fill="#FF0000"/>
<path d="M9.97513 9.86812C9.97513 9.39084 9.97513 9.15219 10.0749 9.01897C10.1618 8.90286 10.2948 8.83023 10.4395 8.81989C10.6055 8.80804 10.8063 8.93708 11.2077 9.19518L14.5283 11.3298C14.8767 11.5538 15.0509 11.6658 15.1111 11.8082C15.1636 11.9326 15.1636 12.073 15.1111 12.1974C15.0509 12.3398 14.8767 12.4518 14.5283 12.6757L11.2077 14.8104C10.8063 15.0685 10.6055 15.1975 10.4395 15.1857C10.2948 15.1754 10.1618 15.1027 10.0749 14.9866C9.97513 14.8534 9.97513 14.6147 9.97513 14.1375V9.86812Z" fill="white"/>
</svg>
