<svg width="24" height="24" viewBox="0 0 24 24" fill="none" xmlns="http://www.w3.org/2000/svg">
<path d="M16.547 7.5V6C16.547 5.86193 16.435 5.75 16.297 5.75H8.40828C8.20684 5.75028 8.08849 5.97687 8.20321 6.14258L10.8819 10.0117C11.4967 10.8998 11.5352 12.066 10.9796 12.9922L8.05184 17.8711C7.95186 18.0377 8.07236 18.25 8.26668 18.25H16.297C16.435 18.25 16.547 18.1381 16.547 18V16.5C16.547 16.0858 16.8827 15.75 17.297 15.75C17.7112 15.75 18.047 16.0858 18.047 16.5V18C18.047 18.9665 17.2635 19.75 16.297 19.75H8.26668C6.90642 19.75 6.06586 18.266 6.76571 17.0996L9.69344 12.2207C9.946 11.7997 9.92798 11.2699 9.64852 10.8662L6.96981 6.99609C6.16637 5.83554 6.99686 4.25028 8.40828 4.25H16.297C17.2635 4.25 18.047 5.0335 18.047 6V7.5C18.047 7.91421 17.7112 8.25 17.297 8.25C16.8827 8.25 16.547 7.91421 16.547 7.5Z" fill="currentColor"/>
</svg>
