<svg width="24" height="24" viewBox="0 0 24 24" fill="none" xmlns="http://www.w3.org/2000/svg">
<path fill-rule="evenodd" clip-rule="evenodd" d="M17.9406 12.8921C18.1722 12.8096 18.4257 12.8097 18.6574 12.8921L18.7706 12.94L18.8654 12.9937C19.0705 13.1266 19.1826 13.3129 19.2365 13.4078C19.3067 13.5314 19.3781 13.6902 19.4454 13.8384L22.1642 19.8189C22.3356 20.196 22.1682 20.6407 21.7911 20.8121C21.4141 20.9833 20.9694 20.817 20.798 20.44L19.841 18.3345H16.757L15.7999 20.44C15.6285 20.8169 15.1838 20.9834 14.8068 20.8121C14.43 20.6405 14.2634 20.1959 14.4347 19.8189L17.1525 13.8384C17.2199 13.6901 17.2912 13.5315 17.3615 13.4078C17.423 13.2994 17.561 13.0712 17.8273 12.94L17.9406 12.8921ZM17.4386 16.8345H19.1593L18.299 14.941L17.4386 16.8345Z" fill="currentColor"/>
<path fill-rule="evenodd" clip-rule="evenodd" d="M9.72376 3.51714C9.93685 3.2617 10.2936 3.17781 10.5988 3.31011C10.9038 3.44269 11.0851 3.76035 11.0441 4.09039L10.3497 9.648H15.3331C15.536 9.648 15.7408 9.6468 15.9054 9.66168C16.0544 9.67517 16.3304 9.71078 16.5685 9.90289C16.8433 10.125 17.0014 10.4617 16.9962 10.815C16.9916 11.1213 16.8411 11.3558 16.756 11.4791C16.6621 11.615 16.5313 11.7715 16.4015 11.9273L9.2765 20.4781C9.06335 20.7339 8.70691 20.8177 8.4015 20.6851C8.09637 20.5525 7.915 20.235 7.95619 19.9048L8.65052 14.3472H3.66615C3.46341 14.3472 3.25934 14.3484 3.09486 14.3336C2.94566 14.32 2.66899 14.2848 2.43079 14.0923C2.15615 13.8702 1.99871 13.5335 2.00404 13.1802L2.01185 13.0689C2.04477 12.8172 2.16885 12.624 2.24329 12.5162C2.33724 12.3802 2.46886 12.2238 2.59876 12.0679L9.72376 3.51714ZM3.9015 12.8472H9.50013C9.71503 12.8473 9.92032 12.9401 10.0626 13.1011C10.2048 13.2623 10.2708 13.4777 10.2443 13.691L9.76087 17.5513L15.0988 11.148H9.50013C9.28512 11.1479 9.07994 11.0553 8.93763 10.8941C8.79548 10.7329 8.72933 10.5176 8.75599 10.3043L9.23841 6.44293L3.9015 12.8472Z" fill="currentColor"/>
</svg>
