<svg width="24" height="24" viewBox="0 0 24 24" fill="none" xmlns="http://www.w3.org/2000/svg">
<path d="M8 13.25C8.41421 13.25 8.75 13.5858 8.75 14V19.25H10C10.4142 19.25 10.75 19.5858 10.75 20C10.75 20.4142 10.4142 20.75 10 20.75H6C5.58579 20.75 5.25 20.4142 5.25 20C5.25 19.5858 5.58579 19.25 6 19.25H7.25V14.75H6C5.58579 14.75 5.25 14.4142 5.25 14C5.25 13.5858 5.58579 13.25 6 13.25H8ZM17.25 16C17.25 15.3096 16.6904 14.75 16 14.75C15.3096 14.75 14.75 15.3096 14.75 16V18C14.75 18.6904 15.3096 19.25 16 19.25C16.6904 19.25 17.25 18.6904 17.25 18V16ZM9.25 6C9.25 5.30964 8.69036 4.75 8 4.75C7.30964 4.75 6.75 5.30964 6.75 6V8C6.75 8.69036 7.30964 9.25 8 9.25C8.69036 9.25 9.25 8.69036 9.25 8V6ZM16 3.25C16.4142 3.25 16.75 3.58579 16.75 4V9.25H18C18.4142 9.25 18.75 9.58579 18.75 10C18.75 10.4142 18.4142 10.75 18 10.75H14C13.5858 10.75 13.25 10.4142 13.25 10C13.25 9.58579 13.5858 9.25 14 9.25H15.25V4.75H14C13.5858 4.75 13.25 4.41421 13.25 4C13.25 3.58579 13.5858 3.25 14 3.25H16ZM18.75 18C18.75 19.5188 17.5188 20.75 16 20.75C14.4812 20.75 13.25 19.5188 13.25 18V16C13.25 14.4812 14.4812 13.25 16 13.25C17.5188 13.25 18.75 14.4812 18.75 16V18ZM10.75 8C10.75 9.51878 9.51878 10.75 8 10.75C6.48122 10.75 5.25 9.51878 5.25 8V6C5.25 4.48122 6.48122 3.25 8 3.25C9.51878 3.25 10.75 4.48122 10.75 6V8Z" fill="currentColor"/>
</svg>
