<svg width="24" height="24" viewBox="0 0 24 24" fill="none" xmlns="http://www.w3.org/2000/svg">
<path d="M20.25 12C20.25 7.44365 16.5563 3.75 12 3.75C7.44365 3.75 3.75 7.44365 3.75 12C3.75 16.5563 7.44365 20.25 12 20.25C16.5563 20.25 20.25 16.5563 20.25 12ZM17.0996 12C17.0996 9.43816 15.2111 7.31781 12.75 6.95508V17.0439C15.211 16.6812 17.0996 14.5618 17.0996 12ZM18.5996 12C18.5996 15.6451 15.6451 18.5996 12 18.5996C11.5858 18.5996 11.25 18.2638 11.25 17.8496V6.15039C11.25 5.73618 11.5858 5.40039 12 5.40039C15.6451 5.40039 18.5996 8.35492 18.5996 12ZM21.75 12C21.75 17.3848 17.3848 21.75 12 21.75C6.61522 21.75 2.25 17.3848 2.25 12C2.25 6.61522 6.61522 2.25 12 2.25C17.3848 2.25 21.75 6.61522 21.75 12Z" fill="currentColor"/>
</svg>
