<svg width="24" height="24" viewBox="0 0 24 24" fill="none" xmlns="http://www.w3.org/2000/svg">
<path d="M11.25 21V13.8105L6.16602 18.8945C5.87316 19.1871 5.39828 19.1871 5.10547 18.8945C4.81258 18.6016 4.81258 18.1259 5.10547 17.833L10.1885 12.75H3C2.58579 12.75 2.25 12.4142 2.25 12C2.25 11.5858 2.58579 11.25 3 11.25H10.1895L5.10547 6.16602C4.81267 5.87311 4.81261 5.39833 5.10547 5.10547C5.39833 4.81261 5.87311 4.81267 6.16602 5.10547L11.25 10.1885V3C11.25 2.58579 11.5858 2.25 12 2.25C12.4142 2.25 12.75 2.58579 12.75 3V10.1885L17.833 5.10547C18.1259 4.81258 18.6016 4.81258 18.8945 5.10547C19.1871 5.39828 19.1871 5.87316 18.8945 6.16602L13.8105 11.25H21C21.4142 11.25 21.75 11.5858 21.75 12C21.75 12.4142 21.4142 12.75 21 12.75H13.8115L18.8945 17.833C19.1874 18.1259 19.1874 18.6016 18.8945 18.8945C18.6016 19.1874 18.1259 19.1874 17.833 18.8945L12.75 13.8105V21C12.75 21.4142 12.4142 21.75 12 21.75C11.5858 21.75 11.25 21.4142 11.25 21Z" fill="currentColor"/>
</svg>
