<svg width="24" height="24" viewBox="0 0 24 24" fill="none" xmlns="http://www.w3.org/2000/svg">
<path d="M16.6494 15.5996C16.6492 14.0258 15.3736 12.7501 13.7998 12.75H12.75V18.4502H13.7998C15.3737 18.4501 16.6494 17.1736 16.6494 15.5996ZM16.6494 8.40039C16.6494 6.82644 15.3737 5.54991 13.7998 5.5498H12.75V11.25H13.7998C16.202 11.2501 18.1492 13.1974 18.1494 15.5996C18.1494 18.002 16.2022 19.9501 13.7998 19.9502H12.75V21C12.75 21.4141 12.414 21.7498 12 21.75C11.5858 21.75 11.25 21.4142 11.25 21V19.9502H10.1992C7.79696 19.95 5.84961 18.0019 5.84961 15.5996C5.84982 15.1856 6.18553 14.8496 6.59961 14.8496C7.01369 14.8496 7.3494 15.1856 7.34961 15.5996C7.34961 17.1735 8.62539 18.45 10.1992 18.4502H11.25V12.75H10.1992C7.79709 12.7498 5.84982 10.8025 5.84961 8.40039C5.84961 5.99808 7.79696 4.05002 10.1992 4.0498H11.25V3C11.25 2.58579 11.5858 2.25 12 2.25C12.414 2.25021 12.75 2.58592 12.75 3V4.0498H13.7998C16.2022 4.04991 18.1494 5.99802 18.1494 8.40039C18.1492 8.81442 17.8135 9.15039 17.3994 9.15039C16.9854 9.15029 16.6496 8.81436 16.6494 8.40039ZM7.34961 8.40039C7.34982 9.97409 8.62552 11.2498 10.1992 11.25H11.25V5.5498H10.1992C8.62539 5.55002 7.34961 6.82651 7.34961 8.40039Z" fill="currentColor"/>
</svg>
