<svg width="24" height="24" viewBox="0 0 24 24" fill="none" xmlns="http://www.w3.org/2000/svg">
<path d="M19.3506 10.9502H4.65039V17.7998C4.65039 18.3722 4.65063 18.7569 4.67481 19.0527C4.69827 19.3397 4.74098 19.4768 4.78711 19.5674C4.90694 19.8025 5.0979 19.9935 5.33301 20.1133C5.42355 20.1594 5.56066 20.2021 5.84766 20.2256C6.14354 20.2498 6.52816 20.25 7.10059 20.25H16.9004C17.4728 20.25 17.8574 20.2498 18.1533 20.2256C18.4402 20.2021 18.5775 20.1594 18.668 20.1133C18.903 19.9934 19.0941 19.8025 19.2139 19.5674C19.26 19.4768 19.3017 19.3397 19.3252 19.0527C19.3494 18.7569 19.3506 18.3722 19.3506 17.7998V10.9502ZM14.8506 6.59961V5.5498H9.15039V6.59961C9.15039 7.01382 8.81461 7.34961 8.40039 7.34961C7.98618 7.34961 7.65039 7.01382 7.65039 6.59961V5.5498H7.10059C6.52816 5.5498 6.14354 5.55102 5.84766 5.5752C5.5607 5.59866 5.42355 5.64039 5.33301 5.68652C5.09791 5.80632 4.90696 5.99735 4.78711 6.23242C4.74099 6.32294 4.69827 6.4602 4.67481 6.74707C4.65063 7.04295 4.65039 7.42757 4.65039 8V9.4502H19.3506V8C19.3506 7.42757 19.3494 7.04295 19.3252 6.74707C19.3017 6.46025 19.26 6.32294 19.2139 6.23242C19.0941 5.99737 18.903 5.80634 18.668 5.68652C18.5775 5.6404 18.4401 5.59866 18.1533 5.5752C17.8574 5.55102 17.4728 5.5498 16.9004 5.5498H16.3506V6.59961C16.3506 7.01376 16.0147 7.3495 15.6006 7.34961C15.1864 7.34961 14.8506 7.01382 14.8506 6.59961ZM20.8506 17.7998C20.8506 18.3475 20.8506 18.8037 20.8203 19.1748C20.7893 19.5545 20.7225 19.9109 20.5508 20.248C20.2871 20.7655 19.8661 21.1865 19.3486 21.4502C19.0115 21.6219 18.6551 21.6897 18.2754 21.7207C17.9043 21.751 17.4481 21.75 16.9004 21.75H7.10059C6.55291 21.75 6.09672 21.751 5.72559 21.7207C5.34586 21.6897 4.98949 21.6219 4.65235 21.4502C4.1349 21.1865 3.71385 20.7655 3.4502 20.248C3.27849 19.9109 3.21072 19.5545 3.17969 19.1748C3.14937 18.8037 3.15039 18.3475 3.15039 17.7998V8C3.15039 7.45232 3.14937 6.99613 3.17969 6.625C3.21074 6.24528 3.27846 5.88889 3.4502 5.55176C3.71385 5.03431 4.1349 4.61326 4.65235 4.34961C4.98945 4.17794 5.34591 4.11111 5.72559 4.08008C6.09672 4.04976 6.55291 4.0498 7.10059 4.0498H7.65039V3C7.65039 2.58579 7.98618 2.25 8.40039 2.25C8.81461 2.25 9.15039 2.58579 9.15039 3V4.0498H14.8506V3C14.8506 2.58579 15.1864 2.25 15.6006 2.25C16.0147 2.25011 16.3506 2.58585 16.3506 3V4.0498H16.9004C17.4481 4.0498 17.9043 4.04976 18.2754 4.08008C18.6551 4.11112 19.0115 4.17791 19.3486 4.34961C19.8661 4.61326 20.2871 5.03431 20.5508 5.55176C20.7225 5.88885 20.7893 6.24534 20.8203 6.625C20.8506 6.99613 20.8506 7.45232 20.8506 8V17.7998Z" fill="currentColor"/>
</svg>
