<svg width="24" height="24" viewBox="0 0 24 24" fill="none" xmlns="http://www.w3.org/2000/svg">
<path d="M17.5488 3.80957C17.5487 3.77664 17.5222 3.75 17.4893 3.75H6.50879C6.47596 3.75017 6.44939 3.77675 6.44922 3.80957C6.44922 5.9734 7.30881 8.04904 8.83887 9.5791L9.91992 10.6602C10.0005 10.7407 10.0865 10.8246 10.1553 10.9111C10.6615 11.5485 10.6615 12.4515 10.1553 13.0889C10.0865 13.1754 10.0005 13.2593 9.91992 13.3398L8.83887 14.4209C7.30881 15.951 6.44922 18.0266 6.44922 20.1904C6.44939 20.2233 6.47597 20.2498 6.50879 20.25H17.4893C17.5222 20.25 17.5487 20.2234 17.5488 20.1904C17.5488 18.0266 16.6892 15.951 15.1592 14.4209L14.0791 13.3398C13.9984 13.2591 13.9117 13.1756 13.8428 13.0889C13.3366 12.4515 13.3366 11.5485 13.8428 10.9111C13.9117 10.8244 13.9984 10.7409 14.0791 10.6602L15.1592 9.5791C16.6892 8.04904 17.5488 5.9734 17.5488 3.80957ZM19.0488 3.80957C19.0488 6.37112 18.0319 8.82831 16.2207 10.6396L15.1396 11.7207C15.0898 11.7705 15.06 11.8004 15.0381 11.8232C15.0259 11.836 15.0197 11.8423 15.0176 11.8447C14.9454 11.9357 14.9454 12.0643 15.0176 12.1553C15.0197 12.1577 15.0259 12.164 15.0381 12.1768C15.06 12.1996 15.0898 12.2295 15.1396 12.2793L16.2207 13.3604C18.0319 15.1717 19.0488 17.6289 19.0488 20.1904C19.0487 21.0518 18.3507 21.75 17.4893 21.75H6.50879C5.64754 21.7498 4.94939 21.0517 4.94922 20.1904C4.94922 17.6288 5.96696 15.1717 7.77832 13.3604L8.85938 12.2793C8.90865 12.23 8.93812 12.2005 8.95996 12.1777C8.97203 12.1652 8.97818 12.1579 8.98047 12.1553C9.05278 12.0642 9.05278 11.9358 8.98047 11.8447C8.97819 11.8421 8.972 11.8358 8.95996 11.8232C8.93808 11.8005 8.909 11.7703 8.85938 11.7207L7.77832 10.6396C5.96696 8.82829 4.94922 6.37122 4.94922 3.80957C4.94939 2.94832 5.64754 2.25017 6.50879 2.25H17.4893C18.3507 2.25 19.0487 2.94822 19.0488 3.80957Z" fill="currentColor"/>
</svg>
