<svg width="24" height="24" viewBox="0 0 24 24" fill="none" xmlns="http://www.w3.org/2000/svg">
<path d="M16.3193 15.2197C16.6122 14.9269 17.087 14.9268 17.3799 15.2197L19.8799 17.7197L19.9316 17.7764C20.1719 18.0709 20.1544 18.5057 19.8799 18.7803L17.3799 21.2803C17.087 21.5731 16.6122 21.5731 16.3193 21.2803C16.0264 20.9874 16.0264 20.5126 16.3193 20.2197L17.5391 19H6.25977L7.4795 20.2197C7.77239 20.5126 7.77239 20.9874 7.4795 21.2803C7.1866 21.5731 6.71183 21.5732 6.41895 21.2803L3.91895 18.7803L3.86719 18.7236C3.62697 18.4291 3.64441 17.9943 3.91895 17.7197L6.41895 15.2197C6.71181 14.9269 7.1866 14.9269 7.4795 15.2197C7.77239 15.5126 7.77239 15.9874 7.4795 16.2803L6.25977 17.5H17.5391L16.3193 16.2803C16.0264 15.9874 16.0264 15.5126 16.3193 15.2197Z" fill="currentColor"/>
<path fill-rule="evenodd" clip-rule="evenodd" d="M15.4492 2C15.8634 2 16.1992 2.33579 16.1992 2.75V3.80078H16.75C17.2977 3.80078 17.7539 3.79976 18.125 3.83008C18.5047 3.86112 18.8611 3.92885 19.1982 4.10059C19.7157 4.36424 20.1367 4.78529 20.4004 5.30273C20.5721 5.63983 20.6389 5.9963 20.6699 6.37598C20.7002 6.74711 20.7002 7.2033 20.7002 7.75098V14.6758C20.7002 15.0899 20.3643 15.4257 19.9502 15.4258C19.536 15.4258 19.2002 15.09 19.2002 14.6758V10.6992H4.5V14.6758C4.5 15.09 4.16422 15.4258 3.75 15.4258C3.33579 15.4258 3 15.09 3 14.6758V7.75098C3 7.2033 2.99898 6.7471 3.0293 6.37598C3.06033 5.99625 3.1281 5.63988 3.29981 5.30273C3.56346 4.78529 3.98451 4.36424 4.50196 4.10059C4.8391 3.92887 5.19547 3.86111 5.5752 3.83008C5.94633 3.79976 6.40253 3.80078 6.9502 3.80078H7.5V2.75C7.5 2.33579 7.83579 2 8.25 2C8.66422 2 9 2.33579 9 2.75V3.80078H14.6992V2.75C14.6992 2.33579 15.035 2 15.4492 2ZM6.9502 5.30078C6.37778 5.30078 5.99315 5.30102 5.69727 5.3252C5.41028 5.34866 5.27316 5.39137 5.18262 5.4375C4.94751 5.55733 4.75655 5.74828 4.63672 5.9834C4.59059 6.07394 4.54788 6.21105 4.52442 6.49805C4.50024 6.79392 4.5 7.17855 4.5 7.75098V9.19922H19.2002V7.75098C19.2002 7.17855 19.199 6.79393 19.1748 6.49805C19.1513 6.21109 19.1096 6.07393 19.0635 5.9834C18.9437 5.7483 18.7527 5.55734 18.5176 5.4375C18.4271 5.39138 18.2898 5.34866 18.0029 5.3252C17.7071 5.30102 17.3224 5.30078 16.75 5.30078H16.1992V6.34961C16.1992 6.76382 15.8634 7.09961 15.4492 7.09961C15.035 7.09961 14.6992 6.76382 14.6992 6.34961V5.30078H9V6.34961C9 6.76382 8.66422 7.09961 8.25 7.09961C7.83579 7.09961 7.5 6.76382 7.5 6.34961V5.30078H6.9502Z" fill="currentColor"/>
</svg>
