<svg width="24" height="24" viewBox="0 0 24 24" fill="none" xmlns="http://www.w3.org/2000/svg">
<path fill-rule="evenodd" clip-rule="evenodd" d="M13.875 3C14.0739 3 14.2646 3.07908 14.4053 3.21973L19.8057 8.62012C19.9461 8.76073 20.0254 8.95167 20.0254 9.15039V13.4502C20.0253 13.8642 19.6894 14.2 19.2754 14.2002C18.8612 14.2002 18.5255 13.8643 18.5254 13.4502V9.89942H15.3154C15.0759 9.89942 14.8507 9.90008 14.6631 9.88477C14.4667 9.86873 14.2459 9.8315 14.0264 9.71973C13.716 9.56156 13.4629 9.30942 13.3047 8.99903C13.1929 8.77958 13.1557 8.55866 13.1396 8.36231C13.1243 8.17468 13.125 7.9495 13.125 7.70997V4.5H8.07519C7.50277 4.5 7.11814 4.50024 6.82226 4.52442C6.53527 4.54788 6.39815 4.59059 6.30761 4.63672C6.0725 4.75655 5.88154 4.94751 5.76171 5.18262C5.71558 5.27316 5.67287 5.41028 5.64941 5.69727C5.62524 5.99315 5.625 6.37778 5.625 6.9502V13.4502C5.62489 13.8643 5.28914 14.2002 4.875 14.2002C4.46085 14.2002 4.1251 13.8643 4.125 13.4502V6.9502C4.125 6.40253 4.12397 5.94633 4.15429 5.5752C4.18532 5.19547 4.25309 4.8391 4.4248 4.50196C4.68845 3.98451 5.10951 3.56346 5.62695 3.29981C5.96409 3.1281 6.32046 3.06033 6.70019 3.0293C7.07132 2.99898 7.52752 3 8.07519 3H13.875ZM14.625 7.70997C14.625 7.97383 14.6256 8.12689 14.6348 8.23926C14.6385 8.2846 14.6429 8.31084 14.6455 8.32325C14.6584 8.34601 14.6767 8.36463 14.6992 8.37793C14.7105 8.38042 14.7367 8.38569 14.7852 8.38965C14.8976 8.39883 15.0512 8.39942 15.3154 8.39942H17.4639L14.625 5.56055V7.70997Z" fill="currentColor"/>
<path d="M3.45508 14.9356C3.65664 14.9356 3.82582 14.996 3.9541 15.1231L4.04492 15.2256C4.12225 15.335 4.16013 15.465 4.16016 15.6123V19.0147C4.16012 19.6434 3.98751 20.1311 3.63281 20.4668L3.63379 20.4678C3.29216 20.7996 2.86668 20.9658 2.36328 20.9658C2.02581 20.9658 1.68474 20.8932 1.34082 20.75C1.33546 20.7478 1.32989 20.7446 1.3252 20.7412C1.21489 20.661 1.13121 20.5681 1.07812 20.4619L1.07715 20.46C1.0271 20.3498 1.00006 20.2406 1 20.1348C1 19.9484 1.06318 19.7816 1.18652 19.6377C1.31316 19.49 1.47853 19.4152 1.67676 19.415C1.76067 19.415 1.84839 19.431 1.93848 19.4609L1.94336 19.4629C2.07574 19.5158 2.20161 19.541 2.32129 19.541C2.4623 19.541 2.56102 19.4958 2.62793 19.4141C2.70416 19.3223 2.75 19.1617 2.75 18.916V15.6123C2.75003 15.4177 2.81265 15.2528 2.94043 15.125L2.94238 15.1231C3.07935 14.9967 3.25234 14.9356 3.45508 14.9356Z" fill="currentColor"/>
<path d="M7.56836 14.8652C8.25243 14.8653 8.80754 15.0413 9.22559 15.4004C9.39848 15.5428 9.49121 15.7175 9.49121 15.9209C9.49108 16.0932 9.4197 16.2428 9.28516 16.3672L9.28418 16.3682C9.15782 16.4838 9.00434 16.541 8.82812 16.541C8.69248 16.541 8.56583 16.5046 8.45117 16.4316C8.10797 16.2151 7.74846 16.1075 7.37207 16.1074C7.14866 16.1074 6.96668 16.1524 6.82227 16.2373C6.6869 16.3169 6.62109 16.4322 6.62109 16.5928C6.62123 16.7486 6.7141 16.8814 6.94141 16.9863C7.18581 17.0949 7.54277 17.1962 8.0166 17.2891C8.28479 17.337 8.54707 17.4228 8.80469 17.5469C9.07681 17.664 9.29948 17.8445 9.47461 18.0869C9.66488 18.3373 9.75677 18.6724 9.75684 19.084C9.75684 19.6382 9.5411 20.0931 9.11328 20.4434C8.69577 20.7928 8.16001 20.9658 7.51172 20.9658C7.07416 20.9658 6.66357 20.8944 6.28125 20.751L6.28027 20.75C5.89886 20.5974 5.59415 20.3957 5.37012 20.1426C5.25567 20.0172 5.19727 19.8682 5.19727 19.7002C5.19733 19.52 5.26729 19.3616 5.40137 19.2275C5.53634 19.0927 5.6995 19.0235 5.8877 19.0234C6.06534 19.0234 6.21898 19.0871 6.34473 19.2119C6.49439 19.3527 6.6866 19.4648 6.9209 19.5459C7.15629 19.6273 7.38633 19.667 7.61035 19.667C7.84203 19.6669 8.0383 19.6183 8.20215 19.5234C8.35342 19.4269 8.43066 19.2803 8.43066 19.0703C8.43063 18.9007 8.36059 18.7756 8.21484 18.6865L8.21094 18.6836C8.10271 18.6072 7.93092 18.5399 7.69141 18.4834L7.42969 18.4307C6.74275 18.3177 6.2156 18.1282 5.85645 17.8565L5.85547 17.8555C5.48998 17.569 5.30859 17.1677 5.30859 16.6621C5.30868 16.1172 5.51998 15.6791 5.94043 15.3565C6.35815 15.0267 6.90352 14.8652 7.56836 14.8652Z" fill="currentColor"/>
<path fill-rule="evenodd" clip-rule="evenodd" d="M13.5928 14.8652C14.1643 14.8652 14.6722 14.9989 15.1143 15.2676L15.2783 15.3691C15.6504 15.6175 15.946 15.9429 16.1641 16.3447L16.2549 16.5176C16.4532 16.9269 16.5518 17.3864 16.5518 17.8945C16.5517 18.3947 16.4537 18.8565 16.2559 19.2783L16.1641 19.457C15.9058 19.9161 15.5519 20.2852 15.1025 20.5625C14.6604 20.8316 14.1558 20.9658 13.5928 20.9658C13.0297 20.9658 12.5168 20.8319 12.0566 20.5635L12.0557 20.5625C11.6061 20.2851 11.2469 19.9113 10.9795 19.4434C10.7211 18.9744 10.5918 18.4571 10.5918 17.8945C10.5918 17.3138 10.7202 16.7961 10.9795 16.3447C11.2471 15.886 11.6067 15.5262 12.0566 15.2676L12.2285 15.1738C12.6369 14.968 13.0921 14.8653 13.5928 14.8652ZM13.5928 16.1211C13.1277 16.1211 12.7469 16.2861 12.4443 16.6152L12.4434 16.6143C12.15 16.9435 12.002 17.3687 12.002 17.8945C12.002 18.4202 12.1506 18.8497 12.4443 19.1885L12.5615 19.3076C12.8436 19.5667 13.1863 19.6953 13.5928 19.6953C14.0472 19.6953 14.4133 19.5275 14.6973 19.1904L14.6982 19.1895C14.9926 18.8505 15.1416 18.4207 15.1416 17.8945C15.1416 17.3684 14.9928 16.9436 14.6992 16.6143L14.6982 16.6133C14.4145 16.2852 14.048 16.1211 13.5928 16.1211Z" fill="currentColor"/>
<path d="M22.0049 14.9356C22.2043 14.9356 22.3716 14.9911 22.5 15.1074C22.6411 15.2269 22.71 15.3942 22.71 15.5986V20.1348C22.7099 20.3854 22.6284 20.5899 22.46 20.7373C22.298 20.879 22.1122 20.9512 21.9062 20.9512C21.771 20.9511 21.6375 20.9151 21.5068 20.8447C21.3727 20.7817 21.2613 20.678 21.1719 20.5391L19.1689 17.4024L19.167 17.3994C19.143 17.358 19.1115 17.3399 19.0645 17.3399C19.0287 17.3399 19.0144 17.3496 19.0068 17.3584C18.9973 17.3696 18.9854 17.3945 18.9854 17.4463L19.0693 20.2988L19.0635 20.4404C19.0436 20.577 18.9824 20.6956 18.8779 20.792L18.875 20.794C18.7379 20.9099 18.5653 20.9658 18.3643 20.9658C18.1634 20.9658 17.9915 20.9098 17.8545 20.794L17.8496 20.79C17.722 20.6623 17.6592 20.4971 17.6592 20.3027V15.752C17.6593 15.5255 17.7213 15.3393 17.8516 15.2031L17.9111 15.1484C18.0728 15.0077 18.2576 14.9356 18.4629 14.9356C18.605 14.9356 18.7418 14.9707 18.8721 15.04C19.008 15.1028 19.1206 15.2066 19.2109 15.3467L21.2275 18.3848L21.2295 18.3887C21.2536 18.4307 21.2856 18.4492 21.333 18.4492C21.3636 18.4492 21.3746 18.4409 21.3799 18.4346C21.3872 18.4258 21.397 18.4048 21.3975 18.3594L21.2998 15.6016C21.2899 15.397 21.3522 15.2276 21.4941 15.1074C21.6313 14.9914 21.8037 14.9356 22.0049 14.9356Z" fill="currentColor"/>
</svg>
