<svg width="24" height="24" viewBox="0 0 24 24" fill="none" xmlns="http://www.w3.org/2000/svg">
<path fill-rule="evenodd" clip-rule="evenodd" d="M11.7617 2C13.0435 2.00005 14.3129 2.25267 15.4971 2.74316C16.4493 3.13759 17.3299 3.68205 18.1104 4.35059L20.2314 2.23047C20.5243 1.93763 20.9991 1.93759 21.292 2.23047C21.5849 2.52334 21.5848 2.99812 21.292 3.29102L18.6738 5.9082C18.6703 5.91186 18.6677 5.91632 18.6641 5.91992C18.6605 5.9235 18.656 5.9262 18.6523 5.92969L5.93457 18.6484C5.92968 18.6536 5.92499 18.659 5.91992 18.6641C5.91635 18.6676 5.91183 18.6703 5.9082 18.6738L3.29199 21.291C2.9991 21.5839 2.52434 21.5839 2.23145 21.291C1.93855 20.9981 1.93855 20.5234 2.23145 20.2305L4.35059 18.1104C3.68205 17.3299 3.13759 16.4493 2.74316 15.4971C2.25268 14.3128 2 13.0435 2 11.7617C2.00003 10.4799 2.25264 9.2106 2.74316 8.02637C3.23372 6.84211 3.95298 5.76577 4.85938 4.85938C5.76567 3.95315 6.84132 3.23367 8.02539 2.74316C9.20968 2.25262 10.4799 2 11.7617 2ZM11.7617 3.5C10.6768 3.5 9.60191 3.71375 8.59961 4.12891C7.59745 4.54403 6.68698 5.15294 5.91992 5.91992C5.15281 6.68703 4.54408 7.59831 4.12891 8.60059C3.71382 9.60278 3.50003 10.677 3.5 11.7617C3.5 12.8465 3.71386 13.9207 4.12891 14.9229C4.4479 15.693 4.88248 16.4083 5.41406 17.0469L17.0469 5.41406C16.4083 4.88247 15.693 4.44791 14.9229 4.12891C13.9207 3.71383 12.8464 3.50005 11.7617 3.5Z" fill="currentColor"/>
<path d="M19.8584 7.77734C20.2439 7.62679 20.6791 7.81774 20.8301 8.20312C21.5208 9.96774 21.6824 11.896 21.2949 13.751C20.9073 15.6059 19.9869 17.3079 18.6475 18.6484C17.3079 19.9889 15.6067 20.9098 13.752 21.2988C11.8972 21.6878 9.96934 21.5282 8.2041 20.8389C7.81827 20.6882 7.62763 20.253 7.77832 19.8672C7.92914 19.4818 8.36345 19.291 8.74902 19.4414C10.2428 20.0248 11.8748 20.1602 13.4443 19.8311C15.0137 19.5019 16.4535 18.7222 17.5869 17.5879C18.72 16.4537 19.4982 15.0137 19.8262 13.4443C20.154 11.8747 20.0181 10.2422 19.4336 8.74902C19.2829 8.36343 19.4728 7.92827 19.8584 7.77734Z" fill="currentColor"/>
</svg>
