<svg width="24" height="24" viewBox="0 0 24 24" fill="none" xmlns="http://www.w3.org/2000/svg">
<path d="M6.5 4.25C6.91421 4.25 7.25 4.58579 7.25 5C7.25 5.41421 6.91421 5.75 6.5 5.75H5.59961C5.29463 5.75009 5.01708 5.85873 4.8252 6.0293C4.63638 6.19723 4.54992 6.40478 4.5498 6.59961V10.5996C4.5498 11.2093 4.29296 11.7759 3.86426 12.2002C4.29279 12.6244 4.54975 13.1903 4.5498 13.7998V17.7998C4.5498 18.1849 4.93857 18.6502 5.59961 18.6504H6.5C6.91421 18.6504 7.25 18.9862 7.25 19.4004C7.24979 19.8144 6.91408 20.1504 6.5 20.1504H5.59961C4.28103 20.1502 3.0498 19.1745 3.0498 17.7998V13.7998C3.04975 13.6049 2.96338 13.3975 2.77441 13.2295C2.58244 13.0589 2.30513 12.9502 2 12.9502C1.58585 12.9502 1.25011 12.6143 1.25 12.2002C1.25 11.812 1.54489 11.4927 1.92285 11.4541L2 11.4502L2.11328 11.4453C2.37327 11.4222 2.6065 11.3201 2.77441 11.1709C2.96351 11.0028 3.0498 10.7946 3.0498 10.5996V6.59961C3.04992 5.94608 3.34316 5.34015 3.8291 4.9082C4.31216 4.47883 4.95011 4.25009 5.59961 4.25H6.5Z" fill="currentColor"/>
<path d="M19.4004 4.25C20.0499 4.25009 20.6878 4.47883 21.1709 4.9082C21.6568 5.34015 21.9501 5.94608 21.9502 6.59961V10.5996C21.9502 10.7946 22.0365 11.0028 22.2256 11.1709C22.4176 11.3415 22.6949 11.4502 23 11.4502C23.4142 11.4502 23.75 11.786 23.75 12.2002C23.7499 12.6143 23.4141 12.9502 23 12.9502C22.3388 12.9502 21.9503 13.4147 21.9502 13.7998V17.7998C21.9502 18.4535 21.6569 19.0602 21.1709 19.4922C20.6879 19.9214 20.0498 20.1503 19.4004 20.1504H18.5C18.0859 20.1504 17.7502 19.8144 17.75 19.4004C17.75 18.9862 18.0858 18.6504 18.5 18.6504H19.4004C19.7054 18.6503 19.9829 18.5417 20.1748 18.3711C20.3639 18.203 20.4502 17.9948 20.4502 17.7998V13.7998C20.4502 13.1603 20.718 12.6088 21.1357 12.2002C20.707 11.7759 20.4502 11.2093 20.4502 10.5996V6.59961C20.4501 6.40478 20.3636 6.19723 20.1748 6.0293C19.9829 5.85873 19.7054 5.75009 19.4004 5.75H18.5C18.0858 5.75 17.75 5.41421 17.75 5C17.75 4.58579 18.0858 4.25 18.5 4.25H19.4004Z" fill="currentColor"/>
</svg>
