<svg width="24" height="24" viewBox="0 0 24 24" fill="none" xmlns="http://www.w3.org/2000/svg">
<path d="M18.4512 16.9512C18.4512 16.1229 17.7794 15.4514 16.9512 15.4512C16.1227 15.4512 15.4512 16.1227 15.4512 16.9512C15.4514 17.7794 16.1229 18.4512 16.9512 18.4512C17.7793 18.451 18.451 17.7793 18.4512 16.9512ZM17.7705 5.1709C18.0634 4.87801 18.5382 4.87801 18.8311 5.1709C19.1238 5.46381 19.1239 5.93862 18.8311 6.23145L6.23145 18.8311C5.93862 19.1239 5.46381 19.1238 5.1709 18.8311C4.87801 18.5382 4.87801 18.0634 5.1709 17.7705L17.7705 5.1709ZM8.55078 7.05078C8.55078 6.22235 7.87921 5.55078 7.05078 5.55078C6.22235 5.55078 5.55078 6.22235 5.55078 7.05078C5.55078 7.87921 6.22235 8.55078 7.05078 8.55078C7.87921 8.55078 8.55078 7.87921 8.55078 7.05078ZM19.9512 16.9512C19.951 18.6077 18.6077 19.951 16.9512 19.9512C15.2944 19.9512 13.9514 18.6078 13.9512 16.9512C13.9512 15.2943 15.2943 13.9512 16.9512 13.9512C18.6078 13.9514 19.9512 15.2944 19.9512 16.9512ZM10.0508 7.05078C10.0508 8.70764 8.70764 10.0508 7.05078 10.0508C5.39393 10.0508 4.05078 8.70764 4.05078 7.05078C4.05078 5.39393 5.39393 4.05078 7.05078 4.05078C8.70764 4.05078 10.0508 5.39393 10.0508 7.05078Z" fill="currentColor"/>
</svg>
