<svg width="24" height="24" viewBox="0 0 24 24" fill="none" xmlns="http://www.w3.org/2000/svg">
<path d="M5.84277 16.5029C6.11667 16.2293 6.56101 16.2294 6.83496 16.5029C7.10888 16.7768 7.10872 17.2211 6.83496 17.4951L5.53125 18.7988H18.8076L17.5049 17.4961C17.231 17.2221 17.231 16.7779 17.5049 16.5039C17.7789 16.23 18.2231 16.23 18.4971 16.5039L20.8359 18.8428L20.9258 18.9531C21.1053 19.2254 21.0755 19.5953 20.8359 19.835L18.4971 22.1738C18.2231 22.4475 17.7788 22.4476 17.5049 22.1738C17.231 21.8999 17.2311 21.4557 17.5049 21.1816L18.4854 20.2012H5.85547L6.83496 21.1807C7.10885 21.4546 7.10885 21.8989 6.83496 22.1729C6.56098 22.4467 6.11673 22.4467 5.84277 22.1729L3.50391 19.834L3.41406 19.7236C3.23471 19.4514 3.26445 19.0814 3.50391 18.8418L5.84277 16.5029ZM10.9336 2.82617C11.0018 2.41767 11.3883 2.1409 11.7969 2.20898C12.205 2.2773 12.4809 2.66401 12.4131 3.07227L12.0264 5.39453H15.4912L15.8779 3.07422C15.9461 2.66572 16.3327 2.38894 16.7412 2.45703C17.1495 2.52529 17.4253 2.912 17.3574 3.32031L17.0117 5.39453H18.7012C19.1154 5.39453 19.4512 5.73032 19.4512 6.14453C19.4509 6.55854 19.1152 6.89453 18.7012 6.89453H16.7617L16.1611 10.502H18.0605C18.4748 10.502 18.8105 10.8377 18.8105 11.252C18.8103 11.666 18.4746 12.002 18.0605 12.002H15.9111L15.5244 14.3223C15.4562 14.7305 15.0694 15.0062 14.6611 14.9385C14.2526 14.8704 13.9759 14.4838 14.0439 14.0752L14.3896 12.002H10.9248L10.4971 14.5713C10.4289 14.9796 10.0421 15.2553 9.63379 15.1875C9.22521 15.1194 8.94851 14.7328 9.0166 14.3242L9.40332 12.002H7.20117C6.78717 12.0019 6.45141 11.6659 6.45117 11.252C6.45117 10.8378 6.78702 10.502 7.20117 10.502H9.65332L10.2549 6.89453H7.8418C7.42779 6.89446 7.09203 6.5585 7.0918 6.14453C7.0918 5.73036 7.42765 5.39461 7.8418 5.39453H10.5059L10.9336 2.82617ZM11.1748 10.502H14.6396L15.2412 6.89453H11.7764L11.1748 10.502Z" fill="currentColor"/>
</svg>
