<svg width="24" height="24" viewBox="0 0 24 24" fill="none" xmlns="http://www.w3.org/2000/svg">
<path fill-rule="evenodd" clip-rule="evenodd" d="M7.0567 5.99805C7.24098 5.99805 7.42262 6.03927 7.58795 6.11719L7.74713 6.20703L7.89264 6.31934C8.02811 6.44187 8.1352 6.59372 8.20612 6.76367L12.2042 16.3574C12.3633 16.7397 12.1821 17.1786 11.7999 17.3379C11.4177 17.4969 10.9788 17.3165 10.8194 16.9346L9.7735 14.4258H4.33991L3.29401 16.9346C3.13459 17.3166 2.69567 17.4969 2.31354 17.3379C1.93145 17.1785 1.75017 16.7396 1.90924 16.3574L5.90827 6.76367L5.9903 6.60059C6.08461 6.44399 6.21296 6.3093 6.36627 6.20703L6.52643 6.11719C6.69159 6.03934 6.87263 5.99814 7.0567 5.99805ZM4.96491 12.9258H9.1485L7.0567 7.90527L4.96491 12.9258Z" fill="currentColor"/>
<path fill-rule="evenodd" clip-rule="evenodd" d="M21.4434 8.96484C21.8576 8.96484 22.1934 9.30063 22.1934 9.71484V16.6445C22.1934 17.0587 21.8576 17.3945 21.4434 17.3945C21.0292 17.3945 20.6934 17.0587 20.6934 16.6445V16.4004C19.9597 17.02 19.0122 17.3945 17.9766 17.3945C15.6489 17.3944 13.7618 15.5075 13.7618 13.1797C13.7619 10.852 15.6489 8.96497 17.9766 8.96484C19.012 8.96484 19.9597 9.33867 20.6934 9.95801V9.71484C20.6934 9.30066 21.0292 8.96489 21.4434 8.96484ZM17.9766 10.4648C16.4773 10.465 15.2619 11.6804 15.2618 13.1797C15.2618 14.6791 16.4773 15.8944 17.9766 15.8945C19.4761 15.8945 20.6915 14.6791 20.6915 13.1797C20.6914 11.6803 19.476 10.4648 17.9766 10.4648Z" fill="currentColor"/>
</svg>
