<svg width="24" height="24" viewBox="0 0 24 24" fill="none" xmlns="http://www.w3.org/2000/svg">
<path d="M20.2988 15.6006C20.2988 13.0325 18.2174 10.9503 15.6494 10.9502C13.0813 10.9502 10.999 13.0325 10.999 15.6006C10.9992 18.1685 13.0814 20.25 15.6494 20.25C18.2173 20.2499 20.2986 18.1684 20.2988 15.6006ZM14.8994 13.7998C14.8994 13.3856 15.2353 13.0499 15.6494 13.0498C16.0636 13.0498 16.3994 13.3856 16.3994 13.7998V15.3633L17.4873 16.0439C17.8383 16.2635 17.945 16.726 17.7256 17.0771C17.5061 17.4284 17.0436 17.5349 16.6924 17.3154L15.252 16.416C15.0328 16.279 14.8996 16.0387 14.8994 15.7803V13.7998ZM14.8994 6.59961V5.5498H9.19922V6.59961C9.19922 7.01382 8.86344 7.34961 8.44922 7.34961C8.03501 7.34961 7.69922 7.01382 7.69922 6.59961V5.5498H7.14942C6.57699 5.5498 6.19237 5.55102 5.89649 5.5752C5.60953 5.59866 5.47237 5.64039 5.38184 5.68652C5.14674 5.80632 4.95579 5.99735 4.83594 6.23242C4.78982 6.32294 4.7471 6.4602 4.72364 6.74707C4.69946 7.04295 4.69922 7.42757 4.69922 8V9.4502H8.49903C8.91324 9.4502 9.24903 9.78598 9.24903 10.2002C9.24892 10.6143 8.91318 10.9502 8.49903 10.9502H4.69922V17.7998C4.69922 18.3722 4.69946 18.7569 4.72364 19.0527C4.7471 19.3397 4.78981 19.4768 4.83594 19.5674C4.95577 19.8025 5.14672 19.9935 5.38184 20.1133C5.47238 20.1594 5.60949 20.2021 5.89649 20.2256C6.19237 20.2498 6.57699 20.25 7.14942 20.25H8.49903C8.91324 20.25 9.24903 20.5858 9.24903 21C9.24903 21.4142 8.91324 21.75 8.49903 21.75H7.14942C6.60174 21.75 6.14555 21.751 5.77442 21.7207C5.39469 21.6897 5.03832 21.6219 4.70118 21.4502C4.18373 21.1865 3.76268 20.7655 3.49903 20.248C3.32731 19.9109 3.25955 19.5545 3.22852 19.1748C3.1982 18.8037 3.19922 18.3475 3.19922 17.7998V8C3.19922 7.45232 3.1982 6.99613 3.22852 6.625C3.25956 6.24528 3.32729 5.88889 3.49903 5.55176C3.76268 5.03431 4.18373 4.61326 4.70118 4.34961C5.03828 4.17794 5.39474 4.11111 5.77442 4.08008C6.14555 4.04976 6.60174 4.0498 7.14942 4.0498H7.69922V3C7.69922 2.58579 8.03501 2.25 8.44922 2.25C8.86344 2.25 9.19922 2.58579 9.19922 3V4.0498H14.8994V3C14.8994 2.58579 15.2352 2.25 15.6494 2.25C16.0635 2.25011 16.3994 2.58585 16.3994 3V4.0498H16.9492C17.4969 4.0498 17.9531 4.04976 18.3242 4.08008C18.7039 4.11112 19.0604 4.17791 19.3975 4.34961C19.9149 4.61326 20.336 5.03431 20.5996 5.55176C20.7713 5.88885 20.8381 6.24534 20.8691 6.625C20.8995 6.99613 20.8994 7.45232 20.8994 8V8.5C20.8994 8.91415 20.5635 9.24989 20.1494 9.25C19.7352 9.25 19.3994 8.91421 19.3994 8.5V8C19.3994 7.42757 19.3982 7.04295 19.374 6.74707C19.3506 6.46025 19.3088 6.32294 19.2627 6.23242C19.1429 5.99737 18.9519 5.80634 18.7168 5.68652C18.6263 5.6404 18.489 5.59866 18.2022 5.5752C17.9063 5.55102 17.5217 5.5498 16.9492 5.5498H16.3994V6.59961C16.3994 7.01376 16.0635 7.3495 15.6494 7.34961C15.2352 7.34961 14.8994 7.01382 14.8994 6.59961ZM21.7988 15.6006C21.7986 18.9969 19.0457 21.7499 15.6494 21.75C12.253 21.75 9.49924 18.997 9.49903 15.6006C9.49903 12.204 12.2529 9.4502 15.6494 9.4502C19.0459 9.45033 21.7988 12.2041 21.7988 15.6006Z" fill="currentColor"/>
</svg>
