<svg width="24" height="24" viewBox="0 0 24 24" fill="none" xmlns="http://www.w3.org/2000/svg">
<path d="M12.0178 18.5748C12.5699 18.575 13.0178 19.0227 13.0178 19.5748C13.0176 20.1267 12.5698 20.5746 12.0178 20.5748H12.0003C11.4481 20.5748 11.0005 20.1269 11.0003 19.5748C11.0003 19.0225 11.448 18.5748 12.0003 18.5748H12.0178ZM10.8499 16.0748V14.2897C10.85 13.8595 11.1255 13.4777 11.5335 13.3414L11.5393 13.3395C11.5459 13.3372 11.5572 13.3332 11.5725 13.3277C11.6036 13.3167 11.6522 13.299 11.7151 13.275C11.8411 13.227 12.025 13.1531 12.2473 13.0543C12.6949 12.8554 13.2845 12.5605 13.8665 12.1725C15.0911 11.356 15.9913 10.3317 15.9915 9.14903V9.14707C15.9929 8.16923 15.6485 7.22236 15.0188 6.47422C14.389 5.72602 13.514 5.22452 12.5501 5.05918C11.5863 4.89393 10.5953 5.07545 9.75222 5.5709C8.90917 6.06637 8.26822 6.8438 7.94363 7.76621C7.76035 8.2872 7.18922 8.56179 6.66823 8.37852C6.14733 8.19524 5.87374 7.62406 6.05691 7.10313C6.53819 5.73498 7.48817 4.58115 8.73855 3.84629C9.98892 3.11144 11.4595 2.84329 12.8889 3.08848C14.3182 3.33376 15.6142 4.07677 16.5481 5.18614C17.4819 6.2954 17.9934 7.69907 17.9915 9.14903L17.9866 9.35703C17.8873 11.4891 16.2795 12.9674 14.9759 13.8365C14.2726 14.3054 13.5762 14.6529 13.0598 14.8824C12.9866 14.915 12.916 14.9442 12.8499 14.9723V16.0748C12.8496 16.6269 12.402 17.0748 11.8499 17.0748C11.2979 17.0746 10.8501 16.6267 10.8499 16.0748Z" fill="currentColor"/>
</svg>
