<svg preserveAspectRatio="none" width="100%" height="100%" overflow="visible" style="display: block;" viewBox="0 0 593.632 336.11" fill="none" xmlns="http://www.w3.org/2000/svg">
<g id="B arrow">
<g id="image" filter="url(#filter0_f_10_5369)">
<path d="M256.389 311.145C257.225 310.309 257.225 308.953 256.389 308.117L242.76 294.488C241.924 293.651 240.568 293.651 239.732 294.488C238.895 295.324 238.895 296.68 239.732 297.516L251.846 309.631L239.732 321.746C238.895 322.582 238.895 323.938 239.732 324.774C240.568 325.611 241.924 325.611 242.76 324.774L256.389 311.145ZM118.639 12.8551L118.665 14.9966L118.639 12.8551ZM195.382 250.792L197.524 250.769L195.704 86.0326L193.562 86.0563L191.421 86.0799L193.241 250.816L195.382 250.792ZM118.639 12.8551L118.612 10.7137L10.7079 12.0307L10.7341 14.1722L10.7602 16.3136L118.665 14.9966L118.639 12.8551ZM193.562 86.0563L195.704 86.0326C195.238 43.9354 160.709 10.1999 118.612 10.7137L118.639 12.8551L118.665 14.9966C158.394 14.5116 190.982 46.3501 191.421 86.0799L193.562 86.0563ZM254.875 309.631L254.875 307.489C223.446 307.489 197.871 282.196 197.524 250.769L195.382 250.792L193.241 250.816C193.614 284.59 221.099 311.773 254.875 311.773L254.875 309.631Z" fill="url(#paint0_linear_10_5369)"/>
</g>
<path id="image_2" d="M256.183 310.94C256.906 310.217 256.906 309.045 256.183 308.322L244.406 296.545C243.683 295.823 242.512 295.823 241.789 296.545C241.066 297.268 241.066 298.44 241.789 299.162L252.258 309.631L241.789 320.1C241.066 320.822 241.066 321.994 241.789 322.717C242.512 323.44 243.683 323.44 244.406 322.717L256.183 310.94ZM195.03 250.797L196.88 250.766L194.087 86.8429L192.237 86.8744L190.386 86.9059L193.18 250.829L195.03 250.797ZM117.481 14.1149L117.463 12.2644L12.8571 13.3125L12.8757 15.1631L12.8942 17.0136L117.5 15.9654L117.481 14.1149ZM192.237 86.8744L194.087 86.8429C193.377 45.1521 159.157 11.8466 117.463 12.2644L117.481 14.1149L117.5 15.9654C157.161 15.568 189.71 47.2488 190.386 86.9059L192.237 86.8744ZM254.875 309.631L254.875 307.78C223.226 307.78 197.42 282.41 196.88 250.766L195.03 250.797L193.18 250.829C193.753 284.492 221.206 311.482 254.875 311.482L254.875 309.631Z" fill="url(#paint1_linear_10_5369)"/>
<path id="Vector 121" d="M593.09 311.326C593.812 310.603 593.812 309.431 593.09 308.708L581.312 296.931C580.59 296.209 579.418 296.209 578.695 296.931C577.972 297.654 577.972 298.826 578.695 299.548L589.164 310.017L578.695 320.486C577.972 321.208 577.972 322.38 578.695 323.103C579.418 323.826 580.59 323.826 581.312 323.103L593.09 311.326ZM406.781 310.017V311.868H591.781V310.017V308.166H406.781V310.017Z" fill="var(--stroke-0, #259B6C)"/>
</g>
<defs>
<filter id="filter0_f_10_5369" x="0" y="1.19209e-07" width="267.724" height="336.11" filterUnits="userSpaceOnUse" color-interpolation-filters="sRGB">
<feFlood flood-opacity="0" result="BackgroundImageFix"/>
<feBlend mode="normal" in="SourceGraphic" in2="BackgroundImageFix" result="shape"/>
<feGaussianBlur stdDeviation="5.35396" result="effect1_foregroundBlur_10_5369"/>
</filter>
<linearGradient id="paint0_linear_10_5369" x1="176.899" y1="30.1541" x2="191.879" y2="215.857" gradientUnits="userSpaceOnUse">
<stop offset="0.322663" stop-color="#259B6C" stop-opacity="0"/>
<stop offset="0.603394" stop-color="#28FFF2"/>
<stop offset="1" stop-color="#52C396" stop-opacity="0"/>
</linearGradient>
<linearGradient id="paint1_linear_10_5369" x1="180.469" y1="65.8472" x2="191.542" y2="252.688" gradientUnits="userSpaceOnUse">
<stop offset="0.230049" stop-color="#259B6C"/>
<stop offset="0.603394" stop-color="#28FFF2"/>
<stop offset="0.878853" stop-color="#259B6C"/>
</linearGradient>
</defs>
</svg>
