<svg preserveAspectRatio="none" width="100%" height="100%" overflow="visible" style="display: block;" viewBox="0 0 36.8198 352.5" fill="none" xmlns="http://www.w3.org/2000/svg">
<path id="Vector 137" d="M20.1777 0.732233C19.2014 -0.244078 17.6184 -0.244077 16.6421 0.732233L0.732233 16.6421C-0.244078 17.6184 -0.244078 19.2014 0.732233 20.1777C1.70854 21.154 3.29146 21.154 4.26777 20.1777L18.4099 6.03553L32.552 20.1777C33.5283 21.154 35.1113 21.154 36.0876 20.1777C37.0639 19.2014 37.0639 17.6184 36.0876 16.6421L20.1777 0.732233ZM18.4103 249.5H15.9103L15.9103 352.5H18.4103H20.9103L20.9103 249.5H18.4103ZM18.4099 2.5L15.9099 2.5L15.9099 104.5H18.4099H20.9099L20.9099 2.5L18.4099 2.5Z" fill="var(--stroke-0, #4C5159)"/>
</svg>
