<svg preserveAspectRatio="none" width="100%" height="100%" overflow="visible" style="display: block;" viewBox="0 0 124.8 49.6644" fill="none" xmlns="http://www.w3.org/2000/svg">
<g id="Area">
<path id="SvgjsPath1030" d="M0.337891 49.6644V17.049C4.76787 17.049 8.56499 8.89512 12.995 8.89512C16.9962 8.89512 20.4259 19.2728 24.4272 19.2728C28.8571 19.2728 32.6542 0 37.0842 0C41.3713 0 45.0459 33.3567 49.333 33.3567C53.763 33.3567 57.5601 17.7902 61.9901 17.7902C66.2771 17.7902 69.9518 34.0979 74.2389 34.0979C78.6688 34.0979 82.4659 19.2728 86.8959 19.2728C91.3259 19.2728 95.123 8.15386 99.553 8.15386C103.84 8.15386 107.515 29.6504 111.802 29.6504C116.232 29.6504 120.029 17.7902 124.459 17.7902C124.459 17.7902 124.459 17.7902 124.459 49.6644H0.337891Z" fill="url(#paint0_linear_10_1585)"/>
<path id="Line" d="M74.2407 9.69214C75.6781 9.69225 76.9552 10.4092 78.0556 11.2847C79.1562 12.1603 80.2218 13.3123 81.2297 14.4021L81.2404 14.4129L81.2584 14.4327C82.2988 15.5576 83.2805 16.6165 84.2658 17.4004C85.2615 18.1925 86.1204 18.5872 86.8978 18.5872C87.8116 18.5871 88.7354 18.3197 89.7134 17.8657C90.6977 17.4089 91.6755 16.7942 92.7146 16.1389L92.7316 16.1271L92.7415 16.1217C93.7513 15.4848 94.8214 14.8099 95.9237 14.2984C97.0417 13.7795 98.2539 13.3984 99.5548 13.3984C100.43 13.3985 101.172 13.8328 101.767 14.3678C102.371 14.91 102.932 15.6494 103.456 16.4752C104.498 18.1182 105.511 20.2878 106.494 22.3917L106.501 22.4061L106.511 22.4278C107.513 24.5747 108.485 26.6531 109.465 28.1973C109.955 28.9696 110.42 29.5612 110.854 29.9512C111.296 30.3479 111.607 30.4472 111.803 30.4472C113.867 30.4472 115.801 29.9307 117.876 29.3696L117.93 29.3551C119.953 28.8084 122.115 28.2234 124.46 28.2234C124.648 28.2234 124.8 28.3771 124.8 28.5661V29.5598C124.8 29.7488 124.648 29.9025 124.46 29.9025C122.396 29.9025 120.463 30.419 118.387 30.9801L118.333 30.9946C116.311 31.5413 114.149 32.1263 111.803 32.1263C110.928 32.1263 110.186 31.692 109.59 31.1569C108.986 30.6146 108.426 29.8745 107.901 29.0485C106.859 27.4056 105.846 25.2367 104.864 23.133L104.856 23.1176L104.847 23.096C103.844 20.9492 102.872 18.8715 101.892 17.3274C101.402 16.5553 100.938 15.9635 100.504 15.5735C100.062 15.177 99.7516 15.0776 99.5548 15.0775C98.6409 15.0775 97.7165 15.3449 96.7383 15.7989C95.7541 16.2557 94.7761 16.8705 93.7371 17.5258L93.7201 17.5366L93.7111 17.5429C92.7013 18.1798 91.6312 18.8547 90.5289 19.3663C89.4109 19.8852 88.1987 20.2662 86.8978 20.2662C85.4603 20.2662 84.1824 19.5492 83.082 18.6737C81.9813 17.798 80.9158 16.6461 79.9079 15.5563L79.8801 15.5257C78.8396 14.4007 77.8571 13.3419 76.8718 12.558C75.8762 11.7659 75.018 11.3713 74.2407 11.3712C74.1281 11.3712 73.8342 11.452 73.3616 11.9871C72.9134 12.4945 72.4391 13.2604 71.943 14.2461C70.9534 16.2123 69.9747 18.8515 68.9741 21.5531L68.966 21.5729L68.9606 21.5882C67.975 24.2493 66.9679 26.9689 65.9335 29.0242C65.4153 30.0536 64.8656 30.9676 64.2756 31.6357C63.7109 32.2751 62.9513 32.8675 61.9914 32.8675C60.6076 32.8675 59.352 32.2896 58.2392 31.5518C57.1356 30.8202 56.0666 29.8573 55.0588 28.9494L55.0301 28.9232C53.9896 27.9857 53.0112 27.1072 52.029 26.456C51.0456 25.804 50.1654 25.455 49.3343 25.455C48.6812 25.4551 47.8811 25.8952 46.8887 26.915C45.9285 27.9018 44.9725 29.2343 43.9664 30.6393L43.9404 30.6744C42.9638 32.0384 41.9384 33.4707 40.8792 34.5592C39.843 35.624 38.5762 36.5737 37.0858 36.5738C34.6236 36.5738 32.3844 35.3624 30.4087 34.2941L30.2985 34.2355C28.1869 33.094 26.3512 32.1263 24.4288 32.1263C23.7633 32.1263 23.0096 32.47 22.114 33.1931C21.2297 33.9071 20.3469 34.8731 19.4059 35.9056L19.3781 35.9362C18.4695 36.9332 17.504 37.9928 16.5051 38.7993C15.5075 39.6048 14.3317 40.28 12.9967 40.28C10.5714 40.28 8.35347 39.2806 6.3608 38.3827L6.27029 38.3421C4.17243 37.3971 2.30761 36.5739 0.339637 36.5738C0.152195 36.5738 0 36.4201 0 36.2311V35.2374C0 35.0484 0.152195 34.8947 0.339637 34.8947C2.76492 34.8948 4.9829 35.8942 6.97555 36.792L7.00423 36.8055L7.06606 36.8326C9.164 37.7777 11.0287 38.601 12.9967 38.601C13.6622 38.6009 14.4159 38.2573 15.3114 37.5342C16.1957 36.8202 17.0786 35.8542 18.0196 34.8217L18.0474 34.791C18.956 33.794 19.9215 32.7344 20.9204 31.9279C21.918 31.1224 23.0938 30.4472 24.4288 30.4472C26.8909 30.4472 29.1302 31.6586 31.1059 32.7269L31.2152 32.7855C33.3269 33.927 35.1633 34.8947 37.0858 34.8947C37.7389 34.8946 38.539 34.4546 39.5314 33.4347C40.4917 32.4479 41.4485 31.1156 42.4546 29.7104L42.4699 29.6888L42.4797 29.6753C43.4564 28.3113 44.4817 26.879 45.5409 25.7905C46.5771 24.7257 47.844 23.776 49.3343 23.7759C50.7182 23.7759 51.9744 24.3538 53.0873 25.0916C54.1907 25.8232 55.2592 26.7862 56.2668 27.6941L56.2964 27.7202C57.3368 28.6576 58.3146 29.5364 59.2967 30.1875C60.28 30.8394 61.1603 31.1884 61.9914 31.1884C62.104 31.1884 62.3979 31.1076 62.8705 30.5725C63.3186 30.0651 63.7929 29.2993 64.2891 28.3136C65.2787 26.3474 66.2574 23.7082 67.258 21.0066L67.2705 20.9723C68.2563 18.3106 69.2639 15.5902 70.2986 13.5346C70.8168 12.5049 71.3663 11.5912 71.9564 10.923C72.5212 10.2836 73.2808 9.69214 74.2407 9.69214Z" fill="var(--fill-0, #7AD1AE)"/>
</g>
<defs>
<linearGradient id="paint0_linear_10_1585" x1="62.3984" y1="-0.199741" x2="62.3984" y2="56.5899" gradientUnits="userSpaceOnUse">
<stop stop-color="#BBD7F7"/>
<stop offset="1" stop-color="#F9FBFC" stop-opacity="0"/>
</linearGradient>
</defs>
</svg>
