<svg preserveAspectRatio="none" width="100%" height="100%" overflow="visible" style="display: block;" viewBox="0 0 356.41 251" fill="none" xmlns="http://www.w3.org/2000/svg">
<path id="Vector 134" d="M336.232 250.268C337.209 251.244 338.791 251.244 339.768 250.268L355.678 234.358C356.654 233.382 356.654 231.799 355.678 230.822C354.701 229.846 353.118 229.846 352.142 230.822L338 244.964L323.858 230.822C322.882 229.846 321.299 229.846 320.322 230.822C319.346 231.799 319.346 233.382 320.322 234.358L336.232 250.268ZM338 32.5H335.5V125.5H338H340.5V32.5H338ZM338 125.5H335.5V248.5H338H340.5V125.5H338ZM272 2.5V5H308V2.5V0H272V2.5ZM0 2.5V5H63V2.5V0H0V2.5ZM338 32.5H340.5C340.5 14.5507 325.949 0 308 0V2.5V5C323.188 5 335.5 17.3122 335.5 32.5H338Z" fill="var(--stroke-0, #4C5159)"/>
</svg>
