<svg preserveAspectRatio="none" width="100%" height="100%" overflow="visible" style="display: block;" viewBox="0 0 18.4099 269.5" fill="none" xmlns="http://www.w3.org/2000/svg">
<path id="Path" d="M10.0888 0.366117C9.60068 -0.122039 8.80922 -0.122039 8.32107 0.366117L0.366117 8.32107C-0.122039 8.80922 -0.122039 9.60068 0.366117 10.0888C0.854272 10.577 1.64573 10.577 2.13388 10.0888L9.20495 3.01777L16.276 10.0888C16.7642 10.577 17.5556 10.577 18.0438 10.0888C18.5319 9.60068 18.5319 8.80922 18.0438 8.32107L10.0888 0.366117ZM7.95495 268.25C7.95495 268.94 8.5146 269.5 9.20495 269.5C9.89531 269.5 10.455 268.94 10.455 268.25H9.20495H7.95495ZM9.20495 1.25H7.95495V268.25H9.20495H10.455V1.25H9.20495Z" fill="var(--stroke-0, #2C9C6F)"/>
</svg>
