<svg preserveAspectRatio="none" width="100%" height="100%" overflow="visible" style="display: block;" viewBox="0 0 33.1378 392.25" fill="none" xmlns="http://www.w3.org/2000/svg">
<path id="Vector 153" d="M18.1599 0.65901C17.2812 -0.21967 15.8566 -0.21967 14.9779 0.65901L0.659009 14.9779C-0.219669 15.8566 -0.219669 17.2812 0.65901 18.1599C1.53769 19.0386 2.96231 19.0386 3.84099 18.1599L16.5689 5.43198L29.2968 18.1599C30.1755 19.0386 31.6001 19.0386 32.4788 18.1599C33.3575 17.2812 33.3575 15.8566 32.4788 14.9779L18.1599 0.65901ZM16.5689 296.25H14.3189L14.3189 392.25H16.5689H18.8189L18.8189 296.25H16.5689ZM16.5689 2.25L14.3189 2.25L14.3189 101.25H16.5689H18.8189L18.8189 2.25L16.5689 2.25Z" fill="var(--stroke-0, #8F99A3)"/>
</svg>
