<svg preserveAspectRatio="none" width="100%" height="100%" overflow="visible" style="display: block;" viewBox="0 0 138.099 77.4428" fill="none" xmlns="http://www.w3.org/2000/svg">
<path id="Vector 29" d="M1.86287 61.4095C1.26112 61.0711 0.499009 61.2846 0.160652 61.8864C-0.177704 62.4881 0.0358206 63.2502 0.637573 63.5886L1.25022 62.499L1.86287 61.4095ZM129.985 0.386807C129.508 -0.112513 128.717 -0.130826 128.217 0.345904L120.08 8.11466C119.581 8.59139 119.563 9.38264 120.039 9.88196C120.516 10.3813 121.307 10.3996 121.807 9.92286L129.04 3.0173L135.945 10.2501C136.422 10.7494 137.213 10.7677 137.712 10.291C138.212 9.81426 138.23 9.02301 137.753 8.52369L129.985 0.386807ZM1.25022 62.499L0.637573 63.5886C31.3834 80.8765 63.4167 81.1251 87.9914 69.0969C112.578 57.0629 129.601 32.7798 130.33 1.27892L129.08 1.25L127.831 1.22108C127.124 31.7763 110.652 55.2226 86.8924 66.8515C63.1213 78.4863 31.9576 78.3313 1.86287 61.4095L1.25022 62.499Z" fill="var(--stroke-0, #2C9C6F)"/>
</svg>
