<svg preserveAspectRatio="none" width="100%" height="100%" overflow="visible" style="display: block;" viewBox="0 0 573.992 94.1705" fill="none" xmlns="http://www.w3.org/2000/svg">
<path id="Vector 120" d="M8.75934 0.31787C8.33551 -0.105957 7.64835 -0.105957 7.22453 0.31787L0.31787 7.22453C-0.105957 7.64835 -0.105957 8.33551 0.31787 8.75934C0.741697 9.18317 1.42886 9.18317 1.85268 8.75934L7.99193 2.62009L14.1312 8.75934C14.555 9.18317 15.2422 9.18317 15.666 8.75934C16.0898 8.33551 16.0898 7.64835 15.666 7.22453L8.75934 0.31787ZM7.99193 1.08528H6.90666V66.0853H7.99193H9.07721V1.08528H7.99193ZM34.9919 93.0853V94.1706H573.992V93.0853V92H34.9919V93.0853ZM7.99193 66.0853H6.90666C6.90666 81.5963 19.4809 94.1706 34.9919 94.1706V93.0853V92C20.6796 92 9.07721 80.3976 9.07721 66.0853H7.99193Z" fill="var(--stroke-0, #259B6C)"/>
</svg>
