<svg preserveAspectRatio="none" width="100%" height="100%" overflow="visible" style="display: block;" viewBox="0 0 482.887 193.014" fill="none" xmlns="http://www.w3.org/2000/svg">
<g id="Container">
<path id="Vector 160" d="M-1.51849e-08 189.016C-1.51849e-08 191.224 1.78993 193.014 3.99792 193.014C6.20591 193.014 7.99584 191.224 7.99584 189.016C7.99584 186.808 6.20591 185.019 3.99792 185.019C1.78993 185.019 -1.51849e-08 186.808 -1.51849e-08 189.016ZM3.99792 189.016H4.74753V12.4925H3.99792H3.24831V189.016H3.99792ZM173.108 0.74961V1.49922H465.313V0.74961V8.03266e-09H173.108V0.74961ZM477.056 12.4925H476.306V83.9834H477.056H477.806V12.4925H477.056ZM15.7408 0.74961V1.49922H173.108V0.74961V8.03266e-09H15.7408V0.74961ZM465.313 0.74961V1.49922C471.385 1.49922 476.306 6.42105 476.306 12.4925H477.056H477.806C477.806 5.59306 472.213 8.03266e-09 465.313 8.03266e-09V0.74961ZM3.99792 12.4925H4.74753C4.74753 6.42107 9.66937 1.49922 15.7408 1.49922V0.74961V8.03266e-09C8.84137 8.03266e-09 3.24831 5.59307 3.24831 12.4925H3.99792Z" fill="var(--stroke-0, #259B6C)"/>
<path id="arrow" d="M471.692 79.033L476.956 84.2965L482.22 79.033" stroke="var(--stroke-0, #259B6C)" stroke-width="1.33412" stroke-linecap="round"/>
</g>
</svg>
