<svg preserveAspectRatio="none" width="100%" height="100%" overflow="visible" style="display: block;" viewBox="0 0 79.8311 69.86" fill="none" xmlns="http://www.w3.org/2000/svg">
<path id="Icon" d="M59.8733 28.5529V10.9963C59.8733 8.65746 58.4232 6.56813 56.2248 5.74176L41.8801 0.362514C40.6172 -0.120838 39.2139 -0.120838 37.9353 0.362514L23.5907 5.74176C21.3922 6.56813 19.9422 8.65746 19.9422 10.9963V28.5529L3.64853 34.6805C1.45006 35.4913 0 37.5962 0 39.935V56.5561C0 58.6766 1.20058 60.6256 3.10281 61.5767L18.4765 69.2636C20.0513 70.0588 21.9224 70.0588 23.4971 69.2636L39.9155 61.0622L56.3339 69.2636C57.9087 70.0588 59.7797 70.0588 61.3545 69.2636L76.7282 61.5767C78.6305 60.6256 79.8311 58.6766 79.8311 56.5561V39.935C79.8311 37.5962 78.381 35.5069 76.1825 34.6805L59.8733 28.5529ZM41.7866 33.9789V18.7143L56.1312 13.7716V28.9894L41.7866 33.9789ZM23.6998 9.70212L39.9155 3.62124L56.1312 9.70212V9.73331L39.9155 15.44L23.6998 9.71772V9.70212ZM23.6998 13.7716L38.0445 18.7143V33.9789L23.6998 28.9894V13.7716ZM19.0222 65.1317L3.92918 57.5852V43.0378L19.0222 49.1655V65.1317V65.1317ZM3.92918 38.7968V38.7656L20.9868 32.3729L37.8418 38.6877V38.8748L20.9868 45.7197L3.92918 38.7968V38.7968ZM22.9514 49.1655L37.8418 43.1158V57.6943L22.9514 65.1473V49.1655ZM56.8796 65.1317L41.9893 57.6943V43.1314L56.8796 49.1811V65.1317V65.1317ZM75.9019 57.5852L60.8088 65.1317V49.1655L75.9019 43.0378V57.5852V57.5852ZM75.9019 38.7968L58.8442 45.7197L41.9893 38.8748V38.6877L58.8442 32.3729L75.9019 38.7656V38.7968Z" fill="var(--fill-0, #52C396)"/>
</svg>
