<svg preserveAspectRatio="none" width="100%" height="100%" overflow="visible" style="display: block;" viewBox="0 0 97.0772 376.085" fill="none" xmlns="http://www.w3.org/2000/svg">
<path id="Vector 127" d="M8.75934 0.31787C8.33551 -0.105957 7.64835 -0.105957 7.22453 0.31787L0.31787 7.22453C-0.105957 7.64835 -0.105957 8.33551 0.31787 8.75934C0.741697 9.18317 1.42886 9.18317 1.85268 8.75934L7.99193 2.62009L14.1312 8.75934C14.555 9.18317 15.2422 9.18317 15.666 8.75934C16.0898 8.33551 16.0898 7.64835 15.666 7.22453L8.75934 0.31787ZM7.99193 1.08528L6.90666 1.08528V181.848H7.99193H9.07721V1.08528L7.99193 1.08528ZM34.9919 208.848V209.934H68.9919V208.848V207.763H34.9919V208.848ZM95.9919 235.848H94.9067V376.085H95.9919H97.0772V235.848H95.9919ZM68.9919 208.848V209.934C83.3042 209.934 94.9067 221.536 94.9067 235.848H95.9919H97.0772C97.0772 220.337 84.503 207.763 68.9919 207.763V208.848ZM7.99193 181.848H6.90666C6.90666 197.359 19.4809 209.934 34.9919 209.934V208.848V207.763C20.6796 207.763 9.07721 196.161 9.07721 181.848H7.99193Z" fill="var(--stroke-0, #8F99A3)"/>
</svg>
