<svg preserveAspectRatio="none" width="100%" height="100%" overflow="visible" style="display: block;" viewBox="0 0 74.7837 73.3164" fill="none" xmlns="http://www.w3.org/2000/svg">
<path id="Icon" fill-rule="evenodd" clip-rule="evenodd" d="M37.1245 0C38.3191 0 39.2876 0.981933 39.2876 2.19321V7.38461H64.7656C65.9603 7.38461 66.9288 8.36654 66.9288 9.57782V47.3347H72.6205C73.8152 47.3347 74.7837 48.3167 74.7837 49.528C74.7837 50.7392 73.8152 51.7212 72.6205 51.7212H47.2766L54.6399 70.3051C55.0852 71.429 54.5476 72.7062 53.439 73.1578C52.3304 73.6093 51.0707 73.0642 50.6254 71.9402L42.6142 51.7212H39.2876V66.8037C39.2876 68.015 38.3191 68.9969 37.1245 68.9969C35.9298 68.9969 34.9613 68.015 34.9613 66.8037V51.7212H31.6347L23.6236 71.9402C23.1782 73.0642 21.9185 73.6093 20.8099 73.1578C19.7014 72.7062 19.1637 71.429 19.6091 70.3051L26.9724 51.7212H2.16316C0.968482 51.7212 0 50.7392 0 49.528C0 48.3167 0.968482 47.3347 2.16316 47.3347H7.32013V9.57782C7.32013 8.36654 8.28861 7.38461 9.4833 7.38461H34.9613V2.19321C34.9613 0.981933 35.9298 0 37.1245 0ZM15.7602 16.2924C14.5655 16.2924 13.597 17.2743 13.597 18.4856C13.597 19.6969 14.5655 20.6788 15.7602 20.6788H59.0235C60.2182 20.6788 61.1867 19.6969 61.1867 18.4856C61.1867 17.2743 60.2182 16.2924 59.0235 16.2924H15.7602ZM15.7602 25.0652C14.5655 25.0652 13.597 26.0472 13.597 27.2585C13.597 28.4697 14.5655 29.4517 15.7602 29.4517H38.0099C39.2046 29.4517 40.1731 28.4697 40.1731 27.2585C40.1731 26.0472 39.2046 25.0652 38.0099 25.0652H15.7602Z" fill="var(--fill-0, #5EA3ED)"/>
</svg>
