<svg preserveAspectRatio="none" width="100%" height="100%" overflow="visible" style="display: block;" viewBox="0 0 315.667 226.8" fill="none" xmlns="http://www.w3.org/2000/svg">
<g id="Chart" opacity="0.8">
<path id="Background" fill-rule="evenodd" clip-rule="evenodd" d="M4.36778 0C1.95553 0 5.43311e-06 1.95551 5.43311e-06 4.36776V222.432C5.43311e-06 224.845 1.95552 226.8 4.36777 226.8H311.299C313.711 226.8 315.667 224.845 315.667 222.432V4.36776C315.667 1.95551 313.711 0 311.299 0H4.36778Z" fill="url(#paint0_linear_10_559)"/>
<path id="Container" opacity="0.5" d="M24.9035 19.5688C24.9035 17.604 26.4963 16.0112 28.4611 16.0112H150.311C152.275 16.0112 153.868 17.604 153.868 19.5688V19.5688C153.868 21.5337 152.275 23.1265 150.311 23.1265H28.4611C26.4963 23.1265 24.9035 21.5337 24.9035 19.5688V19.5688Z" fill="url(#paint1_linear_10_559)"/>
<g id="|">
<line id="Line 44" opacity="0.3" x1="26.1508" y1="35.4962" x2="25.3854" y2="210.792" stroke="var(--stroke-0, #52C396)" stroke-width="0.96361"/>
<path id="Vector" opacity="0.3" d="M93.8009 210.799L93.8009 35.5034" stroke="var(--stroke-0, #52C396)" stroke-width="0.96361" stroke-dasharray="4.42 4.42"/>
<path id="Vector_2" opacity="0.3" d="M161.929 210.799L161.929 35.5034" stroke="var(--stroke-0, #52C396)" stroke-width="0.96361" stroke-dasharray="4.42 4.42"/>
<path id="Vector_3" opacity="0.3" d="M230.059 210.799L230.059 35.5034" stroke="var(--stroke-0, #52C396)" stroke-width="0.96361" stroke-dasharray="4.42 4.42"/>
</g>
<g id="columns" opacity="0.3">
<path id="Rectangle" d="M286.164 49.068C287.681 49.068 288.91 50.2976 288.91 51.8145V64.9992C288.91 66.516 287.681 67.7457 286.164 67.7457H25.6444V49.068L286.164 49.068Z" fill="var(--fill-0, #53806E)"/>
<path id="Rectangle_2" d="M248.809 74.8593C250.325 74.8593 251.555 76.0889 251.555 77.6058V90.7904C251.555 92.3073 250.325 93.5369 248.809 93.5369H25.6444V74.8593H248.809Z" fill="var(--fill-0, #489A79)"/>
<path id="Rectangle_3" d="M210.564 100.651C212.081 100.651 213.31 101.88 213.31 103.397V116.582C213.31 118.099 212.081 119.328 210.564 119.328H25.6444V100.651H210.564Z" fill="var(--fill-0, #53B48E)"/>
<path id="Rectangle_4" d="M149.194 126.446C150.711 126.446 151.941 127.675 151.941 129.192V142.377C151.941 143.894 150.711 145.123 149.194 145.123H25.6444V126.446H149.194Z" fill="var(--fill-0, #6DD3AA)"/>
<path id="Rectangle_5" d="M123.402 152.237C124.918 152.237 126.148 153.467 126.148 154.983V168.168C126.148 169.685 124.918 170.915 123.402 170.915H25.6446V152.237H123.402Z" fill="var(--fill-0, #82E8BF)"/>
<path id="Rectangle_6" d="M87.8251 178.032C89.3419 178.032 90.5716 179.262 90.5716 180.779V193.963C90.5716 195.48 89.3419 196.71 87.8251 196.71H25.6445V178.032H87.8251Z" fill="var(--fill-0, #A1E5C9)"/>
</g>
</g>
<defs>
<linearGradient id="paint0_linear_10_559" x1="129.548" y1="-66.1024" x2="196.115" y2="182.33" gradientUnits="userSpaceOnUse">
<stop stop-color="#CCEDE0"/>
<stop offset="1" stop-color="#EAF8F2"/>
</linearGradient>
<linearGradient id="paint1_linear_10_559" x1="24.9035" y1="19.5688" x2="153.868" y2="19.5688" gradientUnits="userSpaceOnUse">
<stop stop-color="#62A389"/>
<stop offset="1" stop-color="#D9F2E8"/>
</linearGradient>
</defs>
</svg>
