<svg preserveAspectRatio="none" width="100%" height="100%" overflow="visible" style="display: block;" viewBox="0 0 675.077 343.585" fill="none" xmlns="http://www.w3.org/2000/svg">
<path id="Vector 126" d="M8.75934 262.733C8.33551 262.309 7.64835 262.309 7.22453 262.733L0.31787 269.639C-0.105957 270.063 -0.105957 270.75 0.31787 271.174C0.741697 271.598 1.42886 271.598 1.85268 271.174L7.99193 265.035L14.1312 271.174C14.555 271.598 15.2422 271.598 15.666 271.174C16.0898 270.75 16.0898 270.063 15.666 269.639L8.75934 262.733ZM7.99193 263.5H6.90666V315.5H7.99193H9.07721V263.5H7.99193ZM34.9919 342.5V343.585H646.992V342.5V341.415H34.9919V342.5ZM673.992 315.5H675.077V0H673.992H672.907V315.5H673.992ZM646.992 342.5V343.585C662.503 343.585 675.077 331.011 675.077 315.5H673.992H672.907C672.907 329.812 661.304 341.415 646.992 341.415V342.5ZM7.99193 315.5H6.90666C6.90666 331.011 19.4809 343.585 34.9919 343.585V342.5V341.415C20.6796 341.415 9.07721 329.812 9.07721 315.5H7.99193Z" fill="var(--stroke-0, #259B6C)"/>
</svg>
