<svg preserveAspectRatio="none" width="100%" height="100%" overflow="visible" style="display: block;" viewBox="0 0 42.3111 42.3111" fill="none" xmlns="http://www.w3.org/2000/svg">
<g id="D / dashboard / solid">
<path id="Union" fill-rule="evenodd" clip-rule="evenodd" d="M21.9754 6.80291C22.4567 6.80291 22.8469 7.19309 22.8469 7.6744V9.73726H33.1115C33.5928 9.73726 33.983 10.1274 33.983 10.6088V25.6119H36.2761C36.7574 25.6119 37.1476 26.0021 37.1476 26.4834C37.1476 26.9647 36.7574 27.3549 36.2761 27.3549H26.0655L29.032 34.7394C29.2114 35.186 28.9948 35.6935 28.5482 35.8729C28.1016 36.0524 27.5941 35.8358 27.4147 35.3891L24.1871 27.3549H22.8469V33.3481C22.8469 33.8294 22.4567 34.2196 21.9754 34.2196C21.4941 34.2196 21.1039 33.8294 21.1039 33.3481V27.3549H19.7637L16.5362 35.3891C16.3567 35.8358 15.8492 36.0524 15.4026 35.8729C14.956 35.6935 14.7394 35.186 14.9188 34.7394L17.8853 27.3549H7.89021C7.40889 27.3549 7.01871 26.9647 7.01871 26.4834C7.01871 26.0021 7.40889 25.6119 7.89021 25.6119H9.96784V10.6088C9.96784 10.1274 10.358 9.73726 10.8393 9.73726H21.1039V7.6744C21.1039 7.19309 21.4941 6.80291 21.9754 6.80291ZM13.3682 13.2769C12.8869 13.2769 12.4967 13.6671 12.4967 14.1484C12.4967 14.6297 12.8869 15.0199 13.3682 15.0199H30.7981C31.2794 15.0199 31.6696 14.6297 31.6696 14.1484C31.6696 13.6671 31.2794 13.2769 30.7981 13.2769H13.3682ZM13.3682 16.7629C12.8869 16.7629 12.4967 17.153 12.4967 17.6344C12.4967 18.1157 12.8869 18.5058 13.3682 18.5058H22.3321C22.8134 18.5058 23.2036 18.1157 23.2036 17.6344C23.2036 17.153 22.8134 16.7629 22.3321 16.7629H13.3682Z" fill="var(--fill-0, #1071CB)"/>
</g>
</svg>
