<svg preserveAspectRatio="none" width="100%" height="100%" overflow="visible" style="display: block;" viewBox="0 0 127.985 48.5731" fill="none" xmlns="http://www.w3.org/2000/svg">
<g id="Line">
<path id="Blue" fill-rule="evenodd" clip-rule="evenodd" d="M101.279 13.2107C101.879 11.6256 104.068 11.4885 104.861 12.9864L115.528 33.1394L126.323 22.8992C126.717 22.525 127.34 22.5414 127.714 22.9359C128.089 23.3303 128.072 23.9535 127.678 24.3277L116.883 34.5679C115.938 35.4648 114.398 35.2124 113.788 34.0606L103.12 13.9076L92.8006 41.1788C92.3401 42.3957 90.847 42.8394 89.7968 42.0713L79.7731 34.7411L68.5488 40.2652C67.7093 40.6784 66.695 40.4437 66.1223 39.7038L54.7701 25.0378L44.8319 33.6269C43.9495 34.3895 42.6014 34.2223 41.932 33.2673L31.3246 18.1327L21.2439 35.1156C20.4675 36.4237 18.5643 36.3948 17.8279 35.0639L6.94612 15.3977L1.29198 17.2548C0.775406 17.4245 0.219098 17.1433 0.0494276 16.6267C-0.120243 16.1101 0.160976 15.5538 0.677546 15.3842L6.33169 13.527C7.22999 13.232 8.21119 13.6171 8.66896 14.4444L19.5507 34.1106L29.6314 17.1277C30.3611 15.8983 32.1164 15.8319 32.9369 17.0026L43.5444 32.1372L53.4826 23.5481C54.337 22.8097 55.636 22.9396 56.3272 23.8326L67.6793 38.4986L78.9036 32.9745C79.5611 32.6509 80.3439 32.7192 80.9354 33.1518L90.959 40.482L101.279 13.2107Z" fill="var(--fill-0, #BBD7F7)"/>
<path id="Green" fill-rule="evenodd" clip-rule="evenodd" d="M76.9265 1.0947C77.7218 -0.509511 80.072 -0.305567 80.579 1.41167L91.494 38.3775L101.985 27.2079C102.319 26.8529 102.772 26.6341 103.257 26.5937L114.561 25.6533L126.801 23.126C127.333 23.016 127.854 23.3586 127.964 23.8911C128.074 24.4236 127.731 24.9444 127.199 25.0543L114.9 27.5937C114.862 27.6017 114.822 27.6073 114.783 27.6106L103.42 28.5559L92.9291 39.7255C91.8878 40.8342 90.0363 40.3938 89.6056 38.9351L78.6906 1.96926L67.7457 24.0466C67.4485 24.6461 66.8673 25.0536 66.2024 25.1286L55.154 26.3759L44.5728 47.4863C43.9079 48.8129 42.0702 48.9551 41.209 47.7467L31.2159 33.723L20.929 42.1476C20.0402 42.8755 18.7197 42.6911 18.0643 41.7477L6.27452 24.7773L0.38417 20.2448C-0.046747 19.9132 -0.127278 19.2951 0.204299 18.8642C0.535876 18.4333 1.154 18.3528 1.58492 18.6843L7.47527 23.2168C7.63568 23.3402 7.7761 23.4876 7.89158 23.6539L19.6814 40.6243L29.9684 32.1997C30.8499 31.4778 32.1582 31.6525 32.8194 32.5804L42.8126 46.604L53.3937 25.4936C53.6921 24.8982 54.2713 24.494 54.9331 24.4193L65.9816 23.1721L76.9265 1.0947Z" fill="var(--fill-0, #7AD1AE)"/>
</g>
</svg>
