<svg preserveAspectRatio="none" width="100%" height="100%" overflow="visible" style="display: block;" viewBox="0 0 350.858 79.6694" fill="none" xmlns="http://www.w3.org/2000/svg">
<g id="Vector">
<path id="Vector_2" d="M87.878 13.574H94.8103V32.0518C94.8103 33.7817 94.685 35.0478 94.685 35.0478H94.8103C96.3731 31.5462 100.982 26.9915 108.169 26.9915C116.664 26.9915 120.597 31.6339 120.597 40.8269V63.9429H113.664V42.4273C113.664 37.367 112.607 33.3555 106.815 33.3555C101.362 33.3555 96.8829 37.0661 95.3577 42.2977C94.9357 43.731 94.7643 45.3774 94.7643 47.0655V63.9805H87.832V13.574H87.8738H87.878Z" fill="var(--fill-0, #05264C)"/>
<path id="Vector_3" d="M147.903 26.9875C158.725 26.9875 167.434 34.9185 167.434 45.8456C167.434 56.7727 158.725 64.829 147.903 64.829C137.08 64.829 128.372 56.8145 128.372 45.8456C128.372 34.8768 137.08 26.9875 147.903 26.9875ZM147.903 58.8411C154.752 58.8411 160.33 53.4005 160.33 45.8498C160.33 38.299 154.752 32.9839 147.903 32.9839C141.054 32.9839 135.476 38.3408 135.476 45.8498C135.434 53.4005 141.096 58.8411 147.903 58.8411Z" fill="var(--fill-0, #05264C)"/>
<path id="Vector_4" d="M175.21 13.574H182.142V52.8905C182.142 57.2363 183.876 58.0385 185.991 58.0385C186.626 58.0385 187.215 57.955 187.215 57.955V64.1142C187.215 64.1142 186.158 64.2396 184.934 64.2396C181.002 64.2396 175.21 63.1866 175.21 54.1148V13.574Z" fill="var(--fill-0, #05264C)"/>
<path id="Vector_5" d="M194.532 13.574H201.548V20.6609H194.532V13.574ZM194.574 27.8732H201.506V63.9847H194.574V27.8732Z" fill="var(--fill-0, #05264C)"/>
<path id="Vector_6" d="M212.835 54.6204C212.835 54.6204 216.893 58.8408 223.19 58.8408C226.19 58.8408 229.19 57.2822 229.19 54.3279C229.19 47.7048 210.591 49.0545 210.591 37.2834C210.591 30.7021 216.466 26.9915 223.695 26.9915C231.643 26.9915 235.362 30.9987 235.362 30.9987L232.571 36.2304C232.571 36.2304 229.357 33.0254 223.608 33.0254C220.607 33.0254 217.691 34.2915 217.691 37.4547C217.691 43.9524 236.29 42.515 236.29 54.3697C236.29 60.3618 231.133 64.8747 223.186 64.8747C214.31 64.8747 209.446 59.6013 209.446 59.6013L212.827 54.6246L212.835 54.6204Z" fill="var(--fill-0, #05264C)"/>
<path id="Vector_7" d="M245.933 33.9073H241.198V28.3372H246.146V17.9158H252.869V28.3372H261.577V33.9073H252.869V49.9782C252.869 57.1905 257.942 58.1182 260.604 58.1182C261.619 58.1182 262.254 57.9928 262.254 57.9928V64.1521C262.254 64.1521 261.239 64.2774 259.801 64.2774C255.151 64.2774 245.937 62.8442 245.937 50.7763V33.9031L245.933 33.9073Z" fill="var(--fill-0, #05264C)"/>
<path id="Vector_8" d="M269.989 13.574H277.005V20.6609H269.989V13.574ZM270.031 27.8732H276.963V63.9847H270.031V27.8732Z" fill="var(--fill-0, #05264C)"/>
<path id="Vector_9" d="M304.65 26.9873C313.739 26.9873 318.264 32.2607 318.264 32.2607L314.967 37.1539C314.967 37.1539 311.119 33.0212 304.947 33.0212C297.634 33.0212 292.348 38.4618 292.348 45.8872C292.348 53.3126 297.634 58.8785 305.156 58.8785C311.879 58.8785 316.317 54.0271 316.317 54.0271L319.108 59.0874C319.108 59.0874 314.119 64.8664 304.65 64.8664C293.28 64.8664 285.249 56.8101 285.249 45.9666C285.291 35.2108 293.28 26.9832 304.65 26.9832V26.9873Z" fill="var(--fill-0, #05264C)"/>
<path id="Vector_10" d="M327.395 54.6204C327.395 54.6204 331.453 58.8408 337.754 58.8408C340.754 58.8408 343.759 57.2822 343.759 54.3279C343.759 47.7048 325.16 49.0545 325.16 37.2834C325.16 30.7021 331.035 26.9915 338.264 26.9915C346.211 26.9915 349.93 30.9987 349.93 30.9987L347.139 36.2304C347.139 36.2304 343.926 33.0254 338.176 33.0254C335.176 33.0254 332.259 34.2915 332.259 37.4547C332.259 43.9524 350.858 42.515 350.858 54.3697C350.858 60.3618 345.702 64.8747 337.754 64.8747C328.879 64.8747 324.015 59.6013 324.015 59.6013L327.395 54.6246V54.6204Z" fill="var(--fill-0, #05264C)"/>
<g id="Group">
<g id="Group_2">
<path id="Vector_11" d="M59.3275 17.5021C59.8791 15.6426 60.9822 14.0213 62.4489 12.8304L41.886 0.958991C39.6671 -0.319663 36.9385 -0.319663 34.7197 0.958991L6.4263 17.2932C4.20746 18.5718 2.84523 20.9369 2.84523 23.4984V48.6745C4.00271 48.1689 5.27718 47.8889 6.61852 47.8889H8.45293V24.7436C8.45293 23.4148 9.16329 22.1863 10.3124 21.5219L36.4496 6.43297C37.5987 5.76857 39.0194 5.76857 40.1686 6.43297L59.3358 17.4979L59.3275 17.5021Z" fill="var(--fill-0, #2CB67F)"/>
<path id="Vector_12" d="M68.4209 29.6702C68.3331 29.6702 68.2453 29.6661 68.1576 29.6619V54.9216C68.1576 56.2504 67.4472 57.4789 66.2981 58.1433L40.1609 73.2322C39.0118 73.8966 37.5911 73.8966 36.442 73.2322L15.3483 61.0516C14.5878 62.8484 13.2883 64.361 11.6503 65.3932L34.7162 78.7104C36.935 79.989 39.6637 79.989 41.8825 78.7104L70.1801 62.372C72.3989 61.0934 73.7611 58.7283 73.7611 56.1668V28.0113C72.2401 29.056 70.3973 29.6661 68.4167 29.6661L68.4209 29.6702Z" fill="var(--fill-0, #05264C)"/>
</g>
<path id="Vector_13" d="M68.4205 13.574C64.7684 13.574 61.8058 16.5367 61.8058 20.1888C61.8058 21.0663 61.9771 21.9062 62.2905 22.6709L41.4978 42.0972C40.5534 41.5749 39.4628 41.2782 38.3053 41.2782C34.6532 41.2782 31.6906 44.2408 31.6906 47.8929C31.6906 47.9598 31.6906 48.0267 31.6947 48.0935L12.2768 53.9478C11.1193 52.0339 9.01744 50.7553 6.61474 50.7553C2.96263 50.7553 0 53.7179 0 57.37C0 61.0221 2.96263 63.9848 6.61474 63.9848C10.2668 63.9848 12.9286 61.3146 13.2044 57.9174L33.0653 51.9295C34.2729 53.4965 36.17 54.5077 38.3053 54.5077C41.9574 54.5077 44.92 51.545 44.92 47.8929C44.92 46.8775 44.6902 45.9206 44.2849 45.0599L64.9105 25.7923C65.9301 26.4316 67.1335 26.8035 68.4247 26.8035C72.0768 26.8035 75.0394 23.8409 75.0394 20.1888C75.0394 16.5367 72.0768 13.574 68.4247 13.574H68.4205ZM6.61474 59.9023C5.21908 59.9023 4.0825 58.7657 4.0825 57.37C4.0825 55.9744 5.21908 54.8378 6.61474 54.8378C8.01039 54.8378 9.14697 55.9744 9.14697 57.37C9.14697 58.7657 8.01039 59.9023 6.61474 59.9023ZM38.3053 50.4252C36.9096 50.4252 35.7731 49.2886 35.7731 47.8929C35.7731 46.4973 36.9096 45.3607 38.3053 45.3607C39.701 45.3607 40.8375 46.4973 40.8375 47.8929C40.8375 49.2886 39.701 50.4252 38.3053 50.4252ZM68.4205 22.721C67.0249 22.721 65.8883 21.5844 65.8883 20.1888C65.8883 18.7931 67.0249 17.6565 68.4205 17.6565C69.8162 17.6565 70.9528 18.7931 70.9528 20.1888C70.9528 21.5844 69.8162 22.721 68.4205 22.721Z" fill="var(--fill-0, #2CB67F)"/>
</g>
</g>
</svg>
