<svg preserveAspectRatio="none" width="100%" height="100%" overflow="visible" style="display: block;" viewBox="0 0 596.459 325.498" fill="none" xmlns="http://www.w3.org/2000/svg">
<g id="T arrow">
<g id="Vector 69" filter="url(#filter0_f_10_5331)">
<path d="M335.548 12.8495C371.328 12.8495 400.288 41.9374 400.132 77.7163L399.442 235.431C399.269 275.045 430.296 307.779 469.878 309.376C510.09 310.999 557.842 312.649 585.751 312.649" stroke="url(#paint0_linear_10_5331)" stroke-width="4.28317"/>
</g>
<path id="Vector 68" d="M337.445 14.3961C336.722 15.1188 336.722 16.2905 337.445 17.0132L349.222 28.7905C349.945 29.5132 351.116 29.5132 351.839 28.7905C352.562 28.0677 352.562 26.896 351.839 26.1733L341.37 15.7046L351.839 5.236C352.562 4.51329 352.562 3.34154 351.839 2.61883C351.116 1.89612 349.945 1.89612 349.222 2.61883L337.445 14.3961ZM472.403 311.509L472.347 313.358L472.403 311.509ZM401.779 78.9998L399.928 78.9919L399.252 237.471L401.102 237.479L402.953 237.487L403.629 79.0077L401.779 78.9998ZM472.403 311.509L472.347 313.358C509.868 314.486 553.388 315.593 579.682 315.593V313.742V311.891C553.452 311.891 509.986 310.787 472.458 309.659L472.403 311.509ZM401.102 237.479L399.252 237.471C399.077 278.414 431.407 312.128 472.347 313.358L472.403 311.509L472.458 309.659C433.539 308.489 402.787 276.439 402.953 237.487L401.102 237.479ZM338.753 15.7046V17.5553C372.642 17.5553 400.073 45.1039 399.928 78.9919L401.779 78.9998L403.629 79.0077C403.783 43.0694 374.692 13.854 338.753 13.854V15.7046Z" fill="url(#paint1_linear_10_5331)"/>
<path id="Vector 119" d="M0.542027 16.6181C-0.180676 15.8953 -0.180676 14.7236 0.542027 14.0009L12.3193 2.22366C13.042 1.50095 14.2137 1.50095 14.9364 2.22366C15.6591 2.94637 15.6591 4.11811 14.9364 4.84082L4.46778 15.3095L14.9364 25.7781C15.6591 26.5008 15.6591 27.6726 14.9364 28.3953C14.2137 29.118 13.042 29.118 12.3193 28.3953L0.542027 16.6181ZM186.851 15.3095V17.1601H1.85061V15.3095V13.4589H186.851V15.3095Z" fill="var(--stroke-0, #259B6C)"/>
</g>
<defs>
<filter id="filter0_f_10_5331" x="324.84" y="0" width="271.619" height="325.498" filterUnits="userSpaceOnUse" color-interpolation-filters="sRGB">
<feFlood flood-opacity="0" result="BackgroundImageFix"/>
<feBlend mode="normal" in="SourceGraphic" in2="BackgroundImageFix" result="shape"/>
<feGaussianBlur stdDeviation="5.35396" result="effect1_foregroundBlur_10_5331"/>
</filter>
<linearGradient id="paint0_linear_10_5331" x1="471.047" y1="123.548" x2="302.58" y2="-37.889" gradientUnits="userSpaceOnUse">
<stop offset="0.285" stop-color="#259B6C" stop-opacity="0"/>
<stop offset="0.495" stop-color="#28FFF2"/>
<stop offset="0.70526" stop-color="#52C396" stop-opacity="0"/>
</linearGradient>
<linearGradient id="paint1_linear_10_5331" x1="460.873" y1="147.011" x2="291.639" y2="5.13156" gradientUnits="userSpaceOnUse">
<stop stop-color="#259B6C"/>
<stop offset="0.495" stop-color="#28FFF2" stop-opacity="0.8"/>
<stop offset="1" stop-color="#52C396"/>
</linearGradient>
</defs>
</svg>
