<svg preserveAspectRatio="none" width="100%" height="100%" overflow="visible" style="display: block;" viewBox="0 0 409.123 250.991" fill="none" xmlns="http://www.w3.org/2000/svg">
<g id="Group 3059">
<path id="Rectangle" d="M404.463 0C407.036 0 409.123 2.08635 409.123 4.65998V26.7139C409.123 29.2876 407.036 31.3739 404.463 31.3739L0.00712585 31.3739V0L404.463 0Z" fill="var(--fill-0, #0D3826)"/>
<path id="Rectangle_2" d="M326.654 43.9219C329.228 43.9219 331.314 46.0082 331.314 48.5819V70.6358C331.314 73.2094 329.228 75.2958 326.654 75.2958L0.00584412 75.2958V43.9219L326.654 43.9219Z" fill="var(--fill-0, #145239)"/>
<path id="Rectangle_3" d="M270.178 87.8516C272.751 87.8516 274.838 89.9379 274.838 92.5115V114.565C274.838 117.139 272.751 119.225 270.178 119.225H0.00228882V87.8516L270.178 87.8516Z" fill="var(--fill-0, #1F815A)"/>
<path id="Rectangle_4" d="M181.08 131.773C183.654 131.773 185.74 133.86 185.74 136.433V158.487C185.74 161.061 183.654 163.147 181.08 163.147H0.00650024V131.773H181.08Z" fill="var(--fill-0, #2CB67F)"/>
<path id="Rectangle_5" d="M143.432 175.695C146.005 175.695 148.092 177.782 148.092 180.355V202.409C148.092 204.983 146.005 207.069 143.432 207.069H0.00675964V175.695H143.432Z" fill="var(--fill-0, #A4E0C8)"/>
<path id="Rectangle_6" d="M90.7167 219.617C93.2904 219.617 95.3767 221.704 95.3767 224.277V246.331C95.3767 248.905 93.2904 250.991 90.7167 250.991H6.48499e-05V219.617H90.7167Z" fill="var(--fill-0, #CCEDE0)"/>
</g>
</svg>
