<svg preserveAspectRatio="none" width="100%" height="100%" overflow="visible" style="display: block;" viewBox="0 0 1259.55 173" fill="none" xmlns="http://www.w3.org/2000/svg">
<g id="line">
<g id="Graphic Element">
<path id="Vector 56" d="M13.3137 170.438C14.0948 171.219 15.3611 171.219 16.1421 170.438L28.8701 157.71C29.6511 156.929 29.6511 155.663 28.8701 154.882C28.089 154.101 26.8227 154.101 26.0416 154.882L14.7279 166.195L3.41421 154.882C2.63317 154.101 1.36684 154.101 0.585787 154.882C-0.195262 155.663 -0.195262 156.929 0.585787 157.71L13.3137 170.438ZM563.013 73.2787L563.118 75.276L563.013 73.2787ZM81.716 98.442L81.8204 100.439L563.118 75.276L563.013 73.2787L562.909 71.2814L81.6116 96.4447L81.716 98.442ZM563.013 73.2787L563.118 75.276C603.12 73.1846 634.483 40.1397 634.483 0.0826604L632.483 0.0826605L630.483 0.0826605C630.483 38.0117 600.786 69.3011 562.909 71.2814L563.013 73.2787ZM14.7279 169.024L16.7279 169.024C16.7279 132.487 45.3338 102.347 81.8204 100.439L81.716 98.442L81.6116 96.4447C42.9999 98.4634 12.7279 130.359 12.7279 169.024L14.7279 169.024Z" fill="url(#paint0_linear_10_9634)"/>
</g>
<path id="Vector 60" d="M631.068 170.438C631.849 171.219 633.116 171.219 633.897 170.438L646.625 157.71C647.406 156.929 647.406 155.663 646.625 154.882C645.844 154.101 644.577 154.101 643.796 154.882L632.483 166.195L621.169 154.882C620.388 154.101 619.121 154.101 618.34 154.882C617.559 155.663 617.559 156.929 618.34 157.71L631.068 170.438ZM632.483 0.0825654L630.483 0.0825653L630.483 169.024L632.483 169.024L634.483 169.024L634.483 0.0825655L632.483 0.0825654Z" fill="url(#paint1_linear_10_9634)"/>
<path id="Vector 56_2" d="M1246.24 172.414C1245.46 173.195 1244.19 173.195 1243.41 172.414L1230.68 159.686C1229.9 158.905 1229.9 157.639 1230.68 156.858C1231.46 156.077 1232.73 156.077 1233.51 156.858L1244.82 168.172L1256.14 156.858C1256.92 156.077 1258.18 156.077 1258.96 156.858C1259.75 157.639 1259.75 158.905 1258.96 159.686L1246.24 172.414ZM700.623 71.5187L700.729 69.5216L1174.62 94.8353L1174.51 96.8324L1174.4 98.8296L700.516 73.5159L700.623 71.5187ZM1174.51 96.8324L1174.62 94.8353C1215.1 96.9979 1246.82 130.456 1246.82 171L1244.82 171L1242.82 171C1242.82 132.583 1212.77 100.879 1174.4 98.8296L1174.51 96.8324ZM632.822 8.74228e-08L634.822 1.74846e-07C634.822 37.0074 663.775 67.5476 700.729 69.5216L700.623 71.5187L700.516 73.5159C661.438 71.4285 630.822 39.1336 630.822 0L632.822 8.74228e-08Z" fill="url(#paint2_linear_10_9634)"/>
</g>
<defs>
<linearGradient id="paint0_linear_10_9634" x1="470.473" y1="132.469" x2="470.43" y2="60.6681" gradientUnits="userSpaceOnUse">
<stop stop-color="#009F6F"/>
<stop offset="0.633229" stop-color="#64EAAA" stop-opacity="0.5"/>
<stop offset="0.755" stop-color="#009F6F"/>
</linearGradient>
<linearGradient id="paint1_linear_10_9634" x1="632.822" y1="41" x2="669.619" y2="142.684" gradientUnits="userSpaceOnUse">
<stop offset="0.061514" stop-color="#009F6F"/>
<stop offset="0.366771" stop-color="#64EAAA" stop-opacity="0.5"/>
<stop offset="1" stop-color="#009F6F"/>
</linearGradient>
<linearGradient id="paint2_linear_10_9634" x1="1084.32" y1="37" x2="1084.28" y2="109.676" gradientUnits="userSpaceOnUse">
<stop stop-color="#009F6F"/>
<stop offset="0.633229" stop-color="#64EAAA" stop-opacity="0.5"/>
<stop offset="0.755" stop-color="#009F6F"/>
</linearGradient>
</defs>
</svg>
