<svg preserveAspectRatio="none" width="100%" height="100%" overflow="visible" style="display: block;" viewBox="0 0 57.4928 57.4928" fill="none" xmlns="http://www.w3.org/2000/svg">
<g id="data-model">
<path id="Accent" d="M46.705 18.7695L28.7439 28.748L10.7827 18.7695M28.7467 28.7472V48.8214" stroke="var(--stroke-0, #CBD0D7)" stroke-width="3.5933" stroke-linecap="round" stroke-linejoin="round"/>
<path id="Icon" d="M25.0211 9.68536C26.3799 8.93049 27.0593 8.55305 27.7788 8.40508C28.4155 8.27412 29.0723 8.27412 29.7091 8.40508C30.4286 8.55305 31.108 8.93049 32.4667 9.68536L43.8187 15.992C45.2538 16.7893 45.9713 17.1879 46.4937 17.7548C46.956 18.2564 47.3058 18.8509 47.5197 19.4986C47.7616 20.2306 47.7616 21.0514 47.7616 22.6931V34.8028C47.7616 36.4444 47.7616 37.2652 47.5197 37.9973C47.3058 38.6449 46.956 39.2394 46.4937 39.741C45.9713 40.3079 45.2537 40.7066 43.8187 41.5038L32.4667 47.8105C31.108 48.5653 30.4286 48.9428 29.7091 49.0907C29.0723 49.2217 28.4155 49.2217 27.7788 49.0907C27.0593 48.9428 26.3799 48.5653 25.0211 47.8105L13.6691 41.5038C12.2341 40.7066 11.5166 40.3079 10.9941 39.741C10.5319 39.2394 10.1821 38.6449 9.9681 37.9973C9.72622 37.2652 9.72622 36.4444 9.72622 34.8028V22.6931C9.72622 21.0514 9.72622 20.2306 9.9681 19.4986C10.1821 18.8509 10.5319 18.2564 10.9941 17.7549C11.5166 17.1879 12.2341 16.7893 13.6691 15.992L25.0211 9.68536Z" stroke="var(--stroke-0, #666970)" stroke-width="3.5933" stroke-linecap="round" stroke-linejoin="round"/>
</g>
</svg>
