<svg preserveAspectRatio="none" width="100%" height="100%" overflow="visible" style="display: block;" viewBox="0 0 57.4928 57.4928" fill="none" xmlns="http://www.w3.org/2000/svg">
<g id="data-set">
<path id="Icon" d="M18.8389 23.5804C17.9715 23.0985 16.8777 23.411 16.3959 24.2784C15.914 25.1458 16.2265 26.2396 17.0939 26.7215L17.9664 25.151L18.8389 23.5804ZM40.3988 26.7215C41.2662 26.2396 41.5787 25.1458 41.0968 24.2784C40.6149 23.411 39.5211 23.0985 38.6537 23.5804L39.5262 25.151L40.3988 26.7215ZM26.9497 41.9197C26.9497 42.912 27.7541 43.7164 28.7463 43.7164C29.7386 43.7164 30.543 42.912 30.543 41.9197H28.7463H26.9497ZM30.6877 8.21855L29.8152 9.7891V9.78911L30.6877 8.21855ZM37.421 11.9592L38.2935 10.3887V10.3887L37.421 11.9592ZM16.4636 24.7946C16.4636 25.7868 17.268 26.5912 18.2602 26.5912C19.2525 26.5912 20.0569 25.7868 20.0569 24.7946H18.2602H16.4636ZM20.2317 11.9592L21.1042 13.5298L21.1042 13.5298L20.2317 11.9592ZM26.9649 8.21855L27.8375 9.7891V9.7891L26.9649 8.21855ZM37.5958 24.7946C37.5958 25.7868 38.4002 26.5912 39.3924 26.5912C40.3847 26.5912 41.1891 25.7868 41.1891 24.7946H39.3924H37.5958ZM18.3812 13.7125L16.6752 13.1489V13.1489L18.3812 13.7125ZM18.8942 12.8407L20.2154 14.0582L20.2154 14.0582L18.8942 12.8407ZM38.7585 12.8406L40.0797 11.6231V11.6231L38.7585 12.8406ZM39.2715 13.7125L40.9774 13.1489V13.1489L39.2715 13.7125ZM29.3089 7.57841L28.947 9.33823V9.33823L29.3089 7.57841ZM28.3437 7.57841L28.7057 9.33823V9.33823L28.3437 7.57841ZM9.53453 29.9836L10.456 31.5259V31.5259L9.53453 29.9836ZM19.1557 26.3284C20.0075 25.8194 20.2855 24.7164 19.7765 23.8645C19.2676 23.0127 18.1645 22.7347 17.3127 23.2437L18.2342 24.786L19.1557 26.3284ZM16.4339 47.2782L17.2878 45.6975L17.2878 45.6975L16.4339 47.2782ZM9.67868 43.6292L8.82478 45.21L8.82479 45.21L9.67868 43.6292ZM20.0841 47.2745L20.9412 48.8535H20.9412L20.0841 47.2745ZM17.7872 47.8894L17.4346 49.6511H17.4346L17.7872 47.8894ZM18.732 47.8885L19.0882 49.6495H19.0882L18.732 47.8885ZM7.78143 31.7283L9.49262 32.2758H9.49262L7.78143 31.7283ZM8.26612 30.8741L6.91845 29.686H6.91845L8.26612 30.8741ZM7.7911 41.8737L9.49504 41.304H9.49504L7.7911 41.8737ZM8.31492 42.752L7.00384 43.9804L7.00384 43.9804L8.31492 42.752ZM40.3178 23.2447C39.4666 22.7348 38.3632 23.0115 37.8533 23.8628C37.3434 24.714 37.6201 25.8174 38.4713 26.3273L39.3946 24.786L40.3178 23.2447ZM48.0704 29.9829L48.9937 28.4416V28.4416L48.0704 29.9829ZM37.5424 47.2763L38.398 45.6964L38.3979 45.6964L37.5424 47.2763ZM47.926 43.63L47.0705 42.0501V42.0501L47.926 43.63ZM41.1928 47.2763L40.3372 45.6964V45.6964L41.1928 47.2763ZM49.8103 41.8747L51.5144 42.4438L51.5144 42.4438L49.8103 41.8747ZM49.2875 42.7524L50.5994 43.9799L50.5994 43.9799L49.2875 42.7524ZM38.8952 47.8889L38.5408 49.6503H38.5408L38.8952 47.8889ZM39.8401 47.8889L40.1944 49.6503H40.1944L39.8401 47.8889ZM49.3363 30.8738L50.685 29.6867V29.6867L49.3363 30.8738ZM49.82 31.7273L51.5314 31.1803L51.5314 31.1803L49.82 31.7273ZM26.9746 43.5341L26.1175 41.9551L26.9746 43.5341ZM28.3282 42.9196L27.9726 41.1585L28.3282 42.9196ZM30.6282 43.5323L29.7727 45.1122L30.6282 43.5323ZM29.274 42.9191L29.6278 41.1576L29.274 42.9191ZM17.9664 25.151L17.0939 26.7215L27.8738 32.7103L28.7463 31.1398L29.6189 29.5692L18.8389 23.5804L17.9664 25.151ZM28.7463 31.1398L29.6189 32.7103L40.3988 26.7215L39.5262 25.151L38.6537 23.5804L27.8738 29.5692L28.7463 31.1398ZM28.7463 31.1398H26.9497V41.9197H28.7463H30.543V31.1398H28.7463ZM30.6877 8.21855L29.8152 9.78911L36.5484 13.5298L37.421 11.9592L38.2935 10.3887L31.5603 6.64799L30.6877 8.21855ZM18.2602 24.7946H20.0569V15.3098H18.2602H16.4636V24.7946H18.2602ZM20.2317 11.9592L21.1042 13.5298L27.8375 9.7891L26.9649 8.21855L26.0924 6.64799L19.3592 10.3887L20.2317 11.9592ZM39.3924 15.3098H37.5958V24.7946H39.3924H41.1891V15.3098H39.3924ZM18.2602 15.3098H20.0569C20.0569 14.8784 20.0576 14.6332 20.0688 14.4486C20.0786 14.2847 20.0929 14.2587 20.0871 14.2761L18.3812 13.7125L16.6752 13.1489C16.442 13.8547 16.4636 14.6126 16.4636 15.3098H18.2602ZM20.2317 11.9592L19.3592 10.3887C18.7497 10.7273 18.0767 11.0765 17.573 11.6231L18.8942 12.8407L20.2154 14.0582C20.2029 14.0717 20.2188 14.0466 20.3572 13.9584C20.5132 13.859 20.7272 13.7393 21.1042 13.5298L20.2317 11.9592ZM18.3812 13.7125L20.0871 14.2761C20.1139 14.1952 20.1576 14.1209 20.2154 14.0582L18.8942 12.8407L17.573 11.6231C17.1685 12.062 16.8625 12.5822 16.6752 13.1489L18.3812 13.7125ZM37.421 11.9592L36.5484 13.5298C36.9255 13.7393 37.1395 13.859 37.2954 13.9584C37.4339 14.0466 37.4497 14.0717 37.4373 14.0582L38.7585 12.8406L40.0797 11.6231C39.5759 11.0765 38.9029 10.7273 38.2935 10.3887L37.421 11.9592ZM39.3924 15.3098H41.1891C41.1891 14.6126 41.2106 13.8547 40.9774 13.1489L39.2715 13.7125L37.5655 14.2761C37.5598 14.2587 37.574 14.2847 37.5839 14.4486C37.595 14.6332 37.5958 14.8784 37.5958 15.3098H39.3924ZM38.7585 12.8406L37.4373 14.0582C37.4951 14.1209 37.5388 14.1952 37.5655 14.2761L39.2715 13.7125L40.9774 13.1489C40.7902 12.5822 40.4841 12.062 40.0797 11.6231L38.7585 12.8406ZM30.6877 8.21855L31.5603 6.64799C30.9826 6.32707 30.3643 5.9612 29.6708 5.81859L29.3089 7.57841L28.947 9.33823C28.9305 9.33484 28.9587 9.33578 29.0979 9.40294C29.2553 9.47885 29.458 9.59066 29.8152 9.7891L30.6877 8.21855ZM26.9649 8.21855L27.8375 9.7891C28.1947 9.59066 28.3973 9.47885 28.5547 9.40295C28.694 9.33578 28.7222 9.33484 28.7057 9.33823L28.3437 7.57841L27.9818 5.81859C27.2884 5.9612 26.6701 6.32707 26.0924 6.64799L26.9649 8.21855ZM29.3089 7.57841L29.6708 5.81859C29.1137 5.704 28.539 5.704 27.9818 5.81859L28.3437 7.57841L28.7057 9.33823C28.7853 9.32186 28.8674 9.32186 28.947 9.33823L29.3089 7.57841ZM7.66748 40.2569H9.46413V33.2739H7.66748H5.87083V40.2569H7.66748ZM9.53453 29.9836L10.456 31.5259L19.1557 26.3284L18.2342 24.786L17.3127 23.2437L8.61306 28.4412L9.53453 29.9836ZM16.4339 47.2782L17.2878 45.6975L10.5326 42.0484L9.67868 43.6292L8.82479 45.21L15.58 48.859L16.4339 47.2782ZM26.9746 43.5341L26.1175 41.9551L19.2269 45.6955L20.0841 47.2745L20.9412 48.8535L27.8317 45.1132L26.9746 43.5341ZM16.4339 47.2782L15.58 48.859C16.1476 49.1656 16.7556 49.5153 17.4346 49.6511L17.7872 47.8894L18.1397 46.1277C18.1555 46.1309 18.128 46.1299 17.9917 46.066C17.8375 45.9936 17.6387 45.887 17.2878 45.6975L16.4339 47.2782ZM20.0841 47.2745L19.2269 45.6955C18.8764 45.8857 18.6778 45.9928 18.5238 46.0655C18.3876 46.1297 18.3601 46.1307 18.3759 46.1274L18.732 47.8885L19.0882 49.6495C19.7669 49.5122 20.3742 49.1613 20.9412 48.8535L20.0841 47.2745ZM17.7872 47.8894L17.4346 49.6511C17.9805 49.7604 18.5426 49.7598 19.0882 49.6495L18.732 47.8885L18.3759 46.1274C18.298 46.1432 18.2177 46.1433 18.1397 46.1277L17.7872 47.8894ZM7.66748 33.2739H9.46413C9.46413 32.8571 9.46484 32.6206 9.47529 32.4425C9.48455 32.2847 9.49792 32.2593 9.49262 32.2758L7.78143 31.7283L6.07024 31.1808C5.85057 31.8673 5.87083 32.5999 5.87083 33.2739H7.66748ZM9.53453 29.9836L8.61306 28.4412C8.03446 28.7869 7.39515 29.1453 6.91845 29.686L8.26612 30.8741L9.61379 32.0623C9.6023 32.0753 9.61729 32.0508 9.748 31.9619C9.89554 31.8616 10.0982 31.7397 10.456 31.5259L9.53453 29.9836ZM7.78143 31.7283L9.49262 32.2758C9.51783 32.1971 9.55908 32.1244 9.61379 32.0623L8.26612 30.8741L6.91845 29.686C6.53551 30.1203 6.24671 30.6293 6.07024 31.1808L7.78143 31.7283ZM7.66748 40.2569H5.87083C5.87083 40.9628 5.84876 41.7304 6.08716 42.4434L7.7911 41.8737L9.49504 41.304C9.50099 41.3218 9.48638 41.2955 9.47627 41.1293C9.46489 40.9423 9.46413 40.6938 9.46413 40.2569H7.66748ZM9.67868 43.6292L10.5326 42.0484C10.1482 41.8408 9.92991 41.722 9.77075 41.6231C9.62933 41.5352 9.61314 41.5099 9.62599 41.5236L8.31492 42.752L7.00384 43.9804C7.5179 44.5291 8.20368 44.8745 8.82478 45.21L9.67868 43.6292ZM7.7911 41.8737L6.08716 42.4434C6.27852 43.0158 6.59121 43.5401 7.00384 43.9804L8.31492 42.752L9.62599 41.5236C9.56704 41.4607 9.52237 41.3858 9.49504 41.304L7.7911 41.8737ZM39.3946 24.786L38.4713 26.3273L47.1472 31.5242L48.0704 29.9829L48.9937 28.4416L40.3178 23.2447L39.3946 24.786ZM37.5424 47.2763L38.3979 45.6964L31.4837 41.9524L30.6282 43.5323L29.7727 45.1122L36.6869 48.8562L37.5424 47.2763ZM49.9337 33.271H48.1371V40.2596H49.9337H51.7304V33.271H49.9337ZM47.926 43.63L47.0705 42.0501L40.3372 45.6964L41.1928 47.2763L42.0483 48.8561L48.7816 45.2099L47.926 43.63ZM49.9337 40.2596H48.1371C48.1371 40.696 48.1363 40.9442 48.1249 41.1311C48.1148 41.297 48.1003 41.3233 48.1062 41.3055L49.8103 41.8747L51.5144 42.4438C51.7524 41.7314 51.7304 40.9648 51.7304 40.2596H49.9337ZM47.926 43.63L48.7816 45.2099C49.4017 44.8741 50.0863 44.5284 50.5994 43.9799L49.2875 42.7524L47.9755 41.525C47.9883 41.5113 47.9721 41.5366 47.831 41.6245C47.6721 41.7235 47.4542 41.8423 47.0705 42.0501L47.926 43.63ZM49.8103 41.8747L48.1062 41.3055C48.0789 41.3872 48.0343 41.4621 47.9755 41.525L49.2875 42.7524L50.5994 43.9799C51.0113 43.5396 51.3234 43.0157 51.5144 42.4438L49.8103 41.8747ZM37.5424 47.2763L36.6869 48.8561C37.2542 49.1634 37.8619 49.5137 38.5408 49.6503L38.8952 47.8889L39.2495 46.1275C39.2654 46.1307 39.2378 46.1298 39.1016 46.0657C38.9474 45.9932 38.7487 45.8863 38.398 45.6964L37.5424 47.2763ZM41.1928 47.2763L40.3372 45.6964C39.9865 45.8863 39.7878 45.9932 39.6336 46.0657C39.4974 46.1298 39.4699 46.1307 39.4857 46.1275L39.8401 47.8889L40.1944 49.6503C40.8734 49.5137 41.481 49.1634 42.0483 48.8561L41.1928 47.2763ZM38.8952 47.8889L38.5408 49.6503C39.0865 49.76 39.6487 49.76 40.1944 49.6503L39.8401 47.8889L39.4857 46.1275C39.4078 46.1432 39.3275 46.1432 39.2495 46.1275L38.8952 47.8889ZM48.0704 29.9829L47.1472 31.5242C47.5044 31.7382 47.7065 31.8601 47.8538 31.9605C47.9842 32.0493 47.9992 32.0739 47.9877 32.0608L49.3363 30.8738L50.685 29.6867C50.2092 29.1462 49.5712 28.7876 48.9937 28.4416L48.0704 29.9829ZM49.9337 33.271H51.7304C51.7304 32.5979 51.7506 31.8662 51.5314 31.1803L49.82 31.7273L48.1086 32.2742C48.1033 32.2577 48.1167 32.2831 48.1259 32.4407C48.1363 32.6186 48.1371 32.8547 48.1371 33.271H49.9337ZM49.3363 30.8738L47.9877 32.0608C48.0423 32.1229 48.0835 32.1955 48.1086 32.2742L49.82 31.7273L51.5314 31.1803C51.3553 30.6294 51.0671 30.1208 50.685 29.6867L49.3363 30.8738ZM26.9746 43.5341L27.8317 45.1132C28.1826 44.9227 28.3815 44.8155 28.5357 44.7427C28.6721 44.6784 28.6996 44.6775 28.6838 44.6807L28.3282 42.9196L27.9726 41.1585C27.2931 41.2957 26.6851 41.647 26.1175 41.9551L26.9746 43.5341ZM30.6282 43.5323L31.4837 41.9524C30.9157 41.6448 30.3074 41.2941 29.6278 41.1576L29.274 42.9191L28.9202 44.6806C28.9043 44.6774 28.9319 44.6783 29.0683 44.7425C29.2227 44.8151 29.4216 44.922 29.7727 45.1122L30.6282 43.5323ZM28.3282 42.9196L28.6838 44.6807C28.7618 44.6649 28.8422 44.6649 28.9202 44.6806L29.274 42.9191L29.6278 41.1576C29.0815 41.0479 28.5188 41.0482 27.9726 41.1585L28.3282 42.9196Z" fill="var(--stroke-0, #666970)"/>
</g>
</svg>
