<svg preserveAspectRatio="none" width="100%" height="100%" overflow="visible" style="display: block;" viewBox="0 0 563.681 145.618" fill="none" xmlns="http://www.w3.org/2000/svg">
<path id="Green" fill-rule="evenodd" clip-rule="evenodd" d="M338.806 3.2818C342.309 -1.52747 352.66 -0.916061 354.893 4.23205L402.965 115.052L449.172 81.5667C450.641 80.5025 452.637 79.8465 454.774 79.7255L504.557 76.9063L558.467 69.3295C560.812 68.9999 563.106 70.0268 563.59 71.6231C564.075 73.2195 562.566 74.7808 560.221 75.1104L506.054 82.7232C505.884 82.7472 505.711 82.7642 505.537 82.774L455.493 85.608L409.286 119.093C404.7 122.417 396.545 121.097 394.648 116.724L346.576 5.90365L298.371 72.0895C297.062 73.8865 294.503 75.1082 291.574 75.3332L242.914 79.0724L196.311 142.359C193.383 146.336 185.289 146.763 181.496 143.14L137.484 101.098L92.1771 126.355C88.2629 128.537 82.4471 127.984 79.5605 125.156L27.6348 74.2799L1.692 60.692C-0.205887 59.698 -0.560569 57.8449 0.899792 56.5531C2.36015 55.2612 5.08255 55.0198 6.98043 56.0138L32.9232 69.6017C33.6297 69.9717 34.2482 70.4137 34.7568 70.912L86.6825 121.788L131.989 96.5316C135.872 94.3674 141.634 94.8911 144.546 97.6728L188.559 139.714L235.161 76.4274C236.475 74.6425 239.026 73.4308 241.941 73.2068L290.602 69.4676L338.806 3.2818Z" fill="url(#paint0_linear_10_9787)"/>
<defs>
<linearGradient id="paint0_linear_10_9787" x1="-74.8602" y1="66.1425" x2="632.489" y2="66.1425" gradientUnits="userSpaceOnUse">
<stop stop-color="#F5FAFE" stop-opacity="0"/>
<stop offset="0.533654" stop-color="#52C396"/>
<stop offset="1" stop-color="#F5FAFE" stop-opacity="0"/>
</linearGradient>
</defs>
</svg>
