<svg preserveAspectRatio="none" width="100%" height="100%" overflow="visible" style="display: block;" viewBox="0 0 145.892 145.892" fill="none" xmlns="http://www.w3.org/2000/svg">
<g id="Pricing Icon">
<rect width="145.892" height="145.892" rx="5.83569" fill="var(--fill-0, #7AD1AE)"/>
<path id="Icon" fill-rule="evenodd" clip-rule="evenodd" d="M101.417 35.1436C103.582 35.1436 105.433 35.1385 106.867 35.2673C108.05 35.3737 109.505 35.602 110.763 36.411L111.288 36.7951L111.902 37.3626C113.249 38.7677 113.977 40.6726 113.899 42.6413C113.829 44.4051 112.9 45.8634 112.09 46.9514C111.23 48.1056 109.992 49.4815 108.548 51.095L86.1102 76.1742C85.7961 76.5253 85.6245 76.7148 85.5043 76.8612C85.402 76.9858 85.4027 77.0001 85.4232 76.9636C85.392 77.0194 85.3688 77.0805 85.3549 77.1429C85.364 77.1021 85.3575 77.1143 85.3507 77.2752C85.3427 77.4642 85.3421 77.7189 85.3421 78.1884V99.2136C85.3421 99.721 85.3896 100.827 85.0093 101.847C84.717 102.63 84.2412 103.333 83.6224 103.895C82.8167 104.627 81.772 104.991 81.3009 105.179L67.9313 110.526C67.2668 110.792 66.5613 111.078 65.9513 111.26C65.3327 111.445 64.3799 111.665 63.297 111.44C61.9448 111.158 60.7572 110.355 59.994 109.203C59.3831 108.281 59.233 107.316 59.1747 106.673C59.1173 106.039 59.1235 105.28 59.1235 104.565V78.1884C59.1235 77.719 59.123 77.4642 59.115 77.2752C59.1081 77.1143 59.0974 77.1021 59.1064 77.1429C59.0926 77.0805 59.0694 77.0194 59.0382 76.9636C59.0586 77.0001 59.0593 76.9858 58.9571 76.8612C58.8369 76.7148 58.6692 76.525 58.3554 76.1742L35.9134 51.095C34.4696 49.4813 33.2313 48.1056 32.3715 46.9514C31.5611 45.8634 30.6327 44.4051 30.5621 42.6413C30.4728 40.3923 31.4386 38.2287 33.1737 36.7951C34.5352 35.671 36.2433 35.3889 37.5947 35.2673C39.0283 35.1385 40.8789 35.1436 43.0441 35.1436H101.417ZM43.0441 41.6982C40.7492 41.6982 39.253 41.7003 38.1836 41.7964C37.6579 41.8437 37.3808 41.9058 37.2619 41.9372C37.1886 42.0259 37.1358 42.1311 37.1168 42.2445C37.1691 42.3486 37.3042 42.598 37.6288 43.0339C38.2703 43.895 39.2646 45.0144 40.7952 46.7252L63.2372 71.8044C63.7345 72.3602 64.328 72.9947 64.7564 73.7589C65.0999 74.3716 65.3505 75.032 65.5032 75.7176C65.6935 76.5727 65.6782 77.4426 65.6782 78.1884V104.364L78.7875 99.124V78.1884C78.7875 77.4426 78.7679 76.5727 78.9582 75.7176C79.1109 75.032 79.3615 74.3715 79.7049 73.7589C80.1333 72.9947 80.7268 72.3602 81.2241 71.8044L103.666 46.7252C105.197 45.0144 106.191 43.895 106.833 43.0339C107.149 42.6096 107.285 42.362 107.34 42.253C107.322 42.1358 107.271 42.0284 107.195 41.9372C107.074 41.9054 106.797 41.843 106.278 41.7964C105.208 41.7004 103.712 41.6982 101.417 41.6982H43.0441Z" fill="var(--fill-0, white)"/>
</g>
</svg>
