<svg preserveAspectRatio="none" width="100%" height="100%" overflow="visible" style="display: block;" viewBox="0 0 33.6304 40.5428" fill="none" xmlns="http://www.w3.org/2000/svg">
<path id="Union" d="M29.8377 0.157991C31.8471 0.15801 33.4723 1.80327 33.4724 3.82889V9.58377C33.4724 10.2481 32.9396 10.7889 32.2781 10.7889H30.6502C29.9895 10.7887 29.4568 10.2476 29.4568 9.58377V4.21268H4.67557L17.241 17.7615C18.5475 19.1697 18.5478 21.3739 17.2381 22.783L4.60526 36.4099L29.4558 36.3308V30.9588C29.4559 30.2946 29.9889 29.7539 30.6502 29.7537H32.2781C32.9395 29.7537 33.4724 30.2945 33.4724 30.9588V36.7137C33.4724 38.7394 31.8472 40.3855 29.8377 40.3855H3.9578C2.70939 40.3855 1.44925 39.8193 0.749789 38.7195C-0.127167 37.3376 -0.0137269 35.6232 0.986118 34.3885L0.990024 34.3826L0.99686 34.3748L14.0652 20.2713L1.06815 6.24979L1.06034 6.24198V6.241L1.05643 6.23612C-0.0164633 4.91765 -0.128359 3.21755 0.744907 1.83182C1.43697 0.73384 2.68813 0.157991 3.93534 0.157991H29.8377Z" fill="var(--fill-0, #009F6F)" stroke="var(--stroke-0, #009F6F)" stroke-width="0.315217"/>
</svg>
