<svg preserveAspectRatio="none" width="100%" height="100%" overflow="visible" style="display: block;" viewBox="0 0 48.426 46.8255" fill="none" xmlns="http://www.w3.org/2000/svg">
<path id="Union" fill-rule="evenodd" clip-rule="evenodd" d="M24.0398 0C24.8134 0 25.4406 0.627137 25.4406 1.40075V4.71637H41.9388C42.7124 4.71637 43.3395 5.34351 43.3395 6.11712V30.2316H47.0252C47.7988 30.2316 48.426 30.8587 48.426 31.6323C48.426 32.4059 47.7988 33.0331 47.0252 33.0331H30.6138L35.3819 44.9022C35.6703 45.62 35.3221 46.4358 34.6042 46.7241C33.8864 47.0125 33.0707 46.6643 32.7823 45.9465L27.5947 33.0331H25.4406V42.6659C25.4406 43.4396 24.8134 44.0667 24.0398 44.0667C23.2662 44.0667 22.6391 43.4396 22.6391 42.6659V33.0331H20.485L15.2974 45.9465C15.009 46.6643 14.1933 47.0125 13.4754 46.7241C12.7576 46.4358 12.4094 45.62 12.6978 44.9022L17.4659 33.0331H1.40075C0.627137 33.0331 0 32.4059 0 31.6323C0 30.8587 0.627137 30.2316 1.40075 30.2316H4.74013V6.11712C4.74013 5.34351 5.36727 4.71637 6.14088 4.71637H22.6391V1.40075C22.6391 0.627137 23.2662 0 24.0398 0ZM10.2055 10.4056C9.43186 10.4056 8.80472 11.0327 8.80472 11.8063C8.80472 12.5799 9.43186 13.2071 10.2055 13.2071H38.2205C38.9941 13.2071 39.6212 12.5799 39.6212 11.8063C39.6212 11.0327 38.9941 10.4056 38.2205 10.4056H10.2055ZM10.2055 16.0086C9.43186 16.0086 8.80472 16.6357 8.80472 17.4093C8.80472 18.1829 9.43186 18.8101 10.2055 18.8101H24.6132C25.3868 18.8101 26.0139 18.1829 26.0139 17.4093C26.0139 16.6357 25.3868 16.0086 24.6132 16.0086H10.2055Z" fill="var(--fill-0, #5780AD)"/>
</svg>
