<svg width="64" height="64" viewBox="0 0 64 64" fill="none" xmlns="http://www.w3.org/2000/svg">
<path d="M32 0C49.6731 0 64 14.3269 64 32C64 49.6731 49.6731 64 32 64C14.3269 64 0 49.6731 0 32C0 14.3269 14.3269 0 32 0Z" fill="#1C7CE5"/>
<path d="M55.7301 33.0966L45.9993 38.1369L36.2686 33.0966C36.4342 32.8303 36.6619 32.6049 36.9518 32.4615L45.1712 28.1998C45.6887 27.9334 46.2892 27.9334 46.8067 28.1998L55.0261 32.4615C55.3367 32.6254 55.5644 32.8303 55.7301 33.0966Z" fill="#EAF3FD"/>
<path d="M45.9999 38.1372V49.9798C45.6893 49.9798 45.3788 49.8978 45.1096 49.7339L36.8903 44.9805C36.352 44.6731 36 44.079 36 43.4643V34.0189C36 33.6911 36.1035 33.3633 36.2691 33.0969L45.9999 38.1372Z" fill="#D3E6FA"/>
<path d="M55.9999 34.0391V43.4845C55.9999 44.1197 55.6687 44.6934 55.1097 45.0007L46.8903 49.7541C46.6211 49.918 46.3106 50 46 50V38.1574L55.7308 33.1171C55.9171 33.3835 55.9999 33.6908 55.9999 34.0391Z" fill="#78B1EF"/>
<path d="M41.7301 13.1013L31.9993 18.1462L22.2686 13.1013C22.4342 12.8347 22.6619 12.6091 22.9518 12.4656L31.1712 8.19995C31.6888 7.93335 32.2892 7.93335 32.8068 8.19995L41.0261 12.4656C41.3367 12.6091 41.5645 12.8347 41.7301 13.1013Z" fill="#EAF3FD"/>
<path d="M31.9999 18.1465V30C31.6893 30 31.3788 29.918 31.1096 29.7539L22.8903 24.9961C22.352 24.6885 22 24.0937 22 23.4785V14.0244C22 13.6963 22.1035 13.3682 22.2692 13.1016L31.9999 18.1465Z" fill="#D3E6FA"/>
<path d="M41.9999 14.0244V23.4785C41.9999 24.1143 41.6687 24.6885 41.1097 24.9961L32.8903 29.7539C32.6211 29.918 32.3106 30 32 30V18.1465L41.7308 13.1016C41.8964 13.3682 41.9999 13.6963 41.9999 14.0244Z" fill="#78B1EF"/>
<path d="M27.7307 33.0975L18.0099 38.1423L8.28906 33.0975C8.45452 32.8309 8.68203 32.6053 8.97158 32.4617L17.1826 28.1962C17.6996 27.9296 18.2994 27.9296 18.8165 28.1962L27.0275 32.4617C27.317 32.6053 27.5652 32.8309 27.7307 33.0975Z" fill="#EAF3FD"/>
<path d="M17.9897 38.1428V49.9962C17.6794 49.9962 17.3692 49.9142 17.1003 49.7501L8.88935 44.9924C8.35161 44.6848 8 44.09 8 43.4748V34.0208C8 33.6927 8.10342 33.3646 8.26888 33.098L17.9897 38.1428Z" fill="#D3E6FA"/>
<path d="M27.9994 34.0208V43.4748C27.9994 44.1105 27.6685 44.6848 27.1101 44.9924L18.8991 49.7501C18.6302 49.9142 18.32 49.9962 18.0098 49.9962V38.1428L27.7306 33.098C27.896 33.3646 27.9994 33.6927 27.9994 34.0208Z" fill="#78B1EF"/>
<path d="M25 41H33.5M40 41H37.5" stroke="#1357A0" stroke-width="2" stroke-linecap="round"/>
<path d="M45 33L40.5 25.9286M38 22L38.6364 23" stroke="#1357A0" stroke-width="2" stroke-linecap="round"/>
<path d="M26.1901 22.1255L21.446 29.0355M18.8104 32.8745L19.4813 31.8973" stroke="#1357A0" stroke-width="2" stroke-linecap="round"/>
</svg>
