<svg width="64" height="64" viewBox="0 0 64 64" fill="none" xmlns="http://www.w3.org/2000/svg">
<path d="M32 0C49.6731 0 64 14.3269 64 32C64 49.6731 49.6731 64 32 64C14.3269 64 0 49.6731 0 32C0 14.3269 14.3269 0 32 0Z" fill="#1C7CE5"/>
<path d="M47.4706 23.42L32.6244 30.758L17.7783 23.42C18.031 23.0322 18.3785 22.7041 18.8207 22.4953L31.3609 16.2908C32.1506 15.9031 33.0667 15.9031 33.8563 16.2908L46.3966 22.4953C46.8388 22.7041 47.2179 23.0322 47.4706 23.42Z" fill="#D3E6FA"/>
<path d="M32.5917 30.7585V47.9998C32.1179 47.9998 31.6441 47.8805 31.2335 47.6419L18.6932 40.7215C17.872 40.2741 17.335 39.409 17.335 38.5141V24.7628C17.335 24.2856 17.4929 23.8083 17.7456 23.4205L32.5917 30.7585Z" fill="#A5CBF5"/>
<path d="M47.8827 24.7628V38.5141C47.8827 39.4388 47.3773 40.2741 46.5245 40.7215L33.9842 47.6419C33.5736 47.8805 33.0998 47.9998 32.626 47.9998V30.7585L47.4721 23.4205C47.7248 23.8083 47.8827 24.2856 47.8827 24.7628Z" fill="#78B1EF"/>
</svg>
