<svg width="64" height="64" viewBox="0 0 64 64" fill="none" xmlns="http://www.w3.org/2000/svg">
<path d="M32 0C49.6731 0 64 14.3269 64 32C64 49.6731 49.6731 64 32 64C14.3269 64 0 49.6731 0 32C0 14.3269 14.3269 0 32 0Z" fill="#1C7CE5"/>
<path d="M32.1992 38.7308C25.9289 38.7308 20.8369 36.8585 20.8369 34.5509V40.6901H20.879C21.2157 42.8671 26.1814 44.6088 32.2413 44.6088C38.3012 44.6088 43.2249 42.8671 43.6036 40.6901H43.6457V34.5509C43.5616 36.9021 38.4696 38.7308 32.1992 38.7308Z" fill="#A5CBF5"/>
<path fill-rule="evenodd" clip-rule="evenodd" d="M20.8369 40.6901H20.879C21.2157 42.8671 26.1814 44.6088 32.2413 44.6088C38.3012 44.6088 43.2249 42.8671 43.6036 40.6901H43.6457V34.5509C43.631 34.9631 43.4623 35.3592 43.1604 35.7322C41.7401 37.487 37.3704 38.7308 32.1992 38.7308C27.0736 38.7308 22.7353 37.4797 21.3222 35.7625C21.0066 35.3789 20.8369 34.9722 20.8369 34.5509V40.6901ZM21.3222 36.4855V40.376L21.3579 40.6068C21.4125 40.9598 21.6702 41.3723 22.23 41.8048C22.7822 42.2315 23.5724 42.6326 24.5647 42.9766C26.5463 43.6635 29.2499 44.0941 32.2413 44.0941C35.2326 44.0941 37.9256 43.6636 39.9018 42.9767C40.8913 42.6328 41.6807 42.2316 42.2355 41.8043C42.7976 41.3715 43.0639 40.9558 43.1264 40.5967L43.1604 40.4011V36.4604C43.111 36.5067 43.0602 36.5521 43.0081 36.5966C42.3608 37.1501 41.4628 37.6232 40.3996 38.0095C38.269 38.7835 35.3727 39.2455 32.1992 39.2455C29.0247 39.2455 26.1279 38.7724 24.0077 37.9925C22.9499 37.6034 22.059 37.1285 21.4229 36.5757C21.3888 36.546 21.3552 36.5159 21.3222 36.4855Z" fill="#78B1EF"/>
<path d="M32.1992 32.7551C25.9289 32.7551 20.8369 30.8909 20.8369 28.5933V34.7059H20.879C21.2157 36.8735 26.1814 38.6076 32.2413 38.6076C38.3012 38.6076 43.2249 36.8735 43.6036 34.7059H43.6457V28.5933C43.5616 30.8909 38.4696 32.7551 32.1992 32.7551Z" fill="#D3E6FA"/>
<path fill-rule="evenodd" clip-rule="evenodd" d="M20.8369 34.7059H20.879C21.2157 36.8735 26.1814 38.6076 32.2413 38.6076C38.3012 38.6076 43.2249 36.8735 43.6036 34.7059H43.6457V28.5933C43.631 28.996 43.4623 29.3855 43.1604 29.7539C41.7401 31.4872 37.3704 32.7551 32.1992 32.7551C27.0736 32.7551 22.7353 31.5094 21.3222 29.7996C21.0066 29.4177 20.8369 29.0127 20.8369 28.5933V34.7059ZM21.3222 30.5211V34.3928L21.3578 34.6222C21.4122 34.9722 21.6691 35.3825 22.2292 35.8133C22.7814 36.2382 23.5717 36.6376 24.5641 36.9801C26.5459 37.6642 29.2497 38.0929 32.2413 38.0929C35.2328 38.0929 37.926 37.6642 39.9024 36.9803C40.892 36.6378 41.6815 36.2383 42.2363 35.8129C42.7986 35.3817 43.0643 34.9682 43.1265 34.6121L43.1604 34.4177V30.4785C43.1105 30.5248 43.0591 30.5703 43.0065 30.6149C42.3599 31.1631 41.4629 31.6353 40.4 32.0226C38.27 32.7986 35.3738 33.2698 32.1992 33.2698C29.0249 33.2698 26.1283 32.7987 24.0083 32.0223C22.9506 31.635 22.0598 31.1621 21.4237 30.6117C21.3893 30.5819 21.3554 30.5517 21.3222 30.5211Z" fill="#78B1EF"/>
<path d="M32.2413 26.8029C38.5398 26.8029 43.6457 25.0859 43.6457 22.9678C43.6457 20.8496 38.5398 19.1326 32.2413 19.1326C25.9428 19.1326 20.8369 20.8496 20.8369 22.9678C20.8369 25.0859 25.9428 26.8029 32.2413 26.8029Z" fill="#EAF3FD"/>
<path fill-rule="evenodd" clip-rule="evenodd" d="M42.4584 24.0487C42.9834 23.6314 43.1604 23.2607 43.1604 22.9678C43.1604 22.6749 42.9834 22.3041 42.4584 21.8868C41.942 21.4762 41.1639 21.0845 40.1588 20.7465C38.1542 20.0724 35.3549 19.6473 32.2413 19.6473C29.1278 19.6473 26.3284 20.0724 24.3239 20.7465C23.3188 21.0845 22.5406 21.4762 22.0242 21.8868C21.4993 22.3041 21.3222 22.6749 21.3222 22.9678C21.3222 23.2607 21.4993 23.6314 22.0242 24.0487C22.5406 24.4594 23.3188 24.851 24.3239 25.189C26.3284 25.8631 29.1278 26.2882 32.2413 26.2882C35.3549 26.2882 38.1542 25.8631 40.1588 25.189C41.1639 24.851 41.942 24.4594 42.4584 24.0487ZM43.6457 22.9678C43.6457 25.0859 38.5398 26.8029 32.2413 26.8029C25.9428 26.8029 20.8369 25.0859 20.8369 22.9678C20.8369 20.8496 25.9428 19.1326 32.2413 19.1326C38.5398 19.1326 43.6457 20.8496 43.6457 22.9678Z" fill="#78B1EF"/>
<path d="M32.1992 26.9032C25.9289 26.9032 20.8369 25.0391 20.8369 22.7415V28.8541H20.879C21.2157 31.0217 26.1814 32.7558 32.2413 32.7558C38.3012 32.7558 43.2249 31.0217 43.6036 28.8541H43.6457V22.7415C43.5616 25.0391 38.4696 26.9032 32.1992 26.9032Z" fill="#EAF3FD"/>
<path fill-rule="evenodd" clip-rule="evenodd" d="M20.8369 28.8541H20.879C21.2157 31.0217 26.1814 32.7558 32.2413 32.7558C38.3012 32.7558 43.2249 31.0217 43.6036 28.8541H43.6457V22.7415C43.631 23.1442 43.4623 23.5337 43.1604 23.9021C41.7401 25.6354 37.3704 26.9032 32.1992 26.9032C27.0736 26.9032 22.7353 25.6576 21.3222 23.9478C21.0066 23.5659 20.8369 23.1609 20.8369 22.7415V28.8541ZM21.3222 24.6693V28.541L21.3578 28.7704C21.4122 29.1204 21.6691 29.5307 22.2292 29.9615C22.7814 30.3864 23.5717 30.7858 24.5641 31.1283C26.5459 31.8124 29.2497 32.2411 32.2413 32.2411C35.2328 32.2411 37.926 31.8124 39.9024 31.1285C40.892 30.786 41.6815 30.3865 42.2363 29.9611C42.7986 29.5299 43.0643 29.1164 43.1265 28.7603L43.1604 28.5659V24.6267C43.1105 24.673 43.0591 24.7185 43.0065 24.7631C42.3599 25.3113 41.4629 25.7835 40.4 26.1708C38.27 26.9468 35.3738 27.418 32.1992 27.418C29.0249 27.418 26.1283 26.9469 24.0083 26.1705C22.9506 25.7831 22.0598 25.3103 21.4237 24.7599C21.3893 24.7301 21.3554 24.6999 21.3222 24.6693Z" fill="#78B1EF"/>
</svg>
