<svg width="64" height="64" viewBox="0 0 64 64" fill="none" xmlns="http://www.w3.org/2000/svg">
<g clip-path="url(#clip0)">
<path d="M64.0002 1.96802H13.9468V62.0321H64.0002V1.96802Z" fill="white"/>
<path opacity="0.5" d="M42.7024 48.017C42.7024 52.4398 46.2882 56.0255 50.7109 56.0255C55.1336 56.0255 59.1359 52.4197 58.7194 48.017C58.2959 43.5353 54.8212 39.9664 50.7109 40.0085C46.2882 40.0546 42.7024 43.5943 42.7024 48.017Z" fill="#DCDDDD"/>
<path d="M16.6917 33.0221L5.88209 43.8306C4.53566 45.1781 2.35628 45.1781 1.00985 43.8306C-0.335641 42.4851 -0.335641 40.3058 1.00985 38.9603L11.8434 28.1268C13.0438 30.1239 14.7056 31.8047 16.6917 33.0221Z" fill="#DCDDDD"/>
<path d="M13.9386 30.8247L0.973819 43.7875C-0.335513 42.442 -0.323548 40.2937 1.00387 38.9603L11.8434 28.1208C12.4339 29.1009 13.1407 30.0088 13.9386 30.8247Z" fill="white"/>
<path opacity="0.5" d="M13.9386 30.8247L0.973819 43.7875C-0.335513 42.442 -0.323548 40.2937 1.00387 38.9603L11.8434 28.1208C12.4339 29.1009 13.1407 30.0088 13.9386 30.8247Z" fill="#DCDDDD"/>
<path opacity="0.5" d="M42.7024 48.0171C42.7024 52.4418 46.2862 56.0256 50.7109 56.0256C54.0734 56.0256 56.9506 53.9574 58.1388 51.0203L43.344 44.8617C42.9285 45.8277 42.7024 46.8959 42.7024 48.0171Z" fill="#F8F8F8"/>
<path d="M42.6895 48.021C42.6895 50.843 44.151 53.3276 46.3603 54.7552L50.6909 47.9289L43.3291 44.8636C42.9156 45.8308 42.6895 46.8998 42.6895 48.021Z" fill="#F8F8F8"/>
<path d="M43.342 44.8616L50.7098 47.9309V40.0085C47.4063 40.0085 44.5704 42.0107 43.342 44.8616Z" fill="#DCDDDD"/>
<path opacity="0.5" d="M57.9938 14.9818H53.9895V33.001H57.9938V14.9818Z" fill="#DCDDDD"/>
<path opacity="0.5" d="M50.6979 22.9904H46.6936V33.001H50.6979V22.9904Z" fill="#DCDDDD"/>
<path opacity="0.5" d="M37.3016 44.6835C38.1309 44.6835 38.8032 44.0112 38.8032 43.1819C38.8032 42.3526 38.1309 41.6803 37.3016 41.6803C36.4723 41.6803 35.8 42.3526 35.8 43.1819C35.8 44.0112 36.4723 44.6835 37.3016 44.6835Z" fill="#DCDDDD"/>
<path d="M33.6798 42.6785H23.6692V43.6795H33.6798V42.6785Z" fill="#F8F8F8"/>
<path opacity="0.5" d="M37.3016 49.8491C38.1309 49.8491 38.8032 49.1768 38.8032 48.3475C38.8032 47.5182 38.1309 46.8459 37.3016 46.8459C36.4723 46.8459 35.8 47.5182 35.8 48.3475C35.8 49.1768 36.4723 49.8491 37.3016 49.8491Z" fill="#DCDDDD"/>
<path d="M33.6798 47.8508H23.6692V48.8518H33.6798V47.8508Z" fill="#F8F8F8"/>
<path opacity="0.5" d="M37.3016 55.0245C38.1309 55.0245 38.8032 54.3522 38.8032 53.5229C38.8032 52.6936 38.1309 52.0214 37.3016 52.0214C36.4723 52.0214 35.8 52.6936 35.8 53.5229C35.8 54.3522 36.4723 55.0245 37.3016 55.0245Z" fill="#DCDDDD"/>
<path d="M33.6798 53.0223H23.6692V54.0233H33.6798V53.0223Z" fill="#F8F8F8"/>
<path d="M24.3577 35.1033C16.3541 35.1033 9.84229 28.5914 9.84229 20.5879C9.84229 12.5845 16.3542 6.07239 24.3577 6.07239C32.3611 6.07239 38.8731 12.5843 38.8731 20.5878C38.8731 28.5912 32.3622 35.1033 24.3577 35.1033Z" fill="white"/>
<path d="M24.458 5.96027C32.4786 5.96027 38.9855 12.4672 38.9855 20.4878C38.9855 28.5084 32.4786 35.0153 24.458 35.0153C16.4084 35.0153 9.93049 28.4473 9.93049 20.4878C9.93049 12.4673 16.4375 5.96027 24.458 5.96027ZM24.458 3.97021C15.3502 3.97021 7.94043 11.3801 7.94043 20.4878C7.94043 29.5965 15.3504 37.0053 24.458 37.0053C33.5656 37.0053 40.9755 29.5965 40.9755 20.4878C40.9755 11.3801 33.5657 3.97021 24.458 3.97021Z" fill="white"/>
<path d="M24.458 5.96027C32.4786 5.96027 38.9855 12.4672 38.9855 20.4878C38.9855 28.5084 32.4786 35.0153 24.458 35.0153C16.4084 35.0153 9.93049 28.4473 9.93049 20.4878C9.93049 12.4673 16.4375 5.96027 24.458 5.96027ZM24.458 3.97021C15.3502 3.97021 7.94043 11.3801 7.94043 20.4878C7.94043 29.5965 15.3504 37.0053 24.458 37.0053C33.5656 37.0053 40.9755 29.5965 40.9755 20.4878C40.9755 11.3801 33.5657 3.97021 24.458 3.97021Z" fill="url(#paint0_linear)"/>
<path opacity="0.5" d="M24.458 5.96027C32.4786 5.96027 38.9855 12.4672 38.9855 20.4878C38.9855 28.5084 32.4786 35.0153 24.458 35.0153C16.4084 35.0153 9.93049 28.4473 9.93049 20.4878C9.93049 12.4673 16.4375 5.96027 24.458 5.96027ZM24.458 3.97021C15.3502 3.97021 7.94043 11.3801 7.94043 20.4878C7.94043 29.5965 15.3504 37.0053 24.458 37.0053C33.5656 37.0053 40.9755 29.5965 40.9755 20.4878C40.9755 11.3801 33.5657 3.97021 24.458 3.97021Z" fill="#DCDDDD"/>
<path opacity="0.5" d="M24.3579 32.1591C30.7485 32.1591 35.9292 26.9785 35.9292 20.5879C35.9292 14.1972 30.7485 9.0166 24.3579 9.0166C17.9673 9.0166 12.7866 14.1972 12.7866 20.5879C12.7866 26.9785 17.9673 32.1591 24.3579 32.1591Z" fill="#DCDDDD"/>
<path d="M24.3579 9.01746C17.9681 9.01746 12.7866 14.198 12.7866 20.5878C12.7866 23.7492 14.059 26.6122 16.1131 28.7004L32.4696 12.344C30.3823 10.2889 27.5203 9.01746 24.3579 9.01746Z" fill="#F8F8F8"/>
</g>
<defs>
<linearGradient id="paint0_linear" x1="24.458" y1="3.97021" x2="24.458" y2="37.0053" gradientUnits="userSpaceOnUse">
<stop stop-color="white"/>
<stop offset="1" stop-color="white" stop-opacity="0"/>
</linearGradient>
<clipPath id="clip0">
<rect width="64" height="64" fill="white"/>
</clipPath>
</defs>
</svg>
