<svg width="64" height="64" viewBox="0 0 64 64" fill="none" xmlns="http://www.w3.org/2000/svg">
<g clip-path="url(#clip0)">
<path d="M8.07617 50.8344C8.61593 39.181 9.30562 32.9177 14.6732 26.1726C17.312 22.8603 21.4502 19.0963 25.7683 19.1264C29.3067 19.1264 33.5048 19.1565 38.3626 19.1565C42.8606 19.1565 47.1187 23.1614 49.7875 26.6846C54.9152 33.4297 55.485 39.5123 55.9948 50.8344V51.2861C55.9948 59.055 46.2491 63.2104 32.0354 63.2104C17.8218 63.2104 8.07617 59.055 8.07617 51.2861V50.8344Z" fill="#BCD8F7"/>
<path d="M31.9702 63.7721C16.4072 63.7721 7.11133 58.9843 7.11133 50.9444V50.4927V50.4626C7.65109 39.1706 8.22082 32.4255 13.9183 25.2889C19.046 18.8751 23.484 17.8813 25.703 17.8813C25.703 17.8813 25.703 17.8813 25.733 17.8813H28.2519C31.2206 17.8813 34.5791 17.9115 38.3274 17.9115C40.6364 17.9115 45.2543 18.9353 50.472 25.8008C55.8096 32.847 56.3493 39.1104 56.8891 50.4626V50.4927V50.9444C56.8291 58.9843 47.5333 63.7721 31.9702 63.7721ZM8.88055 50.5228V50.9444C8.88055 54.347 10.9496 57.0571 15.0278 59.0144C19.076 60.9416 24.9534 61.9654 31.9702 61.9654C38.9871 61.9654 44.8345 60.9416 48.9127 59.0144C52.9909 57.0872 55.0599 54.3772 55.0599 50.9444V50.5228C54.5502 39.5319 54.0404 33.5095 49.0326 26.8849C47.3833 24.7168 43.0653 19.7182 38.3274 19.7182C34.5791 19.7182 31.2206 19.7182 28.2519 19.6881H25.733C25.733 19.6881 25.733 19.6881 25.703 19.6881C21.175 19.6881 16.9469 24.3856 15.3277 26.4031C10.2299 32.7567 9.45029 38.6285 8.88055 50.5228Z" fill="#1C7CE5"/>
<path fill-rule="evenodd" clip-rule="evenodd" d="M25.7027 18.1093C23.5644 18.1093 19.1896 19.0626 14.099 25.4301C8.45373 32.5013 7.88195 39.1743 7.34211 50.4665V50.9429C7.34211 54.8551 9.59603 57.9943 13.8108 60.1681C18.0341 62.3462 24.207 63.5411 31.9699 63.5411C39.7328 63.5411 45.9058 62.3462 50.1366 60.168C54.359 57.9941 56.6283 54.8544 56.6577 50.9416C56.6577 50.9415 56.6577 50.9418 56.6577 50.9416V50.4666C56.1179 39.1152 55.5764 32.9199 50.2869 25.9372C45.1067 19.1211 40.5536 18.1394 38.3271 18.1394C36.4523 18.1394 34.6751 18.1319 32.9959 18.1244L32.7037 18.1231C31.1328 18.116 29.6489 18.1093 28.2516 18.1093H25.7027ZM13.7369 25.1448C18.9017 18.6846 23.403 17.6504 25.7027 17.6504H28.2516C29.65 17.6504 31.1348 17.6571 32.7054 17.6641L32.998 17.6655C34.6772 17.673 36.4535 17.6805 38.3271 17.6805C40.7184 17.6805 45.4011 18.7464 50.6561 25.6611C56.041 32.7698 56.58 39.1006 57.1196 50.4503L57.1201 50.4611L57.1199 50.9429C57.0891 55.0698 54.6805 58.3455 50.3494 60.5754C46.0265 62.801 39.7701 64 31.9699 64C24.1698 64 17.9132 62.8011 13.5978 60.5753C9.27389 58.3453 6.87988 55.0706 6.87988 50.9429V50.4502C7.41947 39.1617 7.98824 32.3455 13.7369 25.1448ZM19.2813 22.1072C21.1219 20.6688 23.3617 19.4571 25.7027 19.4571H28.2539C31.2212 19.4872 34.5784 19.4873 38.3271 19.4873C40.775 19.4873 43.0905 20.776 44.984 22.3092C46.882 23.8461 48.3866 25.6538 49.2167 26.7451C54.272 33.4327 54.7809 39.5238 55.2905 50.5107L55.2909 50.5213L55.2907 50.9429C55.2907 54.4927 53.1407 57.2689 49.0117 59.2201C44.8902 61.1677 39.0043 62.1933 31.9699 62.1933C24.9359 62.1933 19.0196 61.1678 14.9275 59.2198C10.8002 57.2389 8.6491 54.4629 8.6491 50.9429V50.5104C9.21886 38.6159 9.99827 32.6753 15.1466 26.2586C15.9614 25.2433 17.436 23.5493 19.2813 22.1072ZM15.5081 26.5446C10.4617 32.8342 9.68103 38.6364 9.11132 50.5267V50.9429C9.11132 54.228 11.0989 56.8725 15.1276 58.8061C19.132 60.7124 24.9703 61.7344 31.9699 61.7344C38.9693 61.7344 44.7781 60.7124 48.813 58.8057C52.8403 56.9026 54.8285 54.2586 54.8285 50.9429V50.5265C54.3186 39.5353 53.8068 33.582 48.8477 27.0215C48.0286 25.9447 46.5495 24.1691 44.6918 22.6648C42.8294 21.1567 40.617 19.9462 38.3271 19.9462C34.5796 19.9462 31.2202 19.9461 28.2504 19.916H25.7034C23.5164 19.916 21.3775 21.0531 19.5672 22.4678C17.7616 23.8788 16.3125 25.5423 15.5081 26.5446Z" fill="#1C7CE5"/>
<path d="M30.6688 30.1614L27.9327 48.2213C27.8394 48.841 28.1193 49.4607 28.6789 49.8443L31.6015 51.851C32.3477 52.3526 33.4049 52.3821 34.1511 51.8805L37.2603 49.8443C37.851 49.4607 38.1309 48.841 38.0376 48.2213L35.3015 30.1909" fill="white"/>
<path d="M30.6688 30.1614L27.9327 48.2213C27.8394 48.841 28.1193 49.4607 28.6789 49.8443L31.6015 51.851C32.3477 52.3526 33.4049 52.3821 34.1511 51.8805L37.2603 49.8443C37.851 49.4607 38.1309 48.841 38.0376 48.2213L35.3015 30.1909" fill="url(#paint0_linear)"/>
<path d="M32.9075 53.0906C32.2546 53.0906 31.6016 52.9135 31.0731 52.5299L28.1504 50.5233C27.3109 49.9626 26.8757 49.0183 27.0311 48.0739L29.7672 30.0141C29.8294 29.5419 30.3268 29.1878 30.8243 29.2763C31.3218 29.3353 31.6949 29.8075 31.6016 30.2796L28.8656 48.3395C28.8345 48.6346 28.9588 48.9002 29.2386 49.1068L32.1613 51.1135C32.5966 51.4086 33.2184 51.4086 33.6226 51.1135L36.7318 49.0773C37.0116 48.9002 37.1671 48.6051 37.136 48.31L34.3999 30.2796C34.3377 29.8075 34.6797 29.3353 35.1772 29.2763C35.6746 29.2173 36.1721 29.5419 36.2343 30.0141L38.9704 48.0444C39.1259 49.0183 38.6595 49.9626 37.7889 50.5233L34.6797 52.5594C34.1512 52.943 33.5293 53.0906 32.9075 53.0906Z" fill="#1C7CE5" stroke="#1C7CE5" stroke-width="0.26"/>
<path d="M35.5308 30.1769H30.4706C29.6272 30.1769 28.9043 29.4972 28.9043 28.6403V23.558C28.9043 22.7307 29.5971 22.0215 30.4706 22.0215H35.5308C36.3742 22.0215 37.0971 22.7011 37.0971 23.558V28.6403C37.067 29.4972 36.3742 30.1769 35.5308 30.1769Z" fill="white"/>
<path d="M35.5308 30.1769H30.4706C29.6272 30.1769 28.9043 29.4972 28.9043 28.6403V23.558C28.9043 22.7307 29.5971 22.0215 30.4706 22.0215H35.5308C36.3742 22.0215 37.0971 22.7011 37.0971 23.558V28.6403C37.067 29.4972 36.3742 30.1769 35.5308 30.1769Z" fill="url(#paint1_linear)"/>
<path d="M35.5301 31.0638H30.4699C29.1145 31.0638 28 29.9705 28 28.6408V23.5585C28 22.2288 29.1145 21.1355 30.4699 21.1355H35.5301C36.8855 21.1355 38 22.2288 38 23.5585V28.6408C37.9699 29.9705 36.8855 31.0638 35.5301 31.0638ZM30.4699 22.938C30.1085 22.938 29.8072 23.2334 29.8072 23.588V28.6703C29.8072 29.0249 30.1085 29.3204 30.4699 29.3204H35.5301C35.8915 29.3204 36.1928 29.0249 36.1928 28.6703V23.588C36.1928 23.2334 35.8915 22.938 35.5301 22.938H30.4699Z" fill="#1C7CE5" stroke="#1C7CE5" stroke-width="0.26"/>
<path d="M32.5665 25.8184C39.4405 25.8184 45.013 20.3023 45.013 13.4978C45.013 6.69336 39.4405 1.17725 32.5665 1.17725C25.6926 1.17725 20.1201 6.69336 20.1201 13.4978C20.1201 20.3023 25.6926 25.8184 32.5665 25.8184Z" fill="white"/>
<path d="M32.5665 25.8184C39.4405 25.8184 45.013 20.3023 45.013 13.4978C45.013 6.69336 39.4405 1.17725 32.5665 1.17725C25.6926 1.17725 20.1201 6.69336 20.1201 13.4978C20.1201 20.3023 25.6926 25.8184 32.5665 25.8184Z" fill="url(#paint2_linear)"/>
<path d="M32.5648 26.7064C25.2033 26.7064 19.2314 20.7754 19.2314 13.4687C19.2314 6.16196 25.2329 0.230957 32.5648 0.230957C39.9262 0.230957 45.8981 6.16196 45.8981 13.4687C45.8981 20.7754 39.8966 26.7064 32.5648 26.7064ZM32.5648 2.09585C26.179 2.09585 21.0053 7.2014 21.0053 13.4993C21.0053 19.7971 26.2085 24.9027 32.5648 24.9027C38.921 24.9027 44.1243 19.7971 44.1243 13.4993C44.1243 7.2014 38.921 2.09585 32.5648 2.09585Z" fill="#1C7CE5"/>
<path fill-rule="evenodd" clip-rule="evenodd" d="M32.5644 0.458908C25.3599 0.458908 19.4622 6.28749 19.4622 13.4672C19.4622 20.6472 25.3307 26.4754 32.5644 26.4754C39.7689 26.4754 45.6667 20.6469 45.6667 13.4672C45.6667 6.28716 39.7982 0.458908 32.5644 0.458908ZM19 13.4672C19 6.03343 25.1052 0 32.5644 0C40.0535 0 46.1289 6.03376 46.1289 13.4672C46.1289 20.901 40.0236 26.9343 32.5644 26.9343C25.0754 26.9343 19 20.9006 19 13.4672ZM20.7738 13.4978C20.7738 7.07182 26.0524 1.86489 32.5644 1.86489C39.0465 1.86489 44.3551 7.07144 44.3551 13.4978C44.3551 19.9241 39.0465 25.1306 32.5644 25.1306C26.0823 25.1306 20.7738 19.9241 20.7738 13.4978ZM32.5644 2.3238C26.3049 2.3238 21.2361 7.32798 21.2361 13.4978C21.2361 19.6671 26.3341 24.6717 32.5644 24.6717C38.7948 24.6717 43.8928 19.6671 43.8928 13.4978C43.8928 7.32837 38.7948 2.3238 32.5644 2.3238Z" fill="#1C7CE5"/>
</g>
<defs>
<linearGradient id="paint0_linear" x1="32.9851" y1="30.1614" x2="32.9851" y2="52.2423" gradientUnits="userSpaceOnUse">
<stop stop-color="white"/>
<stop offset="1" stop-color="white" stop-opacity="0"/>
</linearGradient>
<linearGradient id="paint1_linear" x1="33.0007" y1="22.0215" x2="33.0007" y2="30.1769" gradientUnits="userSpaceOnUse">
<stop stop-color="white"/>
<stop offset="1" stop-color="white" stop-opacity="0"/>
</linearGradient>
<linearGradient id="paint2_linear" x1="32.5665" y1="1.17725" x2="32.5665" y2="25.8184" gradientUnits="userSpaceOnUse">
<stop stop-color="white"/>
<stop offset="1" stop-color="white" stop-opacity="0"/>
</linearGradient>
<clipPath id="clip0">
<rect width="64" height="64" fill="white"/>
</clipPath>
</defs>
</svg>
