<svg width="24" height="24" viewBox="0 0 24 24" fill="none" xmlns="http://www.w3.org/2000/svg">
<rect width="24" height="24" fill="white"/>
<path d="M7.39417 9.86086C8.08771 11.3053 9.03313 12.6592 10.2305 13.8565C11.4278 15.0538 12.7816 15.9992 14.2261 16.6928C14.3503 16.7524 14.4125 16.7823 14.4911 16.8052C14.7704 16.8866 15.1135 16.8281 15.3501 16.6587C15.4166 16.611 15.4736 16.5541 15.5875 16.4402C15.9359 16.0918 16.1101 15.9176 16.2852 15.8037C16.9458 15.3743 17.7973 15.3743 18.4578 15.8037C18.633 15.9176 18.8072 16.0918 19.1556 16.4402L19.3497 16.6344C19.8793 17.1639 20.1441 17.4287 20.2879 17.7131C20.574 18.2786 20.574 18.9465 20.2879 19.5121C20.1441 19.7964 19.8793 20.0612 19.3497 20.5908L19.1927 20.7478C18.6649 21.2756 18.401 21.5395 18.0423 21.741C17.6442 21.9646 17.0259 22.1254 16.5693 22.1241C16.1578 22.1228 15.8766 22.043 15.3141 21.8834C12.2915 21.0254 9.43927 19.4067 7.05975 17.0272C4.68022 14.6477 3.0615 11.7955 2.20358 8.77281C2.04394 8.21036 1.96412 7.92914 1.9629 7.51766C1.96154 7.06106 2.12233 6.44276 2.34596 6.04467C2.54749 5.68592 2.81136 5.42204 3.33911 4.8943L3.49618 4.73722C4.02574 4.20766 4.29052 3.94288 4.57489 3.79905C5.14045 3.51299 5.80834 3.51299 6.37389 3.79905C6.65826 3.94288 6.92304 4.20766 7.4526 4.73722L7.64678 4.9314C7.99515 5.27977 8.16933 5.45395 8.28321 5.62911C8.71268 6.28965 8.71268 7.1412 8.28321 7.80174C8.16933 7.9769 7.99514 8.15108 7.64678 8.49945C7.53287 8.61336 7.47592 8.67031 7.42824 8.73689C7.25884 8.97348 7.20034 9.31652 7.28178 9.59588C7.30469 9.67449 7.33452 9.73661 7.39417 9.86086Z" fill="url(#paint0_linear_5371_15654)"/>
<path d="M14.1368 5.53044C15.2077 5.73939 16.1923 6.2628 16.9639 7.03435C17.7354 7.8059 18.2589 8.79056 18.4678 9.8615C18.5206 10.1323 18.344 10.3943 18.0733 10.4474C17.8022 10.5003 17.5392 10.3239 17.4864 10.0529C17.3155 9.17731 16.8877 8.3722 16.2569 7.74138C15.6261 7.11057 14.8209 6.68273 13.9453 6.51189C13.6743 6.45901 13.497 6.19601 13.5498 5.92497C13.6029 5.65414 13.8658 5.47761 14.1368 5.53044ZM14.0967 1.53826C16.2312 1.77548 18.2216 2.73159 19.7412 4.24919C21.261 5.76707 22.2201 7.75725 22.46 9.89177C22.4906 10.166 22.2929 10.4137 22.0186 10.4445C21.7443 10.4752 21.4967 10.2774 21.4659 10.0031C21.2514 8.09413 20.3943 6.31474 19.0352 4.9572C17.6759 3.59964 15.8947 2.74451 13.9854 2.5324C13.7112 2.50169 13.5135 2.25397 13.544 1.97966C13.5747 1.70544 13.8224 1.50778 14.0967 1.53826Z" fill="#52C396"/>
<defs>
<linearGradient id="paint0_linear_5371_15654" x1="12.213" y1="1.53516" x2="12.213" y2="22.1241" gradientUnits="userSpaceOnUse">
<stop stop-color="#5EA3ED"/>
<stop offset="1" stop-color="#D1E5FA"/>
</linearGradient>
</defs>
</svg>
