<svg width="24" height="24" viewBox="0 0 24 24" fill="none" xmlns="http://www.w3.org/2000/svg">
<rect width="24" height="24" fill="white"/>
<path d="M20 11.25C20.9665 11.25 21.75 12.0335 21.75 13V17.9141C21.75 18.8806 20.9665 19.6641 20 19.6641H18.75V21.082C18.7497 21.2676 18.5411 21.3765 18.3887 21.2705L16.1426 19.709L16.0781 19.6641H12C11.0335 19.6641 10.25 18.8806 10.25 17.9141V13C10.25 12.0335 11.0335 11.25 12 11.25H20Z" fill="white"/>
<path d="M21.75 13C21.75 12.0335 20.9665 11.25 20 11.25H12C11.0335 11.25 10.25 12.0335 10.25 13V17.9141C10.25 18.8806 11.0335 19.6641 12 19.6641H16.0781L16.1426 19.709L18.3887 21.2705C18.5411 21.3765 18.7497 21.2676 18.75 21.082V19.6641H20C20.9665 19.6641 21.75 18.8806 21.75 17.9141V13ZM22.25 17.9141C22.25 19.1567 21.2426 20.1641 20 20.1641H19.25V21.082C19.2497 21.6713 18.5875 22.0171 18.1035 21.6807L15.9219 20.1641H12C10.7574 20.1641 9.75 19.1567 9.75 17.9141V13C9.75 11.7574 10.7574 10.75 12 10.75H20C21.2426 10.75 22.25 11.7574 22.25 13V17.9141Z" fill="url(#paint0_linear_5371_15648)"/>
<path d="M17 2C18.1046 2 19 2.89543 19 4V10.75H12C10.7574 10.75 9.75 11.7574 9.75 13V15.1494L7.00391 17.0596C6.68567 17.2805 6.25002 17.0525 6.25 16.665V14.6289H4C2.89554 14.6289 2.00018 13.7333 2 12.6289V4C2 2.89543 2.89543 2 4 2H17Z" fill="url(#paint1_linear_5371_15648)"/>
<path d="M13.1523 15.0898C13.5666 15.0898 13.9023 15.4256 13.9023 15.8398C13.9023 16.2541 13.5666 16.5898 13.1523 16.5898C12.7381 16.5898 12.4023 16.2541 12.4023 15.8398C12.4023 15.4256 12.7381 15.0898 13.1523 15.0898Z" fill="#52C396"/>
<path d="M16.041 15.0898C16.4552 15.0898 16.791 15.4256 16.791 15.8398C16.791 16.2541 16.4552 16.5898 16.041 16.5898C15.6268 16.5898 15.291 16.2541 15.291 15.8398C15.291 15.4256 15.6268 15.0898 16.041 15.0898Z" fill="#52C396"/>
<path d="M18.9277 15.0898C19.3419 15.0898 19.6777 15.4256 19.6777 15.8398C19.6777 16.2541 19.3419 16.5898 18.9277 16.5898C18.5135 16.5898 18.1777 16.2541 18.1777 15.8398C18.1777 15.4256 18.5135 15.0898 18.9277 15.0898Z" fill="#52C396"/>
<defs>
<linearGradient id="paint0_linear_5371_15648" x1="23.5293" y1="-11.2354" x2="0.211424" y2="34.2574" gradientUnits="userSpaceOnUse">
<stop stop-color="#4896EA"/>
<stop offset="1" stop-color="white" stop-opacity="0"/>
</linearGradient>
<linearGradient id="paint1_linear_5371_15648" x1="12.125" y1="2" x2="12.125" y2="22.3846" gradientUnits="userSpaceOnUse">
<stop stop-color="#5EA3ED"/>
<stop offset="1" stop-color="#D1E5FA"/>
</linearGradient>
</defs>
</svg>
