<svg width="64" height="64" viewBox="0 0 64 64" fill="none" xmlns="http://www.w3.org/2000/svg">
<path d="M63.567 35.5145L47.9003 43.8767L32.2336 35.5145C32.5003 35.0726 32.867 34.6987 33.3336 34.4608L46.567 27.3904C47.4003 26.9485 48.367 26.9485 49.2003 27.3904L62.4336 34.4608C62.9336 34.7327 63.3003 35.0726 63.567 35.5145Z" fill="#F8F8F8"/>
<path d="M47.9003 43.8771V63.5246C47.4003 63.5246 46.9003 63.3886 46.467 63.1167L33.2336 55.2305C32.367 54.7206 31.8003 53.7348 31.8003 52.7151V37.0447C31.8003 36.5008 31.967 35.9569 32.2336 35.515L47.9003 43.8771Z" fill="#F3F3F3"/>
<path d="M64.0002 37.0782V52.7486C64.0002 53.8024 63.4668 54.7542 62.5668 55.2641L49.3335 63.1503C48.9001 63.4222 48.4001 63.5582 47.9001 63.5582V43.9107L63.5668 35.5486C63.8668 35.9905 64.0002 36.5004 64.0002 37.0782Z" fill="#EDEEEE"/>
<path d="M47.4667 8.45557L31.8 16.8177L16.1333 8.45557C16.4 8.01367 16.7666 7.63976 17.2333 7.40181L30.4667 0.331424C31.3 -0.110475 32.2667 -0.110475 33.1 0.331424L46.3333 7.40181C46.8333 7.63976 47.2 8.01367 47.4667 8.45557Z" fill="#F8F8F8"/>
<path d="M31.7999 16.818V36.4655C31.2999 36.4655 30.7999 36.3296 30.3666 36.0576L17.1333 28.1714C16.2666 27.6615 15.7 26.6758 15.7 25.656V9.98558C15.7 9.44171 15.8666 8.89783 16.1333 8.45593L31.7999 16.818Z" fill="#F3F3F3"/>
<path d="M47.8998 9.98558V25.656C47.8998 26.7098 47.3665 27.6615 46.4665 28.1714L33.2331 36.0576C32.7998 36.3296 32.2998 36.4655 31.7998 36.4655V16.818L47.4665 8.45593C47.7332 8.89783 47.8998 9.44171 47.8998 9.98558Z" fill="#EDEEEE"/>
<path d="M31.7999 35.9892L16.1332 44.3513L0.466553 35.9892C0.73322 35.5473 1.09988 35.1734 1.56655 34.9355L14.7999 27.8651C15.6332 27.4232 16.5999 27.4232 17.4332 27.8651L30.6666 34.9355C31.1332 35.1734 31.5333 35.5473 31.7999 35.9892Z" fill="#F8F8F8"/>
<path d="M16.1 44.3521V63.9996C15.6 63.9996 15.1 63.8636 14.6667 63.5917L1.43334 55.7055C0.566674 55.1956 0 54.2098 0 53.1901V37.5196C0 36.9758 0.166673 36.4319 0.43334 35.99L16.1 44.3521Z" fill="#F3F3F3"/>
<path d="M32.2338 37.5196V53.1901C32.2338 54.2438 31.7005 55.1956 30.8005 55.7055L17.5671 63.5917C17.1338 63.8636 16.6338 63.9996 16.1338 63.9996V44.3521L31.8005 35.99C32.0671 36.4319 32.2338 36.9758 32.2338 37.5196Z" fill="#EDEEEE"/>
</svg>
