<svg width="24" height="24" viewBox="0 0 24 24" fill="none" xmlns="http://www.w3.org/2000/svg">
<rect width="24" height="24" fill="white"/>
<path d="M17.9492 2.5C18.9157 2.5 19.6992 3.2835 19.6992 4.25V20.25C19.6992 21.2165 18.9157 22 17.9492 22H5.94922C4.98272 22 4.19922 21.2165 4.19922 20.25V4.25C4.19922 3.2835 4.98272 2.5 5.94922 2.5H17.9492Z" fill="white"/>
<path d="M19.6992 4.25C19.6992 3.2835 18.9157 2.5 17.9492 2.5H5.94922C4.98272 2.5 4.19922 3.2835 4.19922 4.25V20.25C4.19922 21.2165 4.98272 22 5.94922 22H17.9492C18.9157 22 19.6992 21.2165 19.6992 20.25V4.25ZM20.1992 20.25C20.1992 21.4926 19.1919 22.5 17.9492 22.5H5.94922C4.70658 22.5 3.69922 21.4926 3.69922 20.25V4.25C3.69922 3.00736 4.70658 2 5.94922 2H17.9492C19.1919 2 20.1992 3.00736 20.1992 4.25V20.25Z" fill="url(#paint0_linear_5371_15672)"/>
<path d="M5.94922 10.9691C5.94922 10.6378 6.21785 10.3691 6.54922 10.3691H12.3492C12.6806 10.3691 12.9492 10.6378 12.9492 10.9691C12.9492 11.3005 12.6806 11.5691 12.3492 11.5691H6.54922C6.21785 11.5691 5.94922 11.3005 5.94922 10.9691Z" fill="url(#paint1_linear_5371_15672)"/>
<path d="M5.94922 13.9691C5.94922 13.6378 6.21785 13.3691 6.54922 13.3691H16.3492C16.6806 13.3691 16.9492 13.6378 16.9492 13.9691C16.9492 14.3005 16.6806 14.5691 16.3492 14.5691H6.54922C6.21785 14.5691 5.94922 14.3005 5.94922 13.9691Z" fill="url(#paint2_linear_5371_15672)"/>
<path d="M5.94922 16.9691C5.94922 16.6378 6.21785 16.3691 6.54922 16.3691H12.3492C12.6806 16.3691 12.9492 16.6378 12.9492 16.9691C12.9492 17.3005 12.6806 17.5691 12.3492 17.5691H6.54922C6.21785 17.5691 5.94922 17.3005 5.94922 16.9691Z" fill="url(#paint3_linear_5371_15672)"/>
<path d="M8.26283 6.40681C8.26283 7.0457 7.74491 7.56362 7.10603 7.56362C6.46714 7.56362 5.94922 7.0457 5.94922 6.40681C5.94922 5.76792 6.46714 5.25 7.10603 5.25C7.74491 5.25 8.26283 5.76792 8.26283 6.40681Z" fill="#52C396"/>
<defs>
<linearGradient id="paint0_linear_5371_15672" x1="21.3355" y1="-11.6412" x2="-5.00592" y2="30.023" gradientUnits="userSpaceOnUse">
<stop stop-color="#4896EA"/>
<stop offset="1" stop-color="white" stop-opacity="0"/>
</linearGradient>
<linearGradient id="paint1_linear_5371_15672" x1="0.699219" y1="20.7917" x2="17.9492" y2="20.7917" gradientUnits="userSpaceOnUse">
<stop stop-color="#5EA3ED"/>
<stop offset="1" stop-color="#D1E5FA" stop-opacity="0"/>
</linearGradient>
<linearGradient id="paint2_linear_5371_15672" x1="0.699219" y1="20.7917" x2="17.9492" y2="20.7917" gradientUnits="userSpaceOnUse">
<stop stop-color="#5EA3ED"/>
<stop offset="1" stop-color="#D1E5FA" stop-opacity="0"/>
</linearGradient>
<linearGradient id="paint3_linear_5371_15672" x1="0.699219" y1="20.7917" x2="17.9492" y2="20.7917" gradientUnits="userSpaceOnUse">
<stop stop-color="#5EA3ED"/>
<stop offset="1" stop-color="#D1E5FA" stop-opacity="0"/>
</linearGradient>
</defs>
</svg>
