<svg width="64" height="64" viewBox="0 0 64 64" fill="none" xmlns="http://www.w3.org/2000/svg">
<path d="M32 0C49.6731 0 64 14.3269 64 32C64 49.6731 49.6731 64 32 64C14.3269 64 0 49.6731 0 32C0 14.3269 14.3269 0 32 0Z" fill="#F7F8F9"/>
<path d="M47.4686 23.42L32.6225 30.758L17.7764 23.42C18.0291 23.0322 18.3765 22.7041 18.8188 22.4953L31.359 16.2908C32.1487 15.9031 33.0647 15.9031 33.8544 16.2908L46.3946 22.4953C46.8368 22.7041 47.2159 23.0322 47.4686 23.42Z" fill="#F1F2F5"/>
<path d="M32.5908 30.7584V47.9997C32.1169 47.9997 31.6431 47.8804 31.2325 47.6418L18.6923 40.7214C17.871 40.2739 17.334 39.4089 17.334 38.514V24.7627C17.334 24.2855 17.4919 23.8082 17.7446 23.4204L32.5908 30.7584Z" fill="#E2E4EA"/>
<path d="M47.8798 24.7627V38.514C47.8798 39.4387 47.3744 40.2739 46.5215 40.7214L33.9813 47.6418C33.5707 47.8804 33.0969 47.9997 32.623 47.9997V30.7584L47.4692 23.4204C47.7219 23.8082 47.8798 24.2855 47.8798 24.7627Z" fill="#D3D6E0"/>
</svg>
