<svg width="24" height="24" viewBox="0 0 24 24" fill="none" xmlns="http://www.w3.org/2000/svg">
<rect width="24" height="24" fill="white"/>
<path d="M11.47 2C14.3695 2 16.72 4.34882 16.72 7.24623C16.72 10.1437 14.3695 12.4925 11.47 12.4925C8.57053 12.4925 6.22002 10.1437 6.22002 7.24623C6.22002 4.34882 8.57053 2 11.47 2Z" fill="url(#paint0_linear_5371_15641)"/>
<path d="M11.6172 13.0065C13.7389 13.0065 15.774 13.859 17.2743 15.3769C18.7746 16.8949 19.6172 18.9539 19.6172 21.1006C19.6172 21.3392 19.5235 21.5679 19.3568 21.7365C19.1901 21.9052 18.964 22 18.7283 22H4.50608C4.27033 22 4.0443 21.9052 3.8776 21.7365C3.71091 21.5679 3.61719 21.3392 3.61719 21.1006C3.61719 18.9539 4.45978 16.8949 5.96007 15.3769C7.46036 13.859 9.49546 13.0065 11.6172 13.0065Z" fill="url(#paint1_linear_5371_15641)"/>
<defs>
<linearGradient id="paint0_linear_5371_15641" x1="11.6172" y1="2" x2="11.6172" y2="22" gradientUnits="userSpaceOnUse">
<stop stop-color="#5EA3ED"/>
<stop offset="0.600962" stop-color="#D1E5FA"/>
</linearGradient>
<linearGradient id="paint1_linear_5371_15641" x1="11.6172" y1="13.0058" x2="11.6172" y2="21.9993" gradientUnits="userSpaceOnUse">
<stop stop-color="#5EA3ED"/>
<stop offset="1" stop-color="#D1E5FA"/>
</linearGradient>
</defs>
</svg>
