<svg width="24" height="24" viewBox="0 0 24 24" fill="none" xmlns="http://www.w3.org/2000/svg">
<rect width="24" height="24" fill="white"/>
<path d="M7.58627 4.58594C8.05663 4.58594 8.51129 4.73761 8.88999 5.0166L10.4925 6.20898C10.8711 6.48797 11.3299 6.63858 11.8001 6.63867H18.0042C18.6658 6.63892 19.1995 7.17337 19.1996 7.83496V9.78906H6.28842C5.69361 9.79397 5.16179 10.1668 4.95346 10.7344L1.99741 18.791V5.78223C1.99741 5.12044 2.53191 4.58594 3.1937 4.58594H7.58627Z" fill="url(#paint0_linear_5371_15644)"/>
<path d="M20.7119 9.78897C21.7116 9.78897 22.3937 10.8007 22.0498 11.7392L19.3428 19.121C19.1348 19.6829 18.6025 20.0614 18.0049 20.0614H1.53125L1.65527 19.7255L4.95346 10.7344C5.16179 10.1668 5.69361 9.79397 6.28842 9.78906L20.7119 9.78897ZM6.15039 10.3007C5.82379 10.3541 5.5436 10.58 5.42383 10.9062L2.24707 19.5614H18.0049C18.3879 19.5614 18.7357 19.3186 18.873 18.9481L21.5801 11.5673C21.8088 10.9435 21.3519 10.289 20.7119 10.289H6.29297L6.15039 10.3007Z" fill="url(#paint1_linear_5371_15644)"/>
<path d="M20.7119 10.289C21.3519 10.289 21.8088 10.9435 21.5801 11.5673L18.873 18.9481C18.7357 19.3186 18.3879 19.5614 18.0049 19.5614H2.24707L5.42383 10.9062C5.5436 10.58 5.82379 10.3541 6.15039 10.3007L6.29297 10.289H20.7119Z" fill="white"/>
<path d="M16.8294 7.9707C17.3817 7.9707 17.8294 8.41842 17.8294 8.9707V9.78906H6.28842C5.69361 9.79397 5.16179 10.1668 4.95346 10.7344L3.56772 14.5107V8.9707C3.56772 8.41842 4.01543 7.9707 4.56772 7.9707H16.8294Z" fill="white"/>
<defs>
<linearGradient id="paint0_linear_5371_15644" x1="11.8357" y1="4.58594" x2="11.8357" y2="21.0683" gradientUnits="userSpaceOnUse">
<stop stop-color="#5EA3ED"/>
<stop offset="1" stop-color="#D1E5FA"/>
</linearGradient>
<linearGradient id="paint1_linear_5371_15644" x1="23.6225" y1="-5.26319" x2="9.58465" y2="32.4399" gradientUnits="userSpaceOnUse">
<stop stop-color="#4896EA"/>
<stop offset="1" stop-color="white" stop-opacity="0"/>
</linearGradient>
</defs>
</svg>
