<svg width="24" height="24" viewBox="0 0 24 24" fill="none" xmlns="http://www.w3.org/2000/svg">
<path d="M14.9319 3.62053C16.7993 2.59347 18.8984 2.06124 21.0296 2.07446C21.5244 2.07753 21.924 2.47956 21.924 2.97444C21.924 5.50372 21.2144 9.91138 16.6568 13.2494C16.7335 13.5712 16.8208 13.9948 16.8811 14.4629C16.9469 14.9735 16.9839 15.5613 16.9302 16.1397C16.8771 16.7104 16.7298 17.3384 16.3728 17.8739L16.372 17.8751C15.761 18.7885 14.6085 19.3181 13.8035 19.6101C13.3709 19.767 12.9712 19.8783 12.6804 19.9505C12.4612 20.0048 12.3003 20.0378 12.2274 20.0521C11.95 20.1048 11.6674 20.0494 11.4472 19.8656C11.2424 19.6946 11.124 19.4415 11.124 19.1747V15.0472L8.95141 12.8747H4.82397C4.55715 12.8747 4.30408 12.7563 4.13308 12.5514C3.96208 12.3466 3.89079 12.0765 3.93844 11.8139C3.9688 11.6475 4.00747 11.4824 4.04818 11.3183C4.12032 11.0274 4.23162 10.6278 4.38854 10.1952C4.68055 9.39012 5.21013 8.23767 6.12355 7.62663L6.12474 7.62583C6.66024 7.26884 7.28825 7.12151 7.8589 7.06848C8.43732 7.01472 9.02513 7.05175 9.53576 7.11756C10.0087 7.17851 10.4363 7.26695 10.7593 7.34423C11.8491 5.80615 13.2748 4.53195 14.9319 3.62053Z" fill="currentColor"/>
<path fill-rule="evenodd" clip-rule="evenodd" d="M6.62701 14.6642C5.92216 14.6424 5.23409 14.8815 4.69476 15.3358C4.22066 15.7343 3.87255 16.2832 3.61472 16.811C3.35175 17.3494 3.15191 17.9304 3.00264 18.4522C2.85254 18.977 2.74823 19.4609 2.68139 19.813C2.64785 19.9896 2.62345 20.1346 2.60726 20.2367C2.59846 20.2922 2.59022 20.3478 2.58237 20.4034L2.58217 20.4049C2.54501 20.6829 2.63949 20.9626 2.83779 21.1609C3.03608 21.3592 3.31625 21.4536 3.59421 21.4165C3.65019 21.4086 3.7061 21.4003 3.76194 21.3914C3.86412 21.3752 4.00909 21.3508 4.18573 21.3173C4.53775 21.2505 5.02171 21.1461 5.54644 20.996C6.0683 20.8468 6.64929 20.6469 7.18766 20.384C7.71533 20.1262 8.26403 19.7783 8.66244 19.3044C9.58137 18.2161 9.59509 16.5211 8.52551 15.4651L8.51458 15.4544C8.00429 14.9674 7.33209 14.686 6.62701 14.6642Z" fill="currentColor"/>
</svg>
