<svg width="24" height="24" viewBox="0 0 24 24" fill="none" xmlns="http://www.w3.org/2000/svg">
<rect width="24" height="24" fill="white"/>
<path d="M21 20.0292C21 21.1177 20.1044 22 18.9998 22H6.00023C4.89553 22 4 21.1177 4 20.0292V10.9318H21V20.0292Z" fill="url(#paint0_linear_5371_15657)"/>
<path d="M8.57759 13.8385C8.99185 13.8385 9.32768 14.1693 9.32768 14.5775C9.32768 14.9857 8.99185 15.3165 8.57759 15.3165H8.5688C8.15454 15.3165 7.81872 14.9857 7.81872 14.5775C7.81872 14.1693 8.15454 13.8385 8.5688 13.8385H8.57759Z" fill="#52C396"/>
<path d="M12.3951 13.8385C12.8094 13.8385 13.1452 14.1693 13.1452 14.5775C13.1452 14.9857 12.8094 15.3165 12.3951 15.3165H12.3863C11.9721 15.3165 11.6362 14.9857 11.6362 14.5775C11.6362 14.1693 11.9721 13.8385 12.3863 13.8385H12.3951Z" fill="#52C396"/>
<path d="M16.2107 13.8385C16.6249 13.8385 16.9608 14.1693 16.9608 14.5775C16.9608 14.9857 16.6249 15.3165 16.2107 15.3165H16.2019C15.7876 15.3165 15.4518 14.9857 15.4518 14.5775C15.4518 14.1693 15.7876 13.8385 16.2019 13.8385H16.2107Z" fill="#52C396"/>
<path d="M8.57759 17.5968C8.99185 17.5968 9.32768 17.9277 9.32768 18.3359C9.32768 18.744 8.99185 19.0749 8.57759 19.0749H8.5688C8.15454 19.0749 7.81872 18.744 7.81872 18.3359C7.81872 17.9277 8.15454 17.5968 8.5688 17.5968H8.57759Z" fill="#52C396"/>
<path d="M12.3951 17.5968C12.8094 17.5968 13.1452 17.9277 13.1452 18.3359C13.1452 18.744 12.8094 19.0749 12.3951 19.0749H12.3863C11.9721 19.0749 11.6362 18.744 11.6362 18.3359C11.6362 17.9277 11.9721 17.5968 12.3863 17.5968H12.3951Z" fill="#52C396"/>
<path d="M16.2107 17.5968C16.6249 17.5968 16.9608 17.9277 16.9608 18.3359C16.9608 18.744 16.6249 19.0749 16.2107 19.0749H16.2019C15.7876 19.0749 15.4518 18.744 15.4518 18.3359C15.4518 17.9277 15.7876 17.5968 16.2019 17.5968H16.2107Z" fill="#52C396"/>
<path d="M9.43032 3C9.6424 3 9.81513 3.16922 9.81513 3.37818V5.20267H15.1849V3.37818C15.1849 3.16922 15.3566 3 15.5687 3H17.0376C17.2495 3.0002 17.4215 3.16934 17.4215 3.37818V5.20267H18.9998C20.1045 5.20267 21 6.08501 21 7.17342L21 10.9318H4L4.00002 7.17342C4.00002 6.085 4.89555 5.20267 6.00025 5.20267H7.57757V3.37818C7.57757 3.16922 7.7503 3 7.96238 3H9.43032Z" fill="url(#paint1_linear_5371_15657)"/>
<defs>
<linearGradient id="paint0_linear_5371_15657" x1="12.5" y1="0.547206" x2="12.5" y2="22" gradientUnits="userSpaceOnUse">
<stop stop-color="white"/>
<stop offset="1" stop-color="#E8F2FD"/>
</linearGradient>
<linearGradient id="paint1_linear_5371_15657" x1="12.5" y1="3" x2="12.5" y2="10.9321" gradientUnits="userSpaceOnUse">
<stop stop-color="#5EA3ED"/>
<stop offset="1" stop-color="#D1E5FA"/>
</linearGradient>
</defs>
</svg>
