<svg width="24" height="24" viewBox="0 0 24 24" fill="none" xmlns="http://www.w3.org/2000/svg">
<rect width="24" height="24" fill="white"/>
<path fill-rule="evenodd" clip-rule="evenodd" d="M10.0282 2C12.9843 2 15.3806 4.3489 15.3806 7.24641C15.3806 10.1439 12.9843 12.4928 10.0282 12.4928C7.0721 12.4928 4.67573 10.1439 4.67573 7.24641C4.67573 4.3489 7.0721 2 10.0282 2ZM10.0282 2.50063C7.35441 2.50063 5.18648 4.62561 5.18648 7.24641C5.18648 9.86722 7.35441 11.9922 10.0282 11.9922C12.702 11.9922 14.8699 9.86722 14.8699 7.24641C14.8699 4.62561 12.702 2.50063 10.0282 2.50063Z" fill="url(#paint0_linear_5371_15636)"/>
<path d="M10.0282 2.50063C12.702 2.50063 14.8699 4.62561 14.8699 7.24641C14.8699 9.86722 12.702 11.9922 10.0282 11.9922C7.35441 11.9922 5.18648 9.86722 5.18648 7.24641C5.18648 4.62561 7.35441 2.50063 10.0282 2.50063Z" fill="white"/>
<path fill-rule="evenodd" clip-rule="evenodd" d="M9.7733 13.0061C11.9364 13.0061 14.0114 13.8586 15.5409 15.3766C17.0704 16.8945 17.9293 18.9536 17.9294 21.1002C17.9294 21.3388 17.8335 21.5678 17.6636 21.7365L17.5979 21.796C17.4597 21.9086 17.2909 21.9775 17.113 21.9951L17.0234 22H2.5232L2.4336 21.9951C2.25574 21.9775 2.08693 21.9086 1.94873 21.796L1.88302 21.7365C1.71307 21.5678 1.61719 21.3388 1.61719 21.1002C1.61729 18.9536 2.47621 16.8945 4.00568 15.3766C5.53525 13.8586 7.61016 13.0061 9.7733 13.0061ZM9.7733 13.5058C7.74736 13.5058 5.80251 14.3043 4.36808 15.7279C2.93369 17.1516 2.12705 19.0842 2.12694 21.1002C2.12694 21.2081 2.17031 21.3106 2.24542 21.3852C2.32032 21.4595 2.42032 21.5003 2.5232 21.5003H17.0234C17.1263 21.5003 17.2263 21.4595 17.3012 21.3852C17.3763 21.3106 17.4197 21.2081 17.4197 21.1002C17.4196 19.0842 16.6129 17.1516 15.1785 15.7279C13.7441 14.3043 11.7992 13.5058 9.7733 13.5058Z" fill="url(#paint1_linear_5371_15636)"/>
<path d="M17.0234 21.5003H2.5232C2.42032 21.5003 2.32032 21.4595 2.24542 21.3852C2.17031 21.3106 2.12694 21.2081 2.12694 21.1002C2.12705 19.0842 2.93369 17.1516 4.36808 15.7279C5.80251 14.3043 7.74736 13.5058 9.7733 13.5058C11.7992 13.5058 13.7441 14.3043 15.1785 15.7279C16.6129 17.1516 17.4196 19.0842 17.4197 21.1002C17.4197 21.2081 17.3763 21.3106 17.3012 21.3852C17.2263 21.4595 17.1263 21.5003 17.0234 21.5003Z" fill="white"/>
<path d="M13.4611 13.0061C15.6242 13.0061 17.6991 13.8586 19.2287 15.3766C20.7582 16.8945 21.6171 18.9536 21.6172 21.1002C21.6172 21.3388 21.5213 21.5678 21.3514 21.7365C21.1815 21.905 20.9514 21.9999 20.7112 22H17.0234L17.113 21.9951C17.2909 21.9775 17.4597 21.9086 17.5979 21.796L17.6636 21.7365C17.8335 21.5678 17.9294 21.3388 17.9294 21.1002C17.9293 18.9536 17.0704 16.8945 15.5409 15.3766C14.4539 14.2978 13.0911 13.5564 11.6172 13.2169C12.2171 13.0788 12.8353 13.0061 13.4611 13.0061Z" fill="url(#paint2_linear_5371_15636)"/>
<path d="M13.716 2.01366C16.672 2.01366 19.0684 4.36256 19.0684 7.26008C19.0684 10.1576 16.672 12.5065 13.716 12.5065C13.0608 12.5065 12.4333 12.3907 11.8531 12.1796C13.9106 11.4481 15.3806 9.51571 15.3806 7.24641C15.3806 4.99062 13.9282 3.06721 11.89 2.32595C12.4597 2.12334 13.0748 2.01366 13.716 2.01366Z" fill="url(#paint3_linear_5371_15636)"/>
<defs>
<linearGradient id="paint0_linear_5371_15636" x1="23.35" y1="-11.8912" x2="0.998283" y2="21.4922" gradientUnits="userSpaceOnUse">
<stop stop-color="#4896EA"/>
<stop offset="1" stop-color="white"/>
</linearGradient>
<linearGradient id="paint1_linear_5371_15636" x1="23.35" y1="-11.8912" x2="-2.91278" y2="21.5903" gradientUnits="userSpaceOnUse">
<stop stop-color="#4896EA"/>
<stop offset="1" stop-color="white"/>
</linearGradient>
<linearGradient id="paint2_linear_5371_15636" x1="5.30496" y1="2" x2="5.30496" y2="22" gradientUnits="userSpaceOnUse">
<stop offset="0.206731" stop-color="#5EA3ED"/>
<stop offset="1" stop-color="#D1E5FA"/>
</linearGradient>
<linearGradient id="paint3_linear_5371_15636" x1="13.716" y1="2.01366" x2="13.716" y2="12.5065" gradientUnits="userSpaceOnUse">
<stop stop-color="#5EA3ED"/>
<stop offset="1" stop-color="#D1E5FA"/>
</linearGradient>
</defs>
</svg>
