<svg width="64" height="64" viewBox="0 0 64 64" fill="none" xmlns="http://www.w3.org/2000/svg">
<path d="M32 0C49.6731 0 64 14.3269 64 32C64 49.6731 49.6731 64 32 64C14.3269 64 0 49.6731 0 32C0 14.3269 14.3269 0 32 0Z" fill="#78B1EF"/>
<path d="M32.1983 38.7309C25.9279 38.7309 20.8359 36.8586 20.8359 34.551V40.6902H20.878C21.2147 42.8672 26.1804 44.6088 32.2403 44.6088C38.3003 44.6088 43.2239 42.8672 43.6027 40.6902H43.6448V34.551C43.5606 36.9022 38.4686 38.7309 32.1983 38.7309Z" fill="#A5CBF5"/>
<path fill-rule="evenodd" clip-rule="evenodd" d="M20.8359 40.6902H20.878C21.2147 42.8672 26.1804 44.6088 32.2403 44.6088C38.3003 44.6088 43.2239 42.8672 43.6027 40.6902H43.6448V34.551C43.63 34.9631 43.4614 35.3592 43.1595 35.7322C41.7391 37.4871 37.3694 38.7309 32.1983 38.7309C27.0726 38.7309 22.7344 37.4798 21.3212 35.7625C21.0056 35.379 20.8359 34.9722 20.8359 34.551V40.6902ZM21.3212 36.4855V40.3761L21.3569 40.6069C21.4115 40.9599 21.6692 41.3723 22.229 41.8049C22.7812 42.2316 23.5714 42.6326 24.5637 42.9766C26.5454 43.6636 29.249 44.0941 32.2403 44.0941C35.2316 44.0941 37.9246 43.6636 39.9008 42.9768C40.8903 42.6329 41.6797 42.2317 42.2346 41.8044C42.7966 41.3716 43.063 40.9558 43.1254 40.5968L43.1595 40.4012V36.4605C43.11 36.5067 43.0592 36.5521 43.0071 36.5967C42.3598 37.1501 41.4618 37.6232 40.3986 38.0095C38.268 38.7836 35.3718 39.2456 32.1983 39.2456C29.0237 39.2456 26.127 38.7724 24.0067 37.9926C22.9489 37.6035 22.058 37.1285 21.4219 36.5757C21.3878 36.546 21.3542 36.516 21.3212 36.4855Z" fill="#78B1EF"/>
<path d="M32.1983 32.7552C25.9279 32.7552 20.8359 30.891 20.8359 28.5934V34.706H20.878C21.2147 36.8736 26.1804 38.6077 32.2403 38.6077C38.3003 38.6077 43.2239 36.8736 43.6027 34.706H43.6448V28.5934C43.5606 30.891 38.4686 32.7552 32.1983 32.7552Z" fill="#D3E6FA"/>
<path fill-rule="evenodd" clip-rule="evenodd" d="M20.8359 34.706H20.878C21.2147 36.8736 26.1804 38.6077 32.2403 38.6077C38.3003 38.6077 43.2239 36.8736 43.6027 34.706H43.6448V28.5934C43.63 28.9962 43.4614 29.3856 43.1595 29.754C41.7391 31.4873 37.3694 32.7552 32.1983 32.7552C27.0726 32.7552 22.7344 31.5095 21.3212 29.7997C21.0056 29.4178 20.8359 29.0128 20.8359 28.5934V34.706ZM21.3212 30.5213V34.3929L21.3569 34.6224C21.4112 34.9724 21.6681 35.3826 22.2282 35.8135C22.7805 36.2383 23.5707 36.6377 24.5631 36.9803C26.545 37.6643 29.2488 38.093 32.2403 38.093C35.2318 38.093 37.925 37.6643 39.9014 36.9804C40.8911 36.6379 41.6805 36.2384 42.2354 35.813C42.7976 35.3819 43.0633 34.9683 43.1255 34.6122L43.1595 34.4179V30.4786C43.1095 30.5249 43.0582 30.5704 43.0055 30.615C42.359 31.1632 41.4619 31.6354 40.399 32.0227C38.269 32.7988 35.3728 33.2699 32.1983 33.2699C29.0239 33.2699 26.1274 32.7988 24.0073 32.0224C22.9497 31.6351 22.0588 31.1622 21.4227 30.6118C21.3883 30.582 21.3545 30.5518 21.3212 30.5213Z" fill="#78B1EF"/>
<path d="M32.2403 26.803C38.5388 26.803 43.6448 25.0859 43.6448 22.9678C43.6448 20.8497 38.5388 19.1326 32.2403 19.1326C25.9419 19.1326 20.8359 20.8497 20.8359 22.9678C20.8359 25.0859 25.9419 26.803 32.2403 26.803Z" fill="#EAF3FD"/>
<path fill-rule="evenodd" clip-rule="evenodd" d="M42.4575 24.0488C42.9824 23.6314 43.1595 23.2607 43.1595 22.9678C43.1595 22.6749 42.9824 22.3042 42.4575 21.8868C41.941 21.4762 41.1629 21.0846 40.1578 20.7466C38.1532 20.0724 35.3539 19.6473 32.2403 19.6473C29.1268 19.6473 26.3275 20.0724 24.3229 20.7466C23.3178 21.0846 22.5397 21.4762 22.0232 21.8868C21.4983 22.3042 21.3212 22.6749 21.3212 22.9678C21.3212 23.2607 21.4983 23.6314 22.0232 24.0488C22.5397 24.4594 23.3178 24.8511 24.3229 25.1891C26.3275 25.8632 29.1268 26.2883 32.2403 26.2883C35.3539 26.2883 38.1532 25.8632 40.1578 25.1891C41.1629 24.8511 41.941 24.4594 42.4575 24.0488ZM43.6448 22.9678C43.6448 25.0859 38.5388 26.803 32.2403 26.803C25.9419 26.803 20.8359 25.0859 20.8359 22.9678C20.8359 20.8497 25.9419 19.1326 32.2403 19.1326C38.5388 19.1326 43.6448 20.8497 43.6448 22.9678Z" fill="#78B1EF"/>
<path d="M32.1983 26.9032C25.9279 26.9032 20.8359 25.0391 20.8359 22.7415V28.8541H20.878C21.2147 31.0217 26.1804 32.7558 32.2403 32.7558C38.3003 32.7558 43.2239 31.0217 43.6027 28.8541H43.6448V22.7415C43.5606 25.0391 38.4686 26.9032 32.1983 26.9032Z" fill="#EAF3FD"/>
<path fill-rule="evenodd" clip-rule="evenodd" d="M20.8359 28.8541H20.878C21.2147 31.0217 26.1804 32.7558 32.2403 32.7558C38.3003 32.7558 43.2239 31.0217 43.6027 28.8541H43.6448V22.7415C43.63 23.1442 43.4614 23.5337 43.1595 23.9021C41.7391 25.6354 37.3694 26.9032 32.1983 26.9032C27.0726 26.9032 22.7344 25.6576 21.3212 23.9478C21.0056 23.5659 20.8359 23.1609 20.8359 22.7415V28.8541ZM21.3212 24.6693V28.541L21.3569 28.7704C21.4112 29.1204 21.6681 29.5307 22.2282 29.9615C22.7805 30.3864 23.5707 30.7858 24.5631 31.1283C26.545 31.8124 29.2488 32.2411 32.2403 32.2411C35.2318 32.2411 37.925 31.8124 39.9014 31.1285C40.8911 30.786 41.6805 30.3865 42.2354 29.9611C42.7976 29.5299 43.0633 29.1164 43.1255 28.7603L43.1595 28.5659V24.6267C43.1095 24.673 43.0582 24.7185 43.0055 24.7631C42.359 25.3113 41.4619 25.7835 40.399 26.1708C38.269 26.9468 35.3728 27.418 32.1983 27.418C29.0239 27.418 26.1274 26.9469 24.0073 26.1705C22.9497 25.7831 22.0588 25.3103 21.4227 24.7599C21.3883 24.7301 21.3545 24.6999 21.3212 24.6693Z" fill="#78B1EF"/>
</svg>
