<svg width="64" height="64" viewBox="0 0 64 64" fill="none" xmlns="http://www.w3.org/2000/svg">
<path d="M32 0C49.6731 0 64 14.3269 64 32C64 49.6731 49.6731 64 32 64C14.3269 64 0 49.6731 0 32C0 14.3269 14.3269 0 32 0Z" fill="#78B1EF"/>
<path d="M47.7732 33.0452L39.5482 37.4353L31.3232 33.0452C31.4632 32.8132 31.6557 32.6169 31.9007 32.492L38.8482 28.78C39.2857 28.548 39.7932 28.548 40.2307 28.78L47.1782 32.492C47.4407 32.6347 47.6332 32.8132 47.7732 33.0452Z" fill="#D3E6FA"/>
<path d="M39.5482 37.4356V47.7505C39.2857 47.7505 39.0232 47.6791 38.7957 47.5363L31.8482 43.3961C31.3932 43.1284 31.0957 42.6109 31.0957 42.0755V33.8485C31.0957 33.563 31.1832 33.2775 31.3232 33.0455L39.5482 37.4356Z" fill="#78B1EF"/>
<path d="M48.0004 33.8661V42.0931C48.0004 42.6463 47.7204 43.146 47.2479 43.4137L40.3004 47.5539C40.0729 47.6967 39.8104 47.7681 39.5479 47.7681V37.4531L47.7729 33.063C47.9304 33.295 48.0004 33.5627 48.0004 33.8661Z" fill="#A5CBF5"/>
<path d="M39.3201 18.8392L31.0951 23.2293L22.8701 18.8392C23.0101 18.6072 23.2026 18.4109 23.4476 18.286L30.3951 14.574C30.8326 14.342 31.3401 14.342 31.7776 14.574L38.7251 18.286C38.9876 18.4109 39.1801 18.6072 39.3201 18.8392Z" fill="#D3E6FA"/>
<path d="M31.0951 23.2295V33.5444C30.8326 33.5444 30.5701 33.4731 30.3426 33.3303L23.3951 29.19C22.9401 28.9224 22.6426 28.4048 22.6426 27.8694V19.6425C22.6426 19.3569 22.7301 19.0714 22.8701 18.8394L31.0951 23.2295Z" fill="#78B1EF"/>
<path d="M39.5472 19.6425V27.8694C39.5472 28.4227 39.2672 28.9224 38.7947 29.19L31.8472 33.3303C31.6197 33.4731 31.3572 33.5444 31.0947 33.5444V23.2295L39.3197 18.8394C39.4597 19.0714 39.5472 19.3569 39.5472 19.6425Z" fill="#A5CBF5"/>
<path d="M31.0955 33.2944L22.8705 37.6845L14.6455 33.2944C14.7855 33.0624 14.978 32.8661 15.223 32.7412L22.1705 29.0292C22.608 28.7972 23.1155 28.7972 23.553 29.0292L30.5005 32.7412C30.7455 32.8661 30.9555 33.0624 31.0955 33.2944Z" fill="#D3E6FA"/>
<path d="M22.8529 37.6849V47.9998C22.5904 47.9998 22.3279 47.9285 22.1004 47.7857L15.1529 43.6454C14.6979 43.3777 14.4004 42.8602 14.4004 42.3248V34.0979C14.4004 33.8123 14.4879 33.5268 14.6279 33.2948L22.8529 37.6849Z" fill="#78B1EF"/>
<path d="M31.3226 34.0979V42.3248C31.3226 42.8781 31.0426 43.3777 30.5701 43.6454L23.6226 47.7857C23.3951 47.9285 23.1326 47.9998 22.8701 47.9998V37.6849L31.0951 33.2948C31.2351 33.5268 31.3226 33.8123 31.3226 34.0979Z" fill="#A5CBF5"/>
</svg>
