<svg width="64" height="64" viewBox="0 0 64 64" fill="none" xmlns="http://www.w3.org/2000/svg">
<path d="M32 0C49.6731 0 64 14.3269 64 32C64 49.6731 49.6731 64 32 64C14.3269 64 0 49.6731 0 32C0 14.3269 14.3269 0 32 0Z" fill="#78B1EF"/>
<path d="M47.4686 23.42L32.6225 30.758L17.7764 23.42C18.0291 23.0322 18.3765 22.7041 18.8188 22.4953L31.359 16.2908C32.1487 15.9031 33.0647 15.9031 33.8544 16.2908L46.3946 22.4953C46.8369 22.7041 47.2159 23.0322 47.4686 23.42Z" fill="#D3E6FA"/>
<path d="M32.5898 30.7586V47.9999C32.116 47.9999 31.6421 47.8806 31.2315 47.642L18.6913 40.7216C17.87 40.2741 17.333 39.4091 17.333 38.5142V24.7629C17.333 24.2856 17.491 23.8084 17.7437 23.4206L32.5898 30.7586Z" fill="#78B1EF"/>
<path d="M47.8788 24.7626V38.5139C47.8788 39.4386 47.3734 40.2738 46.5206 40.7213L33.9803 47.6417C33.5697 47.8803 33.0959 47.9996 32.6221 47.9996V30.7583L47.4682 23.4203C47.7209 23.8081 47.8788 24.2853 47.8788 24.7626Z" fill="#A5CBF5"/>
</svg>
