<svg width="64" height="64" viewBox="0 0 64 64" fill="none" xmlns="http://www.w3.org/2000/svg">
<path d="M32 0C49.6731 0 64 14.3269 64 32C64 49.6731 49.6731 64 32 64C14.3269 64 0 49.6731 0 32C0 14.3269 14.3269 0 32 0Z" fill="#78B1EF"/>
<path d="M48.6368 45.76H25.2368C24.9025 45.76 24.6797 45.5371 24.6797 45.2029V15.1171C24.6797 14.7829 24.9025 14.56 25.2368 14.56H44.1797C44.3468 14.56 44.4583 14.6157 44.5697 14.7271L49.0268 19.1843C49.1383 19.2957 49.194 19.4071 49.194 19.5743V45.2029C49.194 45.5371 48.9711 45.76 48.6368 45.76Z" fill="#D3E6FA"/>
<g clip-path="url(#clip0)">
<path d="M17.9779 31.1965L21.6457 33.58L21.2129 34.2463L17.5449 31.8625L17.9779 31.1965Z" fill="#A5CBF5"/>
<path d="M29.3928 28.4038L32.7886 29.5068L32.5431 30.2623L29.1475 29.1595L29.3928 28.4038Z" fill="#A5CBF5"/>
<path d="M38.3571 25.2686L38.9119 25.8372L34.9501 29.701L34.3955 29.1324L38.3571 25.2686Z" fill="#A5CBF5"/>
<path d="M27.0154 29.025L27.5992 29.5637L23.5465 33.954L22.9629 33.4151L27.0154 29.025Z" fill="#A5CBF5"/>
<path d="M15.1494 36.7947H18.3526V49.7765H15.1494V36.7947Z" fill="#A5CBF5"/>
<path d="M20.8359 40.9661H24.0393V49.7763H20.8359V40.9661Z" fill="#A5CBF5"/>
<path d="M26.5234 34.0135H29.7268V49.7765H26.5234V34.0135Z" fill="#A5CBF5"/>
<path d="M32.209 36.0992H35.4123V49.7764H32.209V36.0992Z" fill="#A5CBF5"/>
<path d="M37.8955 29.8421H41.0987V49.7764H37.8955V29.8421Z" fill="#A5CBF5"/>
<path d="M18.3528 30.8731C18.3528 31.7577 17.6357 32.4748 16.7511 32.4748C15.8665 32.4748 15.1494 31.7577 15.1494 30.8731C15.1494 29.9885 15.8665 29.2714 16.7511 29.2714C17.6357 29.2714 18.3528 29.9885 18.3528 30.8731Z" fill="#A5CBF5"/>
<path d="M41.0998 24.7126C41.0998 25.5972 40.3827 26.3143 39.4982 26.3143C38.6136 26.3143 37.8965 25.5972 37.8965 24.7126C37.8965 23.828 38.6136 23.1109 39.4982 23.1109C40.3827 23.1109 41.0998 23.828 41.0998 24.7126Z" fill="#A5CBF5"/>
<path d="M35.4133 30.2571C35.4133 31.1415 34.6962 31.8586 33.8116 31.8586C32.9271 31.8586 32.21 31.1415 32.21 30.2571C32.21 29.3725 32.9271 28.6554 33.8116 28.6554C34.6962 28.6554 35.4133 29.3725 35.4133 30.2571Z" fill="#A5CBF5"/>
<path d="M29.7258 28.4089C29.7258 29.2933 29.0087 30.0104 28.1241 30.0104C27.2396 30.0104 26.5225 29.2933 26.5225 28.4089C26.5225 27.5243 27.2396 26.8073 28.1241 26.8073C29.0087 26.8073 29.7258 27.5243 29.7258 28.4089Z" fill="#A5CBF5"/>
<path d="M24.0403 34.5694C24.0403 35.454 23.3232 36.1711 22.4386 36.1711C21.554 36.1711 20.8369 35.454 20.8369 34.5694C20.8369 33.6848 21.554 32.9677 22.4386 32.9677C23.3232 32.9677 24.0403 33.6848 24.0403 34.5694Z" fill="#A5CBF5"/>
</g>
<defs>
<clipPath id="clip0">
<rect width="25.95" height="25.95" fill="white" transform="translate(15.2002 22.3)"/>
</clipPath>
</defs>
</svg>
