<svg preserveAspectRatio="none" width="100%" height="100%" overflow="visible" style="display: block;" viewBox="0 0 502.098 326.086" fill="none" xmlns="http://www.w3.org/2000/svg">
<g id="columns" opacity="0.9">
<path id="Rectangle" d="M496.035 0C499.384 0 502.098 2.71445 502.098 6.06288V34.3771C502.098 37.7255 499.384 40.44 496.035 40.44L0.0508423 40.44V0L496.035 0Z" fill="var(--fill-0, #325072)"/>
<path id="Rectangle_2" d="M424.996 56.6816C428.345 56.6816 431.059 59.3961 431.059 62.7445V91.4379C431.059 94.7863 428.345 97.5007 424.996 97.5007L0.009552 97.5007V56.6816L424.996 56.6816Z" fill="var(--fill-0, #2E5B8B)"/>
<path id="Rectangle_3" d="M351.528 113.829C354.876 113.829 357.591 116.544 357.591 119.892V148.585C357.591 151.934 354.876 154.648 351.528 154.648H0.0151901V113.829L351.528 113.829Z" fill="var(--fill-0, #4478AF)"/>
<path id="Rectangle_4" d="M235.586 170.975C238.935 170.975 241.649 173.689 241.649 177.037V205.731C241.649 209.079 238.935 211.794 235.586 211.794H0V170.975H235.586Z" fill="var(--fill-0, #5D94CE)"/>
<path id="Rectangle_5" d="M186.61 228.121C189.958 228.121 192.673 230.836 192.673 234.184V262.877C192.673 266.226 189.958 268.94 186.61 268.94H0.00640106V228.121H186.61Z" fill="var(--fill-0, #8BB3E1)"/>
<path id="Rectangle_6" d="M118.032 285.267C121.38 285.267 124.094 287.981 124.094 291.329V320.023C124.094 323.371 121.38 326.086 118.032 326.086H0.00435448V285.267H118.032Z" fill="var(--fill-0, #B0C7E0)"/>
</g>
</svg>
