<svg preserveAspectRatio="none" width="100%" height="100%" overflow="visible" style="display: block;" viewBox="0 0 1323.96 778.637" fill="none" xmlns="http://www.w3.org/2000/svg">
<g id="Container">
<g id="Progress bar">
<mask id="path-1-inside-1_10_5426" fill="white">
<path d="M0 8.14716C0 3.6476 3.64761 0 8.14717 0H425.981C430.48 0 434.128 3.64761 434.128 8.14717V778.637H0V8.14716Z"/>
</mask>
<path d="M0 8.14716C0 3.6476 3.64761 0 8.14717 0H425.981C430.48 0 434.128 3.64761 434.128 8.14717V778.637H0V8.14716Z" fill="var(--fill-0, #7AD1AE)"/>
<path d="M6.38379 777.473C7.0265 777.473 7.54772 777.994 7.54785 778.637C7.54785 779.28 7.02658 779.801 6.38379 779.801H0V777.473H6.38379ZM31.9209 777.473C32.5636 777.473 33.0848 777.994 33.085 778.637C33.085 779.28 32.5637 779.801 31.9209 779.801H19.1523C18.5097 779.801 17.9893 779.279 17.9893 778.637C17.9894 777.994 18.5098 777.473 19.1523 777.473H31.9209ZM57.458 777.473C58.1007 777.473 58.6219 777.994 58.6221 778.637C58.6221 779.28 58.1008 779.801 57.458 779.801H44.6895C44.0467 779.801 43.5254 779.279 43.5254 778.637C43.5255 777.994 44.0468 777.473 44.6895 777.473H57.458ZM82.9951 777.473C83.6378 777.473 84.159 777.994 84.1592 778.637C84.1592 779.28 83.6379 779.801 82.9951 779.801H70.2266C69.5838 779.801 69.0625 779.28 69.0625 778.637C69.0626 777.994 69.5839 777.473 70.2266 777.473H82.9951ZM108.532 777.473C109.175 777.473 109.696 777.994 109.696 778.637C109.696 779.279 109.175 779.801 108.532 779.801H95.7637C95.1209 779.801 94.5996 779.28 94.5996 778.637C94.5997 777.994 95.121 777.473 95.7637 777.473H108.532ZM134.069 777.473C134.712 777.473 135.232 777.994 135.232 778.637C135.232 779.279 134.712 779.801 134.069 779.801H121.301C120.658 779.801 120.137 779.28 120.137 778.637C120.137 777.994 120.658 777.473 121.301 777.473H134.069ZM159.605 777.473C160.248 777.473 160.769 777.994 160.77 778.637C160.77 779.28 160.248 779.801 159.605 779.801H146.838C146.195 779.801 145.674 779.28 145.674 778.637C145.674 777.994 146.195 777.473 146.838 777.473H159.605ZM185.143 777.473C185.785 777.473 186.307 777.994 186.307 778.637C186.307 779.28 185.785 779.801 185.143 779.801H172.374C171.731 779.801 171.211 779.279 171.211 778.637C171.211 777.994 171.731 777.473 172.374 777.473H185.143ZM210.68 777.473C211.322 777.473 211.844 777.994 211.844 778.637C211.844 779.28 211.322 779.801 210.68 779.801H197.911C197.268 779.801 196.747 779.279 196.747 778.637C196.747 777.994 197.268 777.473 197.911 777.473H210.68ZM236.217 777.473C236.859 777.473 237.381 777.994 237.381 778.637C237.381 779.279 236.86 779.801 236.217 779.801H223.448C222.805 779.801 222.284 779.28 222.284 778.637C222.284 777.994 222.806 777.473 223.448 777.473H236.217ZM261.754 777.473C262.396 777.473 262.917 777.994 262.917 778.637C262.917 779.279 262.397 779.801 261.754 779.801H248.985C248.343 779.801 247.821 779.28 247.821 778.637C247.821 777.994 248.343 777.473 248.985 777.473H261.754ZM287.29 777.473C287.933 777.473 288.454 777.994 288.454 778.637C288.454 779.28 287.933 779.801 287.29 779.801H274.522C273.88 779.801 273.358 779.28 273.358 778.637C273.359 777.994 273.88 777.473 274.522 777.473H287.29ZM312.827 777.473C313.47 777.473 313.991 777.994 313.991 778.637C313.991 779.28 313.47 779.801 312.827 779.801H300.059C299.416 779.801 298.896 779.279 298.896 778.637C298.896 777.994 299.416 777.473 300.059 777.473H312.827ZM338.364 777.473C339.007 777.473 339.528 777.994 339.528 778.637C339.528 779.28 339.007 779.801 338.364 779.801H325.596C324.953 779.801 324.432 779.279 324.432 778.637C324.432 777.994 324.953 777.473 325.596 777.473H338.364ZM363.901 777.473C364.544 777.473 365.065 777.994 365.065 778.637C365.065 779.279 364.544 779.801 363.901 779.801H351.133C350.49 779.801 349.969 779.28 349.969 778.637C349.969 777.994 350.49 777.473 351.133 777.473H363.901ZM389.438 777.473C390.081 777.473 390.602 777.994 390.603 778.637C390.603 779.279 390.081 779.801 389.438 779.801H376.67C376.027 779.801 375.506 779.28 375.506 778.637C375.506 777.994 376.027 777.473 376.67 777.473H389.438ZM414.976 777.473C415.618 777.473 416.139 777.994 416.139 778.637C416.139 779.279 415.618 779.801 414.976 779.801H402.207C401.564 779.801 401.043 779.28 401.043 778.637C401.043 777.994 401.564 777.473 402.207 777.473H414.976ZM434.128 777.473V779.801H427.743C427.101 779.801 426.58 779.279 426.58 778.637C426.58 777.994 427.101 777.473 427.743 777.473H434.128Z" fill="var(--stroke-0, #A4E0C8)" mask="url(#path-1-inside-1_10_5426)"/>
</g>
<path id="Progress bar_2" d="M476.027 8.14717C476.027 3.64761 479.675 0 484.174 0H1181.34V199.024H484.174C479.675 199.024 476.027 195.376 476.027 190.877V8.14717Z" fill="var(--fill-0, #7AD1AE)"/>
<g id="Progress bar_3">
<mask id="path-4-inside-2_10_5426" fill="white">
<path d="M476.027 249.071C476.027 244.572 479.675 240.924 484.174 240.924H1181.34V778.637H476.027V249.071Z"/>
</mask>
<path d="M476.027 249.071C476.027 244.572 479.675 240.924 484.174 240.924H1181.34V778.637H476.027V249.071Z" fill="var(--fill-0, #7AD1AE)"/>
<path d="M482.325 777.474C482.968 777.474 483.488 777.995 483.488 778.638C483.488 779.28 482.967 779.801 482.325 779.801H476.027V777.474H482.325ZM507.514 777.474C508.157 777.474 508.678 777.995 508.678 778.638C508.678 779.28 508.157 779.801 507.514 779.801H494.92C494.277 779.801 493.756 779.281 493.756 778.638C493.756 777.995 494.277 777.474 494.92 777.474H507.514ZM532.704 777.474C533.347 777.474 533.868 777.995 533.868 778.638C533.868 779.281 533.347 779.801 532.704 779.801H520.109C519.467 779.801 518.945 779.281 518.945 778.638C518.945 777.995 519.466 777.474 520.109 777.474H532.704ZM557.893 777.474C558.536 777.474 559.057 777.995 559.057 778.638C559.057 779.281 558.536 779.801 557.893 779.801H545.299C544.656 779.801 544.135 779.28 544.135 778.638C544.135 777.995 544.656 777.474 545.299 777.474H557.893ZM583.084 777.474C583.726 777.474 584.248 777.995 584.248 778.638C584.248 779.28 583.726 779.801 583.084 779.801H570.489C569.846 779.801 569.325 779.281 569.325 778.638C569.325 777.995 569.846 777.474 570.489 777.474H583.084ZM608.273 777.474C608.916 777.474 609.437 777.995 609.437 778.638C609.437 779.281 608.916 779.801 608.273 779.801H595.678C595.036 779.801 594.515 779.281 594.514 778.638C594.514 777.995 595.036 777.474 595.678 777.474H608.273ZM633.463 777.474C634.105 777.474 634.627 777.995 634.627 778.638C634.627 779.281 634.105 779.801 633.463 779.801H620.868C620.225 779.801 619.704 779.28 619.704 778.638C619.704 777.995 620.225 777.474 620.868 777.474H633.463ZM658.653 777.474C659.296 777.474 659.816 777.995 659.816 778.638C659.816 779.28 659.296 779.801 658.653 779.801H646.057C645.415 779.801 644.895 779.28 644.894 778.638C644.894 777.995 645.415 777.474 646.057 777.474H658.653ZM683.843 777.474C684.485 777.474 685.007 777.995 685.007 778.638C685.006 779.28 684.485 779.801 683.843 779.801H671.248C670.605 779.801 670.084 779.281 670.084 778.638C670.084 777.995 670.605 777.474 671.248 777.474H683.843ZM709.032 777.474C709.675 777.474 710.196 777.995 710.196 778.638C710.196 779.281 709.675 779.801 709.032 779.801H696.437C695.795 779.801 695.273 779.281 695.273 778.638C695.273 777.995 695.794 777.474 696.437 777.474H709.032ZM734.221 777.474C734.864 777.474 735.386 777.995 735.386 778.638C735.385 779.281 734.864 779.801 734.221 779.801H721.627C720.984 779.801 720.463 779.28 720.463 778.638C720.463 777.995 720.984 777.474 721.627 777.474H734.221ZM759.412 777.474C760.055 777.474 760.576 777.995 760.576 778.638C760.576 779.28 760.054 779.801 759.412 779.801H746.817C746.175 779.801 745.653 779.281 745.653 778.638C745.653 777.995 746.174 777.474 746.817 777.474H759.412ZM784.601 777.474C785.244 777.474 785.765 777.995 785.765 778.638C785.765 779.281 785.244 779.801 784.601 779.801H772.007C771.364 779.801 770.843 779.281 770.843 778.638C770.843 777.995 771.364 777.474 772.007 777.474H784.601ZM809.791 777.474C810.434 777.474 810.955 777.995 810.955 778.638C810.955 779.281 810.433 779.801 809.791 779.801H797.196C796.553 779.801 796.032 779.28 796.032 778.638C796.032 777.995 796.553 777.474 797.196 777.474H809.791ZM834.981 777.474C835.624 777.474 836.144 777.995 836.144 778.638C836.144 779.28 835.624 779.801 834.981 779.801H822.387C821.744 779.801 821.223 779.281 821.222 778.638C821.222 777.995 821.744 777.474 822.387 777.474H834.981ZM860.171 777.474C860.813 777.474 861.335 777.995 861.335 778.638C861.335 779.281 860.813 779.801 860.171 779.801H847.576C846.933 779.801 846.412 779.281 846.412 778.638C846.412 777.995 846.933 777.474 847.576 777.474H860.171ZM885.36 777.474C886.003 777.474 886.524 777.995 886.524 778.638C886.524 779.281 886.003 779.801 885.36 779.801H872.765C872.123 779.801 871.602 779.28 871.601 778.638C871.601 777.995 872.123 777.474 872.765 777.474H885.36ZM910.551 777.474C911.193 777.474 911.714 777.995 911.714 778.638C911.713 779.28 911.193 779.801 910.551 779.801H897.955C897.312 779.801 896.792 779.28 896.792 778.638C896.792 777.995 897.312 777.474 897.955 777.474H910.551ZM935.74 777.474C936.383 777.474 936.904 777.995 936.904 778.638C936.904 779.28 936.383 779.801 935.74 779.801H923.145C922.503 779.801 921.981 779.281 921.981 778.638C921.981 777.995 922.503 777.474 923.145 777.474H935.74ZM960.929 777.474C961.572 777.474 962.094 777.995 962.094 778.638C962.093 779.281 961.572 779.801 960.929 779.801H948.335C947.692 779.801 947.171 779.28 947.171 778.638C947.171 777.995 947.692 777.474 948.335 777.474H960.929ZM986.12 777.474C986.762 777.474 987.283 777.995 987.283 778.638C987.283 779.28 986.762 779.801 986.12 779.801H973.524C972.882 779.801 972.361 779.28 972.361 778.638C972.361 777.995 972.882 777.474 973.524 777.474H986.12ZM1011.31 777.474C1011.95 777.474 1012.47 777.995 1012.47 778.638C1012.47 779.28 1011.95 779.801 1011.31 779.801H998.715C998.072 779.801 997.551 779.281 997.551 778.638C997.551 777.995 998.072 777.474 998.715 777.474H1011.31ZM1036.5 777.474C1037.14 777.474 1037.66 777.995 1037.66 778.638C1037.66 779.281 1037.14 779.801 1036.5 779.801H1023.9C1023.26 779.801 1022.74 779.281 1022.74 778.638C1022.74 777.995 1023.26 777.474 1023.9 777.474H1036.5ZM1061.69 777.474C1062.33 777.474 1062.85 777.995 1062.85 778.638C1062.85 779.281 1062.33 779.801 1061.69 779.801H1049.09C1048.45 779.801 1047.93 779.28 1047.93 778.638C1047.93 777.995 1048.45 777.474 1049.09 777.474H1061.69ZM1086.88 777.474C1087.52 777.474 1088.04 777.995 1088.04 778.638C1088.04 779.28 1087.52 779.801 1086.88 779.801H1074.28C1073.64 779.801 1073.12 779.28 1073.12 778.638C1073.12 777.995 1073.64 777.474 1074.28 777.474H1086.88ZM1112.07 777.474C1112.71 777.474 1113.23 777.995 1113.23 778.638C1113.23 779.28 1112.71 779.801 1112.07 779.801H1099.47C1098.83 779.801 1098.31 779.281 1098.31 778.638C1098.31 777.995 1098.83 777.474 1099.47 777.474H1112.07ZM1137.26 777.474C1137.9 777.474 1138.42 777.995 1138.42 778.638C1138.42 779.281 1137.9 779.801 1137.26 779.801H1124.66C1124.02 779.801 1123.5 779.281 1123.5 778.638C1123.5 777.995 1124.02 777.474 1124.66 777.474H1137.26ZM1162.45 777.474C1163.09 777.474 1163.61 777.995 1163.61 778.638C1163.61 779.281 1163.09 779.801 1162.45 779.801H1149.85C1149.21 779.801 1148.69 779.28 1148.69 778.638C1148.69 777.995 1149.21 777.474 1149.85 777.474H1162.45ZM1181.34 777.474V779.801H1175.04C1174.4 779.801 1173.88 779.28 1173.88 778.638C1173.88 777.995 1174.4 777.474 1175.04 777.474H1181.34Z" fill="var(--stroke-0, #A4E0C8)" mask="url(#path-4-inside-2_10_5426)"/>
</g>
<path id="Vector 57" d="M529.316 528.114H545.839L558.097 520.653H595.938L614.059 509.993L631.647 514.257C635.023 512.836 642.627 509.993 646.038 509.993C649.449 509.993 660.606 512.836 665.758 514.257L680.681 495.07H717.456L735.045 479.081L771.82 470.02L801.666 440.173H822.985L837.909 495.07L855.497 501.999L891.206 479.081L906.662 495.07L924.783 470.02L942.905 464.69L959.427 449.234L988.74 440.173L1009.53 405.53L1029.78 417.789L1044.7 398.069L1060.16 423.118L1082.01 432.712L1099.07 423.118L1129.98 358.095L1149.7 349.035L1165.69 319.188H1182.21L1217.92 235.511H1237.11L1252.03 186.478L1268.55 160.895L1302.66 63.8936L1321.32 386.343" stroke="var(--stroke-0, #52C396)" stroke-width="5" stroke-linecap="square" stroke-linejoin="bevel" stroke-dasharray="12 12"/>
</g>
</svg>
