<svg preserveAspectRatio="none" width="100%" height="100%" overflow="visible" style="display: block;" viewBox="0 0 57.6538 57.6538" fill="none" xmlns="http://www.w3.org/2000/svg">
<g id="favorite">
<path id="Icon" d="M27.1039 10.9884C27.6576 9.86674 27.9344 9.30589 28.3102 9.1267C28.6372 8.97079 29.0171 8.97079 29.3441 9.1267C29.7199 9.30589 29.9968 9.86674 30.5505 10.9884L34.9281 19.8572C35.0916 20.1883 35.1733 20.3539 35.2928 20.4824C35.3985 20.5963 35.5254 20.6885 35.6662 20.754C35.8254 20.828 36.0081 20.8547 36.3735 20.9081L46.1662 22.3395C47.4036 22.5203 48.0222 22.6108 48.3086 22.913C48.5577 23.1759 48.6748 23.5372 48.6274 23.8963C48.5729 24.309 48.125 24.7453 47.2292 25.6178L40.1462 32.5166C39.8813 32.7746 39.7488 32.9036 39.6634 33.0572C39.5877 33.1931 39.5391 33.3424 39.5204 33.4969C39.4992 33.6713 39.5305 33.8536 39.593 34.2181L41.2642 43.962C41.4757 45.1952 41.5815 45.8119 41.3827 46.1778C41.2098 46.4961 40.9024 46.7194 40.5462 46.7855C40.1367 46.8614 39.583 46.5702 38.4756 45.9878L29.7217 41.3842C29.3944 41.2121 29.2307 41.126 29.0583 41.0922C28.9057 41.0623 28.7487 41.0623 28.596 41.0922C28.4236 41.126 28.26 41.2121 27.9327 41.3842L19.1788 45.9878C18.0713 46.5702 17.5176 46.8614 17.1082 46.7855C16.7519 46.7194 16.4445 46.4961 16.2716 46.1778C16.0729 45.8119 16.1786 45.1952 16.3901 43.962L18.0613 34.2181C18.1238 33.8536 18.1551 33.6713 18.134 33.4969C18.1152 33.3424 18.0667 33.1931 17.991 33.0572C17.9055 32.9036 17.773 32.7746 17.5081 32.5166L10.4251 25.6178C9.52935 24.7453 9.08145 24.309 9.02695 23.8963C8.97953 23.5372 9.09668 23.1759 9.34579 22.913C9.6321 22.6108 10.2508 22.5203 11.4881 22.3395L21.2808 20.9081C21.6463 20.8547 21.829 20.828 21.9881 20.754C22.129 20.6885 22.2558 20.5963 22.3616 20.4824C22.481 20.3539 22.5627 20.1883 22.7262 19.8572L27.1039 10.9884Z" stroke="var(--stroke-0, #505157)" stroke-width="3.60336" stroke-linecap="round" stroke-linejoin="round"/>
</g>
</svg>
