<svg preserveAspectRatio="none" width="100%" height="100%" overflow="visible" style="display: block;" viewBox="0 0 57.6538 57.6538" fill="none" xmlns="http://www.w3.org/2000/svg">
<g id="verified">
<path id="Icon" d="M22.3407 28.8253L26.6647 33.1493L36.3938 23.4202M41.5852 13.6879C42.0304 14.7646 42.8849 15.6205 43.961 16.0673L47.7341 17.6303C48.8109 18.0763 49.6664 18.9318 50.1124 20.0087C50.5584 21.0855 50.5584 22.2954 50.1124 23.3722L48.5506 27.1428C48.1044 28.2201 48.1038 29.4312 48.552 30.508L50.1111 34.2774C50.3322 34.8108 50.4461 35.3824 50.4461 35.9598C50.4462 36.5372 50.3326 37.1089 50.1116 37.6423C49.8907 38.1757 49.5668 38.6603 49.1585 39.0685C48.7502 39.4767 48.2655 39.8004 47.732 40.0212L43.9616 41.583C42.8849 42.0282 42.0291 42.8828 41.5823 43.9589L40.0194 47.7322C39.5734 48.809 38.7179 49.6645 37.6411 50.1105C36.5643 50.5566 35.3544 50.5566 34.2776 50.1105L30.5072 48.5487C29.4304 48.1038 28.221 48.1047 27.1448 48.5513L23.3717 50.112C22.2955 50.557 21.0867 50.5566 20.0108 50.1109C18.9349 49.6652 18.0799 48.8107 17.6336 47.735L16.0702 43.9607C15.625 42.8839 14.7705 42.0281 13.6944 41.5812L9.92131 40.0183C8.84499 39.5724 7.98975 38.7175 7.54356 37.6412C7.09738 36.565 7.09677 35.3557 7.54188 34.279L9.10364 30.5085C9.54856 29.4316 9.54765 28.2222 9.10111 27.146L7.5416 23.37C7.32049 22.8367 7.20664 22.265 7.20654 21.6876C7.20645 21.1103 7.32012 20.5386 7.54106 20.0052C7.76199 19.4718 8.08587 18.9871 8.49417 18.5789C8.90247 18.1707 9.38721 17.847 9.92067 17.6262L13.6911 16.0644C14.7668 15.6196 15.6222 14.7661 16.0693 13.6913L17.6322 9.918C18.0782 8.84117 18.9337 7.98564 20.0105 7.5396C21.0873 7.09357 22.2971 7.09357 23.3739 7.5396L27.1443 9.10142C28.2212 9.54635 29.4306 9.54545 30.5067 9.09889L34.2814 7.54203C35.3581 7.09624 36.5677 7.09633 37.6443 7.54228C38.7208 7.98823 39.5762 8.84352 40.0223 9.92006L41.5856 13.6944L41.5852 13.6879Z" stroke="var(--stroke-0, #505157)" stroke-width="3.60336" stroke-linecap="round" stroke-linejoin="round"/>
</g>
</svg>
