<svg preserveAspectRatio="none" width="100%" height="100%" overflow="visible" style="display: block;" viewBox="0 0 57.4928 57.4928" fill="none" xmlns="http://www.w3.org/2000/svg">
<g id="canvas-light">
<path id="Icon" d="M39.5265 48.1509L28.7466 39.527L17.9667 48.1509M28.7466 7.18729V11.4993M14.8525 39.527H42.6407C45.324 39.527 46.6656 39.527 47.6905 39.0048C48.592 38.5455 49.3249 37.8125 49.7842 36.911C50.3064 35.8862 50.3064 34.5446 50.3064 31.8613V19.165C50.3064 16.4817 50.3064 15.1401 49.7842 14.1152C49.3249 13.2137 48.592 12.4808 47.6905 12.0215C46.6656 11.4993 45.324 11.4993 42.6407 11.4993H14.8525C12.1693 11.4993 10.8276 11.4993 9.80276 12.0215C8.90126 12.4808 8.16832 13.2137 7.70899 14.1152C7.18679 15.1401 7.18679 16.4817 7.18679 19.165V31.8613C7.18679 34.5446 7.18679 35.8862 7.70899 36.911C8.16832 37.8125 8.90126 38.5455 9.80276 39.0048C10.8276 39.527 12.1693 39.527 14.8525 39.527Z" stroke="var(--stroke-0, #666970)" stroke-width="3.5933" stroke-linecap="round" stroke-linejoin="round"/>
</g>
</svg>
