<svg preserveAspectRatio="none" width="100%" height="100%" overflow="visible" style="display: block;" viewBox="0 0 310.988 70.6161" fill="none" xmlns="http://www.w3.org/2000/svg">
<g id="Vector">
<path id="Vector_2" d="M77.892 12.0316H84.0365V28.4096C84.0365 29.943 83.9254 31.0652 83.9254 31.0652H84.0365C85.4217 27.9615 89.507 23.9244 95.8775 23.9244C103.407 23.9244 106.892 28.0393 106.892 36.1876V56.6768H100.748V37.6061C100.748 33.1208 99.8109 29.5652 94.6775 29.5652C89.844 29.5652 85.8736 32.8542 84.5217 37.4913C84.1477 38.7617 83.9958 40.221 83.9958 41.7173V56.7101H77.8512V12.0316H77.8883H77.892Z" fill="var(--fill-0, white)"/>
<path id="Vector_3" d="M131.096 23.9209C140.689 23.9209 148.407 30.9506 148.407 40.636C148.407 50.3213 140.689 57.4622 131.096 57.4622C121.503 57.4622 113.784 50.3584 113.784 40.636C113.784 30.9136 121.503 23.9209 131.096 23.9209ZM131.096 52.1547C137.166 52.1547 142.111 47.3324 142.111 40.6397C142.111 33.947 137.166 29.2358 131.096 29.2358C125.025 29.2358 120.081 33.984 120.081 40.6397C120.044 47.3324 125.062 52.1547 131.096 52.1547Z" fill="var(--fill-0, white)"/>
<path id="Vector_4" d="M155.3 12.0316H161.444V46.8803C161.444 50.7322 162.981 51.4434 164.856 51.4434C165.419 51.4434 165.941 51.3693 165.941 51.3693V56.8286C165.941 56.8286 165.004 56.9397 163.919 56.9397C160.433 56.9397 155.3 56.0064 155.3 47.9655V12.0316Z" fill="var(--fill-0, white)"/>
<path id="Vector_5" d="M172.426 12.0316H178.645V18.3132H172.426V12.0316ZM172.463 24.7059H178.608V56.7138H172.463V24.7059Z" fill="var(--fill-0, white)"/>
<path id="Vector_6" d="M188.649 48.4137C188.649 48.4137 192.246 52.1545 197.827 52.1545C200.487 52.1545 203.146 50.773 203.146 48.1544C203.146 42.2839 186.661 43.4802 186.661 33.0467C186.661 27.2133 191.868 23.9244 198.276 23.9244C205.32 23.9244 208.616 27.4763 208.616 27.4763L206.142 32.1134C206.142 32.1134 203.294 29.2726 198.198 29.2726C195.538 29.2726 192.953 30.3948 192.953 33.1986C192.953 38.9579 209.439 37.6838 209.439 48.1914C209.439 53.5026 204.868 57.5027 197.824 57.5027C189.957 57.5027 185.646 52.8285 185.646 52.8285L188.642 48.4174L188.649 48.4137Z" fill="var(--fill-0, white)"/>
<path id="Vector_7" d="M217.986 30.0543H213.789V25.1172H218.175V15.88H224.134V25.1172H231.853V30.0543H224.134V44.299C224.134 50.6917 228.63 51.5139 230.99 51.5139C231.89 51.5139 232.453 51.4028 232.453 51.4028V56.8622C232.453 56.8622 231.553 56.9733 230.279 56.9733C226.156 56.9733 217.99 55.7029 217.99 45.0064V30.0506L217.986 30.0543Z" fill="var(--fill-0, white)"/>
<path id="Vector_8" d="M239.309 12.0316H245.527V18.3132H239.309V12.0316ZM239.346 24.7059H245.49V56.7138H239.346V24.7059Z" fill="var(--fill-0, white)"/>
<path id="Vector_9" d="M270.031 23.9207C278.087 23.9207 282.098 28.5949 282.098 28.5949L279.176 32.932C279.176 32.932 275.764 29.2689 270.294 29.2689C263.812 29.2689 259.127 34.0912 259.127 40.6728C259.127 47.2544 263.812 52.1878 270.479 52.1878C276.439 52.1878 280.372 47.8878 280.372 47.8878L282.846 52.373C282.846 52.373 278.424 57.4953 270.031 57.4953C259.953 57.4953 252.834 50.3545 252.834 40.7432C252.872 31.2097 259.953 23.917 270.031 23.917V23.9207Z" fill="var(--fill-0, white)"/>
<path id="Vector_10" d="M290.191 48.4137C290.191 48.4137 293.788 52.1545 299.373 52.1545C302.032 52.1545 304.695 50.773 304.695 48.1544C304.695 42.2839 288.21 43.4802 288.21 33.0467C288.21 27.2133 293.417 23.9244 299.825 23.9244C306.869 23.9244 310.166 27.4763 310.166 27.4763L307.692 32.1134C307.692 32.1134 304.843 29.2726 299.747 29.2726C297.088 29.2726 294.502 30.3948 294.502 33.1986C294.502 38.9579 310.988 37.6838 310.988 48.1914C310.988 53.5026 306.417 57.5027 299.373 57.5027C291.506 57.5027 287.195 52.8285 287.195 52.8285L290.191 48.4174V48.4137Z" fill="var(--fill-0, white)"/>
<g id="Group">
<g id="Group_2">
<path id="Vector_11" d="M52.5859 15.5133C53.0748 13.8652 54.0526 12.4281 55.3526 11.3725L37.1263 0.850128C35.1596 -0.283224 32.7411 -0.283224 30.7744 0.850128L5.69618 15.3281C3.72948 16.4615 2.52205 18.5578 2.52205 20.8282V43.1434C3.54799 42.6953 4.67764 42.4471 5.86655 42.4471H7.4925V21.932C7.4925 20.7542 8.12214 19.6653 9.14068 19.0764L32.3077 5.70206C33.3263 5.11316 34.5856 5.11316 35.6041 5.70206L52.5933 15.5096L52.5859 15.5133Z" fill="var(--fill-0, #2CB67F)"/>
<path id="Vector_12" d="M60.6459 26.2987C60.5681 26.2987 60.4903 26.295 60.4125 26.2913V48.6806C60.4125 49.8584 59.7829 50.9473 58.7644 51.5362L35.5973 64.9105C34.5788 65.4994 33.3195 65.4994 32.301 64.9105L13.6044 54.114C12.9303 55.7066 11.7784 57.0474 10.3265 57.9622L30.7713 69.7661C32.738 70.8995 35.1566 70.8995 37.1233 69.7661L62.2052 55.2844C64.1719 54.151 65.3793 52.0547 65.3793 49.7843V24.8283C64.0311 25.7543 62.3978 26.295 60.6422 26.295L60.6459 26.2987Z" fill="var(--fill-0, white)"/>
</g>
<path id="Vector_13" d="M60.6456 12.0316C57.4085 12.0316 54.7825 14.6576 54.7825 17.8947C54.7825 18.6725 54.9344 19.417 55.2122 20.0947L36.7822 37.3136C35.9452 36.8506 34.9785 36.5876 33.9526 36.5876C30.7155 36.5876 28.0895 39.2136 28.0895 42.4507C28.0895 42.5099 28.0895 42.5692 28.0932 42.6285L10.8818 47.8174C9.85586 46.1211 7.99286 44.9878 5.8632 44.9878C2.62611 44.9878 0.000136953 47.6137 0.000136953 50.8508C0.000136953 54.0879 2.62611 56.7139 5.8632 56.7139C9.10029 56.7139 11.4596 54.3472 11.704 51.336L29.308 46.0285C30.3784 47.4174 32.0599 48.3137 33.9526 48.3137C37.1896 48.3137 39.8156 45.6878 39.8156 42.4507C39.8156 41.5507 39.6119 40.7025 39.2526 39.9395L57.5344 22.8615C58.4382 23.4281 59.5048 23.7578 60.6493 23.7578C63.8864 23.7578 66.5124 21.1318 66.5124 17.8947C66.5124 14.6576 63.8864 12.0316 60.6493 12.0316H60.6456ZM5.8632 53.0953C4.62614 53.0953 3.61872 52.0879 3.61872 50.8508C3.61872 49.6138 4.62614 48.6063 5.8632 48.6063C7.10026 48.6063 8.10768 49.6138 8.10768 50.8508C8.10768 52.0879 7.10026 53.0953 5.8632 53.0953ZM33.9526 44.6952C32.7155 44.6952 31.7081 43.6877 31.7081 42.4507C31.7081 41.2136 32.7155 40.2062 33.9526 40.2062C35.1896 40.2062 36.197 41.2136 36.197 42.4507C36.197 43.6877 35.1896 44.6952 33.9526 44.6952ZM60.6456 20.1392C59.4085 20.1392 58.4011 19.1318 58.4011 17.8947C58.4011 16.6576 59.4085 15.6502 60.6456 15.6502C61.8827 15.6502 62.8901 16.6576 62.8901 17.8947C62.8901 19.1318 61.8827 20.1392 60.6456 20.1392Z" fill="var(--fill-0, #2CB67F)"/>
</g>
</g>
</svg>
