<svg preserveAspectRatio="none" width="100%" height="100%" overflow="visible" style="display: block;" viewBox="0 0 215.798 229.146" fill="none" xmlns="http://www.w3.org/2000/svg">
<g id="Group">
<path id="Vector" d="M170.613 50.3415C172.197 44.995 175.375 40.3305 179.589 36.9082L120.448 2.75852C114.067 -0.919507 106.211 -0.919507 99.8417 2.75852L18.4623 49.7447C12.0805 53.4228 8.15892 60.2308 8.15892 67.599V140.003C11.4838 138.553 15.1496 137.75 19.0103 137.75H24.2838V71.1918C24.2838 67.3676 26.3177 63.8357 29.6303 61.9237L104.799 18.5302C108.111 16.6181 112.191 16.6181 115.492 18.5302L170.613 50.3537V50.3415Z" fill="var(--fill-0, #2CB67F)"/>
<path id="Vector_2" d="M196.761 85.3437C196.506 85.3437 196.262 85.3315 196.006 85.3193V157.967C196.006 161.791 193.973 165.323 190.66 167.235L115.492 210.628C112.179 212.54 108.099 212.54 104.799 210.628L44.1354 175.602C41.9432 180.765 38.2043 185.125 33.5032 188.085L99.8417 226.388C106.223 230.066 114.079 230.066 120.448 226.388L201.828 179.401C208.21 175.723 212.131 168.915 212.131 161.547V80.5696C207.747 83.5656 202.461 85.3315 196.761 85.3315V85.3437Z" fill="var(--fill-0, white)"/>
<path id="Vector_3" d="M196.762 39.0394C186.252 39.0394 177.739 47.5524 177.739 58.0628C177.739 60.5839 178.238 62.9953 179.127 65.1997L119.329 121.064C116.613 119.566 113.483 118.702 110.158 118.702C99.6478 118.702 91.1348 127.215 91.1348 137.725C91.1348 137.92 91.1348 138.103 91.1469 138.297L35.3067 155.141C31.9696 149.636 25.9289 145.958 19.0235 145.958C8.51306 145.958 0 154.471 0 164.981C0 175.492 8.51306 184.005 19.0235 184.005C29.5339 184.005 37.1822 176.32 37.9738 166.553L95.0929 149.332C98.5761 153.838 104.032 156.749 110.158 156.749C120.669 156.749 129.182 148.235 129.182 137.725C129.182 134.814 128.524 132.05 127.355 129.577L186.666 74.1634C189.589 76.0024 193.06 77.0741 196.775 77.0741C207.285 77.0741 215.798 68.5611 215.798 58.0507C215.798 47.5403 207.285 39.0272 196.775 39.0272L196.762 39.0394ZM18.9991 172.289C14.9801 172.289 11.7161 169.025 11.7161 165.006C11.7161 160.987 14.9801 157.723 18.9991 157.723C23.0181 157.723 26.2821 160.987 26.2821 165.006C26.2821 169.025 23.0181 172.289 18.9991 172.289ZM110.146 145.032C106.127 145.032 102.863 141.768 102.863 137.749C102.863 133.73 106.127 130.466 110.146 130.466C114.165 130.466 117.429 133.73 117.429 137.749C117.429 141.768 114.165 145.032 110.146 145.032ZM196.762 65.3458C192.743 65.3458 189.479 62.0819 189.479 58.0628C189.479 54.0438 192.743 50.7799 196.762 50.7799C200.781 50.7799 204.045 54.0438 204.045 58.0628C204.045 62.0819 200.781 65.3458 196.762 65.3458Z" fill="var(--fill-0, #2CB67F)"/>
</g>
</svg>
