<svg preserveAspectRatio="none" width="100%" height="100%" overflow="visible" style="display: block;" viewBox="0 0 57.6908 57.6908" fill="none" xmlns="http://www.w3.org/2000/svg">
<g id="type/date">
<path id="Icon" d="M48.316 24.5182H9.37474M37.499 7.21099V15.8646M20.1918 7.21099V15.8646M17.0668 50.4791H40.6239C43.3164 50.4791 44.6626 50.4791 45.691 49.9551C46.5956 49.4942 47.3311 48.7587 47.792 47.8541C48.316 46.8257 48.316 45.4795 48.316 42.787V19.2299C48.316 16.5374 48.316 15.1912 47.792 14.1628C47.3311 13.2582 46.5956 12.5227 45.691 12.0618C44.6626 11.5378 43.3164 11.5378 40.6239 11.5378H17.0668C14.3744 11.5378 13.0281 11.5378 11.9997 12.0618C11.0951 12.5227 10.3596 13.2582 9.89873 14.1628C9.37474 15.1912 9.37474 16.5374 9.37474 19.2299V42.787C9.37474 45.4795 9.37474 46.8257 9.89873 47.8541C10.3596 48.7587 11.0951 49.4942 11.9997 49.9551C13.0281 50.4791 14.3744 50.4791 17.0668 50.4791Z" stroke="var(--stroke-0, #666970)" stroke-width="3.60567" stroke-linecap="round" stroke-linejoin="round"/>
</g>
</svg>
