<svg preserveAspectRatio="none" width="100%" height="100%" overflow="visible" style="display: block;" viewBox="0 0 57.6908 57.6908" fill="none" xmlns="http://www.w3.org/2000/svg">
<g id="type/custom">
<path id="Icon" d="M28.8455 18.029L48.0758 18.029M28.8455 18.029C28.8455 21.3479 26.155 24.0384 22.836 24.0384C19.5171 24.0384 16.8266 21.3479 16.8266 18.029C16.8266 14.7101 19.5171 12.0195 22.836 12.0195C26.155 12.0195 28.8455 14.7101 28.8455 18.029ZM9.61523 18.029L15.6247 18.029M9.61523 39.663L30.0474 39.663M43.2682 39.663H48.0758M43.2682 39.663C43.2682 42.982 40.5777 45.6725 37.2587 45.6725C33.9398 45.6725 31.2493 42.982 31.2493 39.663C31.2493 36.3441 33.9398 33.6536 37.2587 33.6536C40.5777 33.6536 43.2682 36.3441 43.2682 39.663Z" stroke="var(--stroke-0, #666970)" stroke-width="3.60567" stroke-linecap="round" stroke-linejoin="round"/>
</g>
</svg>
