<svg width="64" height="64" viewBox="0 0 64 64" fill="none" xmlns="http://www.w3.org/2000/svg">
<path d="M36.5605 7.92448C36.5605 6.8615 37.4133 6 38.4656 6H52.4358L60.3735 12.7356V36.1501C60.3735 37.2131 59.5207 38.0746 58.4684 38.0746H38.4656C37.4133 38.0746 36.5605 37.2131 36.5605 36.1501V7.92448Z" fill="#FBFBFB"/>
<path d="M50.285 23.2525L52.4236 21.1139C52.9253 20.6122 52.9253 19.8009 52.4236 19.2991C51.9218 18.7974 51.1105 18.7974 50.6088 19.2991L48.4702 21.4377L46.3317 19.2991C45.83 18.7974 45.0186 18.7974 44.5169 19.2991C44.0152 19.8009 44.0152 20.6122 44.5169 21.1139L46.6555 23.2525L44.5169 25.391C44.0152 25.8928 44.0152 26.7041 44.5169 27.2058C45.0186 27.7075 45.83 27.7075 46.3317 27.2058L48.4702 25.0672L50.6088 27.2058C51.1105 27.7075 51.9218 27.7075 52.4236 27.2058C52.9253 26.7041 52.9253 25.8928 52.4236 25.391L50.285 23.2525Z" fill="#DCDDDD"/>
<path d="M38.7002 31.4255C39.8741 27.5604 39.7445 23.4665 39.5082 21.088C39.3939 19.9521 38.2961 19.1745 37.1908 19.4642C32.5788 20.6535 29.8498 22.6508 28.3023 24.2441C26.8158 23.9011 25.2073 23.7105 23.4693 23.7105C21.7312 23.7105 20.1228 23.9011 18.6363 24.2441C17.0964 22.6508 14.3597 20.6535 9.74776 19.4642C8.64242 19.1821 7.53708 19.9521 7.43036 21.088C7.19404 23.4742 7.06446 27.5604 8.23841 31.4255C5.90575 34.9247 4.78516 40.3297 4.78516 44.4617C4.78516 48.1514 10.9446 56.7736 23.4617 56.7736C35.9787 56.7736 42.1382 48.1591 42.1382 44.4617C42.1458 40.3297 41.0328 34.9323 38.7002 31.4255Z" fill="#F29555"/>
<path d="M33.2652 41.6484C29.4003 41.6484 27.7385 45.4678 23.4696 45.4678C19.2006 45.4678 17.5388 41.6484 13.6739 41.6484C8.0786 41.6484 5.69259 46.3598 5.42578 46.9315C7.28581 51.0482 13.2699 56.7735 23.4696 56.7735C33.6692 56.7735 39.6533 51.0482 41.5133 46.9315C41.2465 46.3598 38.8681 41.6484 33.2652 41.6484Z" fill="#F7E3CD"/>
<path d="M23.3933 53.9296C14.9394 53.9296 8.97051 50.56 5.44865 46.8855C5.44103 46.9008 5.4334 46.916 5.42578 46.9313C7.28581 51.048 13.2699 56.7732 23.4696 56.7732C33.6692 56.7732 39.6533 51.048 41.5133 46.9313C41.4981 46.8932 41.4752 46.8474 41.4371 46.7788C37.9305 50.4914 31.9312 53.9296 23.3933 53.9296Z" fill="#F2C59E"/>
<path d="M13.5592 26.0282C12.5987 25.0143 11.1046 23.482 10.5329 23.1084C8.24596 21.599 7.28547 23.5658 7.28547 23.5658C7.23973 25.769 7.39982 28.4982 8.16212 31.1512C10.5634 28.765 14.695 26.6533 14.695 26.6533C14.2758 26.5618 13.8717 26.356 13.5592 26.0282Z" fill="#F7E3CD"/>
<path d="M33.378 26.0282C34.3385 25.0143 35.8327 23.482 36.4044 23.1084C38.6913 21.599 39.6518 23.5658 39.6518 23.5658C39.6975 25.769 39.5375 28.4982 38.7752 31.1512C36.3739 28.765 32.2422 26.6533 32.2422 26.6533C32.6691 26.5618 33.0655 26.356 33.378 26.0282Z" fill="#F7E3CD"/>
<path d="M19.7875 33.5677C19.7875 34.3529 19.0023 34.9932 18.0266 34.9932C17.0584 34.9932 16.2656 34.0479 16.2656 33.2627C16.2656 32.4775 17.0508 32.1421 18.0266 32.1421C19.0023 32.1421 19.7875 32.7825 19.7875 33.5677Z" fill="#F7E3CD"/>
<path d="M27.2734 33.5677C27.2734 34.3529 28.0586 34.9932 29.0344 34.9932C30.0101 34.9932 30.7953 34.0479 30.7953 33.2627C30.7953 32.4775 30.0101 32.1421 29.0344 32.1421C28.0586 32.1421 27.2734 32.7825 27.2734 33.5677Z" fill="#F7E3CD"/>
<path d="M23.5755 52.55C24.5228 52.55 25.2907 51.6216 25.2907 50.4764C25.2907 49.3312 24.5228 48.4028 23.5755 48.4028C22.6283 48.4028 21.8604 49.3312 21.8604 50.4764C21.8604 51.6216 22.6283 52.55 23.5755 52.55Z" fill="#AA0C18"/>
<path d="M17.1418 55.9657V38.0581H14.5957V55.1043C15.3961 55.4321 16.2423 55.7218 17.1418 55.9657Z" fill="#54C2FF"/>
<path d="M29.918 55.9657V38.0581H32.4641V55.1043C31.6636 55.4321 30.8175 55.7218 29.918 55.9657Z" fill="#54C2FF"/>
<path d="M34.3682 38.6636C34.2235 38.8083 34.0342 38.8974 33.8115 38.8974L32.3197 38.8863L29.2414 38.8919C28.8072 38.8919 28.4565 38.5412 28.4565 38.1069C28.4565 37.6727 28.8072 37.322 29.2414 37.322L30.7444 37.322L33.8171 37.322C34.2513 37.322 34.602 37.6727 34.602 38.1069C34.5964 38.324 34.5129 38.5189 34.3682 38.6636Z" fill="black"/>
<path d="M18.4404 38.6636C18.2957 38.8083 18.1065 38.8974 17.8838 38.8974L16.392 38.8863L13.3136 38.8919C12.8795 38.8919 12.5288 38.5411 12.5288 38.1069C12.5288 37.6727 12.8795 37.322 13.3137 37.322L14.8166 37.322L17.8894 37.322C18.3235 37.322 18.6742 37.6727 18.6742 38.1069C18.6687 38.324 18.5852 38.5189 18.4404 38.6636Z" fill="black"/>
<path d="M23.5306 40.7188C21.3123 40.7188 19.5742 41.9538 19.5742 43.5242C19.5742 44.9041 20.9464 46.5355 22.7683 46.909V47.801C21.7925 48.1822 21.0912 49.2418 21.0912 50.4845C21.0912 52.0473 22.2042 53.3204 23.5687 53.3204C24.9332 53.3204 26.0462 52.0473 26.0462 50.4845C26.0462 49.2037 25.2991 48.1212 24.2853 47.7705V46.9167C25.0171 46.7642 25.7108 46.4059 26.2977 45.8646C27.0372 45.1785 27.4793 44.3094 27.4793 43.5318C27.4869 41.9538 25.7489 40.7188 23.5306 40.7188ZM23.5763 51.7881C23.058 51.7881 22.6234 51.1858 22.6234 50.4768C22.6234 49.7679 23.058 49.1656 23.5763 49.1656C24.0947 49.1656 24.5292 49.7679 24.5292 50.4768C24.5292 51.1858 24.0947 51.7881 23.5763 51.7881Z" fill="black"/>
</svg>
