<svg width="24" height="24" viewBox="0 0 24 24" fill="none" xmlns="http://www.w3.org/2000/svg">
<path d="M17.067 8.55601C17.8855 8.03432 18.9838 8.61784 18.9838 9.61321V15.9531C18.9838 16.6434 18.4244 17.2036 17.7341 17.2036H8.04185C7.35165 17.2035 6.79217 16.6433 6.79213 15.9531V11.5276C6.79214 11.1544 6.95883 10.8007 7.24665 10.5633L9.2673 8.89753L9.36105 8.82722C9.84106 8.501 10.4907 8.54675 10.9205 8.95194L13.3906 11.2815L16.9891 8.60958L17.067 8.55601Z" fill="#7AD1AE"/>
<path d="M3.30859 16.7386V4.06055C3.30859 3.64633 3.64438 3.31055 4.05859 3.31055C4.47281 3.31055 4.80859 3.64633 4.80859 4.06055V16.7386C4.80859 17.3108 4.80954 17.695 4.83371 17.9908C4.85717 18.2778 4.8989 18.415 4.94503 18.5056C5.06485 18.7407 5.25566 18.9323 5.49079 19.0522C5.58135 19.0983 5.71929 19.14 6.00642 19.1635C6.30225 19.1877 6.68645 19.1878 7.25865 19.1878H19.9358C20.3499 19.1878 20.6856 19.5237 20.6858 19.9378C20.6858 20.352 20.35 20.6878 19.9358 20.6878H7.25865C6.71111 20.6878 6.25529 20.6888 5.88421 20.6585C5.50432 20.6274 5.14753 20.56 4.81027 20.3881C4.2929 20.1245 3.87192 19.7043 3.60826 19.1869C3.43644 18.8497 3.36977 18.4928 3.33873 18.113C3.30841 17.742 3.30859 17.2861 3.30859 16.7386Z" fill="#5EA3ED"/>
</svg>
