<svg width="24" height="24" viewBox="0 0 24 24" fill="none" xmlns="http://www.w3.org/2000/svg">
<path d="M18.7372 4.53152C19.0046 4.53152 19.2503 4.53075 19.4545 4.54743C19.6676 4.56483 19.9006 4.60514 20.1309 4.72237C20.4601 4.89015 20.7281 5.15816 20.8959 5.48744C21.0132 5.71765 21.0535 5.95073 21.0709 6.16378C21.0875 6.36802 21.0868 6.6137 21.0868 6.88113V7.96763C21.0868 8.23506 21.0875 8.48074 21.0709 8.68498C21.0535 8.89803 21.0132 9.13111 20.8959 9.36132C20.7281 9.6906 20.4601 9.95861 20.1309 10.1264C19.9006 10.2436 19.6676 10.2839 19.4545 10.3013C19.2503 10.318 19.0046 10.3172 18.7372 10.3172H4.41602V4.53152H18.7372Z" fill="currentColor"/>
<path fill-rule="evenodd" clip-rule="evenodd" d="M12.2676 16.4001C12.2676 16.6675 12.2684 16.9132 12.2517 17.1175C12.2343 17.3305 12.194 17.5636 12.0767 17.7938C11.909 18.1231 11.6409 18.3911 11.3117 18.5589C11.0814 18.6761 10.8484 18.7164 10.6353 18.7338C10.4311 18.7505 10.1854 18.7497 9.91797 18.7497H4.41602V20.7637C4.41602 21.1779 4.08023 21.5137 3.66602 21.5137C3.2518 21.5137 2.91602 21.1779 2.91602 20.7637V2.76367C2.91602 2.34946 3.2518 2.01367 3.66602 2.01367C4.08023 2.01367 4.41602 2.34946 4.41602 2.76367V13.005C4.49265 12.9786 4.57482 12.964 4.66044 12.964H13.3465C13.6385 12.964 13.8126 12.9637 13.9417 12.9531C14.0616 12.9433 14.0758 12.9283 14.0597 12.9364C14.1066 12.9124 14.1446 12.8744 14.1685 12.8276C14.1604 12.8436 14.1755 12.8294 14.1853 12.7095C14.1958 12.5805 14.1961 12.4064 14.1961 12.1144V10.3172H15.6961V12.1144C15.6961 12.3818 15.6969 12.6275 15.6802 12.8318C15.6628 13.0448 15.6225 13.2779 15.5053 13.5081C15.3375 13.8374 15.0695 14.1054 14.7402 14.2732C14.51 14.3904 14.2769 14.4307 14.0639 14.4481C13.8596 14.4648 13.614 14.464 13.3465 14.464H12.2676V16.4001ZM4.66044 14.464C4.57473 14.464 4.49273 14.4486 4.41602 14.4222V17.2497H9.91797C10.21 17.2497 10.3841 17.2494 10.5131 17.2388C10.633 17.229 10.6472 17.214 10.6311 17.2221C10.678 17.1982 10.716 17.1602 10.74 17.1133C10.7318 17.1294 10.7469 17.1151 10.7567 16.9953C10.7672 16.8662 10.7676 16.6921 10.7676 16.4001V14.464H4.66044Z" fill="currentColor"/>
</svg>
