<svg width="24" height="24" viewBox="0 0 24 24" fill="none" xmlns="http://www.w3.org/2000/svg">
<path d="M16.7517 10.1573C18.7352 10.1573 20.3433 11.7655 20.3435 13.7491C20.3435 15.7327 18.7353 17.3409 16.7517 17.3409C14.7681 17.3407 13.1599 15.7326 13.1599 13.7491C13.16 11.7656 14.7682 10.1574 16.7517 10.1573Z" fill="currentColor"/>
<path d="M8.50251 8.1567C9.79582 8.1567 10.8446 9.20547 10.8446 10.4988C10.8446 11.7921 9.79582 12.8409 8.50251 12.8409C7.2092 12.8409 6.16043 11.7921 6.16043 10.4988C6.16043 9.20547 7.2092 8.1567 8.50251 8.1567Z" fill="currentColor"/>
<path d="M14.9143 4.16563C15.7172 4.24697 16.344 4.92505 16.344 5.74934C16.344 6.62844 15.6311 7.34141 14.752 7.34141C13.9277 7.34141 13.2496 6.71455 13.1682 5.91173L13.1599 5.74934L13.1682 5.58695C13.2496 4.78412 13.9277 4.15726 14.752 4.15726L14.9143 4.16563Z" fill="currentColor"/>
<path d="M3.31641 16.7386V4.06055C3.31641 3.64633 3.65219 3.31055 4.06641 3.31055C4.48062 3.31055 4.81641 3.64633 4.81641 4.06055V16.7386C4.81641 17.3108 4.81735 17.695 4.84152 17.9908C4.86498 18.2778 4.90671 18.415 4.95285 18.5056C5.07266 18.7407 5.26348 18.9323 5.4986 19.0522C5.58917 19.0983 5.72711 19.14 6.01423 19.1635C6.31006 19.1877 6.69426 19.1878 7.26646 19.1878H19.9436C20.3577 19.1878 20.6934 19.5237 20.6936 19.9378C20.6936 20.352 20.3579 20.6878 19.9436 20.6878H7.26646C6.71892 20.6878 6.2631 20.6888 5.89202 20.6585C5.51213 20.6274 5.15534 20.56 4.81808 20.3881C4.30071 20.1245 3.87973 19.7043 3.61607 19.1869C3.44426 18.8497 3.37759 18.4928 3.34654 18.113C3.31622 17.742 3.31641 17.2861 3.31641 16.7386Z" fill="currentColor"/>
</svg>
