<svg width="24" height="24" viewBox="0 0 24 24" fill="none" xmlns="http://www.w3.org/2000/svg">
<path d="M7.80942 2.53906C8.07687 2.53906 8.32253 2.53912 8.52678 2.5558C8.73978 2.57321 8.97295 2.61273 9.20312 2.72991C9.5324 2.89769 9.80041 3.1657 9.96819 3.49498C10.0855 3.72521 10.1257 3.95824 10.1431 4.17132C10.1598 4.37569 10.159 4.62186 10.159 4.88951V18.9637H4.15903V4.88951C4.15903 4.62186 4.15824 4.37569 4.17494 4.17132C4.19236 3.95824 4.23258 3.72521 4.34988 3.49498C4.51766 3.1657 4.78567 2.89769 5.11495 2.72991C5.34512 2.61273 5.57829 2.57321 5.79129 2.5558C5.99554 2.53912 6.2412 2.53906 6.50864 2.53906H7.80942Z" fill="#7AD1AE"/>
<path fill-rule="evenodd" clip-rule="evenodd" d="M12.3094 6.14508C12.5769 6.14508 12.8225 6.14431 13.0268 6.16099C13.2398 6.17839 13.473 6.21877 13.7031 6.33593C14.0323 6.50367 14.3004 6.77182 14.4682 7.101C14.5854 7.33114 14.6257 7.56434 14.6431 7.77734C14.6598 7.98164 14.659 8.228 14.659 8.49553V9.74609H16.8094C17.0769 9.74609 17.3225 9.74532 17.5268 9.76199C17.7398 9.7794 17.9729 9.81974 18.2031 9.93694C18.5323 10.1047 18.8004 10.3728 18.9682 10.702C19.0854 10.9321 19.1257 11.1654 19.1431 11.3783C19.1598 11.5825 19.159 11.8284 19.159 12.0957V18.9637H20.5871C21.0013 18.9637 21.3371 19.2995 21.3371 19.7137C21.3371 20.1279 21.0013 20.4637 20.5871 20.4637H2.94531C2.5311 20.4637 2.19531 20.1279 2.19531 19.7137C2.19532 19.2995 2.5311 18.9637 2.94531 18.9637H13.159V8.49553C13.159 8.20334 13.1587 8.02863 13.1482 7.89955C13.1384 7.78089 13.1237 7.76606 13.1314 7.78152C13.1075 7.73479 13.0694 7.69658 13.0226 7.67271C13.0388 7.68091 13.0246 7.66661 12.9046 7.6568C12.7755 7.64627 12.6015 7.64508 12.3094 7.64508H10.159V6.14508H12.3094ZM14.659 18.9637H17.659V12.0957C17.659 11.8039 17.6587 11.6296 17.6482 11.5006C17.6384 11.3816 17.6236 11.3668 17.6314 11.3825C17.6075 11.3358 17.5694 11.2976 17.5226 11.2737C17.5387 11.2818 17.5245 11.2668 17.4046 11.257C17.2755 11.2464 17.1014 11.2461 16.8094 11.2461H14.659V18.9637Z" fill="#5EA3ED"/>
</svg>
