<svg width="24" height="24" viewBox="0 0 24 24" fill="none" xmlns="http://www.w3.org/2000/svg">
<path d="M18.3217 2.90359C18.6112 2.60748 19.086 2.60174 19.3823 2.89103C19.6784 3.1805 19.6841 3.65537 19.3948 3.95158L14.9216 8.52775C14.8462 8.60485 14.7592 8.69482 14.6772 8.76631C14.5882 8.84378 14.4597 8.94073 14.2846 9.00236C14.0532 9.08378 13.8026 9.09177 13.5664 9.0258C13.3876 8.97582 13.2526 8.88716 13.1588 8.8157C13.0722 8.74976 12.9795 8.66579 12.8993 8.59388L10.2056 6.17898L5.68052 10.8087C5.39106 11.1048 4.91619 11.1106 4.61998 10.8213C4.32387 10.5318 4.31813 10.0569 4.60742 9.76073L9.15765 5.10588C9.23305 5.02875 9.32078 4.93886 9.4029 4.86732C9.49181 4.78987 9.61964 4.69207 9.79464 4.63043C9.99712 4.55916 10.2146 4.54457 10.4241 4.58607L10.5137 4.60699L10.6392 4.65052C10.7569 4.69989 10.85 4.76347 10.9205 4.8171C11.0071 4.88307 11.1005 4.96692 11.1808 5.03891L13.8736 7.45298L18.3217 2.90359Z" fill="currentColor"/>
<path d="M18.1727 10.134C18.2803 10.134 18.406 10.1335 18.5151 10.1424C18.6328 10.152 18.7955 10.176 18.9646 10.2621C19.1863 10.3751 19.3672 10.556 19.4802 10.7777C19.5662 10.9468 19.5903 11.1094 19.5999 11.2272C19.6088 11.3362 19.6083 11.462 19.6083 11.5696V20.3277C19.6083 20.3572 19.6075 20.3881 19.6074 20.4197H15.5377C15.5375 20.3881 15.5368 20.3572 15.5368 20.3277V11.5696C15.5368 11.462 15.5363 11.3362 15.5452 11.2272C15.5524 11.1388 15.5677 11.0251 15.6113 10.9024L15.6649 10.7777L15.7109 10.6965C15.808 10.5382 15.9411 10.4052 16.0993 10.3081L16.1805 10.2621L16.3052 10.2085C16.4279 10.1648 16.5416 10.1496 16.63 10.1424C16.739 10.1335 16.8648 10.134 16.9724 10.134H18.1727Z" fill="currentColor"/>
<path d="M10.7129 10.134C10.8205 10.134 10.9462 10.1335 11.0552 10.1424C11.173 10.152 11.3357 10.176 11.5047 10.2621C11.7265 10.3751 11.9074 10.556 12.0204 10.7777C12.1064 10.9468 12.1304 11.1094 12.1401 11.2272C12.149 11.3362 12.1484 11.462 12.1484 11.5696V20.3277C12.1484 20.3572 12.1477 20.3881 12.1476 20.4197H8.07784C8.07771 20.3881 8.077 20.3572 8.077 20.3277V11.5696C8.077 11.462 8.07647 11.3362 8.08537 11.2272C8.0926 11.1388 8.10784 11.0251 8.1515 10.9024L8.20507 10.7777L8.25111 10.6965C8.34818 10.5382 8.48124 10.4052 8.6395 10.3081L8.7207 10.2621L8.84542 10.2085C8.96807 10.1648 9.08179 10.1496 9.17019 10.1424C9.27921 10.1335 9.40497 10.134 9.51255 10.134H10.7129Z" fill="currentColor"/>
<path d="M8.07701 13.8338V15.3162C8.04195 15.3212 8.00632 15.3254 7.96987 15.3254H6.14844V20.4197H12.1083V15.2618C12.1083 15.1542 12.1077 15.0277 12.1166 14.9186C12.1263 14.8008 12.1502 14.6381 12.2363 14.4691C12.3493 14.2474 12.5302 14.0673 12.752 13.9543C12.9211 13.8682 13.0836 13.8434 13.2015 13.8338C13.3105 13.8249 13.4362 13.8254 13.5438 13.8254H15.4297C15.4661 13.8254 15.5018 13.8288 15.5368 13.8338V15.3162C15.5018 15.3212 15.4661 15.3254 15.4297 15.3254H13.6083V20.4197H20.9492C21.3634 20.4197 21.6992 20.7555 21.6992 21.1697C21.6992 21.5839 21.3634 21.9197 20.9492 21.9197H2.94922C2.53501 21.9197 2.19922 21.5839 2.19922 21.1697C2.19922 20.7555 2.53501 20.4197 2.94922 20.4197H4.64844V15.2618C4.64844 15.1542 4.6479 15.0277 4.65681 14.9186C4.66645 14.8008 4.6904 14.6381 4.77651 14.4691C4.8895 14.2474 5.07038 14.0673 5.29213 13.9543C5.46128 13.8682 5.6238 13.8434 5.74163 13.8338C5.85064 13.8249 5.97641 13.8254 6.08398 13.8254H7.96987C8.00627 13.8254 8.04199 13.8288 8.07701 13.8338Z" fill="currentColor"/>
</svg>