<svg width="24" height="24" viewBox="0 0 24 24" fill="none" xmlns="http://www.w3.org/2000/svg">
<path d="M17.9004 16.4692C18.1933 16.1765 18.6681 16.1764 18.9609 16.4692L21.7031 19.2124C21.996 19.5053 21.996 19.9801 21.7031 20.2729L18.9609 23.0151C18.6681 23.308 18.1933 23.308 17.9004 23.0151C17.6075 22.7222 17.6075 22.2475 17.9004 21.9546L19.3623 20.4927H3C2.58579 20.4927 2.25 20.1569 2.25 19.7427C2.2502 19.3286 2.58591 18.9927 3 18.9927H19.3623L17.9004 17.5298C17.6075 17.2369 17.6075 16.7621 17.9004 16.4692Z" fill="#5EA3ED"/>
<path d="M19.8839 10.2327C20.979 10.2327 21.8673 11.1201 21.8673 12.2151C21.8673 13.3102 20.979 14.1985 19.8839 14.1985C18.7889 14.1984 17.9015 13.3102 17.9015 12.2151C17.9016 11.1201 18.7889 10.2328 19.8839 10.2327Z" fill="#B184EC"/>
<path d="M7.74972 15.4297H4.22829C3.94827 15.4297 3.80825 15.4297 3.7013 15.3752C3.60722 15.3273 3.53073 15.2508 3.48279 15.1567C3.42829 15.0497 3.42829 14.9097 3.42829 14.6297L3.42829 5.02969C3.42829 4.46964 3.42829 4.18961 3.53728 3.9757C3.63316 3.78753 3.78614 3.63456 3.9743 3.53868C4.18821 3.42969 4.46824 3.42969 5.02829 3.42969L6.94972 3.42969C7.50977 3.42969 7.7898 3.42969 8.00371 3.53868C8.19187 3.63455 8.34485 3.78753 8.44073 3.9757C8.54972 4.18961 8.54972 4.46963 8.54972 5.02969L8.54972 14.6297C8.54972 14.9097 8.54972 15.0497 8.49522 15.1567C8.44729 15.2508 8.3708 15.3273 8.27672 15.3752C8.16976 15.4297 8.02975 15.4297 7.74972 15.4297Z" fill="#7AD1AE"/>
<path d="M10.2843 6.10672C10.5519 6.10672 10.7978 6.10665 11.0021 6.12333C11.2152 6.14073 11.4486 6.1799 11.6789 6.29715C12.008 6.46485 12.2757 6.73273 12.4435 7.0618C12.5608 7.29199 12.6009 7.52552 12.6183 7.73856C12.635 7.94283 12.6349 8.18885 12.6349 8.45633V14.7425C12.6349 15.1565 12.2989 15.4922 11.8849 15.4925C11.4707 15.4925 11.1349 15.1567 11.1349 14.7425V8.45633C11.1349 8.16418 11.1337 7.9897 11.1232 7.86063C11.1134 7.74064 11.0992 7.72707 11.1076 7.74344C11.0836 7.69647 11.0451 7.65804 10.9982 7.63407C11.0143 7.64221 10.9999 7.62726 10.88 7.61747C10.7509 7.60693 10.5766 7.60672 10.2843 7.60672H9.19838C8.90622 7.60672 8.73175 7.60692 8.60268 7.61747C8.58201 7.61916 8.56469 7.62244 8.54994 7.6243V6.11942C8.73962 6.10769 8.96046 6.10672 9.19838 6.10672H10.2843Z" fill="#52C396"/>
<path d="M14.2843 8.67995C14.5518 8.67995 14.7978 8.6789 15.0021 8.69558C15.2152 8.71299 15.4486 8.75308 15.6789 8.87038C16.0081 9.03812 16.2757 9.30586 16.4435 9.63503C16.5608 9.86533 16.6009 10.0987 16.6183 10.3118C16.635 10.5161 16.6349 10.762 16.6349 11.0296V14.5725C16.6349 14.9866 16.2989 15.3223 15.8849 15.3225C15.4707 15.3225 15.1349 14.9867 15.1349 14.5725V11.0296C15.1349 10.7372 15.1337 10.563 15.1232 10.4339C15.1134 10.3142 15.0995 10.2997 15.1076 10.3157C15.0836 10.2689 15.045 10.2312 14.9982 10.2073C15.0141 10.2153 14.9996 10.2005 14.88 10.1907C14.7509 10.1802 14.5766 10.18 14.2843 10.18H13.1984C12.9298 10.18 12.7607 10.1805 12.6349 10.1887V8.68874C12.8044 8.68172 12.9952 8.67995 13.1984 8.67995H14.2843Z" fill="#7AD1AE"/>
<path d="M8.54994 7.6243C8.56469 7.62244 8.58201 7.61916 8.60268 7.61747C8.73175 7.60692 8.90622 7.60672 9.19838 7.60672H10.2843C10.5766 7.60672 10.7509 7.60693 10.88 7.61747C10.9999 7.62726 11.0143 7.64221 10.9982 7.63407C11.0451 7.65804 11.0836 7.69647 11.1076 7.74344C11.0992 7.72707 11.1134 7.74064 11.1232 7.86063C11.1337 7.9897 11.1349 8.16418 11.1349 8.45633V14.7425C11.1349 15.0512 11.3216 15.3149 11.588 15.43L7.74972 15.4297C8.02975 15.4297 8.16976 15.4297 8.27672 15.3752C8.3708 15.3273 8.44729 15.2508 8.49522 15.1567C8.54972 15.0497 8.54972 14.9097 8.54972 14.6297L8.54897 7.05497L8.54994 7.05399V7.6243Z" fill="#CCEDE0"/>
</svg>
