<svg width="24" height="24" viewBox="0 0 24 24" fill="none" xmlns="http://www.w3.org/2000/svg">
<path d="M17.6504 15.0391C17.9432 14.7467 18.4182 14.7466 18.7109 15.0391L21.4531 17.7822C21.7459 18.075 21.7458 18.5499 21.4531 18.8428L18.7109 21.585C18.4181 21.8778 17.9433 21.8778 17.6504 21.585C17.3577 21.292 17.3576 20.8172 17.6504 20.5244L19.1123 19.0625H2.75C2.33579 19.0625 2 18.7267 2 18.3125C2.00045 17.8987 2.33607 17.5625 2.75 17.5625H19.1123L17.6504 16.0996C17.3577 15.8067 17.3576 15.3319 17.6504 15.0391Z" fill="currentColor"/>
<path d="M6.7002 2C7.25993 2 7.54005 2.00041 7.75391 2.10938C7.94186 2.20522 8.0946 2.35793 8.19043 2.5459C8.2994 2.75976 8.2998 3.03982 8.2998 3.59961V4.68945C8.48944 4.67773 8.71038 4.67676 8.94824 4.67676H10.0342C10.3017 4.67676 10.5477 4.67669 10.752 4.69336C10.9649 4.71076 11.1986 4.75002 11.4287 4.86719C11.7577 5.03484 12.0256 5.3029 12.1934 5.63184C12.3106 5.86192 12.3507 6.09563 12.3682 6.30859C12.3848 6.51279 12.3848 6.75899 12.3848 7.02637V7.25879C12.5543 7.25177 12.7451 7.25 12.9482 7.25H14.0342C14.3016 7.25 14.5477 7.24896 14.752 7.26562C14.965 7.28303 15.1985 7.32321 15.4287 7.44043C15.7578 7.60812 16.0256 7.87603 16.1934 8.20508C16.3106 8.43527 16.3507 8.66879 16.3682 8.88184C16.3849 9.08611 16.3848 9.33211 16.3848 9.59961V13.1426C16.3848 13.5567 16.0488 13.8924 15.6348 13.8926C15.2206 13.8925 14.8848 13.5567 14.8848 13.1426V9.59961C14.8848 9.30744 14.8836 9.13298 14.873 9.00391C14.8633 8.88522 14.8497 8.87022 14.8574 8.88574C14.8335 8.83905 14.7948 8.80123 14.748 8.77734C14.7639 8.78535 14.7495 8.77051 14.6299 8.76074C14.5008 8.75022 14.3263 8.75 14.0342 8.75H12.9482C12.6798 8.75 12.5106 8.75057 12.3848 8.75879V13.3125C12.3848 13.7266 12.0488 14.0623 11.6348 14.0625C11.2206 14.0624 10.8848 13.7267 10.8848 13.3125V7.02637C10.8848 6.73439 10.8836 6.55969 10.873 6.43066C10.8633 6.31162 10.8494 6.29755 10.8574 6.31348C10.8335 6.26663 10.7949 6.22803 10.748 6.2041C10.7641 6.21225 10.7498 6.1973 10.6299 6.1875C10.5008 6.17698 10.3263 6.17676 10.0342 6.17676H8.94824C8.65616 6.17676 8.48159 6.17696 8.35254 6.1875C8.33193 6.1892 8.31452 6.19248 8.2998 6.19434V13.2002C8.2998 13.4798 8.29945 13.6197 8.24512 13.7266C8.19718 13.8206 8.12045 13.8974 8.02637 13.9453C7.91947 13.9997 7.77967 14 7.5 14H3.97852C3.69849 14 3.55813 13.9998 3.45117 13.9453C3.35717 13.8974 3.28033 13.8206 3.23242 13.7266C3.17819 13.6197 3.17871 13.4797 3.17871 13.2002V3.59961C3.17871 3.03982 3.17814 2.75976 3.28711 2.5459C3.38298 2.35774 3.53645 2.20525 3.72461 2.10938C3.93851 2.00043 4.21835 2 4.77832 2H6.7002Z" fill="currentColor"/>
<path d="M19.6338 8.80273C20.7288 8.80273 21.617 9.69023 21.6172 10.7852C21.6172 11.8803 20.7289 12.7686 19.6338 12.7686C18.5388 12.7684 17.6514 11.8802 17.6514 10.7852C17.6516 9.69032 18.5389 8.80289 19.6338 8.80273Z" fill="currentColor"/>
</svg>
