<svg width="24" height="24" viewBox="0 0 24 24" fill="none" xmlns="http://www.w3.org/2000/svg">
<path fill-rule="evenodd" clip-rule="evenodd" d="M8.87598 3.15039H16.9004C17.4481 3.15039 17.9043 3.14937 18.2754 3.17969C18.6551 3.21073 19.0115 3.27846 19.3486 3.4502C19.8661 3.71385 20.2871 4.13491 20.5508 4.65235C20.7225 4.98945 20.7893 5.34591 20.8203 5.72559C20.8506 6.09672 20.8506 6.55291 20.8506 7.10059V16.9004C20.8506 17.4481 20.8506 17.9043 20.8203 18.2754C20.7893 18.6551 20.7225 19.0115 20.5508 19.3486C20.2871 19.8661 19.8661 20.2871 19.3486 20.5508C19.0115 20.7225 18.6551 20.7893 18.2754 20.8203C17.9043 20.8506 17.4481 20.8506 16.9004 20.8506H7.10059C6.55292 20.8506 6.09672 20.8506 5.72559 20.8203C5.34591 20.7893 4.98945 20.7225 4.65235 20.5508C4.13491 20.2871 3.71385 19.8661 3.4502 19.3486C3.27846 19.0115 3.21074 18.6551 3.17969 18.2754C3.14937 17.9043 3.15039 17.4481 3.15039 16.9004V7.10059C3.15039 6.55292 3.14937 6.09672 3.17969 5.72559C3.21072 5.34586 3.27849 4.98949 3.4502 4.65235C3.71385 4.1349 4.1349 3.71385 4.65235 3.4502C4.98949 3.27849 5.34586 3.21072 5.72559 3.17969C6.09672 3.14937 6.55292 3.15039 7.10059 3.15039H8.87598ZM15.626 19.3506H16.9004C17.4728 19.3506 17.8574 19.3494 18.1533 19.3252C18.4401 19.3017 18.5775 19.26 18.668 19.2139C18.903 19.0941 19.0941 18.903 19.2139 18.668C19.26 18.5775 19.3017 18.4401 19.3252 18.1533C19.3494 17.8574 19.3506 17.4728 19.3506 16.9004V7.10059C19.3506 6.52816 19.3494 6.14354 19.3252 5.84766C19.3017 5.56071 19.26 5.42355 19.2139 5.33301C19.0941 5.09791 18.903 4.90696 18.668 4.78711C18.5775 4.74099 18.4402 4.69827 18.1533 4.67481C17.8574 4.65064 17.4728 4.65039 16.9004 4.65039H9.50098L15.626 19.3506ZM7.10059 4.65039C6.52817 4.65039 6.14354 4.65063 5.84766 4.67481C5.56067 4.69827 5.42355 4.74098 5.33301 4.78711C5.0979 4.90694 4.90694 5.0979 4.78711 5.33301C4.74098 5.42355 4.69827 5.56066 4.67481 5.84766C4.65063 6.14354 4.65039 6.52816 4.65039 7.10059V16.9004C4.65039 17.4728 4.65064 17.8574 4.67481 18.1533C4.69827 18.4402 4.74099 18.5775 4.78711 18.668C4.90696 18.903 5.09791 19.0941 5.33301 19.2139C5.42355 19.26 5.56071 19.3017 5.84766 19.3252C6.14354 19.3494 6.52817 19.3506 7.10059 19.3506H14.001L7.87598 4.65039H7.10059Z" fill="#52C396"/>
<path d="M19.3506 7.10059C19.3506 6.52816 19.3494 6.14354 19.3252 5.84766C19.3017 5.56071 19.26 5.42355 19.2139 5.33301C19.0941 5.09791 18.903 4.90696 18.668 4.78711C18.5775 4.74099 18.4402 4.69827 18.1533 4.67481C17.8574 4.65064 17.4728 4.65039 16.9004 4.65039H7.10059C6.52817 4.65039 6.14354 4.65063 5.84766 4.67481C5.56067 4.69827 5.42355 4.74098 5.33301 4.78711C5.0979 4.90694 4.90694 5.0979 4.78711 5.33301C4.74098 5.42355 4.69827 5.56066 4.67481 5.84766C4.65063 6.14354 4.65039 6.52816 4.65039 7.10059V16.9004C4.65039 17.4728 4.65064 17.8574 4.67481 18.1533C4.69827 18.4402 4.74099 18.5775 4.78711 18.668C4.90696 18.903 5.09791 19.0941 5.33301 19.2139C5.42355 19.26 5.56071 19.3017 5.84766 19.3252C6.14354 19.3494 6.52817 19.3506 7.10059 19.3506H16.9004C17.4728 19.3506 17.8574 19.3494 18.1533 19.3252C18.4401 19.3017 18.5775 19.26 18.668 19.2139C18.903 19.0941 19.0941 18.903 19.2139 18.668C19.26 18.5775 19.3017 18.4401 19.3252 18.1533C19.3494 17.8574 19.3506 17.4728 19.3506 16.9004V7.10059ZM20.8506 16.9004C20.8506 17.4481 20.8506 17.9043 20.8203 18.2754C20.7893 18.6551 20.7225 19.0115 20.5508 19.3486C20.2871 19.8661 19.8661 20.2871 19.3486 20.5508C19.0115 20.7225 18.6551 20.7893 18.2754 20.8203C17.9043 20.8506 17.4481 20.8506 16.9004 20.8506H7.10059C6.55292 20.8506 6.09672 20.8506 5.72559 20.8203C5.34591 20.7893 4.98945 20.7225 4.65235 20.5508C4.13491 20.2871 3.71385 19.8661 3.4502 19.3486C3.27846 19.0115 3.21074 18.6551 3.17969 18.2754C3.14937 17.9043 3.15039 17.4481 3.15039 16.9004V7.10059C3.15039 6.55292 3.14937 6.09672 3.17969 5.72559C3.21072 5.34586 3.27849 4.98949 3.4502 4.65235C3.71385 4.1349 4.1349 3.71385 4.65235 3.4502C4.98949 3.27849 5.34586 3.21072 5.72559 3.17969C6.09672 3.14937 6.55292 3.15039 7.10059 3.15039H16.9004C17.4481 3.15039 17.9043 3.14937 18.2754 3.17969C18.6551 3.21073 19.0115 3.27846 19.3486 3.4502C19.8661 3.71385 20.2871 4.13491 20.5508 4.65235C20.7225 4.98945 20.7893 5.34591 20.8203 5.72559C20.8506 6.09672 20.8506 6.55291 20.8506 7.10059V16.9004Z" fill="#52C396"/>
<path d="M9.49903 4.64942H16.8984C17.4708 4.64942 17.8555 4.64966 18.1514 4.67383C18.4382 4.6973 18.5755 4.74002 18.666 4.78614C18.9011 4.90598 19.0921 5.09694 19.2119 5.33204C19.2581 5.42257 19.2998 5.55973 19.3232 5.84668C19.3474 6.14256 19.3486 6.52719 19.3486 7.09961V9.45996H19.3555L12.7041 12.3106C12.7005 12.3121 12.6969 12.3138 12.6934 12.3154L9.49903 4.64942Z" fill="#BBD7F7"/>
<path d="M7.87598 4.65039L14.001 19.3506H7.10059C6.52817 19.3506 6.14354 19.3494 5.84766 19.3252C5.56071 19.3017 5.42355 19.26 5.33301 19.2139C5.09791 19.0941 4.90696 18.903 4.78711 18.668C4.74099 18.5775 4.69827 18.4402 4.67481 18.1533C4.65064 17.8574 4.65039 17.4728 4.65039 16.9004V7.10059C4.65039 6.52816 4.65063 6.14354 4.67481 5.84766C4.69827 5.56066 4.74098 5.42355 4.78711 5.33301C4.90694 5.0979 5.0979 4.90694 5.33301 4.78711C5.42355 4.74098 5.56067 4.69827 5.84766 4.67481C6.14354 4.65063 6.52817 4.65039 7.10059 4.65039H7.87598Z" fill="#CCEDE0"/>
<path d="M16.9004 3.15039C17.4481 3.15039 17.9043 3.14937 18.2754 3.17969C18.6551 3.21073 19.0115 3.27846 19.3486 3.4502C19.8661 3.71385 20.2871 4.13491 20.5508 4.65235C20.7225 4.98945 20.7893 5.34591 20.8203 5.72559C20.8506 6.09672 20.8506 6.55291 20.8506 7.10059L20.8506 9.46094H19.3506L19.3506 7.10059C19.3506 6.52816 19.3494 6.14354 19.3252 5.84766C19.3017 5.56071 19.26 5.42355 19.2139 5.33301C19.0941 5.09791 18.903 4.90696 18.668 4.78711C18.5775 4.74099 18.4402 4.69827 18.1533 4.67481C17.8574 4.65064 17.4728 4.65039 16.9004 4.65039H9.50098L8.87598 3.15039H16.9004Z" fill="#5EA3ED"/>
<path d="M19.3506 16.9004C19.3506 17.4725 19.3503 17.8556 19.3262 18.1514C19.3027 18.4385 19.261 18.5764 19.2149 18.667C19.095 18.9021 18.9031 19.0941 18.668 19.2139C18.5775 19.26 18.4401 19.3017 18.1533 19.3252C17.8574 19.3494 17.4728 19.3486 16.9004 19.3486H15.625L13.0615 13.1982H13.0635L13.2715 13.6973C13.2798 13.6941 13.2886 13.692 13.2969 13.6885L19.3506 11.0938L19.3506 16.9004Z" fill="#DECBF7"/>
<path d="M20.8506 16.9004C20.8506 17.4478 20.8516 17.9034 20.8213 18.2744C20.7903 18.6543 20.7226 19.0114 20.5508 19.3486C20.2872 19.8658 19.8667 20.2862 19.3496 20.5498C19.0124 20.7216 18.6553 20.7893 18.2754 20.8203C17.9043 20.8506 17.4481 20.8506 16.9004 20.8506L16.25 20.8496L15.625 19.3486H16.9004C17.4728 19.3486 17.8574 19.3494 18.1533 19.3252C18.4401 19.3017 18.5775 19.26 18.668 19.2139C18.9031 19.0941 19.095 18.9021 19.2149 18.667C19.261 18.5764 19.3027 18.4385 19.3262 18.1514C19.3503 17.8556 19.3506 17.4725 19.3506 16.9004L19.3506 11.0938L13.2969 13.6885C13.2886 13.692 13.2798 13.6941 13.2715 13.6973L12.6953 12.3145C12.6985 12.313 12.7009 12.3119 12.7041 12.3106L19.3506 9.46094V9.4336H20.8506L20.8506 16.9004Z" fill="#B184EC"/>
</svg>
