<svg width="24" height="24" viewBox="0 0 24 24" fill="none" xmlns="http://www.w3.org/2000/svg">
<path d="M18.6992 8.65039C18.9914 8.65039 19.1659 8.64922 19.2949 8.63867C19.4149 8.62884 19.4285 8.6147 19.4121 8.62305C19.4591 8.59911 19.4975 8.56063 19.5215 8.51367C19.5133 8.52979 19.5283 8.51545 19.5381 8.39551C19.5486 8.26641 19.5488 8.09202 19.5488 7.79981V5.59961C19.5488 5.30744 19.5486 5.13298 19.5381 5.00391C19.5283 4.88385 19.5131 4.87034 19.5215 4.88672C19.4975 4.83968 19.4592 4.80131 19.4121 4.77734C19.4285 4.78569 19.415 4.77058 19.2949 4.76074C19.1659 4.7502 18.9914 4.75 18.6992 4.75L5.39844 4.75C5.10627 4.75 4.9318 4.7502 4.80273 4.76074C4.68267 4.77058 4.66917 4.78569 4.68555 4.77734C4.63851 4.80131 4.60014 4.83968 4.57617 4.88672C4.58452 4.87034 4.5694 4.88384 4.55957 5.00391C4.54903 5.13298 4.54883 5.30744 4.54883 5.59961L4.54883 7.7998C4.54883 8.09202 4.54904 8.26641 4.55957 8.39551C4.56937 8.51544 4.58433 8.52979 4.57617 8.51367C4.60015 8.56063 4.63857 8.59911 4.68555 8.62305C4.66917 8.6147 4.68272 8.62884 4.80273 8.63867C4.9318 8.64922 5.10627 8.65039 5.39844 8.65039L18.6992 8.65039ZM5.39844 10.1504C5.13094 10.1504 4.88494 10.1505 4.68066 10.1338C4.46761 10.1164 4.23411 10.0763 4.00391 9.95898C3.67483 9.79119 3.40696 9.52347 3.23926 9.19434C3.12201 8.96411 3.08284 8.73064 3.06543 8.51758C3.04875 8.31325 3.04883 8.06735 3.04883 7.7998L3.04883 5.59961C3.04883 5.33211 3.04874 5.08611 3.06543 4.88184C3.08286 4.66879 3.12197 4.43527 3.23926 4.20508C3.40701 3.87597 3.6748 3.60818 4.00391 3.44043C4.23409 3.32314 4.46762 3.28403 4.68066 3.2666C4.88494 3.24991 5.13094 3.25 5.39844 3.25L18.6992 3.25C18.9667 3.25 19.2127 3.24991 19.417 3.2666C19.63 3.28403 19.8636 3.32314 20.0938 3.44043C20.4229 3.60818 20.6907 3.87597 20.8584 4.20508C20.9757 4.43527 21.0148 4.66879 21.0322 4.88184C21.0489 5.08611 21.0488 5.33211 21.0488 5.59961V7.79981C21.0488 8.06735 21.0489 8.31325 21.0322 8.51758C21.0148 8.73064 20.9757 8.96411 20.8584 9.19434C20.6907 9.52347 20.4228 9.79119 20.0938 9.95898C19.8636 10.0763 19.63 10.1164 19.417 10.1338C19.2127 10.1505 18.9667 10.1504 18.6992 10.1504L5.39844 10.1504Z" fill="currentColor"/>
<path fill-rule="evenodd" clip-rule="evenodd" d="M19.3327 10.2823C19.3494 10.4866 19.3493 10.7326 19.3493 11.0001V13.2003C19.3493 13.4678 19.3494 13.7137 19.3327 13.918C19.3153 14.1311 19.2761 14.3646 19.1589 14.5948C18.9912 14.9239 18.7233 15.1917 18.3942 15.3594C18.1641 15.4767 17.9305 15.5168 17.7175 15.5343C17.5974 15.5441 17.4629 15.5473 17.3181 15.5489C17.324 15.5943 17.3291 15.6389 17.3327 15.6827C17.3494 15.887 17.3493 16.133 17.3493 16.4005V18.2012C17.3493 18.4687 17.3494 18.7147 17.3327 18.919C17.3153 19.1321 17.2762 19.3656 17.1589 19.5958C16.9911 19.9249 16.7233 20.1927 16.3942 20.3604C16.1641 20.4777 15.9305 20.5168 15.7175 20.5343C15.5132 20.5509 15.2672 20.5509 14.9997 20.5509H9.19893C8.93144 20.5509 8.68542 20.5509 8.48115 20.5343C8.26812 20.5168 8.03457 20.4777 7.8044 20.3604C7.4753 20.1927 7.20749 19.9249 7.03975 19.5958C6.92247 19.3656 6.88335 19.1321 6.86592 18.919C6.84923 18.7147 6.84932 18.4687 6.84932 18.2012V16.4005C6.84932 16.133 6.84923 15.887 6.86592 15.6827C6.8695 15.6389 6.87369 15.5942 6.87959 15.5489C6.73516 15.5472 6.60096 15.544 6.48115 15.5343C6.26811 15.5168 6.03458 15.4767 5.8044 15.3594C5.47534 15.1917 5.20744 14.9239 5.03975 14.5948C4.9225 14.3646 4.88235 14.1311 4.86494 13.918C4.84827 13.7137 4.84932 13.4678 4.84932 13.2003V11.0001C4.84932 10.7326 4.84825 10.4866 4.86494 10.2823C4.86871 10.2363 4.87414 10.1894 4.88057 10.1417C5.03837 10.1472 5.21335 10.1504 5.39844 10.1504L7.19894 10.1505C6.90677 10.1505 6.73231 10.1507 6.60324 10.1612C6.48317 10.171 6.46967 10.1862 6.48605 10.1778C6.43901 10.2018 6.40064 10.2401 6.37667 10.2872C6.38502 10.2708 6.36991 10.2843 6.36007 10.4044C6.34953 10.5334 6.34933 10.7079 6.34933 11.0001V13.2003C6.34933 13.4925 6.34954 13.6669 6.36007 13.796C6.36987 13.9159 6.38483 13.9302 6.37667 13.9141C6.40065 13.9611 6.43907 13.9996 6.48605 14.0235C6.46967 14.0152 6.48322 14.0293 6.60324 14.0391C6.73231 14.0497 6.90677 14.0509 7.19894 14.0509H16.9997C17.2919 14.0509 17.4664 14.0497 17.5954 14.0391C17.7154 14.0293 17.729 14.0152 17.7126 14.0235C17.7596 13.9996 17.798 13.9611 17.822 13.9141C17.8138 13.9303 17.8288 13.9159 17.8386 13.796C17.8491 13.6669 17.8493 13.4925 17.8493 13.2003V11.0001C17.8493 10.7079 17.8491 10.5334 17.8386 10.4044C17.8288 10.2843 17.8136 10.2708 17.822 10.2872C17.798 10.2401 17.7597 10.2018 17.7126 10.1778C17.729 10.1862 17.7155 10.171 17.5954 10.1612C17.4664 10.1507 17.2919 10.1505 16.9997 10.1505L18.6992 10.1504C18.9246 10.1504 19.1343 10.1477 19.3171 10.1378C19.3237 10.1868 19.3288 10.235 19.3327 10.2823Z" fill="currentColor"/>
</svg>
