<svg width="24" height="24" viewBox="0 0 24 24" fill="none" xmlns="http://www.w3.org/2000/svg">
<path fill-rule="evenodd" clip-rule="evenodd" d="M12.4277 3.53516C15.1227 3.53516 17.562 4.63137 19.3259 6.39788L19.341 6.41127C21.352 8.21001 22.1786 10.6642 22.1786 13.2852C22.1785 15.6008 21.3679 17.7272 20.0198 19.399C19.8901 19.5598 19.7001 19.6601 19.4941 19.6761C19.2882 19.692 19.0845 19.6225 18.9316 19.4835L15.591 16.4459C15.3102 16.1904 15.2645 15.7657 15.4847 15.4565C15.9214 14.8431 16.1785 14.0951 16.1786 13.2852C16.1786 12.3334 15.8235 11.4662 15.2386 10.8041C15.2356 10.8009 15.2322 10.7982 15.2294 10.7949C14.5409 10.0211 13.5417 9.53516 12.4277 9.53516C10.3567 9.53516 8.67773 11.2141 8.67773 13.2852C8.67773 14.1083 8.94259 14.8674 9.39174 15.4858C9.6085 15.7842 9.57623 16.1959 9.31557 16.4568L6.11468 19.6585C5.96683 19.8063 5.76362 19.8851 5.55469 19.877C5.34574 19.8688 5.1498 19.7739 5.01395 19.615C3.55886 17.9122 2.67773 15.7012 2.67773 13.2852C2.67773 7.90038 7.04296 3.53516 12.4277 3.53516ZM12.4277 5.03516C7.87139 5.03516 4.17773 8.72881 4.17773 13.2852C4.17773 15.0369 4.72472 16.6587 5.65597 17.9944L7.83064 15.8198C7.41528 15.0682 7.17773 14.204 7.17773 13.2852C7.17773 10.3857 9.52824 8.03516 12.4277 8.03516C13.6912 8.03516 14.8494 8.48283 15.7542 9.22545L17.7832 7.01228C16.3414 5.77978 14.4725 5.03516 12.4277 5.03516ZM16.7704 10.3371C17.3419 11.1772 17.6777 12.1922 17.6777 13.2852C17.6777 14.1779 17.4528 15.0184 17.0592 15.7545L19.3209 17.8111C20.1771 16.5112 20.6777 14.958 20.6777 13.2852C20.6777 11.2503 20.1162 9.44698 18.8638 8.05357L16.7704 10.3371Z" fill="#5EA3ED"/>
<path d="M18.8638 8.05357C20.1162 9.44698 20.6777 11.2503 20.6777 13.2852C20.6777 14.958 20.1771 16.5112 19.3209 17.8111L17.0592 15.7545C17.4528 15.0184 17.6777 14.1779 17.6777 13.2852C17.6777 12.1922 17.3419 11.1772 16.7704 10.3371L18.8638 8.05357Z" fill="#BBD7F7"/>
<path d="M12.4269 11.6345C13.3381 11.6345 14.0766 12.3731 14.0767 13.2843C14.0767 14.1956 13.3382 14.9342 12.4269 14.9342C11.5157 14.9341 10.7771 14.1955 10.7771 13.2843C10.7772 12.3732 11.5158 11.6346 12.4269 11.6345Z" fill="#B184EC"/>
</svg>
