<svg width="24" height="24" viewBox="0 0 24 24" fill="none" xmlns="http://www.w3.org/2000/svg">
<path d="M7.19727 11.0996C9.68242 11.0996 11.6971 13.1145 11.6973 15.5996C11.6973 16.879 11.1155 17.9722 10.3857 18.9199C9.6648 19.856 8.70405 20.7666 7.83398 21.6367C7.66522 21.8053 7.43587 21.9003 7.19727 21.9003C6.95885 21.9002 6.73019 21.8052 6.56152 21.6367C5.69148 20.7666 4.7307 19.8559 4.00977 18.9199C3.27996 17.9722 2.69727 16.879 2.69727 15.5996C2.69748 13.1146 4.71229 11.0998 7.19727 11.0996Z" fill="currentColor"/>
<path d="M7.3125 14.2554C7.87976 14.3129 8.32207 14.7922 8.32227 15.3746C8.32227 15.9959 7.81859 16.4996 7.19727 16.4996C6.61488 16.4994 6.13562 16.0571 6.07812 15.4898L6.07227 15.3746L6.07812 15.2603C6.13554 14.693 6.61482 14.2498 7.19727 14.2496L7.3125 14.2554Z" fill="white"/>
<path fill-rule="evenodd" clip-rule="evenodd" d="M20.584 2.37595C20.8141 2.22258 21.1097 2.20847 21.3535 2.33885C21.5974 2.46936 21.75 2.72339 21.75 2.99998V17.4004C21.7499 17.651 21.6245 17.8854 21.416 18.0244L16.0156 21.624C15.8783 21.7155 15.7176 21.7548 15.5586 21.7461C15.5392 21.7476 15.5198 21.75 15.5 21.75C15.2732 21.75 15.0721 21.6474 14.9346 21.4883L11.6357 19.6553C11.2738 19.4541 11.1436 18.9977 11.3447 18.6357C11.5459 18.2738 12.0022 18.1436 12.3643 18.3447L14.75 19.6699V6.97752L9.75 4.1201V9.49998C9.74999 9.91418 9.41421 10.25 9 10.25C8.58579 10.25 8.25001 9.91418 8.25 9.49998V4.46287L3.75 7.03416V10.5C3.74998 10.9142 3.4142 11.25 3 11.25C2.5858 11.25 2.25002 10.9142 2.25 10.5V6.59959C2.25014 6.33066 2.39446 6.08269 2.62793 5.9492L8.92773 2.34861L9.0166 2.30564C9.22832 2.21919 9.47016 2.23345 9.67188 2.34861L15.5684 5.71873L20.584 2.37595ZM16.25 7.06638V19.664L20.25 16.998V4.40037L16.25 7.06638Z" fill="currentColor"/>
</svg>
