<svg width="24" height="24" viewBox="0 0 24 24" fill="none" xmlns="http://www.w3.org/2000/svg">
<path d="M16.1704 6.44388C17.6367 7.09058 17.7447 7.84294 17.0549 9.40703C16.3651 10.9711 15.3885 12.1883 13.9222 11.5416C12.4558 10.8949 11.8263 9.10267 12.5161 7.53857C13.2059 5.97448 14.704 5.79719 16.1704 6.44388Z" fill="currentColor"/>
<path d="M9.49883 4.65039C8.8872 5.72881 8.37193 6.91987 7.99297 8.14941C7.2144 10.6759 7.25486 12.4703 7.81328 13.7256C8.35426 14.9411 9.49357 15.8992 11.4998 16.5176C14.2177 17.355 17.2956 16.5201 19.3523 14.2363L19.3522 15.9004C17.0464 17.8591 13.9572 18.5292 11.1462 17.6631C6.84658 16.3378 5.30149 13.3146 6.70085 8.28711L6.84636 7.79492C7.18006 6.71224 7.61547 5.64829 8.13249 4.65039H9.49883Z" fill="currentColor"/>
<path d="M12.2554 4.65039C11.6106 5.41754 11.0465 6.33 10.6216 7.30469C9.89802 8.96493 9.84846 10.1365 10.1529 10.9717C10.4521 11.7917 11.1932 12.5596 12.6627 13.2002C15.027 14.2305 17.8006 13.6132 19.3522 11.5566V13.3057C17.4782 14.912 14.8231 15.3142 12.4928 14.4277L12.1823 14.3008C8.88951 12.8654 7.94217 10.4458 9.52019 6.8252C9.85253 6.06274 10.267 5.32632 10.7428 4.65039H12.2554Z" fill="currentColor"/>
<path d="M19.3523 7.10059C19.3523 6.52817 19.3511 6.14353 19.327 5.84766C19.3035 5.56078 19.2617 5.42354 19.2156 5.33301C19.0959 5.09796 18.9047 4.90696 18.6697 4.78711C18.5792 4.741 18.4418 4.69827 18.1551 4.6748C17.8592 4.65063 17.4745 4.65039 16.9022 4.65039L7.10254 4.65039C6.53011 4.65039 6.14549 4.65063 5.84961 4.67481C5.56261 4.69827 5.42551 4.74098 5.33496 4.78711C5.09985 4.90694 4.90889 5.0979 4.78907 5.33301C4.74293 5.42355 4.70022 5.56066 4.67676 5.84766C4.65259 6.14354 4.65235 6.52816 4.65235 7.10059V16.9004C4.65235 17.4728 4.65259 17.8574 4.67676 18.1533C4.70023 18.4402 4.74294 18.5775 4.78907 18.668C4.90891 18.903 5.09986 19.0941 5.33496 19.2139C5.4255 19.26 5.56266 19.3017 5.84961 19.3252C6.14549 19.3494 6.53012 19.3506 7.10254 19.3506H16.9023C17.4748 19.3506 17.8594 19.3494 18.1553 19.3252C18.4421 19.3017 18.5794 19.26 18.6699 19.2139C18.905 19.0941 19.096 18.903 19.2158 18.668C19.2619 18.5775 19.3037 18.4401 19.3272 18.1533C19.3513 17.8574 19.3525 17.4728 19.3525 16.9004L19.3523 7.10059ZM20.8525 16.9004C20.8525 17.4481 20.8526 17.9043 20.8223 18.2754C20.7912 18.6551 20.7244 19.0115 20.5527 19.3486C20.2891 19.8661 19.868 20.2871 19.3506 20.5508C19.0135 20.7225 18.657 20.7893 18.2773 20.8203C17.9062 20.8506 17.45 20.8506 16.9023 20.8506H7.10254C6.55487 20.8506 6.09867 20.8506 5.72754 20.8203C5.34786 20.7893 4.9914 20.7225 4.6543 20.5508C4.13686 20.2871 3.7158 19.8661 3.45215 19.3486C3.28041 19.0115 3.21269 18.6551 3.18164 18.2754C3.15132 17.9043 3.15235 17.4481 3.15235 16.9004V7.10059C3.15235 6.55291 3.15132 6.09672 3.18164 5.72559C3.21268 5.34586 3.28044 4.98949 3.45215 4.65235C3.7158 4.1349 4.13686 3.71385 4.6543 3.4502C4.99144 3.27849 5.34781 3.21072 5.72754 3.17969C6.09867 3.14937 6.55487 3.15039 7.10254 3.15039H16.9023C17.45 3.15039 17.9062 3.14937 18.2773 3.17969C18.6571 3.21074 19.0135 3.27846 19.3506 3.4502C19.868 3.71385 20.2891 4.1349 20.5527 4.65235C20.7244 4.98945 20.7912 5.34591 20.8223 5.72559C20.8526 6.09672 20.8525 6.55291 20.8525 7.10059V16.9004Z" fill="currentColor"/>
</svg>
