<svg width="24" height="24" viewBox="0 0 24 24" fill="none" xmlns="http://www.w3.org/2000/svg">
<path d="M3.3125 16.7386V4.06055C3.3125 3.64633 3.64829 3.31055 4.0625 3.31055C4.47671 3.31055 4.8125 3.64633 4.8125 4.06055V16.7386C4.8125 17.3108 4.81344 17.695 4.83761 17.9908C4.86107 18.2778 4.9028 18.415 4.94894 18.5056C5.06876 18.7407 5.25957 18.9323 5.4947 19.0522C5.58526 19.0983 5.7232 19.14 6.01032 19.1635C6.30616 19.1877 6.69035 19.1878 7.26256 19.1878H19.9397C20.3538 19.1878 20.6895 19.5237 20.6897 19.9378C20.6897 20.352 20.3539 20.6878 19.9397 20.6878H7.26256C6.71502 20.6878 6.25919 20.6888 5.88811 20.6585C5.50823 20.6274 5.15144 20.56 4.81417 20.3881C4.2968 20.1245 3.87582 19.7043 3.61217 19.1869C3.44035 18.8497 3.37368 18.4928 3.34263 18.113C3.31232 17.742 3.3125 17.2861 3.3125 16.7386Z" fill="currentColor"/>
<path d="M18.5117 7.95705C18.795 7.65514 19.2693 7.63972 19.5714 7.92273C19.8737 8.20594 19.889 8.68101 19.6058 8.98328L16.1529 12.6688C16.0667 12.7609 15.8857 12.9737 15.639 13.0865C15.45 13.1729 15.2415 13.2081 15.0346 13.1895C14.7642 13.1651 14.5229 13.0249 14.411 12.9668L11.5717 11.4919L8.13897 15.1574C7.85576 15.4597 7.38069 15.4749 7.07842 15.1917C6.77653 14.9085 6.76107 14.4341 7.0441 14.132L10.4969 10.4464C10.5831 10.3545 10.764 10.1417 11.0109 10.0288C11.1999 9.94234 11.4083 9.90636 11.6153 9.92496C11.8857 9.94933 12.127 10.0904 12.2389 10.1485L15.0773 11.6217L18.5117 7.95705Z" fill="currentColor"/>
</svg>
