<svg width="24" height="24" viewBox="0 0 24 24" fill="none" xmlns="http://www.w3.org/2000/svg">
<path d="M4.24891 11.997V6.44066L3.43027 7.01405C3.09102 7.25152 2.62322 7.16902 2.38563 6.82989C2.14814 6.49063 2.23062 6.02283 2.56978 5.78525L4.56867 4.3857C4.79774 4.22534 5.09742 4.20554 5.34545 4.33464C5.5935 4.46378 5.74891 4.72044 5.74891 5.00009V11.997C5.74881 12.4112 5.41306 12.747 4.99891 12.747C4.58484 12.7469 4.24901 12.4111 4.24891 11.997Z" fill="#5EA3ED"/>
<path d="M12.7478 7.00233C12.7478 6.71363 12.6435 6.42887 12.4523 6.20545C12.2465 5.97437 11.9682 5.81983 11.663 5.76851C11.3559 5.71694 11.0401 5.77269 10.769 5.92588C10.5037 6.07832 10.305 6.31688 10.2065 6.59384C10.0677 6.9841 9.63917 7.18792 9.24891 7.0492C8.85866 6.91044 8.65484 6.48187 8.79355 6.09161C9.01459 5.46995 9.45444 4.94913 10.0274 4.62175L10.0307 4.62007C10.601 4.29774 11.2647 4.18104 11.9107 4.28944C12.4762 4.38441 12.9985 4.64707 13.4107 5.04027L13.5807 5.21689L13.5865 5.22359L13.738 5.41611C14.0687 5.87827 14.2478 6.43412 14.2478 7.00233C14.2478 7.97998 13.7054 8.67358 13.1161 9.14769C12.5415 9.60989 11.8302 9.93861 11.3189 10.1798C10.8274 10.4117 10.6085 10.5875 10.4819 10.7833C10.4134 10.8893 10.3528 11.0334 10.3103 11.2504H13.4978C13.912 11.2504 14.2478 11.5862 14.2478 12.0004C14.2476 12.4145 13.9119 12.7504 13.4978 12.7504H9.50003C9.08591 12.7504 8.75018 12.4145 8.75003 12.0004C8.75003 11.1913 8.86605 10.5208 9.22296 9.96884C9.58108 9.41505 10.1117 9.0907 10.6794 8.82292C11.2276 8.56437 11.7662 8.30814 12.1761 7.97833C12.5712 7.66038 12.7478 7.35399 12.7478 7.00233Z" fill="#5EA3ED"/>
<path d="M17.0512 4.70266C17.9891 4.15108 19.0087 4.12646 19.8185 4.50847C20.6225 4.88781 21.2114 5.67479 21.2114 6.64798C21.2113 7.29566 20.9566 7.91592 20.5049 8.379C20.9565 8.84204 21.2104 9.46245 21.2106 10.11C21.2106 11.1781 20.6102 12.099 19.6863 12.5149C18.7485 12.9367 17.5944 12.7946 16.5473 12.0093C16.2163 11.7608 16.1492 11.2901 16.3975 10.9588C16.646 10.6276 17.1167 10.5607 17.448 10.809C18.1317 11.3217 18.7094 11.3092 19.0702 11.1471C19.4448 10.9786 19.7106 10.6002 19.7106 10.11C19.7104 9.84989 19.6074 9.60007 19.4234 9.41611C19.2394 9.23217 18.9889 9.129 18.7287 9.129C18.6512 9.12892 18.5764 9.11741 18.506 9.09552C18.459 9.08085 18.4138 9.06177 18.3713 9.0386C18.1376 8.91153 17.9787 8.6636 17.9787 8.379C17.9787 7.99078 18.2744 7.67173 18.6525 7.63319L18.7287 7.629C18.9888 7.629 19.2394 7.52577 19.4234 7.34189C19.6074 7.1579 19.7113 6.90817 19.7114 6.64798C19.7114 6.32276 19.5211 6.02712 19.1782 5.86533C18.841 5.7063 18.3451 5.6819 17.8113 5.99591C17.4544 6.20559 16.9951 6.08637 16.7851 5.72973C16.5751 5.37271 16.6942 4.91267 17.0512 4.70266Z" fill="#5EA3ED"/>
<path fill-rule="evenodd" clip-rule="evenodd" d="M19.7149 15.5358C21.0759 15.5358 22.1792 16.6391 22.1792 18.0001C22.1792 19.3611 21.0759 20.4644 19.7149 20.4644H5.14344C3.78245 20.4644 2.67916 19.3611 2.67916 18.0001C2.67916 16.6391 3.78245 15.5358 5.14344 15.5358H19.7149ZM5.14344 17.0358C4.61088 17.0358 4.17916 17.4675 4.17916 18.0001C4.17916 18.5327 4.61088 18.9644 5.14344 18.9644H15.5363V17.0358H5.14344Z" fill="#52C396"/>
<path d="M19.7149 18.9644H17.0363V17.0358H19.7149C20.2474 17.0358 20.6792 17.4675 20.6792 18.0001C20.6792 18.5327 20.2474 18.9644 19.7149 18.9644Z" fill="#CCEDE0"/>
</svg>
