<svg width="24" height="24" viewBox="0 0 24 24" fill="none" xmlns="http://www.w3.org/2000/svg">
<path fill-rule="evenodd" clip-rule="evenodd" d="M16.9004 3.15039C17.4481 3.15039 17.9043 3.14937 18.2754 3.17969C18.6551 3.21073 19.0115 3.27847 19.3486 3.4502C19.8661 3.71385 20.2871 4.13491 20.5508 4.65235C20.7225 4.98944 20.7893 5.34592 20.8203 5.72559C20.8506 6.09672 20.8506 6.55292 20.8506 7.10059V16.9004C20.8506 17.4481 20.8506 17.9043 20.8203 18.2754C20.7893 18.6551 20.7225 19.0115 20.5508 19.3486C20.2871 19.8661 19.8661 20.2871 19.3486 20.5508C19.0115 20.7225 18.6551 20.7893 18.2754 20.8203C17.9043 20.8506 17.4481 20.8506 16.9004 20.8506H7.10059C6.55292 20.8506 6.09672 20.8506 5.72559 20.8203C5.34592 20.7893 4.98944 20.7225 4.65235 20.5508C4.13491 20.2871 3.71385 19.8661 3.4502 19.3486C3.27847 19.0115 3.21073 18.6551 3.17969 18.2754C3.14937 17.9043 3.15039 17.4481 3.15039 16.9004V7.10059C3.15039 6.55292 3.14937 6.09672 3.17969 5.72559C3.21072 5.34586 3.27849 4.98949 3.4502 4.65235C3.71385 4.13491 4.13491 3.71385 4.65235 3.4502C4.98949 3.27849 5.34586 3.21072 5.72559 3.17969C6.09672 3.14937 6.55292 3.15039 7.10059 3.15039H16.9004ZM10.0508 19.3506H16.9004C17.4728 19.3506 17.8574 19.3494 18.1533 19.3252C18.4401 19.3017 18.5775 19.26 18.668 19.2139C18.903 19.0941 19.0941 18.903 19.2139 18.668C19.26 18.5775 19.3017 18.4401 19.3252 18.1533C19.3494 17.8574 19.3506 17.4728 19.3506 16.9004V12.75H10.0508V19.3506ZM10.0508 11.25H19.3506V7.10059C19.3506 6.52817 19.3494 6.14354 19.3252 5.84766C19.3017 5.56072 19.26 5.42354 19.2139 5.33301C19.0941 5.09792 18.903 4.90696 18.668 4.78711C18.5775 4.74099 18.4402 4.69827 18.1533 4.67481C17.8574 4.65064 17.4728 4.65039 16.9004 4.65039H10.0508V11.25Z" fill="currentColor"/>
<path d="M4.67481 18.1533C4.65064 17.8575 4.6504 17.4728 4.6504 16.9004V12.75H8.55079V19.3506H7.10059C6.52817 19.3506 6.14354 19.3494 5.84766 19.3252C5.56071 19.3017 5.42355 19.26 5.33302 19.2139C5.09792 19.0941 4.90696 18.903 4.78712 18.668C4.741 18.5775 4.69828 18.4402 4.67481 18.1533Z" fill="currentColor"/>
<path d="M5.84766 4.67481C6.14354 4.65064 6.52817 4.6504 7.10059 4.6504H8.55079V11.25H4.6504V7.10059C4.6504 6.52817 4.65064 6.14354 4.67481 5.84766C4.69827 5.56067 4.74098 5.42356 4.78712 5.33302C4.90694 5.0979 5.0979 4.90694 5.33302 4.78712C5.42356 4.74098 5.56067 4.69827 5.84766 4.67481Z" fill="currentColor"/>
<path d="M17.1417 7.47856C17.556 7.47856 17.8917 7.81435 17.8917 8.22856C17.8917 8.64277 17.556 8.97856 17.1417 8.97856H11.9992C11.585 8.97856 11.2492 8.64277 11.2492 8.22856C11.2492 7.81435 11.585 7.47856 11.9992 7.47856H17.1417Z" fill="currentColor"/>
<path d="M17.1417 15.5357C17.556 15.5357 17.8917 15.8715 17.8917 16.2857C17.8917 16.6999 17.556 17.0357 17.1417 17.0357H11.9992C11.585 17.0357 11.2492 16.6999 11.2492 16.2857C11.2492 15.8715 11.585 15.5357 11.9992 15.5357H17.1417Z" fill="currentColor"/>
</svg>
