<svg width="24" height="24" viewBox="0 0 24 24" fill="none" xmlns="http://www.w3.org/2000/svg">
<path d="M20.0714 12.0006C20.0714 7.54314 16.458 3.92969 12.0006 3.92969C7.54315 3.9297 3.9297 7.54315 3.92969 12.0006C3.92969 16.458 7.54314 20.0714 12.0006 20.0714C16.458 20.0714 20.0714 16.458 20.0714 12.0006ZM21.5714 12.0006C21.5714 17.2864 17.2864 21.5714 12.0006 21.5714C6.71471 21.5714 2.42969 17.2864 2.42969 12.0006C2.4297 6.71472 6.71472 2.4297 12.0006 2.42969C17.2864 2.42969 21.5714 6.71471 21.5714 12.0006Z" fill="#5EA3ED"/>
<path d="M12 3.17969C13.1584 3.17969 14.3054 3.40785 15.3756 3.85114C16.4458 4.29443 17.4182 4.94417 18.2373 5.76327C19.0564 6.58237 19.7062 7.55478 20.1495 8.62498C20.5927 9.69518 20.8209 10.8422 20.8209 12.0006L12 12.0006V3.17969Z" fill="#CCEDE0"/>
<path d="M12.0006 2.42969C13.2574 2.42969 14.5018 2.67694 15.6629 3.15792C16.8241 3.6389 17.8789 4.34429 18.7676 5.23298C19.6563 6.12167 20.3617 7.1765 20.8426 8.33761C21.3236 9.4988 21.5714 10.7437 21.5714 12.0006L21.5709 12.7506H12C11.5858 12.7506 11.25 12.4148 11.25 12.0006V2.42969H12.0006ZM12.75 11.2506H20.0349C19.9599 10.4479 19.7661 9.65924 19.4565 8.91183C19.0509 7.93269 18.4564 7.04294 17.707 6.29353C16.9576 5.54411 16.0679 4.94968 15.0887 4.54408C14.3413 4.23449 13.5527 4.04061 12.75 3.96568V11.2506Z" fill="#52C396"/>
</svg>
