<svg width="24" height="24" viewBox="0 0 24 24" fill="none" xmlns="http://www.w3.org/2000/svg">
<path d="M17.0523 11.5742C17.2857 11.3446 17.6606 11.3448 17.8941 11.5742L19.5836 13.2373C19.8198 13.4697 19.8228 13.8498 19.5904 14.0859C19.3579 14.3217 18.9778 14.3251 18.7418 14.0928L18.0465 13.4082V16.3594C18.0465 17.2429 17.3304 17.9588 16.4469 17.959H13.4879L14.1129 18.5742C14.3489 18.8067 14.3521 19.1867 14.1197 19.4228C13.8873 19.6586 13.5071 19.6618 13.2711 19.4297L11.5816 17.7666C11.4671 17.6539 11.403 17.4995 11.4029 17.3389C11.4029 17.1781 11.4671 17.0239 11.5816 16.9111L13.2711 15.248C13.5072 15.0156 13.8873 15.0188 14.1197 15.2549C14.352 15.4911 14.349 15.8711 14.1129 16.1035L13.4459 16.7598H16.4469C16.6676 16.7596 16.8463 16.5802 16.8463 16.3594V13.4609L16.2047 14.0928C15.9685 14.3249 15.5884 14.322 15.356 14.0859C15.1239 13.8498 15.127 13.4697 15.3629 13.2373L17.0523 11.5742Z" fill="currentColor"/>
<path fill-rule="evenodd" clip-rule="evenodd" d="M16.9043 3.15039C17.452 3.15039 17.9082 3.14937 18.2793 3.17969C18.659 3.21073 19.0154 3.27847 19.3525 3.4502C19.87 3.71385 20.291 4.13492 20.5547 4.65235C20.7264 4.98944 20.7932 5.34592 20.8242 5.72559C20.8545 6.09671 20.8545 6.55292 20.8545 7.10059V9.26075C20.8551 9.27338 20.8564 9.28605 20.8564 9.29883C20.8564 9.45496 20.8083 9.59967 20.7266 9.71973C20.5918 9.9194 20.3634 10.0507 20.1045 10.0508C20.0917 10.0508 20.079 10.0495 20.0664 10.0488H10.0566V20.0996C10.0565 20.4086 9.86952 20.6742 9.60254 20.7891C9.51124 20.8286 9.41052 20.8506 9.30469 20.8506H7.1045C6.55683 20.8506 6.10062 20.8506 5.7295 20.8203C5.34983 20.7893 4.99335 20.7225 4.65625 20.5508C4.13882 20.2871 3.71775 19.8661 3.45411 19.3486C3.28237 19.0115 3.21464 18.6551 3.1836 18.2754C3.15328 17.9043 3.1543 17.4481 3.1543 16.9004V7.10059C3.1543 6.55292 3.15328 6.09671 3.1836 5.72559C3.21463 5.34587 3.2824 4.98948 3.45411 4.65235C3.71776 4.13491 4.13882 3.71385 4.65625 3.4502C4.99339 3.27849 5.34977 3.21072 5.7295 3.17969C6.10062 3.14937 6.55683 3.15039 7.1045 3.15039H16.9043ZM4.6543 16.9004C4.6543 17.4728 4.65454 17.8574 4.67872 18.1533C4.70218 18.4402 4.7449 18.5775 4.79102 18.668C4.91086 18.903 5.10183 19.0941 5.33692 19.2139C5.42745 19.26 5.56463 19.3017 5.85157 19.3252C6.14744 19.3494 6.53208 19.3506 7.1045 19.3506H8.55664V15.4512H4.6543V16.9004ZM4.6543 13.9512H8.55664V10.0488H4.6543V13.9512Z" fill="currentColor"/>
<path d="M5.85102 4.67481C6.1469 4.65064 6.53153 4.6504 7.10395 4.6504H16.9038C17.4762 4.6504 17.8608 4.65064 18.1567 4.67481C18.4435 4.69828 18.5808 4.741 18.6713 4.78712C18.9064 4.90696 19.0974 5.09792 19.2172 5.33302C19.2634 5.42355 19.3051 5.56072 19.3286 5.84766C19.3527 6.14354 19.354 6.52817 19.354 7.10059V8.54884H4.65376V7.10059C4.65376 6.52818 4.654 6.14354 4.67817 5.84766C4.70163 5.56068 4.74434 5.42356 4.79047 5.33302C4.9103 5.0979 5.10126 4.90694 5.33637 4.78712C5.42691 4.74099 5.56403 4.69827 5.85102 4.67481Z" fill="currentColor"/>
</svg>
