<svg width="24" height="24" viewBox="0 0 24 24" fill="none" xmlns="http://www.w3.org/2000/svg">
<path d="M8.31152 4.65055L14.8447 19.3507H13.4004C12.9862 19.3507 12.6505 19.6866 12.6504 20.1007C12.6504 20.2805 12.7167 20.4432 12.8223 20.5724H9L6.88477 20.4201C6.64015 20.4025 6.41474 20.2808 6.26562 20.0861L4.46191 17.7316C4.34737 17.582 4.28518 17.3985 4.28516 17.2101V10.2492C4.29036 10.2493 4.29555 10.2502 4.30078 10.2502C4.71499 10.2502 5.05078 9.91437 5.05078 9.50016V7.10075C5.05078 6.52841 5.05102 6.14367 5.0752 5.84782C5.09866 5.56093 5.14138 5.42369 5.1875 5.33317C5.30733 5.09811 5.49832 4.90707 5.7334 4.78727C5.82394 4.74115 5.96111 4.69842 6.24805 4.67496C6.54392 4.65079 6.92856 4.65055 7.50098 4.65055H8.31152Z" fill="#CCEDE0"/>
<path d="M20.5381 19.9435C20.4379 20.3056 20.1078 20.5724 19.7139 20.5724H19.7031C19.7183 20.5651 19.7339 20.5586 19.749 20.5509C20.0491 20.398 20.3147 20.1904 20.5381 19.9435Z" fill="#CCEDE0"/>
<path d="M19.751 16.9005C19.751 17.4729 19.7497 17.8576 19.7256 18.1535C19.7021 18.4402 19.6604 18.5776 19.6143 18.6681C19.4945 18.9032 19.3034 19.0942 19.0684 19.214C18.9778 19.2601 18.8405 19.3019 18.5537 19.3254C18.2578 19.3495 17.8732 19.3507 17.3008 19.3507H16.4873L13.8623 13.4455L19.751 10.922V16.9005Z" fill="#CCEDE0"/>
<path d="M17.3008 4.65055C17.8732 4.65055 18.2578 4.65079 18.5537 4.67496C18.8405 4.69842 18.9778 4.74116 19.0684 4.78727C19.3034 4.90709 19.4945 5.09813 19.6143 5.33317C19.6604 5.42368 19.7021 5.56097 19.7256 5.84782C19.7498 6.14367 19.751 6.52841 19.751 7.10075V9.29215C19.7347 9.29784 19.7182 9.30382 19.7021 9.31071L13.2529 12.0744L9.95312 4.65055H17.3008Z" fill="#CCEDE0"/>
<path d="M7.19727 11.0998C9.68242 11.0998 11.6971 13.1147 11.6973 15.5998C11.6973 16.8792 11.1155 17.9725 10.3857 18.9201C9.6648 19.8562 8.70405 20.7668 7.83398 21.6369C7.66522 21.8055 7.43587 21.9005 7.19727 21.9005C6.95885 21.9004 6.73019 21.8054 6.56152 21.6369C5.69148 20.7668 4.7307 19.8561 4.00977 18.9201C3.27996 17.9725 2.69727 16.8792 2.69727 15.5998C2.69748 13.1148 4.71229 11.1 7.19727 11.0998Z" fill="#B184EC"/>
<path d="M7.31278 14.2557C7.88004 14.3132 8.32235 14.7924 8.32254 15.3748C8.32254 15.9961 7.81886 16.4998 7.19754 16.4998C6.61516 16.4996 6.1359 16.0573 6.0784 15.4901L6.07254 15.3748L6.0784 15.2606C6.13581 14.6932 6.61509 14.25 7.19754 14.2498L7.31278 14.2557Z" fill="white"/>
<path fill-rule="evenodd" clip-rule="evenodd" d="M8.79687 3.15047H17.3008C17.8484 3.15047 18.3047 3.14945 18.6758 3.17977C19.0555 3.21081 19.4119 3.27855 19.749 3.45027C20.2664 3.71391 20.6875 4.13501 20.9512 4.65242C21.1228 4.9895 21.1897 5.34602 21.2207 5.72567C21.251 6.09678 21.251 6.55303 21.251 7.10067V16.9005C21.251 17.4481 21.251 17.9044 21.2207 18.2755C21.1897 18.6551 21.1228 19.0116 20.9512 19.3487C20.6875 19.8661 20.2665 20.2873 19.749 20.5509C19.4119 20.7226 19.0554 20.7893 18.6758 20.8204C18.3046 20.8507 17.8485 20.8507 17.3008 20.8507H13.4004C12.9862 20.8507 12.6505 20.5149 12.6504 20.1007C12.6505 19.6866 12.9862 19.3507 13.4004 19.3507H14.8447L8.31152 4.65055H7.50098C6.92856 4.65055 6.54392 4.65079 6.24805 4.67496C5.96111 4.69842 5.82394 4.74115 5.7334 4.78727C5.49832 4.90707 5.30733 5.09811 5.1875 5.33317C5.14138 5.42369 5.09866 5.56093 5.0752 5.84782C5.05102 6.14367 5.05078 6.52841 5.05078 7.10075V9.50016C5.05078 9.91437 4.71499 10.2502 4.30078 10.2502C3.88657 10.2502 3.55078 9.91429 3.55078 9.50008V7.10067C3.55078 6.55303 3.54975 6.09678 3.58007 5.72567C3.61111 5.34596 3.67888 4.98954 3.85058 4.65242C4.11424 4.13501 4.53531 3.71392 5.05273 3.45027C5.38986 3.27857 5.74625 3.2108 6.12597 3.17977C6.4971 3.14944 6.9533 3.15047 7.50097 3.15047H8.77734C8.78386 3.15028 8.79036 3.15049 8.79687 3.15047ZM13.8623 13.4455L16.4873 19.3507H17.3008C17.8732 19.3507 18.2578 19.3495 18.5537 19.3254C18.8405 19.3019 18.9778 19.2601 19.0684 19.214C19.3034 19.0942 19.4945 18.9032 19.6143 18.6681C19.6604 18.5776 19.7021 18.4402 19.7256 18.1535C19.7497 17.8576 19.751 17.4729 19.751 16.9005V10.922L13.8623 13.4455ZM13.2529 12.0744L19.7021 9.31071C19.7182 9.30382 19.7347 9.29784 19.751 9.29215V7.10075C19.751 6.52841 19.7498 6.14367 19.7256 5.84782C19.7021 5.56097 19.6604 5.42368 19.6143 5.33317C19.4945 5.09813 19.3034 4.90709 19.0684 4.78727C18.9778 4.74116 18.8405 4.69842 18.5537 4.67496C18.2578 4.65079 17.8732 4.65055 17.3008 4.65055H9.95312L13.2529 12.0744Z" fill="#52C396"/>
</svg>
