<svg width="24" height="24" viewBox="0 0 24 24" fill="none" xmlns="http://www.w3.org/2000/svg">
<path fill-rule="evenodd" clip-rule="evenodd" d="M21.4341 16.0717C21.6046 16.3654 21.784 16.6712 21.907 16.9364C22.0277 17.1967 22.2008 17.6308 22.1464 18.1518C22.0804 18.7825 21.7478 19.3546 21.2357 19.7263C20.9186 19.9561 20.5797 20.0525 20.3099 20.0971L20.0663 20.1272C19.9209 20.1405 19.759 20.1469 19.5917 20.1498L19.0803 20.1523H5.75608C5.41626 20.1523 5.06113 20.1538 4.77003 20.1272C4.48513 20.1011 4.02298 20.0329 3.59983 19.7263C3.08798 19.3548 2.75603 18.7827 2.68995 18.1518C2.63541 17.6296 2.81031 17.1949 2.93019 16.9364L3.03147 16.7313C3.14129 16.5202 3.27374 16.2932 3.40228 16.0717L4.67293 13.882L4.88889 13.5086H19.9466L21.4341 16.0717ZM5.75189 15.0086L4.69804 16.8251C4.55982 17.0632 4.44883 17.256 4.3649 17.4168L4.28956 17.5675C4.20237 17.7556 4.17008 17.8861 4.18158 17.9961C4.20324 18.2021 4.31174 18.3902 4.48041 18.5126C4.57069 18.5778 4.70036 18.6151 4.90563 18.6339C5.10711 18.6524 5.37198 18.6524 5.72846 18.6523H19.1054C19.4623 18.6524 19.7273 18.6524 19.9291 18.6339C20.1339 18.6152 20.2638 18.5779 20.3543 18.5126L20.4154 18.4632C20.5491 18.3426 20.6341 18.1765 20.6531 17.9961C20.6647 17.8849 20.6324 17.7538 20.546 17.5675C20.4598 17.3818 20.3248 17.1499 20.1425 16.8359L20.1367 16.8251L19.0828 15.0086H5.75189Z" fill="#5EA3ED"/>
<path d="M4.3649 17.4168C4.44883 17.256 4.55982 17.0632 4.69804 16.8251L5.75189 15.0086H19.0828L20.1367 16.8251L20.1425 16.8359C20.3248 17.1499 20.4598 17.3818 20.546 17.5675C20.6324 17.7538 20.6647 17.8849 20.6531 17.9961C20.6341 18.1765 20.5491 18.3426 20.4154 18.4632L20.3543 18.5126C20.2638 18.5779 20.1339 18.6152 19.9291 18.6339C19.7273 18.6524 19.4623 18.6524 19.1054 18.6523H5.72846C5.37198 18.6524 5.10711 18.6524 4.90563 18.6339C4.70036 18.6151 4.57069 18.5778 4.48041 18.5126C4.31174 18.3902 4.20324 18.2021 4.18158 17.9961C4.17008 17.8861 4.20237 17.7556 4.28956 17.5675L4.3649 17.4168Z" fill="#8DBEF2"/>
<path d="M8.43478 10.3814H16.4027L18.242 13.5088H6.59542L8.43478 10.3814Z" fill="#BBD7F7"/>
<path fill-rule="evenodd" clip-rule="evenodd" d="M11.7333 2.83871C12.2547 2.67012 12.824 2.6986 13.3295 2.92325L13.5003 3.00947C13.8772 3.22455 14.1166 3.52951 14.2612 3.73352C14.4297 3.97144 14.6055 4.27782 14.7759 4.57225L18.1384 10.3797H18.1359L19.9466 13.5086L18.242 13.5088L16.4027 10.3814H8.43478L6.59542 13.5088L4.89286 13.5086L7.35547 9.25556L7.57143 8.8814L10.0667 4.57225C10.2362 4.27945 10.4119 3.97177 10.5806 3.73352C10.7465 3.49937 11.0364 3.13525 11.5131 2.92325L11.5499 2.90818L11.6964 2.8521L11.7333 2.83871ZM12.7201 4.29434C12.5552 4.22109 12.3695 4.21127 12.1995 4.26505L12.1166 4.29685C12.0166 4.34326 11.9206 4.43669 11.8044 4.60071C11.685 4.76935 11.549 5.00455 11.3641 5.32392L9.3058 8.87972H15.5368L13.4785 5.32392C13.2945 5.00608 13.1571 4.76968 13.0374 4.60071C12.948 4.47462 12.8712 4.39021 12.7955 4.33703L12.7201 4.29434Z" fill="#8DBEF2"/>
</svg>
