<svg width="24" height="24" viewBox="0 0 24 24" fill="none" xmlns="http://www.w3.org/2000/svg">
<path d="M11.6947 7.60341C11.8951 7.55356 12.1047 7.5536 12.3051 7.60341C12.5645 7.66794 12.7818 7.83376 12.9008 7.91688L15.8627 9.98524C15.9442 10.0421 16.0821 10.1316 16.2065 10.2567L16.3237 10.3944L16.3998 10.5136C16.4462 10.5961 16.4833 10.6835 16.5102 10.7743L16.5424 10.913L16.559 11.0927C16.562 11.2691 16.5301 11.4303 16.5141 11.5282L15.7494 16.2069C15.7258 16.3515 15.7011 16.5066 15.6684 16.6366C15.6337 16.7742 15.5739 16.9566 15.4389 17.1278C15.2612 17.353 15.0122 17.511 14.7328 17.5761C14.5205 17.6255 14.3301 17.6022 14.1908 17.5751C14.0592 17.5495 13.908 17.5058 13.767 17.4657L9.89885 16.3651C9.79022 16.3342 9.58496 16.2838 9.40666 16.1698C9.26843 16.0814 9.14861 15.967 9.05412 15.8329C8.93233 15.6599 8.87304 15.4566 8.83733 15.3495L7.62541 11.7167C7.57669 11.5706 7.47287 11.2997 7.49065 11.0184C7.50438 10.8015 7.57334 10.5914 7.69182 10.4091L7.75334 10.3241C7.9049 10.1349 8.10673 10.0067 8.21721 9.92958L11.1 7.91688C11.2191 7.83369 11.4357 7.6679 11.6947 7.60341Z" fill="currentColor"/>
<path fill-rule="evenodd" clip-rule="evenodd" d="M11.5894 2.71383C11.8583 2.64485 12.1408 2.64489 12.4097 2.71383C12.7478 2.80058 13.034 3.02428 13.2857 3.20699L20.5923 8.50973C20.8446 8.69282 21.1471 8.89619 21.3345 9.19137C21.4835 9.42609 21.571 9.69515 21.5884 9.97262C21.6102 10.3214 21.4856 10.6636 21.3892 10.9599L18.5982 19.538C18.502 19.834 18.4018 20.1832 18.1793 20.4521C18.0021 20.666 17.7735 20.8323 17.5152 20.9345C17.2716 21.0308 17.0061 21.0473 16.7574 21.0498H7.24176C6.99305 21.0473 6.72755 21.0309 6.48395 20.9345C6.22568 20.8323 5.997 20.6661 5.81989 20.4521C5.59734 20.1832 5.49719 19.834 5.40094 19.538L2.60993 10.9599C2.51355 10.6636 2.38894 10.3214 2.41071 9.97262C2.42814 9.69524 2.51571 9.42604 2.66461 9.19137C2.852 8.89628 3.15456 8.69278 3.4068 8.50973L10.7134 3.20699C10.9651 3.02432 11.2515 2.80065 11.5894 2.71383ZM4.82868 9.33004L8.25739 9.90133L8.21721 9.92958C8.10673 10.0067 7.9049 10.1349 7.75334 10.3241L7.69182 10.4091C7.57334 10.5914 7.50438 10.8015 7.49065 11.0184C7.48458 11.1143 7.4951 11.2089 7.51032 11.2978L4.11286 10.7314L6.62067 18.4414L8.75153 15.0937L8.83733 15.3495C8.87304 15.4566 8.93233 15.6599 9.05412 15.8329C9.14861 15.967 9.26843 16.0814 9.40666 16.1698C9.52053 16.2426 9.64593 16.2879 9.74958 16.3203L7.69489 19.5498H16.0572L14.3482 17.5966C14.4611 17.6077 14.5922 17.6088 14.7328 17.5761C15.0122 17.511 15.2612 17.353 15.4389 17.1278C15.5314 17.0105 15.5866 16.8871 15.6246 16.7773L17.2974 18.6884L19.8316 10.8964L16.4908 11.667L16.5141 11.5282C16.5301 11.4303 16.562 11.2691 16.559 11.0927L16.5424 10.913L16.5102 10.7743C16.4833 10.6835 16.4462 10.5961 16.3998 10.5136L16.3237 10.3944L16.2065 10.2567C16.1885 10.2387 16.1692 10.2226 16.1509 10.206L19.357 9.46676L12.7506 4.67086V7.81637C12.6316 7.73767 12.4785 7.6466 12.3051 7.60341C12.1047 7.5536 11.8951 7.55356 11.6947 7.60341C11.5217 7.64648 11.3693 7.73772 11.2506 7.81637V4.66989L4.82868 9.33004Z" fill="currentColor"/>
</svg>
