<svg width="24" height="24" viewBox="0 0 24 24" fill="none" xmlns="http://www.w3.org/2000/svg">
<path d="M10.0477 13.9512V10.1318L13.9442 10.0996V13.9512H10.0477Z" fill="#CCEDE0"/>
<path d="M13.9442 8.59962L10.0477 8.63184V4.6504H13.9442V8.59962Z" fill="#CCEDE0"/>
<path fill-rule="evenodd" clip-rule="evenodd" d="M16.8965 3.15039C17.4441 3.15039 17.9004 3.14937 18.2715 3.17969C18.6512 3.21073 19.0076 3.27848 19.3447 3.4502C19.8622 3.71384 20.2832 4.13492 20.5469 4.65235C20.7185 4.98944 20.7854 5.34593 20.8164 5.72559C20.8467 6.09671 20.8467 6.55293 20.8467 7.10059V9.29493C20.8473 9.37052 20.8338 9.44276 20.8135 9.51172C20.7835 9.61353 20.732 9.70439 20.665 9.78321C20.6524 9.79805 20.6417 9.81431 20.6279 9.82813C20.5392 9.9175 20.428 9.9817 20.3037 10.0176C20.2852 10.0229 20.2672 10.0303 20.2481 10.0342C20.2084 10.0423 20.1677 10.0472 20.126 10.0488C20.1182 10.0491 20.1104 10.0507 20.1025 10.0508L15.4434 10.0879V14.6621C15.444 14.6751 15.4453 14.6881 15.4453 14.7012C15.4453 15.1154 15.1095 15.4512 14.6953 15.4512H10.0469V20.1006C10.0468 20.5147 9.71103 20.8506 9.29688 20.8506H7.09668C6.54903 20.8506 6.0928 20.8506 5.72168 20.8203C5.34202 20.7893 4.98553 20.7225 4.64844 20.5508C4.13102 20.2871 3.70994 19.8661 3.44629 19.3486C3.27457 19.0115 3.20683 18.6551 3.17579 18.2754C3.14547 17.9043 3.14649 17.4481 3.14649 16.9004V7.10059C3.14649 6.55293 3.14546 6.09671 3.17579 5.72559C3.20682 5.34587 3.27459 4.98948 3.44629 4.65235C3.70994 4.13491 4.13101 3.71385 4.64844 3.4502C4.98557 3.27849 5.34197 3.21072 5.72168 3.17969C6.0928 3.14937 6.54902 3.15039 7.09668 3.15039H16.8965ZM4.64649 16.9004C4.64649 17.4728 4.64673 17.8574 4.6709 18.1533C4.69437 18.4402 4.73709 18.5775 4.78321 18.668C4.90305 18.903 5.09402 19.0941 5.32911 19.2139C5.41964 19.26 5.55681 19.3017 5.84375 19.3252C6.13963 19.3494 6.52427 19.3506 7.09668 19.3506H8.54688V15.4512H4.64649V16.9004ZM4.64649 10.1758V13.9512H8.54688V10.1445L4.64649 10.1758ZM10.0477 10.1318V13.9512H13.9442V10.0996L10.0477 10.1318ZM7.09668 4.65039C6.52427 4.65039 6.13963 4.65063 5.84375 4.67481C5.55677 4.69827 5.41965 4.74098 5.32911 4.78711C5.094 4.90694 4.90303 5.0979 4.78321 5.33301C4.73707 5.42355 4.69436 5.56067 4.6709 5.84766C4.64673 6.14354 4.64649 6.52817 4.64649 7.10059V8.67579L8.54688 8.64454V4.65039H7.09668ZM10.0477 8.63184L13.9442 8.59962V4.6504H10.0477V8.63184ZM15.4434 8.58789L19.3467 8.55664V7.10059C19.3467 6.52818 19.3455 6.14353 19.3213 5.84766C19.2978 5.56073 19.2561 5.42354 19.21 5.33301C19.0902 5.09793 18.8991 4.90695 18.6641 4.78711C18.5735 4.741 18.4362 4.69827 18.1494 4.67481C17.8535 4.65064 17.4689 4.65039 16.8965 4.65039H15.4434V8.58789Z" fill="#52C396"/>
<path d="M4.6709 18.1533C4.64673 17.8574 4.64649 17.4728 4.64649 16.9004V15.4512H8.54688V19.3506H7.09668C6.52427 19.3506 6.13963 19.3494 5.84375 19.3252C5.55681 19.3017 5.41964 19.26 5.32911 19.2139C5.09402 19.0941 4.90305 18.903 4.78321 18.668C4.73709 18.5775 4.69437 18.4402 4.6709 18.1533Z" fill="#7AD1AE"/>
<path d="M5.84375 4.67481C6.13963 4.65063 6.52427 4.65039 7.09668 4.65039H8.54688V8.64454L4.64649 8.67579V7.10059C4.64649 6.52817 4.64673 6.14354 4.6709 5.84766C4.69436 5.56067 4.73707 5.42355 4.78321 5.33301C4.90303 5.0979 5.094 4.90694 5.32911 4.78711C5.41965 4.74098 5.55677 4.69827 5.84375 4.67481Z" fill="#7AD1AE"/>
<path d="M4.64649 13.9512V10.1758L8.54688 10.1445V13.9512H4.64649Z" fill="#7AD1AE"/>
</svg>
