<svg width="24" height="24" viewBox="0 0 24 24" fill="none" xmlns="http://www.w3.org/2000/svg">
<path d="M7.99051 14.813C8.65071 14.813 9.18572 15.3481 9.18583 16.0083C9.18583 16.6685 8.65077 17.2036 7.99051 17.2036C7.33034 17.2035 6.7952 16.6685 6.7952 16.0083C6.7953 15.3482 7.33041 14.8131 7.99051 14.813Z" fill="#52C396"/>
<path d="M16.9001 13.03C17.5603 13.03 18.0953 13.5652 18.0954 14.2253C18.0954 14.8856 17.5604 15.4207 16.9001 15.4207C16.2399 15.4206 15.7048 14.8855 15.7048 14.2253C15.7049 13.5652 16.24 13.0301 16.9001 13.03Z" fill="#52C396"/>
<path d="M11.5547 10.3582C12.2149 10.3582 12.7499 10.8933 12.75 11.5535C12.75 12.2137 12.2149 12.7488 11.5547 12.7488C10.8945 12.7487 10.3594 12.2137 10.3594 11.5535C10.3595 10.8934 10.8946 10.3583 11.5547 10.3582Z" fill="#52C396"/>
<path d="M7.99051 6.79398C8.65071 6.79398 9.18572 7.32912 9.18583 7.98929C9.18583 8.64955 8.65077 9.18461 7.99051 9.18461C7.33034 9.1845 6.7952 8.64949 6.7952 7.98929C6.7953 7.32919 7.33041 6.79408 7.99051 6.79398Z" fill="#52C396"/>
<path d="M17.7924 5.01273C18.4526 5.01273 18.9876 5.54787 18.9877 6.20804C18.9877 6.8683 18.4527 7.40336 17.7924 7.40336C17.1322 7.40325 16.5971 6.86824 16.5971 6.20804C16.5972 5.54793 17.1323 5.01283 17.7924 5.01273Z" fill="#52C396"/>
<path d="M3.31055 16.7386V4.06055C3.31055 3.64633 3.64633 3.31055 4.06055 3.31055C4.47476 3.31055 4.81055 3.64633 4.81055 4.06055V16.7386C4.81055 17.3108 4.81149 17.695 4.83566 17.9908C4.85912 18.2778 4.90085 18.415 4.94699 18.5056C5.0668 18.7407 5.25762 18.9323 5.49275 19.0522C5.58331 19.0983 5.72125 19.14 6.00837 19.1635C6.3042 19.1877 6.6884 19.1878 7.2606 19.1878H19.9378C20.3519 19.1878 20.6876 19.5237 20.6878 19.9378C20.6878 20.352 20.352 20.6878 19.9378 20.6878H7.2606C6.71306 20.6878 6.25724 20.6888 5.88616 20.6585C5.50628 20.6274 5.14948 20.56 4.81222 20.3881C4.29485 20.1245 3.87387 19.7043 3.61021 19.1869C3.4384 18.8497 3.37173 18.4928 3.34068 18.113C3.31037 17.742 3.31055 17.2861 3.31055 16.7386Z" fill="#5EA3ED"/>
</svg>
