<svg width="24" height="24" viewBox="0 0 24 24" fill="none" xmlns="http://www.w3.org/2000/svg">
<path fill-rule="evenodd" clip-rule="evenodd" d="M16.7637 3.69727C17.311 3.69727 17.7667 3.69627 18.1377 3.72657C18.5176 3.7576 18.8747 3.82524 19.2119 3.99707C19.7293 4.26073 20.1495 4.68186 20.4131 5.19922C20.5848 5.53639 20.6526 5.8927 20.6836 6.27246C20.7139 6.64359 20.7129 7.0998 20.7129 7.64746V9.24805C20.7136 9.261 20.7148 9.274 20.7148 9.28711V16.9277C20.7148 17.4754 20.7159 17.9316 20.6856 18.3027C20.6545 18.6825 20.5868 19.0388 20.415 19.376C20.1514 19.8934 19.7303 20.3145 19.2129 20.5781C18.8758 20.7498 18.5194 20.8176 18.1397 20.8486C17.7685 20.879 17.3123 20.8779 16.7647 20.8779H7.4834C6.93573 20.8779 6.47953 20.879 6.1084 20.8486C5.72868 20.8176 5.3723 20.7498 5.03516 20.5781C4.51772 20.3145 4.09666 19.8934 3.83301 19.376C3.6613 19.0388 3.59354 18.6825 3.5625 18.3027C3.53218 17.9316 3.53321 17.4754 3.53321 16.9277V7.64746C3.53321 7.0998 3.53218 6.64359 3.5625 6.27246C3.59354 5.89274 3.6613 5.53636 3.83301 5.19922C4.09666 4.68178 4.51772 4.26073 5.03516 3.99707C5.3723 3.82536 5.72868 3.7576 6.1084 3.72657C6.47953 3.69624 6.93573 3.69727 7.4834 3.69727H16.7637ZM5.03321 16.9277C5.03321 17.5002 5.03345 17.8848 5.05762 18.1807C5.08108 18.4676 5.1238 18.6048 5.16993 18.6953C5.28975 18.9304 5.48072 19.1214 5.71582 19.2412C5.80636 19.2873 5.94348 19.3301 6.23047 19.3535C6.52635 19.3777 6.91098 19.3779 7.4834 19.3779H11.5313V15.75H5.03321V16.9277ZM13.0313 19.3779H16.7647C17.3371 19.3779 17.7217 19.3777 18.0176 19.3535C18.3045 19.3301 18.4417 19.2873 18.5322 19.2412C18.7673 19.1214 18.9583 18.9304 19.0781 18.6953C19.1243 18.6048 19.167 18.4677 19.1904 18.1807C19.2146 17.8848 19.2148 17.5002 19.2148 16.9277V15.75H13.0313V19.3779ZM5.03321 14.25H11.5313V10.1973H5.03321V14.25ZM13.0313 14.25H19.2148V10.1973H13.0313V14.25Z" fill="#5EA3ED"/>
<path d="M6.23103 5.22169C6.52691 5.19751 6.91154 5.19727 7.48396 5.19727H16.7642C17.3363 5.19727 17.7204 5.19753 18.0162 5.22169C18.3032 5.24513 18.4403 5.28788 18.5308 5.33399C18.766 5.45383 18.9579 5.64469 19.0777 5.87989C19.1238 5.97043 19.1656 6.10773 19.189 6.39454C19.2132 6.69042 19.2135 7.07505 19.2135 7.64747V8.69727H5.03377V7.64747C5.03377 7.07505 5.03401 6.69042 5.05818 6.39454C5.08164 6.10755 5.12435 5.97043 5.17049 5.87989C5.29031 5.64478 5.48127 5.45382 5.71639 5.33399C5.80693 5.28786 5.94404 5.24515 6.23103 5.22169Z" fill="#BBD7F7"/>
</svg>
