<svg width="24" height="24" viewBox="0 0 24 24" fill="none" xmlns="http://www.w3.org/2000/svg">
<path fill-rule="evenodd" clip-rule="evenodd" d="M11.9986 4.28516C15.0128 4.28516 17.5496 6.3218 18.3108 9.09403C20.5879 9.62379 22.2841 11.6649 22.2843 14.103C22.2843 16.9433 19.9818 19.2458 17.1415 19.2458H6.85575C4.01543 19.2458 1.71289 16.9433 1.71289 14.103C1.71307 11.6649 3.40931 9.62379 5.68638 9.09403C6.44758 6.3218 8.98441 4.28516 11.9986 4.28516ZM6.613 14.8019C6.24413 14.8019 5.94503 15.101 5.94503 15.4699C5.94514 15.8386 6.2442 16.1378 6.613 16.1378H12.8465C13.2153 16.1378 13.5144 15.8386 13.5145 15.4699C13.5145 15.101 13.2154 14.8019 12.8465 14.8019H6.613ZM15.5184 14.8019C15.1495 14.8019 14.8504 15.101 14.8504 15.4699C14.8506 15.8386 15.1496 16.1378 15.5184 16.1378H17.2997C17.6684 16.1377 17.9675 15.8386 17.9676 15.4699C17.9676 15.1011 17.6684 14.802 17.2997 14.8019H15.5184ZM5.7207 12.13C5.35183 12.13 5.05273 12.4291 5.05273 12.798C5.05273 13.1669 5.35183 13.466 5.7207 13.466H7.50195C7.87075 13.4659 8.16992 13.1668 8.16992 12.798C8.16992 12.4292 7.87075 12.1301 7.50195 12.13H5.7207ZM10.173 12.13C9.8043 12.1302 9.50502 12.4293 9.50502 12.798C9.50502 13.1667 9.8043 13.4657 10.173 13.466H18.1878C18.5567 13.466 18.8557 13.1669 18.8557 12.798C18.8557 12.4291 18.5567 12.13 18.1878 12.13H10.173Z" fill="#7AD1AE"/>
</svg>
