<svg width="24" height="24" viewBox="0 0 24 24" fill="none" xmlns="http://www.w3.org/2000/svg">
<path d="M12.8467 14.8008C13.2156 14.8008 13.5146 15.0999 13.5146 15.4688C13.5146 15.8376 13.2156 16.1367 12.8467 16.1367H6.61328C6.24441 16.1367 5.94531 15.8376 5.94531 15.4688C5.94531 15.0999 6.24441 14.8008 6.61328 14.8008H12.8467Z" fill="currentColor"/>
<path d="M17.3008 14.8008C17.6696 14.8009 17.9688 15.0999 17.9688 15.4688C17.9688 15.8376 17.6696 16.1366 17.3008 16.1367H15.5195C15.1507 16.1367 14.8516 15.8376 14.8516 15.4688C14.8516 15.0999 15.1507 14.8008 15.5195 14.8008H17.3008Z" fill="currentColor"/>
<path d="M7.50195 12.1289C7.87075 12.129 8.16992 12.4281 8.16992 12.7969C8.16992 13.1657 7.87075 13.4647 7.50195 13.4648H5.7207C5.35183 13.4648 5.05273 13.1657 5.05273 12.7969C5.05273 12.428 5.35183 12.1289 5.7207 12.1289H7.50195Z" fill="currentColor"/>
<path d="M18.1885 12.1289C18.5574 12.1289 18.8564 12.428 18.8564 12.7969C18.8564 13.1657 18.5574 13.4648 18.1885 13.4648H10.1738C9.80496 13.4648 9.50586 13.1657 9.50586 12.7969C9.50586 12.428 9.80496 12.1289 10.1738 12.1289H18.1885Z" fill="currentColor"/>
<path fill-rule="evenodd" clip-rule="evenodd" d="M12.001 3.53516C15.2086 3.53534 17.9287 5.60466 18.9072 8.47949C21.3001 9.22943 23.0361 11.4625 23.0361 14.1035C23.036 17.3579 20.398 19.996 17.1436 19.9961H6.85742C3.60307 19.9959 0.96494 17.3579 0.964844 14.1035C0.964844 11.4629 2.70045 9.22974 5.09277 8.47949C6.07128 5.60436 8.793 3.53516 12.001 3.53516ZM12.001 5.03516C9.3332 5.03516 7.08517 6.8378 6.41113 9.29297C6.33822 9.55819 6.12629 9.7628 5.8584 9.8252C3.91319 10.2778 2.46484 12.0219 2.46484 14.1035C2.46494 16.5294 4.4315 18.4959 6.85742 18.4961H17.1436C19.5695 18.496 21.536 16.5295 21.5361 14.1035C21.5361 12.0219 20.0878 10.2778 18.1426 9.8252C17.8747 9.76276 17.6627 9.55816 17.5898 9.29297C16.9158 6.83792 14.6686 5.03534 12.001 5.03516Z" fill="currentColor"/>
</svg>
