<svg width="24" height="24" viewBox="0 0 24 24" fill="none" xmlns="http://www.w3.org/2000/svg">
<path d="M4.0586 3.3125C4.47281 3.3125 4.8086 3.64829 4.8086 4.0625V16.7402C4.8086 17.3123 4.80888 17.6964 4.83301 17.9922C4.85647 18.2793 4.89917 18.4173 4.94532 18.5078C5.06517 18.7429 5.25613 18.9339 5.49121 19.0537C5.58175 19.0998 5.71892 19.1416 6.00586 19.165C6.30174 19.1892 6.68637 19.1904 7.25879 19.1904H19.9365C20.3506 19.1906 20.6865 19.5263 20.6865 19.9404C20.6864 20.3544 20.3505 20.6903 19.9365 20.6904H7.25879C6.71112 20.6904 6.25492 20.6905 5.88379 20.6602C5.50413 20.6291 5.14764 20.5623 4.81055 20.3906C4.29311 20.127 3.87205 19.7059 3.6084 19.1885C3.43665 18.8514 3.36895 18.4949 3.33789 18.1152C3.30757 17.7441 3.3086 17.2879 3.3086 16.7402V4.0625C3.3086 3.64829 3.64439 3.3125 4.0586 3.3125Z" fill="currentColor"/>
<path fill-rule="evenodd" clip-rule="evenodd" d="M16.9893 8.6123C17.814 7.99964 18.9852 8.58791 18.9854 9.61523V15.9561C18.9851 16.646 18.4254 17.2058 17.7354 17.2061H8.04297C7.35279 17.2061 6.79325 16.6462 6.79297 15.9561V11.5303C6.79297 11.157 6.96008 10.8029 7.24805 10.5654L9.26856 8.89941L9.36231 8.8291C9.84217 8.50332 10.4913 8.5493 10.9209 8.9541L13.3916 11.2852L16.9893 8.6123ZM14.1182 12.6143C13.6317 12.9755 12.9555 12.9353 12.5147 12.5195L10.0518 10.1963L8.29297 11.6475V15.7061H17.4854V10.1123L14.1182 12.6143Z" fill="currentColor"/>
</svg>
