<svg width="24" height="24" viewBox="0 0 24 24" fill="none" xmlns="http://www.w3.org/2000/svg">
<path d="M16.9884 8.61312C17.8131 8.00046 18.9844 8.58873 18.9845 9.61605V15.9569C18.9842 16.6468 18.4245 17.2067 17.7345 17.2069H8.04214C7.352 17.2069 6.79248 16.6469 6.79214 15.9569V11.5311C6.79214 11.1579 6.95927 10.8037 7.24721 10.5662L9.26772 8.90023L9.36147 8.82992C9.84133 8.50414 10.4904 8.55012 10.9201 8.95492L13.3908 11.286L16.9884 8.61312Z" fill="#7AD1AE"/>
<path d="M3.3086 16.7402V4.0625C3.3086 3.64829 3.64438 3.3125 4.0586 3.3125C4.47281 3.3125 4.8086 3.64829 4.8086 4.0625V16.7402C4.8086 17.3123 4.80888 17.6964 4.83301 17.9922C4.85647 18.2793 4.89917 18.4173 4.94532 18.5078C5.06517 18.7429 5.25613 18.9339 5.49121 19.0537C5.58175 19.0998 5.71892 19.1416 6.00586 19.165C6.30174 19.1892 6.68636 19.1904 7.25879 19.1904H19.9365C20.3506 19.1906 20.6865 19.5263 20.6865 19.9404C20.6864 20.3544 20.3505 20.6903 19.9365 20.6904H7.25879C6.71112 20.6904 6.25492 20.6905 5.88379 20.6602C5.50413 20.6291 5.14764 20.5623 4.81055 20.3906C4.29311 20.127 3.87205 19.7059 3.6084 19.1885C3.43664 18.8514 3.36895 18.4949 3.33789 18.1152C3.30757 17.7441 3.3086 17.2879 3.3086 16.7402Z" fill="#5EA3ED"/>
</svg>
