<svg width="24" height="24" viewBox="0 0 24 24" fill="none" xmlns="http://www.w3.org/2000/svg">
<path d="M18.6895 19.6357C18.957 19.6357 19.2029 19.6358 19.4072 19.6191C19.6204 19.6017 19.8537 19.5617 20.084 19.4443C20.4133 19.2766 20.6809 19.009 20.8486 18.6797C20.966 18.4494 21.006 18.2161 21.0234 18.0029C21.0401 17.7986 21.04 17.5527 21.04 17.2852V16.1992C21.04 15.9317 21.0401 15.6857 21.0234 15.4814C21.006 15.2684 20.9659 15.0349 20.8486 14.8047C20.6808 14.4756 20.4131 14.2077 20.084 14.04C19.8537 13.9228 19.6203 13.8836 19.4072 13.8662C19.2029 13.8495 18.957 13.8496 18.6895 13.8496H4.41602V19.6357H18.6895Z" fill="#8DBEF2"/>
<path fill-rule="evenodd" clip-rule="evenodd" d="M3.66602 21.9863C4.08023 21.9863 4.41602 21.6505 4.41602 21.2363V11.0508H13.25V13.8506H14.75V11.0498H16.4043C16.6718 11.0498 16.9178 11.0499 17.1221 11.0332C17.3351 11.0158 17.5686 10.9767 17.7988 10.8594C18.1279 10.6916 18.3957 10.4238 18.5635 10.0947C18.6808 9.86454 18.7199 9.63101 18.7373 9.41797C18.754 9.21369 18.7539 8.96769 18.7539 8.7002V7.59961C18.7539 7.33204 18.754 7.08616 18.7373 6.88184C18.7199 6.66874 18.6808 6.43533 18.5635 6.20508C18.3957 5.87593 18.1279 5.6082 17.7988 5.44043C17.5686 5.32313 17.3351 5.28305 17.1221 5.26562C16.9178 5.24893 16.6718 5.25 16.4043 5.25H4.41602V3.23633C4.41602 2.82211 4.08023 2.48633 3.66602 2.48633C3.2518 2.48633 2.91602 2.82211 2.91602 3.23633V21.2363C2.91602 21.6505 3.2518 21.9863 3.66602 21.9863ZM4.41602 6.75H16.4043C16.6965 6.75 16.8709 6.7502 17 6.76074C17.0708 6.76654 17.1047 6.77391 17.1172 6.77734C17.1642 6.80131 17.2026 6.83968 17.2266 6.88672C17.2182 6.87035 17.2333 6.88371 17.2432 7.00391C17.2537 7.133 17.2539 7.30733 17.2539 7.59961V8.7002C17.2539 8.99235 17.2537 9.16683 17.2432 9.2959C17.2333 9.41596 17.2182 9.42947 17.2266 9.41309C17.2026 9.46012 17.1642 9.49849 17.1172 9.52246C17.1336 9.51412 17.12 9.52923 17 9.53906C16.8709 9.54961 16.6965 9.5498 16.4043 9.5498H4.41602V6.75Z" fill="#52C396"/>
</svg>
