<svg width="24" height="24" viewBox="0 0 24 24" fill="none" xmlns="http://www.w3.org/2000/svg">
<path fill-rule="evenodd" clip-rule="evenodd" d="M21.04 16.1992C21.04 15.9317 21.0401 15.6857 21.0234 15.4814C21.006 15.2684 20.9659 15.0349 20.8486 14.8047C20.6808 14.4756 20.4131 14.2077 20.084 14.04C19.8538 13.9228 19.6203 13.8836 19.4072 13.8662C19.2029 13.8495 18.957 13.8496 18.6895 13.8496H14.75V11.0508H16.4043C16.6718 11.0508 16.9178 11.0509 17.1221 11.0342C17.3351 11.0168 17.5686 10.9776 17.7988 10.8604C18.1279 10.6926 18.3957 10.4248 18.5635 10.0957C18.6808 9.86552 18.7199 9.63199 18.7373 9.41895C18.754 9.21467 18.7539 8.96867 18.7539 8.70117V7.60059C18.7539 7.33301 18.754 7.08714 18.7373 6.88281C18.7199 6.66972 18.6808 6.43631 18.5635 6.20605C18.3957 5.8769 18.128 5.60918 17.7988 5.44141C17.5686 5.32411 17.3351 5.28403 17.1221 5.2666C16.9178 5.24991 16.6718 5.25098 16.4043 5.25098H4.41602V3.23633C4.41602 2.82211 4.08023 2.48633 3.66602 2.48633C3.2518 2.48633 2.91602 2.82211 2.91602 3.23633V21.2363C2.91602 21.6505 3.2518 21.9863 3.66602 21.9863C4.08023 21.9863 4.41602 21.6505 4.41602 21.2363V19.6357H18.6895C18.957 19.6357 19.2029 19.6358 19.4072 19.6191C19.6204 19.6017 19.8537 19.5617 20.084 19.4443C20.4133 19.2766 20.6809 19.009 20.8486 18.6797C20.966 18.4494 21.006 18.2161 21.0234 18.0029C21.0401 17.7986 21.04 17.5527 21.04 17.2852V16.1992ZM17.2539 8.70117C17.2539 8.99334 17.2537 9.16781 17.2432 9.29688C17.2333 9.41694 17.2182 9.43044 17.2266 9.41406C17.2026 9.4611 17.1642 9.49947 17.1172 9.52344C17.1336 9.51509 17.1201 9.5302 17 9.54004C16.8709 9.55058 16.6965 9.55078 16.4043 9.55078H14.0107C14.0072 9.55073 14.0036 9.5498 14 9.5498H4.41602V6.75098H16.4043C16.6965 6.75098 16.8709 6.75117 17 6.76172C17.0708 6.76752 17.1047 6.77489 17.1172 6.77832C17.1642 6.80229 17.2026 6.84065 17.2266 6.8877C17.2182 6.87131 17.2333 6.88464 17.2432 7.00488C17.2537 7.13398 17.2539 7.3083 17.2539 7.60059V8.70117ZM4.41602 13.8496V11.0508H13.25V13.8496H4.41602Z" fill="currentColor"/>
</svg>
