<svg width="24" height="24" viewBox="0 0 24 24" fill="none" xmlns="http://www.w3.org/2000/svg">
<path d="M16.25 12.2002C16.25 12.2178 16.249 12.2343 16.249 12.25H14.75V9.75H16.25V12.2002Z" fill="#D1E5FA"/>
<path d="M16.249 6.75098C16.249 6.76637 16.25 6.7826 16.25 6.7998V8.25H14.75V6.75098C14.7657 6.75096 14.7822 6.75 14.7998 6.75H16.2002C16.2174 6.75 16.2336 6.75096 16.249 6.75098Z" fill="#D1E5FA"/>
<path fill-rule="evenodd" clip-rule="evenodd" d="M16.4043 2.25C16.8185 2.25 17.1543 2.58579 17.1543 3C17.1543 3.41421 16.8185 3.75 16.4043 3.75H16.2344C16.2443 3.79862 16.25 3.84885 16.25 3.90039V5.25C16.3637 5.25012 16.4845 5.25115 16.5898 5.25977C16.7196 5.27039 16.8907 5.29671 17.0674 5.38672C17.3025 5.50655 17.4935 5.6975 17.6133 5.93262C17.7033 6.10926 17.7296 6.28045 17.7402 6.41016C17.7501 6.5311 17.75 6.67222 17.75 6.7998V12.2002C17.75 12.3278 17.7501 12.4689 17.7402 12.5898C17.7296 12.7196 17.7033 12.8907 17.6133 13.0674C17.4935 13.3025 17.3025 13.4935 17.0674 13.6133C16.8907 13.7033 16.7196 13.7296 16.5898 13.7402C16.4845 13.7488 16.3637 13.7489 16.25 13.749V15.25H16.4043C16.8185 15.25 17.1543 15.5858 17.1543 16C17.1543 16.4142 16.8185 16.75 16.4043 16.75H14.6045C14.1903 16.75 13.8545 16.4142 13.8545 16C13.8545 15.5858 14.1903 15.25 14.6045 15.25H14.75V13.749C14.6363 13.7489 14.5155 13.7488 14.4102 13.7402C14.2804 13.7296 14.1093 13.7033 13.9326 13.6133C13.6975 13.4935 13.5065 13.3025 13.3867 13.0674C13.2967 12.8907 13.2704 12.7196 13.2598 12.5898C13.2499 12.4689 13.25 12.3278 13.25 12.2002V6.7998C13.25 6.67222 13.2499 6.5311 13.2598 6.41016C13.2704 6.28045 13.2967 6.10926 13.3867 5.93262C13.5065 5.6975 13.6975 5.50655 13.9326 5.38672C14.1093 5.29671 14.2804 5.27039 14.4102 5.25977C14.5155 5.25115 14.6363 5.25012 14.75 5.25V3.90039C14.75 3.84885 14.7557 3.79862 14.7656 3.75H14.6045C14.1903 3.75 13.8545 3.41421 13.8545 3C13.8545 2.58579 14.1903 2.25 14.6045 2.25H16.4043ZM14.75 9.75V12.25H16.249C16.249 12.2343 16.25 12.2178 16.25 12.2002V9.75H14.75ZM14.7998 6.75C14.7822 6.75 14.7657 6.75096 14.75 6.75098V8.25H16.25V6.7998C16.25 6.7826 16.249 6.76637 16.249 6.75098C16.2336 6.75096 16.2174 6.75 16.2002 6.75H14.7998Z" fill="#5EA3ED"/>
<path d="M9.25 14.2002C9.25 14.2178 9.24904 14.2343 9.24902 14.25H7.75V12.75H9.25V14.2002Z" fill="#CCEDE0"/>
<path d="M9.24902 8.75098C9.24904 8.76637 9.25 8.7826 9.25 8.7998V11.25H7.75V8.75098C7.76568 8.75096 7.78224 8.75 7.7998 8.75H9.2002C9.2174 8.75 9.23363 8.75096 9.24902 8.75098Z" fill="#CCEDE0"/>
<path fill-rule="evenodd" clip-rule="evenodd" d="M9.40527 4.25C9.81949 4.25 10.1553 4.58579 10.1553 5C10.1553 5.41421 9.81949 5.75 9.40527 5.75H9.25V7.25C9.36373 7.25012 9.48445 7.25115 9.58984 7.25977C9.71955 7.27039 9.89074 7.29671 10.0674 7.38672C10.3025 7.50655 10.4935 7.6975 10.6133 7.93262C10.7033 8.10926 10.7296 8.28045 10.7402 8.41016C10.7501 8.5311 10.75 8.67222 10.75 8.7998V14.2002C10.75 14.3278 10.7501 14.4689 10.7402 14.5898C10.7296 14.7196 10.7033 14.8907 10.6133 15.0674C10.4935 15.3025 10.3025 15.4935 10.0674 15.6133C9.89074 15.7033 9.71955 15.7296 9.58984 15.7402C9.48445 15.7488 9.36373 15.7489 9.25 15.749V16.25H9.40527C9.81949 16.25 10.1553 16.5858 10.1553 17C10.1553 17.4142 9.81949 17.75 9.40527 17.75H7.60547C7.19126 17.75 6.85547 17.4142 6.85547 17C6.85547 16.5858 7.19126 16.25 7.60547 16.25H7.75V15.749C7.63627 15.7489 7.51555 15.7488 7.41016 15.7402C7.28045 15.7296 7.10926 15.7033 6.93262 15.6133C6.6975 15.4935 6.50655 15.3025 6.38672 15.0674C6.29671 14.8907 6.27039 14.7196 6.25977 14.5898C6.24988 14.4689 6.25 14.3278 6.25 14.2002V8.7998C6.25 8.67222 6.24988 8.5311 6.25977 8.41016C6.27039 8.28045 6.29671 8.10926 6.38672 7.93262C6.50655 7.6975 6.6975 7.50655 6.93262 7.38672C7.10926 7.29671 7.28045 7.27039 7.41016 7.25977C7.51555 7.25115 7.63627 7.25012 7.75 7.25V5.75H7.60547C7.19126 5.75 6.85547 5.41421 6.85547 5C6.85547 4.58579 7.19126 4.25 7.60547 4.25H9.40527ZM7.75 12.75V14.25H9.24902C9.24904 14.2343 9.25 14.2178 9.25 14.2002V12.75H7.75ZM7.7998 8.75C7.78224 8.75 7.76568 8.75096 7.75 8.75098V11.25H9.25V8.7998C9.25 8.7826 9.24904 8.76637 9.24902 8.75098C9.23363 8.75096 9.2174 8.75 9.2002 8.75H7.7998Z" fill="#52C396"/>
<path d="M20.6396 19.1893C21.0539 19.1893 21.3896 19.5251 21.3896 19.9393C21.3896 20.3535 21.0539 20.6893 20.6396 20.6893H3C2.58579 20.6893 2.25 20.3535 2.25 19.9393C2.25 19.5251 2.58579 19.1893 3 19.1893H20.6396Z" fill="#5EA3ED"/>
</svg>
