<svg width="24" height="24" viewBox="0 0 24 24" fill="none" xmlns="http://www.w3.org/2000/svg">
<path d="M17.75 12.2002C17.75 12.3278 17.7501 12.4689 17.7402 12.5898C17.7296 12.7196 17.7033 12.8907 17.6133 13.0674C17.4935 13.3025 17.3025 13.4935 17.0674 13.6133C16.8907 13.7033 16.7196 13.7296 16.5898 13.7402C16.4848 13.7488 16.3644 13.7489 16.251 13.749V15.25H16.4053C16.8195 15.25 17.1553 15.5858 17.1553 16C17.1553 16.4142 16.8195 16.75 16.4053 16.75H14.6055C14.1913 16.75 13.8555 16.4142 13.8555 16C13.8555 15.5858 14.1913 15.25 14.6055 15.25H14.751V13.749C14.637 13.7489 14.5159 13.7489 14.4102 13.7402C14.2804 13.7296 14.1093 13.7033 13.9326 13.6133C13.6975 13.4935 13.5065 13.3025 13.3867 13.0674C13.2967 12.8907 13.2704 12.7196 13.2598 12.5898C13.2499 12.4689 13.25 12.3278 13.25 12.2002V9.75H17.75V12.2002Z" fill="currentColor"/>
<path d="M16.4053 2.25C16.8195 2.25 17.1553 2.58579 17.1553 3C17.1553 3.41421 16.8195 3.75 16.4053 3.75H16.2354C16.2453 3.79862 16.251 3.84885 16.251 3.90039V5.25C16.3644 5.25012 16.4848 5.25118 16.5898 5.25977C16.7196 5.27039 16.8907 5.29671 17.0674 5.38672C17.3025 5.50655 17.4935 5.6975 17.6133 5.93262C17.7033 6.10926 17.7296 6.28045 17.7402 6.41016C17.7501 6.5311 17.75 6.67222 17.75 6.7998V8.25H13.25V6.7998C13.25 6.67222 13.2499 6.5311 13.2598 6.41016C13.2704 6.28045 13.2967 6.10926 13.3867 5.93262C13.5065 5.6975 13.6975 5.50655 13.9326 5.38672C14.1093 5.29671 14.2804 5.27039 14.4102 5.25977C14.5159 5.25113 14.637 5.25011 14.751 5.25V3.90039C14.751 3.84885 14.7567 3.79862 14.7666 3.75H14.6055C14.1913 3.75 13.8555 3.41421 13.8555 3C13.8555 2.58579 14.1913 2.25 14.6055 2.25H16.4053Z" fill="currentColor"/>
<path d="M10.75 14.2002C10.75 14.3278 10.7501 14.4689 10.7402 14.5898C10.7296 14.7196 10.7033 14.8907 10.6133 15.0674C10.4935 15.3025 10.3025 15.4935 10.0674 15.6133C9.89074 15.7033 9.71955 15.7296 9.58984 15.7402C9.48445 15.7488 9.36373 15.7489 9.25 15.749V16.25H9.40527C9.81949 16.25 10.1553 16.5858 10.1553 17C10.1553 17.4142 9.81949 17.75 9.40527 17.75H7.60547C7.19126 17.75 6.85547 17.4142 6.85547 17C6.85547 16.5858 7.19126 16.25 7.60547 16.25H7.75V15.749C7.63627 15.7489 7.51555 15.7488 7.41016 15.7402C7.28045 15.7296 7.10926 15.7033 6.93262 15.6133C6.6975 15.4935 6.50655 15.3025 6.38672 15.0674C6.29671 14.8907 6.27039 14.7196 6.25977 14.5898C6.24988 14.4689 6.25 14.3278 6.25 14.2002V12.75H10.75V14.2002Z" fill="currentColor"/>
<path d="M9.40527 4.25C9.81949 4.25 10.1553 4.58579 10.1553 5C10.1553 5.41421 9.81949 5.75 9.40527 5.75H9.25V7.25C9.36373 7.25012 9.48445 7.25115 9.58984 7.25977C9.71955 7.27039 9.89074 7.29671 10.0674 7.38672C10.3025 7.50655 10.4935 7.6975 10.6133 7.93262C10.7033 8.10926 10.7296 8.28045 10.7402 8.41016C10.7501 8.5311 10.75 8.67222 10.75 8.7998V11.25H6.25V8.7998C6.25 8.67222 6.24988 8.5311 6.25977 8.41016C6.27039 8.28045 6.29671 8.10926 6.38672 7.93262C6.50655 7.6975 6.6975 7.50655 6.93262 7.38672C7.10926 7.29671 7.28045 7.27039 7.41016 7.25977C7.51555 7.25115 7.63627 7.25012 7.75 7.25V5.75H7.60547C7.19126 5.75 6.85547 5.41421 6.85547 5C6.85547 4.58579 7.19126 4.25 7.60547 4.25H9.40527Z" fill="currentColor"/>
<path d="M20.6396 19.1893C21.0539 19.1893 21.3896 19.5251 21.3896 19.9393C21.3896 20.3535 21.0539 20.6893 20.6396 20.6893H3C2.58579 20.6893 2.25 20.3535 2.25 19.9393C2.25 19.5251 2.58579 19.1893 3 19.1893H20.6396Z" fill="currentColor"/>
</svg>
