<svg width="24" height="24" viewBox="0 0 24 24" fill="none" xmlns="http://www.w3.org/2000/svg">
<path d="M4.06641 3.3125C4.48062 3.3125 4.81641 3.64829 4.81641 4.0625V16.7402C4.81641 17.3123 4.81669 17.6964 4.84082 17.9922C4.86428 18.2793 4.90698 18.4173 4.95312 18.5078C5.07298 18.7429 5.26394 18.9339 5.49902 19.0537C5.58956 19.0998 5.72673 19.1416 6.01367 19.165C6.30955 19.1892 6.69418 19.1904 7.2666 19.1904H19.9443C20.3584 19.1906 20.6943 19.5263 20.6943 19.9404C20.6942 20.3544 20.3583 20.6903 19.9443 20.6904H7.2666C6.71893 20.6904 6.26273 20.6905 5.8916 20.6602C5.51194 20.6291 5.15545 20.5623 4.81836 20.3906C4.30092 20.127 3.87986 19.7059 3.61621 19.1885C3.44445 18.8514 3.37675 18.4949 3.3457 18.1152C3.31538 17.7441 3.31641 17.2879 3.31641 16.7402V4.0625C3.31641 3.64829 3.6522 3.3125 4.06641 3.3125ZM16.752 10.1582C18.7356 10.1582 20.3438 11.7663 20.3438 13.75C20.3438 15.7337 18.7356 17.3418 16.752 17.3418C14.7683 17.3418 13.1602 15.7337 13.1602 13.75C13.1602 11.7663 14.7683 10.1582 16.752 10.1582ZM16.752 11.8418C15.6981 11.8418 14.8438 12.6961 14.8438 13.75C14.8438 14.8039 15.6981 15.6582 16.752 15.6582C17.8059 15.6582 18.6602 14.8039 18.6602 13.75C18.6602 12.6961 17.8059 11.8418 16.752 11.8418ZM8.50195 8.1582C9.79527 8.1582 10.8438 9.20669 10.8438 10.5C10.8438 11.7933 9.79527 12.8418 8.50195 12.8418C7.20864 12.8418 6.16016 11.7933 6.16016 10.5C6.16016 9.20669 7.20864 8.15821 8.50195 8.1582ZM14.915 4.16602C15.7176 4.24766 16.3438 4.92594 16.3438 5.75C16.3438 6.6291 15.6311 7.3418 14.752 7.3418C13.9279 7.34179 13.2496 6.7156 13.168 5.91309L13.1602 5.75L13.168 5.58691C13.2496 4.7844 13.9279 4.15821 14.752 4.1582L14.915 4.16602Z" fill="currentColor"/>
</svg>
