<svg width="24" height="24" viewBox="0 0 24 24" fill="none" xmlns="http://www.w3.org/2000/svg">
<path d="M16.7528 10.1589C18.7365 10.1589 20.3446 11.767 20.3446 13.7507C20.3446 15.7344 18.7365 17.3425 16.7528 17.3425C14.7691 17.3425 13.161 15.7344 13.161 13.7507C13.161 11.767 14.7691 10.1589 16.7528 10.1589Z" fill="#B184EC"/>
<path d="M8.50279 8.1589C9.79611 8.1589 10.8446 9.20738 10.8446 10.5007C10.8446 11.794 9.79611 12.8425 8.50279 12.8425C7.20948 12.8425 6.161 11.794 6.161 10.5007C6.161 9.20738 7.20948 8.1589 8.50279 8.1589Z" fill="#DECBF7"/>
<path d="M14.9159 4.16671C15.7184 4.24836 16.3446 4.92664 16.3446 5.7507C16.3446 6.6298 15.6319 7.34249 14.7528 7.34249C13.9287 7.34249 13.2505 6.71629 13.1688 5.91378L13.161 5.7507L13.1688 5.58761C13.2505 4.7851 13.9287 4.1589 14.7528 4.1589L14.9159 4.16671Z" fill="#B184EC"/>
<path d="M3.31641 16.7402V4.0625C3.31641 3.64829 3.6522 3.3125 4.06641 3.3125C4.48062 3.3125 4.81641 3.64829 4.81641 4.0625V16.7402C4.81641 17.3123 4.81669 17.6964 4.84082 17.9922C4.86428 18.2793 4.90699 18.4173 4.95313 18.5078C5.07298 18.7429 5.26394 18.9339 5.49903 19.0537C5.58956 19.0998 5.72673 19.1416 6.01368 19.165C6.30956 19.1892 6.69418 19.1904 7.26661 19.1904H19.9443C20.3584 19.1906 20.6943 19.5263 20.6943 19.9404C20.6942 20.3544 20.3583 20.6903 19.9443 20.6904H7.26661C6.71893 20.6904 6.26273 20.6905 5.89161 20.6602C5.51194 20.6291 5.15545 20.5623 4.81836 20.3906C4.30092 20.127 3.87987 19.7059 3.61622 19.1885C3.44446 18.8514 3.37676 18.4949 3.34571 18.1152C3.31539 17.7441 3.31641 17.2879 3.31641 16.7402Z" fill="#5EA3ED"/>
</svg>
