<svg width="24" height="24" viewBox="0 0 24 24" fill="none" xmlns="http://www.w3.org/2000/svg">
<path d="M16.2002 6.84961C16.2174 6.84961 16.2336 6.85057 16.249 6.85059C16.249 6.86598 16.25 6.88221 16.25 6.89941V12.2998C16.25 12.3174 16.249 12.3339 16.249 12.3496H14.75V6.85059C14.7657 6.85057 14.7822 6.84961 14.7998 6.84961H16.2002Z" fill="#CCEDE0"/>
<path fill-rule="evenodd" clip-rule="evenodd" d="M15.5 3.25C15.9142 3.25 16.25 3.58579 16.25 4V5.34961C16.3637 5.34973 16.4845 5.35076 16.5898 5.35938C16.7196 5.37 16.8907 5.39632 17.0674 5.48633C17.3025 5.60615 17.4935 5.79711 17.6133 6.03223C17.7033 6.20887 17.7296 6.38006 17.7402 6.50977C17.7501 6.63071 17.75 6.77183 17.75 6.89941V12.2998C17.75 12.4274 17.7501 12.5685 17.7402 12.6895C17.7296 12.8192 17.7033 12.9903 17.6133 13.167C17.4935 13.4021 17.3025 13.5931 17.0674 13.7129C16.8907 13.8029 16.7196 13.8292 16.5898 13.8398C16.4845 13.8485 16.3637 13.8485 16.25 13.8486V15.7002C16.2499 16.1143 15.9141 16.4502 15.5 16.4502C15.0859 16.4502 14.7501 16.1143 14.75 15.7002V13.8486C14.6363 13.8485 14.5155 13.8485 14.4102 13.8398C14.2804 13.8292 14.1093 13.8029 13.9326 13.7129C13.6975 13.5931 13.5065 13.4021 13.3867 13.167C13.2967 12.9903 13.2704 12.8192 13.2598 12.6895C13.2499 12.5685 13.25 12.4274 13.25 12.2998V6.89941C13.25 6.77183 13.2499 6.63071 13.2598 6.50977C13.2704 6.38006 13.2967 6.20887 13.3867 6.03223C13.5065 5.79711 13.6975 5.60615 13.9326 5.48633C14.1093 5.39632 14.2804 5.37 14.4102 5.35938C14.5155 5.35076 14.6363 5.34973 14.75 5.34961V4C14.75 3.58579 15.0858 3.25 15.5 3.25ZM14.7998 6.84961C14.7822 6.84961 14.7657 6.85057 14.75 6.85059V12.3496H16.249C16.249 12.3339 16.25 12.3174 16.25 12.2998V6.89941C16.25 6.88221 16.249 6.86598 16.249 6.85059C16.2336 6.85057 16.2174 6.84961 16.2002 6.84961H14.7998Z" fill="#52C396"/>
<path d="M9.2002 8.75C9.2174 8.75 9.23363 8.75096 9.24902 8.75098C9.24904 8.76637 9.25 8.7826 9.25 8.7998V14.2002C9.25 14.2178 9.24904 14.2343 9.24902 14.25H7.75V8.75098C7.76568 8.75096 7.78224 8.75 7.7998 8.75H9.2002Z" fill="#DECBF7"/>
<path fill-rule="evenodd" clip-rule="evenodd" d="M8.5 4.94922C8.91421 4.94922 9.25 5.28501 9.25 5.69922V7.25C9.36373 7.25012 9.48445 7.25115 9.58984 7.25977C9.71955 7.27039 9.89074 7.29671 10.0674 7.38672C10.3025 7.50655 10.4935 7.6975 10.6133 7.93262C10.7033 8.10926 10.7296 8.28045 10.7402 8.41016C10.7501 8.5311 10.75 8.67222 10.75 8.7998V14.2002C10.75 14.3278 10.7501 14.4689 10.7402 14.5898C10.7296 14.7196 10.7033 14.8907 10.6133 15.0674C10.4935 15.3025 10.3025 15.4935 10.0674 15.6133C9.89074 15.7033 9.71955 15.7296 9.58984 15.7402C9.48445 15.7488 9.36373 15.7489 9.25 15.749V16.499C9.25 16.9132 8.91421 17.249 8.5 17.249C8.08579 17.249 7.75 16.9132 7.75 16.499V15.749C7.63627 15.7489 7.51555 15.7488 7.41016 15.7402C7.28045 15.7296 7.10926 15.7033 6.93262 15.6133C6.6975 15.4935 6.50655 15.3025 6.38672 15.0674C6.29671 14.8907 6.27039 14.7196 6.25977 14.5898C6.24988 14.4689 6.25 14.3278 6.25 14.2002V8.7998C6.25 8.67222 6.24988 8.5311 6.25977 8.41016C6.27039 8.28045 6.29671 8.10926 6.38672 7.93262C6.50655 7.6975 6.6975 7.50655 6.93262 7.38672C7.10926 7.29671 7.28045 7.27039 7.41016 7.25977C7.51555 7.25115 7.63627 7.25012 7.75 7.25V5.69922C7.75 5.28501 8.08579 4.94922 8.5 4.94922ZM7.7998 8.75C7.78224 8.75 7.76568 8.75096 7.75 8.75098V14.25H9.24902C9.24904 14.2343 9.25 14.2178 9.25 14.2002V8.7998C9.25 8.7826 9.24904 8.76637 9.24902 8.75098C9.23363 8.75096 9.2174 8.75 9.2002 8.75H7.7998Z" fill="#B184EC"/>
<path d="M20.6396 19.1894C21.0539 19.1894 21.3896 19.5252 21.3896 19.9394C21.3896 20.3536 21.0539 20.6894 20.6396 20.6894H3C2.58579 20.6894 2.25 20.3536 2.25 19.9394C2.25 19.5252 2.58579 19.1894 3 19.1894H20.6396Z" fill="#5EA3ED"/>
</svg>
