<svg width="24" height="24" viewBox="0 0 24 24" fill="none" xmlns="http://www.w3.org/2000/svg">
<path fill-rule="evenodd" clip-rule="evenodd" d="M21.0869 16.6465C21.0869 16.914 21.087 17.16 21.0703 17.3643C21.0529 17.5773 21.0128 17.8108 20.8955 18.041C20.7277 18.3701 20.46 18.638 20.1309 18.8057C19.9006 18.9229 19.6672 18.9621 19.4541 18.9795C19.2498 18.9962 19.0039 18.9961 18.7363 18.9961H4.41602V20.7637C4.41602 21.1779 4.08023 21.5137 3.66602 21.5137C3.2518 21.5137 2.91602 21.1779 2.91602 20.7637V2.76367C2.91602 2.34946 3.2518 2.01367 3.66602 2.01367C4.08023 2.01367 4.41602 2.34946 4.41602 2.76367V4.77637H9.91699C10.1846 4.77637 10.4304 4.77628 10.6348 4.79297C10.8479 4.81038 11.0812 4.85043 11.3115 4.96777C11.6408 5.13556 11.9084 5.40318 12.0762 5.73242C12.1935 5.96271 12.2336 6.19606 12.251 6.40918C12.2677 6.6135 12.2666 6.85942 12.2666 7.12695V9.06348H13.3457C13.6132 9.06348 13.8591 9.0634 14.0635 9.08008C14.2766 9.09749 14.5099 9.13754 14.7402 9.25488C15.0695 9.42266 15.3371 9.69025 15.5049 10.0195C15.6222 10.2498 15.6623 10.4832 15.6797 10.6963C15.6964 10.9006 15.6963 11.1465 15.6963 11.4141V13.21H18.7363C19.0039 13.21 19.2498 13.2099 19.4541 13.2266C19.6672 13.244 19.9006 13.284 20.1309 13.4014C20.4601 13.5691 20.7277 13.8367 20.8955 14.166C21.0129 14.3963 21.0529 14.6296 21.0703 14.8428C21.087 15.0471 21.0869 15.293 21.0869 15.5605V16.6465ZM14.1963 11.4141C14.1963 11.1218 14.1951 10.9475 14.1846 10.8184C14.1747 10.6981 14.1606 10.6838 14.1689 10.7002C14.145 10.6532 14.1066 10.6148 14.0596 10.5908C14.0759 10.5991 14.0617 10.585 13.9414 10.5752C13.8123 10.5647 13.638 10.5635 13.3457 10.5635H4.66016C4.5743 10.5635 4.49284 10.5461 4.41602 10.5195V13.21H14.1963V11.4141ZM10.7666 7.12695C10.7666 6.83469 10.7664 6.66036 10.7559 6.53125C10.746 6.41088 10.7319 6.39669 10.7402 6.41309C10.7163 6.36609 10.6778 6.32768 10.6309 6.30371C10.647 6.31191 10.6327 6.29789 10.5127 6.28809C10.3836 6.27754 10.2094 6.27637 9.91699 6.27637H4.41602V9.10742C4.49284 9.08084 4.57431 9.06348 4.66016 9.06348H10.7666V7.12695Z" fill="currentColor"/>
</svg>
