<svg width="24" height="24" viewBox="0 0 24 24" fill="none" xmlns="http://www.w3.org/2000/svg">
<path d="M21.1328 16.749C21.1328 17.0165 21.1329 17.2625 21.1162 17.4668C21.0988 17.6799 21.0587 17.9134 20.9414 18.1436C20.7736 18.4726 20.5059 18.7405 20.1768 18.9082C19.9465 19.0255 19.7131 19.0646 19.5 19.082C19.2957 19.0987 19.0498 19.0986 18.7822 19.0986H4.46094L4.46094 13.3125L18.7822 13.3125C19.0498 13.3125 19.2957 13.3124 19.5 13.3291C19.7131 13.3465 19.9465 13.3866 20.1768 13.5039C20.506 13.6717 20.7736 13.9393 20.9414 14.2686C21.0588 14.4989 21.0988 14.7322 21.1162 14.9453C21.1329 15.1496 21.1328 15.3955 21.1328 15.6631V16.749Z" fill="#8DBEF2"/>
<path fill-rule="evenodd" clip-rule="evenodd" d="M14.2422 13.3135V11.5186C14.2422 11.2263 14.241 11.052 14.2305 10.9229C14.2206 10.8026 14.2065 10.7883 14.2148 10.8047C14.1909 10.7577 14.1525 10.7193 14.1055 10.6953C14.1218 10.7036 14.1076 10.6895 13.9873 10.6797C13.8582 10.6692 13.6839 10.668 13.3916 10.668H11.582C11.5755 10.6681 11.569 10.6689 11.5625 10.6689C11.5563 10.6689 11.5501 10.6681 11.5439 10.668H4.70606C4.61987 10.668 4.53801 10.6508 4.46094 10.624L4.46094 20.8672C4.46094 21.2814 4.12515 21.6172 3.71094 21.6172C3.29672 21.6172 2.96094 21.2814 2.96094 20.8672L2.96094 2.86719C2.96094 2.45297 3.29673 2.11719 3.71094 2.11719C4.12515 2.11719 4.46094 2.45297 4.46094 2.86719L4.46094 4.88281L9.96289 4.88281C10.2305 4.88281 10.4763 4.88273 10.6807 4.89941C10.8938 4.91683 11.1271 4.95688 11.3574 5.07422C11.6866 5.242 11.9543 5.50964 12.1221 5.83887C12.2394 6.06915 12.2795 6.30252 12.2969 6.51563C12.3136 6.71995 12.3125 6.96587 12.3125 7.2334V9.16797H13.3916C13.6591 9.16797 13.9051 9.16789 14.1094 9.18457C14.3225 9.20198 14.5558 9.24203 14.7861 9.35938C15.1154 9.52715 15.383 9.79475 15.5508 10.124C15.6681 10.3543 15.7082 10.5876 15.7256 10.8008C15.7423 11.0051 15.7422 11.251 15.7422 11.5186V13.3135L14.2422 13.3135ZM4.46094 9.21191C4.53801 9.18513 4.61988 9.16797 4.70606 9.16797L10.8125 9.16797V7.2334C10.8125 6.94114 10.8123 6.7668 10.8018 6.6377C10.7919 6.51732 10.7778 6.50314 10.7861 6.51953C10.7622 6.47255 10.7237 6.43413 10.6768 6.41016C10.6929 6.41831 10.6785 6.40433 10.5586 6.39453C10.4295 6.38399 10.2552 6.38281 9.96289 6.38281L4.46094 6.38281L4.46094 9.21191Z" fill="#52C396"/>
</svg>
