<svg width="24" height="24" viewBox="0 0 24 24" fill="none" xmlns="http://www.w3.org/2000/svg">
<path d="M16.9287 2.78125C17.1962 2.78125 17.4422 2.78116 17.6465 2.79785C17.8595 2.81528 18.093 2.85536 18.3232 2.97266C18.6523 3.14045 18.9202 3.40817 19.0879 3.7373C19.2052 3.96754 19.2443 4.201 19.2617 4.41406C19.2784 4.61839 19.2783 4.86428 19.2783 5.13184V19.4531H13.4922V5.13184C13.4922 4.8643 13.4921 4.61839 13.5088 4.41406C13.5262 4.20093 13.5662 3.96761 13.6836 3.7373C13.8514 3.40802 14.119 3.14043 14.4482 2.97266C14.6785 2.85531 14.9119 2.81527 15.125 2.79785C15.3293 2.78118 15.5752 2.78125 15.8428 2.78125H16.9287Z" fill="#8DBEF2"/>
<path fill-rule="evenodd" clip-rule="evenodd" d="M13.4932 9.67188H11.6982C11.406 9.67188 11.2316 9.67306 11.1025 9.68359C10.9822 9.69342 10.968 9.70754 10.9844 9.69922C10.9374 9.72318 10.899 9.76158 10.875 9.80859C10.8833 9.79225 10.8692 9.80646 10.8594 9.92676C10.8488 10.0559 10.8477 10.2302 10.8477 10.5225V12.332C10.8478 12.3385 10.8486 12.345 10.8486 12.3516C10.8486 12.3578 10.8478 12.364 10.8477 12.3701V19.208C10.8477 19.2942 10.8305 19.3761 10.8037 19.4531H21.0469C21.4611 19.4531 21.7969 19.7889 21.7969 20.2031C21.7969 20.6173 21.4611 20.9531 21.0469 20.9531H3.04688C2.63266 20.9531 2.29688 20.6173 2.29688 20.2031C2.29688 19.7889 2.63266 19.4531 3.04688 19.4531H5.0625V13.9512C5.0625 13.6836 5.06241 13.4377 5.0791 13.2334C5.09652 13.0203 5.13657 12.7869 5.25391 12.5566C5.42169 12.2274 5.68932 11.9597 6.01855 11.792C6.24884 11.6747 6.4822 11.6346 6.69531 11.6172C6.89964 11.6005 7.14556 11.6016 7.41309 11.6016H9.34766V10.5225C9.34766 10.2549 9.34758 10.009 9.36426 9.80469C9.38167 9.59155 9.42172 9.35824 9.53906 9.12793C9.70684 8.79865 9.97443 8.53106 10.3037 8.36328C10.534 8.24593 10.7673 8.20589 10.9805 8.18848C11.1848 8.1718 11.4307 8.17188 11.6982 8.17188H13.4932V9.67188ZM9.3916 19.4531C9.36482 19.3761 9.34766 19.2942 9.34766 19.208V13.1016H7.41309C7.12083 13.1016 6.94649 13.1018 6.81738 13.1123C6.69701 13.1221 6.68282 13.1363 6.69922 13.1279C6.65224 13.1519 6.61382 13.1903 6.58984 13.2373C6.59799 13.2212 6.58402 13.2356 6.57422 13.3555C6.56367 13.4846 6.5625 13.6588 6.5625 13.9512V19.4531H9.3916Z" fill="#52C396"/>
</svg>
