<svg width="24" height="24" viewBox="0 0 24 24" fill="none" xmlns="http://www.w3.org/2000/svg">
<path fill-rule="evenodd" clip-rule="evenodd" d="M16.9297 2.78125C17.1972 2.78125 17.4432 2.78116 17.6475 2.79785C17.8605 2.81528 18.094 2.85536 18.3242 2.97266C18.6533 3.14045 18.9212 3.40817 19.0889 3.7373C19.2061 3.96754 19.2453 4.201 19.2627 4.41406C19.2794 4.6184 19.2793 4.86428 19.2793 5.13184V19.4521H21.0469C21.4611 19.4521 21.7969 19.7879 21.7969 20.2021C21.7969 20.6164 21.4611 20.9521 21.0469 20.9521H3.04688C2.63266 20.9521 2.29688 20.6164 2.29688 20.2021C2.29688 19.7879 2.63266 19.4521 3.04687 19.4521H5.05957L5.05957 13.9512C5.05957 13.6836 5.05948 13.4378 5.07617 13.2334C5.09359 13.0203 5.13363 12.7869 5.25098 12.5566C5.41876 12.2274 5.68638 11.9598 6.01562 11.792C6.24591 11.6747 6.47927 11.6346 6.69238 11.6172C6.89671 11.6005 7.14262 11.6016 7.41016 11.6016H9.34473V10.5225C9.34473 10.2549 9.34465 10.009 9.36133 9.80469C9.37874 9.59156 9.41879 9.35824 9.53613 9.12793C9.70391 8.79865 9.9715 8.53106 10.3008 8.36328C10.5311 8.24593 10.7644 8.20589 10.9775 8.18848C11.1819 8.1718 11.4278 8.17188 11.6953 8.17188L13.4932 8.17188V5.13184C13.4932 4.8643 13.4931 4.61839 13.5098 4.41406C13.5272 4.20093 13.5672 3.96761 13.6846 3.7373C13.8523 3.40803 14.1199 3.14043 14.4492 2.97266C14.6795 2.85531 14.9128 2.81527 15.126 2.79785C15.3303 2.78117 15.5762 2.78125 15.8437 2.78125L16.9297 2.78125ZM11.6953 9.67188C11.403 9.67188 11.2287 9.67306 11.0996 9.68359C10.9793 9.69342 10.9651 9.70754 10.9814 9.69922C10.9344 9.72318 10.896 9.76158 10.8721 9.80859C10.8804 9.79225 10.8663 9.80646 10.8564 9.92676C10.8459 10.0559 10.8447 10.2302 10.8447 10.5225V12.332C10.8449 12.3385 10.8457 12.345 10.8457 12.3516C10.8457 12.3578 10.8449 12.3639 10.8447 12.3701V19.208C10.8447 19.2939 10.8273 19.3753 10.8008 19.4521H13.4932V9.67188L11.6953 9.67188ZM7.41016 13.1016C7.11789 13.1016 6.94356 13.1018 6.81445 13.1123C6.69408 13.1221 6.67989 13.1363 6.69629 13.1279C6.64929 13.1519 6.61089 13.1903 6.58691 13.2373C6.59511 13.2211 6.58109 13.2354 6.57129 13.3555C6.56074 13.4846 6.55957 13.6588 6.55957 13.9512L6.55957 19.4521H9.38867C9.36209 19.3753 9.34473 19.2939 9.34473 19.208L9.34473 13.1016H7.41016Z" fill="currentColor"/>
</svg>
