<svg width="24" height="24" viewBox="0 0 24 24" fill="none" xmlns="http://www.w3.org/2000/svg">
<path d="M2.94922 21.9214L20.9492 21.9214C21.3634 21.9214 21.6992 21.5856 21.6992 21.1714C21.6992 20.7572 21.3634 20.4214 20.9492 20.4214L2.94922 20.4214C2.53501 20.4214 2.19922 20.7572 2.19922 21.1714C2.19922 21.5856 2.53501 21.9214 2.94922 21.9214Z" fill="#5EA3ED"/>
<path d="M14.7279 10.1444C14.8162 10.1517 14.9297 10.1673 15.0521 10.2108L15.1771 10.2645L15.3353 10.3622C15.4847 10.4709 15.6071 10.614 15.6918 10.7802C15.7779 10.9492 15.8023 11.1116 15.8119 11.2294C15.8208 11.3384 15.8207 11.4646 15.8207 11.5722V20.33C15.8207 20.3594 15.8189 20.3903 15.8187 20.4218H11.7514C11.7513 20.3903 11.7494 20.3594 11.7494 20.33V11.5722C11.7494 11.4646 11.7483 11.3384 11.7572 11.2294C11.7668 11.1117 11.7913 10.9491 11.8773 10.7802C11.9903 10.5585 12.1712 10.3775 12.393 10.2645C12.5619 10.1785 12.7244 10.1541 12.8422 10.1444C12.9512 10.1355 13.0773 10.1366 13.1849 10.1366H14.3851C14.4927 10.1366 14.6189 10.1355 14.7279 10.1444Z" fill="#7AD1AE"/>
<path d="M7.26893 10.1444C7.35722 10.1517 7.47075 10.1673 7.59315 10.2108L7.71815 10.2645L7.87635 10.3622C8.02576 10.4709 8.1481 10.614 8.2328 10.7802C8.3189 10.9492 8.34327 11.1116 8.35292 11.2294C8.36182 11.3384 8.3617 11.4646 8.3617 11.5722V20.33C8.3617 20.3594 8.35992 20.3903 8.35975 20.4218H4.29237C4.2923 20.3903 4.29041 20.3594 4.29042 20.33V11.5722C4.29041 11.4646 4.28932 11.3384 4.29823 11.2294C4.30786 11.1117 4.33236 10.9491 4.41834 10.7802C4.53133 10.5585 4.71225 10.3775 4.93397 10.2645C5.10291 10.1785 5.26542 10.1541 5.38319 10.1444C5.49223 10.1355 5.61836 10.1366 5.72596 10.1366H6.92616C7.03371 10.1366 7.15993 10.1355 7.26893 10.1444Z" fill="#7AD1AE"/>
<path d="M17.4692 2.46967C17.7621 2.17678 18.2368 2.17678 18.5297 2.46967C18.8226 2.76256 18.8226 3.23732 18.5297 3.53022L14.8119 7.24799C14.7365 7.32339 14.649 7.41139 14.5668 7.48139C14.4777 7.55728 14.3499 7.65217 14.1762 7.71186C13.9458 7.7909 13.6967 7.79774 13.4623 7.73139C13.2853 7.68124 13.1522 7.5934 13.059 7.5224C12.9731 7.45692 12.8807 7.3739 12.8012 7.30268L10.0815 4.86518L6.51507 8.24701C6.21455 8.53159 5.7404 8.51891 5.4555 8.21869C5.17052 7.9181 5.18322 7.44313 5.48382 7.15815L9.07561 3.75287C9.15098 3.68142 9.2385 3.59772 9.32073 3.53119C9.41025 3.4588 9.53797 3.36874 9.7094 3.31342L9.88323 3.27143C10.0002 3.25227 10.1193 3.25066 10.2367 3.26654L10.4116 3.30365L10.5336 3.3476C10.6472 3.39635 10.7375 3.4574 10.8061 3.50971C10.8903 3.57403 10.9806 3.65609 11.058 3.72553L13.7768 6.16108L17.4692 2.46967Z" fill="#B184EC"/>
<path d="M10.6967 13.8369C10.8145 13.8465 10.9769 13.8709 11.1459 13.957C11.3676 14.0699 11.5486 14.2499 11.6616 14.4716C11.7478 14.6408 11.772 14.804 11.7817 14.9218C11.7906 15.0309 11.7895 15.157 11.7895 15.2646V20.4208H10.2895V15.3281H8.46819C8.43199 15.3281 8.39658 15.3242 8.36175 15.3193V13.8359C8.39653 13.8309 8.43204 13.8281 8.46819 13.8281H10.3539C10.4616 13.8281 10.5876 13.8279 10.6967 13.8369Z" fill="#5EA3ED"/>
<path d="M18.1576 13.8369C18.2754 13.8465 18.4378 13.8709 18.6069 13.957C18.8286 14.0699 19.0095 14.2499 19.1225 14.4716C19.2087 14.6408 19.233 14.804 19.2426 14.9218C19.2515 15.0309 19.2504 15.157 19.2504 15.2646V20.4208H17.7504V15.3281H15.9291C15.8922 15.3281 15.8562 15.3235 15.8207 15.3183V13.8369C15.8562 13.8317 15.8923 13.8281 15.9291 13.8281H17.8149C17.9225 13.8281 18.0486 13.8279 18.1576 13.8369Z" fill="#5EA3ED"/>
</svg>
