<svg width="24" height="24" viewBox="0 0 24 24" fill="none" xmlns="http://www.w3.org/2000/svg">
<path fill-rule="evenodd" clip-rule="evenodd" d="M8.33887 10.1425C8.42719 10.1497 8.54064 10.1653 8.66309 10.2089L8.78809 10.2626L8.94629 10.3603C9.09572 10.469 9.21805 10.612 9.30273 10.7782C9.38883 10.9473 9.41322 11.1097 9.42285 11.2274C9.43175 11.3365 9.43164 11.4626 9.43164 11.5702V13.829H11.0674C11.175 13.829 11.3011 13.8289 11.4102 13.8378C11.4392 13.8402 11.471 13.8427 11.5049 13.8476V11.5702C11.5049 11.4626 11.5038 11.3365 11.5127 11.2274C11.5223 11.1097 11.5468 10.9472 11.6328 10.7782C11.7458 10.5565 11.9267 10.3756 12.1484 10.2626C12.3174 10.1765 12.4799 10.1521 12.5977 10.1425C12.7067 10.1336 12.8328 10.1347 12.9404 10.1347H14.1406C14.2482 10.1347 14.3744 10.1336 14.4834 10.1425C14.5717 10.1497 14.6852 10.1653 14.8076 10.2089L14.9326 10.2626L15.0908 10.3603C15.2402 10.469 15.3626 10.612 15.4473 10.7782C15.5334 10.9473 15.5578 11.1097 15.5674 11.2274C15.5763 11.3365 15.5762 11.4626 15.5762 11.5702V13.829H17.2119C17.3195 13.829 17.4456 13.8289 17.5547 13.8378C17.6725 13.8474 17.8349 13.8718 18.0039 13.9579C18.2256 14.0709 18.4065 14.2509 18.5195 14.4726C18.6057 14.6417 18.63 14.8049 18.6396 14.9228C18.6485 15.0318 18.6475 15.158 18.6475 15.2655V20.4198H20.9492C21.3634 20.4198 21.6992 20.7556 21.6992 21.1698C21.6991 21.584 21.3634 21.9198 20.9492 21.9198H2.94922C2.53505 21.9198 2.19929 21.584 2.19922 21.1698C2.19922 20.7556 2.53501 20.4198 2.94922 20.4198H5.3623C5.36224 20.3883 5.36035 20.3575 5.36035 20.328V11.5702C5.36035 11.4626 5.35926 11.3365 5.36816 11.2274C5.37778 11.1097 5.40231 10.9472 5.48828 10.7782C5.60127 10.5565 5.78217 10.3756 6.00391 10.2626C6.1729 10.1765 6.33535 10.1521 6.45312 10.1425C6.56221 10.1336 6.68827 10.1347 6.7959 10.1347H7.99609C8.10369 10.1347 8.22983 10.1336 8.33887 10.1425ZM9.43164 20.328C9.43164 20.3575 9.42986 20.3883 9.42969 20.4198H11.0029V15.329H9.43164V20.328ZM15.5762 20.328C15.5762 20.3575 15.5744 20.3883 15.5742 20.4198H17.1475V15.329H15.5762V20.328Z" fill="currentColor"/>
<path d="M17.4697 2.46963C17.7626 2.17682 18.2374 2.17676 18.5303 2.46963C18.8229 2.76252 18.823 3.23737 18.5303 3.53018L14.8125 7.24795C14.7371 7.32331 14.6495 7.41137 14.5674 7.48135C14.4783 7.5572 14.3504 7.65213 14.1768 7.71182C13.9465 7.79081 13.6971 7.79758 13.4629 7.73135C13.286 7.68126 13.1527 7.59332 13.0596 7.52236C12.9737 7.45696 12.8812 7.3738 12.8018 7.30264L10.082 4.86514L6.51562 8.24697C6.2152 8.53146 5.74099 8.5186 5.45605 8.21865C5.17107 7.91805 5.18378 7.44309 5.48438 7.1581L9.07617 3.75283C9.15152 3.6814 9.23909 3.59765 9.32129 3.53115C9.4108 3.45877 9.53861 3.36868 9.70996 3.31338L9.88379 3.27139C10.0006 3.25227 10.12 3.25063 10.2373 3.2665L10.4121 3.30361L10.5342 3.34756C10.6475 3.39628 10.7382 3.45741 10.8066 3.50967C10.8908 3.57395 10.9812 3.65613 11.0586 3.72549L13.7773 6.16103L17.4697 2.46963Z" fill="currentColor"/>
</svg>
