<svg width="24" height="24" viewBox="0 0 24 24" fill="none" xmlns="http://www.w3.org/2000/svg">
<path d="M4 3.3125C4.41421 3.3125 4.75 3.64829 4.75 4.0625V4.65039H10C10.4142 4.65039 10.75 4.98618 10.75 5.40039V7.40039C10.75 7.5993 10.6709 7.79001 10.5303 7.93066C10.3896 8.07132 10.1989 8.15039 10 8.15039H4.75V16.7402C4.75 17.3123 4.75028 17.6964 4.77441 17.9922C4.79787 18.2793 4.84058 18.4173 4.88672 18.5078C5.00657 18.7429 5.19754 18.9339 5.43262 19.0537C5.52315 19.0998 5.66033 19.1416 5.94727 19.165C6.24314 19.1892 6.62777 19.1904 7.2002 19.1904H19.8779C20.292 19.1906 20.6279 19.5263 20.6279 19.9404C20.6278 20.3544 20.2919 20.6903 19.8779 20.6904H7.2002C6.65252 20.6904 6.19632 20.6905 5.8252 20.6602C5.44553 20.6291 5.08904 20.5623 4.75195 20.3906C4.23451 20.127 3.81346 19.7059 3.5498 19.1885C3.37805 18.8514 3.31035 18.4949 3.2793 18.1152C3.24898 17.7441 3.25 17.2879 3.25 16.7402V4.0625C3.25 3.64829 3.58579 3.3125 4 3.3125ZM19 14.6504C19.4142 14.6504 19.75 14.9862 19.75 15.4004V17.4004C19.75 17.5993 19.6709 17.79 19.5303 17.9307C19.3896 18.0713 19.1989 18.1504 19 18.1504H14C13.5858 18.1504 13.25 17.8146 13.25 17.4004V15.4004C13.25 15.2015 13.3291 15.0108 13.4697 14.8701C13.6104 14.7295 13.8011 14.6504 14 14.6504H19ZM17 9.65039C17.4142 9.65039 17.75 9.98618 17.75 10.4004V12.4004C17.75 12.5993 17.6709 12.79 17.5303 12.9307C17.3896 13.0713 17.1989 13.1504 17 13.1504H8C7.80109 13.1504 7.61038 13.0713 7.46973 12.9307C7.32908 12.79 7.25 12.5993 7.25 12.4004V10.4004C7.25 9.98618 7.58579 9.65039 8 9.65039H17Z" fill="currentColor"/>
</svg>
