<svg width="24" height="24" viewBox="0 0 24 24" fill="none" xmlns="http://www.w3.org/2000/svg">
<path d="M19 14.6511C19.4142 14.6511 19.75 14.9869 19.75 15.4011V17.4011C19.75 17.6 19.6709 17.7907 19.5303 17.9314C19.3896 18.072 19.1989 18.1511 19 18.1511H14C13.5858 18.1511 13.25 17.8153 13.25 17.4011V15.4011C13.25 15.2022 13.3291 15.0115 13.4697 14.8708C13.6104 14.7302 13.8011 14.6511 14 14.6511H19Z" fill="#5EA3ED"/>
<path d="M17 9.65112C17.4142 9.65112 17.75 9.98691 17.75 10.4011V12.4011C17.75 12.6 17.6709 12.7907 17.5303 12.9314C17.3896 13.072 17.1989 13.1511 17 13.1511H8C7.80109 13.1511 7.61038 13.072 7.46973 12.9314C7.32908 12.7907 7.25 12.6 7.25 12.4011V10.4011C7.25 9.98691 7.58579 9.65112 8 9.65112H17Z" fill="#7AD1AE"/>
<path d="M3.25 16.7402V4.0625C3.25 3.64829 3.58579 3.3125 4 3.3125C4.41422 3.3125 4.75 3.64829 4.75 4.0625V16.7402C4.75 17.3123 4.75028 17.6964 4.77442 17.9922C4.79788 18.2793 4.84058 18.4173 4.88672 18.5078C5.00658 18.7429 5.19754 18.9339 5.43262 19.0537C5.52316 19.0998 5.66032 19.1416 5.94727 19.165C6.24315 19.1892 6.62777 19.1904 7.2002 19.1904H19.8779C20.292 19.1906 20.6279 19.5263 20.6279 19.9404C20.6278 20.3544 20.2919 20.6903 19.8779 20.6904H7.2002C6.65252 20.6904 6.19633 20.6905 5.8252 20.6602C5.44553 20.6291 5.08905 20.5623 4.75196 20.3906C4.23451 20.127 3.81346 19.7059 3.54981 19.1885C3.37805 18.8514 3.31035 18.4949 3.2793 18.1152C3.24898 17.7441 3.25 17.2879 3.25 16.7402Z" fill="#5EA3ED"/>
<path d="M10 4.65112C10.4142 4.65112 10.75 4.98691 10.75 5.40112V7.40112C10.75 7.60004 10.6709 7.79074 10.5303 7.9314C10.3896 8.07205 10.1989 8.15112 10 8.15112H4.75V4.65112H10Z" fill="#7AD1AE"/>
</svg>
