<svg width="24" height="24" viewBox="0 0 24 24" fill="none" xmlns="http://www.w3.org/2000/svg">
<path fill-rule="evenodd" clip-rule="evenodd" d="M14.7002 10.25C14.8278 10.25 14.9689 10.2499 15.0898 10.2598C15.2196 10.2704 15.3907 10.2968 15.5674 10.3868C15.8025 10.5066 15.9935 10.6975 16.1133 10.9327C16.2033 11.1093 16.2296 11.2805 16.2402 11.4102C16.2501 11.5311 16.25 11.6723 16.25 11.7998V14.25H18.2002C18.3278 14.25 18.4689 14.2499 18.5898 14.2598C18.7196 14.2704 18.8907 14.2968 19.0674 14.3868C19.3025 14.5066 19.4935 14.6975 19.6133 14.9327C19.7033 15.1093 19.7296 15.2805 19.7402 15.4102C19.7501 15.5311 19.75 15.6723 19.75 15.7998V20.2002C19.75 20.2719 19.7498 20.3477 19.748 20.4219H20.9492C21.3634 20.4219 21.6992 20.7577 21.6992 21.1719C21.6992 21.5861 21.3634 21.9219 20.9492 21.9219H2.94922C2.53501 21.9219 2.19922 21.5861 2.19922 21.1719C2.19922 20.7577 2.53501 20.4219 2.94922 20.4219H4.25195C4.25024 20.3477 4.25 20.2719 4.25 20.2002V18.7998C4.25 18.6723 4.24988 18.5311 4.25977 18.4102C4.27039 18.2805 4.29671 18.1093 4.38672 17.9327C4.50655 17.6975 4.6975 17.5066 4.93262 17.3868C5.10926 17.2968 5.28045 17.2704 5.41016 17.2598C5.5311 17.2499 5.67222 17.25 5.7998 17.25H7.75V15.7998C7.75 15.6723 7.74988 15.5311 7.75977 15.4102C7.77039 15.2805 7.79671 15.1093 7.88672 14.9327C8.00655 14.6975 8.1975 14.5066 8.43262 14.3868C8.60926 14.2968 8.78045 14.2704 8.91016 14.2598C9.0311 14.2499 9.17222 14.25 9.2998 14.25H11.25V11.7998C11.25 11.6723 11.2499 11.5311 11.2598 11.4102C11.2704 11.2805 11.2967 11.1093 11.3867 10.9327C11.5065 10.6975 11.6975 10.5066 11.9326 10.3868C12.1093 10.2968 12.2804 10.2704 12.4102 10.2598C12.5311 10.2499 12.6722 10.25 12.7998 10.25H14.7002ZM5.75 18.751V20.25H7.74902C7.74904 20.2344 7.75 20.2178 7.75 20.2002V18.7998C7.75 18.7826 7.74904 18.7664 7.74902 18.751C7.73363 18.751 7.7174 18.75 7.7002 18.75H5.7998C5.78224 18.75 5.76568 18.751 5.75 18.751ZM9.25 15.751V20.25H11.249C11.249 20.2344 11.25 20.2178 11.25 20.2002V15.7998C11.25 15.7826 11.249 15.7664 11.249 15.751C11.2336 15.751 11.2174 15.75 11.2002 15.75H9.2998C9.28224 15.75 9.26568 15.751 9.25 15.751ZM12.75 11.751V20.25H14.749C14.749 20.2344 14.75 20.2178 14.75 20.2002V11.7998C14.75 11.7826 14.749 11.7664 14.749 11.751C14.7336 11.751 14.7174 11.75 14.7002 11.75H12.7998C12.7822 11.75 12.7657 11.751 12.75 11.751ZM16.25 15.751V20.25H18.249C18.249 20.2344 18.25 20.2178 18.25 20.2002V15.7998C18.25 15.7826 18.249 15.7664 18.249 15.751C18.2336 15.751 18.2174 15.75 18.2002 15.75H16.2998C16.2822 15.75 16.2657 15.751 16.25 15.751Z" fill="#5EA3ED"/>
<path d="M10.404 5.48343C11.8552 4.09575 14.1423 4.09662 15.5915 5.48636C15.9531 5.83306 16.2909 6.39178 16.8161 7.24026L17.0388 7.60061C17.1071 7.711 17.134 7.75331 17.1589 7.79104C17.7418 8.6736 18.7179 9.21791 19.7751 9.24905C19.8203 9.25038 19.87 9.25003 19.9997 9.25003C20.4139 9.25003 20.7497 9.58581 20.7497 10C20.7497 10.4142 20.4139 10.75 19.9997 10.75C19.8792 10.75 19.8036 10.7502 19.7312 10.7481C18.186 10.7026 16.7589 9.90805 15.9069 8.61819C15.867 8.55765 15.8269 8.49331 15.7634 8.39065L15.5407 8.0303C14.9569 7.08715 14.7405 6.74889 14.5534 6.56936C13.6839 5.73554 12.3119 5.73488 11.4411 6.56741C11.2537 6.7466 11.0363 7.08363 10.4509 8.02639L10.2155 8.4053C10.1573 8.49908 10.1202 8.55791 10.0837 8.61331C9.22981 9.90915 7.79712 10.7062 6.24581 10.7481C6.17947 10.7499 6.11015 10.75 5.99972 10.75C5.58551 10.75 5.24972 10.4142 5.24972 10C5.24972 9.58581 5.58551 9.25003 5.99972 9.25003C6.11853 9.25003 6.16441 9.25016 6.20578 9.24905C7.26705 9.22031 8.24758 8.67463 8.83175 7.78811C8.85448 7.75361 8.87857 7.71502 8.94113 7.61428L9.17648 7.23538C9.70287 6.38771 10.042 5.82965 10.404 5.48343Z" fill="#B184EC"/>
</svg>
