<svg width="24" height="24" viewBox="0 0 24 24" fill="none" xmlns="http://www.w3.org/2000/svg">
<path d="M3.3125 16.7402V4.0625C3.3125 3.64829 3.64829 3.3125 4.0625 3.3125C4.47672 3.3125 4.8125 3.64829 4.8125 4.0625V16.7402C4.8125 17.3123 4.81278 17.6964 4.83692 17.9922C4.86038 18.2793 4.90308 18.4173 4.94922 18.5078C5.06908 18.7429 5.26004 18.9339 5.49512 19.0537C5.58566 19.0998 5.72282 19.1416 6.00977 19.165C6.30565 19.1892 6.69027 19.1904 7.2627 19.1904H19.9404C20.3545 19.1906 20.6904 19.5263 20.6904 19.9404C20.6903 20.3544 20.3544 20.6903 19.9404 20.6904H7.2627C6.71502 20.6904 6.25883 20.6905 5.8877 20.6602C5.50803 20.6291 5.15155 20.5623 4.81446 20.3906C4.29701 20.127 3.87596 19.7059 3.61231 19.1885C3.44055 18.8514 3.37285 18.4949 3.3418 18.1152C3.31148 17.7441 3.3125 17.2879 3.3125 16.7402Z" fill="currentColor"/>
<path d="M19.0583 7.72252C19.4725 7.72252 19.8083 8.0583 19.8083 8.47252C19.8083 8.88673 19.4725 9.22252 19.0583 9.22252H14.6316L12.2878 14.5253C12.2431 14.6263 12.1542 14.8532 11.988 15.0272C11.8604 15.1608 11.7037 15.2633 11.53 15.326C11.3039 15.4077 11.0606 15.3973 10.9499 15.3973H7.59152C7.17737 15.3973 6.84162 15.0615 6.84152 14.6473C6.84152 14.2331 7.17731 13.8973 7.59152 13.8973H10.9255L13.2693 8.59361C13.314 8.49244 13.403 8.26648 13.5691 8.09263L13.6696 7.99791C13.7757 7.90985 13.8967 7.8409 14.0271 7.79381C14.2532 7.71218 14.4965 7.7225 14.6071 7.72252H19.0583Z" fill="currentColor"/>
</svg>
