<svg width="24" height="24" viewBox="0 0 24 24" fill="none" xmlns="http://www.w3.org/2000/svg">
<path d="M20.0713 12.001C20.0713 7.54367 16.4582 3.9299 12.001 3.92969C7.54354 3.92969 3.92969 7.54354 3.92969 12.001C3.9299 16.4582 7.54367 20.0713 12.001 20.0713C16.4581 20.0711 20.0711 16.4581 20.0713 12.001ZM21.5713 12.001C21.5711 17.2865 17.2865 21.5711 12.001 21.5713C6.71524 21.5713 2.4299 17.2867 2.42969 12.001C2.42969 6.71511 6.71511 2.42969 12.001 2.42969C17.2867 2.4299 21.5713 6.71524 21.5713 12.001Z" fill="#52C396"/>
<path d="M11.2507 3.96483C7.39208 4.31988 4.32063 7.39235 3.96554 11.251H11.2507V3.96483ZM12.7419 11.6455C12.7321 11.7654 12.7077 11.93 12.6208 12.1006C12.5066 12.3246 12.3243 12.5069 12.1003 12.6211C11.9298 12.708 11.7652 12.7324 11.6452 12.7422C11.5341 12.7512 11.4057 12.751 11.2946 12.751H3.88546C3.77637 12.751 3.64483 12.7515 3.52999 12.7412C3.40231 12.7297 3.23556 12.7004 3.0632 12.6074C2.83473 12.4841 2.64369 12.2785 2.53878 12.041C2.46238 11.868 2.4452 11.7055 2.44308 11.5752C2.44126 11.4619 2.4518 11.3358 2.45968 11.2363C2.82979 6.5598 6.55954 2.83006 11.236 2.45994C11.3356 2.45207 11.4617 2.44153 11.5749 2.44334C11.6725 2.44493 11.7883 2.45488 11.9128 2.49217L12.0407 2.53904L12.1277 2.58299C12.328 2.69283 12.4992 2.86349 12.6071 3.06346C12.7002 3.23582 12.7294 3.40257 12.7409 3.53026C12.7512 3.64509 12.7507 3.77663 12.7507 3.88572V11.2949C12.7507 11.406 12.751 11.5344 12.7419 11.6455Z" fill="#B184EC"/>
<path d="M11.2507 11.251H3.96554C4.32063 7.39235 7.39208 4.31988 11.2507 3.96483V11.251Z" fill="#E9DCFA"/>
</svg>
