<svg width="24" height="24" viewBox="0 0 24 24" fill="none" xmlns="http://www.w3.org/2000/svg">
<path fill-rule="evenodd" clip-rule="evenodd" d="M12.001 2.42969C17.2867 2.4299 21.5713 6.71524 21.5713 12.001C21.5711 17.2865 17.2865 21.5711 12.001 21.5713C6.71524 21.5713 2.4299 17.2867 2.42969 12.001C2.42969 11.8161 2.43594 11.6325 2.44629 11.4502C2.44957 11.375 2.45491 11.3001 2.45996 11.2363C2.46314 11.1962 2.46801 11.1562 2.47168 11.1162C2.47791 11.0483 2.48552 10.9806 2.49316 10.9131C2.50205 10.8347 2.5117 10.7565 2.52246 10.6787C2.53316 10.6013 2.5441 10.5241 2.55664 10.4473C2.57081 10.3605 2.58704 10.2744 2.60352 10.1885C2.61489 10.1291 2.62523 10.0697 2.6377 10.0107C2.65635 9.92256 2.67815 9.83531 2.69922 9.74805C2.71386 9.6874 2.72738 9.62659 2.74316 9.56641C2.81842 9.2795 2.90531 8.9974 3.00586 8.72168C3.08376 8.50806 3.17129 8.29897 3.26367 8.09277C3.29265 8.0281 3.32121 7.96332 3.35156 7.89941C3.37901 7.84164 3.40796 7.78467 3.43652 7.72754C3.47334 7.6539 3.51018 7.58036 3.54883 7.50781C3.58332 7.44308 3.61935 7.37927 3.65527 7.31543C3.69119 7.25159 3.72732 7.18793 3.76465 7.125C3.80142 7.06302 3.83883 7.0015 3.87695 6.94043C3.91551 6.87865 3.9552 6.81766 3.99512 6.75684C4.0384 6.6909 4.0821 6.62533 4.12695 6.56055C4.16126 6.51099 4.19624 6.46196 4.23145 6.41309C4.28278 6.34184 4.33447 6.27093 4.3877 6.20117C4.4216 6.15674 4.45655 6.11315 4.49121 6.06934C4.54437 6.00212 4.59743 5.93488 4.65234 5.86914C4.69378 5.81954 4.73689 5.7714 4.7793 5.72266C4.83261 5.66138 4.88462 5.59895 4.93945 5.53906C5.13039 5.33052 5.33052 5.13039 5.53906 4.93945C5.59895 4.88462 5.66138 4.83261 5.72266 4.7793C5.7714 4.73689 5.81954 4.69378 5.86914 4.65234C5.93488 4.59743 6.00212 4.54437 6.06934 4.49121C6.11315 4.45655 6.15674 4.4216 6.20117 4.3877C6.27093 4.33447 6.34184 4.28278 6.41309 4.23145C6.46196 4.19624 6.51099 4.16126 6.56055 4.12695C6.62533 4.0821 6.6909 4.0384 6.75684 3.99512C6.81766 3.9552 6.87865 3.91551 6.94043 3.87695C7.0015 3.83883 7.06302 3.80142 7.125 3.76465C7.18793 3.72732 7.25159 3.69119 7.31543 3.65527C7.37927 3.61935 7.44308 3.58332 7.50781 3.54883C7.58036 3.51018 7.6539 3.47334 7.72754 3.43652C7.78467 3.40796 7.84164 3.37901 7.89941 3.35156C7.96332 3.32121 8.0281 3.29265 8.09277 3.26367C8.16865 3.22968 8.24438 3.19515 8.32129 3.16309C8.40539 3.12803 8.49088 3.09618 8.57617 3.06348C8.63059 3.04261 8.68436 3.0199 8.73926 3C8.87328 2.95142 9.00878 2.90597 9.14551 2.86328C9.17951 2.85267 9.21389 2.84325 9.24805 2.83301C9.35345 2.8014 9.4595 2.77121 9.56641 2.74316C9.62659 2.72738 9.6874 2.71386 9.74805 2.69922C9.83531 2.67815 9.92256 2.65635 10.0107 2.6377C10.0801 2.62303 10.1498 2.60984 10.2197 2.59668C10.2953 2.58245 10.3711 2.56908 10.4473 2.55664C10.5241 2.5441 10.6013 2.53316 10.6787 2.52246C10.7565 2.5117 10.8347 2.50205 10.9131 2.49316C10.9806 2.48552 11.0483 2.47791 11.1162 2.47168C11.1562 2.46801 11.1962 2.46314 11.2363 2.45996C11.3001 2.45491 11.375 2.44957 11.4502 2.44629C11.6325 2.43594 11.8161 2.42969 12.001 2.42969ZM12.751 11.2949C12.751 11.4059 12.7512 11.5344 12.7422 11.6455C12.7324 11.7654 12.7079 11.9301 12.6211 12.1006C12.5069 12.3246 12.3246 12.5069 12.1006 12.6211C11.9301 12.7079 11.7654 12.7324 11.6455 12.7422C11.5344 12.7512 11.4059 12.751 11.2949 12.751H3.96582C4.34445 16.8565 7.79661 20.0713 12.001 20.0713C16.4581 20.0711 20.0711 16.4581 20.0713 12.001C20.0713 7.79661 16.8565 4.34445 12.751 3.96582V11.2949Z" fill="currentColor"/>
</svg>
