<svg width="24" height="24" viewBox="0 0 24 24" fill="none" xmlns="http://www.w3.org/2000/svg">
<path fill-rule="evenodd" clip-rule="evenodd" d="M21 3.25C21.4142 3.25 21.75 3.58579 21.75 4V20C21.75 20.4142 21.4142 20.75 21 20.75C20.5858 20.75 20.25 20.4142 20.25 20V19.1006H19.8848C18.9731 19.1006 18.4713 19.1012 17.9902 19.0586C15.4354 18.8322 13.045 17.7002 11.252 15.8662C11.0832 15.6936 10.9192 15.5097 10.7256 15.2812L10.0195 14.4258L8.95215 13.1211C7.65078 11.5309 5.77481 10.5371 3.75 10.3389V20C3.75 20.4142 3.41421 20.75 3 20.75C2.58579 20.75 2.25 20.4142 2.25 20V4C2.25 3.58579 2.58579 3.25 3 3.25C3.41421 3.25 3.75 3.58579 3.75 4V5.05078H20.25V4C20.25 3.58579 20.5858 3.25 21 3.25ZM12.5371 10.3008L12.9238 10.7734C13.2763 11.2043 13.4367 11.3993 13.5967 11.5752C15.2363 13.3775 17.5209 14.4601 19.9541 14.5879C20.0451 14.5927 20.1385 14.5938 20.25 14.5957V10.3008H12.5371ZM7.69824 6.55078C8.99606 7.06184 10.19 7.82263 11.208 8.80078H20.25V6.55078H7.69824Z" fill="currentColor"/>
</svg>
