<svg width="24" height="24" viewBox="0 0 24 24" fill="none" xmlns="http://www.w3.org/2000/svg">
<path d="M21 5.25C21.4142 5.25 21.75 5.58579 21.75 6V9C21.75 9.41421 21.4142 9.75 21 9.75H3C2.58579 9.75 2.25 9.41421 2.25 9V6C2.25 5.58579 2.58579 5.25 3 5.25H21Z" fill="#8DBEF2"/>
<path d="M4.0241 5.25292C7.06418 5.32719 9.93124 6.68625 11.9137 8.99218C12.0005 9.09306 12.0886 9.20008 12.2477 9.39452L12.9245 10.2226C13.277 10.6535 13.4373 10.8485 13.5973 11.0244C15.237 12.8267 17.5215 13.9094 19.9548 14.0371C20.1922 14.0495 20.4441 14.0498 21.0007 14.0498C21.4147 14.05 21.7505 14.3858 21.7507 14.7998V17.7998C21.7507 18.2139 21.4147 18.5496 21.0007 18.5498H19.8854C18.9737 18.5498 18.4719 18.5504 17.9909 18.5078C15.436 18.2814 13.0457 17.1494 11.2526 15.3154C11.0838 15.1428 10.9199 14.9589 10.7262 14.7305L10.0202 13.875L8.95281 12.5703C7.49214 10.7853 5.30647 9.7501 3 9.75C2.7796 9.75 2.57089 9.65249 2.42839 9.48437C2.2861 9.31626 2.22431 9.09421 2.26043 8.87695L2.76043 5.87695L2.7946 5.74609C2.89985 5.45302 3.17982 5.24999 3.50066 5.24999C3.75221 5.24999 3.89093 5.24967 4.0241 5.25292Z" fill="#7AD1AE"/>
<path d="M2.25 20L2.25 4C2.25 3.58579 2.58579 3.25 3 3.25C3.41421 3.25 3.75 3.58579 3.75 4L3.75 20C3.75 20.4142 3.41421 20.75 3 20.75C2.58579 20.75 2.25 20.4142 2.25 20Z" fill="#5EA3ED"/>
<path d="M20.25 20V4C20.25 3.58579 20.5858 3.25 21 3.25C21.4142 3.25 21.75 3.58579 21.75 4V20C21.75 20.4142 21.4142 20.75 21 20.75C20.5858 20.75 20.25 20.4142 20.25 20Z" fill="#5EA3ED"/>
</svg>
