<svg width="24" height="24" viewBox="0 0 24 24" fill="none" xmlns="http://www.w3.org/2000/svg">
<path d="M18.4727 5.51909C18.5731 5.11726 18.98 4.87276 19.3818 4.97319C19.7836 5.07363 20.028 5.48062 19.9277 5.88237C19.688 6.84141 19.1004 8.48451 18.2725 9.90386C17.8585 10.6134 17.3641 11.3024 16.7949 11.8228C16.2292 12.34 15.5222 12.7505 14.7002 12.7505C13.34 12.7505 12.681 11.6739 12.2764 11.0669C11.781 10.3238 11.5391 10.0503 11.0996 10.0503C10.8163 10.0505 10.5251 10.1847 10.207 10.5357C9.88186 10.8946 9.584 11.4242 9.31739 12.064C8.78277 13.3471 8.46189 14.8454 8.22754 15.7828C8.12705 16.1844 7.72006 16.4289 7.31836 16.3287C6.91652 16.2282 6.672 15.8204 6.77246 15.4185C6.98812 14.5558 7.34231 12.9036 7.93262 11.4869C8.22843 10.777 8.60543 10.0689 9.09571 9.52788C9.59303 8.97918 10.2583 8.55047 11.0996 8.55034C12.4601 8.55034 13.1198 9.62802 13.5244 10.2349C14.0197 10.9778 14.2607 11.2505 14.7002 11.2505C15.0031 11.2505 15.3647 11.099 15.7832 10.7164C16.1983 10.3369 16.604 9.78834 16.9775 9.148C17.7245 7.86744 18.2624 6.36009 18.4727 5.51909Z" fill="#52C396"/>
<path d="M3.31055 16.7402V4.0625C3.31055 3.64829 3.64634 3.3125 4.06055 3.3125C4.47476 3.3125 4.81055 3.64829 4.81055 4.0625V16.7402C4.81055 17.3123 4.81083 17.6964 4.83496 17.9922C4.85842 18.2793 4.90113 18.4173 4.94727 18.5078C5.06712 18.7429 5.25808 18.9339 5.49317 19.0537C5.5837 19.0998 5.72087 19.1416 6.00782 19.165C6.3037 19.1892 6.68832 19.1904 7.26075 19.1904H19.9385C20.3526 19.1906 20.6885 19.5263 20.6885 19.9404C20.6883 20.3544 20.3524 20.6903 19.9385 20.6904H7.26075C6.71307 20.6904 6.25688 20.6905 5.88575 20.6602C5.50608 20.6291 5.14959 20.5623 4.8125 20.3906C4.29506 20.127 3.87401 19.7059 3.61036 19.1885C3.4386 18.8514 3.3709 18.4949 3.33985 18.1152C3.30953 17.7441 3.31055 17.2879 3.31055 16.7402Z" fill="#5EA3ED"/>
</svg>
