<svg width="24" height="24" viewBox="0 0 24 24" fill="none" xmlns="http://www.w3.org/2000/svg">
<path fill-rule="evenodd" clip-rule="evenodd" d="M16.7363 3.3125C17.284 3.3125 17.7402 3.31148 18.1113 3.3418C18.491 3.37285 18.8475 3.44055 19.1846 3.61231C19.702 3.87596 20.1231 4.29702 20.3867 4.81446C20.5584 5.15154 20.6252 5.50804 20.6563 5.8877C20.6866 6.25883 20.6865 6.71503 20.6865 7.2627V16.7402C20.6865 17.2879 20.6866 17.7441 20.6563 18.1152C20.6252 18.4949 20.5584 18.8514 20.3867 19.1885C20.1231 19.7059 19.702 20.127 19.1846 20.3906C18.8475 20.5623 18.491 20.6291 18.1113 20.6602C17.7402 20.6905 17.284 20.6904 16.7363 20.6904H7.25879C6.71112 20.6904 6.25492 20.6905 5.88379 20.6602C5.50413 20.6291 5.14764 20.5623 4.81055 20.3906C4.29311 20.127 3.87205 19.7059 3.6084 19.1885C3.43665 18.8514 3.36894 18.4949 3.33789 18.1152C3.30758 17.7441 3.3086 17.2879 3.3086 16.7402V7.2627C3.3086 6.71503 3.30757 6.25883 3.33789 5.8877C3.36893 5.50797 3.43669 5.1516 3.6084 4.81446C3.87205 4.29701 4.29311 3.87596 4.81055 3.61231C5.14769 3.4406 5.50406 3.37283 5.88379 3.3418C6.25492 3.31148 6.71112 3.3125 7.25879 3.3125H16.7363ZM12.75 19.1904H16.7363C17.3084 19.1904 17.6925 19.1892 17.9883 19.165C18.2754 19.1416 18.4133 19.0999 18.5039 19.0537C18.7389 18.9339 18.93 18.7428 19.0498 18.5078C19.096 18.4173 19.1377 18.2793 19.1611 17.9922C19.1853 17.6964 19.1865 17.3123 19.1865 16.7402V7.2627C19.1865 6.69028 19.1853 6.30565 19.1611 6.00977C19.1377 5.72283 19.0959 5.58566 19.0498 5.49512C18.93 5.26004 18.7389 5.06907 18.5039 4.94922C18.4133 4.90308 18.2754 4.86038 17.9883 4.83692C17.6925 4.81278 17.3084 4.8125 16.7363 4.8125H12.75V19.1904ZM7.25879 4.8125C6.68637 4.8125 6.30174 4.81274 6.00586 4.83692C5.71887 4.86038 5.58176 4.90309 5.49121 4.94922C5.2561 5.06905 5.06514 5.26001 4.94532 5.49512C4.89918 5.58566 4.85647 5.72278 4.83301 6.00977C4.80884 6.30565 4.8086 6.69028 4.8086 7.2627V16.7402C4.8086 17.3123 4.80888 17.6964 4.83301 17.9922C4.85647 18.2793 4.89918 18.4173 4.94532 18.5078C5.06517 18.7429 5.25613 18.9339 5.49121 19.0537C5.58175 19.0998 5.71892 19.1416 6.00586 19.165C6.30174 19.1892 6.68637 19.1904 7.25879 19.1904H11.25V4.8125H7.25879Z" fill="#52C396"/>
<path d="M19.1865 16.7402C19.1865 17.3123 19.1853 17.6964 19.1611 17.9922C19.1377 18.279 19.0969 18.4163 19.0508 18.5068C18.9309 18.742 18.7391 18.9339 18.5039 19.0537C18.4133 19.0999 18.2754 19.1416 17.9883 19.165C17.6925 19.1892 17.3094 19.1895 16.7373 19.1895L12.75 19.1904L12.75 14.75H19.1865L19.1865 16.7402Z" fill="#DECBF7"/>
<path d="M12.75 4.8125H16.7363C17.3084 4.8125 17.6925 4.81278 17.9883 4.83692C18.2754 4.86038 18.4133 4.90308 18.5039 4.94922C18.7389 5.06907 18.93 5.26004 19.0498 5.49512C19.0959 5.58566 19.1377 5.72283 19.1611 6.00977C19.1853 6.30565 19.1865 6.69028 19.1865 7.2627L19.1865 13.25H12.75L12.75 4.8125Z" fill="#D1E5FA"/>
<path d="M16.7363 3.3125C17.284 3.3125 17.7402 3.31148 18.1113 3.3418C18.491 3.37285 18.8475 3.44055 19.1846 3.61231C19.702 3.87596 20.1231 4.29702 20.3867 4.81446C20.5584 5.15154 20.6252 5.50804 20.6563 5.8877C20.6866 6.25883 20.6865 6.71503 20.6865 7.2627L20.6865 14.75L12.75 14.75V13.25H19.1865L19.1865 7.2627C19.1865 6.69028 19.1853 6.30565 19.1611 6.00977C19.1377 5.72283 19.0959 5.58566 19.0498 5.49512C18.93 5.26004 18.7389 5.06907 18.5039 4.94922C18.4133 4.90308 18.2754 4.86038 17.9883 4.83692C17.6925 4.81278 17.3084 4.8125 16.7363 4.8125H12.75L12.75 3.3125L16.7363 3.3125Z" fill="#5EA3ED"/>
<path d="M11.25 19.1904H7.25879C6.68637 19.1904 6.30174 19.1892 6.00586 19.165C5.71892 19.1416 5.58175 19.0998 5.49121 19.0537C5.25613 18.9339 5.06517 18.7429 4.94532 18.5078C4.89918 18.4173 4.85647 18.2793 4.83301 17.9922C4.80888 17.6964 4.8086 17.3123 4.8086 16.7402V7.2627C4.8086 6.69028 4.80884 6.30565 4.83301 6.00977C4.85647 5.72278 4.89918 5.58566 4.94532 5.49512C5.06514 5.26001 5.2561 5.06905 5.49121 4.94922C5.58176 4.90309 5.71887 4.86038 6.00586 4.83692C6.30174 4.81274 6.68637 4.8125 7.25879 4.8125H11.25V19.1904Z" fill="#A4E0C8"/>
<path d="M20.6865 16.7402C20.6865 17.2879 20.6876 17.7431 20.6572 18.1143C20.6262 18.494 20.5585 18.8513 20.3867 19.1885C20.1231 19.7059 19.7029 20.126 19.1856 20.3897C18.8483 20.5615 18.4912 20.6291 18.1113 20.6602C17.7403 20.6905 17.2847 20.6895 16.7373 20.6895H12.75L12.75 19.1904L16.7373 19.1895C17.3094 19.1895 17.6925 19.1892 17.9883 19.165C18.2754 19.1416 18.4133 19.0999 18.5039 19.0537C18.7391 18.9339 18.9309 18.742 19.0508 18.5068C19.0969 18.4163 19.1377 18.279 19.1611 17.9922C19.1853 17.6964 19.1865 17.3123 19.1865 16.7402L19.1865 14.75L20.6865 14.75L20.6865 16.7402Z" fill="#B184EC"/>
</svg>
