<svg width="24" height="24" viewBox="0 0 24 24" fill="none" xmlns="http://www.w3.org/2000/svg">
<path fill-rule="evenodd" clip-rule="evenodd" d="M16.7373 3.31251C17.1479 3.31251 17.507 3.31172 17.8174 3.32423C17.9207 3.32839 18.0187 3.33424 18.1113 3.34181C18.2062 3.34956 18.2996 3.35967 18.3916 3.37306C18.6682 3.41322 18.9325 3.48337 19.1856 3.61231C19.5089 3.77713 19.7944 4.00346 20.0273 4.27638C20.1672 4.44001 20.2879 4.62054 20.3867 4.81446C20.4081 4.85649 20.428 4.89878 20.4463 4.94142C20.4831 5.0271 20.5142 5.11394 20.54 5.20216C20.5529 5.24611 20.5647 5.29036 20.5752 5.33497C20.6175 5.51367 20.6417 5.69781 20.6572 5.88771C20.6724 6.07321 20.6801 6.27998 20.6836 6.5088C20.6874 6.73775 20.6865 6.98879 20.6865 7.26271V16.7393C20.6865 17.2869 20.6876 17.7431 20.6572 18.1143C20.6352 18.3838 20.5938 18.6412 20.5107 18.8887C20.4768 18.9902 20.4367 19.0903 20.3867 19.1885C20.1231 19.7059 19.702 20.127 19.1846 20.3906C19.0721 20.4479 18.9568 20.4918 18.8398 20.5283C18.7817 20.5465 18.7234 20.5641 18.6641 20.5781C18.4853 20.6202 18.3012 20.6446 18.1113 20.6602C17.7402 20.6905 17.284 20.6904 16.7363 20.6904H7.25879C6.71112 20.6904 6.25492 20.6905 5.88379 20.6602C5.50413 20.6291 5.14764 20.5623 4.81055 20.3906C4.29311 20.127 3.87205 19.7059 3.6084 19.1885C3.43665 18.8514 3.36894 18.4949 3.33789 18.1152C3.30758 17.7441 3.3086 17.2879 3.3086 16.7402V7.26271C3.3086 6.71503 3.30757 6.25883 3.33789 5.88771C3.36893 5.50798 3.43669 5.1516 3.6084 4.81446C3.87205 4.29702 4.29311 3.87597 4.81055 3.61231C5.14769 3.4406 5.50406 3.37284 5.88379 3.34181C6.25492 3.31148 6.71112 3.31251 7.25879 3.31251H16.7373ZM7.25879 4.81251C6.68637 4.81251 6.30174 4.81275 6.00586 4.83692C5.71887 4.86039 5.58176 4.9031 5.49121 4.94923C5.2561 5.06905 5.06514 5.26002 4.94532 5.49513C4.89918 5.58567 4.85647 5.72279 4.83301 6.00978C4.80884 6.30565 4.8086 6.69028 4.8086 7.26271V16.7402C4.8086 17.3123 4.80888 17.6964 4.83301 17.9922C4.85647 18.2793 4.89918 18.4173 4.94532 18.5078C5.06517 18.7429 5.25614 18.9339 5.49121 19.0537C5.58175 19.0998 5.71892 19.1416 6.00586 19.165C6.30174 19.1892 6.68637 19.1904 7.25879 19.1904H11.25V4.81251H7.25879ZM12.75 13.25H19.1865V7.26271C19.1865 6.69028 19.1853 6.30565 19.1611 6.00978C19.1377 5.72284 19.0959 5.58566 19.0498 5.49513C18.93 5.26005 18.7389 5.06908 18.5039 4.94923C18.4133 4.90309 18.2754 4.86038 17.9883 4.83692C17.6925 4.81279 17.3084 4.81251 16.7363 4.81251H12.75V13.25Z" fill="currentColor"/>
</svg>
