<svg width="24" height="24" viewBox="0 0 24 24" fill="none" xmlns="http://www.w3.org/2000/svg">
<path d="M18.75 5C18.9489 5 19.1396 5.07907 19.2803 5.21973C19.4209 5.36038 19.5 5.55109 19.5 5.75V19.75C19.5 19.9489 19.4209 20.1396 19.2803 20.2803C19.1396 20.4209 18.9489 20.5 18.75 20.5H16.75C16.3358 20.5 16 20.1642 16 19.75V5.75C16 5.33579 16.3358 5 16.75 5H18.75Z" fill="currentColor"/>
<path d="M13.75 7C13.9489 7 14.1396 7.07907 14.2803 7.21973C14.4209 7.36038 14.5 7.55109 14.5 7.75V12.75C14.5 13.1642 14.1642 13.5 13.75 13.5H11.75C11.5511 13.5 11.3604 13.4209 11.2197 13.2803C11.0791 13.1396 11 12.9489 11 12.75V7.75C11 7.33579 11.3358 7 11.75 7H13.75Z" fill="currentColor"/>
<path d="M8.75 13C8.94891 13 9.13962 13.0791 9.28027 13.2197C9.42093 13.3604 9.5 13.5511 9.5 13.75V19.75C9.5 20.1642 9.16421 20.5 8.75 20.5H6.75C6.33579 20.5 6 20.1642 6 19.75V13.75C6 13.3358 6.33579 13 6.75 13H8.75Z" fill="currentColor"/>
<path d="M3.25 16.7402V4.0625C3.25 3.64829 3.58579 3.3125 4 3.3125C4.41422 3.3125 4.75 3.64829 4.75 4.0625V16.7402C4.75 17.3123 4.75028 17.6964 4.77442 17.9922C4.79788 18.2793 4.84058 18.4173 4.88672 18.5078C5.00658 18.7429 5.19754 18.9339 5.43262 19.0537C5.52316 19.0998 5.66032 19.1416 5.94727 19.165C6.24315 19.1892 6.62777 19.1904 7.2002 19.1904H19.8779C20.292 19.1906 20.6279 19.5263 20.6279 19.9404C20.6278 20.3544 20.2919 20.6903 19.8779 20.6904H7.2002C6.65252 20.6904 6.19633 20.6905 5.8252 20.6602C5.44553 20.6291 5.08905 20.5623 4.75196 20.3906C4.23451 20.127 3.81346 19.7059 3.54981 19.1885C3.37805 18.8514 3.31035 18.4949 3.2793 18.1152C3.24898 17.7441 3.25 17.2879 3.25 16.7402Z" fill="currentColor"/>
</svg>
