<svg preserveAspectRatio="none" width="100%" height="100%" overflow="visible" style="display: block;" viewBox="0 0 47.8413 50.8005" fill="none" xmlns="http://www.w3.org/2000/svg">
<g id="Group">
<path id="Vector" d="M37.8241 11.1605C38.1751 9.97515 38.8798 8.94105 39.814 8.18235L26.7028 0.61155C25.288 -0.20385 23.5465 -0.20385 22.1344 0.61155L4.09299 11.0281C2.67819 11.8435 1.80879 13.3528 1.80879 14.9863V31.0379C2.54589 30.7166 3.35859 30.5383 4.21449 30.5383H5.38359V15.7828C5.38359 14.935 5.83449 14.152 6.56889 13.7281L23.2333 4.10805C23.9677 3.68415 24.8722 3.68415 25.6039 4.10805L37.8241 11.1631V11.1605Z" fill="var(--fill-0, #2CB67F)"/>
<path id="Vector_2" d="M43.621 18.9202C43.5643 18.9202 43.5103 18.9175 43.4536 18.9148V35.0204C43.4536 35.8682 43.0027 36.6512 42.2683 37.0751L25.6039 46.6951C24.8695 47.119 23.965 47.119 23.2333 46.6951L9.78459 38.9299C9.29859 40.0747 8.46969 41.0413 7.42749 41.6974L22.1344 50.1889C23.5492 51.0043 25.2907 51.0043 26.7028 50.1889L44.7442 39.7723C46.159 38.9569 47.0284 37.4477 47.0284 35.8142V17.8618C46.0564 18.526 44.8846 18.9175 43.621 18.9175V18.9202Z" fill="var(--fill-0, #05264C)"/>
<path id="Vector_3" d="M43.6212 8.65483C41.2911 8.65483 39.4038 10.5421 39.4038 12.8722C39.4038 13.4311 39.5145 13.9657 39.7116 14.4544L26.4546 26.8393C25.8525 26.5072 25.1586 26.3155 24.4215 26.3155C22.0914 26.3155 20.2041 28.2028 20.2041 30.5329C20.2041 30.5761 20.2041 30.6166 20.2068 30.6598L7.8273 34.3939C7.0875 33.1735 5.7483 32.3581 4.2174 32.3581C1.8873 32.3581 4.76837e-07 34.2454 4.76837e-07 36.5755C4.76837e-07 38.9056 1.8873 40.7929 4.2174 40.7929C6.5475 40.7929 8.2431 39.0892 8.4186 36.9238L21.0816 33.106C21.8538 34.105 23.0634 34.7503 24.4215 34.7503C26.7516 34.7503 28.6389 32.863 28.6389 30.5329C28.6389 29.8876 28.4931 29.2747 28.2339 28.7266L41.3829 16.4416C42.0309 16.8493 42.8004 17.0869 43.6239 17.0869C45.954 17.0869 47.8413 15.1996 47.8413 12.8695C47.8413 10.5394 45.954 8.65213 43.6239 8.65213L43.6212 8.65483ZM4.212 38.1955C3.321 38.1955 2.5974 37.4719 2.5974 36.5809C2.5974 35.6899 3.321 34.9663 4.212 34.9663C5.103 34.9663 5.8266 35.6899 5.8266 36.5809C5.8266 37.4719 5.103 38.1955 4.212 38.1955ZM24.4188 32.1529C23.5278 32.1529 22.8042 31.4293 22.8042 30.5383C22.8042 29.6473 23.5278 28.9237 24.4188 28.9237C25.3098 28.9237 26.0334 29.6473 26.0334 30.5383C26.0334 31.4293 25.3098 32.1529 24.4188 32.1529ZM43.6212 14.4868C42.7302 14.4868 42.0066 13.7632 42.0066 12.8722C42.0066 11.9812 42.7302 11.2576 43.6212 11.2576C44.5122 11.2576 45.2358 11.9812 45.2358 12.8722C45.2358 13.7632 44.5122 14.4868 43.6212 14.4868Z" fill="var(--fill-0, #2CB67F)"/>
</g>
</svg>
