<svg preserveAspectRatio="none" width="100%" height="100%" overflow="visible" style="display: block;" viewBox="0 0 16 16" fill="none" xmlns="http://www.w3.org/2000/svg">
<g id="check">
<g id="Icon">
<mask id="path-1-outside-1_10_9930" maskUnits="userSpaceOnUse" x="1.17036" y="2.48834" width="13" height="10" fill="black">
<rect fill="white" x="1.17036" y="2.48834" width="13" height="10"/>
<path d="M12.8918 3.64936C13.1066 3.43472 13.4544 3.43462 13.6691 3.64936C13.8837 3.86412 13.8837 4.21198 13.6691 4.42671L6.40937 11.6875C6.19464 11.902 5.8458 11.902 5.63105 11.6875L2.33125 8.38667C2.11674 8.17192 2.11672 7.82406 2.33125 7.60933C2.54596 7.39461 2.89379 7.39476 3.10859 7.60933L6.01973 10.5205L12.8918 3.64936Z"/>
</mask>
<path d="M12.8918 3.64936C13.1066 3.43472 13.4544 3.43462 13.6691 3.64936C13.8837 3.86412 13.8837 4.21198 13.6691 4.42671L6.40937 11.6875C6.19464 11.902 5.8458 11.902 5.63105 11.6875L2.33125 8.38667C2.11674 8.17192 2.11672 7.82406 2.33125 7.60933C2.54596 7.39461 2.89379 7.39476 3.10859 7.60933L6.01973 10.5205L12.8918 3.64936Z" fill="var(--fill-0, #2CB67F)"/>
<path d="M12.8918 3.64936L12.7858 3.54326L12.7857 3.54329L12.8918 3.64936ZM13.6691 3.64936L13.7753 3.54336L13.7752 3.5433L13.6691 3.64936ZM13.6691 4.42671L13.7752 4.53277L13.7752 4.53274L13.6691 4.42671ZM6.40937 11.6874L6.51539 11.7936L6.51545 11.7935L6.40937 11.6874ZM5.63105 11.6874L5.52497 11.7935L5.52505 11.7936L5.63105 11.6874ZM2.33125 8.38667L2.22512 8.49268L2.22517 8.49272L2.33125 8.38667ZM2.33125 7.60932L2.22518 7.50326L2.22513 7.50331L2.33125 7.60932ZM3.10859 7.60932L3.21466 7.50326L3.2146 7.5032L3.10859 7.60932ZM6.01973 10.5205L5.91366 10.6265C5.97223 10.6851 6.0672 10.6851 6.12578 10.6265L6.01973 10.5205ZM12.8918 3.64936L12.9978 3.75547C13.1541 3.59931 13.4069 3.59931 13.5631 3.75543L13.6691 3.64936L13.7752 3.5433C13.5018 3.26994 13.0591 3.27013 12.7858 3.54326L12.8918 3.64936ZM13.6691 3.64936L13.563 3.75537C13.7191 3.91158 13.7191 4.16454 13.563 4.32068L13.6691 4.42671L13.7752 4.53274C14.0484 4.25942 14.0483 3.81666 13.7753 3.54336L13.6691 3.64936ZM13.6691 4.42671L13.5631 4.32065L6.3033 11.5814L6.40937 11.6874L6.51545 11.7935L13.7752 4.53277L13.6691 4.42671ZM6.40937 11.6874L6.30336 11.5813C6.1472 11.7373 5.89325 11.7373 5.73706 11.5813L5.63105 11.6874L5.52505 11.7936C5.79835 12.0666 6.24208 12.0666 6.51539 11.7936L6.40937 11.6874ZM5.63105 11.6874L5.73714 11.5814L2.43733 8.28062L2.33125 8.38667L2.22517 8.49272L5.52497 11.7935L5.63105 11.6874ZM2.33125 8.38667L2.43737 8.28066C2.28136 8.12447 2.28136 7.87149 2.43736 7.71534L2.33125 7.60932L2.22513 7.50331C1.95208 7.77662 1.95213 8.21938 2.22512 8.49268L2.33125 8.38667ZM2.33125 7.60932L2.43731 7.71539C2.59339 7.55931 2.84629 7.55932 3.00259 7.71545L3.10859 7.60932L3.2146 7.5032C2.94129 7.23019 2.49853 7.22991 2.22518 7.50326L2.33125 7.60932ZM3.10859 7.60932L3.00253 7.71539L5.91366 10.6265L6.01973 10.5205L6.12579 10.4144L3.21466 7.50326L3.10859 7.60932ZM6.01973 10.5205L6.12578 10.6265L12.9979 3.75544L12.8918 3.64936L12.7857 3.54329L5.91367 10.4144L6.01973 10.5205Z" fill="var(--stroke-0, #2CB67F)" mask="url(#path-1-outside-1_10_9930)"/>
</g>
</g>
</svg>
