<svg preserveAspectRatio="none" width="100%" height="100%" overflow="visible" style="display: block;" viewBox="0 0 93 46.5025" fill="none" xmlns="http://www.w3.org/2000/svg">
<g id="Gauge">
<path id="Vector" fill-rule="evenodd" clip-rule="evenodd" d="M91.9052 46.5025C92.5169 46.5025 93.014 46.0033 92.9997 45.392C92.4099 20.2103 71.8139 0 46.5025 0C21.1862 0 0.590105 20.2103 0.000301697 45.392C-0.0140159 46.0033 0.483129 46.5025 1.09475 46.5025H19.1002C19.7118 46.5025 20.2052 46.0054 20.2305 45.3944C20.8113 31.3886 32.3496 20.2198 46.5025 20.2198C60.6553 20.2198 72.189 31.3886 72.7695 45.3944C72.7948 46.0054 73.2882 46.5025 73.8998 46.5025H91.9052Z" fill="var(--fill-0, #E8F2FD)"/>
<path id="Vector_2" fill-rule="evenodd" clip-rule="evenodd" d="M19.1002 46.5025C19.7118 46.5025 20.2052 46.0054 20.2305 45.3944C20.8113 31.3886 32.3496 20.2198 46.5025 20.2198C47.4401 20.2198 48.3607 20.2621 49.2708 20.3575C49.7915 20.4121 50.2914 20.117 50.4718 19.6256L56.7975 2.40534C57.0263 1.78248 56.6596 1.09861 56.0098 0.963528C52.9418 0.32574 49.759 0 46.5025 0C21.1862 0 0.590105 20.2103 0.000301697 45.392C-0.0140159 46.0033 0.483129 46.5025 1.09475 46.5025H19.1002Z" fill="url(#paint0_linear_10_1580)"/>
<rect id="Gauge shape" x="33.2144" y="37.6433" width="27.6786" height="8.85714" rx="1.10714" fill="url(#paint1_linear_10_1580)"/>
</g>
<defs>
<linearGradient id="paint0_linear_10_1580" x1="56.4643" y1="7.19643" x2="-3.4651e-06" y2="63.1071" gradientUnits="userSpaceOnUse">
<stop stop-color="#D1E5FA"/>
<stop offset="1" stop-color="#BBD7F7"/>
</linearGradient>
<linearGradient id="paint1_linear_10_1580" x1="33.2144" y1="42.0719" x2="60.8929" y2="42.0719" gradientUnits="userSpaceOnUse">
<stop stop-color="#7AD1AE"/>
<stop offset="1" stop-color="#A4E0C8"/>
</linearGradient>
</defs>
</svg>
