<svg preserveAspectRatio="none" width="100%" height="100%" overflow="visible" style="display: block;" viewBox="0 0 109.007 128" fill="none" xmlns="http://www.w3.org/2000/svg">
<g id="Group">
<path id="Vector" d="M54.5033 37.4546C84.6046 37.4546 109.007 29.0701 109.007 18.7273C109.007 8.38451 84.6046 0 54.5033 0C24.4019 0 0 8.38451 0 18.7273C0 29.0701 24.4019 37.4546 54.5033 37.4546Z" fill="var(--fill-0, #CBD0D7)"/>
<path id="Vector_2" d="M0.0209351 64.2109V82.8237C0.0209351 88.9639 21.2452 97.8825 54.5021 97.8825C87.759 97.8825 108.983 88.9639 108.983 82.8237V64.2109C97.7796 71.5145 76.065 75.2943 54.5021 75.2943C32.9392 75.2943 11.2246 71.5145 0.0209351 64.2109Z" fill="var(--fill-0, #8F99A3)"/>
<path id="Vector_3" d="M0.0209351 32.4688V53.2311C0.0209351 59.3714 21.2452 68.29 54.5021 68.29C87.759 68.29 108.983 59.3714 108.983 53.2311V32.4688C98.5579 40.4914 78.5477 45.7017 54.5021 45.7017C30.4564 45.7017 10.4463 40.4914 0.0209351 32.4688Z" fill="var(--fill-0, #B0B6BF)"/>
<path id="Vector_4" d="M0.0209351 94.3281V112.941C0.0209351 119.081 21.2452 128 54.5021 128C87.759 128 108.983 119.081 108.983 112.941V94.3281C97.7796 101.632 76.065 105.411 54.5021 105.411C32.9392 105.411 11.2246 101.632 0.0209351 94.3281Z" fill="var(--fill-0, #4C5159)"/>
</g>
</svg>
