<svg preserveAspectRatio="none" width="100%" height="100%" overflow="visible" style="display: block;" viewBox="0 0 65 65" fill="none" xmlns="http://www.w3.org/2000/svg">
<g id="Pie">
<path id="Oval" fill-rule="evenodd" clip-rule="evenodd" d="M32.6419 65C50.4493 65 65 50.4493 65 32.6419C65 14.5507 50.4493 0 32.6419 0C14.5507 0 0 14.5507 0 32.6419C0 50.4493 14.5507 65 32.6419 65Z" fill="var(--fill-0, #D1E5FA)"/>
<mask id="mask0_10_1560" style="mask-type:luminance" maskUnits="userSpaceOnUse" x="0" y="0" width="65" height="65">
<path id="Oval_2" fill-rule="evenodd" clip-rule="evenodd" d="M32.6419 65C50.4493 65 65 50.4493 65 32.6419C65 14.5507 50.4493 0 32.6419 0C14.5507 0 0 14.5507 0 32.6419C0 50.4493 14.5507 65 32.6419 65Z" fill="var(--fill-0, white)"/>
</mask>
<g mask="url(#mask0_10_1560)">
<path id="Oval_3" d="M57.8228 15.4384C67.2998 30.0318 63.0991 49.5795 48.44 59.0992C33.7809 68.6189 14.2146 64.5057 4.73753 49.9124C-1.52219 40.273 -1.81242 28.4731 2.93522 18.8284L39.1542 34.9548L51.1369 8.04061C53.6819 10.0816 55.9499 12.5546 57.8228 15.4384Z" fill="var(--fill-0, #E8F2FD)"/>
<path id="Oval_4" d="M32.6411 -0.000244141C50.4482 -5.92052e-05 64.9985 14.5504 64.9985 32.6414C64.9985 50.4486 50.4483 64.9996 32.6411 64.9998C26.0971 64.9998 20.0168 63.0943 14.9204 59.821L32.0728 31.8074V0.0065918C32.2617 0.00340319 32.4514 -0.000244141 32.6411 -0.000244141Z" fill="var(--fill-0, #BBD7F7)"/>
<g id="Oval_5">
<path fill-rule="evenodd" clip-rule="evenodd" d="M32.3015 49.4101C41.7503 49.4101 49.4101 41.7503 49.4101 32.3015C49.4101 22.8527 41.7503 15.1929 32.3015 15.1929C22.8527 15.1929 15.1929 22.8527 15.1929 32.3015C15.1929 41.7503 22.8527 49.4101 32.3015 49.4101Z" fill="var(--fill-0, white)"/>
<path fill-rule="evenodd" clip-rule="evenodd" d="M32.3015 49.4101C41.7503 49.4101 49.4101 41.7503 49.4101 32.3015C49.4101 22.8527 41.7503 15.1929 32.3015 15.1929C22.8527 15.1929 15.1929 22.8527 15.1929 32.3015C15.1929 41.7503 22.8527 49.4101 32.3015 49.4101Z" fill="url(#paint0_linear_10_1560)"/>
</g>
</g>
</g>
<defs>
<linearGradient id="paint0_linear_10_1560" x1="32.3015" y1="15.1929" x2="32.3015" y2="49.4101" gradientUnits="userSpaceOnUse">
<stop stop-color="white"/>
<stop offset="1" stop-color="white" stop-opacity="0"/>
</linearGradient>
</defs>
</svg>
