<svg preserveAspectRatio="none" width="100%" height="100%" overflow="visible" style="display: block;" viewBox="0 0 117.079 60.9451" fill="none" xmlns="http://www.w3.org/2000/svg">
<g id="Table">
<rect id="Table_2" x="0.400954" y="0.400954" width="116.277" height="60.1431" rx="2.36928" fill="url(#paint0_linear_10_1589)" stroke="url(#paint1_linear_10_1589)" stroke-width="0.801909"/>
<path id="Vector" d="M0.802734 16.0381H116.278" stroke="var(--stroke-0, #D1E5FA)" stroke-width="0.801909"/>
<path id="Vector_2" d="M38.4917 0.801758L38.4917 60.143" stroke="url(#paint2_linear_10_1589)" stroke-width="0.801909"/>
<path id="Vector_3" d="M77.7852 0.801758L77.7852 60.143" stroke="url(#paint3_linear_10_1589)" stroke-width="0.801909"/>
<rect id="Table cell" opacity="0.8" x="6.92432" y="21.4158" width="20.2883" height="3.60859" rx="1.80429" fill="url(#paint4_linear_10_1589)"/>
<path id="Table cell_2" opacity="0.2" d="M6.92432 48.315C6.92432 47.3186 7.73213 46.5107 8.72861 46.5107H25.4083C26.4048 46.5107 27.2126 47.3186 27.2126 48.315V48.315C27.2126 49.3115 26.4048 50.1193 25.4083 50.1193H8.72861C7.73213 50.1193 6.92432 49.3115 6.92432 48.315V48.315Z" fill="url(#paint5_linear_10_1589)"/>
<rect id="Table cell_3" opacity="0.8" x="45.709" y="21.6514" width="14.4344" height="3.60859" rx="1.80429" fill="url(#paint6_linear_10_1589)"/>
<path id="Table cell_4" opacity="0.2" d="M45.709 48.315C45.709 47.3186 46.5168 46.5107 47.5133 46.5107H64.193C65.1895 46.5107 65.9973 47.3186 65.9973 48.315V48.315C65.9973 49.3115 65.1895 50.1193 64.193 50.1193H47.5133C46.5168 50.1193 45.709 49.3115 45.709 48.315V48.315Z" fill="url(#paint7_linear_10_1589)"/>
<rect id="Table cell_5" opacity="0.8" x="84.4922" y="21.6514" width="14.4344" height="3.60859" rx="1.80429" fill="url(#paint8_linear_10_1589)"/>
<rect id="Table cell_6" opacity="0.2" x="84.4922" y="46.5107" width="14.4344" height="3.60859" rx="1.80429" fill="url(#paint9_linear_10_1589)"/>
<path id="Table cell_7" opacity="0.4" d="M6.92432 35.4842C6.92432 34.4877 7.73213 33.6799 8.72861 33.6799H19.5544C20.5509 33.6799 21.3587 34.4877 21.3587 35.4842V35.4842C21.3587 36.4807 20.5509 37.2885 19.5544 37.2885H8.72861C7.73213 37.2885 6.92432 36.4807 6.92432 35.4842V35.4842Z" fill="url(#paint10_linear_10_1589)"/>
<path id="Table cell_8" d="M45.709 35.5692C45.709 34.5727 46.5168 33.7649 47.5133 33.7649H64.193C65.1895 33.7649 65.9973 34.5727 65.9973 35.5692V35.5692C65.9973 36.5657 65.1895 37.3735 64.193 37.3735H47.5133C46.5168 37.3735 45.709 36.5657 45.709 35.5692V35.5692Z" fill="url(#paint11_linear_10_1589)"/>
<path id="Table cell_9" opacity="0.4" d="M84.4922 35.5692C84.4922 34.5727 85.3 33.7649 86.2965 33.7649H102.976C103.973 33.7649 104.78 34.5727 104.78 35.5692V35.5692C104.78 36.5657 103.973 37.3735 102.976 37.3735H86.2965C85.3 37.3735 84.4922 36.5657 84.4922 35.5692V35.5692Z" fill="url(#paint12_linear_10_1589)"/>
<path id="Table cell_10" d="M6.92432 9.22157C6.92432 8.11436 7.82188 7.2168 8.92909 7.2168H27.373C28.4802 7.2168 29.3778 8.11436 29.3778 9.22157V9.22157C29.3778 10.3288 28.4802 11.2263 27.373 11.2263H8.92909C7.82189 11.2263 6.92432 10.3288 6.92432 9.22157V9.22157Z" fill="url(#paint13_linear_10_1589)"/>
<path id="Table cell_11" d="M45.709 9.22157C45.709 8.11436 46.6066 7.2168 47.7138 7.2168H59.7424C60.8496 7.2168 61.7472 8.11436 61.7472 9.22157V9.22157C61.7472 10.3288 60.8496 11.2263 59.7424 11.2263H47.7138C46.6066 11.2263 45.709 10.3288 45.709 9.22157V9.22157Z" fill="url(#paint14_linear_10_1589)"/>
<path id="Table cell_12" d="M84.4922 9.22157C84.4922 8.11436 85.3898 7.2168 86.497 7.2168H104.941C106.048 7.2168 106.946 8.11436 106.946 9.22157V9.22157C106.946 10.3288 106.048 11.2263 104.941 11.2263H86.497C85.3898 11.2263 84.4922 10.3288 84.4922 9.22157V9.22157Z" fill="url(#paint15_linear_10_1589)"/>
</g>
<defs>
<linearGradient id="paint0_linear_10_1589" x1="55.7326" y1="0" x2="55.7326" y2="60.9451" gradientUnits="userSpaceOnUse">
<stop stop-color="#E8F2FD"/>
<stop offset="1" stop-color="#E8F2FD" stop-opacity="0"/>
</linearGradient>
<linearGradient id="paint1_linear_10_1589" x1="58.5393" y1="0" x2="58.5393" y2="63.7517" gradientUnits="userSpaceOnUse">
<stop stop-color="#BBD7F7"/>
<stop offset="1" stop-color="#F5F8FA" stop-opacity="0"/>
</linearGradient>
<linearGradient id="paint2_linear_10_1589" x1="37.9917" y1="0.801758" x2="37.9917" y2="52.6343" gradientUnits="userSpaceOnUse">
<stop stop-color="#BBD7F7"/>
<stop offset="1" stop-color="#F9FBFC"/>
</linearGradient>
<linearGradient id="paint3_linear_10_1589" x1="77.2852" y1="0.801758" x2="77.2852" y2="52.6343" gradientUnits="userSpaceOnUse">
<stop stop-color="#BBD7F7"/>
<stop offset="1" stop-color="#F9FBFC"/>
</linearGradient>
<linearGradient id="paint4_linear_10_1589" x1="6.92432" y1="23.2201" x2="26.972" y2="23.2201" gradientUnits="userSpaceOnUse">
<stop stop-color="#BBD7F7"/>
<stop offset="1" stop-color="#D1E5FA"/>
</linearGradient>
<linearGradient id="paint5_linear_10_1589" x1="6.92432" y1="48.315" x2="26.972" y2="48.315" gradientUnits="userSpaceOnUse">
<stop stop-color="#BBD7F7"/>
<stop offset="1" stop-color="#D1E5FA"/>
</linearGradient>
<linearGradient id="paint6_linear_10_1589" x1="45.709" y1="23.4557" x2="59.9722" y2="23.4557" gradientUnits="userSpaceOnUse">
<stop stop-color="#BBD7F7"/>
<stop offset="1" stop-color="#D1E5FA"/>
</linearGradient>
<linearGradient id="paint7_linear_10_1589" x1="45.709" y1="48.315" x2="65.7567" y2="48.315" gradientUnits="userSpaceOnUse">
<stop stop-color="#BBD7F7"/>
<stop offset="1" stop-color="#D1E5FA"/>
</linearGradient>
<linearGradient id="paint8_linear_10_1589" x1="84.4922" y1="23.4557" x2="98.7554" y2="23.4557" gradientUnits="userSpaceOnUse">
<stop stop-color="#BBD7F7"/>
<stop offset="1" stop-color="#D1E5FA"/>
</linearGradient>
<linearGradient id="paint9_linear_10_1589" x1="84.4922" y1="48.315" x2="98.7554" y2="48.315" gradientUnits="userSpaceOnUse">
<stop stop-color="#BBD7F7"/>
<stop offset="1" stop-color="#D1E5FA"/>
</linearGradient>
<linearGradient id="paint10_linear_10_1589" x1="6.92432" y1="35.4842" x2="21.1875" y2="35.4842" gradientUnits="userSpaceOnUse">
<stop stop-color="#BBD7F7"/>
<stop offset="1" stop-color="#D1E5FA"/>
</linearGradient>
<linearGradient id="paint11_linear_10_1589" x1="45.709" y1="35.5692" x2="65.9973" y2="35.5692" gradientUnits="userSpaceOnUse">
<stop stop-color="#7AD1AE"/>
<stop offset="1" stop-color="#A4E0C8"/>
</linearGradient>
<linearGradient id="paint12_linear_10_1589" x1="84.4922" y1="35.5692" x2="104.54" y2="35.5692" gradientUnits="userSpaceOnUse">
<stop stop-color="#BBD7F7"/>
<stop offset="1" stop-color="#D1E5FA"/>
</linearGradient>
<linearGradient id="paint13_linear_10_1589" x1="6.92432" y1="9.22157" x2="29.1115" y2="9.22157" gradientUnits="userSpaceOnUse">
<stop stop-color="#BBD7F7"/>
<stop offset="1" stop-color="#D1E5FA"/>
</linearGradient>
<linearGradient id="paint14_linear_10_1589" x1="45.709" y1="9.22157" x2="69.5881" y2="9.22157" gradientUnits="userSpaceOnUse">
<stop stop-color="#BBD7F7"/>
<stop offset="1" stop-color="#D1E5FA"/>
</linearGradient>
<linearGradient id="paint15_linear_10_1589" x1="84.4922" y1="9.22157" x2="117.923" y2="9.22157" gradientUnits="userSpaceOnUse">
<stop stop-color="#BBD7F7"/>
<stop offset="1" stop-color="#D1E5FA"/>
</linearGradient>
</defs>
</svg>
