<svg preserveAspectRatio="none" width="100%" height="100%" overflow="visible" style="display: block;" viewBox="0 0 11.0283 11.8001" fill="none" xmlns="http://www.w3.org/2000/svg">
<g id="Icon">
<path fill-rule="evenodd" clip-rule="evenodd" d="M5.51385 7.19987C7.58136 7.19991 9.41757 8.19913 10.5835 9.74219C10.6913 9.88482 10.8031 10.0307 10.881 10.1699C10.9693 10.3274 11.0321 10.5052 11.0282 10.7201C11.025 10.8921 10.9723 11.0557 10.9071 11.1868C10.8418 11.318 10.743 11.4588 10.6076 11.5651C10.4274 11.7065 10.2297 11.7586 10.0464 11.7806C9.87643 11.801 9.67157 11.8001 9.45786 11.8001H1.57049C1.35675 11.8001 1.15195 11.801 0.981945 11.7806C0.798553 11.7586 0.600973 11.7065 0.420747 11.5651C0.285295 11.4588 0.185931 11.318 0.120617 11.1868C0.0553856 11.0557 0.00333478 10.8921 0.000174558 10.7201C-0.00375484 10.5052 0.0590641 10.3275 0.14731 10.1699C0.225307 10.0307 0.337062 9.88482 0.444836 9.74219C1.61075 8.19919 3.44641 7.19995 5.51385 7.19987ZM5.51385 8.19987C3.77746 8.19995 2.23012 9.03785 1.24236 10.3451C1.11859 10.5089 1.05661 10.593 1.01971 10.6589C1.00666 10.6821 1.00173 10.6946 1.00017 10.6992C1.00017 10.6992 1.00094 10.7025 1.00148 10.7044C1.00419 10.7142 1.00874 10.7273 1.0158 10.7415C1.02262 10.7552 1.02994 10.7667 1.03598 10.7747C1.04565 10.7777 1.06541 10.7828 1.10109 10.7871C1.19783 10.7987 1.33236 10.8001 1.57049 10.8001H9.45786C9.69595 10.8001 9.83053 10.7987 9.92726 10.7871C9.96233 10.7829 9.98194 10.7777 9.99171 10.7747C9.99777 10.7667 10.005 10.7553 10.0119 10.7415C10.019 10.7273 10.0242 10.7142 10.0269 10.7044C10.0273 10.7028 10.0275 10.6999 10.0275 10.6999C10.0261 10.6956 10.0221 10.6829 10.0086 10.6589C9.97172 10.5929 9.90922 10.509 9.78533 10.3451C8.79755 9.03779 7.25031 8.19991 5.51385 8.19987Z" fill="var(--fill-0, #259B6C)"/>
<path fill-rule="evenodd" clip-rule="evenodd" d="M5.51385 0C7.28098 0.000163282 8.71365 1.43272 8.71372 3.19987C8.71372 4.96708 7.28102 6.39958 5.51385 6.39974C3.7466 6.39967 2.31398 4.96714 2.31398 3.19987C2.31405 1.43266 3.74664 7.04347e-05 5.51385 0ZM5.51385 1C4.29892 1.00007 3.31405 1.98495 3.31398 3.19987C3.31398 4.41485 4.29888 5.39967 5.51385 5.39974C6.72873 5.39958 7.71372 4.4148 7.71372 3.19987C7.71365 1.985 6.72869 1.00016 5.51385 1Z" fill="var(--fill-0, #259B6C)"/>
</g>
</svg>
