<svg preserveAspectRatio="none" width="100%" height="100%" overflow="visible" style="display: block;" viewBox="0 0 279.772 137.27" fill="none" xmlns="http://www.w3.org/2000/svg">
<path id="Vector 159" d="M0 133.272C0 135.48 1.78993 137.27 3.99792 137.27C6.20591 137.27 7.99584 135.48 7.99584 133.272C7.99584 131.064 6.20591 129.274 3.99792 129.274C1.78993 129.274 0 131.064 0 133.272ZM215.917 0.74961V1.49922H279.772V0.74961V0H215.917V0.74961ZM203.939 74.5696H204.689V12.7273H203.939H203.189V74.5696H203.939ZM203.939 133.272H204.689V74.5696H203.939H203.189V133.272H203.939ZM3.99792 133.272V134.022H54.8263V133.272V132.522H3.99792V133.272ZM215.917 0.74961V0C208.888 0 203.189 5.6982 203.189 12.7273H203.939H204.689C204.689 6.5262 209.716 1.49922 215.917 1.49922V0.74961Z" fill="var(--stroke-0, #259B6C)"/>
</svg>
