<svg preserveAspectRatio="none" width="100%" height="100%" overflow="visible" style="display: block;" viewBox="0 0 259.992 81.1705" fill="none" xmlns="http://www.w3.org/2000/svg">
<path id="Vector 122" d="M252.767 0.31787C252.344 -0.105957 251.656 -0.105957 251.233 0.31787L244.326 7.22453C243.902 7.64835 243.902 8.33551 244.326 8.75934C244.75 9.18317 245.437 9.18317 245.861 8.75934L252 2.62009L258.139 8.75934C258.563 9.18317 259.25 9.18317 259.674 8.75934C260.098 8.33551 260.098 7.64835 259.674 7.22453L252.767 0.31787ZM0 80.0853V81.1706H225V80.0853V79H0V80.0853ZM252 53.0853H253.085V1.08528H252H250.915V53.0853H252ZM225 80.0853V81.1706C240.511 81.1706 253.085 68.5963 253.085 53.0853H252H250.915C250.915 67.3976 239.312 79 225 79V80.0853Z" fill="var(--stroke-0, #259B6C)"/>
</svg>
