<svg preserveAspectRatio="none" width="100%" height="100%" overflow="visible" style="display: block;" viewBox="0 0 915.551 361.657" fill="none" xmlns="http://www.w3.org/2000/svg">
<g id="Container">
<path id="Vector 163" d="M-3.47518e-09 357.659C-3.47518e-09 359.867 1.78993 361.657 3.99792 361.657C6.20591 361.657 7.99584 359.867 7.99584 357.659C7.99584 355.451 6.20591 353.661 3.99792 353.661C1.78993 353.661 -3.47518e-09 355.451 -3.47518e-09 357.659ZM444.972 85.2386V85.9882H444.973L444.972 85.2386ZM897.921 85.1093L897.921 84.3597L897.921 85.1093ZM119.703 96.9815H118.953H119.703ZM131.446 85.2386V85.9882H444.972V85.2386V84.489H131.446V85.2386ZM444.972 85.2386L444.973 85.9882L897.921 85.8589L897.921 85.1093L897.921 84.3597L444.972 84.489L444.972 85.2386ZM909.66 73.3664H910.41V1.43861H909.66H908.911V73.3664H909.66ZM3.99792 357.659V358.409H107.96V357.659V356.91H3.99792V357.659ZM119.703 345.916H120.453L120.453 96.9815H119.703H118.953L118.953 345.916H119.703ZM107.96 357.659V358.409C114.86 358.409 120.453 352.816 120.453 345.916H119.703H118.953C118.953 351.988 114.032 356.91 107.96 356.91V357.659ZM897.921 85.1093L897.921 85.8589C904.819 85.8569 910.41 80.2644 910.41 73.3664H909.66H908.911C908.911 79.4366 903.991 84.3579 897.921 84.3597L897.921 85.1093ZM131.446 85.2386V84.489C124.547 84.489 118.953 90.0821 118.953 96.9815H119.703H120.453C120.453 90.9101 125.375 85.9882 131.446 85.9882V85.2386Z" fill="var(--stroke-0, #259B6C)"/>
<path id="arrow" d="M914.884 6.27984L909.547 0.943364L904.211 6.27984" stroke="var(--stroke-0, #259B6C)" stroke-width="1.33412" stroke-linecap="round"/>
</g>
</svg>
